<svg width="142" height="218" viewBox="0 0 142 218" fill="none" xmlns="http://www.w3.org/2000/svg">
<rect x="0.5" y="0.5" width="141" height="217" rx="4.5" fill="#191515"/>
<rect x="0.5" y="0.5" width="141" height="217" rx="4.5" stroke="#B17BFF"/>
<path d="M49.26 83.62V83.35L45.48 75.43L48.63 77.41C49.62 75.16 50.16 72.64 50.34 70.03C50.52 67.42 50.7 64.9 50.97 62.29C50.7 59.77 50.61 57.16 50.61 54.37C50.61 51.67 50.16 49.42 49.26 47.44C48.27 51.58 46.83 55.45 45.12 59.14C43.32 62.83 41.16 66.34 38.46 69.58L35.49 71.38L34.41 72.73V72.28C37.29 67.6 39.45 62.65 41.07 57.52C42.51 52.39 43.5 46.99 43.95 41.32L42.78 40.78L37.83 47.17L33.15 50.32V50.14C35.13 47.53 37.2 45.1 39.18 42.58C41.25 40.24 42.78 37.54 43.95 34.66C42.42 32.68 41.07 30.7 39.72 28.45C38.46 26.38 37.83 24.04 37.83 21.52L38.19 20.89H38.64C39.63 22.51 40.44 24.13 41.07 25.93C41.7 27.64 42.69 29.26 44.22 30.61L46.29 31.69C47.46 29.17 48.18 26.56 48.63 23.77C49.08 20.89 49.89 18.28 50.97 15.76L51.87 15.4C52.41 16.21 53.04 16.75 53.67 17.02C54.39 17.29 55.11 17.56 55.92 17.74L56.19 18.64C55.38 21.7 54.12 24.58 52.41 27.37C50.61 30.07 49.35 32.86 48.36 35.74C49.89 37.81 51.06 39.88 51.96 42.13C52.86 44.29 53.31 46.63 53.31 49.24L53.04 50.32L53.31 51.85L52.68 53.83L53.31 55.63L53.04 57.88L53.31 59.41L53.04 63.46L53.31 66.7L53.04 68.77H53.58L57.63 63.82H58.17V63.19C61.23 59.5 64.29 55.63 66.99 51.67C69.69 47.71 72.12 43.57 74.28 39.25H73.02L70.5 41.68V41.32L70.77 40.15H70.14L60.33 44.29L59.07 42.76C58.08 42.94 57.27 42.85 56.28 42.58C55.29 42.4 54.48 41.95 53.85 41.32L61.41 38.17V37.54C63.39 37.18 65.28 36.91 67.26 36.82C69.15 36.73 71.04 36.46 72.75 36.1L73.65 30.61L73.38 29.44H71.94L68.97 30.34C68.07 30.34 67.17 30.07 66.54 29.44C65.82 28.81 65.1 28.36 64.38 27.91L64.11 27.1H63.48V26.83C65.19 26.56 66.9 26.11 68.61 25.39C70.23 24.76 71.94 24.13 73.65 23.59V23.05C72.39 21.88 71.58 20.35 71.4 18.73C71.13 17.02 71.13 15.4 71.4 13.69H71.94L72.21 14.59H72.75L76.89 13.69L77.7 14.23C78.15 15.4 78.51 16.57 78.96 17.74C79.32 18.91 79.5 20.17 79.5 21.52L83.64 21.79L84.45 21.52V22.15H85.62C86.25 21.34 86.79 20.35 87.24 19.45C87.6 18.46 87.87 17.38 87.87 16.3H89.13C89.94 16.84 90.84 17.02 91.74 16.93C92.73 16.84 93.45 17.11 94.08 17.74L94.35 19.54C93.18 21.25 92.01 22.96 91.02 24.58C89.94 26.29 89.22 28 88.77 29.98L86.25 30.34L84.72 33.76H85.89L92.55 32.86V32.32H94.08L103.98 34.12L104.52 35.47H104.25V36.1C103.08 36.73 101.91 37 100.65 37.09C99.3 37.18 98.13 37.36 96.96 37.54L90.03 37C88.41 37.18 86.88 37.27 85.17 37.27C83.55 37.27 82.11 37.81 80.94 38.8L74.28 47.71H73.65L71.04 52.39H71.67C72.3 51.58 73.02 50.86 74.01 50.14C75 49.33 75.45 48.43 75.45 47.44H77.16L78.6 47.71L91.38 43.93C93.18 44.56 94.89 45.01 96.69 45.28C98.49 45.55 100.11 46.09 101.64 46.81L102 47.71C101.55 48.34 101.1 48.61 100.65 48.61C100.11 48.61 99.57 48.7 98.94 48.97L98.67 50.32H98.13L97.59 59.68L97.86 61.66C97.41 64.27 97.23 66.79 97.14 69.49C97.05 72.28 96.6 74.89 95.79 77.41L94.89 78.31H94.71V78.04L92.01 77.41V76.87H90.93L90.57 76.06H86.52L77.7 76.51L76.08 75.43V74.89L74.55 73.99C73.92 72.64 73.47 71.2 73.11 69.85C72.66 68.59 72.39 67.15 72.21 65.8L72.48 60.85L69.24 55.36C68.16 57.07 66.81 58.69 65.37 60.4C63.93 62.02 62.4 63.73 60.87 65.17L56.82 68.77L52.68 71.02C52.14 73 51.96 75.16 52.05 77.32C52.14 79.57 51.51 81.55 50.34 83.35L49.26 83.62ZM88.77 72.55L88.23 70.21L89.13 66.97L88.77 66.07H89.4V64.09L89.13 58.78H87.6C86.16 59.41 84.45 59.77 82.65 59.95C80.76 60.22 78.96 60.49 77.16 60.85V62.29C77.52 63.91 77.7 65.53 77.7 67.42C77.7 69.22 77.88 71.11 78.33 72.73L80.67 73.36L88.77 72.55ZM89.13 57.43V55.9L87.87 50.59L86.79 50.14L86.52 48.97H85.89L79.5 51.49L76.08 49.87L74.28 51.49L73.92 53.29L76.08 56.17L75.18 56.53V57.61L76.26 58.24C77.79 57.61 79.5 57.25 81.12 56.98C82.83 56.71 84.45 56.53 86.25 56.53L89.13 57.43ZM46.83 39.88V39.25L46.02 38.17H45.48L44.58 39.61L46.83 39.88ZM77.7 34.66L83.01 26.2H81.57L78.6 27.37L76.53 35.02H77.43L77.7 34.66Z" fill="url(#paint0_linear_14_699)"/>
<path d="M42.6797 91.1602H42.7148L42.7969 91.2422V91.2773H42.7148L42.6797 91.1602ZM44.8359 91.2773H44.918V91.4414L44.8359 91.5234L44.7891 91.4883V91.4414L44.8359 91.2773ZM49.6758 91.4062H49.7109L49.875 91.5703V91.6055H49.8281L49.6758 91.4414V91.4062ZM50.7305 91.8164L50.7656 91.8516C50.7266 91.9609 50.6875 92.0156 50.6484 92.0156H50.6016V91.9336L50.7305 91.8164ZM51.0117 92.0508V92.0977C50.9727 92.207 50.9336 92.2617 50.8945 92.2617C50.8945 92.332 51 92.4141 51.2109 92.5078L51.2578 92.3789L51.2109 92.3438V92.2148L51.5039 92.3438L51.5391 92.2969V92.3789H51.5859V92.2969H51.6211C51.6211 92.4062 51.6484 92.4609 51.7031 92.4609L51.668 92.5078C51.668 92.5859 51.707 92.625 51.7852 92.625V92.707H51.668L51.7031 92.7422V92.7891H51.5859L51.668 92.9062L51.6211 92.9531L51.5859 92.9062H51.5039V93.1523L51.6211 93.5625C51.6836 93.5625 51.7383 93.4688 51.7852 93.2812H51.9023V93.3633L52.1484 93.2344V93.2812L52.1133 93.4336L52.3125 93.3984L52.3945 93.4805V93.5625H52.3125L52.3594 93.5977V93.6445L52.3125 93.6797L52.3594 93.7266V93.7617L52.3125 93.8086V93.8438C52.4688 93.8281 52.5898 93.7891 52.6758 93.7266H52.7227V93.8086C52.6367 93.8086 52.5938 93.8359 52.5938 93.8906V94.0078H52.8047V93.9258H52.8867V94.0898L52.9219 94.0547H53.0859V94.125L52.8398 94.207L52.8867 94.2539V94.2891L52.8398 94.3359H52.7578C52.7578 94.2734 52.7031 94.2188 52.5938 94.1719H52.5586V94.207L52.7578 94.5352L52.8047 94.5H52.9688C52.9688 94.5547 52.9258 94.582 52.8398 94.582V94.6172H53.1328V94.6992L53.0859 94.7461V94.7812C53.4688 94.9609 53.6602 95.2852 53.6602 95.7539C53.8008 95.8242 53.9102 95.9336 53.9883 96.082V96.2461C53.8711 96.7617 53.6797 97.1562 53.4141 97.4297C53.3438 97.7422 53.1406 97.9844 52.8047 98.1562C52.7266 98.2812 52.4805 98.5 52.0664 98.8125C51.9414 99.2188 51.7656 99.4219 51.5391 99.4219L51.2578 99.7031H51.3398C52.8945 99.5938 54.1289 99.5391 55.043 99.5391L55.0781 99.5859C55.0781 99.5156 55.2539 99.4336 55.6055 99.3398L55.7695 99.375L56.3438 99.3398H56.3789C56.6055 99.3398 56.7578 99.4492 56.8359 99.668C57.3047 99.8398 57.75 100.312 58.1719 101.086L58.2539 101.906C58.1133 102.664 57.9766 103.043 57.8438 103.043C57.7188 103.137 57.5312 103.395 57.2812 103.816L55.3711 105.199C54.3633 105.723 53.8594 106.129 53.8594 106.418C53.8594 106.566 53.6289 106.73 53.168 106.91C53.168 107.184 52.9375 107.371 52.4766 107.473C52.3125 107.668 52.1641 107.766 52.0312 107.766C52.3594 107.43 52.6445 107.211 52.8867 107.109C52.8867 106.812 53.1562 106.582 53.6953 106.418C53.6953 106.285 53.9141 105.906 54.3516 105.281C54.5156 104.906 54.6758 104.66 54.832 104.543C54.8555 104.395 54.9531 104.234 55.125 104.062C55.3047 103.602 55.4648 103.371 55.6055 103.371L56.0156 102.551V102.305C56.0156 102.242 55.9062 102.176 55.6875 102.105L55.6523 102.07V101.824C55.5664 101.824 55.5234 101.797 55.5234 101.742V101.66L55.5703 101.613V101.578C55.2969 101.516 55.1602 101.406 55.1602 101.25L54.9609 101.133H54.8789L54.75 101.215H53.7422C53.6484 101.105 53.5664 101.051 53.4961 101.051L53.0508 101.168H52.6406L52.5938 101.133L52.5586 101.168H52.5234C51.8594 101.059 51.4102 100.922 51.1758 100.758C51.043 100.758 50.7852 100.691 50.4023 100.559C50.2773 100.676 50.1836 100.812 50.1211 100.969C50.2305 100.984 50.2852 101.023 50.2852 101.086H50.2031L50.0742 101.051V101.086L50.1211 101.133C50.0898 101.352 50.0469 101.461 49.9922 101.461C50.0234 101.664 50.1992 101.945 50.5195 102.305C50.7383 102.68 50.9453 102.91 51.1406 102.996V103.078C50.8984 102.977 50.6406 102.691 50.3672 102.223L50.0391 101.906C49.875 101.719 49.793 101.543 49.793 101.379L49.7461 101.332H49.7109L49.6289 101.414V101.379L49.7109 101.215C49.4688 101.215 49.293 101.078 49.1836 100.805C49.293 100.758 49.3477 100.664 49.3477 100.523L49.3008 100.477C49.4961 100.445 49.5938 100.336 49.5938 100.148H49.6758C49.6758 100.242 49.6328 100.34 49.5469 100.441L49.875 100.559V100.523C49.875 100.453 50.1602 100.098 50.7305 99.457C50.8242 99.1914 51.1484 98.8125 51.7031 98.3203L51.9844 97.8281C51.8828 97.3359 51.8047 96.7812 51.75 96.1641L51.7031 96.1289V95.918C51.8047 95.7852 51.8867 95.7188 51.9492 95.7188C51.9492 95.6328 51.8398 95.5781 51.6211 95.5547V95.5898L51.293 95.8359H51.2578V95.7539L51.5859 95.5195L51.5039 95.3086L50.9297 95.7188V95.6367L51.2109 95.3555C51.3359 94.9258 51.4336 94.6797 51.5039 94.6172V94.582C51.3945 94.582 51.3398 94.5273 51.3398 94.418H51.2578L51.2109 94.4531H51.1758L51.0117 94.3711L50.9766 94.418V94.4531L51.0586 94.6172H51.0117C50.9414 94.6172 50.9023 94.5625 50.8945 94.4531L50.8477 94.5H50.8125L50.7656 94.4531C50.7656 94.5938 50.7109 94.6641 50.6016 94.6641L50.5664 94.6172C50.3867 94.9062 50.2383 95.0703 50.1211 95.1094H50.0742L50.6016 94.3711V94.3359L50.5664 94.3711H50.3672L50.3203 94.2539L49.875 94.207C49.3594 94.2617 49.1016 94.3984 49.1016 94.6172H49.0195L48.9375 94.5352V94.5C49.1797 94.25 49.5742 94.125 50.1211 94.125C50.1836 93.9922 50.25 93.9258 50.3203 93.9258V93.8438C50.1172 93.6562 49.3047 93.4531 47.8828 93.2344H47.2266V93.1523H47.9648C48.4492 93.1523 48.8555 93.1953 49.1836 93.2812C49.1836 93.1719 49.2109 93.1172 49.2656 93.1172L49.4297 93.2812L49.5938 93.1172C49.5938 93.2266 49.7812 93.3203 50.1562 93.3984V93.3633L50.1211 93.2344H50.1562L50.3203 93.1992L50.2852 93.0352L49.9922 93.0703V92.9883L50.2383 92.9531L50.2031 92.9062V92.8711L50.2383 92.8242V92.7891L50.0742 92.625H50.1211L50.3672 92.7891L50.4844 92.7422C50.4844 92.8516 50.5391 92.9062 50.6484 92.9062V92.9883L50.6016 93.0352V93.0703H50.7305C50.7383 92.9609 50.793 92.9062 50.8945 92.9062V92.9531L50.7656 93.1523H50.8125L51.0586 93.1172C51.1602 93.2031 51.2383 93.3242 51.293 93.4805C51.293 93.5352 51.2148 93.5742 51.0586 93.5977V93.6445C51.2461 93.6445 51.4062 93.7109 51.5391 93.8438H51.6211V93.8086C51.4023 93.543 51.293 93.3672 51.293 93.2812C51.293 93.1172 51.2148 93.0352 51.0586 93.0352C51.0586 92.8945 50.9492 92.8242 50.7305 92.8242C50.5352 92.5898 50.3047 92.4297 50.0391 92.3438V92.2969H50.1211L50.4023 92.3438V92.2969L50.3672 92.2617V92.2148C50.4219 92.2148 50.4492 92.1758 50.4492 92.0977H50.4844L50.6016 92.1797L50.6484 92.1328L50.8945 92.2148V92.1797L51.0117 92.0508ZM45.7266 92.1328V92.1797L45.6445 92.2617V92.2148L45.7266 92.1328ZM47.1094 92.4258H47.1914V92.4609L47.1094 92.543H47.0273V92.5078L47.1094 92.4258ZM44.0977 92.5078L44.1797 92.5898L44.1445 92.625H44.0625L44.0977 92.5078ZM45.6914 92.6602C45.7773 92.668 45.9102 92.793 46.0898 93.0352H46.207C46.207 92.8555 46.2617 92.7461 46.3711 92.707L46.2891 92.9883H46.418L46.5352 92.9062L46.582 92.9531V92.9883L46.5352 93.0352V93.0703L46.8633 93.4336V93.4805C46.8633 93.5352 46.8242 93.5625 46.7461 93.5625V93.5977C46.7461 93.6445 46.8398 93.6875 47.0273 93.7266C47.0273 93.8594 47.1367 93.9258 47.3555 93.9258V94.0078L47.0625 93.9727H47.0273V94.0078L47.1445 94.2891V94.4531L47.1094 94.5L47.1445 94.5352V94.6992L47.0625 94.8281L47.3086 94.9805C47.3086 95.0352 47.2695 95.0625 47.1914 95.0625L47.3555 95.1914V95.2734L47.3086 95.3906C47.582 95.5 47.7188 95.7188 47.7188 96.0469V96.1289H47.7539L47.8008 96.082H47.8359L47.918 96.3281C47.918 96.4141 47.8359 96.5625 47.6719 96.7734L48.1289 97.1367V97.1836L48.082 97.3828C48.1914 97.4297 48.2461 97.5273 48.2461 97.6758L48.1289 97.793L48.1641 98.0391C47.9766 98.3828 47.8828 98.8008 47.8828 99.293C48.1016 100.145 48.3047 100.633 48.4922 100.758C48.6562 101.148 48.832 101.406 49.0195 101.531L49.0547 101.695C49.0547 101.836 49.0312 101.906 48.9844 101.906L49.0195 102.023C49.2148 102.023 49.3789 101.859 49.5117 101.531H49.5938C49.5938 101.625 49.5117 101.777 49.3477 101.988V102.023C49.4414 102.023 49.5234 102.215 49.5938 102.598L49.4297 102.879H49.3008C49.1055 102.879 48.9453 102.715 48.8203 102.387H48.7734V102.469L49.0195 103.125C49.0977 103.148 49.207 103.488 49.3477 104.145C49.5508 104.574 49.6836 104.98 49.7461 105.363V105.609L49.9922 105.891L49.957 106.09V106.137C50.1602 106.746 50.3359 107.164 50.4844 107.391H50.5664L50.5195 107.438V107.473L50.6484 107.555L50.7305 107.473H50.8125V107.52L50.6484 107.637L50.6016 107.684V107.719C50.6016 107.773 50.6445 107.801 50.7305 107.801V107.883L50.6836 107.93V107.965H50.9766V108.047H50.7656L50.6836 108.117V108.246C50.6836 108.309 50.7539 108.348 50.8945 108.363L51.0586 108.199H51.0938V108.246L50.9766 108.41V108.445L51.1758 108.527L51.1406 108.574V108.656C51.2422 108.664 51.293 108.703 51.293 108.773H51.2109L50.9766 108.656C50.8906 108.656 50.8477 108.707 50.8477 108.809H50.7656V108.773L50.8125 108.738V108.691L50.6484 108.574L50.7656 108.41L50.7305 108.363H50.6836L50.6484 108.41H50.6016L50.4844 108.363L50.5195 108.41V108.492H50.4023C50.4023 108.578 50.4414 108.672 50.5195 108.773L50.4492 108.938H50.6016V109.02L50.4023 108.973V109.102L50.5664 109.219L50.6016 109.266V109.301H50.5195L50.3203 109.219V109.266L50.2852 109.301L50.3672 109.547H50.2852C50.2852 109.438 50.2578 109.383 50.2031 109.383C50.1016 109.383 49.8711 109.641 49.5117 110.156V110.121L49.7109 109.664V109.43L49.5938 109.301C49.5469 109.301 49.4922 109.395 49.4297 109.582H49.3828V109.43L49.4297 109.383L49.3828 109.348V109.266H49.4648V109.219L49.3477 109.102L49.1367 109.184V109.102H49.2188L49.1016 108.973L49.1367 108.773L49.1016 108.738H49.0547L48.9023 108.973V109.137L48.9844 109.266L48.9023 109.348L48.7383 109.102L48.6094 109.266C48.5312 109.266 48.4766 109.156 48.4453 108.938L48.2461 108.973V108.891H48.2109C48.2109 108.977 48.1406 109.059 48 109.137V109.055L48.082 108.773C47.832 108.844 47.6016 109.047 47.3906 109.383L47.3086 109.301C47.3086 109.16 47.4727 108.996 47.8008 108.809L47.7539 108.773V108.691C47.8711 108.691 47.9805 108.625 48.082 108.492H48.1289V108.445L48 108.41L47.8828 108.445V108.41L47.918 108.281H47.8008L47.8359 108.246V108.199H47.7188L47.6016 108.328V108.363L47.6367 108.41V108.445L47.6016 108.492H47.5547C47.5391 108.406 47.4844 108.352 47.3906 108.328V108.246L47.3555 108.281H47.3086L47.2266 108.199L47.5547 108C47.5547 107.953 47.4727 107.887 47.3086 107.801V107.719C47.4102 107.805 47.5078 107.848 47.6016 107.848H47.6367L47.6719 107.719C47.5938 107.719 47.5273 107.664 47.4727 107.555H47.5195L47.8359 107.684V107.637C47.8359 107.559 47.8906 107.52 48 107.52V107.473L47.5547 107.32V107.273L47.6016 107.238V107.191C47.2734 107.059 47.1094 106.965 47.1094 106.91H47.1914L48 107.32L48.0469 107.273V107.238L48 106.992C48.1094 107.008 48.1641 107.117 48.1641 107.32C48.2969 107.25 48.3633 107.113 48.3633 106.91L48.293 106.828V106.746H48.3633C48.3711 106.879 48.4141 106.945 48.4922 106.945L48.5273 106.91C48.4492 106.668 48.3711 106.547 48.293 106.547L48.2109 106.617H48.1289L48.4102 106.383L48.3633 106.336L48.4453 105.973L48.082 105.609V105.527C48.0898 105.387 48.1172 105.316 48.1641 105.316C47.9766 104.902 47.8828 104.633 47.8828 104.508L47.8359 104.461V104.309L47.8828 104.145C47.7969 104.074 47.7422 103.762 47.7188 103.207C47.4453 102.77 47.3086 102.469 47.3086 102.305V102.152L47.3555 101.777C47.3242 101.668 47.2695 101.613 47.1914 101.613V101.531H47.2734L46.9453 101.168V101.133L47.1914 101.332H47.2266C47.2266 101.199 47.2539 101.09 47.3086 101.004C47.1758 100.895 47.1094 100.773 47.1094 100.641V100.605L47.2266 100.277C47.1094 100.059 46.9883 99.582 46.8633 98.8477L46.6641 98.6484L46.6992 98.6016V98.5664C46.5117 98.1133 46.4023 97.7461 46.3711 97.4648L46.3359 97.4297L46.4531 96.7383C46.1562 96.3242 46.0078 95.9414 46.0078 95.5898L45.9727 95.6367H45.8086V95.5898C45.918 95.5898 45.9727 95.5508 45.9727 95.4727L45.8438 95.2734H45.9727V95.2266C45.9727 95.1719 45.918 95.1445 45.8086 95.1445L45.7734 95.1094V95.0625L45.8086 95.0273L45.6914 94.9805L45.5273 95.0273C45.4648 95.0273 45.4258 94.9609 45.4102 94.8281L45.4453 94.7812H45.4805L45.5273 94.8281H45.5625V94.6992C45.4297 94.6992 45.3086 94.5781 45.1992 94.3359L45.4453 94.125V94.0898L45.2812 93.8906L45.3633 93.7617L45.3281 93.7266H45.2812L45.0352 93.9258L45.082 94.125C44.9727 94.1719 44.918 94.2148 44.918 94.2539L45.1641 94.7812H45.0352C45.1211 95.0234 45.2305 95.1445 45.3633 95.1445V95.2266H45.2812L45.3633 95.3086H45.8086C45.8086 95.3555 45.6875 95.3984 45.4453 95.4375C45.4453 95.5078 45.3086 95.6562 45.0352 95.8828C45.0352 96.0078 44.9531 96.1289 44.7891 96.2461H44.7188V96.2109L44.918 95.9648C44.8398 95.8711 44.6758 95.8008 44.4258 95.7539V95.8008L44.3086 95.918H44.2617L44.4258 95.6367L44.3906 95.5898L44.3438 95.6367H44.2617V95.5547C44.3477 95.5547 44.3906 95.5273 44.3906 95.4727V95.4375H44.0273V95.3555H44.3906C44.3906 95.3008 44.3477 95.2734 44.2617 95.2734L44.2266 95.2266V95.1914L44.2617 95.1445L44.2266 95.1094H44.2617L44.3906 95.1445V95.1094L44.4258 94.8984L44.3086 94.9805H44.2266V94.8984L44.3086 94.7812V94.6992L44.1797 94.6641L43.8984 95.1094H43.8633V95.0625L44.0625 94.7461C43.875 94.6133 43.7812 94.5156 43.7812 94.4531L43.5352 94.5L43.4062 94.4531V94.3711L43.6992 94.3359H43.8164C43.8164 94.25 43.8594 94.207 43.9453 94.207V94.125C43.8359 94.125 43.7812 94.1016 43.7812 94.0547H43.8984L43.9453 94.0898H43.9805C43.9805 94.0352 44.0469 94.0078 44.1797 94.0078V93.9727C44.1016 93.9727 44.0625 93.9297 44.0625 93.8438H43.9805V93.7617H44.0273L44.2266 93.8086V93.7266C44.1328 93.7266 44.0117 93.6172 43.8633 93.3984H43.8984L44.0977 93.5625H44.1445L44.1797 93.5156H44.2266L44.1797 93.4805V93.2812L44.2266 92.9883H44.3086L44.2617 93.2812H44.3438V93.4336L44.3086 93.4805V93.5156H44.3438L44.3906 93.4805H44.4258V93.5625H44.5078L44.6367 93.0352H44.7188L44.6719 93.3984C44.7266 93.3984 44.793 93.2773 44.8711 93.0352L45.1992 92.7891L45.4102 92.8242H45.6914L45.6094 92.707L45.6445 92.6602H45.6914ZM52.3125 92.8242H52.3594L52.4414 92.9062L52.2773 92.9531L52.3125 92.8242ZM53.0039 93.5625L53.0508 93.5977V93.6445L52.8398 93.7617H52.8047V93.6797L53.0039 93.5625ZM42.6328 93.8906L42.8438 93.9258V94.0078H42.7148L42.6328 93.9258V93.8906ZM47.6719 94.0078H47.8828V94.0898H47.7539L47.6719 94.0078ZM51.3398 94.4531C51.3398 94.5391 51.3672 94.582 51.4219 94.582V94.6172L51.293 94.7461L51.2109 94.5L51.2578 94.4531H51.3398ZM43.7344 94.582H43.8164V94.6992H43.7344V94.582ZM44.8711 94.6641V94.7461L44.918 94.8633H44.8711L44.7539 94.7812V94.8633L44.7891 94.9805C44.8984 94.957 44.9531 94.8906 44.9531 94.7812L44.918 94.6641H44.8711ZM44.6367 94.7812V94.9453L44.6719 94.8984H44.7188L44.6719 94.7812H44.6367ZM43.4531 94.8633L43.4883 94.8984V94.9453L43.4531 94.9805H43.4062L43.3711 94.9453V94.8984L43.4062 94.8633H43.4531ZM48.6914 95.1094L48.7383 95.1445V95.1914C48.707 95.2695 48.625 95.3086 48.4922 95.3086H48.4102L48.3281 95.2266L48.6914 95.1094ZM43.9453 95.3906V95.4375C43.6562 95.625 43.4922 95.7852 43.4531 95.918L43.3359 95.9648L43.2891 95.918V95.8828C43.5312 95.5938 43.75 95.4297 43.9453 95.3906ZM49.9922 95.4375L49.8281 95.5898H49.793V95.5547C49.793 95.4922 49.8594 95.4531 49.9922 95.4375ZM42.8789 95.5547H42.9258V95.5898L42.8438 95.6719H42.7969V95.6367L42.8789 95.5547ZM45.2812 95.7539H45.3633L45.4805 95.8828H45.4453L45.2812 95.7539ZM50.8477 95.8008V95.8359C50.582 96.1719 50.4492 96.3906 50.4492 96.4922H50.3672L50.3203 96.3633C50.3359 96.2617 50.5117 96.0742 50.8477 95.8008ZM43.207 96.1289L43.4062 96.1641V96.2461L43.2891 96.3633H43.207L43.125 96.293V96.2109L43.207 96.1289ZM44.0625 96.5273L44.1445 96.6094L44.0977 96.6562H44.0625V96.5273ZM45.2461 96.6094L45.2812 96.6562V96.6914L45.1992 96.7734L45.1641 96.7383V96.6914L45.2461 96.6094ZM56.707 98.7656V98.8125L56.625 98.8945L56.543 98.8125L56.5898 98.7656H56.707ZM56.2617 99.0586H56.4258L56.5078 99.1406V99.1758L56.4258 99.2578H56.3789L56.1797 99.2227V99.1406L56.2617 99.0586ZM46.1367 100.84L46.207 100.922V100.969H46.1367V100.84ZM45.8438 101.531L45.9727 101.66L45.9258 101.695H45.8906V101.66L45.8438 101.695H45.8086L45.6914 101.578L45.7266 101.531H45.8438ZM53.25 101.777H53.3672V101.859H53.332L53.25 101.777ZM54.3516 101.859H54.3867V101.906C54.1211 102.078 53.9883 102.199 53.9883 102.27L54.5977 102.633L54.6328 102.598H54.7969L54.9141 102.715L54.75 102.797C54.3594 102.578 54.1172 102.469 54.0234 102.469C53.9531 102.469 53.8711 102.523 53.7773 102.633H53.6953L53.6602 102.598L53.4961 102.68L53.332 102.598L53.3672 102.387V102.352H53.332L52.8398 102.387V102.305L53.4961 102.223C53.4961 102.176 53.4531 102.152 53.3672 102.152L53.332 102.105V102.07L53.3672 102.023H53.4141L53.6133 102.07C53.6133 101.977 53.6953 101.922 53.8594 101.906L53.9414 101.988C54.1445 101.965 54.2812 101.922 54.3516 101.859ZM55.043 102.762L55.2422 102.797V102.926L55.043 102.879V102.762ZM45.4453 103.324L45.5273 103.406C45.4805 103.516 45.3867 103.57 45.2461 103.57L45.1992 103.535V103.488L45.4453 103.324ZM52.2773 103.898H52.3945L52.3125 103.98H52.2773V103.898ZM57.8438 104.016L57.8906 104.062V104.098L56.8359 105.234V105.281C56.9922 105.281 57.0703 105.348 57.0703 105.48L57.0352 105.609L57.0703 105.562H57.1172V105.609L57.0703 105.645V105.691L57.1172 105.727L56.9883 105.773L57.0352 105.973L56.9883 105.926L56.9531 105.973H56.9062L56.8711 105.926H56.8359V105.973L56.8711 106.09H56.8359L56.6719 105.973H56.5898V106.055L56.543 106.008C56.3555 106.008 56.2617 106.105 56.2617 106.301H56.1797C56.1797 106.191 56.1406 106.137 56.0625 106.137C56.0625 106.066 55.9922 106.023 55.8516 106.008L55.8164 106.055V106.008L55.8516 105.973V105.926L55.8164 105.773V105.727H55.9336L55.8984 105.691V105.645H55.9336L55.8984 105.609V105.527C55.9531 105.527 55.9805 105.484 55.9805 105.398H56.0977L56.0625 105.363V105.281L56.1797 105.363V105.316L56.1328 105.281V105.234H56.1797L56.2148 105.281H56.2617C56.2617 105.172 56.3008 105.117 56.3789 105.117V105.082L56.4258 105.117H56.5078C56.5078 105.039 56.5352 105 56.5898 105H56.625V105.035L56.5898 105.082L56.625 105.199H56.6719L57.8438 104.016ZM47.4727 106.301L47.5547 106.418L47.5195 106.465H47.3906L47.3086 106.383V106.336L47.4727 106.301ZM51.8672 106.617C51.9844 106.617 52.0664 106.688 52.1133 106.828L51.9844 106.91L51.7852 106.781L51.457 106.828C51.457 106.758 51.5938 106.688 51.8672 106.617ZM46.418 106.699L46.5352 106.992C46.3555 107.062 46.2227 107.145 46.1367 107.238C46.0273 107.191 45.9727 107.094 45.9727 106.945C46.082 106.945 46.1367 106.906 46.1367 106.828C46.1367 106.766 46.2305 106.723 46.418 106.699ZM51.457 106.828L51.1758 107.027H51.0938C51.0938 106.949 51.2148 106.883 51.457 106.828ZM48.5273 107.027L48.4922 107.156L48.5273 107.32L48.6562 107.273L48.5742 107.027H48.5273ZM46.3711 107.109H46.418L46.5352 107.273L46.5 107.32H46.418L46.2891 107.191L46.3711 107.109ZM50.9766 107.109L50.7305 107.32H50.6836C50.7695 107.18 50.8672 107.109 50.9766 107.109ZM46.1367 107.273H46.1719C46.2344 107.273 46.2734 107.34 46.2891 107.473L46.1719 107.555H46.0898C46.0352 107.555 46.0078 107.516 46.0078 107.438L46.1367 107.273ZM48.6094 107.438L48.6914 107.52L48.7734 107.438L48.6914 107.355L48.6094 107.438ZM46.3711 107.473H46.4531V107.602H46.3711V107.473ZM49.6758 108.082V108.117L49.7461 108.363H49.793L49.875 108.164L49.6758 108.082ZM49.5938 108.328C49.5938 108.492 49.4844 108.574 49.2656 108.574L49.3828 108.691C49.5078 108.645 49.6172 108.551 49.7109 108.41L49.5938 108.328ZM47.3086 108.691H47.4375V108.773H47.3086V108.691ZM48.6562 108.809L48.6094 109.02L48.6914 109.102L48.7383 108.891L48.6562 108.809ZM51.0938 109.137H51.1406L51.2109 109.219H51.0938V109.137ZM47.0625 109.184H47.1094V109.266L47.0273 109.348L46.9453 109.266L47.0625 109.184ZM49.8281 109.266L49.793 109.465V109.512C49.8477 109.496 49.9023 109.426 49.957 109.301L49.9102 109.266H49.8281ZM48.9375 109.383L49.0547 109.512V109.582L48.9375 109.465V109.383ZM52.3594 109.383H52.3945L52.4766 109.465V109.512H52.4414L52.3594 109.43V109.383ZM49.1367 109.992L49.1836 110.039V110.074L49.1367 110.121H49.0547V110.074L49.1367 109.992ZM50.8945 109.992L50.9766 110.074L50.9297 110.121H50.8477L50.7656 110.039L50.8125 109.992H50.8945ZM49.9102 110.203L49.957 110.238V110.285H49.8281L49.9102 110.203ZM64.9102 92.543L64.957 92.5898V92.8594H64.8516L64.8047 92.5898L64.8516 92.543H64.9102ZM63.4453 92.5898L63.6562 92.8594H63.6094L63.3398 92.6484L63.3984 92.5898H63.4453ZM66.8906 92.6953V92.7539L66.6797 93.0117H66.4688V92.9648C66.5625 92.7852 66.7031 92.6953 66.8906 92.6953ZM64.4883 92.7539H64.5938L64.8047 93.3281L65.0156 93.2695L65.168 93.3281V93.2695L65.4844 92.9062V92.9648C65.4297 93.0977 65.375 93.1641 65.3203 93.1641L65.5312 93.5391C65.4766 93.7109 65.375 93.7969 65.2266 93.7969L65.168 93.7383V93.8438L65.4258 93.9492L65.6367 93.7969V93.9023L65.5898 93.9492V94.0078C65.7539 94.0078 65.875 94.0391 65.9531 94.1016C65.9531 94.0156 66.0391 93.8945 66.2109 93.7383H66.4219V93.7969L66.0586 94.1602H66.3164L66.4688 94.0547H66.6328L66.5273 94.2656L66.4688 94.207H66.375V94.2656H66.4688V94.3125L66.4219 94.3711V94.418C66.4922 94.418 66.5273 94.4727 66.5273 94.582L67.3125 94.418H67.3594C67.1641 94.6289 66.9922 94.7344 66.8438 94.7344C66.8438 94.8516 67.207 95.0586 67.9336 95.3555L67.9922 95.4141V95.5195H67.9336C67.6133 95.3398 67.3008 95.2148 66.9961 95.1445H66.8438L66.9961 95.3555V95.4141L66.9375 95.3555H66.6797V95.4609C66.9141 95.4609 67.125 95.6172 67.3125 95.9297H67.3594V96.0352L67.043 96.1406L66.8906 96.0352L66.8438 96.0938H66.5273V96.1406L66.6328 96.293V96.3516H66.5742L66.4219 96.293V96.3984C66.4219 96.5312 66.5078 96.6875 66.6797 96.8672L66.6328 96.9258H66.5742L66.375 96.7148C66.2656 96.7148 66.1953 96.8359 66.1641 97.0781H66.3164V97.1367L66.2109 97.2305H66.1641L66 97.1367L65.8477 97.1836L65.7422 97.0781C65.7422 97.25 65.6719 97.3359 65.5312 97.3359C65.5312 97.4062 65.6719 97.5117 65.9531 97.6523V97.6992C65.8125 97.9102 65.7422 98.0664 65.7422 98.168L65.8008 98.4375L65.7422 98.4844H65.6953L65.6367 98.332H65.5898L65.5312 98.6953V98.7422C65.6406 98.7422 65.6953 98.7773 65.6953 98.8477V98.9062L65.5898 99.0117C65.5898 98.918 65.3984 98.7617 65.0156 98.543H64.957L64.7578 98.6953L64.6523 98.5898H64.4883L64.2773 98.6484L64.2305 98.5898H64.1836C64.0977 98.5898 63.9219 98.6953 63.6562 98.9062L63.5039 98.8477V98.9062C63.5039 98.9766 63.3633 99.0117 63.082 99.0117C63.0508 99.0977 62.8086 99.2188 62.3555 99.375C62.3555 99.4531 62.2148 99.5234 61.9336 99.5859C61.9336 99.7031 61.6562 99.9609 61.1016 100.359C60.9609 100.57 60.8203 100.676 60.6797 100.676L60.8906 101.145V101.355C60.7891 101.48 60.7383 101.602 60.7383 101.719V102.035C61.082 103.16 61.5 103.836 61.9922 104.062C62.9141 105 63.8867 105.469 64.9102 105.469L65.2266 105.422L65.6367 105.527C65.8555 105.527 66.2578 105.18 66.8438 104.484C66.9375 104.484 67.0234 104.344 67.1016 104.062C67.3516 104.062 67.7344 103.699 68.25 102.973L68.1914 102.293C68.1914 102.16 68.2461 102.02 68.3555 101.871V101.613L68.5078 99.8438L68.4609 99.5273L68.5078 99.4805V99.4219L68.4609 99.2695L68.5078 99.2109L68.4023 99.1172V98.9062L68.4609 98.8477C68.3984 98.6914 68.293 98.5703 68.1445 98.4844L67.9922 98.543L67.8867 98.3789L67.9336 98.332L67.8281 98.2266L67.8867 98.168V98.1211C68.418 98.3242 68.7109 98.5312 68.7656 98.7422V98.8008L68.7188 98.8477C68.7969 99.0898 68.8672 99.2109 68.9297 99.2109L68.9766 99.0586L68.8711 98.8477L68.9766 98.6484L68.9297 98.3789L68.9766 98.2266L68.4023 97.6992L68.3555 97.7578V97.6992L68.4023 97.5469L68.25 97.3945H68.2969L68.5547 97.5469C68.6562 97.4219 68.918 97.2852 69.3398 97.1367V97.2891C68.8867 97.4062 68.6602 97.5273 68.6602 97.6523L69.3984 98.332C69.6641 98.332 69.8555 98.6094 69.9727 99.1641V99.4805L70.1836 99.7852L70.0781 100.102L70.2305 101.461C70.168 101.531 70.1172 101.789 70.0781 102.234C69.9922 102.234 69.9219 102.461 69.8672 102.914C69.5547 103.016 69.3984 103.172 69.3984 103.383C69.3984 103.734 69.2773 103.91 69.0352 103.91C68.9258 104.16 68.5781 104.488 67.9922 104.895C67.5234 105.77 67.0508 106.207 66.5742 106.207C66.418 106.48 65.9844 106.617 65.2734 106.617L64.4883 106.828C63.9336 106.828 62.9414 106.48 61.5117 105.785L60.6328 105.316C60.4766 105.113 60.1094 104.836 59.5312 104.484C58.7031 103.609 58.2891 103.051 58.2891 102.809V102.762L58.2305 101.719L58.3359 101.613V101.402L58.2305 100.828V100.723C58.4414 100.457 58.5469 100.285 58.5469 100.207C58.375 100.207 58.2891 100.172 58.2891 100.102V99.9492L58.8516 98.6953C59.0156 97.9766 59.1406 97.6133 59.2266 97.6055C59.5 97.2539 59.7773 97.0781 60.0586 97.0781C60.3945 96.7891 60.6719 96.3359 60.8906 95.7188L61.3594 95.4609L62.0859 94.9453L62.8711 94.6289C63.2227 94.4805 63.3984 94.375 63.3984 94.3125V94.207L63.082 93.7969H63.1289C63.3477 94 63.5078 94.1016 63.6094 94.1016L63.7617 93.9023L63.7031 93.8438L63.7617 93.7969L63.6562 93.6914V93.6328H63.7031C63.7734 93.6328 63.8086 93.6875 63.8086 93.7969H63.9727L64.2305 93.5859L64.125 93.4336V93.375L64.4883 93.4336C64.4883 93.3242 64.543 93.2695 64.6523 93.2695L64.4883 92.8008V92.7539ZM65.8477 92.8008H65.8945V92.9062L65.8008 93.0117H65.6953V92.9648L65.8477 92.8008ZM66.3164 93.1641H66.375V93.2227C66.375 93.2773 66.3047 93.3281 66.1641 93.375V93.3281L66.3164 93.1641ZM63.2344 93.2695H63.293L63.3984 93.375L63.3398 93.4336H63.293L63.2344 93.375V93.2695ZM62.8711 93.6328H62.9297L63.0352 93.7383H62.9766L62.8711 93.6328ZM67.4648 93.7969L67.5117 93.8438V93.9023L67.2539 94.1016L67.1016 94.0547V94.0078C67.1016 93.9453 67.2227 93.875 67.4648 93.7969ZM66.7383 96.3516H66.7852C67.2383 96.5156 67.4648 96.6719 67.4648 96.8203C67.543 96.8203 67.7695 96.9922 68.1445 97.3359H68.0391C67.4688 97.0391 67.1211 96.7812 66.9961 96.5625C66.8242 96.5625 66.7383 96.5078 66.7383 96.3984V96.3516ZM68.3555 96.8203L68.4609 96.9258L68.2969 97.0312L68.1914 96.9258L68.3555 96.8203ZM70.3828 97.2305L70.4414 97.2891V97.3359C70.4414 97.4062 70.25 97.4609 69.8672 97.5V97.4414C69.8672 97.3398 70.0391 97.2695 70.3828 97.2305ZM70.4883 97.5H70.5469L70.6523 97.6055H70.4883V97.5ZM66.7852 97.6055H66.9375V97.6523L66.8438 97.7578L66.7852 97.6992V97.6055ZM67.418 97.8633H67.4648L67.6172 98.0156V98.0742H67.5117L67.418 97.9688V97.8633ZM71.2266 97.8633L71.2734 97.9102V97.9688L71.1211 98.0742L71.0625 98.0156V97.9688L71.2266 97.8633ZM70.3359 98.2734H70.4414V98.332L70.3359 98.4375H70.2305V98.3789L70.3359 98.2734ZM67.1016 98.9062H67.1484L67.2539 99.0117L67.207 99.0586H67.1016V98.9062ZM67.6172 99.5273H67.7227V99.5859L67.6172 99.6797V99.5273ZM65.8945 99.8906L65.9531 99.9492V99.9961L65.8945 100.055H65.8477L65.8008 99.9961V99.9492L65.8477 99.8906H65.8945ZM65.4258 100.254L65.4844 100.312V100.359L65.3789 100.465H65.3203L65.2266 100.359L65.4258 100.254ZM64.6992 101.098H64.7578V101.145L64.6523 101.25H64.5469L64.6992 101.098ZM64.1836 101.508H64.2305V101.613H64.2773C64.2773 101.676 64.1562 101.797 63.9141 101.977H63.8086V101.93L64.1836 101.508ZM63.5039 102.293H63.6562V102.34C63.5859 102.48 63.4805 102.551 63.3398 102.551L63.293 102.504V102.445L63.5039 102.293ZM63.0352 102.914V103.078L62.9297 103.184H62.8711V103.078L63.0352 102.914ZM62.5664 103.441L62.6602 103.547L62.5078 103.652L62.4609 103.594V103.547L62.5664 103.441ZM68.6602 105.059L68.7188 105.105V105.164L68.2969 105.469L68.25 105.422V105.363C68.3906 105.16 68.5273 105.059 68.6602 105.059ZM76.5234 91.6289H76.9336C77.4961 91.6289 77.8555 91.8477 78.0117 92.2852C78.168 92.4805 78.3594 92.9336 78.5859 93.6445C78.6406 93.6445 78.707 93.8516 78.7852 94.2656C78.8945 94.3594 78.9492 94.4688 78.9492 94.5938H78.9961L79.4414 94.2188H79.4883L79.0781 94.7578C79.2031 94.7578 79.2969 94.9648 79.3594 95.3789H79.7344V95.4609H79.5234L79.4062 95.5781C79.4062 95.8516 79.5156 96.5117 79.7344 97.5586C79.7344 97.7148 79.8164 97.9336 79.9805 98.2148L79.8984 99.2461C79.8984 99.4102 80.0781 99.4922 80.4375 99.4922C80.4375 99.4453 80.6953 99.3633 81.2109 99.2461H81.3867L81.5039 99.3281H81.6328L82.0781 99.3633L82.3242 99.2812L82.2891 99.082L82.4062 99.1641L82.4883 99.082H82.5703V99.1641L82.5352 99.1992V99.2461H82.6172L82.8633 99L82.9453 99.082H83.0742C83.0742 98.9961 83.1016 98.9531 83.1562 98.9531H83.1914C83.0195 99.3672 82.7305 99.5742 82.3242 99.5742C82.3242 99.668 82.2305 99.7344 82.043 99.7734V99.8203C82.043 99.8828 82.2344 99.9258 82.6172 99.9492C82.8203 99.8555 83 99.7305 83.1562 99.5742L83.1094 99.5273V99.4922L83.3203 99.2812H83.3555V99.3633L83.3203 99.4102V99.4453H83.5664C83.5664 99.3828 83.6758 99.2891 83.8945 99.1641L84.2227 98.8359L84.2578 99.082L84.4688 99.0352H84.5508V99.082L84.5039 99.2461L84.5508 99.3633H84.5039L84.3047 99.2812L84.2227 99.3633L84.1758 99.3281C83.9414 99.3984 83.75 99.5195 83.6016 99.6914L83.3555 99.7734V99.8672C83.6602 99.9844 83.8242 100.078 83.8477 100.148H83.8125L83.2734 99.9492L83.2383 99.9844H83.1914L83.1094 99.9023C82.9375 100.066 82.8125 100.148 82.7344 100.148L82.2891 100.066C82.2422 100.285 82.1602 100.395 82.043 100.395L81.832 100.77H81.7969L81.832 100.559H81.7969L81.4219 100.723L81.2109 100.688L81.1758 100.723H81.1289L81.0938 100.688H81.0469L80.7188 100.77L80.8477 100.969H80.7656L80.6016 100.887C80.6016 100.949 80.5039 101.004 80.3086 101.051C80.4102 101.715 80.5625 102.047 80.7656 102.047L80.6836 102.129C80.707 102.363 80.7461 102.512 80.8008 102.574V102.867L80.6836 103.031V103.113H80.8008L80.8477 103.066H80.8828L80.9297 103.113V103.16L80.6836 103.195V103.406L80.6367 103.605C80.7227 103.605 80.793 103.66 80.8477 103.77L80.8008 104.262L80.9297 104.391V104.426C80.8438 104.527 80.8008 104.625 80.8008 104.719V104.754L80.9297 105.34H80.8828C81.1172 105.645 81.2969 105.984 81.4219 106.359H81.4688L81.4219 106.617C81.4219 106.789 81.4922 107.035 81.6328 107.355L81.5859 107.473C81.625 107.473 81.6797 107.609 81.75 107.883C81.8125 107.938 81.8828 108.117 81.9609 108.422C82.0469 108.422 82.1406 108.68 82.2422 109.195H82.1602C82.0508 108.898 81.793 108.379 81.3867 107.637V107.555L81.4219 107.52C81.2266 107.145 81.1016 106.828 81.0469 106.57L80.7188 106.031V105.832L80.8008 105.375C80.5273 105.141 80.3906 104.895 80.3906 104.637L80.4375 104.59V104.555L80.3906 104.426L80.4727 104.344V104.309L80.3906 104.145L80.4375 103.98C80.2344 103.66 80.0977 103.387 80.0273 103.16L80.0625 103.113L79.9805 103.031L79.5234 103.324H79.4883C79.8477 102.988 80.0273 102.766 80.0273 102.656C79.9727 102.234 79.8906 101.988 79.7812 101.918L79.8164 101.719C79.7539 101.703 79.6836 101.578 79.6055 101.344C79.3398 101.398 79.0664 101.496 78.7852 101.637C78.4336 101.66 78.0352 101.77 77.5898 101.965V102.047C77.5898 102.133 77.6328 102.227 77.7188 102.328L77.5547 102.375C77.4688 102.156 77.3438 102.047 77.1797 102.047C76.9844 102.328 76.7109 102.52 76.3594 102.621L76.2773 102.703H76.1133L75.9023 102.656C75.9023 102.797 75.7812 102.895 75.5391 102.949C75.5391 103.09 75.5117 103.16 75.457 103.16L75.293 103.195V103.16L75.1641 103.195L74.8008 102.984L75.0469 102.703L74.8828 102.246L75.457 101.672C75.457 101.758 75.4961 101.801 75.5742 101.801C76.1523 101.48 76.4414 101.301 76.4414 101.262L77.1797 100.805C77.2812 100.805 77.418 100.684 77.5898 100.441C77.6914 100.441 77.8984 100.344 78.2109 100.148C78.375 100.148 78.6641 100.012 79.0781 99.7383L79.4062 99.6562C79.2266 98.4766 79.0742 97.8867 78.9492 97.8867L78.9141 97.8398V97.8047L78.9492 97.7578C78.8867 97.2188 78.7656 96.7656 78.5859 96.3984C78.3125 96.0938 78.1602 95.8633 78.1289 95.707L77.7539 95.625C77.6445 95.625 77.5898 95.7617 77.5898 96.0352C77.5273 96.0352 77.4453 96.2422 77.3438 96.6562L77.3086 96.6914C77.3086 96.7461 77.2266 96.8008 77.0625 96.8555V97.0195H77.1445V97.1016C77.0039 97.1016 76.9336 97.1992 76.9336 97.3945C76.8633 97.3945 76.7539 97.5312 76.6055 97.8047V98.4609C76.4492 98.6719 76.3242 98.9883 76.2305 99.4102C76.1523 99.4102 76.1133 99.5039 76.1133 99.6914C76.0039 99.6914 75.9492 99.7891 75.9492 99.9844C75.8398 99.9844 75.7031 100.121 75.5391 100.395H75.4102V100.605L74.9648 101.555C74.9648 101.742 74.8516 101.918 74.625 102.082L74.707 102.211C74.4102 102.547 74.2617 102.902 74.2617 103.277L74.2148 103.324C74.3633 103.566 74.4727 103.688 74.543 103.688L74.6719 103.652L74.7539 103.734H74.918L74.8828 103.688V103.652L74.918 103.605H75V103.688H75.2461V103.57H75.3281L75.375 103.77L75.6562 103.688V103.77C75.4375 103.824 75.3281 103.879 75.3281 103.934L75.375 103.98C75.2344 103.996 75.1641 104.035 75.1641 104.098C75.2422 104.098 75.5156 104.234 75.9844 104.508H76.0312V104.637H75.9844C75.9141 104.559 75.6133 104.406 75.082 104.18V104.145H74.9648L75.0469 104.262V104.344H75C74.9297 104.344 74.8906 104.277 74.8828 104.145L74.7539 104.262L74.543 104.145L74.5078 104.18L74.4609 104.145L74.4258 104.18V104.391L74.625 104.719H74.5898L74.2148 104.391L74.1328 104.473C74.1328 104.887 74.2422 105.094 74.4609 105.094C74.5859 104.953 74.6992 104.883 74.8008 104.883V104.965C74.6836 104.965 74.5977 105.02 74.543 105.129C74.543 105.184 74.6133 105.211 74.7539 105.211V105.293L74.5078 105.34L74.543 105.375V105.457C74.4336 105.457 74.3789 105.484 74.3789 105.539L74.4609 105.621H74.3438L74.2148 105.539H73.9688L74.0156 105.586V105.621L73.8516 105.867V105.914H73.9336V105.949L74.2617 105.867L74.2969 105.914V105.996C74.2969 106.051 74.2422 106.078 74.1328 106.078L74.1797 106.113V106.195H74.1328L73.4414 105.621H73.3945V105.668H73.4766V105.867C73.4766 105.922 73.5195 105.949 73.6055 105.949V106.031L73.3594 106.078C73.3594 106.133 73.4141 106.16 73.5234 106.16V106.242H73.4414V106.277L73.6875 106.324V106.406H73.4766L73.4414 106.359H73.3945L73.3594 106.488L73.6875 106.652L73.8047 106.617V106.699H73.6875V106.734H73.7695L74.2148 106.57H74.2617V106.617H74.1797V106.652H74.2148L74.543 106.57H74.5898C74.5898 106.625 74.3438 106.723 73.8516 106.863C73.8203 107.02 73.7383 107.156 73.6055 107.273C73.6055 107.352 73.6602 107.391 73.7695 107.391L73.8047 107.438V107.52H73.7695C73.6523 107.41 73.543 107.355 73.4414 107.355H73.3945L73.4414 107.391V107.438L73.3945 107.473H73.3594L73.3125 107.355L73.2773 107.391L73.0664 107.355C72.9883 107.355 72.9062 107.41 72.8203 107.52H72.7734V107.555H72.8203L72.9375 107.52V107.555C72.8438 107.719 72.7617 107.801 72.6914 107.801V107.883C72.7461 107.992 72.8281 108.047 72.9375 108.047V108.129L72.5742 108.047L72.4922 108.258H72.4102V108.129H72.3633L72.2461 108.211H72.1992C72.1992 108.109 72.1445 108.039 72.0352 108H72L71.9531 108.047H71.918L72.1172 108.34H72.0352V108.422H72.1172V108.457L72.082 108.504L72.2461 108.832H72.3633V108.914C72.2695 108.914 72.1875 108.996 72.1172 109.16L72.2812 109.406H72.2461C72.1367 109.352 72.082 109.281 72.082 109.195H71.9531V109.242L72.0352 109.359H72L71.9531 109.324H71.918C71.918 109.402 71.8906 109.441 71.8359 109.441C71.7812 109.441 71.7539 109.402 71.7539 109.324H71.6719V109.488L71.625 109.699H71.543V109.324H71.5078C71.5078 109.434 71.4648 109.488 71.3789 109.488H71.332V109.441L71.3789 109.324L71.2617 109.242L71.2148 109.277L71.1328 109.195C71.1328 109.25 71.0117 109.32 70.7695 109.406V109.359L70.8516 109.277L70.8047 109.242V109.078L70.8867 108.996L70.8516 108.949V108.914L70.8867 108.75C70.832 108.75 70.8047 108.707 70.8047 108.621L70.6055 108.586C70.6055 108.539 70.6992 108.484 70.8867 108.422C70.9023 108.258 70.9727 108.176 71.0977 108.176L71.0156 108.094H70.9688L70.9336 108.129H70.8867L70.8516 108.094V108.047H70.9336V107.883H70.8867L70.6875 107.965L70.8047 107.801V107.766L70.6875 107.637H70.6055C70.5273 107.723 70.375 107.766 70.1484 107.766L70.1133 107.801V107.848C70.168 107.848 70.207 107.93 70.2305 108.094H70.1953C70.0859 108.094 70.0312 108.16 70.0312 108.293H69.9492L70.0664 108.047L69.8203 108C69.6484 108.07 69.5391 108.184 69.4922 108.34L69.2812 108.293H69.082V108.375H69.0352L68.9531 108.293L69.0352 108.211H69.2461L69.2812 108.258L69.4922 108.129L69.4453 108.094V108.047L69.4922 107.883C69.3516 107.75 69.2266 107.684 69.1172 107.684C69.1172 107.738 69.0781 107.766 69 107.766L68.8711 107.719C68.8633 107.789 68.7812 107.883 68.625 108L68.5898 107.965V107.93C68.8477 107.656 69.0117 107.52 69.082 107.52V107.438L69 107.191C68.9297 107.191 68.7773 107.082 68.543 106.863H68.5898C68.707 106.863 68.8984 106.957 69.1641 107.145L69.4453 107.027L69.4102 106.98V106.898H69.4453L69.4922 106.945H69.5273L69.6914 106.57L69.4922 106.324L69.6094 106.242H69.7734L70.0312 106.406H70.1133L70.1953 106.324L69.8203 105.914L69.8672 105.867H69.9023C69.9648 105.977 70.1016 106.102 70.3125 106.242V106.277L70.4414 106.16L70.3125 105.914V105.867L70.5234 106.031L70.5586 105.996C70.5039 105.824 70.4375 105.727 70.3594 105.703H70.3125V105.867C70.2578 105.867 70.2031 105.758 70.1484 105.539C69.9609 105.539 69.8672 105.473 69.8672 105.34H69.8203L69.6914 105.457L69.6562 105.422V105.375L69.7383 105.293L69.6562 105.211H69.6094L69.4922 105.293H69.4102L69.4922 105.176V105.129L69.4453 105.094V105.047L69.5742 104.93C69.5117 104.844 69.4141 104.801 69.2812 104.801L69.2461 104.754L69.0352 104.672L68.7891 104.754L68.7539 104.719V104.59L68.8359 104.508C68.8906 104.508 68.918 104.551 68.918 104.637H68.9531C69.2188 104.637 69.4375 104.691 69.6094 104.801C69.6562 104.691 69.7109 104.637 69.7734 104.637V104.59L69.6914 104.473V104.426H69.7383L69.8203 104.508L69.9492 104.473V104.426C69.9492 104.371 69.8789 104.344 69.7383 104.344L69.6914 104.309V104.262H69.8203L70.0312 104.309C70.0312 104.23 70.0859 104.16 70.1953 104.098C70.1953 104.238 70.2773 104.309 70.4414 104.309H70.6406L70.5234 104.145L70.5586 104.016H70.6055C70.6133 104.125 70.6523 104.18 70.7227 104.18H70.7695V104.062L70.6875 103.934V103.852C70.7578 103.852 70.8125 103.949 70.8516 104.145H70.8867L70.9336 103.98L70.8867 103.77V103.406C70.9492 103.406 70.9922 103.582 71.0156 103.934H71.0977V103.852H71.1797L71.2148 103.898H71.2617V103.77H71.332L71.2969 103.98H71.3789L71.4141 103.77L71.3789 103.523H71.4141L71.3789 103.488V103.441L71.4141 103.406V103.359L71.2969 103.324L71.3789 103.242L71.4609 103.324C71.6406 102.66 71.7773 102.273 71.8711 102.164L71.7891 102.082C71.8828 100.715 72.0078 100.031 72.1641 100.031C72.3281 99.7969 72.4102 99.5625 72.4102 99.3281L72.4922 99.082L72.5273 99.0352V98.9531L72.4102 98.707C72.5977 98.668 72.6914 98.6016 72.6914 98.5078L72.9023 98.0039C72.8477 98.0039 72.8203 97.9492 72.8203 97.8398H72.7734L72.7383 97.8867H72.6914L72.6562 97.7227L72.5273 97.8047H72.4922L72.6094 97.5586L72.5742 97.5117H72.4922C72.4844 97.5977 72.3594 97.668 72.1172 97.7227H72.082L72.4102 97.3945V97.3125L72.3633 97.2656V97.2305L72.4922 97.1836V97.1016C72.3828 97.1016 72.3281 97.0742 72.3281 97.0195V96.9844H72.4453V96.9375H72.4102L71.8359 96.9844H71.707V96.9023H71.7539C72.2695 96.8477 72.543 96.7773 72.5742 96.6914C72.457 96.6523 72.375 96.582 72.3281 96.4805H72.3633L72.7383 96.5742L72.7734 96.5273V96.4805L72.6094 96.2344V96.0352C72.7188 96.1055 72.7734 96.1992 72.7734 96.3164H72.8555L72.8203 96.1172H72.9023C72.9023 96.25 72.9297 96.3164 72.9844 96.3164L73.0195 95.9531H73.0664C73.1523 95.9688 73.1953 96.0781 73.1953 96.2812L73.2305 96.2344H73.2773L73.3125 96.2812C73.3281 96.1719 73.3711 96.1172 73.4414 96.1172H73.4766L73.5234 96.2344L73.3945 96.3633L73.5234 96.3984C73.8203 96.2344 73.9688 96.0977 73.9688 95.9883L74.3789 95.0039C74.3789 94.6992 74.4609 94.4805 74.625 94.3477L74.6719 94.1367L74.543 94.0195V93.9727L74.7539 94.0195V93.9727C74.7539 93.8945 74.8242 93.8398 74.9648 93.8086C74.9648 93.7305 75.0039 93.6914 75.082 93.6914C75.2461 93.5742 75.3281 93.3516 75.3281 93.0234L75.9023 92.332C76.043 91.8633 76.25 91.6289 76.5234 91.6289ZM71.4609 91.7109H71.543C71.9961 91.8438 72.2695 91.9688 72.3633 92.0859H72.3281L71.4609 91.793V91.7109ZM73.6406 91.9219H73.7227V91.957L73.6875 92.0039V92.0391C73.9062 92.0391 74.0977 92.1367 74.2617 92.332H74.707V92.4141H74.5898C74.4727 92.4141 74.3477 92.4961 74.2148 92.6602L74.2969 92.9062L73.7227 93.3164C73.7227 93.4648 73.5742 93.5742 73.2773 93.6445L73.0664 93.9727H73.0195L73.1484 93.6445L72.7734 93.5273H72.7383C72.6055 93.6367 72.4961 93.6914 72.4102 93.6914L72.2812 93.6094L72.2461 93.6445H72.1992L72.082 93.6094L71.9531 93.6445L72.1641 93.3984C72.0781 93.3984 72.0078 93.3438 71.9531 93.2344V93.0703L72.1641 92.6953L72.2812 92.6602V92.5781C72.2188 92.5781 72.0977 92.4961 71.918 92.332V92.2852H71.9531L72.4453 92.5781L72.6914 92.4961C72.6914 92.4102 72.7344 92.3672 72.8203 92.3672V92.332C72.6953 92.3164 72.5586 92.2344 72.4102 92.0859H72.4922L73.0195 92.25C73.0195 92.1953 73.1445 92.1523 73.3945 92.1211L73.4414 92.168L73.6406 91.9219ZM79.8984 94.6289L79.9453 94.6758V94.7109L79.8984 94.7578H79.8164V94.7109L79.8984 94.6289ZM74.1328 94.875V95.0039L74.0156 95.1328H73.9688L73.8867 95.0508V95.0039C73.8867 94.9492 73.9688 94.9062 74.1328 94.875ZM73.0664 95.0508L73.2305 95.25L73.1953 95.543H72.9844V95.4609H73.0664L72.8203 95.2969V95.168C72.8438 95.0898 72.9258 95.0508 73.0664 95.0508ZM79.6992 95.2148V95.25L79.6055 95.332L79.5234 95.25L79.5703 95.2148H79.6992ZM71.9531 95.6602L72.0352 95.7891L71.9531 95.8711L71.8711 95.707L71.918 95.6602H71.9531ZM71.1797 95.9531L71.2969 96.0703L71.2617 96.1172H71.2148L71.0977 95.9883L71.1328 95.9531H71.1797ZM71.2148 96.5742H71.2617V96.6914H71.1328V96.6562L71.2148 96.5742ZM77.8828 96.5742H78.0117L78.0938 96.6562L77.9648 96.7383H77.8828L77.8008 96.6562L77.8828 96.5742ZM71.0156 97.3945H71.0977V97.4766L70.9336 97.5117V97.4766L71.0156 97.3945ZM72.6914 97.8867V98.0039H72.6094V97.9688L72.6914 97.8867ZM84.3047 98.6719H84.3398V98.707L84.2227 98.8359V98.7539L84.3047 98.6719ZM82.207 99H82.2422V99.0352L81.9961 99.1992V99.1641C82.0508 99.0547 82.1211 99 82.207 99ZM90.5508 96.6562L90.5977 96.7031V96.75L90.5508 96.7969H90.5039L90.457 96.75V96.7031L90.5039 96.6562H90.5508ZM78.0938 102.457H78.1289L78.2109 102.539L78.1758 102.574H78.1289L78.0938 102.539V102.457ZM71.2969 102.738L71.332 102.785V102.867H71.2148V102.82L71.2969 102.738ZM70.4414 102.785L70.4766 102.82V102.867L70.4414 102.902H70.3594V102.867L70.4414 102.785ZM70.7695 103.066L70.8867 103.195V103.324H70.8516L70.6875 103.16L70.7695 103.066ZM69.8672 103.277H69.9023L69.9844 103.359L69.9492 103.406H69.9023L69.8672 103.359V103.277ZM77.1445 103.324H77.2266L77.3086 103.406L77.1797 103.523H77.0156C77.0547 103.391 77.0977 103.324 77.1445 103.324ZM70.3945 103.488H70.4414L70.5234 103.57V103.605L70.3945 103.488ZM79.7812 103.605V103.652L79.4414 103.898L79.4062 103.852V103.816C79.4766 103.676 79.6016 103.605 79.7812 103.605ZM69.5742 103.816L69.6094 103.852V103.98H69.5273L69.4922 103.852L69.5273 103.816H69.5742ZM68.2617 104.18H68.4258L68.5078 104.262L68.4609 104.309V104.344L68.5078 104.391L68.2969 104.426L68.168 104.309V104.262L68.2617 104.18ZM80.0625 104.262H80.1914L80.1094 104.344L80.0625 104.309V104.262ZM70.2773 104.344V104.426H70.1953L70.1484 104.391H70.1133L70.0664 104.426V104.473C70.1445 104.473 70.2266 104.512 70.3125 104.59C70.4219 104.551 70.4766 104.512 70.4766 104.473C70.3672 104.473 70.3125 104.445 70.3125 104.391L70.3594 104.344H70.2773ZM70.3945 104.637L70.4414 104.848H70.4766L70.5234 104.637H70.3945ZM76.0664 104.59H76.1133L76.2305 104.719V104.754H76.1953L76.0664 104.719V104.59ZM75.293 104.754H75.5742L75.6562 104.848L75.4922 104.965C75.3672 104.91 75.3008 104.855 75.293 104.801V104.754ZM75.1641 104.801V104.883L75 104.93V104.848L75.1641 104.801ZM70.3945 104.93C70.3945 105.078 70.3281 105.199 70.1953 105.293V105.375L70.6055 105.668H70.6406L70.6875 105.258V105.211C70.6016 105.211 70.5586 105.184 70.5586 105.129L70.6055 105.094C70.5195 105.094 70.4766 105.051 70.4766 104.965L70.4414 104.93H70.3945ZM73.8867 104.93L73.8516 104.965V105.012H73.8867L74.0156 104.965V104.93H73.8867ZM73.4766 105.34C73.4766 105.473 73.5742 105.609 73.7695 105.75V105.785H73.8516L73.8867 105.504C73.8008 105.504 73.7461 105.367 73.7227 105.094L73.8047 105.012H73.7695L73.4766 105.34ZM68.8711 105.621H69.0352L69.1992 105.703L69.3281 105.668L69.3633 105.703V105.832L69.2812 105.914L69.1641 105.832C69.1641 105.91 69.1094 105.949 69 105.949C68.875 105.902 68.8047 105.848 68.7891 105.785V105.703L68.8711 105.621ZM74.9648 105.621H75L75.082 105.703L75.0469 105.75H74.9648V105.621ZM69.1172 106.031L69.1641 106.078V106.113L69.1172 106.16H69.082L69.0352 106.113V106.078L69.082 106.031H69.1172ZM72.1641 106.816L72.1992 106.863H72.2461L72.4102 106.734H72.6094C72.6094 106.516 72.6641 106.406 72.7734 106.406V106.324H72.6914C72.3867 106.496 72.2109 106.66 72.1641 106.816ZM75.1641 106.406V106.488L74.8359 106.57V106.488L75.1641 106.406ZM72.8555 106.535C72.8398 106.699 72.7578 106.781 72.6094 106.781L72.6914 106.898V106.945C72.5586 107.047 72.4922 107.168 72.4922 107.309L72.5273 107.355H72.5742L72.6562 107.273H72.6914L72.6094 107.391L72.8203 107.438L72.9375 107.273L72.8555 107.191C72.8945 106.832 72.9492 106.652 73.0195 106.652L72.9844 106.535H72.8555ZM70.8867 107.027C70.8867 107.16 70.8203 107.227 70.6875 107.227V107.355L70.8867 107.391H70.9688V107.355L70.9336 107.027H70.8867ZM70.5586 107.438L70.5234 107.473V107.555H70.7227C70.7227 107.516 70.668 107.477 70.5586 107.438ZM68.4609 108.129H68.543V108.176L68.3789 108.293L68.3438 108.258V108.211L68.4609 108.129ZM70.3125 108.129H70.3594V108.258H70.2305V108.211L70.3125 108.129ZM69.6562 108.457L69.6914 108.504V108.586H69.6562L69.5742 108.504L69.6094 108.457H69.6562ZM69.9492 109.488H69.9844V109.523L69.9023 109.605H69.8672V109.57L69.9492 109.488ZM84.0469 91.2773H84.082L84.1523 91.3477L84.1172 91.3828H84.082L84.0469 91.3477V91.2773ZM85.4414 91.2773V91.3125L85.1836 91.7578C85.2852 91.7578 85.3359 91.793 85.3359 91.8633L85.5586 91.7578V91.793L85.4883 91.8984V91.9805L85.6289 92.0156L85.8164 91.8281V91.8633L85.7109 92.0156H85.7812V92.0508L85.7461 92.1562C85.8008 92.1562 85.9336 92.0586 86.1445 91.8633V91.8984L85.9219 92.2734L86.1094 92.3086C86.1094 92.2539 86.1719 92.2188 86.2969 92.2031L86.1797 92.3438V92.4141H86.2617V92.4609L86.1797 92.5664C86.2812 92.5664 86.332 92.5898 86.332 92.6367L86.2969 92.6836L86.4375 92.7539C86.7109 92.7539 86.8867 92.5078 86.9648 92.0156C87.207 91.8828 87.3281 91.7969 87.3281 91.7578H87.3984L87.3633 91.793V91.8633L87.6562 91.9453L88.4297 91.3477H88.4766L88.5469 91.4297V91.5L88.3594 91.5352V91.5L87.8086 91.9453L87.9492 92.2383C87.9492 92.3711 87.8281 92.5195 87.5859 92.6836H87.5156V92.7539C87.9375 93.1445 88.3047 93.3398 88.6172 93.3398C88.6172 93.4023 88.8008 93.5391 89.168 93.75C89.168 93.9297 89.4531 94.0391 90.0234 94.0781C90.2188 94.1953 90.4023 94.3789 90.5742 94.6289C90.7617 94.6289 90.957 94.9375 91.1602 95.5547C91.1602 95.6797 91.2969 95.9023 91.5703 96.2227L91.6406 96.7734H91.6758C91.7305 96.7734 91.7695 96.6602 91.793 96.4336L92.0156 96.2227L92.0508 96.2578H92.2383L92.4141 96.2227V96.293C92.3438 96.293 92.3086 96.3398 92.3086 96.4336L92.3789 96.5156V96.5508C92.3789 96.5977 92.3164 96.6211 92.1914 96.6211C92.1523 96.6992 92.0664 96.7383 91.9336 96.7383L91.8984 96.9141C91.8984 96.9922 91.9375 97.0312 92.0156 97.0312L92.0508 97.0664V97.1016L91.8633 97.2188V97.2539C91.9258 97.4414 92.207 97.6602 92.707 97.9102V97.9922H92.6719C92.5 97.9922 92.2305 97.8203 91.8633 97.4766C91.668 97.4766 91.5703 97.6094 91.5703 97.875L91.6055 98.0273H91.5V98.1328H91.6055V98.168C91.6055 98.2227 91.5703 98.25 91.5 98.25V98.2852L91.5352 98.4258C91.4336 98.5742 91.3828 98.6875 91.3828 98.7656L91.5 98.8711V98.9414H91.4531L91.3125 98.8711L91.2773 99.0586L91.3125 99.1641L91.2773 99.1289H91.2422L91.1953 99.1641V99.1992L91.2422 99.3516H91.1953L91.1602 99.3164H91.125L90.832 99.9023L90.2461 100.5C90.2461 100.578 90.0859 100.809 89.7656 101.191V101.273H89.7305L89.7656 101.309V101.496C89.625 101.738 89.5 101.859 89.3906 101.859V101.895C90.0078 101.895 90.4141 102.008 90.6094 102.234C91.2734 102.773 91.7031 103.25 91.8984 103.664C92.0938 103.828 92.2539 104.113 92.3789 104.52L92.8945 105.211L92.8594 105.328C92.9688 105.602 93.0547 105.762 93.1172 105.809L93.5977 106.172L94.043 106.395L94.2305 106.43L94.4062 106.289H94.4414C94.5352 106.289 94.5977 106.422 94.6289 106.688C94.582 106.703 94.5352 106.766 94.4883 106.875L94.2305 106.805L94.043 106.84L93.8555 106.77C94.1758 107.09 94.6914 107.699 95.4023 108.598L95.7773 108.715L95.8125 108.68V108.75C95.7344 108.75 95.6953 108.773 95.6953 108.82C95.7969 108.992 96.1289 109.277 96.6914 109.676C96.6914 109.746 96.7422 109.781 96.8438 109.781V109.852H96.8086C96.3867 109.516 96.0664 109.309 95.8477 109.23C95.8477 109.191 95.7266 109.082 95.4844 108.902C95.1953 108.621 94.9219 108.41 94.6641 108.27C94.1562 107.941 93.8125 107.648 93.6328 107.391C93.2422 107.156 93.0469 106.984 93.0469 106.875C92.9453 106.875 92.6992 106.738 92.3086 106.465C92.168 106.465 91.957 106.281 91.6758 105.914C91.6758 105.812 91.3438 105.492 90.6797 104.953C90.4453 104.727 90.1406 104.543 89.7656 104.402L88.9922 103.781C88.9219 103.656 88.7109 103.531 88.3594 103.406L88.2539 103.266V103.219H88.2891L88.4766 103.266L88.5117 103.219C88.4336 103.023 88.2344 102.926 87.9141 102.926L87.8086 102.855L87.6562 102.891C87.2656 102.648 87.0703 102.453 87.0703 102.305C87.0703 102.234 86.9453 102.012 86.6953 101.637V101.566L86.7773 101.496H86.8828L86.9648 101.566V101.602L86.918 101.637L87.2227 102.27L87.1758 102.375L87.2227 102.41H87.2578C87.7969 102.066 88.0664 101.746 88.0664 101.449C88.0664 101.309 88.1641 101.238 88.3594 101.238L88.6875 100.418C88.7891 100.418 88.9258 100.113 89.0977 99.5039C89.3398 99.2461 89.4766 99.0469 89.5078 98.9062H89.4727L89.543 98.7656L89.5078 98.7305L89.5781 98.6484L89.3555 98.6133V98.6484L88.7695 98.4727L88.582 98.6484H88.5469V98.5781L88.6523 98.4258H88.5469V98.3555L88.6875 98.3906L88.8047 98.3555C88.9375 98.4336 89.1211 98.4727 89.3555 98.4727V98.3555H89.3906L89.25 98.1328L89.0625 98.2148V98.168L88.8047 98.25V98.2148L88.8398 98.168V98.1328L88.7695 98.0625L88.9102 97.9922V97.957L88.5117 97.9102V97.8398H88.7695L88.9453 97.8047V97.7695C88.8984 97.7695 88.8125 97.6211 88.6875 97.3242V97.1719C88.7578 97.1719 88.832 97.2969 88.9102 97.5469L89.2148 97.4766V97.4297L89.168 97.3945V97.3594L89.25 97.2891L89.1328 97.1719L89.2852 97.0664L89.0625 96.6211L89.0977 96.5859H89.1328C89.3203 96.9297 89.5039 97.1016 89.6836 97.1016L89.7305 96.9961C89.5664 96.918 89.3203 96.4883 88.9922 95.707C88.6094 95.1602 88.2383 94.8516 87.8789 94.7812C87.6758 94.5781 87.3945 94.3828 87.0352 94.1953L87 94.2305C86.9688 94.0586 86.9062 93.9727 86.8125 93.9727L86.8477 93.9375V93.8906L86.6953 93.8203H86.625C86.625 93.9375 86.5391 94.0859 86.3672 94.2656V94.3359C86.6562 94.4297 86.8672 94.5664 87 94.7461H86.918C86.7773 94.6289 86.6328 94.5664 86.4844 94.5586L86.2969 94.3711H86.2617V94.4883L86.2969 94.5234V94.5586H86.2617L86.1094 94.4883L85.9688 94.5234C85.9688 94.6875 86.0664 94.8086 86.2617 94.8867L86.3672 95.1094L86.332 95.332C86.332 95.6758 86.3828 95.8477 86.4844 95.8477L86.5547 95.918C86.4062 96.707 86.2578 97.1016 86.1094 97.1016L86.1445 97.1367V97.4766C85.9961 97.8125 85.9219 98.2305 85.9219 98.7305L85.8516 99.0938C85.8984 99.1875 85.9219 99.3242 85.9219 99.5039V99.5742L85.7812 99.8672L86.0742 100.898C86.2383 100.898 86.3359 100.949 86.3672 101.051V101.086L86.0742 101.93L86.0391 101.977V102.82C86.0391 103.367 86.1133 103.871 86.2617 104.332V104.402L86.2969 105.293L86.2617 105.398L86.4844 105.809C86.4844 106.238 86.4453 106.496 86.3672 106.582C86.4141 106.621 86.4766 107.137 86.5547 108.129C86.6016 108.129 86.6484 108.238 86.6953 108.457C86.75 108.465 86.8008 108.527 86.8477 108.645C86.7773 108.887 86.7148 109.008 86.6602 109.008L86.5547 108.938H86.5195L86.5547 109.16L86.5195 109.195V109.23L86.5547 109.336L86.5195 109.371H86.4844L86.5195 109.418L86.4375 109.852L86.5195 110.004L86.4844 110.262V110.414L86.5547 111.188L86.5195 111.223V111.258L86.5547 111.293L86.5195 111.48L86.5547 111.621H86.5195L86.4375 111.551V111.41L86.2617 110.262L86.2969 110.156C86.1484 110.094 86.0742 109.945 86.0742 109.711C86.0273 109.711 86.0039 109.746 86.0039 109.816L85.9688 109.852H85.9219L85.8867 109.816L85.7812 109.934C85.7344 109.738 85.6367 109.641 85.4883 109.641C85.3398 109.523 85.2656 109.336 85.2656 109.078L85.3711 108.902V108.855H85.3008V108.785H85.3711V108.75L85.1133 108.387H85.0781L84.9727 108.457L84.75 108.199L84.668 108.457L84.7148 108.492V108.527C84.6445 109.059 84.5703 109.355 84.4922 109.418L84.5273 109.453V109.559L84.4922 109.781L84.5273 109.898L84.375 110.191L84.4102 110.227H84.4453L84.4102 110.672V110.848H84.3398V110.812C84.3398 110.133 84.2773 109.617 84.1523 109.266V108.785L84.1875 108.562C84.1406 108.438 84.1172 108.219 84.1172 107.906V107.684L84.1523 107.648C84.0039 107.273 83.8945 106.793 83.8242 106.207V106.137C83.8945 105.629 83.957 105.359 84.0117 105.328L83.9766 105.176L84.0117 105.141H84.0469L84.0117 105.105V105.035L84.1172 104.848L84.0117 104.625V104.52C84.0117 104.238 84.0469 103.93 84.1172 103.594C84.0938 103.484 84.0312 103.41 83.9297 103.371L84.0117 103.148L83.9297 103.078L84.0117 102.785C83.9336 102.785 83.8945 102.758 83.8945 102.703V102.668L83.9297 102.527L83.8242 102.234C83.6758 102.234 83.6016 102.148 83.6016 101.977L83.6367 101.414L83.5664 100.898L83.6016 100.535C83.5391 100.395 83.4414 99.9883 83.3086 99.3164C83.2773 99.3164 83.2383 99.2305 83.1914 99.0586L83.2383 98.8359C83.1523 98.3125 83.0664 98.0039 82.9805 97.9102V97.1016C83.0742 97.0391 83.1328 96.5586 83.1562 95.6602L83.1211 95.625H83.0859L83.0156 95.707L83.0508 95.8125C83.0039 95.8125 82.9648 95.875 82.9336 96L82.7227 96.0703H82.6758V95.9648H82.6055L82.3477 96.1055L82.3125 96.0703V96.0352C82.4375 95.8867 82.5 95.7773 82.5 95.707L82.3477 95.5547L82.4648 95.4492L82.6055 95.4844C82.707 95.4453 82.7578 95.4062 82.7578 95.3672V95.2266L82.6758 95.1094C82.6758 95.0625 82.7266 95.0391 82.8281 95.0391V95.0039L82.7578 94.8867V94.8516C82.875 94.8516 82.9336 94.8164 82.9336 94.7461L82.793 94.6641L82.8281 94.5586L82.6055 94.3008V94.2305H82.6758L82.8633 94.3711L82.8281 94.4062C82.8906 94.6328 82.9883 94.7461 83.1211 94.7461V94.7109L83.0156 94.4531V94.3359L83.0508 93.7148C82.8711 93.543 82.7344 93.457 82.6406 93.457L82.6055 93.4922L82.6406 93.5273V93.5977C82.5469 93.5977 82.5 93.6602 82.5 93.7852C82.3516 93.7852 82.2773 93.8203 82.2773 93.8906C82.332 93.8906 82.3672 93.9531 82.3828 94.0781L82.2773 94.1133L82.3125 94.3008H82.2773C82.2305 94.3008 82.207 94.2656 82.207 94.1953L82.1719 94.2305H81.9844C81.8594 94.2305 81.7969 94.168 81.7969 94.043C81.6797 94.043 81.6211 94.0195 81.6211 93.9727L81.8789 93.8555V93.7852C81.8008 93.7852 81.6992 93.6016 81.5742 93.2344C81.8242 93.5 81.9492 93.6836 81.9492 93.7852L81.9844 93.75H82.0195L82.207 93.7852V93.7148C82.0586 93.7148 81.9844 93.6016 81.9844 93.375L82.1367 93.3398C82.0977 93.1211 82.0234 93.0117 81.9141 93.0117L81.9844 92.9414L81.9492 92.8945V92.6016L82.1016 92.4141V92.3438L82.0195 92.0508V91.9805C82.0742 91.9805 82.125 92.0781 82.1719 92.2734L82.2773 92.3438C82.3477 92.3438 82.3828 92.2812 82.3828 92.1562H82.5C82.5 92.2422 82.5469 92.3281 82.6406 92.4141V92.4609L82.793 92.3438V92.4141L82.7227 92.6016L82.8984 92.7891H82.9336L82.8281 93.0469V93.082L82.9805 93.2344H83.0508C83.1758 93.2344 83.25 93.1953 83.2734 93.1172L83.2383 93.0117H83.2734L83.3438 92.7891L82.9336 92.4961V92.4141H82.9805L83.4609 92.7539C83.5781 92.7227 83.6367 92.6836 83.6367 92.6367L83.6016 92.6016C83.6719 92.5938 83.7227 92.5312 83.7539 92.4141L83.5664 92.2383H83.6016L83.8594 92.3789V92.3086L83.7891 92.0859H83.8242C83.8711 92.0859 83.8945 92.125 83.8945 92.2031H83.9766V92.1562L83.9297 92.1211V92.0859C84.0312 92.0859 84.082 92.0625 84.082 92.0156C84.0586 91.9219 83.9727 91.7969 83.8242 91.6406V91.6055H83.8945L84.2695 91.9453V91.8633H84.3398V92.0508H84.375L84.5273 91.8984V91.8633C84.4648 91.8633 84.3789 91.7891 84.2695 91.6406V91.6055H84.3047C84.4766 91.6992 84.5625 91.7852 84.5625 91.8633L84.6328 91.793L84.668 91.8281H84.75L84.7148 91.793V91.6875L84.7852 91.6055L84.9258 91.6406L84.9727 91.4648H85.043V91.6406L85.1133 91.7227C85.2773 91.4492 85.3867 91.3008 85.4414 91.2773ZM81.8438 91.6875L81.9141 91.793V91.8281C81.8125 91.7891 81.7617 91.7539 81.7617 91.7227L81.7969 91.6875H81.8438ZM81.9492 91.8633L82.0195 91.9453V91.9805L81.9492 91.8984V91.8633ZM88.3945 91.8633L88.4297 91.8984V91.9453L88.3945 91.9805H88.3242V91.9453L88.3945 91.8633ZM83.4609 92.5312H83.4961L83.5664 92.6016H83.4609V92.5312ZM82.1719 94.6641H82.207V94.7812H82.1016V94.7461L82.1719 94.6641ZM87.5156 95.332H87.5508L87.6211 95.4023L87.3984 95.5195L87.3633 95.4844V95.4492L87.5156 95.332ZM92.5312 96.5859H92.6367V96.6562H92.5312V96.5859ZM88.1367 96.8086L88.2188 96.8789H88.0664L88.1367 96.8086ZM88.9922 97.582V97.6172L89.0625 97.6875H89.2148L89.2852 97.6172V97.5469L88.9922 97.582ZM87.5859 97.7344H87.7383V97.8398H87.6914L87.5859 97.8047V97.7344ZM89.7305 97.9102L89.8359 97.957V97.8398H89.8008L89.7305 97.9102ZM89.6133 97.957L89.6836 98.0625C89.6836 98.1328 89.6133 98.168 89.4727 98.168V98.3203L89.4258 98.5078L89.6133 98.3555L89.5781 98.25H89.6133C89.6914 98.25 89.7305 98.1641 89.7305 97.9922L89.6836 97.957H89.6133ZM92.0859 98.3906H92.1211C92.293 98.4766 92.4297 98.5898 92.5312 98.7305H92.4961C92.3398 98.7305 92.2031 98.6172 92.0859 98.3906ZM93.3047 98.6836H93.4453V98.7656H93.3047V98.6836ZM91.5352 99.3516H91.6055V99.4688H91.5352V99.3516ZM91.3477 99.5039C91.4648 99.5039 91.5898 99.6641 91.7227 99.9844C91.543 99.9141 91.4062 99.7773 91.3125 99.5742L91.3477 99.5391V99.5039ZM88.3945 105.176V105.211L88.2891 105.363L88.4766 105.434C88.4062 105.676 88.2812 105.836 88.1016 105.914H87.9141L87.7734 105.809L87.5859 105.844L87.6914 105.691L87.6562 105.469L87.9141 105.293L88.2539 105.328L88.3945 105.176ZM89.2148 105.176H89.3203L89.3906 105.258L89.3203 105.328H89.168L89.0977 105.258L89.2148 105.176ZM88.9102 105.258H89.0273V105.328H88.8398L88.9102 105.258ZM88.6172 105.328H88.8398L88.7695 105.398H88.5469L88.6172 105.328ZM87.9961 106.207L88.0312 106.254V106.289L87.9961 106.324H87.9492L87.9141 106.289V106.254L87.9492 106.207H87.9961ZM85.2656 110.707L85.3008 110.742V110.777C85.3008 110.902 85.2617 110.977 85.1836 111L85.1484 110.965V110.93C85.1719 110.781 85.2109 110.707 85.2656 110.707Z" fill="white"/>
<g clip-path="url(#clip0_14_699)">
<rect x="28" y="117" width="85" height="85" fill="#0F104C" fill-opacity="0.5"/>
<path d="M28.2 185.2H44.8V201.8H28.2V185.2Z" stroke="#5F0D16" stroke-width="0.4"/>
<path d="M28.2 168.2H44.8V184.8H28.2V168.2Z" stroke="#5F0D16" stroke-width="0.4"/>
<path d="M28.2 151.2H44.8V167.8H28.2V151.2Z" stroke="#5F0D16" stroke-width="0.4"/>
<path d="M28.2 134.2H44.8V150.8H28.2V134.2Z" stroke="#5F0D16" stroke-width="0.4"/>
<path d="M28.2 117.2H44.8V133.8H28.2V117.2Z" stroke="#5F0D16" stroke-width="0.4"/>
<path d="M45.2 185.2H61.8V201.8H45.2V185.2Z" stroke="#5F0D16" stroke-width="0.4"/>
<path d="M45.2 168.2H61.8V184.8H45.2V168.2Z" stroke="#5F0D16" stroke-width="0.4"/>
<path d="M45.2 151.2H61.8V167.8H45.2V151.2Z" fill="white"/>
<path d="M45.2 151.2H61.8V167.8H45.2V151.2Z" stroke="#5F0D16" stroke-width="0.4"/>
<path d="M45.2 134.2H61.8V150.8H45.2V134.2Z" stroke="#5F0D16" stroke-width="0.4"/>
<path d="M45.2 117.2H61.8V133.8H45.2V117.2Z" stroke="#5F0D16" stroke-width="0.4"/>
<path d="M62.2 185.2H78.8V201.8H62.2V185.2Z" stroke="#5F0D16" stroke-width="0.4"/>
<path d="M62.2 168.2H78.8V184.8H62.2V168.2Z" stroke="#5F0D16" stroke-width="0.4"/>
<path d="M62.2 151.2H78.8V167.8H62.2V151.2Z" fill="#EB1E1E"/>
<path d="M62.2 151.2H78.8V167.8H62.2V151.2Z" stroke="#5F0D16" stroke-width="0.4"/>
<path d="M62.2 134.2H78.8V150.8H62.2V134.2Z" fill="white"/>
<path d="M62.2 134.2H78.8V150.8H62.2V134.2Z" stroke="#5F0D16" stroke-width="0.4"/>
<path d="M62.2 117.2H78.8V133.8H62.2V117.2Z" stroke="#5F0D16" stroke-width="0.4"/>
<path d="M79.2 185.2H95.8V201.8H79.2V185.2Z" stroke="#5F0D16" stroke-width="0.4"/>
<path d="M79.2 168.2H95.8V184.8H79.2V168.2Z" stroke="#5F0D16" stroke-width="0.4"/>
<path d="M79.2 151.2H95.8V167.8H79.2V151.2Z" fill="white"/>
<path d="M79.2 151.2H95.8V167.8H79.2V151.2Z" stroke="#5F0D16" stroke-width="0.4"/>
<path d="M79.2 134.2H95.8V150.8H79.2V134.2Z" stroke="#5F0D16" stroke-width="0.4"/>
<path d="M79.2 117.2H95.8V133.8H79.2V117.2Z" stroke="#5F0D16" stroke-width="0.4"/>
<path d="M96.2 185.2H112.8V201.8H96.2V185.2Z" stroke="#5F0D16" stroke-width="0.4"/>
<path d="M96.2 168.2H112.8V184.8H96.2V168.2Z" stroke="#5F0D16" stroke-width="0.4"/>
<path d="M96.2 151.2H112.8V167.8H96.2V151.2Z" stroke="#5F0D16" stroke-width="0.4"/>
<path d="M96.2 134.2H112.8V150.8H96.2V134.2Z" stroke="#5F0D16" stroke-width="0.4"/>
<path d="M96.2 117.2H112.8V133.8H96.2V117.2Z" stroke="#5F0D16" stroke-width="0.4"/>
</g>
<rect x="28.5" y="117.5" width="84" height="84" stroke="url(#paint1_linear_14_699)"/>
<defs>
<linearGradient id="paint0_linear_14_699" x1="70.5" y1="17" x2="70.5" y2="83" gradientUnits="userSpaceOnUse">
<stop stop-color="#123BD5"/>
<stop offset="1" stop-color="#CD2237"/>
</linearGradient>
<linearGradient id="paint1_linear_14_699" x1="31.7979" y1="120.436" x2="138.59" y2="226.777" gradientUnits="userSpaceOnUse">
<stop stop-color="#B17BFF"/>
<stop offset="1" stop-color="#FF0751"/>
</linearGradient>
<clipPath id="clip0_14_699">
<rect x="28" y="117" width="85" height="85" fill="white"/>
</clipPath>
</defs>
</svg>
