<svg width="142" height="218" viewBox="0 0 142 218" fill="none" xmlns="http://www.w3.org/2000/svg">
<rect x="0.5" y="0.5" width="141" height="217" rx="4.5" fill="#191515"/>
<rect x="0.5" y="0.5" width="141" height="217" rx="4.5" stroke="#B17BFF"/>
<path d="M36.84 87.4C40.89 81.28 44.04 74.98 46.2 68.32C48.45 61.57 49.62 54.46 49.62 46.99L48.81 43.39H49.35C49.35 42.85 49.44 42.31 49.53 41.5C49.62 40.78 49.89 40.33 50.43 40.06C50.79 40.51 51.24 40.78 51.69 40.96C52.14 41.14 52.68 41.23 53.31 41.23L55.65 40.96L57.36 41.77L59.88 40.69V39.79L59.34 38.8H59.7L63.21 39.61L70.23 36.01L70.41 35.38L71.67 35.11L71.94 34.66H72.39L77.43 35.02V35.65C76.98 36.46 76.44 37.09 75.81 37.63C75 38.17 74.28 38.62 73.56 38.98L65.19 42.04L64.65 45.1C65.19 45.46 65.82 45.73 66.63 45.91C67.35 46.09 68.07 46.18 68.79 46.18L71.67 45.64L72.21 44.74C73.47 44.02 74.91 43.66 76.35 43.66C77.88 43.66 79.32 43.66 80.76 43.66L82.74 44.56L83.01 46C80.94 47.53 78.69 48.43 76.17 48.61C73.47 48.88 70.86 48.97 68.25 48.97C67.08 48.79 66 48.52 64.92 48.25C63.75 47.98 62.85 47.26 62.04 46.18L61.05 43.66H60.15L55.65 44.29C54.75 49.96 53.49 55.45 51.6 60.85C49.8 66.25 47.55 71.56 45.21 76.69L42.42 79.75L40.71 83.26L38.91 84.25L36.84 87.4ZM57.18 84.07V82.99C57.99 79.21 58.8 75.25 59.43 71.29C60.06 67.33 60.33 63.28 60.15 59.05L59.7 56.62H60.15L65.46 58.78L66.27 62.38C66.09 66.07 65.46 69.49 64.56 72.73C63.48 76.06 62.31 79.12 61.05 82.18C60.42 82.72 59.79 83.08 59.07 83.17C58.26 83.26 57.63 83.53 57.18 84.07ZM87.96 79.93C85.62 79.93 83.28 79.75 80.94 79.39C78.6 79.12 76.44 78.31 74.64 76.96L72.39 74.26C71.31 71.74 70.77 68.86 70.77 65.8C70.77 62.83 70.41 59.95 69.6 57.25L70.23 52.3L71.67 51.67L73.2 51.4L75.18 53.11V57.25L74.64 69.58L76.08 73.99C77.52 75.34 79.32 75.97 81.21 75.97C83.19 75.97 85.17 75.97 87.24 75.97C88.32 75.52 89.49 75.34 90.75 75.34C91.83 75.34 92.91 74.8 93.9 73.63C94.89 72.55 95.52 71.29 95.97 69.94C96.42 68.68 96.69 67.15 96.69 65.62L97.77 68.41L101.64 71.29C102.27 72.01 102.63 72.64 103.08 73.45C103.44 74.26 103.62 75.25 103.62 76.24L100.56 78.67C98.67 79.21 96.69 79.48 94.71 79.57C92.64 79.66 90.66 79.84 88.59 79.93L88.32 79.75L87.96 79.93ZM55.2 35.65C54.21 35.2 53.31 34.75 52.5 34.21C51.69 33.76 50.7 33.49 49.62 33.49C51.24 32.5 53.04 31.78 54.84 31.33C56.73 30.79 58.53 30.34 60.42 29.98C61.05 28.63 61.23 27.28 61.23 25.66C61.23 24.13 61.23 22.6 61.23 21.07L60.15 18.73H59.7V13.69L60.15 9.54999H60.78L66 14.77C66 15.76 66 16.57 66 17.56C66 18.55 66.27 19.36 66.81 20.08H67.71L68.52 19.81L68.79 19H71.94L76.8 20.08V20.8L76.08 22.33C74.73 23.05 73.38 23.59 71.94 23.95C70.41 24.4 68.79 24.76 67.17 25.03L65.73 24.4L62.94 29.35H63.57C66.27 28.27 69.15 27.46 72.3 26.74C75.36 26.11 78.42 25.48 81.57 25.03C83.64 25.21 85.71 25.39 87.6 25.66C89.58 25.93 91.29 26.74 92.82 28L93.09 29.08C91.74 29.89 90.39 30.43 88.86 30.79C87.42 31.24 85.89 31.42 84.36 31.6V32.05C83.28 31.87 82.29 31.96 81.48 32.23C80.67 32.5 79.77 32.86 78.78 33.31C79.41 32.32 80.04 31.33 80.94 30.61C81.75 29.8 82.2 28.72 82.2 27.46L81.03 27.19C76.53 28.45 72.3 29.89 68.16 31.51C64.02 33.22 59.7 34.66 55.2 35.65Z" fill="url(#paint0_linear_14_759)"/>
<path d="M51.6094 90.9141L51.7148 91.0078L51.3281 91.3477C51.4141 91.3477 51.5742 91.4297 51.8086 91.5938L52.1953 91.5V91.5938L51.9492 91.6406L52.0547 91.793V91.8398C52.0547 91.9023 52.0039 91.9336 51.9023 91.9336L51.8555 91.9805V92.0273L52.0547 92.1797L52.3945 91.9336H52.4414C52.3008 92.1602 52.1875 92.2734 52.1016 92.2734V92.5664L52.2422 92.7656H52.1953L52.2422 92.8125V92.9531C52.2422 93.0156 52.1953 93.0469 52.1016 93.0469V93.1055L52.3008 93.1992H52.3945V93H52.4883V93.1055L52.4414 93.1523V93.1992L52.6406 93.2461L52.6875 93.1992H52.7344L52.8281 93.293L52.7344 93.4453L52.7812 93.5859H52.7344L52.6875 93.7266H52.6406L52.5352 93.6328L52.4883 93.6797L52.3477 93.6328L51.9023 93.6797H51.8555L51.6094 93.6328L51.5625 93.6797V93.7266L51.5156 93.6797H51.4688C51.2422 93.7109 51.1289 93.7617 51.1289 93.832C51.1602 94.0273 51.207 94.125 51.2695 94.125V93.9727H51.3281L51.375 94.0195L51.4219 93.9727H51.4688L51.5156 94.0195H51.5625L51.7148 93.9727V94.0664H51.7617L51.9023 93.9727H51.9492L51.7617 94.2188L51.8086 94.2656L51.668 94.4648H51.7617L51.8086 94.4062H51.8555V94.4648L51.8086 94.6992H51.8555L52.0078 94.6055L52.0547 94.6523L52.1016 94.6055L52.1484 94.6523C52.1484 94.5586 52.1797 94.5117 52.2422 94.5117H52.3008L52.2422 94.7461L52.3008 94.8047H52.3477L53.2617 94.5586L53.3203 94.6055H53.3672L53.5547 94.5586V94.6523L52.2422 94.9922V95.0391C52.3438 95.0391 52.4258 95.1055 52.4883 95.2383H52.4414L52.0078 95.0859V95.1445C52.0078 95.2461 52.0859 95.4062 52.2422 95.625V95.7188H52.1953C52.0703 95.5312 51.9258 95.4375 51.7617 95.4375C51.7383 95.2734 51.6875 95.1914 51.6094 95.1914L51.375 95.3789L51.3281 95.332L51.1758 95.5312V95.5781L51.2227 95.5312H51.2695L51.3281 95.5781V95.625L51.2227 95.7188L51.375 95.7773L51.4219 95.7188H51.4688L51.5156 95.7773H51.5625L51.8555 95.6719L52.1484 96.0117H52.0547L51.9023 95.9648L51.8086 96.1172L51.9023 96.2109L51.8555 96.3516L52.4883 96.6445C52.457 96.7773 52.3945 96.8438 52.3008 96.8438V96.9375L52.3477 97.1367L52.3008 97.1836V97.2305L52.3477 97.3711H52.3008L52.1016 97.3242H52.0547L52.1016 97.3711V97.6641C52.1953 97.6641 52.2422 97.7148 52.2422 97.8164L52.4883 97.7578V97.8164L52.3945 97.957V98.0039L52.4414 98.0508V98.0977L52.3945 98.1562H52.3477L52.3008 98.0977L52.2422 98.1562L52.3477 98.5898L52.3008 98.6367H52.2422L52.1016 98.1562L52.0547 98.2031H52.0078L51.7148 98.0039C51.7148 98.1367 51.6641 98.2031 51.5625 98.2031L51.6094 98.25V98.3438L51.5625 98.3906L51.6094 98.543L51.5625 98.6836H51.6094L51.8086 98.543L52.0078 98.7305L51.8555 98.9766C52.4023 99.5469 53.1797 100.016 54.1875 100.383L54.2812 100.289H54.3398L54.4336 100.383L54.0938 100.629C52.7969 99.8555 52.0508 99.3711 51.8555 99.1758H51.7617L51.8555 99.3164V99.3633H51.8086L51.668 99.2695V99.5156H51.5625V99.2227C51.3516 99.0586 51.1914 98.9766 51.082 98.9766V99.0703L50.9297 99.1758L50.7422 99.0703C50.7422 99.1484 50.6133 99.2969 50.3555 99.5156H50.25L50.6484 98.9766V98.9297L50.3086 99.0703H50.0625L49.8633 99.0234L49.7227 99.0703C49.6914 98.9688 49.625 98.9062 49.5234 98.8828L49.3359 98.9297V98.8359H49.4766C49.4766 98.6797 49.2188 98.5156 48.7031 98.3438C48.7031 98.4219 48.5078 98.4883 48.1172 98.543H47.3906C47.3281 98.543 47.2969 98.5898 47.2969 98.6836L47.25 98.7305H47.1914L47.0977 98.6367H46.3711C46.207 98.7695 46.0781 98.8359 45.9844 98.8359C45.9844 98.8906 46.1797 98.9883 46.5703 99.1289V99.2227L45.6914 98.9297C45.5195 99.1797 45.293 99.3594 45.0117 99.4688H44.9648L44.8594 99.3633L44.918 99.3164H44.7188C43.875 99.3945 43.4531 99.6055 43.4531 99.9492C43.3594 100.082 43.3125 100.242 43.3125 100.43C43.2188 100.727 43.1211 100.875 43.0195 100.875V101.109L42.9258 101.695C43.0195 101.695 43.0664 101.73 43.0664 101.801L43.0195 102.422C43.4102 102.812 43.6055 103.039 43.6055 103.102C43.6055 103.445 44.2188 104.062 45.4453 104.953C45.6094 105.188 45.918 105.414 46.3711 105.633C46.3711 105.711 46.793 105.855 47.6367 106.066C48.6211 105.895 49.3164 105.719 49.7227 105.539L49.7695 105.586H49.8164C50.5352 105.305 51.2305 104.852 51.9023 104.227L52.0547 103.84C52.0547 103.707 51.9727 103.641 51.8086 103.641L52.2422 103.254V103.008H52.3477V103.301L52.4883 103.348C52.6602 103.301 52.8242 103.203 52.9805 103.055L53.0273 103.207C52.9258 103.434 52.7773 103.609 52.582 103.734V103.84C52.7148 103.84 52.7812 103.871 52.7812 103.934H52.6406L52.4883 103.84H52.4414C52.4414 103.934 52.0508 104.32 51.2695 105C51.2695 105.055 50.8672 105.395 50.0625 106.02C49.7891 106.387 49.3672 106.711 48.7969 106.992V107.086H48.8906V107.191H48.6562L48.6094 107.133C48.3047 107.312 48.0273 107.43 47.7773 107.484H47.25C46.6953 107.414 46.207 107.266 45.7852 107.039C45.5039 106.961 44.9062 106.559 43.9922 105.832C43.8906 105.832 43.8398 105.781 43.8398 105.68H43.6523C43.418 105.68 43.0273 105.438 42.4805 104.953C41.9883 104.562 41.7305 104.32 41.707 104.227L41.4609 104.273L41.4141 104.227H41.3672L41.2734 104.32H41.2266C40.5312 103.758 39.9961 103.16 39.6211 102.527C39.4102 102.41 39.1836 102.02 38.9414 101.355L38.8945 101.309V100.629L38.9883 100.242L38.8477 100.148L38.7891 100.195L38.7422 100.148V100.09L38.7891 100.043H38.6953V100.148H38.6484L38.6016 99.9492L38.6484 99.9023C38.5547 99.9023 38.5078 99.8516 38.5078 99.75L38.5547 99.6094H38.5078L38.5547 99.5625V99.5156L38.5078 99.4688V99.4102L38.7422 99.2227L38.6953 99.1758V99.0703C38.8594 99.0703 38.957 99.0078 38.9883 98.8828L39.375 99.0234C39.4766 98.9922 39.5742 98.832 39.668 98.543C39.668 98.1992 40.2344 97.4531 41.3672 96.3047C41.4141 96.0156 42.1094 95.2539 43.4531 94.0195C44.0469 93.707 44.6289 93.4648 45.1992 93.293C45.1992 93.1602 45.8828 93.0156 47.25 92.8594L47.3906 92.8125L48.2109 92.9062C48.1172 92.7891 48.0703 92.5781 48.0703 92.2734C48.125 92.2734 48.2227 92.4531 48.3633 92.8125H48.4102L48.457 92.5664V92.4727C48.457 92.4023 48.4102 92.3672 48.3164 92.3672V92.2734H48.3633L48.5039 92.3672C48.5508 92.2109 48.6016 92.1328 48.6562 92.1328L48.7031 92.1797H48.75V92.1328L48.9961 92.3203H49.043V92.4258C49.043 92.4883 48.9922 92.5195 48.8906 92.5195C49.0078 92.7461 49.0898 92.8594 49.1367 92.8594H49.1836C49.1836 92.7266 49.2188 92.6602 49.2891 92.6602H49.5234V92.5664L49.3828 92.3203L49.5234 92.2734L49.4766 92.2266V92.1797H49.7695L50.1562 92.3203C50.3203 92.3203 50.4023 92.2891 50.4023 92.2266L50.25 91.8867V91.8398H50.3555L50.4961 91.9805L50.4492 92.1328H50.543L50.5898 92.0742H50.6484L50.6953 92.1328V92.2266H50.4961C50.7227 92.4531 50.9648 92.5977 51.2227 92.6602C51.2695 92.5039 51.3203 92.4258 51.375 92.4258L51.5625 92.4727C51.5781 92.3398 51.6289 92.2734 51.7148 92.2734L51.8555 92.3203V92.3672C51.8555 92.4375 51.8086 92.4727 51.7148 92.4727V92.5664C51.8711 92.5352 51.9492 92.4531 51.9492 92.3203L51.7148 92.1797L51.4219 92.2266H51.3281V92.1328C51.4531 92.1328 51.5156 92.0664 51.5156 91.9336H51.668V91.8867C51.5664 91.8867 51.5156 91.8555 51.5156 91.793L51.5625 91.7344V91.6875L51.375 91.5C51.2344 91.5234 51.0391 91.6836 50.7891 91.9805H50.7422L51.082 91.4531L51.0352 91.3945C51.1289 91.3945 51.2891 91.25 51.5156 90.9609L51.5625 90.9141H51.6094ZM50.3086 91.0547C50.4648 91.0938 50.543 91.1602 50.543 91.2539H50.6484C50.8828 91.2539 51.0117 91.3008 51.0352 91.3945H50.9297L50.7891 91.3477L50.4961 91.3945L50.4492 91.3477H50.4023L50.2031 91.3945L50.3086 91.5469H50.1562L50.25 91.6875L50.2031 91.7344H50.1562C50.1562 91.6875 50.043 91.6406 49.8164 91.5938L49.6758 91.6406L49.7695 91.5L49.7227 91.3477H49.8633V91.3008C49.7695 91.3008 49.7227 91.2695 49.7227 91.207H49.8164L49.8633 91.2539H49.9102L49.9688 91.1133L50.2031 91.1602L50.3086 91.0547ZM49.2891 91.3008H49.3828V91.3945L48.7969 92.1328V91.9805L48.8438 91.9336V91.8867C48.6875 91.8633 48.6094 91.8125 48.6094 91.7344V91.6875H48.7031L48.8906 91.8398C48.8906 91.6992 49.0234 91.5352 49.2891 91.3477V91.3008ZM49.0898 91.9805H49.1836L49.3359 92.0273V92.1328H49.2891L49.0898 91.9805ZM52.582 92.3672C52.5352 92.5 52.4219 92.5664 52.2422 92.5664H52.1953C52.1953 92.4727 52.3242 92.4062 52.582 92.3672ZM48.5508 92.707L48.5039 92.7656V92.9531H48.5508L48.7969 92.9062C48.7812 92.8359 48.6992 92.7695 48.5508 92.707ZM50.8828 93.9727V94.0664L51.1289 94.1719H51.1758L51.0352 93.9258L50.8828 93.9727ZM51.1289 94.4648V94.5586L51.4219 94.6055C51.4219 94.543 51.4844 94.5117 51.6094 94.5117V94.4648L51.375 94.4062L51.1289 94.4648ZM54.2344 94.4648L54.2812 94.5117V94.5586L54.1875 94.6523H54.1406C53.9141 94.6523 53.8008 94.6211 53.8008 94.5586L53.7539 94.6055H53.6602V94.5117H53.707L54.2344 94.4648ZM54.7266 94.4648L54.8203 94.5586L54.7734 94.6055H54.7266L54.6211 94.5117L54.6797 94.4648H54.7266ZM54.4805 95.2383H54.5273L54.5742 95.2852H54.6211L54.6797 95.2383L54.7734 95.5781L54.6211 95.6719C54.4336 95.6016 54.3398 95.4883 54.3398 95.332L54.4805 95.2383ZM39.3281 97.2305L39.375 97.2773V97.4766L39.2812 97.5703L39.2344 97.3242L39.3281 97.2305ZM38.0625 98.25L38.168 98.3438L38.1094 98.3906H38.0625L37.9688 98.2969L38.0273 98.25H38.0625ZM47.3438 99.8555C47.0859 99.9961 46.957 100.156 46.957 100.336L47.0039 100.383C46.9023 100.383 46.8359 100.465 46.8047 100.629L46.5703 100.676L46.5117 100.629V100.582L46.6172 100.43H46.5703L46.5117 100.488H46.4648L46.1719 100.383L46.0781 100.488H46.0312V100.43C46.0312 100.367 46.0938 100.336 46.2188 100.336C46.2188 100.133 46.3164 100.004 46.5117 99.9492L46.7578 99.9961L47.3438 99.8555ZM43.6992 100.77H43.793V100.969H43.6992V100.77ZM54.2812 101.016L54.4805 101.168L54.3867 101.262L54.2344 101.109L54.2812 101.062V101.016ZM48.5039 101.695L48.5508 101.742V101.848L48.457 101.941H48.3164L48.2109 101.848C48.25 101.746 48.3477 101.695 48.5039 101.695ZM52.9219 102.621V102.762H52.875L52.7812 102.668L52.8281 102.621H52.9219ZM48.9961 102.668H49.0898C49.332 102.707 49.4609 102.773 49.4766 102.867V102.914C49.1562 102.883 48.9961 102.816 48.9961 102.715V102.668ZM51.3281 103.301V103.348L51.2227 103.441L51.1758 103.395V103.348L51.2227 103.301H51.3281ZM48.9961 107.133H49.043C49.8164 107.344 50.2695 107.508 50.4023 107.625C50.4023 107.672 50.3359 107.719 50.2031 107.766C50.2031 107.648 49.8789 107.504 49.2305 107.332C49.2305 107.27 49.1523 107.238 48.9961 107.238V107.133ZM48.6094 107.824L48.6562 107.871V107.918L48.6094 107.965H48.5508L48.5039 107.918V107.871L48.5508 107.824H48.6094ZM50.9883 107.824L51.1289 107.965L50.9883 108.059H50.9297C50.8828 108.059 50.8359 107.996 50.7891 107.871L50.8359 107.824H50.9883ZM48.2695 108.293L48.3164 108.352V108.445L47.8242 108.645L47.7305 108.539C47.8867 108.375 48.0664 108.293 48.2695 108.293ZM60.0352 92.543L60.082 92.5898V92.8594H59.9766L59.9297 92.5898L59.9766 92.543H60.0352ZM58.5703 92.5898L58.7812 92.8594H58.7344L58.4648 92.6484L58.5234 92.5898H58.5703ZM62.0156 92.6953V92.7539L61.8047 93.0117H61.5938V92.9648C61.6875 92.7852 61.8281 92.6953 62.0156 92.6953ZM59.6133 92.7539H59.7188L59.9297 93.3281L60.1406 93.2695L60.293 93.3281V93.2695L60.6094 92.9062V92.9648C60.5547 93.0977 60.5 93.1641 60.4453 93.1641L60.6562 93.5391C60.6016 93.7109 60.5 93.7969 60.3516 93.7969L60.293 93.7383V93.8438L60.5508 93.9492L60.7617 93.7969V93.9023L60.7148 93.9492V94.0078C60.8789 94.0078 61 94.0391 61.0781 94.1016C61.0781 94.0156 61.1641 93.8945 61.3359 93.7383H61.5469V93.7969L61.1836 94.1602H61.4414L61.5938 94.0547H61.7578L61.6523 94.2656L61.5938 94.207H61.5V94.2656H61.5938V94.3125L61.5469 94.3711V94.418C61.6172 94.418 61.6523 94.4727 61.6523 94.582L62.4375 94.418H62.4844C62.2891 94.6289 62.1172 94.7344 61.9688 94.7344C61.9688 94.8516 62.332 95.0586 63.0586 95.3555L63.1172 95.4141V95.5195H63.0586C62.7383 95.3398 62.4258 95.2148 62.1211 95.1445H61.9688L62.1211 95.3555V95.4141L62.0625 95.3555H61.8047V95.4609C62.0391 95.4609 62.25 95.6172 62.4375 95.9297H62.4844V96.0352L62.168 96.1406L62.0156 96.0352L61.9688 96.0938H61.6523V96.1406L61.7578 96.293V96.3516H61.6992L61.5469 96.293V96.3984C61.5469 96.5312 61.6328 96.6875 61.8047 96.8672L61.7578 96.9258H61.6992L61.5 96.7148C61.3906 96.7148 61.3203 96.8359 61.2891 97.0781H61.4414V97.1367L61.3359 97.2305H61.2891L61.125 97.1367L60.9727 97.1836L60.8672 97.0781C60.8672 97.25 60.7969 97.3359 60.6562 97.3359C60.6562 97.4062 60.7969 97.5117 61.0781 97.6523V97.6992C60.9375 97.9102 60.8672 98.0664 60.8672 98.168L60.9258 98.4375L60.8672 98.4844H60.8203L60.7617 98.332H60.7148L60.6562 98.6953V98.7422C60.7656 98.7422 60.8203 98.7773 60.8203 98.8477V98.9062L60.7148 99.0117C60.7148 98.918 60.5234 98.7617 60.1406 98.543H60.082L59.8828 98.6953L59.7773 98.5898H59.6133L59.4023 98.6484L59.3555 98.5898H59.3086C59.2227 98.5898 59.0469 98.6953 58.7812 98.9062L58.6289 98.8477V98.9062C58.6289 98.9766 58.4883 99.0117 58.207 99.0117C58.1758 99.0977 57.9336 99.2188 57.4805 99.375C57.4805 99.4531 57.3398 99.5234 57.0586 99.5859C57.0586 99.7031 56.7812 99.9609 56.2266 100.359C56.0859 100.57 55.9453 100.676 55.8047 100.676L56.0156 101.145V101.355C55.9141 101.48 55.8633 101.602 55.8633 101.719V102.035C56.207 103.16 56.625 103.836 57.1172 104.062C58.0391 105 59.0117 105.469 60.0352 105.469L60.3516 105.422L60.7617 105.527C60.9805 105.527 61.3828 105.18 61.9688 104.484C62.0625 104.484 62.1484 104.344 62.2266 104.062C62.4766 104.062 62.8594 103.699 63.375 102.973L63.3164 102.293C63.3164 102.16 63.3711 102.02 63.4805 101.871V101.613L63.6328 99.8438L63.5859 99.5273L63.6328 99.4805V99.4219L63.5859 99.2695L63.6328 99.2109L63.5273 99.1172V98.9062L63.5859 98.8477C63.5234 98.6914 63.418 98.5703 63.2695 98.4844L63.1172 98.543L63.0117 98.3789L63.0586 98.332L62.9531 98.2266L63.0117 98.168V98.1211C63.543 98.3242 63.8359 98.5312 63.8906 98.7422V98.8008L63.8438 98.8477C63.9219 99.0898 63.9922 99.2109 64.0547 99.2109L64.1016 99.0586L63.9961 98.8477L64.1016 98.6484L64.0547 98.3789L64.1016 98.2266L63.5273 97.6992L63.4805 97.7578V97.6992L63.5273 97.5469L63.375 97.3945H63.4219L63.6797 97.5469C63.7812 97.4219 64.043 97.2852 64.4648 97.1367V97.2891C64.0117 97.4062 63.7852 97.5273 63.7852 97.6523L64.5234 98.332C64.7891 98.332 64.9805 98.6094 65.0977 99.1641V99.4805L65.3086 99.7852L65.2031 100.102L65.3555 101.461C65.293 101.531 65.2422 101.789 65.2031 102.234C65.1172 102.234 65.0469 102.461 64.9922 102.914C64.6797 103.016 64.5234 103.172 64.5234 103.383C64.5234 103.734 64.4023 103.91 64.1602 103.91C64.0508 104.16 63.7031 104.488 63.1172 104.895C62.6484 105.77 62.1758 106.207 61.6992 106.207C61.543 106.48 61.1094 106.617 60.3984 106.617L59.6133 106.828C59.0586 106.828 58.0664 106.48 56.6367 105.785L55.7578 105.316C55.6016 105.113 55.2344 104.836 54.6562 104.484C53.8281 103.609 53.4141 103.051 53.4141 102.809V102.762L53.3555 101.719L53.4609 101.613V101.402L53.3555 100.828V100.723C53.5664 100.457 53.6719 100.285 53.6719 100.207C53.5 100.207 53.4141 100.172 53.4141 100.102V99.9492L53.9766 98.6953C54.1406 97.9766 54.2656 97.6133 54.3516 97.6055C54.625 97.2539 54.9023 97.0781 55.1836 97.0781C55.5195 96.7891 55.7969 96.3359 56.0156 95.7188L56.4844 95.4609L57.2109 94.9453L57.9961 94.6289C58.3477 94.4805 58.5234 94.375 58.5234 94.3125V94.207L58.207 93.7969H58.2539C58.4727 94 58.6328 94.1016 58.7344 94.1016L58.8867 93.9023L58.8281 93.8438L58.8867 93.7969L58.7812 93.6914V93.6328H58.8281C58.8984 93.6328 58.9336 93.6875 58.9336 93.7969H59.0977L59.3555 93.5859L59.25 93.4336V93.375L59.6133 93.4336C59.6133 93.3242 59.668 93.2695 59.7773 93.2695L59.6133 92.8008V92.7539ZM60.9727 92.8008H61.0195V92.9062L60.9258 93.0117H60.8203V92.9648L60.9727 92.8008ZM61.4414 93.1641H61.5V93.2227C61.5 93.2773 61.4297 93.3281 61.2891 93.375V93.3281L61.4414 93.1641ZM58.3594 93.2695H58.418L58.5234 93.375L58.4648 93.4336H58.418L58.3594 93.375V93.2695ZM57.9961 93.6328H58.0547L58.1602 93.7383H58.1016L57.9961 93.6328ZM62.5898 93.7969L62.6367 93.8438V93.9023L62.3789 94.1016L62.2266 94.0547V94.0078C62.2266 93.9453 62.3477 93.875 62.5898 93.7969ZM61.8633 96.3516H61.9102C62.3633 96.5156 62.5898 96.6719 62.5898 96.8203C62.668 96.8203 62.8945 96.9922 63.2695 97.3359H63.1641C62.5938 97.0391 62.2461 96.7812 62.1211 96.5625C61.9492 96.5625 61.8633 96.5078 61.8633 96.3984V96.3516ZM63.4805 96.8203L63.5859 96.9258L63.4219 97.0312L63.3164 96.9258L63.4805 96.8203ZM65.5078 97.2305L65.5664 97.2891V97.3359C65.5664 97.4062 65.375 97.4609 64.9922 97.5V97.4414C64.9922 97.3398 65.1641 97.2695 65.5078 97.2305ZM65.6133 97.5H65.6719L65.7773 97.6055H65.6133V97.5ZM61.9102 97.6055H62.0625V97.6523L61.9688 97.7578L61.9102 97.6992V97.6055ZM62.543 97.8633H62.5898L62.7422 98.0156V98.0742H62.6367L62.543 97.9688V97.8633ZM66.3516 97.8633L66.3984 97.9102V97.9688L66.2461 98.0742L66.1875 98.0156V97.9688L66.3516 97.8633ZM65.4609 98.2734H65.5664V98.332L65.4609 98.4375H65.3555V98.3789L65.4609 98.2734ZM62.2266 98.9062H62.2734L62.3789 99.0117L62.332 99.0586H62.2266V98.9062ZM62.7422 99.5273H62.8477V99.5859L62.7422 99.6797V99.5273ZM61.0195 99.8906L61.0781 99.9492V99.9961L61.0195 100.055H60.9727L60.9258 99.9961V99.9492L60.9727 99.8906H61.0195ZM60.5508 100.254L60.6094 100.312V100.359L60.5039 100.465H60.4453L60.3516 100.359L60.5508 100.254ZM59.8242 101.098H59.8828V101.145L59.7773 101.25H59.6719L59.8242 101.098ZM59.3086 101.508H59.3555V101.613H59.4023C59.4023 101.676 59.2812 101.797 59.0391 101.977H58.9336V101.93L59.3086 101.508ZM58.6289 102.293H58.7812V102.34C58.7109 102.48 58.6055 102.551 58.4648 102.551L58.418 102.504V102.445L58.6289 102.293ZM58.1602 102.914V103.078L58.0547 103.184H57.9961V103.078L58.1602 102.914ZM57.6914 103.441L57.7852 103.547L57.6328 103.652L57.5859 103.594V103.547L57.6914 103.441ZM63.7852 105.059L63.8438 105.105V105.164L63.4219 105.469L63.375 105.422V105.363C63.5156 105.16 63.6523 105.059 63.7852 105.059ZM63.3281 91.1602H63.3633L63.4453 91.2422V91.2773H63.3633L63.3281 91.1602ZM65.4844 91.2773H65.5664V91.4414L65.4844 91.5234L65.4375 91.4883V91.4414L65.4844 91.2773ZM70.3242 91.4062H70.3594L70.5234 91.5703V91.6055H70.4766L70.3242 91.4414V91.4062ZM71.3789 91.8164L71.4141 91.8516C71.375 91.9609 71.3359 92.0156 71.2969 92.0156H71.25V91.9336L71.3789 91.8164ZM71.6602 92.0508V92.0977C71.6211 92.207 71.582 92.2617 71.543 92.2617C71.543 92.332 71.6484 92.4141 71.8594 92.5078L71.9062 92.3789L71.8594 92.3438V92.2148L72.1523 92.3438L72.1875 92.2969V92.3789H72.2344V92.2969H72.2695C72.2695 92.4062 72.2969 92.4609 72.3516 92.4609L72.3164 92.5078C72.3164 92.5859 72.3555 92.625 72.4336 92.625V92.707H72.3164L72.3516 92.7422V92.7891H72.2344L72.3164 92.9062L72.2695 92.9531L72.2344 92.9062H72.1523V93.1523L72.2695 93.5625C72.332 93.5625 72.3867 93.4688 72.4336 93.2812H72.5508V93.3633L72.7969 93.2344V93.2812L72.7617 93.4336L72.9609 93.3984L73.043 93.4805V93.5625H72.9609L73.0078 93.5977V93.6445L72.9609 93.6797L73.0078 93.7266V93.7617L72.9609 93.8086V93.8438C73.1172 93.8281 73.2383 93.7891 73.3242 93.7266H73.3711V93.8086C73.2852 93.8086 73.2422 93.8359 73.2422 93.8906V94.0078H73.4531V93.9258H73.5352V94.0898L73.5703 94.0547H73.7344V94.125L73.4883 94.207L73.5352 94.2539V94.2891L73.4883 94.3359H73.4062C73.4062 94.2734 73.3516 94.2188 73.2422 94.1719H73.207V94.207L73.4062 94.5352L73.4531 94.5H73.6172C73.6172 94.5547 73.5742 94.582 73.4883 94.582V94.6172H73.7812V94.6992L73.7344 94.7461V94.7812C74.1172 94.9609 74.3086 95.2852 74.3086 95.7539C74.4492 95.8242 74.5586 95.9336 74.6367 96.082V96.2461C74.5195 96.7617 74.3281 97.1562 74.0625 97.4297C73.9922 97.7422 73.7891 97.9844 73.4531 98.1562C73.375 98.2812 73.1289 98.5 72.7148 98.8125C72.5898 99.2188 72.4141 99.4219 72.1875 99.4219L71.9062 99.7031H71.9883C73.543 99.5938 74.7773 99.5391 75.6914 99.5391L75.7266 99.5859C75.7266 99.5156 75.9023 99.4336 76.2539 99.3398L76.418 99.375L76.9922 99.3398H77.0273C77.2539 99.3398 77.4062 99.4492 77.4844 99.668C77.9531 99.8398 78.3984 100.312 78.8203 101.086L78.9023 101.906C78.7617 102.664 78.625 103.043 78.4922 103.043C78.3672 103.137 78.1797 103.395 77.9297 103.816L76.0195 105.199C75.0117 105.723 74.5078 106.129 74.5078 106.418C74.5078 106.566 74.2773 106.73 73.8164 106.91C73.8164 107.184 73.5859 107.371 73.125 107.473C72.9609 107.668 72.8125 107.766 72.6797 107.766C73.0078 107.43 73.293 107.211 73.5352 107.109C73.5352 106.812 73.8047 106.582 74.3438 106.418C74.3438 106.285 74.5625 105.906 75 105.281C75.1641 104.906 75.3242 104.66 75.4805 104.543C75.5039 104.395 75.6016 104.234 75.7734 104.062C75.9531 103.602 76.1133 103.371 76.2539 103.371L76.6641 102.551V102.305C76.6641 102.242 76.5547 102.176 76.3359 102.105L76.3008 102.07V101.824C76.2148 101.824 76.1719 101.797 76.1719 101.742V101.66L76.2188 101.613V101.578C75.9453 101.516 75.8086 101.406 75.8086 101.25L75.6094 101.133H75.5273L75.3984 101.215H74.3906C74.2969 101.105 74.2148 101.051 74.1445 101.051L73.6992 101.168H73.2891L73.2422 101.133L73.207 101.168H73.1719C72.5078 101.059 72.0586 100.922 71.8242 100.758C71.6914 100.758 71.4336 100.691 71.0508 100.559C70.9258 100.676 70.832 100.812 70.7695 100.969C70.8789 100.984 70.9336 101.023 70.9336 101.086H70.8516L70.7227 101.051V101.086L70.7695 101.133C70.7383 101.352 70.6953 101.461 70.6406 101.461C70.6719 101.664 70.8477 101.945 71.168 102.305C71.3867 102.68 71.5938 102.91 71.7891 102.996V103.078C71.5469 102.977 71.2891 102.691 71.0156 102.223L70.6875 101.906C70.5234 101.719 70.4414 101.543 70.4414 101.379L70.3945 101.332H70.3594L70.2773 101.414V101.379L70.3594 101.215C70.1172 101.215 69.9414 101.078 69.832 100.805C69.9414 100.758 69.9961 100.664 69.9961 100.523L69.9492 100.477C70.1445 100.445 70.2422 100.336 70.2422 100.148H70.3242C70.3242 100.242 70.2812 100.34 70.1953 100.441L70.5234 100.559V100.523C70.5234 100.453 70.8086 100.098 71.3789 99.457C71.4727 99.1914 71.7969 98.8125 72.3516 98.3203L72.6328 97.8281C72.5312 97.3359 72.4531 96.7812 72.3984 96.1641L72.3516 96.1289V95.918C72.4531 95.7852 72.5352 95.7188 72.5977 95.7188C72.5977 95.6328 72.4883 95.5781 72.2695 95.5547V95.5898L71.9414 95.8359H71.9062V95.7539L72.2344 95.5195L72.1523 95.3086L71.5781 95.7188V95.6367L71.8594 95.3555C71.9844 94.9258 72.082 94.6797 72.1523 94.6172V94.582C72.043 94.582 71.9883 94.5273 71.9883 94.418H71.9062L71.8594 94.4531H71.8242L71.6602 94.3711L71.625 94.418V94.4531L71.707 94.6172H71.6602C71.5898 94.6172 71.5508 94.5625 71.543 94.4531L71.4961 94.5H71.4609L71.4141 94.4531C71.4141 94.5938 71.3594 94.6641 71.25 94.6641L71.2148 94.6172C71.0352 94.9062 70.8867 95.0703 70.7695 95.1094H70.7227L71.25 94.3711V94.3359L71.2148 94.3711H71.0156L70.9688 94.2539L70.5234 94.207C70.0078 94.2617 69.75 94.3984 69.75 94.6172H69.668L69.5859 94.5352V94.5C69.8281 94.25 70.2227 94.125 70.7695 94.125C70.832 93.9922 70.8984 93.9258 70.9688 93.9258V93.8438C70.7656 93.6562 69.9531 93.4531 68.5312 93.2344H67.875V93.1523H68.6133C69.0977 93.1523 69.5039 93.1953 69.832 93.2812C69.832 93.1719 69.8594 93.1172 69.9141 93.1172L70.0781 93.2812L70.2422 93.1172C70.2422 93.2266 70.4297 93.3203 70.8047 93.3984V93.3633L70.7695 93.2344H70.8047L70.9688 93.1992L70.9336 93.0352L70.6406 93.0703V92.9883L70.8867 92.9531L70.8516 92.9062V92.8711L70.8867 92.8242V92.7891L70.7227 92.625H70.7695L71.0156 92.7891L71.1328 92.7422C71.1328 92.8516 71.1875 92.9062 71.2969 92.9062V92.9883L71.25 93.0352V93.0703H71.3789C71.3867 92.9609 71.4414 92.9062 71.543 92.9062V92.9531L71.4141 93.1523H71.4609L71.707 93.1172C71.8086 93.2031 71.8867 93.3242 71.9414 93.4805C71.9414 93.5352 71.8633 93.5742 71.707 93.5977V93.6445C71.8945 93.6445 72.0547 93.7109 72.1875 93.8438H72.2695V93.8086C72.0508 93.543 71.9414 93.3672 71.9414 93.2812C71.9414 93.1172 71.8633 93.0352 71.707 93.0352C71.707 92.8945 71.5977 92.8242 71.3789 92.8242C71.1836 92.5898 70.9531 92.4297 70.6875 92.3438V92.2969H70.7695L71.0508 92.3438V92.2969L71.0156 92.2617V92.2148C71.0703 92.2148 71.0977 92.1758 71.0977 92.0977H71.1328L71.25 92.1797L71.2969 92.1328L71.543 92.2148V92.1797L71.6602 92.0508ZM66.375 92.1328V92.1797L66.293 92.2617V92.2148L66.375 92.1328ZM67.7578 92.4258H67.8398V92.4609L67.7578 92.543H67.6758V92.5078L67.7578 92.4258ZM64.7461 92.5078L64.8281 92.5898L64.793 92.625H64.7109L64.7461 92.5078ZM66.3398 92.6602C66.4258 92.668 66.5586 92.793 66.7383 93.0352H66.8555C66.8555 92.8555 66.9102 92.7461 67.0195 92.707L66.9375 92.9883H67.0664L67.1836 92.9062L67.2305 92.9531V92.9883L67.1836 93.0352V93.0703L67.5117 93.4336V93.4805C67.5117 93.5352 67.4727 93.5625 67.3945 93.5625V93.5977C67.3945 93.6445 67.4883 93.6875 67.6758 93.7266C67.6758 93.8594 67.7852 93.9258 68.0039 93.9258V94.0078L67.7109 93.9727H67.6758V94.0078L67.793 94.2891V94.4531L67.7578 94.5L67.793 94.5352V94.6992L67.7109 94.8281L67.957 94.9805C67.957 95.0352 67.918 95.0625 67.8398 95.0625L68.0039 95.1914V95.2734L67.957 95.3906C68.2305 95.5 68.3672 95.7188 68.3672 96.0469V96.1289H68.4023L68.4492 96.082H68.4844L68.5664 96.3281C68.5664 96.4141 68.4844 96.5625 68.3203 96.7734L68.7773 97.1367V97.1836L68.7305 97.3828C68.8398 97.4297 68.8945 97.5273 68.8945 97.6758L68.7773 97.793L68.8125 98.0391C68.625 98.3828 68.5312 98.8008 68.5312 99.293C68.75 100.145 68.9531 100.633 69.1406 100.758C69.3047 101.148 69.4805 101.406 69.668 101.531L69.7031 101.695C69.7031 101.836 69.6797 101.906 69.6328 101.906L69.668 102.023C69.8633 102.023 70.0273 101.859 70.1602 101.531H70.2422C70.2422 101.625 70.1602 101.777 69.9961 101.988V102.023C70.0898 102.023 70.1719 102.215 70.2422 102.598L70.0781 102.879H69.9492C69.7539 102.879 69.5938 102.715 69.4688 102.387H69.4219V102.469L69.668 103.125C69.7461 103.148 69.8555 103.488 69.9961 104.145C70.1992 104.574 70.332 104.98 70.3945 105.363V105.609L70.6406 105.891L70.6055 106.09V106.137C70.8086 106.746 70.9844 107.164 71.1328 107.391H71.2148L71.168 107.438V107.473L71.2969 107.555L71.3789 107.473H71.4609V107.52L71.2969 107.637L71.25 107.684V107.719C71.25 107.773 71.293 107.801 71.3789 107.801V107.883L71.332 107.93V107.965H71.625V108.047H71.4141L71.332 108.117V108.246C71.332 108.309 71.4023 108.348 71.543 108.363L71.707 108.199H71.7422V108.246L71.625 108.41V108.445L71.8242 108.527L71.7891 108.574V108.656C71.8906 108.664 71.9414 108.703 71.9414 108.773H71.8594L71.625 108.656C71.5391 108.656 71.4961 108.707 71.4961 108.809H71.4141V108.773L71.4609 108.738V108.691L71.2969 108.574L71.4141 108.41L71.3789 108.363H71.332L71.2969 108.41H71.25L71.1328 108.363L71.168 108.41V108.492H71.0508C71.0508 108.578 71.0898 108.672 71.168 108.773L71.0977 108.938H71.25V109.02L71.0508 108.973V109.102L71.2148 109.219L71.25 109.266V109.301H71.168L70.9688 109.219V109.266L70.9336 109.301L71.0156 109.547H70.9336C70.9336 109.438 70.9062 109.383 70.8516 109.383C70.75 109.383 70.5195 109.641 70.1602 110.156V110.121L70.3594 109.664V109.43L70.2422 109.301C70.1953 109.301 70.1406 109.395 70.0781 109.582H70.0312V109.43L70.0781 109.383L70.0312 109.348V109.266H70.1133V109.219L69.9961 109.102L69.7852 109.184V109.102H69.8672L69.75 108.973L69.7852 108.773L69.75 108.738H69.7031L69.5508 108.973V109.137L69.6328 109.266L69.5508 109.348L69.3867 109.102L69.2578 109.266C69.1797 109.266 69.125 109.156 69.0938 108.938L68.8945 108.973V108.891H68.8594C68.8594 108.977 68.7891 109.059 68.6484 109.137V109.055L68.7305 108.773C68.4805 108.844 68.25 109.047 68.0391 109.383L67.957 109.301C67.957 109.16 68.1211 108.996 68.4492 108.809L68.4023 108.773V108.691C68.5195 108.691 68.6289 108.625 68.7305 108.492H68.7773V108.445L68.6484 108.41L68.5312 108.445V108.41L68.5664 108.281H68.4492L68.4844 108.246V108.199H68.3672L68.25 108.328V108.363L68.2852 108.41V108.445L68.25 108.492H68.2031C68.1875 108.406 68.1328 108.352 68.0391 108.328V108.246L68.0039 108.281H67.957L67.875 108.199L68.2031 108C68.2031 107.953 68.1211 107.887 67.957 107.801V107.719C68.0586 107.805 68.1562 107.848 68.25 107.848H68.2852L68.3203 107.719C68.2422 107.719 68.1758 107.664 68.1211 107.555H68.168L68.4844 107.684V107.637C68.4844 107.559 68.5391 107.52 68.6484 107.52V107.473L68.2031 107.32V107.273L68.25 107.238V107.191C67.9219 107.059 67.7578 106.965 67.7578 106.91H67.8398L68.6484 107.32L68.6953 107.273V107.238L68.6484 106.992C68.7578 107.008 68.8125 107.117 68.8125 107.32C68.9453 107.25 69.0117 107.113 69.0117 106.91L68.9414 106.828V106.746H69.0117C69.0195 106.879 69.0625 106.945 69.1406 106.945L69.1758 106.91C69.0977 106.668 69.0195 106.547 68.9414 106.547L68.8594 106.617H68.7773L69.0586 106.383L69.0117 106.336L69.0938 105.973L68.7305 105.609V105.527C68.7383 105.387 68.7656 105.316 68.8125 105.316C68.625 104.902 68.5312 104.633 68.5312 104.508L68.4844 104.461V104.309L68.5312 104.145C68.4453 104.074 68.3906 103.762 68.3672 103.207C68.0938 102.77 67.957 102.469 67.957 102.305V102.152L68.0039 101.777C67.9727 101.668 67.918 101.613 67.8398 101.613V101.531H67.9219L67.5938 101.168V101.133L67.8398 101.332H67.875C67.875 101.199 67.9023 101.09 67.957 101.004C67.8242 100.895 67.7578 100.773 67.7578 100.641V100.605L67.875 100.277C67.7578 100.059 67.6367 99.582 67.5117 98.8477L67.3125 98.6484L67.3477 98.6016V98.5664C67.1602 98.1133 67.0508 97.7461 67.0195 97.4648L66.9844 97.4297L67.1016 96.7383C66.8047 96.3242 66.6562 95.9414 66.6562 95.5898L66.6211 95.6367H66.457V95.5898C66.5664 95.5898 66.6211 95.5508 66.6211 95.4727L66.4922 95.2734H66.6211V95.2266C66.6211 95.1719 66.5664 95.1445 66.457 95.1445L66.4219 95.1094V95.0625L66.457 95.0273L66.3398 94.9805L66.1758 95.0273C66.1133 95.0273 66.0742 94.9609 66.0586 94.8281L66.0938 94.7812H66.1289L66.1758 94.8281H66.2109V94.6992C66.0781 94.6992 65.957 94.5781 65.8477 94.3359L66.0938 94.125V94.0898L65.9297 93.8906L66.0117 93.7617L65.9766 93.7266H65.9297L65.6836 93.9258L65.7305 94.125C65.6211 94.1719 65.5664 94.2148 65.5664 94.2539L65.8125 94.7812H65.6836C65.7695 95.0234 65.8789 95.1445 66.0117 95.1445V95.2266H65.9297L66.0117 95.3086H66.457C66.457 95.3555 66.3359 95.3984 66.0938 95.4375C66.0938 95.5078 65.957 95.6562 65.6836 95.8828C65.6836 96.0078 65.6016 96.1289 65.4375 96.2461H65.3672V96.2109L65.5664 95.9648C65.4883 95.8711 65.3242 95.8008 65.0742 95.7539V95.8008L64.957 95.918H64.9102L65.0742 95.6367L65.0391 95.5898L64.9922 95.6367H64.9102V95.5547C64.9961 95.5547 65.0391 95.5273 65.0391 95.4727V95.4375H64.6758V95.3555H65.0391C65.0391 95.3008 64.9961 95.2734 64.9102 95.2734L64.875 95.2266V95.1914L64.9102 95.1445L64.875 95.1094H64.9102L65.0391 95.1445V95.1094L65.0742 94.8984L64.957 94.9805H64.875V94.8984L64.957 94.7812V94.6992L64.8281 94.6641L64.5469 95.1094H64.5117V95.0625L64.7109 94.7461C64.5234 94.6133 64.4297 94.5156 64.4297 94.4531L64.1836 94.5L64.0547 94.4531V94.3711L64.3477 94.3359H64.4648C64.4648 94.25 64.5078 94.207 64.5938 94.207V94.125C64.4844 94.125 64.4297 94.1016 64.4297 94.0547H64.5469L64.5938 94.0898H64.6289C64.6289 94.0352 64.6953 94.0078 64.8281 94.0078V93.9727C64.75 93.9727 64.7109 93.9297 64.7109 93.8438H64.6289V93.7617H64.6758L64.875 93.8086V93.7266C64.7812 93.7266 64.6602 93.6172 64.5117 93.3984H64.5469L64.7461 93.5625H64.793L64.8281 93.5156H64.875L64.8281 93.4805V93.2812L64.875 92.9883H64.957L64.9102 93.2812H64.9922V93.4336L64.957 93.4805V93.5156H64.9922L65.0391 93.4805H65.0742V93.5625H65.1562L65.2852 93.0352H65.3672L65.3203 93.3984C65.375 93.3984 65.4414 93.2773 65.5195 93.0352L65.8477 92.7891L66.0586 92.8242H66.3398L66.2578 92.707L66.293 92.6602H66.3398ZM72.9609 92.8242H73.0078L73.0898 92.9062L72.9258 92.9531L72.9609 92.8242ZM73.6523 93.5625L73.6992 93.5977V93.6445L73.4883 93.7617H73.4531V93.6797L73.6523 93.5625ZM63.2812 93.8906L63.4922 93.9258V94.0078H63.3633L63.2812 93.9258V93.8906ZM68.3203 94.0078H68.5312V94.0898H68.4023L68.3203 94.0078ZM71.9883 94.4531C71.9883 94.5391 72.0156 94.582 72.0703 94.582V94.6172L71.9414 94.7461L71.8594 94.5L71.9062 94.4531H71.9883ZM64.3828 94.582H64.4648V94.6992H64.3828V94.582ZM65.5195 94.6641V94.7461L65.5664 94.8633H65.5195L65.4023 94.7812V94.8633L65.4375 94.9805C65.5469 94.957 65.6016 94.8906 65.6016 94.7812L65.5664 94.6641H65.5195ZM65.2852 94.7812V94.9453L65.3203 94.8984H65.3672L65.3203 94.7812H65.2852ZM64.1016 94.8633L64.1367 94.8984V94.9453L64.1016 94.9805H64.0547L64.0195 94.9453V94.8984L64.0547 94.8633H64.1016ZM69.3398 95.1094L69.3867 95.1445V95.1914C69.3555 95.2695 69.2734 95.3086 69.1406 95.3086H69.0586L68.9766 95.2266L69.3398 95.1094ZM64.5938 95.3906V95.4375C64.3047 95.625 64.1406 95.7852 64.1016 95.918L63.9844 95.9648L63.9375 95.918V95.8828C64.1797 95.5938 64.3984 95.4297 64.5938 95.3906ZM70.6406 95.4375L70.4766 95.5898H70.4414V95.5547C70.4414 95.4922 70.5078 95.4531 70.6406 95.4375ZM63.5273 95.5547H63.5742V95.5898L63.4922 95.6719H63.4453V95.6367L63.5273 95.5547ZM65.9297 95.7539H66.0117L66.1289 95.8828H66.0938L65.9297 95.7539ZM71.4961 95.8008V95.8359C71.2305 96.1719 71.0977 96.3906 71.0977 96.4922H71.0156L70.9688 96.3633C70.9844 96.2617 71.1602 96.0742 71.4961 95.8008ZM63.8555 96.1289L64.0547 96.1641V96.2461L63.9375 96.3633H63.8555L63.7734 96.293V96.2109L63.8555 96.1289ZM64.7109 96.5273L64.793 96.6094L64.7461 96.6562H64.7109V96.5273ZM65.8945 96.6094L65.9297 96.6562V96.6914L65.8477 96.7734L65.8125 96.7383V96.6914L65.8945 96.6094ZM77.3555 98.7656V98.8125L77.2734 98.8945L77.1914 98.8125L77.2383 98.7656H77.3555ZM76.9102 99.0586H77.0742L77.1562 99.1406V99.1758L77.0742 99.2578H77.0273L76.8281 99.2227V99.1406L76.9102 99.0586ZM66.7852 100.84L66.8555 100.922V100.969H66.7852V100.84ZM66.4922 101.531L66.6211 101.66L66.5742 101.695H66.5391V101.66L66.4922 101.695H66.457L66.3398 101.578L66.375 101.531H66.4922ZM73.8984 101.777H74.0156V101.859H73.9805L73.8984 101.777ZM75 101.859H75.0352V101.906C74.7695 102.078 74.6367 102.199 74.6367 102.27L75.2461 102.633L75.2812 102.598H75.4453L75.5625 102.715L75.3984 102.797C75.0078 102.578 74.7656 102.469 74.6719 102.469C74.6016 102.469 74.5195 102.523 74.4258 102.633H74.3438L74.3086 102.598L74.1445 102.68L73.9805 102.598L74.0156 102.387V102.352H73.9805L73.4883 102.387V102.305L74.1445 102.223C74.1445 102.176 74.1016 102.152 74.0156 102.152L73.9805 102.105V102.07L74.0156 102.023H74.0625L74.2617 102.07C74.2617 101.977 74.3438 101.922 74.5078 101.906L74.5898 101.988C74.793 101.965 74.9297 101.922 75 101.859ZM75.6914 102.762L75.8906 102.797V102.926L75.6914 102.879V102.762ZM66.0938 103.324L66.1758 103.406C66.1289 103.516 66.0352 103.57 65.8945 103.57L65.8477 103.535V103.488L66.0938 103.324ZM72.9258 103.898H73.043L72.9609 103.98H72.9258V103.898ZM78.4922 104.016L78.5391 104.062V104.098L77.4844 105.234V105.281C77.6406 105.281 77.7188 105.348 77.7188 105.48L77.6836 105.609L77.7188 105.562H77.7656V105.609L77.7188 105.645V105.691L77.7656 105.727L77.6367 105.773L77.6836 105.973L77.6367 105.926L77.6016 105.973H77.5547L77.5195 105.926H77.4844V105.973L77.5195 106.09H77.4844L77.3203 105.973H77.2383V106.055L77.1914 106.008C77.0039 106.008 76.9102 106.105 76.9102 106.301H76.8281C76.8281 106.191 76.7891 106.137 76.7109 106.137C76.7109 106.066 76.6406 106.023 76.5 106.008L76.4648 106.055V106.008L76.5 105.973V105.926L76.4648 105.773V105.727H76.582L76.5469 105.691V105.645H76.582L76.5469 105.609V105.527C76.6016 105.527 76.6289 105.484 76.6289 105.398H76.7461L76.7109 105.363V105.281L76.8281 105.363V105.316L76.7812 105.281V105.234H76.8281L76.8633 105.281H76.9102C76.9102 105.172 76.9492 105.117 77.0273 105.117V105.082L77.0742 105.117H77.1562C77.1562 105.039 77.1836 105 77.2383 105H77.2734V105.035L77.2383 105.082L77.2734 105.199H77.3203L78.4922 104.016ZM68.1211 106.301L68.2031 106.418L68.168 106.465H68.0391L67.957 106.383V106.336L68.1211 106.301ZM72.5156 106.617C72.6328 106.617 72.7148 106.688 72.7617 106.828L72.6328 106.91L72.4336 106.781L72.1055 106.828C72.1055 106.758 72.2422 106.688 72.5156 106.617ZM67.0664 106.699L67.1836 106.992C67.0039 107.062 66.8711 107.145 66.7852 107.238C66.6758 107.191 66.6211 107.094 66.6211 106.945C66.7305 106.945 66.7852 106.906 66.7852 106.828C66.7852 106.766 66.8789 106.723 67.0664 106.699ZM72.1055 106.828L71.8242 107.027H71.7422C71.7422 106.949 71.8633 106.883 72.1055 106.828ZM69.1758 107.027L69.1406 107.156L69.1758 107.32L69.3047 107.273L69.2227 107.027H69.1758ZM67.0195 107.109H67.0664L67.1836 107.273L67.1484 107.32H67.0664L66.9375 107.191L67.0195 107.109ZM71.625 107.109L71.3789 107.32H71.332C71.418 107.18 71.5156 107.109 71.625 107.109ZM66.7852 107.273H66.8203C66.8828 107.273 66.9219 107.34 66.9375 107.473L66.8203 107.555H66.7383C66.6836 107.555 66.6562 107.516 66.6562 107.438L66.7852 107.273ZM69.2578 107.438L69.3398 107.52L69.4219 107.438L69.3398 107.355L69.2578 107.438ZM67.0195 107.473H67.1016V107.602H67.0195V107.473ZM70.3242 108.082V108.117L70.3945 108.363H70.4414L70.5234 108.164L70.3242 108.082ZM70.2422 108.328C70.2422 108.492 70.1328 108.574 69.9141 108.574L70.0312 108.691C70.1562 108.645 70.2656 108.551 70.3594 108.41L70.2422 108.328ZM67.957 108.691H68.0859V108.773H67.957V108.691ZM69.3047 108.809L69.2578 109.02L69.3398 109.102L69.3867 108.891L69.3047 108.809ZM71.7422 109.137H71.7891L71.8594 109.219H71.7422V109.137ZM67.7109 109.184H67.7578V109.266L67.6758 109.348L67.5938 109.266L67.7109 109.184ZM70.4766 109.266L70.4414 109.465V109.512C70.4961 109.496 70.5508 109.426 70.6055 109.301L70.5586 109.266H70.4766ZM69.5859 109.383L69.7031 109.512V109.582L69.5859 109.465V109.383ZM73.0078 109.383H73.043L73.125 109.465V109.512H73.0898L73.0078 109.43V109.383ZM69.7852 109.992L69.832 110.039V110.074L69.7852 110.121H69.7031V110.074L69.7852 109.992ZM71.543 109.992L71.625 110.074L71.5781 110.121H71.4961L71.4141 110.039L71.4609 109.992H71.543ZM70.5586 110.203L70.6055 110.238V110.285H70.4766L70.5586 110.203ZM80.8359 91.2773H80.8711L80.9414 91.3477L80.9062 91.3828H80.8711L80.8359 91.3477V91.2773ZM82.2305 91.2773V91.3125L81.9727 91.7578C82.0742 91.7578 82.125 91.793 82.125 91.8633L82.3477 91.7578V91.793L82.2773 91.8984V91.9805L82.418 92.0156L82.6055 91.8281V91.8633L82.5 92.0156H82.5703V92.0508L82.5352 92.1562C82.5898 92.1562 82.7227 92.0586 82.9336 91.8633V91.8984L82.7109 92.2734L82.8984 92.3086C82.8984 92.2539 82.9609 92.2188 83.0859 92.2031L82.9688 92.3438V92.4141H83.0508V92.4609L82.9688 92.5664C83.0703 92.5664 83.1211 92.5898 83.1211 92.6367L83.0859 92.6836L83.2266 92.7539C83.5 92.7539 83.6758 92.5078 83.7539 92.0156C83.9961 91.8828 84.1172 91.7969 84.1172 91.7578H84.1875L84.1523 91.793V91.8633L84.4453 91.9453L85.2188 91.3477H85.2656L85.3359 91.4297V91.5L85.1484 91.5352V91.5L84.5977 91.9453L84.7383 92.2383C84.7383 92.3711 84.6172 92.5195 84.375 92.6836H84.3047V92.7539C84.7266 93.1445 85.0938 93.3398 85.4062 93.3398C85.4062 93.4023 85.5898 93.5391 85.957 93.75C85.957 93.9297 86.2422 94.0391 86.8125 94.0781C87.0078 94.1953 87.1914 94.3789 87.3633 94.6289C87.5508 94.6289 87.7461 94.9375 87.9492 95.5547C87.9492 95.6797 88.0859 95.9023 88.3594 96.2227L88.4297 96.7734H88.4648C88.5195 96.7734 88.5586 96.6602 88.582 96.4336L88.8047 96.2227L88.8398 96.2578H89.0273L89.2031 96.2227V96.293C89.1328 96.293 89.0977 96.3398 89.0977 96.4336L89.168 96.5156V96.5508C89.168 96.5977 89.1055 96.6211 88.9805 96.6211C88.9414 96.6992 88.8555 96.7383 88.7227 96.7383L88.6875 96.9141C88.6875 96.9922 88.7266 97.0312 88.8047 97.0312L88.8398 97.0664V97.1016L88.6523 97.2188V97.2539C88.7148 97.4414 88.9961 97.6602 89.4961 97.9102V97.9922H89.4609C89.2891 97.9922 89.0195 97.8203 88.6523 97.4766C88.457 97.4766 88.3594 97.6094 88.3594 97.875L88.3945 98.0273H88.2891V98.1328H88.3945V98.168C88.3945 98.2227 88.3594 98.25 88.2891 98.25V98.2852L88.3242 98.4258C88.2227 98.5742 88.1719 98.6875 88.1719 98.7656L88.2891 98.8711V98.9414H88.2422L88.1016 98.8711L88.0664 99.0586L88.1016 99.1641L88.0664 99.1289H88.0312L87.9844 99.1641V99.1992L88.0312 99.3516H87.9844L87.9492 99.3164H87.9141L87.6211 99.9023L87.0352 100.5C87.0352 100.578 86.875 100.809 86.5547 101.191V101.273H86.5195L86.5547 101.309V101.496C86.4141 101.738 86.2891 101.859 86.1797 101.859V101.895C86.7969 101.895 87.2031 102.008 87.3984 102.234C88.0625 102.773 88.4922 103.25 88.6875 103.664C88.8828 103.828 89.043 104.113 89.168 104.52L89.6836 105.211L89.6484 105.328C89.7578 105.602 89.8438 105.762 89.9062 105.809L90.3867 106.172L90.832 106.395L91.0195 106.43L91.1953 106.289H91.2305C91.3242 106.289 91.3867 106.422 91.418 106.688C91.3711 106.703 91.3242 106.766 91.2773 106.875L91.0195 106.805L90.832 106.84L90.6445 106.77C90.9648 107.09 91.4805 107.699 92.1914 108.598L92.5664 108.715L92.6016 108.68V108.75C92.5234 108.75 92.4844 108.773 92.4844 108.82C92.5859 108.992 92.918 109.277 93.4805 109.676C93.4805 109.746 93.5312 109.781 93.6328 109.781V109.852H93.5977C93.1758 109.516 92.8555 109.309 92.6367 109.23C92.6367 109.191 92.5156 109.082 92.2734 108.902C91.9844 108.621 91.7109 108.41 91.4531 108.27C90.9453 107.941 90.6016 107.648 90.4219 107.391C90.0312 107.156 89.8359 106.984 89.8359 106.875C89.7344 106.875 89.4883 106.738 89.0977 106.465C88.957 106.465 88.7461 106.281 88.4648 105.914C88.4648 105.812 88.1328 105.492 87.4688 104.953C87.2344 104.727 86.9297 104.543 86.5547 104.402L85.7812 103.781C85.7109 103.656 85.5 103.531 85.1484 103.406L85.043 103.266V103.219H85.0781L85.2656 103.266L85.3008 103.219C85.2227 103.023 85.0234 102.926 84.7031 102.926L84.5977 102.855L84.4453 102.891C84.0547 102.648 83.8594 102.453 83.8594 102.305C83.8594 102.234 83.7344 102.012 83.4844 101.637V101.566L83.5664 101.496H83.6719L83.7539 101.566V101.602L83.707 101.637L84.0117 102.27L83.9648 102.375L84.0117 102.41H84.0469C84.5859 102.066 84.8555 101.746 84.8555 101.449C84.8555 101.309 84.9531 101.238 85.1484 101.238L85.4766 100.418C85.5781 100.418 85.7148 100.113 85.8867 99.5039C86.1289 99.2461 86.2656 99.0469 86.2969 98.9062H86.2617L86.332 98.7656L86.2969 98.7305L86.3672 98.6484L86.1445 98.6133V98.6484L85.5586 98.4727L85.3711 98.6484H85.3359V98.5781L85.4414 98.4258H85.3359V98.3555L85.4766 98.3906L85.5938 98.3555C85.7266 98.4336 85.9102 98.4727 86.1445 98.4727V98.3555H86.1797L86.0391 98.1328L85.8516 98.2148V98.168L85.5938 98.25V98.2148L85.6289 98.168V98.1328L85.5586 98.0625L85.6992 97.9922V97.957L85.3008 97.9102V97.8398H85.5586L85.7344 97.8047V97.7695C85.6875 97.7695 85.6016 97.6211 85.4766 97.3242V97.1719C85.5469 97.1719 85.6211 97.2969 85.6992 97.5469L86.0039 97.4766V97.4297L85.957 97.3945V97.3594L86.0391 97.2891L85.9219 97.1719L86.0742 97.0664L85.8516 96.6211L85.8867 96.5859H85.9219C86.1094 96.9297 86.293 97.1016 86.4727 97.1016L86.5195 96.9961C86.3555 96.918 86.1094 96.4883 85.7812 95.707C85.3984 95.1602 85.0273 94.8516 84.668 94.7812C84.4648 94.5781 84.1836 94.3828 83.8242 94.1953L83.7891 94.2305C83.7578 94.0586 83.6953 93.9727 83.6016 93.9727L83.6367 93.9375V93.8906L83.4844 93.8203H83.4141C83.4141 93.9375 83.3281 94.0859 83.1562 94.2656V94.3359C83.4453 94.4297 83.6562 94.5664 83.7891 94.7461H83.707C83.5664 94.6289 83.4219 94.5664 83.2734 94.5586L83.0859 94.3711H83.0508V94.4883L83.0859 94.5234V94.5586H83.0508L82.8984 94.4883L82.7578 94.5234C82.7578 94.6875 82.8555 94.8086 83.0508 94.8867L83.1562 95.1094L83.1211 95.332C83.1211 95.6758 83.1719 95.8477 83.2734 95.8477L83.3438 95.918C83.1953 96.707 83.0469 97.1016 82.8984 97.1016L82.9336 97.1367V97.4766C82.7852 97.8125 82.7109 98.2305 82.7109 98.7305L82.6406 99.0938C82.6875 99.1875 82.7109 99.3242 82.7109 99.5039V99.5742L82.5703 99.8672L82.8633 100.898C83.0273 100.898 83.125 100.949 83.1562 101.051V101.086L82.8633 101.93L82.8281 101.977V102.82C82.8281 103.367 82.9023 103.871 83.0508 104.332V104.402L83.0859 105.293L83.0508 105.398L83.2734 105.809C83.2734 106.238 83.2344 106.496 83.1562 106.582C83.2031 106.621 83.2656 107.137 83.3438 108.129C83.3906 108.129 83.4375 108.238 83.4844 108.457C83.5391 108.465 83.5898 108.527 83.6367 108.645C83.5664 108.887 83.5039 109.008 83.4492 109.008L83.3438 108.938H83.3086L83.3438 109.16L83.3086 109.195V109.23L83.3438 109.336L83.3086 109.371H83.2734L83.3086 109.418L83.2266 109.852L83.3086 110.004L83.2734 110.262V110.414L83.3438 111.188L83.3086 111.223V111.258L83.3438 111.293L83.3086 111.48L83.3438 111.621H83.3086L83.2266 111.551V111.41L83.0508 110.262L83.0859 110.156C82.9375 110.094 82.8633 109.945 82.8633 109.711C82.8164 109.711 82.793 109.746 82.793 109.816L82.7578 109.852H82.7109L82.6758 109.816L82.5703 109.934C82.5234 109.738 82.4258 109.641 82.2773 109.641C82.1289 109.523 82.0547 109.336 82.0547 109.078L82.1602 108.902V108.855H82.0898V108.785H82.1602V108.75L81.9023 108.387H81.8672L81.7617 108.457L81.5391 108.199L81.457 108.457L81.5039 108.492V108.527C81.4336 109.059 81.3594 109.355 81.2812 109.418L81.3164 109.453V109.559L81.2812 109.781L81.3164 109.898L81.1641 110.191L81.1992 110.227H81.2344L81.1992 110.672V110.848H81.1289V110.812C81.1289 110.133 81.0664 109.617 80.9414 109.266V108.785L80.9766 108.562C80.9297 108.438 80.9062 108.219 80.9062 107.906V107.684L80.9414 107.648C80.793 107.273 80.6836 106.793 80.6133 106.207V106.137C80.6836 105.629 80.7461 105.359 80.8008 105.328L80.7656 105.176L80.8008 105.141H80.8359L80.8008 105.105V105.035L80.9062 104.848L80.8008 104.625V104.52C80.8008 104.238 80.8359 103.93 80.9062 103.594C80.8828 103.484 80.8203 103.41 80.7188 103.371L80.8008 103.148L80.7188 103.078L80.8008 102.785C80.7227 102.785 80.6836 102.758 80.6836 102.703V102.668L80.7188 102.527L80.6133 102.234C80.4648 102.234 80.3906 102.148 80.3906 101.977L80.4258 101.414L80.3555 100.898L80.3906 100.535C80.3281 100.395 80.2305 99.9883 80.0977 99.3164C80.0664 99.3164 80.0273 99.2305 79.9805 99.0586L80.0273 98.8359C79.9414 98.3125 79.8555 98.0039 79.7695 97.9102V97.1016C79.8633 97.0391 79.9219 96.5586 79.9453 95.6602L79.9102 95.625H79.875L79.8047 95.707L79.8398 95.8125C79.793 95.8125 79.7539 95.875 79.7227 96L79.5117 96.0703H79.4648V95.9648H79.3945L79.1367 96.1055L79.1016 96.0703V96.0352C79.2266 95.8867 79.2891 95.7773 79.2891 95.707L79.1367 95.5547L79.2539 95.4492L79.3945 95.4844C79.4961 95.4453 79.5469 95.4062 79.5469 95.3672V95.2266L79.4648 95.1094C79.4648 95.0625 79.5156 95.0391 79.6172 95.0391V95.0039L79.5469 94.8867V94.8516C79.6641 94.8516 79.7227 94.8164 79.7227 94.7461L79.582 94.6641L79.6172 94.5586L79.3945 94.3008V94.2305H79.4648L79.6523 94.3711L79.6172 94.4062C79.6797 94.6328 79.7773 94.7461 79.9102 94.7461V94.7109L79.8047 94.4531V94.3359L79.8398 93.7148C79.6602 93.543 79.5234 93.457 79.4297 93.457L79.3945 93.4922L79.4297 93.5273V93.5977C79.3359 93.5977 79.2891 93.6602 79.2891 93.7852C79.1406 93.7852 79.0664 93.8203 79.0664 93.8906C79.1211 93.8906 79.1562 93.9531 79.1719 94.0781L79.0664 94.1133L79.1016 94.3008H79.0664C79.0195 94.3008 78.9961 94.2656 78.9961 94.1953L78.9609 94.2305H78.7734C78.6484 94.2305 78.5859 94.168 78.5859 94.043C78.4688 94.043 78.4102 94.0195 78.4102 93.9727L78.668 93.8555V93.7852C78.5898 93.7852 78.4883 93.6016 78.3633 93.2344C78.6133 93.5 78.7383 93.6836 78.7383 93.7852L78.7734 93.75H78.8086L78.9961 93.7852V93.7148C78.8477 93.7148 78.7734 93.6016 78.7734 93.375L78.9258 93.3398C78.8867 93.1211 78.8125 93.0117 78.7031 93.0117L78.7734 92.9414L78.7383 92.8945V92.6016L78.8906 92.4141V92.3438L78.8086 92.0508V91.9805C78.8633 91.9805 78.9141 92.0781 78.9609 92.2734L79.0664 92.3438C79.1367 92.3438 79.1719 92.2812 79.1719 92.1562H79.2891C79.2891 92.2422 79.3359 92.3281 79.4297 92.4141V92.4609L79.582 92.3438V92.4141L79.5117 92.6016L79.6875 92.7891H79.7227L79.6172 93.0469V93.082L79.7695 93.2344H79.8398C79.9648 93.2344 80.0391 93.1953 80.0625 93.1172L80.0273 93.0117H80.0625L80.1328 92.7891L79.7227 92.4961V92.4141H79.7695L80.25 92.7539C80.3672 92.7227 80.4258 92.6836 80.4258 92.6367L80.3906 92.6016C80.4609 92.5938 80.5117 92.5312 80.543 92.4141L80.3555 92.2383H80.3906L80.6484 92.3789V92.3086L80.5781 92.0859H80.6133C80.6602 92.0859 80.6836 92.125 80.6836 92.2031H80.7656V92.1562L80.7188 92.1211V92.0859C80.8203 92.0859 80.8711 92.0625 80.8711 92.0156C80.8477 91.9219 80.7617 91.7969 80.6133 91.6406V91.6055H80.6836L81.0586 91.9453V91.8633H81.1289V92.0508H81.1641L81.3164 91.8984V91.8633C81.2539 91.8633 81.168 91.7891 81.0586 91.6406V91.6055H81.0938C81.2656 91.6992 81.3516 91.7852 81.3516 91.8633L81.4219 91.793L81.457 91.8281H81.5391L81.5039 91.793V91.6875L81.5742 91.6055L81.7148 91.6406L81.7617 91.4648H81.832V91.6406L81.9023 91.7227C82.0664 91.4492 82.1758 91.3008 82.2305 91.2773ZM78.6328 91.6875L78.7031 91.793V91.8281C78.6016 91.7891 78.5508 91.7539 78.5508 91.7227L78.5859 91.6875H78.6328ZM78.7383 91.8633L78.8086 91.9453V91.9805L78.7383 91.8984V91.8633ZM85.1836 91.8633L85.2188 91.8984V91.9453L85.1836 91.9805H85.1133V91.9453L85.1836 91.8633ZM80.25 92.5312H80.2852L80.3555 92.6016H80.25V92.5312ZM78.9609 94.6641H78.9961V94.7812H78.8906V94.7461L78.9609 94.6641ZM84.3047 95.332H84.3398L84.4102 95.4023L84.1875 95.5195L84.1523 95.4844V95.4492L84.3047 95.332ZM89.3203 96.5859H89.4258V96.6562H89.3203V96.5859ZM84.9258 96.8086L85.0078 96.8789H84.8555L84.9258 96.8086ZM85.7812 97.582V97.6172L85.8516 97.6875H86.0039L86.0742 97.6172V97.5469L85.7812 97.582ZM84.375 97.7344H84.5273V97.8398H84.4805L84.375 97.8047V97.7344ZM86.5195 97.9102L86.625 97.957V97.8398H86.5898L86.5195 97.9102ZM86.4023 97.957L86.4727 98.0625C86.4727 98.1328 86.4023 98.168 86.2617 98.168V98.3203L86.2148 98.5078L86.4023 98.3555L86.3672 98.25H86.4023C86.4805 98.25 86.5195 98.1641 86.5195 97.9922L86.4727 97.957H86.4023ZM88.875 98.3906H88.9102C89.082 98.4766 89.2188 98.5898 89.3203 98.7305H89.2852C89.1289 98.7305 88.9922 98.6172 88.875 98.3906ZM90.0938 98.6836H90.2344V98.7656H90.0938V98.6836ZM88.3242 99.3516H88.3945V99.4688H88.3242V99.3516ZM88.1367 99.5039C88.2539 99.5039 88.3789 99.6641 88.5117 99.9844C88.332 99.9141 88.1953 99.7773 88.1016 99.5742L88.1367 99.5391V99.5039ZM85.1836 105.176V105.211L85.0781 105.363L85.2656 105.434C85.1953 105.676 85.0703 105.836 84.8906 105.914H84.7031L84.5625 105.809L84.375 105.844L84.4805 105.691L84.4453 105.469L84.7031 105.293L85.043 105.328L85.1836 105.176ZM86.0039 105.176H86.1094L86.1797 105.258L86.1094 105.328H85.957L85.8867 105.258L86.0039 105.176ZM85.6992 105.258H85.8164V105.328H85.6289L85.6992 105.258ZM85.4062 105.328H85.6289L85.5586 105.398H85.3359L85.4062 105.328ZM84.7852 106.207L84.8203 106.254V106.289L84.7852 106.324H84.7383L84.7031 106.289V106.254L84.7383 106.207H84.7852ZM82.0547 110.707L82.0898 110.742V110.777C82.0898 110.902 82.0508 110.977 81.9727 111L81.9375 110.965V110.93C81.9609 110.781 82 110.707 82.0547 110.707ZM97.1719 91.6289H97.582C98.1445 91.6289 98.5039 91.8477 98.6602 92.2852C98.8164 92.4805 99.0078 92.9336 99.2344 93.6445C99.2891 93.6445 99.3555 93.8516 99.4336 94.2656C99.543 94.3594 99.5977 94.4688 99.5977 94.5938H99.6445L100.09 94.2188H100.137L99.7266 94.7578C99.8516 94.7578 99.9453 94.9648 100.008 95.3789H100.383V95.4609H100.172L100.055 95.5781C100.055 95.8516 100.164 96.5117 100.383 97.5586C100.383 97.7148 100.465 97.9336 100.629 98.2148L100.547 99.2461C100.547 99.4102 100.727 99.4922 101.086 99.4922C101.086 99.4453 101.344 99.3633 101.859 99.2461H102.035L102.152 99.3281H102.281L102.727 99.3633L102.973 99.2812L102.938 99.082L103.055 99.1641L103.137 99.082H103.219V99.1641L103.184 99.1992V99.2461H103.266L103.512 99L103.594 99.082H103.723C103.723 98.9961 103.75 98.9531 103.805 98.9531H103.84C103.668 99.3672 103.379 99.5742 102.973 99.5742C102.973 99.668 102.879 99.7344 102.691 99.7734V99.8203C102.691 99.8828 102.883 99.9258 103.266 99.9492C103.469 99.8555 103.648 99.7305 103.805 99.5742L103.758 99.5273V99.4922L103.969 99.2812H104.004V99.3633L103.969 99.4102V99.4453H104.215C104.215 99.3828 104.324 99.2891 104.543 99.1641L104.871 98.8359L104.906 99.082L105.117 99.0352H105.199V99.082L105.152 99.2461L105.199 99.3633H105.152L104.953 99.2812L104.871 99.3633L104.824 99.3281C104.59 99.3984 104.398 99.5195 104.25 99.6914L104.004 99.7734V99.8672C104.309 99.9844 104.473 100.078 104.496 100.148H104.461L103.922 99.9492L103.887 99.9844H103.84L103.758 99.9023C103.586 100.066 103.461 100.148 103.383 100.148L102.938 100.066C102.891 100.285 102.809 100.395 102.691 100.395L102.48 100.77H102.445L102.48 100.559H102.445L102.07 100.723L101.859 100.688L101.824 100.723H101.777L101.742 100.688H101.695L101.367 100.77L101.496 100.969H101.414L101.25 100.887C101.25 100.949 101.152 101.004 100.957 101.051C101.059 101.715 101.211 102.047 101.414 102.047L101.332 102.129C101.355 102.363 101.395 102.512 101.449 102.574V102.867L101.332 103.031V103.113H101.449L101.496 103.066H101.531L101.578 103.113V103.16L101.332 103.195V103.406L101.285 103.605C101.371 103.605 101.441 103.66 101.496 103.77L101.449 104.262L101.578 104.391V104.426C101.492 104.527 101.449 104.625 101.449 104.719V104.754L101.578 105.34H101.531C101.766 105.645 101.945 105.984 102.07 106.359H102.117L102.07 106.617C102.07 106.789 102.141 107.035 102.281 107.355L102.234 107.473C102.273 107.473 102.328 107.609 102.398 107.883C102.461 107.938 102.531 108.117 102.609 108.422C102.695 108.422 102.789 108.68 102.891 109.195H102.809C102.699 108.898 102.441 108.379 102.035 107.637V107.555L102.07 107.52C101.875 107.145 101.75 106.828 101.695 106.57L101.367 106.031V105.832L101.449 105.375C101.176 105.141 101.039 104.895 101.039 104.637L101.086 104.59V104.555L101.039 104.426L101.121 104.344V104.309L101.039 104.145L101.086 103.98C100.883 103.66 100.746 103.387 100.676 103.16L100.711 103.113L100.629 103.031L100.172 103.324H100.137C100.496 102.988 100.676 102.766 100.676 102.656C100.621 102.234 100.539 101.988 100.43 101.918L100.465 101.719C100.402 101.703 100.332 101.578 100.254 101.344C99.9883 101.398 99.7148 101.496 99.4336 101.637C99.082 101.66 98.6836 101.77 98.2383 101.965V102.047C98.2383 102.133 98.2812 102.227 98.3672 102.328L98.2031 102.375C98.1172 102.156 97.9922 102.047 97.8281 102.047C97.6328 102.328 97.3594 102.52 97.0078 102.621L96.9258 102.703H96.7617L96.5508 102.656C96.5508 102.797 96.4297 102.895 96.1875 102.949C96.1875 103.09 96.1602 103.16 96.1055 103.16L95.9414 103.195V103.16L95.8125 103.195L95.4492 102.984L95.6953 102.703L95.5312 102.246L96.1055 101.672C96.1055 101.758 96.1445 101.801 96.2227 101.801C96.8008 101.48 97.0898 101.301 97.0898 101.262L97.8281 100.805C97.9297 100.805 98.0664 100.684 98.2383 100.441C98.3398 100.441 98.5469 100.344 98.8594 100.148C99.0234 100.148 99.3125 100.012 99.7266 99.7383L100.055 99.6562C99.875 98.4766 99.7227 97.8867 99.5977 97.8867L99.5625 97.8398V97.8047L99.5977 97.7578C99.5352 97.2188 99.4141 96.7656 99.2344 96.3984C98.9609 96.0938 98.8086 95.8633 98.7773 95.707L98.4023 95.625C98.293 95.625 98.2383 95.7617 98.2383 96.0352C98.1758 96.0352 98.0938 96.2422 97.9922 96.6562L97.957 96.6914C97.957 96.7461 97.875 96.8008 97.7109 96.8555V97.0195H97.793V97.1016C97.6523 97.1016 97.582 97.1992 97.582 97.3945C97.5117 97.3945 97.4023 97.5312 97.2539 97.8047V98.4609C97.0977 98.6719 96.9727 98.9883 96.8789 99.4102C96.8008 99.4102 96.7617 99.5039 96.7617 99.6914C96.6523 99.6914 96.5977 99.7891 96.5977 99.9844C96.4883 99.9844 96.3516 100.121 96.1875 100.395H96.0586V100.605L95.6133 101.555C95.6133 101.742 95.5 101.918 95.2734 102.082L95.3555 102.211C95.0586 102.547 94.9102 102.902 94.9102 103.277L94.8633 103.324C95.0117 103.566 95.1211 103.688 95.1914 103.688L95.3203 103.652L95.4023 103.734H95.5664L95.5312 103.688V103.652L95.5664 103.605H95.6484V103.688H95.8945V103.57H95.9766L96.0234 103.77L96.3047 103.688V103.77C96.0859 103.824 95.9766 103.879 95.9766 103.934L96.0234 103.98C95.8828 103.996 95.8125 104.035 95.8125 104.098C95.8906 104.098 96.1641 104.234 96.6328 104.508H96.6797V104.637H96.6328C96.5625 104.559 96.2617 104.406 95.7305 104.18V104.145H95.6133L95.6953 104.262V104.344H95.6484C95.5781 104.344 95.5391 104.277 95.5312 104.145L95.4023 104.262L95.1914 104.145L95.1562 104.18L95.1094 104.145L95.0742 104.18V104.391L95.2734 104.719H95.2383L94.8633 104.391L94.7812 104.473C94.7812 104.887 94.8906 105.094 95.1094 105.094C95.2344 104.953 95.3477 104.883 95.4492 104.883V104.965C95.332 104.965 95.2461 105.02 95.1914 105.129C95.1914 105.184 95.2617 105.211 95.4023 105.211V105.293L95.1562 105.34L95.1914 105.375V105.457C95.082 105.457 95.0273 105.484 95.0273 105.539L95.1094 105.621H94.9922L94.8633 105.539H94.6172L94.6641 105.586V105.621L94.5 105.867V105.914H94.582V105.949L94.9102 105.867L94.9453 105.914V105.996C94.9453 106.051 94.8906 106.078 94.7812 106.078L94.8281 106.113V106.195H94.7812L94.0898 105.621H94.043V105.668H94.125V105.867C94.125 105.922 94.168 105.949 94.2539 105.949V106.031L94.0078 106.078C94.0078 106.133 94.0625 106.16 94.1719 106.16V106.242H94.0898V106.277L94.3359 106.324V106.406H94.125L94.0898 106.359H94.043L94.0078 106.488L94.3359 106.652L94.4531 106.617V106.699H94.3359V106.734H94.418L94.8633 106.57H94.9102V106.617H94.8281V106.652H94.8633L95.1914 106.57H95.2383C95.2383 106.625 94.9922 106.723 94.5 106.863C94.4688 107.02 94.3867 107.156 94.2539 107.273C94.2539 107.352 94.3086 107.391 94.418 107.391L94.4531 107.438V107.52H94.418C94.3008 107.41 94.1914 107.355 94.0898 107.355H94.043L94.0898 107.391V107.438L94.043 107.473H94.0078L93.9609 107.355L93.9258 107.391L93.7148 107.355C93.6367 107.355 93.5547 107.41 93.4688 107.52H93.4219V107.555H93.4688L93.5859 107.52V107.555C93.4922 107.719 93.4102 107.801 93.3398 107.801V107.883C93.3945 107.992 93.4766 108.047 93.5859 108.047V108.129L93.2227 108.047L93.1406 108.258H93.0586V108.129H93.0117L92.8945 108.211H92.8477C92.8477 108.109 92.793 108.039 92.6836 108H92.6484L92.6016 108.047H92.5664L92.7656 108.34H92.6836V108.422H92.7656V108.457L92.7305 108.504L92.8945 108.832H93.0117V108.914C92.918 108.914 92.8359 108.996 92.7656 109.16L92.9297 109.406H92.8945C92.7852 109.352 92.7305 109.281 92.7305 109.195H92.6016V109.242L92.6836 109.359H92.6484L92.6016 109.324H92.5664C92.5664 109.402 92.5391 109.441 92.4844 109.441C92.4297 109.441 92.4023 109.402 92.4023 109.324H92.3203V109.488L92.2734 109.699H92.1914V109.324H92.1562C92.1562 109.434 92.1133 109.488 92.0273 109.488H91.9805V109.441L92.0273 109.324L91.9102 109.242L91.8633 109.277L91.7812 109.195C91.7812 109.25 91.6602 109.32 91.418 109.406V109.359L91.5 109.277L91.4531 109.242V109.078L91.5352 108.996L91.5 108.949V108.914L91.5352 108.75C91.4805 108.75 91.4531 108.707 91.4531 108.621L91.2539 108.586C91.2539 108.539 91.3477 108.484 91.5352 108.422C91.5508 108.258 91.6211 108.176 91.7461 108.176L91.6641 108.094H91.6172L91.582 108.129H91.5352L91.5 108.094V108.047H91.582V107.883H91.5352L91.3359 107.965L91.4531 107.801V107.766L91.3359 107.637H91.2539C91.1758 107.723 91.0234 107.766 90.7969 107.766L90.7617 107.801V107.848C90.8164 107.848 90.8555 107.93 90.8789 108.094H90.8438C90.7344 108.094 90.6797 108.16 90.6797 108.293H90.5977L90.7148 108.047L90.4688 108C90.2969 108.07 90.1875 108.184 90.1406 108.34L89.9297 108.293H89.7305V108.375H89.6836L89.6016 108.293L89.6836 108.211H89.8945L89.9297 108.258L90.1406 108.129L90.0938 108.094V108.047L90.1406 107.883C90 107.75 89.875 107.684 89.7656 107.684C89.7656 107.738 89.7266 107.766 89.6484 107.766L89.5195 107.719C89.5117 107.789 89.4297 107.883 89.2734 108L89.2383 107.965V107.93C89.4961 107.656 89.6602 107.52 89.7305 107.52V107.438L89.6484 107.191C89.5781 107.191 89.4258 107.082 89.1914 106.863H89.2383C89.3555 106.863 89.5469 106.957 89.8125 107.145L90.0938 107.027L90.0586 106.98V106.898H90.0938L90.1406 106.945H90.1758L90.3398 106.57L90.1406 106.324L90.2578 106.242H90.4219L90.6797 106.406H90.7617L90.8438 106.324L90.4688 105.914L90.5156 105.867H90.5508C90.6133 105.977 90.75 106.102 90.9609 106.242V106.277L91.0898 106.16L90.9609 105.914V105.867L91.1719 106.031L91.207 105.996C91.1523 105.824 91.0859 105.727 91.0078 105.703H90.9609V105.867C90.9062 105.867 90.8516 105.758 90.7969 105.539C90.6094 105.539 90.5156 105.473 90.5156 105.34H90.4688L90.3398 105.457L90.3047 105.422V105.375L90.3867 105.293L90.3047 105.211H90.2578L90.1406 105.293H90.0586L90.1406 105.176V105.129L90.0938 105.094V105.047L90.2227 104.93C90.1602 104.844 90.0625 104.801 89.9297 104.801L89.8945 104.754L89.6836 104.672L89.4375 104.754L89.4023 104.719V104.59L89.4844 104.508C89.5391 104.508 89.5664 104.551 89.5664 104.637H89.6016C89.8672 104.637 90.0859 104.691 90.2578 104.801C90.3047 104.691 90.3594 104.637 90.4219 104.637V104.59L90.3398 104.473V104.426H90.3867L90.4688 104.508L90.5977 104.473V104.426C90.5977 104.371 90.5273 104.344 90.3867 104.344L90.3398 104.309V104.262H90.4688L90.6797 104.309C90.6797 104.23 90.7344 104.16 90.8438 104.098C90.8438 104.238 90.9258 104.309 91.0898 104.309H91.2891L91.1719 104.145L91.207 104.016H91.2539C91.2617 104.125 91.3008 104.18 91.3711 104.18H91.418V104.062L91.3359 103.934V103.852C91.4062 103.852 91.4609 103.949 91.5 104.145H91.5352L91.582 103.98L91.5352 103.77V103.406C91.5977 103.406 91.6406 103.582 91.6641 103.934H91.7461V103.852H91.8281L91.8633 103.898H91.9102V103.77H91.9805L91.9453 103.98H92.0273L92.0625 103.77L92.0273 103.523H92.0625L92.0273 103.488V103.441L92.0625 103.406V103.359L91.9453 103.324L92.0273 103.242L92.1094 103.324C92.2891 102.66 92.4258 102.273 92.5195 102.164L92.4375 102.082C92.5312 100.715 92.6562 100.031 92.8125 100.031C92.9766 99.7969 93.0586 99.5625 93.0586 99.3281L93.1406 99.082L93.1758 99.0352V98.9531L93.0586 98.707C93.2461 98.668 93.3398 98.6016 93.3398 98.5078L93.5508 98.0039C93.4961 98.0039 93.4688 97.9492 93.4688 97.8398H93.4219L93.3867 97.8867H93.3398L93.3047 97.7227L93.1758 97.8047H93.1406L93.2578 97.5586L93.2227 97.5117H93.1406C93.1328 97.5977 93.0078 97.668 92.7656 97.7227H92.7305L93.0586 97.3945V97.3125L93.0117 97.2656V97.2305L93.1406 97.1836V97.1016C93.0312 97.1016 92.9766 97.0742 92.9766 97.0195V96.9844H93.0938V96.9375H93.0586L92.4844 96.9844H92.3555V96.9023H92.4023C92.918 96.8477 93.1914 96.7773 93.2227 96.6914C93.1055 96.6523 93.0234 96.582 92.9766 96.4805H93.0117L93.3867 96.5742L93.4219 96.5273V96.4805L93.2578 96.2344V96.0352C93.3672 96.1055 93.4219 96.1992 93.4219 96.3164H93.5039L93.4688 96.1172H93.5508C93.5508 96.25 93.5781 96.3164 93.6328 96.3164L93.668 95.9531H93.7148C93.8008 95.9688 93.8438 96.0781 93.8438 96.2812L93.8789 96.2344H93.9258L93.9609 96.2812C93.9766 96.1719 94.0195 96.1172 94.0898 96.1172H94.125L94.1719 96.2344L94.043 96.3633L94.1719 96.3984C94.4688 96.2344 94.6172 96.0977 94.6172 95.9883L95.0273 95.0039C95.0273 94.6992 95.1094 94.4805 95.2734 94.3477L95.3203 94.1367L95.1914 94.0195V93.9727L95.4023 94.0195V93.9727C95.4023 93.8945 95.4727 93.8398 95.6133 93.8086C95.6133 93.7305 95.6523 93.6914 95.7305 93.6914C95.8945 93.5742 95.9766 93.3516 95.9766 93.0234L96.5508 92.332C96.6914 91.8633 96.8984 91.6289 97.1719 91.6289ZM92.1094 91.7109H92.1914C92.6445 91.8438 92.918 91.9688 93.0117 92.0859H92.9766L92.1094 91.793V91.7109ZM94.2891 91.9219H94.3711V91.957L94.3359 92.0039V92.0391C94.5547 92.0391 94.7461 92.1367 94.9102 92.332H95.3555V92.4141H95.2383C95.1211 92.4141 94.9961 92.4961 94.8633 92.6602L94.9453 92.9062L94.3711 93.3164C94.3711 93.4648 94.2227 93.5742 93.9258 93.6445L93.7148 93.9727H93.668L93.7969 93.6445L93.4219 93.5273H93.3867C93.2539 93.6367 93.1445 93.6914 93.0586 93.6914L92.9297 93.6094L92.8945 93.6445H92.8477L92.7305 93.6094L92.6016 93.6445L92.8125 93.3984C92.7266 93.3984 92.6562 93.3438 92.6016 93.2344V93.0703L92.8125 92.6953L92.9297 92.6602V92.5781C92.8672 92.5781 92.7461 92.4961 92.5664 92.332V92.2852H92.6016L93.0938 92.5781L93.3398 92.4961C93.3398 92.4102 93.3828 92.3672 93.4688 92.3672V92.332C93.3438 92.3164 93.207 92.2344 93.0586 92.0859H93.1406L93.668 92.25C93.668 92.1953 93.793 92.1523 94.043 92.1211L94.0898 92.168L94.2891 91.9219ZM100.547 94.6289L100.594 94.6758V94.7109L100.547 94.7578H100.465V94.7109L100.547 94.6289ZM94.7812 94.875V95.0039L94.6641 95.1328H94.6172L94.5352 95.0508V95.0039C94.5352 94.9492 94.6172 94.9062 94.7812 94.875ZM93.7148 95.0508L93.8789 95.25L93.8438 95.543H93.6328V95.4609H93.7148L93.4688 95.2969V95.168C93.4922 95.0898 93.5742 95.0508 93.7148 95.0508ZM100.348 95.2148V95.25L100.254 95.332L100.172 95.25L100.219 95.2148H100.348ZM92.6016 95.6602L92.6836 95.7891L92.6016 95.8711L92.5195 95.707L92.5664 95.6602H92.6016ZM91.8281 95.9531L91.9453 96.0703L91.9102 96.1172H91.8633L91.7461 95.9883L91.7812 95.9531H91.8281ZM91.8633 96.5742H91.9102V96.6914H91.7812V96.6562L91.8633 96.5742ZM98.5312 96.5742H98.6602L98.7422 96.6562L98.6133 96.7383H98.5312L98.4492 96.6562L98.5312 96.5742ZM91.6641 97.3945H91.7461V97.4766L91.582 97.5117V97.4766L91.6641 97.3945ZM93.3398 97.8867V98.0039H93.2578V97.9688L93.3398 97.8867ZM104.953 98.6719H104.988V98.707L104.871 98.8359V98.7539L104.953 98.6719ZM102.855 99H102.891V99.0352L102.645 99.1992V99.1641C102.699 99.0547 102.77 99 102.855 99ZM111.199 96.6562L111.246 96.7031V96.75L111.199 96.7969H111.152L111.105 96.75V96.7031L111.152 96.6562H111.199ZM98.7422 102.457H98.7773L98.8594 102.539L98.8242 102.574H98.7773L98.7422 102.539V102.457ZM91.9453 102.738L91.9805 102.785V102.867H91.8633V102.82L91.9453 102.738ZM91.0898 102.785L91.125 102.82V102.867L91.0898 102.902H91.0078V102.867L91.0898 102.785ZM91.418 103.066L91.5352 103.195V103.324H91.5L91.3359 103.16L91.418 103.066ZM90.5156 103.277H90.5508L90.6328 103.359L90.5977 103.406H90.5508L90.5156 103.359V103.277ZM97.793 103.324H97.875L97.957 103.406L97.8281 103.523H97.6641C97.7031 103.391 97.7461 103.324 97.793 103.324ZM91.043 103.488H91.0898L91.1719 103.57V103.605L91.043 103.488ZM100.43 103.605V103.652L100.09 103.898L100.055 103.852V103.816C100.125 103.676 100.25 103.605 100.43 103.605ZM90.2227 103.816L90.2578 103.852V103.98H90.1758L90.1406 103.852L90.1758 103.816H90.2227ZM88.9102 104.18H89.0742L89.1562 104.262L89.1094 104.309V104.344L89.1562 104.391L88.9453 104.426L88.8164 104.309V104.262L88.9102 104.18ZM100.711 104.262H100.84L100.758 104.344L100.711 104.309V104.262ZM90.9258 104.344V104.426H90.8438L90.7969 104.391H90.7617L90.7148 104.426V104.473C90.793 104.473 90.875 104.512 90.9609 104.59C91.0703 104.551 91.125 104.512 91.125 104.473C91.0156 104.473 90.9609 104.445 90.9609 104.391L91.0078 104.344H90.9258ZM91.043 104.637L91.0898 104.848H91.125L91.1719 104.637H91.043ZM96.7148 104.59H96.7617L96.8789 104.719V104.754H96.8438L96.7148 104.719V104.59ZM95.9414 104.754H96.2227L96.3047 104.848L96.1406 104.965C96.0156 104.91 95.9492 104.855 95.9414 104.801V104.754ZM95.8125 104.801V104.883L95.6484 104.93V104.848L95.8125 104.801ZM91.043 104.93C91.043 105.078 90.9766 105.199 90.8438 105.293V105.375L91.2539 105.668H91.2891L91.3359 105.258V105.211C91.25 105.211 91.207 105.184 91.207 105.129L91.2539 105.094C91.168 105.094 91.125 105.051 91.125 104.965L91.0898 104.93H91.043ZM94.5352 104.93L94.5 104.965V105.012H94.5352L94.6641 104.965V104.93H94.5352ZM94.125 105.34C94.125 105.473 94.2227 105.609 94.418 105.75V105.785H94.5L94.5352 105.504C94.4492 105.504 94.3945 105.367 94.3711 105.094L94.4531 105.012H94.418L94.125 105.34ZM89.5195 105.621H89.6836L89.8477 105.703L89.9766 105.668L90.0117 105.703V105.832L89.9297 105.914L89.8125 105.832C89.8125 105.91 89.7578 105.949 89.6484 105.949C89.5234 105.902 89.4531 105.848 89.4375 105.785V105.703L89.5195 105.621ZM95.6133 105.621H95.6484L95.7305 105.703L95.6953 105.75H95.6133V105.621ZM89.7656 106.031L89.8125 106.078V106.113L89.7656 106.16H89.7305L89.6836 106.113V106.078L89.7305 106.031H89.7656ZM92.8125 106.816L92.8477 106.863H92.8945L93.0586 106.734H93.2578C93.2578 106.516 93.3125 106.406 93.4219 106.406V106.324H93.3398C93.0352 106.496 92.8594 106.66 92.8125 106.816ZM95.8125 106.406V106.488L95.4844 106.57V106.488L95.8125 106.406ZM93.5039 106.535C93.4883 106.699 93.4062 106.781 93.2578 106.781L93.3398 106.898V106.945C93.207 107.047 93.1406 107.168 93.1406 107.309L93.1758 107.355H93.2227L93.3047 107.273H93.3398L93.2578 107.391L93.4688 107.438L93.5859 107.273L93.5039 107.191C93.543 106.832 93.5977 106.652 93.668 106.652L93.6328 106.535H93.5039ZM91.5352 107.027C91.5352 107.16 91.4688 107.227 91.3359 107.227V107.355L91.5352 107.391H91.6172V107.355L91.582 107.027H91.5352ZM91.207 107.438L91.1719 107.473V107.555H91.3711C91.3711 107.516 91.3164 107.477 91.207 107.438ZM89.1094 108.129H89.1914V108.176L89.0273 108.293L88.9922 108.258V108.211L89.1094 108.129ZM90.9609 108.129H91.0078V108.258H90.8789V108.211L90.9609 108.129ZM90.3047 108.457L90.3398 108.504V108.586H90.3047L90.2227 108.504L90.2578 108.457H90.3047ZM90.5977 109.488H90.6328V109.523L90.5508 109.605H90.5156V109.57L90.5977 109.488Z" fill="white"/>
<g clip-path="url(#clip0_14_759)">
<rect x="28" y="117" width="85" height="85" fill="#0F104C" fill-opacity="0.5"/>
<path d="M28.2 185.2H44.8V201.8H28.2V185.2Z" stroke="#5F0D16" stroke-width="0.4"/>
<path d="M28.2 168.2H44.8V184.8H28.2V168.2Z" stroke="#5F0D16" stroke-width="0.4"/>
<path d="M28.2 151.2H44.8V167.8H28.2V151.2Z" stroke="#5F0D16" stroke-width="0.4"/>
<path d="M28.2 134.2H44.8V150.8H28.2V134.2Z" stroke="#5F0D16" stroke-width="0.4"/>
<path d="M28.2 117.2H44.8V133.8H28.2V117.2Z" stroke="#5F0D16" stroke-width="0.4"/>
<path d="M45.2 185.2H61.8V201.8H45.2V185.2Z" stroke="#5F0D16" stroke-width="0.4"/>
<path d="M45.2 168.2H61.8V184.8H45.2V168.2Z" stroke="#5F0D16" stroke-width="0.4"/>
<path d="M45.2 151.2H61.8V167.8H45.2V151.2Z" fill="white"/>
<path d="M45.2 151.2H61.8V167.8H45.2V151.2Z" stroke="#5F0D16" stroke-width="0.4"/>
<path d="M45.2 134.2H61.8V150.8H45.2V134.2Z" stroke="#5F0D16" stroke-width="0.4"/>
<path d="M45.2 117.2H61.8V133.8H45.2V117.2Z" stroke="#5F0D16" stroke-width="0.4"/>
<path d="M62.2 185.2H78.8V201.8H62.2V185.2Z" stroke="#5F0D16" stroke-width="0.4"/>
<path d="M62.2 168.2H78.8V184.8H62.2V168.2Z" stroke="#5F0D16" stroke-width="0.4"/>
<path d="M62.2 151.2H78.8V167.8H62.2V151.2Z" fill="#EB1E1E"/>
<path d="M62.2 151.2H78.8V167.8H62.2V151.2Z" stroke="#5F0D16" stroke-width="0.4"/>
<path d="M62.2 134.2H78.8V150.8H62.2V134.2Z" stroke="#5F0D16" stroke-width="0.4"/>
<path d="M62.2 117.2H78.8V133.8H62.2V117.2Z" stroke="#5F0D16" stroke-width="0.4"/>
<path d="M79.2 185.2H95.8V201.8H79.2V185.2Z" stroke="#5F0D16" stroke-width="0.4"/>
<path d="M79.2 168.2H95.8V184.8H79.2V168.2Z" fill="white"/>
<path d="M79.2 168.2H95.8V184.8H79.2V168.2Z" stroke="#5F0D16" stroke-width="0.4"/>
<path d="M79.2 151.2H95.8V167.8H79.2V151.2Z" stroke="#5F0D16" stroke-width="0.4"/>
<path d="M79.2 134.2H95.8V150.8H79.2V134.2Z" fill="white"/>
<path d="M79.2 134.2H95.8V150.8H79.2V134.2Z" stroke="#5F0D16" stroke-width="0.4"/>
<path d="M79.2 117.2H95.8V133.8H79.2V117.2Z" stroke="#5F0D16" stroke-width="0.4"/>
<path d="M96.2 185.2H112.8V201.8H96.2V185.2Z" stroke="#5F0D16" stroke-width="0.4"/>
<path d="M96.2 168.2H112.8V184.8H96.2V168.2Z" stroke="#5F0D16" stroke-width="0.4"/>
<path d="M96.2 151.2H112.8V167.8H96.2V151.2Z" stroke="#5F0D16" stroke-width="0.4"/>
<path d="M96.2 134.2H112.8V150.8H96.2V134.2Z" stroke="#5F0D16" stroke-width="0.4"/>
<path d="M96.2 117.2H112.8V133.8H96.2V117.2Z" stroke="#5F0D16" stroke-width="0.4"/>
</g>
<rect x="28.5" y="117.5" width="84" height="84" stroke="url(#paint1_linear_14_759)"/>
<defs>
<linearGradient id="paint0_linear_14_759" x1="70.5" y1="17" x2="70.5" y2="83" gradientUnits="userSpaceOnUse">
<stop stop-color="#123BD5"/>
<stop offset="1" stop-color="#CD2237"/>
</linearGradient>
<linearGradient id="paint1_linear_14_759" x1="31.7979" y1="120.436" x2="138.59" y2="226.777" gradientUnits="userSpaceOnUse">
<stop stop-color="#B17BFF"/>
<stop offset="1" stop-color="#FF0751"/>
</linearGradient>
<clipPath id="clip0_14_759">
<rect x="28" y="117" width="85" height="85" fill="white"/>
</clipPath>
</defs>
</svg>
