<svg width="142" height="218" viewBox="0 0 142 218" fill="none" xmlns="http://www.w3.org/2000/svg">
<rect x="0.5" y="0.5" width="141" height="217" rx="4.5" fill="#191515"/>
<rect x="0.5" y="0.5" width="141" height="217" rx="4.5" stroke="#B17BFF"/>
<path d="M47.19 82.54L44.76 82.18L41.88 79.03C45.21 78.58 48.45 77.95 51.51 77.23C54.57 76.51 57.63 75.61 60.78 74.35L62.13 67.24H60.42L52.59 69.4L51.87 69.04C51.6 67.6 50.97 66.34 49.98 65.26C49.08 64.27 48.27 63.1 47.55 61.93C46.38 61.48 45.39 60.76 44.58 59.77C43.68 58.78 42.87 57.88 42.24 56.98H42.87C44.4 57.61 45.93 58.06 47.37 58.15C48.9 58.24 50.34 58.78 51.87 59.77L53.67 64.81H56.82L62.49 63.37V59.41L62.13 57.34L59.34 56.62L58.89 55.54L56.1 55.18V54.82L59.34 54.1V53.38L57.18 49.51L56.46 49.15V46.36C57.18 45.37 57.45 44.2 57.45 42.85C57.45 41.59 57.45 40.24 57.45 38.89L57.18 35.92H56.46C54.75 36.64 53.13 37.36 51.33 38.08C49.53 38.89 47.91 39.88 46.47 41.32L45.48 43.39L44.4 44.11L43.95 49.15L44.4 50.14L43.95 52.3H43.59L41.16 46.99C41.88 45.37 42.33 43.48 42.42 41.68C42.42 39.79 42.6 37.9 42.87 35.92L40.44 31.69H40.8L42.24 32.05L44.76 30.25L45.48 30.61L45.84 32.77H46.47L49.71 30.61V28.09H48.63L48.27 29.17L47.19 29.53L45.84 25.66L47.19 24.94V23.86C48.36 23.14 49.26 22.24 49.89 21.16C50.43 20.08 51.06 19 51.87 17.83V16.75H51.06V16.39L52.59 15.67V15.31H54.3L55.38 14.23L58.17 14.95V15.67C58.17 16.39 57.9 17.02 57.36 17.65C56.73 18.28 56.19 18.91 55.74 19.63L49.71 22.42L49.35 23.86L50.34 24.22L55.38 22.06L55.74 20.98H57.18V20.62L58.53 20.26V19.63H59.34L62.13 20.62V21.7L63.57 22.06V24.58H61.14L60.06 32.05L60.42 33.49C59.97 34.48 59.7 35.47 59.7 36.82C59.7 38.17 59.7 39.43 59.7 40.6L60.42 44.47L62.13 45.19L64.65 44.83L66 45.55L66.81 51.94H67.53L77.43 48.43L78.15 40.24H76.71L71.04 42.4V42.67H69.24L66.36 42.04L77.79 37.36L78.15 35.2L77.79 33.49L75 33.13V32.77L77.07 32.41L77.43 29.89L76.35 29.17V27.46H78.15L80.94 28.81V30.61H82.11L83.19 30.25V29.53L82.11 26.02C83.28 24.85 84.09 23.41 84.54 21.7C84.99 20.08 85.26 18.46 85.26 16.75L84.18 14.95H83.19C81.93 15.22 80.76 15.67 79.77 16.39C78.69 17.11 77.43 17.47 76.08 17.47V18.55L77.43 18.91V21.34L75.72 24.94L71.04 27.46V27.1L73.47 20.62L73.11 18.55L73.47 17.47H72.75L72.39 15.67C74.82 15.22 77.25 14.5 79.68 13.51C82.02 12.61 84.45 12.16 87.06 12.16V12.52L91.02 13.87V15.67L90.66 16.39L89.58 16.75L84.9 29.53H86.34L86.7 30.61L86.34 31.69L81.66 32.77L81.3 36.28H83.19L89.94 35.2L92.73 35.56V36.28L91.65 38.08C90.03 38.08 88.23 38.08 86.52 38.08C84.72 38.08 83.01 38.35 81.3 38.89L79.23 49.87L85.62 51.22L86.7 53.83L85.98 54.82C84.99 54.55 84.09 54.64 83.37 55C82.56 55.36 81.75 55.81 80.94 56.26L78.15 62.29L73.47 64.09L72.12 63.73L66 66.16L64.65 73.27H66.36L75.36 70.84L75.72 72.64C71.4 75.25 66.81 77.23 61.95 78.67C57.18 80.11 52.23 81.37 47.19 82.54ZM89.94 81.1L85.62 78.67V77.95L84.18 77.23C83.1 75.61 81.75 73.9 80.31 72.28C78.87 70.57 77.34 69.04 75.72 67.6H78.15C80.49 67.87 82.56 68.77 84.36 70.21C86.16 71.83 87.96 73.27 89.94 74.71L92.01 79.03L91.02 81.1H89.94ZM72.39 60.49V59.77C73.11 59.05 73.47 58.06 73.47 56.98C73.47 55.81 73.47 54.55 73.47 53.38H72.12L67.53 54.82C67.8 56.26 67.62 57.52 66.99 58.51C66.36 59.59 66 60.85 66 62.29H67.17L72.39 60.49ZM62.13 53.83V50.14L61.14 48.07L60.06 47.71L59.7 54.1H60.78L62.13 53.83ZM68.88 37.72V37.36C69.6 35.92 70.23 34.57 70.68 33.13C71.13 31.69 71.4 30.16 71.4 28.45H72.12L73.83 28.81V32.05L71.76 35.92L68.88 37.72ZM49.71 37.36L50.34 35.2H49.35V34.57H48.27L46.47 35.2L45.48 34.93L44.76 39.16H45.84L49.71 37.36ZM56.82 34.21L57.18 33.13C56.91 31.69 56.82 30.34 56.82 28.81C56.82 27.46 56.37 26.29 55.38 25.3H53.94L52.59 26.38V27.46L53.67 28.81H54.3V29.53L51.87 32.77L51.42 36.28H52.23L56.82 34.21ZM39 26.38V26.02C40.44 24.04 41.88 22.15 43.14 20.08C44.49 18.1 45.21 15.94 45.48 13.51L48.63 13.15L49.71 15.31L46.47 20.98C45.57 21.25 44.67 21.43 43.86 21.7C42.96 21.97 42.24 22.6 41.52 23.59L39 26.38Z" fill="url(#paint0_linear_14_396)"/>
<path d="M58.043 90.9141L58.1484 91.0078L57.7617 91.3477C57.8477 91.3477 58.0078 91.4297 58.2422 91.5938L58.6289 91.5V91.5938L58.3828 91.6406L58.4883 91.793V91.8398C58.4883 91.9023 58.4375 91.9336 58.3359 91.9336L58.2891 91.9805V92.0273L58.4883 92.1797L58.8281 91.9336H58.875C58.7344 92.1602 58.6211 92.2734 58.5352 92.2734V92.5664L58.6758 92.7656H58.6289L58.6758 92.8125V92.9531C58.6758 93.0156 58.6289 93.0469 58.5352 93.0469V93.1055L58.7344 93.1992H58.8281V93H58.9219V93.1055L58.875 93.1523V93.1992L59.0742 93.2461L59.1211 93.1992H59.168L59.2617 93.293L59.168 93.4453L59.2148 93.5859H59.168L59.1211 93.7266H59.0742L58.9688 93.6328L58.9219 93.6797L58.7812 93.6328L58.3359 93.6797H58.2891L58.043 93.6328L57.9961 93.6797V93.7266L57.9492 93.6797H57.9023C57.6758 93.7109 57.5625 93.7617 57.5625 93.832C57.5938 94.0273 57.6406 94.125 57.7031 94.125V93.9727H57.7617L57.8086 94.0195L57.8555 93.9727H57.9023L57.9492 94.0195H57.9961L58.1484 93.9727V94.0664H58.1953L58.3359 93.9727H58.3828L58.1953 94.2188L58.2422 94.2656L58.1016 94.4648H58.1953L58.2422 94.4062H58.2891V94.4648L58.2422 94.6992H58.2891L58.4414 94.6055L58.4883 94.6523L58.5352 94.6055L58.582 94.6523C58.582 94.5586 58.6133 94.5117 58.6758 94.5117H58.7344L58.6758 94.7461L58.7344 94.8047H58.7812L59.6953 94.5586L59.7539 94.6055H59.8008L59.9883 94.5586V94.6523L58.6758 94.9922V95.0391C58.7773 95.0391 58.8594 95.1055 58.9219 95.2383H58.875L58.4414 95.0859V95.1445C58.4414 95.2461 58.5195 95.4062 58.6758 95.625V95.7188H58.6289C58.5039 95.5312 58.3594 95.4375 58.1953 95.4375C58.1719 95.2734 58.1211 95.1914 58.043 95.1914L57.8086 95.3789L57.7617 95.332L57.6094 95.5312V95.5781L57.6562 95.5312H57.7031L57.7617 95.5781V95.625L57.6562 95.7188L57.8086 95.7773L57.8555 95.7188H57.9023L57.9492 95.7773H57.9961L58.2891 95.6719L58.582 96.0117H58.4883L58.3359 95.9648L58.2422 96.1172L58.3359 96.2109L58.2891 96.3516L58.9219 96.6445C58.8906 96.7773 58.8281 96.8438 58.7344 96.8438V96.9375L58.7812 97.1367L58.7344 97.1836V97.2305L58.7812 97.3711H58.7344L58.5352 97.3242H58.4883L58.5352 97.3711V97.6641C58.6289 97.6641 58.6758 97.7148 58.6758 97.8164L58.9219 97.7578V97.8164L58.8281 97.957V98.0039L58.875 98.0508V98.0977L58.8281 98.1562H58.7812L58.7344 98.0977L58.6758 98.1562L58.7812 98.5898L58.7344 98.6367H58.6758L58.5352 98.1562L58.4883 98.2031H58.4414L58.1484 98.0039C58.1484 98.1367 58.0977 98.2031 57.9961 98.2031L58.043 98.25V98.3438L57.9961 98.3906L58.043 98.543L57.9961 98.6836H58.043L58.2422 98.543L58.4414 98.7305L58.2891 98.9766C58.8359 99.5469 59.6133 100.016 60.6211 100.383L60.7148 100.289H60.7734L60.8672 100.383L60.5273 100.629C59.2305 99.8555 58.4844 99.3711 58.2891 99.1758H58.1953L58.2891 99.3164V99.3633H58.2422L58.1016 99.2695V99.5156H57.9961V99.2227C57.7852 99.0586 57.625 98.9766 57.5156 98.9766V99.0703L57.3633 99.1758L57.1758 99.0703C57.1758 99.1484 57.0469 99.2969 56.7891 99.5156H56.6836L57.082 98.9766V98.9297L56.7422 99.0703H56.4961L56.2969 99.0234L56.1562 99.0703C56.125 98.9688 56.0586 98.9062 55.957 98.8828L55.7695 98.9297V98.8359H55.9102C55.9102 98.6797 55.6523 98.5156 55.1367 98.3438C55.1367 98.4219 54.9414 98.4883 54.5508 98.543H53.8242C53.7617 98.543 53.7305 98.5898 53.7305 98.6836L53.6836 98.7305H53.625L53.5312 98.6367H52.8047C52.6406 98.7695 52.5117 98.8359 52.418 98.8359C52.418 98.8906 52.6133 98.9883 53.0039 99.1289V99.2227L52.125 98.9297C51.9531 99.1797 51.7266 99.3594 51.4453 99.4688H51.3984L51.293 99.3633L51.3516 99.3164H51.1523C50.3086 99.3945 49.8867 99.6055 49.8867 99.9492C49.793 100.082 49.7461 100.242 49.7461 100.43C49.6523 100.727 49.5547 100.875 49.4531 100.875V101.109L49.3594 101.695C49.4531 101.695 49.5 101.73 49.5 101.801L49.4531 102.422C49.8438 102.812 50.0391 103.039 50.0391 103.102C50.0391 103.445 50.6523 104.062 51.8789 104.953C52.043 105.188 52.3516 105.414 52.8047 105.633C52.8047 105.711 53.2266 105.855 54.0703 106.066C55.0547 105.895 55.75 105.719 56.1562 105.539L56.2031 105.586H56.25C56.9688 105.305 57.6641 104.852 58.3359 104.227L58.4883 103.84C58.4883 103.707 58.4062 103.641 58.2422 103.641L58.6758 103.254V103.008H58.7812V103.301L58.9219 103.348C59.0938 103.301 59.2578 103.203 59.4141 103.055L59.4609 103.207C59.3594 103.434 59.2109 103.609 59.0156 103.734V103.84C59.1484 103.84 59.2148 103.871 59.2148 103.934H59.0742L58.9219 103.84H58.875C58.875 103.934 58.4844 104.32 57.7031 105C57.7031 105.055 57.3008 105.395 56.4961 106.02C56.2227 106.387 55.8008 106.711 55.2305 106.992V107.086H55.3242V107.191H55.0898L55.043 107.133C54.7383 107.312 54.4609 107.43 54.2109 107.484H53.6836C53.1289 107.414 52.6406 107.266 52.2188 107.039C51.9375 106.961 51.3398 106.559 50.4258 105.832C50.3242 105.832 50.2734 105.781 50.2734 105.68H50.0859C49.8516 105.68 49.4609 105.438 48.9141 104.953C48.4219 104.562 48.1641 104.32 48.1406 104.227L47.8945 104.273L47.8477 104.227H47.8008L47.707 104.32H47.6602C46.9648 103.758 46.4297 103.16 46.0547 102.527C45.8438 102.41 45.6172 102.02 45.375 101.355L45.3281 101.309V100.629L45.4219 100.242L45.2812 100.148L45.2227 100.195L45.1758 100.148V100.09L45.2227 100.043H45.1289V100.148H45.082L45.0352 99.9492L45.082 99.9023C44.9883 99.9023 44.9414 99.8516 44.9414 99.75L44.9883 99.6094H44.9414L44.9883 99.5625V99.5156L44.9414 99.4688V99.4102L45.1758 99.2227L45.1289 99.1758V99.0703C45.293 99.0703 45.3906 99.0078 45.4219 98.8828L45.8086 99.0234C45.9102 98.9922 46.0078 98.832 46.1016 98.543C46.1016 98.1992 46.668 97.4531 47.8008 96.3047C47.8477 96.0156 48.543 95.2539 49.8867 94.0195C50.4805 93.707 51.0625 93.4648 51.6328 93.293C51.6328 93.1602 52.3164 93.0156 53.6836 92.8594L53.8242 92.8125L54.6445 92.9062C54.5508 92.7891 54.5039 92.5781 54.5039 92.2734C54.5586 92.2734 54.6562 92.4531 54.7969 92.8125H54.8438L54.8906 92.5664V92.4727C54.8906 92.4023 54.8438 92.3672 54.75 92.3672V92.2734H54.7969L54.9375 92.3672C54.9844 92.2109 55.0352 92.1328 55.0898 92.1328L55.1367 92.1797H55.1836V92.1328L55.4297 92.3203H55.4766V92.4258C55.4766 92.4883 55.4258 92.5195 55.3242 92.5195C55.4414 92.7461 55.5234 92.8594 55.5703 92.8594H55.6172C55.6172 92.7266 55.6523 92.6602 55.7227 92.6602H55.957V92.5664L55.8164 92.3203L55.957 92.2734L55.9102 92.2266V92.1797H56.2031L56.5898 92.3203C56.7539 92.3203 56.8359 92.2891 56.8359 92.2266L56.6836 91.8867V91.8398H56.7891L56.9297 91.9805L56.8828 92.1328H56.9766L57.0234 92.0742H57.082L57.1289 92.1328V92.2266H56.9297C57.1562 92.4531 57.3984 92.5977 57.6562 92.6602C57.7031 92.5039 57.7539 92.4258 57.8086 92.4258L57.9961 92.4727C58.0117 92.3398 58.0625 92.2734 58.1484 92.2734L58.2891 92.3203V92.3672C58.2891 92.4375 58.2422 92.4727 58.1484 92.4727V92.5664C58.3047 92.5352 58.3828 92.4531 58.3828 92.3203L58.1484 92.1797L57.8555 92.2266H57.7617V92.1328C57.8867 92.1328 57.9492 92.0664 57.9492 91.9336H58.1016V91.8867C58 91.8867 57.9492 91.8555 57.9492 91.793L57.9961 91.7344V91.6875L57.8086 91.5C57.668 91.5234 57.4727 91.6836 57.2227 91.9805H57.1758L57.5156 91.4531L57.4688 91.3945C57.5625 91.3945 57.7227 91.25 57.9492 90.9609L57.9961 90.9141H58.043ZM56.7422 91.0547C56.8984 91.0938 56.9766 91.1602 56.9766 91.2539H57.082C57.3164 91.2539 57.4453 91.3008 57.4688 91.3945H57.3633L57.2227 91.3477L56.9297 91.3945L56.8828 91.3477H56.8359L56.6367 91.3945L56.7422 91.5469H56.5898L56.6836 91.6875L56.6367 91.7344H56.5898C56.5898 91.6875 56.4766 91.6406 56.25 91.5938L56.1094 91.6406L56.2031 91.5L56.1562 91.3477H56.2969V91.3008C56.2031 91.3008 56.1562 91.2695 56.1562 91.207H56.25L56.2969 91.2539H56.3438L56.4023 91.1133L56.6367 91.1602L56.7422 91.0547ZM55.7227 91.3008H55.8164V91.3945L55.2305 92.1328V91.9805L55.2773 91.9336V91.8867C55.1211 91.8633 55.043 91.8125 55.043 91.7344V91.6875H55.1367L55.3242 91.8398C55.3242 91.6992 55.457 91.5352 55.7227 91.3477V91.3008ZM55.5234 91.9805H55.6172L55.7695 92.0273V92.1328H55.7227L55.5234 91.9805ZM59.0156 92.3672C58.9688 92.5 58.8555 92.5664 58.6758 92.5664H58.6289C58.6289 92.4727 58.7578 92.4062 59.0156 92.3672ZM54.9844 92.707L54.9375 92.7656V92.9531H54.9844L55.2305 92.9062C55.2148 92.8359 55.1328 92.7695 54.9844 92.707ZM57.3164 93.9727V94.0664L57.5625 94.1719H57.6094L57.4688 93.9258L57.3164 93.9727ZM57.5625 94.4648V94.5586L57.8555 94.6055C57.8555 94.543 57.918 94.5117 58.043 94.5117V94.4648L57.8086 94.4062L57.5625 94.4648ZM60.668 94.4648L60.7148 94.5117V94.5586L60.6211 94.6523H60.5742C60.3477 94.6523 60.2344 94.6211 60.2344 94.5586L60.1875 94.6055H60.0938V94.5117H60.1406L60.668 94.4648ZM61.1602 94.4648L61.2539 94.5586L61.207 94.6055H61.1602L61.0547 94.5117L61.1133 94.4648H61.1602ZM60.9141 95.2383H60.9609L61.0078 95.2852H61.0547L61.1133 95.2383L61.207 95.5781L61.0547 95.6719C60.8672 95.6016 60.7734 95.4883 60.7734 95.332L60.9141 95.2383ZM45.7617 97.2305L45.8086 97.2773V97.4766L45.7148 97.5703L45.668 97.3242L45.7617 97.2305ZM44.4961 98.25L44.6016 98.3438L44.543 98.3906H44.4961L44.4023 98.2969L44.4609 98.25H44.4961ZM53.7773 99.8555C53.5195 99.9961 53.3906 100.156 53.3906 100.336L53.4375 100.383C53.3359 100.383 53.2695 100.465 53.2383 100.629L53.0039 100.676L52.9453 100.629V100.582L53.0508 100.43H53.0039L52.9453 100.488H52.8984L52.6055 100.383L52.5117 100.488H52.4648V100.43C52.4648 100.367 52.5273 100.336 52.6523 100.336C52.6523 100.133 52.75 100.004 52.9453 99.9492L53.1914 99.9961L53.7773 99.8555ZM50.1328 100.77H50.2266V100.969H50.1328V100.77ZM60.7148 101.016L60.9141 101.168L60.8203 101.262L60.668 101.109L60.7148 101.062V101.016ZM54.9375 101.695L54.9844 101.742V101.848L54.8906 101.941H54.75L54.6445 101.848C54.6836 101.746 54.7812 101.695 54.9375 101.695ZM59.3555 102.621V102.762H59.3086L59.2148 102.668L59.2617 102.621H59.3555ZM55.4297 102.668H55.5234C55.7656 102.707 55.8945 102.773 55.9102 102.867V102.914C55.5898 102.883 55.4297 102.816 55.4297 102.715V102.668ZM57.7617 103.301V103.348L57.6562 103.441L57.6094 103.395V103.348L57.6562 103.301H57.7617ZM55.4297 107.133H55.4766C56.25 107.344 56.7031 107.508 56.8359 107.625C56.8359 107.672 56.7695 107.719 56.6367 107.766C56.6367 107.648 56.3125 107.504 55.6641 107.332C55.6641 107.27 55.5859 107.238 55.4297 107.238V107.133ZM55.043 107.824L55.0898 107.871V107.918L55.043 107.965H54.9844L54.9375 107.918V107.871L54.9844 107.824H55.043ZM57.4219 107.824L57.5625 107.965L57.4219 108.059H57.3633C57.3164 108.059 57.2695 107.996 57.2227 107.871L57.2695 107.824H57.4219ZM54.7031 108.293L54.75 108.352V108.445L54.2578 108.645L54.1641 108.539C54.3203 108.375 54.5 108.293 54.7031 108.293ZM61.7461 91.2773H61.7812L61.8516 91.3477L61.8164 91.3828H61.7812L61.7461 91.3477V91.2773ZM63.1406 91.2773V91.3125L62.8828 91.7578C62.9844 91.7578 63.0352 91.793 63.0352 91.8633L63.2578 91.7578V91.793L63.1875 91.8984V91.9805L63.3281 92.0156L63.5156 91.8281V91.8633L63.4102 92.0156H63.4805V92.0508L63.4453 92.1562C63.5 92.1562 63.6328 92.0586 63.8438 91.8633V91.8984L63.6211 92.2734L63.8086 92.3086C63.8086 92.2539 63.8711 92.2188 63.9961 92.2031L63.8789 92.3438V92.4141H63.9609V92.4609L63.8789 92.5664C63.9805 92.5664 64.0312 92.5898 64.0312 92.6367L63.9961 92.6836L64.1367 92.7539C64.4102 92.7539 64.5859 92.5078 64.6641 92.0156C64.9062 91.8828 65.0273 91.7969 65.0273 91.7578H65.0977L65.0625 91.793V91.8633L65.3555 91.9453L66.1289 91.3477H66.1758L66.2461 91.4297V91.5L66.0586 91.5352V91.5L65.5078 91.9453L65.6484 92.2383C65.6484 92.3711 65.5273 92.5195 65.2852 92.6836H65.2148V92.7539C65.6367 93.1445 66.0039 93.3398 66.3164 93.3398C66.3164 93.4023 66.5 93.5391 66.8672 93.75C66.8672 93.9297 67.1523 94.0391 67.7227 94.0781C67.918 94.1953 68.1016 94.3789 68.2734 94.6289C68.4609 94.6289 68.6562 94.9375 68.8594 95.5547C68.8594 95.6797 68.9961 95.9023 69.2695 96.2227L69.3398 96.7734H69.375C69.4297 96.7734 69.4688 96.6602 69.4922 96.4336L69.7148 96.2227L69.75 96.2578H69.9375L70.1133 96.2227V96.293C70.043 96.293 70.0078 96.3398 70.0078 96.4336L70.0781 96.5156V96.5508C70.0781 96.5977 70.0156 96.6211 69.8906 96.6211C69.8516 96.6992 69.7656 96.7383 69.6328 96.7383L69.5977 96.9141C69.5977 96.9922 69.6367 97.0312 69.7148 97.0312L69.75 97.0664V97.1016L69.5625 97.2188V97.2539C69.625 97.4414 69.9062 97.6602 70.4062 97.9102V97.9922H70.3711C70.1992 97.9922 69.9297 97.8203 69.5625 97.4766C69.3672 97.4766 69.2695 97.6094 69.2695 97.875L69.3047 98.0273H69.1992V98.1328H69.3047V98.168C69.3047 98.2227 69.2695 98.25 69.1992 98.25V98.2852L69.2344 98.4258C69.1328 98.5742 69.082 98.6875 69.082 98.7656L69.1992 98.8711V98.9414H69.1523L69.0117 98.8711L68.9766 99.0586L69.0117 99.1641L68.9766 99.1289H68.9414L68.8945 99.1641V99.1992L68.9414 99.3516H68.8945L68.8594 99.3164H68.8242L68.5312 99.9023L67.9453 100.5C67.9453 100.578 67.7852 100.809 67.4648 101.191V101.273H67.4297L67.4648 101.309V101.496C67.3242 101.738 67.1992 101.859 67.0898 101.859V101.895C67.707 101.895 68.1133 102.008 68.3086 102.234C68.9727 102.773 69.4023 103.25 69.5977 103.664C69.793 103.828 69.9531 104.113 70.0781 104.52L70.5938 105.211L70.5586 105.328C70.668 105.602 70.7539 105.762 70.8164 105.809L71.2969 106.172L71.7422 106.395L71.9297 106.43L72.1055 106.289H72.1406C72.2344 106.289 72.2969 106.422 72.3281 106.688C72.2812 106.703 72.2344 106.766 72.1875 106.875L71.9297 106.805L71.7422 106.84L71.5547 106.77C71.875 107.09 72.3906 107.699 73.1016 108.598L73.4766 108.715L73.5117 108.68V108.75C73.4336 108.75 73.3945 108.773 73.3945 108.82C73.4961 108.992 73.8281 109.277 74.3906 109.676C74.3906 109.746 74.4414 109.781 74.543 109.781V109.852H74.5078C74.0859 109.516 73.7656 109.309 73.5469 109.23C73.5469 109.191 73.4258 109.082 73.1836 108.902C72.8945 108.621 72.6211 108.41 72.3633 108.27C71.8555 107.941 71.5117 107.648 71.332 107.391C70.9414 107.156 70.7461 106.984 70.7461 106.875C70.6445 106.875 70.3984 106.738 70.0078 106.465C69.8672 106.465 69.6562 106.281 69.375 105.914C69.375 105.812 69.043 105.492 68.3789 104.953C68.1445 104.727 67.8398 104.543 67.4648 104.402L66.6914 103.781C66.6211 103.656 66.4102 103.531 66.0586 103.406L65.9531 103.266V103.219H65.9883L66.1758 103.266L66.2109 103.219C66.1328 103.023 65.9336 102.926 65.6133 102.926L65.5078 102.855L65.3555 102.891C64.9648 102.648 64.7695 102.453 64.7695 102.305C64.7695 102.234 64.6445 102.012 64.3945 101.637V101.566L64.4766 101.496H64.582L64.6641 101.566V101.602L64.6172 101.637L64.9219 102.27L64.875 102.375L64.9219 102.41H64.957C65.4961 102.066 65.7656 101.746 65.7656 101.449C65.7656 101.309 65.8633 101.238 66.0586 101.238L66.3867 100.418C66.4883 100.418 66.625 100.113 66.7969 99.5039C67.0391 99.2461 67.1758 99.0469 67.207 98.9062H67.1719L67.2422 98.7656L67.207 98.7305L67.2773 98.6484L67.0547 98.6133V98.6484L66.4688 98.4727L66.2812 98.6484H66.2461V98.5781L66.3516 98.4258H66.2461V98.3555L66.3867 98.3906L66.5039 98.3555C66.6367 98.4336 66.8203 98.4727 67.0547 98.4727V98.3555H67.0898L66.9492 98.1328L66.7617 98.2148V98.168L66.5039 98.25V98.2148L66.5391 98.168V98.1328L66.4688 98.0625L66.6094 97.9922V97.957L66.2109 97.9102V97.8398H66.4688L66.6445 97.8047V97.7695C66.5977 97.7695 66.5117 97.6211 66.3867 97.3242V97.1719C66.457 97.1719 66.5312 97.2969 66.6094 97.5469L66.9141 97.4766V97.4297L66.8672 97.3945V97.3594L66.9492 97.2891L66.832 97.1719L66.9844 97.0664L66.7617 96.6211L66.7969 96.5859H66.832C67.0195 96.9297 67.2031 97.1016 67.3828 97.1016L67.4297 96.9961C67.2656 96.918 67.0195 96.4883 66.6914 95.707C66.3086 95.1602 65.9375 94.8516 65.5781 94.7812C65.375 94.5781 65.0938 94.3828 64.7344 94.1953L64.6992 94.2305C64.668 94.0586 64.6055 93.9727 64.5117 93.9727L64.5469 93.9375V93.8906L64.3945 93.8203H64.3242C64.3242 93.9375 64.2383 94.0859 64.0664 94.2656V94.3359C64.3555 94.4297 64.5664 94.5664 64.6992 94.7461H64.6172C64.4766 94.6289 64.332 94.5664 64.1836 94.5586L63.9961 94.3711H63.9609V94.4883L63.9961 94.5234V94.5586H63.9609L63.8086 94.4883L63.668 94.5234C63.668 94.6875 63.7656 94.8086 63.9609 94.8867L64.0664 95.1094L64.0312 95.332C64.0312 95.6758 64.082 95.8477 64.1836 95.8477L64.2539 95.918C64.1055 96.707 63.957 97.1016 63.8086 97.1016L63.8438 97.1367V97.4766C63.6953 97.8125 63.6211 98.2305 63.6211 98.7305L63.5508 99.0938C63.5977 99.1875 63.6211 99.3242 63.6211 99.5039V99.5742L63.4805 99.8672L63.7734 100.898C63.9375 100.898 64.0352 100.949 64.0664 101.051V101.086L63.7734 101.93L63.7383 101.977V102.82C63.7383 103.367 63.8125 103.871 63.9609 104.332V104.402L63.9961 105.293L63.9609 105.398L64.1836 105.809C64.1836 106.238 64.1445 106.496 64.0664 106.582C64.1133 106.621 64.1758 107.137 64.2539 108.129C64.3008 108.129 64.3477 108.238 64.3945 108.457C64.4492 108.465 64.5 108.527 64.5469 108.645C64.4766 108.887 64.4141 109.008 64.3594 109.008L64.2539 108.938H64.2188L64.2539 109.16L64.2188 109.195V109.23L64.2539 109.336L64.2188 109.371H64.1836L64.2188 109.418L64.1367 109.852L64.2188 110.004L64.1836 110.262V110.414L64.2539 111.188L64.2188 111.223V111.258L64.2539 111.293L64.2188 111.48L64.2539 111.621H64.2188L64.1367 111.551V111.41L63.9609 110.262L63.9961 110.156C63.8477 110.094 63.7734 109.945 63.7734 109.711C63.7266 109.711 63.7031 109.746 63.7031 109.816L63.668 109.852H63.6211L63.5859 109.816L63.4805 109.934C63.4336 109.738 63.3359 109.641 63.1875 109.641C63.0391 109.523 62.9648 109.336 62.9648 109.078L63.0703 108.902V108.855H63V108.785H63.0703V108.75L62.8125 108.387H62.7773L62.6719 108.457L62.4492 108.199L62.3672 108.457L62.4141 108.492V108.527C62.3438 109.059 62.2695 109.355 62.1914 109.418L62.2266 109.453V109.559L62.1914 109.781L62.2266 109.898L62.0742 110.191L62.1094 110.227H62.1445L62.1094 110.672V110.848H62.0391V110.812C62.0391 110.133 61.9766 109.617 61.8516 109.266V108.785L61.8867 108.562C61.8398 108.438 61.8164 108.219 61.8164 107.906V107.684L61.8516 107.648C61.7031 107.273 61.5938 106.793 61.5234 106.207V106.137C61.5938 105.629 61.6562 105.359 61.7109 105.328L61.6758 105.176L61.7109 105.141H61.7461L61.7109 105.105V105.035L61.8164 104.848L61.7109 104.625V104.52C61.7109 104.238 61.7461 103.93 61.8164 103.594C61.793 103.484 61.7305 103.41 61.6289 103.371L61.7109 103.148L61.6289 103.078L61.7109 102.785C61.6328 102.785 61.5938 102.758 61.5938 102.703V102.668L61.6289 102.527L61.5234 102.234C61.375 102.234 61.3008 102.148 61.3008 101.977L61.3359 101.414L61.2656 100.898L61.3008 100.535C61.2383 100.395 61.1406 99.9883 61.0078 99.3164C60.9766 99.3164 60.9375 99.2305 60.8906 99.0586L60.9375 98.8359C60.8516 98.3125 60.7656 98.0039 60.6797 97.9102V97.1016C60.7734 97.0391 60.832 96.5586 60.8555 95.6602L60.8203 95.625H60.7852L60.7148 95.707L60.75 95.8125C60.7031 95.8125 60.6641 95.875 60.6328 96L60.4219 96.0703H60.375V95.9648H60.3047L60.0469 96.1055L60.0117 96.0703V96.0352C60.1367 95.8867 60.1992 95.7773 60.1992 95.707L60.0469 95.5547L60.1641 95.4492L60.3047 95.4844C60.4062 95.4453 60.457 95.4062 60.457 95.3672V95.2266L60.375 95.1094C60.375 95.0625 60.4258 95.0391 60.5273 95.0391V95.0039L60.457 94.8867V94.8516C60.5742 94.8516 60.6328 94.8164 60.6328 94.7461L60.4922 94.6641L60.5273 94.5586L60.3047 94.3008V94.2305H60.375L60.5625 94.3711L60.5273 94.4062C60.5898 94.6328 60.6875 94.7461 60.8203 94.7461V94.7109L60.7148 94.4531V94.3359L60.75 93.7148C60.5703 93.543 60.4336 93.457 60.3398 93.457L60.3047 93.4922L60.3398 93.5273V93.5977C60.2461 93.5977 60.1992 93.6602 60.1992 93.7852C60.0508 93.7852 59.9766 93.8203 59.9766 93.8906C60.0312 93.8906 60.0664 93.9531 60.082 94.0781L59.9766 94.1133L60.0117 94.3008H59.9766C59.9297 94.3008 59.9062 94.2656 59.9062 94.1953L59.8711 94.2305H59.6836C59.5586 94.2305 59.4961 94.168 59.4961 94.043C59.3789 94.043 59.3203 94.0195 59.3203 93.9727L59.5781 93.8555V93.7852C59.5 93.7852 59.3984 93.6016 59.2734 93.2344C59.5234 93.5 59.6484 93.6836 59.6484 93.7852L59.6836 93.75H59.7188L59.9062 93.7852V93.7148C59.7578 93.7148 59.6836 93.6016 59.6836 93.375L59.8359 93.3398C59.7969 93.1211 59.7227 93.0117 59.6133 93.0117L59.6836 92.9414L59.6484 92.8945V92.6016L59.8008 92.4141V92.3438L59.7188 92.0508V91.9805C59.7734 91.9805 59.8242 92.0781 59.8711 92.2734L59.9766 92.3438C60.0469 92.3438 60.082 92.2812 60.082 92.1562H60.1992C60.1992 92.2422 60.2461 92.3281 60.3398 92.4141V92.4609L60.4922 92.3438V92.4141L60.4219 92.6016L60.5977 92.7891H60.6328L60.5273 93.0469V93.082L60.6797 93.2344H60.75C60.875 93.2344 60.9492 93.1953 60.9727 93.1172L60.9375 93.0117H60.9727L61.043 92.7891L60.6328 92.4961V92.4141H60.6797L61.1602 92.7539C61.2773 92.7227 61.3359 92.6836 61.3359 92.6367L61.3008 92.6016C61.3711 92.5938 61.4219 92.5312 61.4531 92.4141L61.2656 92.2383H61.3008L61.5586 92.3789V92.3086L61.4883 92.0859H61.5234C61.5703 92.0859 61.5938 92.125 61.5938 92.2031H61.6758V92.1562L61.6289 92.1211V92.0859C61.7305 92.0859 61.7812 92.0625 61.7812 92.0156C61.7578 91.9219 61.6719 91.7969 61.5234 91.6406V91.6055H61.5938L61.9688 91.9453V91.8633H62.0391V92.0508H62.0742L62.2266 91.8984V91.8633C62.1641 91.8633 62.0781 91.7891 61.9688 91.6406V91.6055H62.0039C62.1758 91.6992 62.2617 91.7852 62.2617 91.8633L62.332 91.793L62.3672 91.8281H62.4492L62.4141 91.793V91.6875L62.4844 91.6055L62.625 91.6406L62.6719 91.4648H62.7422V91.6406L62.8125 91.7227C62.9766 91.4492 63.0859 91.3008 63.1406 91.2773ZM59.543 91.6875L59.6133 91.793V91.8281C59.5117 91.7891 59.4609 91.7539 59.4609 91.7227L59.4961 91.6875H59.543ZM59.6484 91.8633L59.7188 91.9453V91.9805L59.6484 91.8984V91.8633ZM66.0938 91.8633L66.1289 91.8984V91.9453L66.0938 91.9805H66.0234V91.9453L66.0938 91.8633ZM61.1602 92.5312H61.1953L61.2656 92.6016H61.1602V92.5312ZM59.8711 94.6641H59.9062V94.7812H59.8008V94.7461L59.8711 94.6641ZM65.2148 95.332H65.25L65.3203 95.4023L65.0977 95.5195L65.0625 95.4844V95.4492L65.2148 95.332ZM70.2305 96.5859H70.3359V96.6562H70.2305V96.5859ZM65.8359 96.8086L65.918 96.8789H65.7656L65.8359 96.8086ZM66.6914 97.582V97.6172L66.7617 97.6875H66.9141L66.9844 97.6172V97.5469L66.6914 97.582ZM65.2852 97.7344H65.4375V97.8398H65.3906L65.2852 97.8047V97.7344ZM67.4297 97.9102L67.5352 97.957V97.8398H67.5L67.4297 97.9102ZM67.3125 97.957L67.3828 98.0625C67.3828 98.1328 67.3125 98.168 67.1719 98.168V98.3203L67.125 98.5078L67.3125 98.3555L67.2773 98.25H67.3125C67.3906 98.25 67.4297 98.1641 67.4297 97.9922L67.3828 97.957H67.3125ZM69.7852 98.3906H69.8203C69.9922 98.4766 70.1289 98.5898 70.2305 98.7305H70.1953C70.0391 98.7305 69.9023 98.6172 69.7852 98.3906ZM71.0039 98.6836H71.1445V98.7656H71.0039V98.6836ZM69.2344 99.3516H69.3047V99.4688H69.2344V99.3516ZM69.0469 99.5039C69.1641 99.5039 69.2891 99.6641 69.4219 99.9844C69.2422 99.9141 69.1055 99.7773 69.0117 99.5742L69.0469 99.5391V99.5039ZM66.0938 105.176V105.211L65.9883 105.363L66.1758 105.434C66.1055 105.676 65.9805 105.836 65.8008 105.914H65.6133L65.4727 105.809L65.2852 105.844L65.3906 105.691L65.3555 105.469L65.6133 105.293L65.9531 105.328L66.0938 105.176ZM66.9141 105.176H67.0195L67.0898 105.258L67.0195 105.328H66.8672L66.7969 105.258L66.9141 105.176ZM66.6094 105.258H66.7266V105.328H66.5391L66.6094 105.258ZM66.3164 105.328H66.5391L66.4688 105.398H66.2461L66.3164 105.328ZM65.6953 106.207L65.7305 106.254V106.289L65.6953 106.324H65.6484L65.6133 106.289V106.254L65.6484 106.207H65.6953ZM62.9648 110.707L63 110.742V110.777C63 110.902 62.9609 110.977 62.8828 111L62.8477 110.965V110.93C62.8711 110.781 62.9102 110.707 62.9648 110.707ZM78.082 91.6289H78.4922C79.0547 91.6289 79.4141 91.8477 79.5703 92.2852C79.7266 92.4805 79.918 92.9336 80.1445 93.6445C80.1992 93.6445 80.2656 93.8516 80.3438 94.2656C80.4531 94.3594 80.5078 94.4688 80.5078 94.5938H80.5547L81 94.2188H81.0469L80.6367 94.7578C80.7617 94.7578 80.8555 94.9648 80.918 95.3789H81.293V95.4609H81.082L80.9648 95.5781C80.9648 95.8516 81.0742 96.5117 81.293 97.5586C81.293 97.7148 81.375 97.9336 81.5391 98.2148L81.457 99.2461C81.457 99.4102 81.6367 99.4922 81.9961 99.4922C81.9961 99.4453 82.2539 99.3633 82.7695 99.2461H82.9453L83.0625 99.3281H83.1914L83.6367 99.3633L83.8828 99.2812L83.8477 99.082L83.9648 99.1641L84.0469 99.082H84.1289V99.1641L84.0938 99.1992V99.2461H84.1758L84.4219 99L84.5039 99.082H84.6328C84.6328 98.9961 84.6602 98.9531 84.7148 98.9531H84.75C84.5781 99.3672 84.2891 99.5742 83.8828 99.5742C83.8828 99.668 83.7891 99.7344 83.6016 99.7734V99.8203C83.6016 99.8828 83.793 99.9258 84.1758 99.9492C84.3789 99.8555 84.5586 99.7305 84.7148 99.5742L84.668 99.5273V99.4922L84.8789 99.2812H84.9141V99.3633L84.8789 99.4102V99.4453H85.125C85.125 99.3828 85.2344 99.2891 85.4531 99.1641L85.7812 98.8359L85.8164 99.082L86.0273 99.0352H86.1094V99.082L86.0625 99.2461L86.1094 99.3633H86.0625L85.8633 99.2812L85.7812 99.3633L85.7344 99.3281C85.5 99.3984 85.3086 99.5195 85.1602 99.6914L84.9141 99.7734V99.8672C85.2188 99.9844 85.3828 100.078 85.4062 100.148H85.3711L84.832 99.9492L84.7969 99.9844H84.75L84.668 99.9023C84.4961 100.066 84.3711 100.148 84.293 100.148L83.8477 100.066C83.8008 100.285 83.7188 100.395 83.6016 100.395L83.3906 100.77H83.3555L83.3906 100.559H83.3555L82.9805 100.723L82.7695 100.688L82.7344 100.723H82.6875L82.6523 100.688H82.6055L82.2773 100.77L82.4062 100.969H82.3242L82.1602 100.887C82.1602 100.949 82.0625 101.004 81.8672 101.051C81.9688 101.715 82.1211 102.047 82.3242 102.047L82.2422 102.129C82.2656 102.363 82.3047 102.512 82.3594 102.574V102.867L82.2422 103.031V103.113H82.3594L82.4062 103.066H82.4414L82.4883 103.113V103.16L82.2422 103.195V103.406L82.1953 103.605C82.2812 103.605 82.3516 103.66 82.4062 103.77L82.3594 104.262L82.4883 104.391V104.426C82.4023 104.527 82.3594 104.625 82.3594 104.719V104.754L82.4883 105.34H82.4414C82.6758 105.645 82.8555 105.984 82.9805 106.359H83.0273L82.9805 106.617C82.9805 106.789 83.0508 107.035 83.1914 107.355L83.1445 107.473C83.1836 107.473 83.2383 107.609 83.3086 107.883C83.3711 107.938 83.4414 108.117 83.5195 108.422C83.6055 108.422 83.6992 108.68 83.8008 109.195H83.7188C83.6094 108.898 83.3516 108.379 82.9453 107.637V107.555L82.9805 107.52C82.7852 107.145 82.6602 106.828 82.6055 106.57L82.2773 106.031V105.832L82.3594 105.375C82.0859 105.141 81.9492 104.895 81.9492 104.637L81.9961 104.59V104.555L81.9492 104.426L82.0312 104.344V104.309L81.9492 104.145L81.9961 103.98C81.793 103.66 81.6562 103.387 81.5859 103.16L81.6211 103.113L81.5391 103.031L81.082 103.324H81.0469C81.4062 102.988 81.5859 102.766 81.5859 102.656C81.5312 102.234 81.4492 101.988 81.3398 101.918L81.375 101.719C81.3125 101.703 81.2422 101.578 81.1641 101.344C80.8984 101.398 80.625 101.496 80.3438 101.637C79.9922 101.66 79.5938 101.77 79.1484 101.965V102.047C79.1484 102.133 79.1914 102.227 79.2773 102.328L79.1133 102.375C79.0273 102.156 78.9023 102.047 78.7383 102.047C78.543 102.328 78.2695 102.52 77.918 102.621L77.8359 102.703H77.6719L77.4609 102.656C77.4609 102.797 77.3398 102.895 77.0977 102.949C77.0977 103.09 77.0703 103.16 77.0156 103.16L76.8516 103.195V103.16L76.7227 103.195L76.3594 102.984L76.6055 102.703L76.4414 102.246L77.0156 101.672C77.0156 101.758 77.0547 101.801 77.1328 101.801C77.7109 101.48 78 101.301 78 101.262L78.7383 100.805C78.8398 100.805 78.9766 100.684 79.1484 100.441C79.25 100.441 79.457 100.344 79.7695 100.148C79.9336 100.148 80.2227 100.012 80.6367 99.7383L80.9648 99.6562C80.7852 98.4766 80.6328 97.8867 80.5078 97.8867L80.4727 97.8398V97.8047L80.5078 97.7578C80.4453 97.2188 80.3242 96.7656 80.1445 96.3984C79.8711 96.0938 79.7188 95.8633 79.6875 95.707L79.3125 95.625C79.2031 95.625 79.1484 95.7617 79.1484 96.0352C79.0859 96.0352 79.0039 96.2422 78.9023 96.6562L78.8672 96.6914C78.8672 96.7461 78.7852 96.8008 78.6211 96.8555V97.0195H78.7031V97.1016C78.5625 97.1016 78.4922 97.1992 78.4922 97.3945C78.4219 97.3945 78.3125 97.5312 78.1641 97.8047V98.4609C78.0078 98.6719 77.8828 98.9883 77.7891 99.4102C77.7109 99.4102 77.6719 99.5039 77.6719 99.6914C77.5625 99.6914 77.5078 99.7891 77.5078 99.9844C77.3984 99.9844 77.2617 100.121 77.0977 100.395H76.9688V100.605L76.5234 101.555C76.5234 101.742 76.4102 101.918 76.1836 102.082L76.2656 102.211C75.9688 102.547 75.8203 102.902 75.8203 103.277L75.7734 103.324C75.9219 103.566 76.0312 103.688 76.1016 103.688L76.2305 103.652L76.3125 103.734H76.4766L76.4414 103.688V103.652L76.4766 103.605H76.5586V103.688H76.8047V103.57H76.8867L76.9336 103.77L77.2148 103.688V103.77C76.9961 103.824 76.8867 103.879 76.8867 103.934L76.9336 103.98C76.793 103.996 76.7227 104.035 76.7227 104.098C76.8008 104.098 77.0742 104.234 77.543 104.508H77.5898V104.637H77.543C77.4727 104.559 77.1719 104.406 76.6406 104.18V104.145H76.5234L76.6055 104.262V104.344H76.5586C76.4883 104.344 76.4492 104.277 76.4414 104.145L76.3125 104.262L76.1016 104.145L76.0664 104.18L76.0195 104.145L75.9844 104.18V104.391L76.1836 104.719H76.1484L75.7734 104.391L75.6914 104.473C75.6914 104.887 75.8008 105.094 76.0195 105.094C76.1445 104.953 76.2578 104.883 76.3594 104.883V104.965C76.2422 104.965 76.1562 105.02 76.1016 105.129C76.1016 105.184 76.1719 105.211 76.3125 105.211V105.293L76.0664 105.34L76.1016 105.375V105.457C75.9922 105.457 75.9375 105.484 75.9375 105.539L76.0195 105.621H75.9023L75.7734 105.539H75.5273L75.5742 105.586V105.621L75.4102 105.867V105.914H75.4922V105.949L75.8203 105.867L75.8555 105.914V105.996C75.8555 106.051 75.8008 106.078 75.6914 106.078L75.7383 106.113V106.195H75.6914L75 105.621H74.9531V105.668H75.0352V105.867C75.0352 105.922 75.0781 105.949 75.1641 105.949V106.031L74.918 106.078C74.918 106.133 74.9727 106.16 75.082 106.16V106.242H75V106.277L75.2461 106.324V106.406H75.0352L75 106.359H74.9531L74.918 106.488L75.2461 106.652L75.3633 106.617V106.699H75.2461V106.734H75.3281L75.7734 106.57H75.8203V106.617H75.7383V106.652H75.7734L76.1016 106.57H76.1484C76.1484 106.625 75.9023 106.723 75.4102 106.863C75.3789 107.02 75.2969 107.156 75.1641 107.273C75.1641 107.352 75.2188 107.391 75.3281 107.391L75.3633 107.438V107.52H75.3281C75.2109 107.41 75.1016 107.355 75 107.355H74.9531L75 107.391V107.438L74.9531 107.473H74.918L74.8711 107.355L74.8359 107.391L74.625 107.355C74.5469 107.355 74.4648 107.41 74.3789 107.52H74.332V107.555H74.3789L74.4961 107.52V107.555C74.4023 107.719 74.3203 107.801 74.25 107.801V107.883C74.3047 107.992 74.3867 108.047 74.4961 108.047V108.129L74.1328 108.047L74.0508 108.258H73.9688V108.129H73.9219L73.8047 108.211H73.7578C73.7578 108.109 73.7031 108.039 73.5938 108H73.5586L73.5117 108.047H73.4766L73.6758 108.34H73.5938V108.422H73.6758V108.457L73.6406 108.504L73.8047 108.832H73.9219V108.914C73.8281 108.914 73.7461 108.996 73.6758 109.16L73.8398 109.406H73.8047C73.6953 109.352 73.6406 109.281 73.6406 109.195H73.5117V109.242L73.5938 109.359H73.5586L73.5117 109.324H73.4766C73.4766 109.402 73.4492 109.441 73.3945 109.441C73.3398 109.441 73.3125 109.402 73.3125 109.324H73.2305V109.488L73.1836 109.699H73.1016V109.324H73.0664C73.0664 109.434 73.0234 109.488 72.9375 109.488H72.8906V109.441L72.9375 109.324L72.8203 109.242L72.7734 109.277L72.6914 109.195C72.6914 109.25 72.5703 109.32 72.3281 109.406V109.359L72.4102 109.277L72.3633 109.242V109.078L72.4453 108.996L72.4102 108.949V108.914L72.4453 108.75C72.3906 108.75 72.3633 108.707 72.3633 108.621L72.1641 108.586C72.1641 108.539 72.2578 108.484 72.4453 108.422C72.4609 108.258 72.5312 108.176 72.6562 108.176L72.5742 108.094H72.5273L72.4922 108.129H72.4453L72.4102 108.094V108.047H72.4922V107.883H72.4453L72.2461 107.965L72.3633 107.801V107.766L72.2461 107.637H72.1641C72.0859 107.723 71.9336 107.766 71.707 107.766L71.6719 107.801V107.848C71.7266 107.848 71.7656 107.93 71.7891 108.094H71.7539C71.6445 108.094 71.5898 108.16 71.5898 108.293H71.5078L71.625 108.047L71.3789 108C71.207 108.07 71.0977 108.184 71.0508 108.34L70.8398 108.293H70.6406V108.375H70.5938L70.5117 108.293L70.5938 108.211H70.8047L70.8398 108.258L71.0508 108.129L71.0039 108.094V108.047L71.0508 107.883C70.9102 107.75 70.7852 107.684 70.6758 107.684C70.6758 107.738 70.6367 107.766 70.5586 107.766L70.4297 107.719C70.4219 107.789 70.3398 107.883 70.1836 108L70.1484 107.965V107.93C70.4062 107.656 70.5703 107.52 70.6406 107.52V107.438L70.5586 107.191C70.4883 107.191 70.3359 107.082 70.1016 106.863H70.1484C70.2656 106.863 70.457 106.957 70.7227 107.145L71.0039 107.027L70.9688 106.98V106.898H71.0039L71.0508 106.945H71.0859L71.25 106.57L71.0508 106.324L71.168 106.242H71.332L71.5898 106.406H71.6719L71.7539 106.324L71.3789 105.914L71.4258 105.867H71.4609C71.5234 105.977 71.6602 106.102 71.8711 106.242V106.277L72 106.16L71.8711 105.914V105.867L72.082 106.031L72.1172 105.996C72.0625 105.824 71.9961 105.727 71.918 105.703H71.8711V105.867C71.8164 105.867 71.7617 105.758 71.707 105.539C71.5195 105.539 71.4258 105.473 71.4258 105.34H71.3789L71.25 105.457L71.2148 105.422V105.375L71.2969 105.293L71.2148 105.211H71.168L71.0508 105.293H70.9688L71.0508 105.176V105.129L71.0039 105.094V105.047L71.1328 104.93C71.0703 104.844 70.9727 104.801 70.8398 104.801L70.8047 104.754L70.5938 104.672L70.3477 104.754L70.3125 104.719V104.59L70.3945 104.508C70.4492 104.508 70.4766 104.551 70.4766 104.637H70.5117C70.7773 104.637 70.9961 104.691 71.168 104.801C71.2148 104.691 71.2695 104.637 71.332 104.637V104.59L71.25 104.473V104.426H71.2969L71.3789 104.508L71.5078 104.473V104.426C71.5078 104.371 71.4375 104.344 71.2969 104.344L71.25 104.309V104.262H71.3789L71.5898 104.309C71.5898 104.23 71.6445 104.16 71.7539 104.098C71.7539 104.238 71.8359 104.309 72 104.309H72.1992L72.082 104.145L72.1172 104.016H72.1641C72.1719 104.125 72.2109 104.18 72.2812 104.18H72.3281V104.062L72.2461 103.934V103.852C72.3164 103.852 72.3711 103.949 72.4102 104.145H72.4453L72.4922 103.98L72.4453 103.77V103.406C72.5078 103.406 72.5508 103.582 72.5742 103.934H72.6562V103.852H72.7383L72.7734 103.898H72.8203V103.77H72.8906L72.8555 103.98H72.9375L72.9727 103.77L72.9375 103.523H72.9727L72.9375 103.488V103.441L72.9727 103.406V103.359L72.8555 103.324L72.9375 103.242L73.0195 103.324C73.1992 102.66 73.3359 102.273 73.4297 102.164L73.3477 102.082C73.4414 100.715 73.5664 100.031 73.7227 100.031C73.8867 99.7969 73.9688 99.5625 73.9688 99.3281L74.0508 99.082L74.0859 99.0352V98.9531L73.9688 98.707C74.1562 98.668 74.25 98.6016 74.25 98.5078L74.4609 98.0039C74.4062 98.0039 74.3789 97.9492 74.3789 97.8398H74.332L74.2969 97.8867H74.25L74.2148 97.7227L74.0859 97.8047H74.0508L74.168 97.5586L74.1328 97.5117H74.0508C74.043 97.5977 73.918 97.668 73.6758 97.7227H73.6406L73.9688 97.3945V97.3125L73.9219 97.2656V97.2305L74.0508 97.1836V97.1016C73.9414 97.1016 73.8867 97.0742 73.8867 97.0195V96.9844H74.0039V96.9375H73.9688L73.3945 96.9844H73.2656V96.9023H73.3125C73.8281 96.8477 74.1016 96.7773 74.1328 96.6914C74.0156 96.6523 73.9336 96.582 73.8867 96.4805H73.9219L74.2969 96.5742L74.332 96.5273V96.4805L74.168 96.2344V96.0352C74.2773 96.1055 74.332 96.1992 74.332 96.3164H74.4141L74.3789 96.1172H74.4609C74.4609 96.25 74.4883 96.3164 74.543 96.3164L74.5781 95.9531H74.625C74.7109 95.9688 74.7539 96.0781 74.7539 96.2812L74.7891 96.2344H74.8359L74.8711 96.2812C74.8867 96.1719 74.9297 96.1172 75 96.1172H75.0352L75.082 96.2344L74.9531 96.3633L75.082 96.3984C75.3789 96.2344 75.5273 96.0977 75.5273 95.9883L75.9375 95.0039C75.9375 94.6992 76.0195 94.4805 76.1836 94.3477L76.2305 94.1367L76.1016 94.0195V93.9727L76.3125 94.0195V93.9727C76.3125 93.8945 76.3828 93.8398 76.5234 93.8086C76.5234 93.7305 76.5625 93.6914 76.6406 93.6914C76.8047 93.5742 76.8867 93.3516 76.8867 93.0234L77.4609 92.332C77.6016 91.8633 77.8086 91.6289 78.082 91.6289ZM73.0195 91.7109H73.1016C73.5547 91.8438 73.8281 91.9688 73.9219 92.0859H73.8867L73.0195 91.793V91.7109ZM75.1992 91.9219H75.2812V91.957L75.2461 92.0039V92.0391C75.4648 92.0391 75.6562 92.1367 75.8203 92.332H76.2656V92.4141H76.1484C76.0312 92.4141 75.9062 92.4961 75.7734 92.6602L75.8555 92.9062L75.2812 93.3164C75.2812 93.4648 75.1328 93.5742 74.8359 93.6445L74.625 93.9727H74.5781L74.707 93.6445L74.332 93.5273H74.2969C74.1641 93.6367 74.0547 93.6914 73.9688 93.6914L73.8398 93.6094L73.8047 93.6445H73.7578L73.6406 93.6094L73.5117 93.6445L73.7227 93.3984C73.6367 93.3984 73.5664 93.3438 73.5117 93.2344V93.0703L73.7227 92.6953L73.8398 92.6602V92.5781C73.7773 92.5781 73.6562 92.4961 73.4766 92.332V92.2852H73.5117L74.0039 92.5781L74.25 92.4961C74.25 92.4102 74.293 92.3672 74.3789 92.3672V92.332C74.2539 92.3164 74.1172 92.2344 73.9688 92.0859H74.0508L74.5781 92.25C74.5781 92.1953 74.7031 92.1523 74.9531 92.1211L75 92.168L75.1992 91.9219ZM81.457 94.6289L81.5039 94.6758V94.7109L81.457 94.7578H81.375V94.7109L81.457 94.6289ZM75.6914 94.875V95.0039L75.5742 95.1328H75.5273L75.4453 95.0508V95.0039C75.4453 94.9492 75.5273 94.9062 75.6914 94.875ZM74.625 95.0508L74.7891 95.25L74.7539 95.543H74.543V95.4609H74.625L74.3789 95.2969V95.168C74.4023 95.0898 74.4844 95.0508 74.625 95.0508ZM81.2578 95.2148V95.25L81.1641 95.332L81.082 95.25L81.1289 95.2148H81.2578ZM73.5117 95.6602L73.5938 95.7891L73.5117 95.8711L73.4297 95.707L73.4766 95.6602H73.5117ZM72.7383 95.9531L72.8555 96.0703L72.8203 96.1172H72.7734L72.6562 95.9883L72.6914 95.9531H72.7383ZM72.7734 96.5742H72.8203V96.6914H72.6914V96.6562L72.7734 96.5742ZM79.4414 96.5742H79.5703L79.6523 96.6562L79.5234 96.7383H79.4414L79.3594 96.6562L79.4414 96.5742ZM72.5742 97.3945H72.6562V97.4766L72.4922 97.5117V97.4766L72.5742 97.3945ZM74.25 97.8867V98.0039H74.168V97.9688L74.25 97.8867ZM85.8633 98.6719H85.8984V98.707L85.7812 98.8359V98.7539L85.8633 98.6719ZM83.7656 99H83.8008V99.0352L83.5547 99.1992V99.1641C83.6094 99.0547 83.6797 99 83.7656 99ZM92.1094 96.6562L92.1562 96.7031V96.75L92.1094 96.7969H92.0625L92.0156 96.75V96.7031L92.0625 96.6562H92.1094ZM79.6523 102.457H79.6875L79.7695 102.539L79.7344 102.574H79.6875L79.6523 102.539V102.457ZM72.8555 102.738L72.8906 102.785V102.867H72.7734V102.82L72.8555 102.738ZM72 102.785L72.0352 102.82V102.867L72 102.902H71.918V102.867L72 102.785ZM72.3281 103.066L72.4453 103.195V103.324H72.4102L72.2461 103.16L72.3281 103.066ZM71.4258 103.277H71.4609L71.543 103.359L71.5078 103.406H71.4609L71.4258 103.359V103.277ZM78.7031 103.324H78.7852L78.8672 103.406L78.7383 103.523H78.5742C78.6133 103.391 78.6562 103.324 78.7031 103.324ZM71.9531 103.488H72L72.082 103.57V103.605L71.9531 103.488ZM81.3398 103.605V103.652L81 103.898L80.9648 103.852V103.816C81.0352 103.676 81.1602 103.605 81.3398 103.605ZM71.1328 103.816L71.168 103.852V103.98H71.0859L71.0508 103.852L71.0859 103.816H71.1328ZM69.8203 104.18H69.9844L70.0664 104.262L70.0195 104.309V104.344L70.0664 104.391L69.8555 104.426L69.7266 104.309V104.262L69.8203 104.18ZM81.6211 104.262H81.75L81.668 104.344L81.6211 104.309V104.262ZM71.8359 104.344V104.426H71.7539L71.707 104.391H71.6719L71.625 104.426V104.473C71.7031 104.473 71.7852 104.512 71.8711 104.59C71.9805 104.551 72.0352 104.512 72.0352 104.473C71.9258 104.473 71.8711 104.445 71.8711 104.391L71.918 104.344H71.8359ZM71.9531 104.637L72 104.848H72.0352L72.082 104.637H71.9531ZM77.625 104.59H77.6719L77.7891 104.719V104.754H77.7539L77.625 104.719V104.59ZM76.8516 104.754H77.1328L77.2148 104.848L77.0508 104.965C76.9258 104.91 76.8594 104.855 76.8516 104.801V104.754ZM76.7227 104.801V104.883L76.5586 104.93V104.848L76.7227 104.801ZM71.9531 104.93C71.9531 105.078 71.8867 105.199 71.7539 105.293V105.375L72.1641 105.668H72.1992L72.2461 105.258V105.211C72.1602 105.211 72.1172 105.184 72.1172 105.129L72.1641 105.094C72.0781 105.094 72.0352 105.051 72.0352 104.965L72 104.93H71.9531ZM75.4453 104.93L75.4102 104.965V105.012H75.4453L75.5742 104.965V104.93H75.4453ZM75.0352 105.34C75.0352 105.473 75.1328 105.609 75.3281 105.75V105.785H75.4102L75.4453 105.504C75.3594 105.504 75.3047 105.367 75.2812 105.094L75.3633 105.012H75.3281L75.0352 105.34ZM70.4297 105.621H70.5938L70.7578 105.703L70.8867 105.668L70.9219 105.703V105.832L70.8398 105.914L70.7227 105.832C70.7227 105.91 70.668 105.949 70.5586 105.949C70.4336 105.902 70.3633 105.848 70.3477 105.785V105.703L70.4297 105.621ZM76.5234 105.621H76.5586L76.6406 105.703L76.6055 105.75H76.5234V105.621ZM70.6758 106.031L70.7227 106.078V106.113L70.6758 106.16H70.6406L70.5938 106.113V106.078L70.6406 106.031H70.6758ZM73.7227 106.816L73.7578 106.863H73.8047L73.9688 106.734H74.168C74.168 106.516 74.2227 106.406 74.332 106.406V106.324H74.25C73.9453 106.496 73.7695 106.66 73.7227 106.816ZM76.7227 106.406V106.488L76.3945 106.57V106.488L76.7227 106.406ZM74.4141 106.535C74.3984 106.699 74.3164 106.781 74.168 106.781L74.25 106.898V106.945C74.1172 107.047 74.0508 107.168 74.0508 107.309L74.0859 107.355H74.1328L74.2148 107.273H74.25L74.168 107.391L74.3789 107.438L74.4961 107.273L74.4141 107.191C74.4531 106.832 74.5078 106.652 74.5781 106.652L74.543 106.535H74.4141ZM72.4453 107.027C72.4453 107.16 72.3789 107.227 72.2461 107.227V107.355L72.4453 107.391H72.5273V107.355L72.4922 107.027H72.4453ZM72.1172 107.438L72.082 107.473V107.555H72.2812C72.2812 107.516 72.2266 107.477 72.1172 107.438ZM70.0195 108.129H70.1016V108.176L69.9375 108.293L69.9023 108.258V108.211L70.0195 108.129ZM71.8711 108.129H71.918V108.258H71.7891V108.211L71.8711 108.129ZM71.2148 108.457L71.25 108.504V108.586H71.2148L71.1328 108.504L71.168 108.457H71.2148ZM71.5078 109.488H71.543V109.523L71.4609 109.605H71.4258V109.57L71.5078 109.488ZM80.7539 91.1602H80.7891L80.8711 91.2422V91.2773H80.7891L80.7539 91.1602ZM82.9102 91.2773H82.9922V91.4414L82.9102 91.5234L82.8633 91.4883V91.4414L82.9102 91.2773ZM87.75 91.4062H87.7852L87.9492 91.5703V91.6055H87.9023L87.75 91.4414V91.4062ZM88.8047 91.8164L88.8398 91.8516C88.8008 91.9609 88.7617 92.0156 88.7227 92.0156H88.6758V91.9336L88.8047 91.8164ZM89.0859 92.0508V92.0977C89.0469 92.207 89.0078 92.2617 88.9688 92.2617C88.9688 92.332 89.0742 92.4141 89.2852 92.5078L89.332 92.3789L89.2852 92.3438V92.2148L89.5781 92.3438L89.6133 92.2969V92.3789H89.6602V92.2969H89.6953C89.6953 92.4062 89.7227 92.4609 89.7773 92.4609L89.7422 92.5078C89.7422 92.5859 89.7812 92.625 89.8594 92.625V92.707H89.7422L89.7773 92.7422V92.7891H89.6602L89.7422 92.9062L89.6953 92.9531L89.6602 92.9062H89.5781V93.1523L89.6953 93.5625C89.7578 93.5625 89.8125 93.4688 89.8594 93.2812H89.9766V93.3633L90.2227 93.2344V93.2812L90.1875 93.4336L90.3867 93.3984L90.4688 93.4805V93.5625H90.3867L90.4336 93.5977V93.6445L90.3867 93.6797L90.4336 93.7266V93.7617L90.3867 93.8086V93.8438C90.543 93.8281 90.6641 93.7891 90.75 93.7266H90.7969V93.8086C90.7109 93.8086 90.668 93.8359 90.668 93.8906V94.0078H90.8789V93.9258H90.9609V94.0898L90.9961 94.0547H91.1602V94.125L90.9141 94.207L90.9609 94.2539V94.2891L90.9141 94.3359H90.832C90.832 94.2734 90.7773 94.2188 90.668 94.1719H90.6328V94.207L90.832 94.5352L90.8789 94.5H91.043C91.043 94.5547 91 94.582 90.9141 94.582V94.6172H91.207V94.6992L91.1602 94.7461V94.7812C91.543 94.9609 91.7344 95.2852 91.7344 95.7539C91.875 95.8242 91.9844 95.9336 92.0625 96.082V96.2461C91.9453 96.7617 91.7539 97.1562 91.4883 97.4297C91.418 97.7422 91.2148 97.9844 90.8789 98.1562C90.8008 98.2812 90.5547 98.5 90.1406 98.8125C90.0156 99.2188 89.8398 99.4219 89.6133 99.4219L89.332 99.7031H89.4141C90.9688 99.5938 92.2031 99.5391 93.1172 99.5391L93.1523 99.5859C93.1523 99.5156 93.3281 99.4336 93.6797 99.3398L93.8438 99.375L94.418 99.3398H94.4531C94.6797 99.3398 94.832 99.4492 94.9102 99.668C95.3789 99.8398 95.8242 100.312 96.2461 101.086L96.3281 101.906C96.1875 102.664 96.0508 103.043 95.918 103.043C95.793 103.137 95.6055 103.395 95.3555 103.816L93.4453 105.199C92.4375 105.723 91.9336 106.129 91.9336 106.418C91.9336 106.566 91.7031 106.73 91.2422 106.91C91.2422 107.184 91.0117 107.371 90.5508 107.473C90.3867 107.668 90.2383 107.766 90.1055 107.766C90.4336 107.43 90.7188 107.211 90.9609 107.109C90.9609 106.812 91.2305 106.582 91.7695 106.418C91.7695 106.285 91.9883 105.906 92.4258 105.281C92.5898 104.906 92.75 104.66 92.9062 104.543C92.9297 104.395 93.0273 104.234 93.1992 104.062C93.3789 103.602 93.5391 103.371 93.6797 103.371L94.0898 102.551V102.305C94.0898 102.242 93.9805 102.176 93.7617 102.105L93.7266 102.07V101.824C93.6406 101.824 93.5977 101.797 93.5977 101.742V101.66L93.6445 101.613V101.578C93.3711 101.516 93.2344 101.406 93.2344 101.25L93.0352 101.133H92.9531L92.8242 101.215H91.8164C91.7227 101.105 91.6406 101.051 91.5703 101.051L91.125 101.168H90.7148L90.668 101.133L90.6328 101.168H90.5977C89.9336 101.059 89.4844 100.922 89.25 100.758C89.1172 100.758 88.8594 100.691 88.4766 100.559C88.3516 100.676 88.2578 100.812 88.1953 100.969C88.3047 100.984 88.3594 101.023 88.3594 101.086H88.2773L88.1484 101.051V101.086L88.1953 101.133C88.1641 101.352 88.1211 101.461 88.0664 101.461C88.0977 101.664 88.2734 101.945 88.5938 102.305C88.8125 102.68 89.0195 102.91 89.2148 102.996V103.078C88.9727 102.977 88.7148 102.691 88.4414 102.223L88.1133 101.906C87.9492 101.719 87.8672 101.543 87.8672 101.379L87.8203 101.332H87.7852L87.7031 101.414V101.379L87.7852 101.215C87.543 101.215 87.3672 101.078 87.2578 100.805C87.3672 100.758 87.4219 100.664 87.4219 100.523L87.375 100.477C87.5703 100.445 87.668 100.336 87.668 100.148H87.75C87.75 100.242 87.707 100.34 87.6211 100.441L87.9492 100.559V100.523C87.9492 100.453 88.2344 100.098 88.8047 99.457C88.8984 99.1914 89.2227 98.8125 89.7773 98.3203L90.0586 97.8281C89.957 97.3359 89.8789 96.7812 89.8242 96.1641L89.7773 96.1289V95.918C89.8789 95.7852 89.9609 95.7188 90.0234 95.7188C90.0234 95.6328 89.9141 95.5781 89.6953 95.5547V95.5898L89.3672 95.8359H89.332V95.7539L89.6602 95.5195L89.5781 95.3086L89.0039 95.7188V95.6367L89.2852 95.3555C89.4102 94.9258 89.5078 94.6797 89.5781 94.6172V94.582C89.4688 94.582 89.4141 94.5273 89.4141 94.418H89.332L89.2852 94.4531H89.25L89.0859 94.3711L89.0508 94.418V94.4531L89.1328 94.6172H89.0859C89.0156 94.6172 88.9766 94.5625 88.9688 94.4531L88.9219 94.5H88.8867L88.8398 94.4531C88.8398 94.5938 88.7852 94.6641 88.6758 94.6641L88.6406 94.6172C88.4609 94.9062 88.3125 95.0703 88.1953 95.1094H88.1484L88.6758 94.3711V94.3359L88.6406 94.3711H88.4414L88.3945 94.2539L87.9492 94.207C87.4336 94.2617 87.1758 94.3984 87.1758 94.6172H87.0938L87.0117 94.5352V94.5C87.2539 94.25 87.6484 94.125 88.1953 94.125C88.2578 93.9922 88.3242 93.9258 88.3945 93.9258V93.8438C88.1914 93.6562 87.3789 93.4531 85.957 93.2344H85.3008V93.1523H86.0391C86.5234 93.1523 86.9297 93.1953 87.2578 93.2812C87.2578 93.1719 87.2852 93.1172 87.3398 93.1172L87.5039 93.2812L87.668 93.1172C87.668 93.2266 87.8555 93.3203 88.2305 93.3984V93.3633L88.1953 93.2344H88.2305L88.3945 93.1992L88.3594 93.0352L88.0664 93.0703V92.9883L88.3125 92.9531L88.2773 92.9062V92.8711L88.3125 92.8242V92.7891L88.1484 92.625H88.1953L88.4414 92.7891L88.5586 92.7422C88.5586 92.8516 88.6133 92.9062 88.7227 92.9062V92.9883L88.6758 93.0352V93.0703H88.8047C88.8125 92.9609 88.8672 92.9062 88.9688 92.9062V92.9531L88.8398 93.1523H88.8867L89.1328 93.1172C89.2344 93.2031 89.3125 93.3242 89.3672 93.4805C89.3672 93.5352 89.2891 93.5742 89.1328 93.5977V93.6445C89.3203 93.6445 89.4805 93.7109 89.6133 93.8438H89.6953V93.8086C89.4766 93.543 89.3672 93.3672 89.3672 93.2812C89.3672 93.1172 89.2891 93.0352 89.1328 93.0352C89.1328 92.8945 89.0234 92.8242 88.8047 92.8242C88.6094 92.5898 88.3789 92.4297 88.1133 92.3438V92.2969H88.1953L88.4766 92.3438V92.2969L88.4414 92.2617V92.2148C88.4961 92.2148 88.5234 92.1758 88.5234 92.0977H88.5586L88.6758 92.1797L88.7227 92.1328L88.9688 92.2148V92.1797L89.0859 92.0508ZM83.8008 92.1328V92.1797L83.7188 92.2617V92.2148L83.8008 92.1328ZM85.1836 92.4258H85.2656V92.4609L85.1836 92.543H85.1016V92.5078L85.1836 92.4258ZM82.1719 92.5078L82.2539 92.5898L82.2188 92.625H82.1367L82.1719 92.5078ZM83.7656 92.6602C83.8516 92.668 83.9844 92.793 84.1641 93.0352H84.2812C84.2812 92.8555 84.3359 92.7461 84.4453 92.707L84.3633 92.9883H84.4922L84.6094 92.9062L84.6562 92.9531V92.9883L84.6094 93.0352V93.0703L84.9375 93.4336V93.4805C84.9375 93.5352 84.8984 93.5625 84.8203 93.5625V93.5977C84.8203 93.6445 84.9141 93.6875 85.1016 93.7266C85.1016 93.8594 85.2109 93.9258 85.4297 93.9258V94.0078L85.1367 93.9727H85.1016V94.0078L85.2188 94.2891V94.4531L85.1836 94.5L85.2188 94.5352V94.6992L85.1367 94.8281L85.3828 94.9805C85.3828 95.0352 85.3438 95.0625 85.2656 95.0625L85.4297 95.1914V95.2734L85.3828 95.3906C85.6562 95.5 85.793 95.7188 85.793 96.0469V96.1289H85.8281L85.875 96.082H85.9102L85.9922 96.3281C85.9922 96.4141 85.9102 96.5625 85.7461 96.7734L86.2031 97.1367V97.1836L86.1562 97.3828C86.2656 97.4297 86.3203 97.5273 86.3203 97.6758L86.2031 97.793L86.2383 98.0391C86.0508 98.3828 85.957 98.8008 85.957 99.293C86.1758 100.145 86.3789 100.633 86.5664 100.758C86.7305 101.148 86.9062 101.406 87.0938 101.531L87.1289 101.695C87.1289 101.836 87.1055 101.906 87.0586 101.906L87.0938 102.023C87.2891 102.023 87.4531 101.859 87.5859 101.531H87.668C87.668 101.625 87.5859 101.777 87.4219 101.988V102.023C87.5156 102.023 87.5977 102.215 87.668 102.598L87.5039 102.879H87.375C87.1797 102.879 87.0195 102.715 86.8945 102.387H86.8477V102.469L87.0938 103.125C87.1719 103.148 87.2812 103.488 87.4219 104.145C87.625 104.574 87.7578 104.98 87.8203 105.363V105.609L88.0664 105.891L88.0312 106.09V106.137C88.2344 106.746 88.4102 107.164 88.5586 107.391H88.6406L88.5938 107.438V107.473L88.7227 107.555L88.8047 107.473H88.8867V107.52L88.7227 107.637L88.6758 107.684V107.719C88.6758 107.773 88.7188 107.801 88.8047 107.801V107.883L88.7578 107.93V107.965H89.0508V108.047H88.8398L88.7578 108.117V108.246C88.7578 108.309 88.8281 108.348 88.9688 108.363L89.1328 108.199H89.168V108.246L89.0508 108.41V108.445L89.25 108.527L89.2148 108.574V108.656C89.3164 108.664 89.3672 108.703 89.3672 108.773H89.2852L89.0508 108.656C88.9648 108.656 88.9219 108.707 88.9219 108.809H88.8398V108.773L88.8867 108.738V108.691L88.7227 108.574L88.8398 108.41L88.8047 108.363H88.7578L88.7227 108.41H88.6758L88.5586 108.363L88.5938 108.41V108.492H88.4766C88.4766 108.578 88.5156 108.672 88.5938 108.773L88.5234 108.938H88.6758V109.02L88.4766 108.973V109.102L88.6406 109.219L88.6758 109.266V109.301H88.5938L88.3945 109.219V109.266L88.3594 109.301L88.4414 109.547H88.3594C88.3594 109.438 88.332 109.383 88.2773 109.383C88.1758 109.383 87.9453 109.641 87.5859 110.156V110.121L87.7852 109.664V109.43L87.668 109.301C87.6211 109.301 87.5664 109.395 87.5039 109.582H87.457V109.43L87.5039 109.383L87.457 109.348V109.266H87.5391V109.219L87.4219 109.102L87.2109 109.184V109.102H87.293L87.1758 108.973L87.2109 108.773L87.1758 108.738H87.1289L86.9766 108.973V109.137L87.0586 109.266L86.9766 109.348L86.8125 109.102L86.6836 109.266C86.6055 109.266 86.5508 109.156 86.5195 108.938L86.3203 108.973V108.891H86.2852C86.2852 108.977 86.2148 109.059 86.0742 109.137V109.055L86.1562 108.773C85.9062 108.844 85.6758 109.047 85.4648 109.383L85.3828 109.301C85.3828 109.16 85.5469 108.996 85.875 108.809L85.8281 108.773V108.691C85.9453 108.691 86.0547 108.625 86.1562 108.492H86.2031V108.445L86.0742 108.41L85.957 108.445V108.41L85.9922 108.281H85.875L85.9102 108.246V108.199H85.793L85.6758 108.328V108.363L85.7109 108.41V108.445L85.6758 108.492H85.6289C85.6133 108.406 85.5586 108.352 85.4648 108.328V108.246L85.4297 108.281H85.3828L85.3008 108.199L85.6289 108C85.6289 107.953 85.5469 107.887 85.3828 107.801V107.719C85.4844 107.805 85.582 107.848 85.6758 107.848H85.7109L85.7461 107.719C85.668 107.719 85.6016 107.664 85.5469 107.555H85.5938L85.9102 107.684V107.637C85.9102 107.559 85.9648 107.52 86.0742 107.52V107.473L85.6289 107.32V107.273L85.6758 107.238V107.191C85.3477 107.059 85.1836 106.965 85.1836 106.91H85.2656L86.0742 107.32L86.1211 107.273V107.238L86.0742 106.992C86.1836 107.008 86.2383 107.117 86.2383 107.32C86.3711 107.25 86.4375 107.113 86.4375 106.91L86.3672 106.828V106.746H86.4375C86.4453 106.879 86.4883 106.945 86.5664 106.945L86.6016 106.91C86.5234 106.668 86.4453 106.547 86.3672 106.547L86.2852 106.617H86.2031L86.4844 106.383L86.4375 106.336L86.5195 105.973L86.1562 105.609V105.527C86.1641 105.387 86.1914 105.316 86.2383 105.316C86.0508 104.902 85.957 104.633 85.957 104.508L85.9102 104.461V104.309L85.957 104.145C85.8711 104.074 85.8164 103.762 85.793 103.207C85.5195 102.77 85.3828 102.469 85.3828 102.305V102.152L85.4297 101.777C85.3984 101.668 85.3438 101.613 85.2656 101.613V101.531H85.3477L85.0195 101.168V101.133L85.2656 101.332H85.3008C85.3008 101.199 85.3281 101.09 85.3828 101.004C85.25 100.895 85.1836 100.773 85.1836 100.641V100.605L85.3008 100.277C85.1836 100.059 85.0625 99.582 84.9375 98.8477L84.7383 98.6484L84.7734 98.6016V98.5664C84.5859 98.1133 84.4766 97.7461 84.4453 97.4648L84.4102 97.4297L84.5273 96.7383C84.2305 96.3242 84.082 95.9414 84.082 95.5898L84.0469 95.6367H83.8828V95.5898C83.9922 95.5898 84.0469 95.5508 84.0469 95.4727L83.918 95.2734H84.0469V95.2266C84.0469 95.1719 83.9922 95.1445 83.8828 95.1445L83.8477 95.1094V95.0625L83.8828 95.0273L83.7656 94.9805L83.6016 95.0273C83.5391 95.0273 83.5 94.9609 83.4844 94.8281L83.5195 94.7812H83.5547L83.6016 94.8281H83.6367V94.6992C83.5039 94.6992 83.3828 94.5781 83.2734 94.3359L83.5195 94.125V94.0898L83.3555 93.8906L83.4375 93.7617L83.4023 93.7266H83.3555L83.1094 93.9258L83.1562 94.125C83.0469 94.1719 82.9922 94.2148 82.9922 94.2539L83.2383 94.7812H83.1094C83.1953 95.0234 83.3047 95.1445 83.4375 95.1445V95.2266H83.3555L83.4375 95.3086H83.8828C83.8828 95.3555 83.7617 95.3984 83.5195 95.4375C83.5195 95.5078 83.3828 95.6562 83.1094 95.8828C83.1094 96.0078 83.0273 96.1289 82.8633 96.2461H82.793V96.2109L82.9922 95.9648C82.9141 95.8711 82.75 95.8008 82.5 95.7539V95.8008L82.3828 95.918H82.3359L82.5 95.6367L82.4648 95.5898L82.418 95.6367H82.3359V95.5547C82.4219 95.5547 82.4648 95.5273 82.4648 95.4727V95.4375H82.1016V95.3555H82.4648C82.4648 95.3008 82.4219 95.2734 82.3359 95.2734L82.3008 95.2266V95.1914L82.3359 95.1445L82.3008 95.1094H82.3359L82.4648 95.1445V95.1094L82.5 94.8984L82.3828 94.9805H82.3008V94.8984L82.3828 94.7812V94.6992L82.2539 94.6641L81.9727 95.1094H81.9375V95.0625L82.1367 94.7461C81.9492 94.6133 81.8555 94.5156 81.8555 94.4531L81.6094 94.5L81.4805 94.4531V94.3711L81.7734 94.3359H81.8906C81.8906 94.25 81.9336 94.207 82.0195 94.207V94.125C81.9102 94.125 81.8555 94.1016 81.8555 94.0547H81.9727L82.0195 94.0898H82.0547C82.0547 94.0352 82.1211 94.0078 82.2539 94.0078V93.9727C82.1758 93.9727 82.1367 93.9297 82.1367 93.8438H82.0547V93.7617H82.1016L82.3008 93.8086V93.7266C82.207 93.7266 82.0859 93.6172 81.9375 93.3984H81.9727L82.1719 93.5625H82.2188L82.2539 93.5156H82.3008L82.2539 93.4805V93.2812L82.3008 92.9883H82.3828L82.3359 93.2812H82.418V93.4336L82.3828 93.4805V93.5156H82.418L82.4648 93.4805H82.5V93.5625H82.582L82.7109 93.0352H82.793L82.7461 93.3984C82.8008 93.3984 82.8672 93.2773 82.9453 93.0352L83.2734 92.7891L83.4844 92.8242H83.7656L83.6836 92.707L83.7188 92.6602H83.7656ZM90.3867 92.8242H90.4336L90.5156 92.9062L90.3516 92.9531L90.3867 92.8242ZM91.0781 93.5625L91.125 93.5977V93.6445L90.9141 93.7617H90.8789V93.6797L91.0781 93.5625ZM80.707 93.8906L80.918 93.9258V94.0078H80.7891L80.707 93.9258V93.8906ZM85.7461 94.0078H85.957V94.0898H85.8281L85.7461 94.0078ZM89.4141 94.4531C89.4141 94.5391 89.4414 94.582 89.4961 94.582V94.6172L89.3672 94.7461L89.2852 94.5L89.332 94.4531H89.4141ZM81.8086 94.582H81.8906V94.6992H81.8086V94.582ZM82.9453 94.6641V94.7461L82.9922 94.8633H82.9453L82.8281 94.7812V94.8633L82.8633 94.9805C82.9727 94.957 83.0273 94.8906 83.0273 94.7812L82.9922 94.6641H82.9453ZM82.7109 94.7812V94.9453L82.7461 94.8984H82.793L82.7461 94.7812H82.7109ZM81.5273 94.8633L81.5625 94.8984V94.9453L81.5273 94.9805H81.4805L81.4453 94.9453V94.8984L81.4805 94.8633H81.5273ZM86.7656 95.1094L86.8125 95.1445V95.1914C86.7812 95.2695 86.6992 95.3086 86.5664 95.3086H86.4844L86.4023 95.2266L86.7656 95.1094ZM82.0195 95.3906V95.4375C81.7305 95.625 81.5664 95.7852 81.5273 95.918L81.4102 95.9648L81.3633 95.918V95.8828C81.6055 95.5938 81.8242 95.4297 82.0195 95.3906ZM88.0664 95.4375L87.9023 95.5898H87.8672V95.5547C87.8672 95.4922 87.9336 95.4531 88.0664 95.4375ZM80.9531 95.5547H81V95.5898L80.918 95.6719H80.8711V95.6367L80.9531 95.5547ZM83.3555 95.7539H83.4375L83.5547 95.8828H83.5195L83.3555 95.7539ZM88.9219 95.8008V95.8359C88.6562 96.1719 88.5234 96.3906 88.5234 96.4922H88.4414L88.3945 96.3633C88.4102 96.2617 88.5859 96.0742 88.9219 95.8008ZM81.2812 96.1289L81.4805 96.1641V96.2461L81.3633 96.3633H81.2812L81.1992 96.293V96.2109L81.2812 96.1289ZM82.1367 96.5273L82.2188 96.6094L82.1719 96.6562H82.1367V96.5273ZM83.3203 96.6094L83.3555 96.6562V96.6914L83.2734 96.7734L83.2383 96.7383V96.6914L83.3203 96.6094ZM94.7812 98.7656V98.8125L94.6992 98.8945L94.6172 98.8125L94.6641 98.7656H94.7812ZM94.3359 99.0586H94.5L94.582 99.1406V99.1758L94.5 99.2578H94.4531L94.2539 99.2227V99.1406L94.3359 99.0586ZM84.2109 100.84L84.2812 100.922V100.969H84.2109V100.84ZM83.918 101.531L84.0469 101.66L84 101.695H83.9648V101.66L83.918 101.695H83.8828L83.7656 101.578L83.8008 101.531H83.918ZM91.3242 101.777H91.4414V101.859H91.4062L91.3242 101.777ZM92.4258 101.859H92.4609V101.906C92.1953 102.078 92.0625 102.199 92.0625 102.27L92.6719 102.633L92.707 102.598H92.8711L92.9883 102.715L92.8242 102.797C92.4336 102.578 92.1914 102.469 92.0977 102.469C92.0273 102.469 91.9453 102.523 91.8516 102.633H91.7695L91.7344 102.598L91.5703 102.68L91.4062 102.598L91.4414 102.387V102.352H91.4062L90.9141 102.387V102.305L91.5703 102.223C91.5703 102.176 91.5273 102.152 91.4414 102.152L91.4062 102.105V102.07L91.4414 102.023H91.4883L91.6875 102.07C91.6875 101.977 91.7695 101.922 91.9336 101.906L92.0156 101.988C92.2188 101.965 92.3555 101.922 92.4258 101.859ZM93.1172 102.762L93.3164 102.797V102.926L93.1172 102.879V102.762ZM83.5195 103.324L83.6016 103.406C83.5547 103.516 83.4609 103.57 83.3203 103.57L83.2734 103.535V103.488L83.5195 103.324ZM90.3516 103.898H90.4688L90.3867 103.98H90.3516V103.898ZM95.918 104.016L95.9648 104.062V104.098L94.9102 105.234V105.281C95.0664 105.281 95.1445 105.348 95.1445 105.48L95.1094 105.609L95.1445 105.562H95.1914V105.609L95.1445 105.645V105.691L95.1914 105.727L95.0625 105.773L95.1094 105.973L95.0625 105.926L95.0273 105.973H94.9805L94.9453 105.926H94.9102V105.973L94.9453 106.09H94.9102L94.7461 105.973H94.6641V106.055L94.6172 106.008C94.4297 106.008 94.3359 106.105 94.3359 106.301H94.2539C94.2539 106.191 94.2148 106.137 94.1367 106.137C94.1367 106.066 94.0664 106.023 93.9258 106.008L93.8906 106.055V106.008L93.9258 105.973V105.926L93.8906 105.773V105.727H94.0078L93.9727 105.691V105.645H94.0078L93.9727 105.609V105.527C94.0273 105.527 94.0547 105.484 94.0547 105.398H94.1719L94.1367 105.363V105.281L94.2539 105.363V105.316L94.207 105.281V105.234H94.2539L94.2891 105.281H94.3359C94.3359 105.172 94.375 105.117 94.4531 105.117V105.082L94.5 105.117H94.582C94.582 105.039 94.6094 105 94.6641 105H94.6992V105.035L94.6641 105.082L94.6992 105.199H94.7461L95.918 104.016ZM85.5469 106.301L85.6289 106.418L85.5938 106.465H85.4648L85.3828 106.383V106.336L85.5469 106.301ZM89.9414 106.617C90.0586 106.617 90.1406 106.688 90.1875 106.828L90.0586 106.91L89.8594 106.781L89.5312 106.828C89.5312 106.758 89.668 106.688 89.9414 106.617ZM84.4922 106.699L84.6094 106.992C84.4297 107.062 84.2969 107.145 84.2109 107.238C84.1016 107.191 84.0469 107.094 84.0469 106.945C84.1562 106.945 84.2109 106.906 84.2109 106.828C84.2109 106.766 84.3047 106.723 84.4922 106.699ZM89.5312 106.828L89.25 107.027H89.168C89.168 106.949 89.2891 106.883 89.5312 106.828ZM86.6016 107.027L86.5664 107.156L86.6016 107.32L86.7305 107.273L86.6484 107.027H86.6016ZM84.4453 107.109H84.4922L84.6094 107.273L84.5742 107.32H84.4922L84.3633 107.191L84.4453 107.109ZM89.0508 107.109L88.8047 107.32H88.7578C88.8438 107.18 88.9414 107.109 89.0508 107.109ZM84.2109 107.273H84.2461C84.3086 107.273 84.3477 107.34 84.3633 107.473L84.2461 107.555H84.1641C84.1094 107.555 84.082 107.516 84.082 107.438L84.2109 107.273ZM86.6836 107.438L86.7656 107.52L86.8477 107.438L86.7656 107.355L86.6836 107.438ZM84.4453 107.473H84.5273V107.602H84.4453V107.473ZM87.75 108.082V108.117L87.8203 108.363H87.8672L87.9492 108.164L87.75 108.082ZM87.668 108.328C87.668 108.492 87.5586 108.574 87.3398 108.574L87.457 108.691C87.582 108.645 87.6914 108.551 87.7852 108.41L87.668 108.328ZM85.3828 108.691H85.5117V108.773H85.3828V108.691ZM86.7305 108.809L86.6836 109.02L86.7656 109.102L86.8125 108.891L86.7305 108.809ZM89.168 109.137H89.2148L89.2852 109.219H89.168V109.137ZM85.1367 109.184H85.1836V109.266L85.1016 109.348L85.0195 109.266L85.1367 109.184ZM87.9023 109.266L87.8672 109.465V109.512C87.9219 109.496 87.9766 109.426 88.0312 109.301L87.9844 109.266H87.9023ZM87.0117 109.383L87.1289 109.512V109.582L87.0117 109.465V109.383ZM90.4336 109.383H90.4688L90.5508 109.465V109.512H90.5156L90.4336 109.43V109.383ZM87.2109 109.992L87.2578 110.039V110.074L87.2109 110.121H87.1289V110.074L87.2109 109.992ZM88.9688 109.992L89.0508 110.074L89.0039 110.121H88.9219L88.8398 110.039L88.8867 109.992H88.9688ZM87.9844 110.203L88.0312 110.238V110.285H87.9023L87.9844 110.203Z" fill="white"/>
<g clip-path="url(#clip0_14_396)">
<rect x="28" y="117" width="85" height="85" fill="#0F104C" fill-opacity="0.5"/>
<path d="M28.2 185.2H44.8V201.8H28.2V185.2Z" stroke="#5F0D16" stroke-width="0.4"/>
<path d="M28.2 168.2H44.8V184.8H28.2V168.2Z" stroke="#5F0D16" stroke-width="0.4"/>
<path d="M28.2 151.2H44.8V167.8H28.2V151.2Z" fill="white"/>
<path d="M28.2 151.2H44.8V167.8H28.2V151.2Z" stroke="#5F0D16" stroke-width="0.4"/>
<path d="M28.2 134.2H44.8V150.8H28.2V134.2Z" stroke="#5F0D16" stroke-width="0.4"/>
<path d="M28.2 117.2H44.8V133.8H28.2V117.2Z" stroke="#5F0D16" stroke-width="0.4"/>
<path d="M45.2 185.2H61.8V201.8H45.2V185.2Z" stroke="#5F0D16" stroke-width="0.4"/>
<path d="M45.2 168.2H61.8V184.8H45.2V168.2Z" stroke="#5F0D16" stroke-width="0.4"/>
<path d="M45.2 151.2H61.8V167.8H45.2V151.2Z" stroke="#5F0D16" stroke-width="0.4"/>
<path d="M45.2 134.2H61.8V150.8H45.2V134.2Z" stroke="#5F0D16" stroke-width="0.4"/>
<path d="M45.2 117.2H61.8V133.8H45.2V117.2Z" stroke="#5F0D16" stroke-width="0.4"/>
<path d="M62.2 185.2H78.8V201.8H62.2V185.2Z" stroke="#5F0D16" stroke-width="0.4"/>
<path d="M62.2 168.2H78.8V184.8H62.2V168.2Z" stroke="#5F0D16" stroke-width="0.4"/>
<path d="M62.2 151.2H78.8V167.8H62.2V151.2Z" fill="#EB1E1E"/>
<path d="M62.2 151.2H78.8V167.8H62.2V151.2Z" stroke="#5F0D16" stroke-width="0.4"/>
<path d="M62.2 134.2H78.8V150.8H62.2V134.2Z" fill="white"/>
<path d="M62.2 134.2H78.8V150.8H62.2V134.2Z" stroke="#5F0D16" stroke-width="0.4"/>
<path d="M62.2 117.2H78.8V133.8H62.2V117.2Z" stroke="#5F0D16" stroke-width="0.4"/>
<path d="M79.2 185.2H95.8V201.8H79.2V185.2Z" stroke="#5F0D16" stroke-width="0.4"/>
<path d="M79.2 168.2H95.8V184.8H79.2V168.2Z" stroke="#5F0D16" stroke-width="0.4"/>
<path d="M79.2 151.2H95.8V167.8H79.2V151.2Z" stroke="#5F0D16" stroke-width="0.4"/>
<path d="M79.2 134.2H95.8V150.8H79.2V134.2Z" stroke="#5F0D16" stroke-width="0.4"/>
<path d="M79.2 117.2H95.8V133.8H79.2V117.2Z" stroke="#5F0D16" stroke-width="0.4"/>
<path d="M96.2 185.2H112.8V201.8H96.2V185.2Z" stroke="#5F0D16" stroke-width="0.4"/>
<path d="M96.2 168.2H112.8V184.8H96.2V168.2Z" stroke="#5F0D16" stroke-width="0.4"/>
<path d="M96.2 151.2H112.8V167.8H96.2V151.2Z" fill="white"/>
<path d="M96.2 151.2H112.8V167.8H96.2V151.2Z" stroke="#5F0D16" stroke-width="0.4"/>
<path d="M96.2 134.2H112.8V150.8H96.2V134.2Z" stroke="#5F0D16" stroke-width="0.4"/>
<path d="M96.2 117.2H112.8V133.8H96.2V117.2Z" stroke="#5F0D16" stroke-width="0.4"/>
</g>
<rect x="28.5" y="117.5" width="84" height="84" stroke="url(#paint1_linear_14_396)"/>
<defs>
<linearGradient id="paint0_linear_14_396" x1="70.5" y1="17" x2="70.5" y2="83" gradientUnits="userSpaceOnUse">
<stop stop-color="#123BD5"/>
<stop offset="1" stop-color="#CD2237"/>
</linearGradient>
<linearGradient id="paint1_linear_14_396" x1="31.7979" y1="120.436" x2="138.59" y2="226.777" gradientUnits="userSpaceOnUse">
<stop stop-color="#B17BFF"/>
<stop offset="1" stop-color="#FF0751"/>
</linearGradient>
<clipPath id="clip0_14_396">
<rect x="28" y="117" width="85" height="85" fill="white"/>
</clipPath>
</defs>
</svg>
