<svg width="142" height="218" viewBox="0 0 142 218" fill="none" xmlns="http://www.w3.org/2000/svg">
<rect x="0.5" y="0.5" width="141" height="217" rx="4.5" fill="#191515"/>
<rect x="0.5" y="0.5" width="141" height="217" rx="4.5" stroke="#B17BFF"/>
<path d="M90.21 81.01C89.58 80.11 89.13 78.94 88.86 77.77C88.59 76.6 88.41 75.34 88.41 73.99L90.21 73.36C92.1 70.21 93.36 66.79 93.99 63.19C94.62 59.59 94.89 55.9 95.16 52.21L94.26 49.6H91.29C88.77 49.78 86.34 50.14 83.82 50.95C81.39 51.76 79.05 52.57 76.62 53.38L73.11 50.68L72.75 49.87H74.01L75.18 50.14C78.33 48.97 81.48 47.98 84.72 47.26C87.96 46.63 91.2 46.18 94.62 45.73L94.89 44.56H96.06C97.86 45.19 99.66 45.73 101.55 46.36C103.35 46.9 105.06 47.71 106.59 48.7L106.86 50.14L103.71 51.31C101.55 55.99 99.48 60.85 97.59 65.62C95.52 70.57 93.99 75.61 92.82 80.65L91.11 81.01L90.48 80.65L90.21 81.01ZM45.21 78.4V78.04L42.78 75.43L42.51 74.26H41.61V73.63H41.97C42.51 71.29 42.96 68.86 43.23 66.25C43.5 63.73 43.68 61.3 43.68 58.69C43.68 56.71 43.41 54.82 42.78 53.11C42.24 51.31 41.7 49.6 41.07 47.8L40.44 46.36H39.81L35.76 56.89H35.13L34.59 58.96V58.06H33.96L33.69 59.23V58.69L33.96 57.52H34.59L35.13 54.19H35.4L38.91 43.66H39.27C40.08 40.33 40.98 37 42.15 33.67C43.14 30.34 43.95 26.92 44.58 23.41L43.95 22.24L43.05 21.88V21.34L41.07 20.98L38.46 22.51L37.2 25.39L38.91 27.19L39.54 31.6C39.36 32.41 39.27 33.22 39.27 34.21C39.27 35.11 39 36.01 38.46 36.64L36.66 36.91V36.28L34.86 35.11L34.32 33.67L33.42 33.4L33.06 31.6C33.51 30.88 33.78 29.89 33.87 28.9C33.96 27.91 33.96 27.01 33.96 26.02L31.89 22.78H32.79L35.76 24.22L37.2 22.78L41.07 20.08V19.54H41.61L44.31 20.08L45.48 19.54L45.75 18.37L45.48 15.76L46.56 9.54999L50.7 9.19C51.51 9.64 51.96 10.27 51.96 11.26C51.96 12.25 51.96 13.15 51.96 13.96L51.33 17.74H55.47L56.64 17.2L56.91 16.57H57.45L66.36 19.9V20.98H66.63V21.34L64.02 22.24L63.12 22.51V22.24H62.49L61.59 22.51L61.32 23.41H60.78V23.95L59.61 25.12L57.45 27.19H55.47V28L54.57 28.36L53.94 28V27.55L54.21 26.65H53.67V26.29L55.11 20.08H53.13L50.16 21.61L43.41 41.32H42.78L41.61 45.46L41.97 46.36L42.78 46.9L45.75 50.68H47.46L52.23 49.24V47.8L51.33 46.36L50.16 46.09L47.19 46.36L43.95 43.3V42.22H44.58L46.11 42.76L56.01 39.25L56.37 38.71H61.32L63.66 39.52V40.15H64.02V40.69L58.08 43.3L57.81 47.17L62.22 47.8L63.12 49.24L61.59 49.87L61.32 50.41L57.81 51.58L57.27 55.09L60.78 55.72V56.62L61.59 56.89L56.91 58.96L56.64 65.71H58.08V65.08H59.88L64.92 65.98H66L66.9 65.71L67.8 66.34V65.35L64.56 61.57H65.1C66.72 62.38 68.43 63.01 70.05 63.64C71.76 64.27 73.2 65.26 74.55 66.88C75.18 68.05 75.54 69.22 75.81 70.57C75.99 71.92 76.08 73.18 76.08 74.53L75.81 75.16H72.75L71.67 74.26L68.97 68.68H68.16L66.36 69.22V69.85C63.39 70.03 60.42 70.12 57.36 70.21C54.3 70.3 51.51 70.93 48.99 71.92V71.29H47.19L46.92 77.5L45.21 78.4ZM78.96 67.78C77.61 66.61 76.53 65.26 75.99 63.82C75.27 62.29 74.46 60.85 73.65 59.23H75.18C76.26 59.5 77.43 59.86 78.6 60.31C79.68 60.76 80.49 61.48 81.3 62.47C81.93 63.28 82.29 64.09 82.38 64.99C82.47 65.89 82.65 66.7 82.83 67.51L78.96 67.78ZM52.5 66.34L51.6 60.49H47.82V67.24L48.72 67.51L52.5 66.34ZM83.64 62.2C82.56 61.57 81.57 60.85 80.76 59.86C79.95 58.87 79.23 57.79 78.42 56.89L80.76 56.62C81.93 56.8 83.1 57.16 84 57.61C84.99 58.06 85.98 58.78 86.97 59.59L87.51 61.57L83.64 62.2ZM88.05 58.69L84.27 53.92H85.71L90.21 55.99L90.48 56.89L89.31 58.06H88.41V58.69H88.05ZM52.86 56.35V53.11H51.6L47.46 53.92V54.82L47.82 57.52H48.72L52.86 56.35ZM75.81 48.7C75.18 48.43 74.55 48.25 73.83 48.16C73.11 48.07 72.48 47.8 71.94 47.17C71.49 46.27 71.13 45.28 70.77 44.38C70.32 43.48 70.23 42.49 70.41 41.32C70.86 39.97 71.13 38.62 71.22 37.18C71.31 35.83 71.31 34.48 71.31 33.04C71.31 32.23 71.13 31.42 70.77 30.7C70.32 29.89 69.78 29.26 68.97 28.63L67.26 27.19L74.01 29.26L83.64 25.39L83.91 23.95L83.46 22.51L80.76 20.98V20.35L79.86 19.9H80.76V19.27C81.75 19.27 82.65 19.18 83.55 19.09C84.36 19 85.26 18.82 86.07 18.37C87.78 18.82 89.58 19.27 91.2 19.72C92.91 20.08 94.44 20.98 95.7 22.24V22.78L91.29 23.41C90.39 25.57 89.58 27.73 89.13 30.16C88.68 32.5 88.14 34.84 87.51 37.18L84.54 37.81L83.64 36.28H82.83C82.02 36.91 81.03 37.18 79.86 37.18C78.69 37.18 77.61 37.27 76.62 37.54L76.26 42.22H76.89C79.86 40.87 82.92 39.61 86.07 38.71C89.13 37.72 92.28 36.55 95.43 35.38L101.64 37.54C97.32 38.53 93.09 39.7 88.86 41.32C84.63 42.85 80.31 44.38 76.08 45.73L75.81 47.17L76.08 48.7H75.81ZM41.34 44.83V44.56L41.97 43.03H41.34L40.71 44.83L41.07 45.19L41.34 44.83ZM38.64 38.08V37.81L40.17 35.11V36.01L39.81 37.18L38.91 38.08H38.64ZM50.16 37.18V36.28L51.06 34.57L49.89 33.94V33.4L48.99 33.04H49.26V31.87H49.62C50.7 32.05 51.87 32.32 53.04 32.59C54.03 32.86 55.02 33.58 56.01 34.57L56.37 35.65L55.47 36.01L55.11 36.64L52.23 37.18L51.06 36.91L50.16 37.18ZM82.2 33.94L83.46 33.67L83.64 29.89H83.1L76.62 31.6L76.26 32.5L77.16 35.38H78.42L82.2 33.94ZM71.31 23.14V21.61C72.48 19.9 73.47 18.01 74.28 16.03C75.09 14.05 75.9 12.16 76.62 10.09L77.79 8.92H78.96C80.13 9.37 81.3 9.73 82.38 10C83.46 10.27 84.45 10.81 85.44 11.62L85.71 12.52L85.17 13.33H84.54L82.56 16.03L81.66 16.39L81.03 17.2L77.79 20.08C76.62 20.08 75.63 20.44 74.64 21.25C73.65 22.06 72.48 22.69 71.31 23.14Z" fill="url(#paint0_linear_14_669)"/>
<path d="M53.6367 90.9141L53.7422 91.0078L53.3555 91.3477C53.4414 91.3477 53.6016 91.4297 53.8359 91.5938L54.2227 91.5V91.5938L53.9766 91.6406L54.082 91.793V91.8398C54.082 91.9023 54.0312 91.9336 53.9297 91.9336L53.8828 91.9805V92.0273L54.082 92.1797L54.4219 91.9336H54.4688C54.3281 92.1602 54.2148 92.2734 54.1289 92.2734V92.5664L54.2695 92.7656H54.2227L54.2695 92.8125V92.9531C54.2695 93.0156 54.2227 93.0469 54.1289 93.0469V93.1055L54.3281 93.1992H54.4219V93H54.5156V93.1055L54.4688 93.1523V93.1992L54.668 93.2461L54.7148 93.1992H54.7617L54.8555 93.293L54.7617 93.4453L54.8086 93.5859H54.7617L54.7148 93.7266H54.668L54.5625 93.6328L54.5156 93.6797L54.375 93.6328L53.9297 93.6797H53.8828L53.6367 93.6328L53.5898 93.6797V93.7266L53.543 93.6797H53.4961C53.2695 93.7109 53.1562 93.7617 53.1562 93.832C53.1875 94.0273 53.2344 94.125 53.2969 94.125V93.9727H53.3555L53.4023 94.0195L53.4492 93.9727H53.4961L53.543 94.0195H53.5898L53.7422 93.9727V94.0664H53.7891L53.9297 93.9727H53.9766L53.7891 94.2188L53.8359 94.2656L53.6953 94.4648H53.7891L53.8359 94.4062H53.8828V94.4648L53.8359 94.6992H53.8828L54.0352 94.6055L54.082 94.6523L54.1289 94.6055L54.1758 94.6523C54.1758 94.5586 54.207 94.5117 54.2695 94.5117H54.3281L54.2695 94.7461L54.3281 94.8047H54.375L55.2891 94.5586L55.3477 94.6055H55.3945L55.582 94.5586V94.6523L54.2695 94.9922V95.0391C54.3711 95.0391 54.4531 95.1055 54.5156 95.2383H54.4688L54.0352 95.0859V95.1445C54.0352 95.2461 54.1133 95.4062 54.2695 95.625V95.7188H54.2227C54.0977 95.5312 53.9531 95.4375 53.7891 95.4375C53.7656 95.2734 53.7148 95.1914 53.6367 95.1914L53.4023 95.3789L53.3555 95.332L53.2031 95.5312V95.5781L53.25 95.5312H53.2969L53.3555 95.5781V95.625L53.25 95.7188L53.4023 95.7773L53.4492 95.7188H53.4961L53.543 95.7773H53.5898L53.8828 95.6719L54.1758 96.0117H54.082L53.9297 95.9648L53.8359 96.1172L53.9297 96.2109L53.8828 96.3516L54.5156 96.6445C54.4844 96.7773 54.4219 96.8438 54.3281 96.8438V96.9375L54.375 97.1367L54.3281 97.1836V97.2305L54.375 97.3711H54.3281L54.1289 97.3242H54.082L54.1289 97.3711V97.6641C54.2227 97.6641 54.2695 97.7148 54.2695 97.8164L54.5156 97.7578V97.8164L54.4219 97.957V98.0039L54.4688 98.0508V98.0977L54.4219 98.1562H54.375L54.3281 98.0977L54.2695 98.1562L54.375 98.5898L54.3281 98.6367H54.2695L54.1289 98.1562L54.082 98.2031H54.0352L53.7422 98.0039C53.7422 98.1367 53.6914 98.2031 53.5898 98.2031L53.6367 98.25V98.3438L53.5898 98.3906L53.6367 98.543L53.5898 98.6836H53.6367L53.8359 98.543L54.0352 98.7305L53.8828 98.9766C54.4297 99.5469 55.207 100.016 56.2148 100.383L56.3086 100.289H56.3672L56.4609 100.383L56.1211 100.629C54.8242 99.8555 54.0781 99.3711 53.8828 99.1758H53.7891L53.8828 99.3164V99.3633H53.8359L53.6953 99.2695V99.5156H53.5898V99.2227C53.3789 99.0586 53.2188 98.9766 53.1094 98.9766V99.0703L52.957 99.1758L52.7695 99.0703C52.7695 99.1484 52.6406 99.2969 52.3828 99.5156H52.2773L52.6758 98.9766V98.9297L52.3359 99.0703H52.0898L51.8906 99.0234L51.75 99.0703C51.7188 98.9688 51.6523 98.9062 51.5508 98.8828L51.3633 98.9297V98.8359H51.5039C51.5039 98.6797 51.2461 98.5156 50.7305 98.3438C50.7305 98.4219 50.5352 98.4883 50.1445 98.543H49.418C49.3555 98.543 49.3242 98.5898 49.3242 98.6836L49.2773 98.7305H49.2188L49.125 98.6367H48.3984C48.2344 98.7695 48.1055 98.8359 48.0117 98.8359C48.0117 98.8906 48.207 98.9883 48.5977 99.1289V99.2227L47.7188 98.9297C47.5469 99.1797 47.3203 99.3594 47.0391 99.4688H46.9922L46.8867 99.3633L46.9453 99.3164H46.7461C45.9023 99.3945 45.4805 99.6055 45.4805 99.9492C45.3867 100.082 45.3398 100.242 45.3398 100.43C45.2461 100.727 45.1484 100.875 45.0469 100.875V101.109L44.9531 101.695C45.0469 101.695 45.0938 101.73 45.0938 101.801L45.0469 102.422C45.4375 102.812 45.6328 103.039 45.6328 103.102C45.6328 103.445 46.2461 104.062 47.4727 104.953C47.6367 105.188 47.9453 105.414 48.3984 105.633C48.3984 105.711 48.8203 105.855 49.6641 106.066C50.6484 105.895 51.3438 105.719 51.75 105.539L51.7969 105.586H51.8438C52.5625 105.305 53.2578 104.852 53.9297 104.227L54.082 103.84C54.082 103.707 54 103.641 53.8359 103.641L54.2695 103.254V103.008H54.375V103.301L54.5156 103.348C54.6875 103.301 54.8516 103.203 55.0078 103.055L55.0547 103.207C54.9531 103.434 54.8047 103.609 54.6094 103.734V103.84C54.7422 103.84 54.8086 103.871 54.8086 103.934H54.668L54.5156 103.84H54.4688C54.4688 103.934 54.0781 104.32 53.2969 105C53.2969 105.055 52.8945 105.395 52.0898 106.02C51.8164 106.387 51.3945 106.711 50.8242 106.992V107.086H50.918V107.191H50.6836L50.6367 107.133C50.332 107.312 50.0547 107.43 49.8047 107.484H49.2773C48.7227 107.414 48.2344 107.266 47.8125 107.039C47.5312 106.961 46.9336 106.559 46.0195 105.832C45.918 105.832 45.8672 105.781 45.8672 105.68H45.6797C45.4453 105.68 45.0547 105.438 44.5078 104.953C44.0156 104.562 43.7578 104.32 43.7344 104.227L43.4883 104.273L43.4414 104.227H43.3945L43.3008 104.32H43.2539C42.5586 103.758 42.0234 103.16 41.6484 102.527C41.4375 102.41 41.2109 102.02 40.9688 101.355L40.9219 101.309V100.629L41.0156 100.242L40.875 100.148L40.8164 100.195L40.7695 100.148V100.09L40.8164 100.043H40.7227V100.148H40.6758L40.6289 99.9492L40.6758 99.9023C40.582 99.9023 40.5352 99.8516 40.5352 99.75L40.582 99.6094H40.5352L40.582 99.5625V99.5156L40.5352 99.4688V99.4102L40.7695 99.2227L40.7227 99.1758V99.0703C40.8867 99.0703 40.9844 99.0078 41.0156 98.8828L41.4023 99.0234C41.5039 98.9922 41.6016 98.832 41.6953 98.543C41.6953 98.1992 42.2617 97.4531 43.3945 96.3047C43.4414 96.0156 44.1367 95.2539 45.4805 94.0195C46.0742 93.707 46.6562 93.4648 47.2266 93.293C47.2266 93.1602 47.9102 93.0156 49.2773 92.8594L49.418 92.8125L50.2383 92.9062C50.1445 92.7891 50.0977 92.5781 50.0977 92.2734C50.1523 92.2734 50.25 92.4531 50.3906 92.8125H50.4375L50.4844 92.5664V92.4727C50.4844 92.4023 50.4375 92.3672 50.3438 92.3672V92.2734H50.3906L50.5312 92.3672C50.5781 92.2109 50.6289 92.1328 50.6836 92.1328L50.7305 92.1797H50.7773V92.1328L51.0234 92.3203H51.0703V92.4258C51.0703 92.4883 51.0195 92.5195 50.918 92.5195C51.0352 92.7461 51.1172 92.8594 51.1641 92.8594H51.2109C51.2109 92.7266 51.2461 92.6602 51.3164 92.6602H51.5508V92.5664L51.4102 92.3203L51.5508 92.2734L51.5039 92.2266V92.1797H51.7969L52.1836 92.3203C52.3477 92.3203 52.4297 92.2891 52.4297 92.2266L52.2773 91.8867V91.8398H52.3828L52.5234 91.9805L52.4766 92.1328H52.5703L52.6172 92.0742H52.6758L52.7227 92.1328V92.2266H52.5234C52.75 92.4531 52.9922 92.5977 53.25 92.6602C53.2969 92.5039 53.3477 92.4258 53.4023 92.4258L53.5898 92.4727C53.6055 92.3398 53.6562 92.2734 53.7422 92.2734L53.8828 92.3203V92.3672C53.8828 92.4375 53.8359 92.4727 53.7422 92.4727V92.5664C53.8984 92.5352 53.9766 92.4531 53.9766 92.3203L53.7422 92.1797L53.4492 92.2266H53.3555V92.1328C53.4805 92.1328 53.543 92.0664 53.543 91.9336H53.6953V91.8867C53.5938 91.8867 53.543 91.8555 53.543 91.793L53.5898 91.7344V91.6875L53.4023 91.5C53.2617 91.5234 53.0664 91.6836 52.8164 91.9805H52.7695L53.1094 91.4531L53.0625 91.3945C53.1562 91.3945 53.3164 91.25 53.543 90.9609L53.5898 90.9141H53.6367ZM52.3359 91.0547C52.4922 91.0938 52.5703 91.1602 52.5703 91.2539H52.6758C52.9102 91.2539 53.0391 91.3008 53.0625 91.3945H52.957L52.8164 91.3477L52.5234 91.3945L52.4766 91.3477H52.4297L52.2305 91.3945L52.3359 91.5469H52.1836L52.2773 91.6875L52.2305 91.7344H52.1836C52.1836 91.6875 52.0703 91.6406 51.8438 91.5938L51.7031 91.6406L51.7969 91.5L51.75 91.3477H51.8906V91.3008C51.7969 91.3008 51.75 91.2695 51.75 91.207H51.8438L51.8906 91.2539H51.9375L51.9961 91.1133L52.2305 91.1602L52.3359 91.0547ZM51.3164 91.3008H51.4102V91.3945L50.8242 92.1328V91.9805L50.8711 91.9336V91.8867C50.7148 91.8633 50.6367 91.8125 50.6367 91.7344V91.6875H50.7305L50.918 91.8398C50.918 91.6992 51.0508 91.5352 51.3164 91.3477V91.3008ZM51.1172 91.9805H51.2109L51.3633 92.0273V92.1328H51.3164L51.1172 91.9805ZM54.6094 92.3672C54.5625 92.5 54.4492 92.5664 54.2695 92.5664H54.2227C54.2227 92.4727 54.3516 92.4062 54.6094 92.3672ZM50.5781 92.707L50.5312 92.7656V92.9531H50.5781L50.8242 92.9062C50.8086 92.8359 50.7266 92.7695 50.5781 92.707ZM52.9102 93.9727V94.0664L53.1562 94.1719H53.2031L53.0625 93.9258L52.9102 93.9727ZM53.1562 94.4648V94.5586L53.4492 94.6055C53.4492 94.543 53.5117 94.5117 53.6367 94.5117V94.4648L53.4023 94.4062L53.1562 94.4648ZM56.2617 94.4648L56.3086 94.5117V94.5586L56.2148 94.6523H56.168C55.9414 94.6523 55.8281 94.6211 55.8281 94.5586L55.7812 94.6055H55.6875V94.5117H55.7344L56.2617 94.4648ZM56.7539 94.4648L56.8477 94.5586L56.8008 94.6055H56.7539L56.6484 94.5117L56.707 94.4648H56.7539ZM56.5078 95.2383H56.5547L56.6016 95.2852H56.6484L56.707 95.2383L56.8008 95.5781L56.6484 95.6719C56.4609 95.6016 56.3672 95.4883 56.3672 95.332L56.5078 95.2383ZM41.3555 97.2305L41.4023 97.2773V97.4766L41.3086 97.5703L41.2617 97.3242L41.3555 97.2305ZM40.0898 98.25L40.1953 98.3438L40.1367 98.3906H40.0898L39.9961 98.2969L40.0547 98.25H40.0898ZM49.3711 99.8555C49.1133 99.9961 48.9844 100.156 48.9844 100.336L49.0312 100.383C48.9297 100.383 48.8633 100.465 48.832 100.629L48.5977 100.676L48.5391 100.629V100.582L48.6445 100.43H48.5977L48.5391 100.488H48.4922L48.1992 100.383L48.1055 100.488H48.0586V100.43C48.0586 100.367 48.1211 100.336 48.2461 100.336C48.2461 100.133 48.3438 100.004 48.5391 99.9492L48.7852 99.9961L49.3711 99.8555ZM45.7266 100.77H45.8203V100.969H45.7266V100.77ZM56.3086 101.016L56.5078 101.168L56.4141 101.262L56.2617 101.109L56.3086 101.062V101.016ZM50.5312 101.695L50.5781 101.742V101.848L50.4844 101.941H50.3438L50.2383 101.848C50.2773 101.746 50.375 101.695 50.5312 101.695ZM54.9492 102.621V102.762H54.9023L54.8086 102.668L54.8555 102.621H54.9492ZM51.0234 102.668H51.1172C51.3594 102.707 51.4883 102.773 51.5039 102.867V102.914C51.1836 102.883 51.0234 102.816 51.0234 102.715V102.668ZM53.3555 103.301V103.348L53.25 103.441L53.2031 103.395V103.348L53.25 103.301H53.3555ZM51.0234 107.133H51.0703C51.8438 107.344 52.2969 107.508 52.4297 107.625C52.4297 107.672 52.3633 107.719 52.2305 107.766C52.2305 107.648 51.9062 107.504 51.2578 107.332C51.2578 107.27 51.1797 107.238 51.0234 107.238V107.133ZM50.6367 107.824L50.6836 107.871V107.918L50.6367 107.965H50.5781L50.5312 107.918V107.871L50.5781 107.824H50.6367ZM53.0156 107.824L53.1562 107.965L53.0156 108.059H52.957C52.9102 108.059 52.8633 107.996 52.8164 107.871L52.8633 107.824H53.0156ZM50.2969 108.293L50.3438 108.352V108.445L49.8516 108.645L49.7578 108.539C49.9141 108.375 50.0938 108.293 50.2969 108.293ZM57.3398 91.2773H57.375L57.4453 91.3477L57.4102 91.3828H57.375L57.3398 91.3477V91.2773ZM58.7344 91.2773V91.3125L58.4766 91.7578C58.5781 91.7578 58.6289 91.793 58.6289 91.8633L58.8516 91.7578V91.793L58.7812 91.8984V91.9805L58.9219 92.0156L59.1094 91.8281V91.8633L59.0039 92.0156H59.0742V92.0508L59.0391 92.1562C59.0938 92.1562 59.2266 92.0586 59.4375 91.8633V91.8984L59.2148 92.2734L59.4023 92.3086C59.4023 92.2539 59.4648 92.2188 59.5898 92.2031L59.4727 92.3438V92.4141H59.5547V92.4609L59.4727 92.5664C59.5742 92.5664 59.625 92.5898 59.625 92.6367L59.5898 92.6836L59.7305 92.7539C60.0039 92.7539 60.1797 92.5078 60.2578 92.0156C60.5 91.8828 60.6211 91.7969 60.6211 91.7578H60.6914L60.6562 91.793V91.8633L60.9492 91.9453L61.7227 91.3477H61.7695L61.8398 91.4297V91.5L61.6523 91.5352V91.5L61.1016 91.9453L61.2422 92.2383C61.2422 92.3711 61.1211 92.5195 60.8789 92.6836H60.8086V92.7539C61.2305 93.1445 61.5977 93.3398 61.9102 93.3398C61.9102 93.4023 62.0938 93.5391 62.4609 93.75C62.4609 93.9297 62.7461 94.0391 63.3164 94.0781C63.5117 94.1953 63.6953 94.3789 63.8672 94.6289C64.0547 94.6289 64.25 94.9375 64.4531 95.5547C64.4531 95.6797 64.5898 95.9023 64.8633 96.2227L64.9336 96.7734H64.9688C65.0234 96.7734 65.0625 96.6602 65.0859 96.4336L65.3086 96.2227L65.3438 96.2578H65.5312L65.707 96.2227V96.293C65.6367 96.293 65.6016 96.3398 65.6016 96.4336L65.6719 96.5156V96.5508C65.6719 96.5977 65.6094 96.6211 65.4844 96.6211C65.4453 96.6992 65.3594 96.7383 65.2266 96.7383L65.1914 96.9141C65.1914 96.9922 65.2305 97.0312 65.3086 97.0312L65.3438 97.0664V97.1016L65.1562 97.2188V97.2539C65.2188 97.4414 65.5 97.6602 66 97.9102V97.9922H65.9648C65.793 97.9922 65.5234 97.8203 65.1562 97.4766C64.9609 97.4766 64.8633 97.6094 64.8633 97.875L64.8984 98.0273H64.793V98.1328H64.8984V98.168C64.8984 98.2227 64.8633 98.25 64.793 98.25V98.2852L64.8281 98.4258C64.7266 98.5742 64.6758 98.6875 64.6758 98.7656L64.793 98.8711V98.9414H64.7461L64.6055 98.8711L64.5703 99.0586L64.6055 99.1641L64.5703 99.1289H64.5352L64.4883 99.1641V99.1992L64.5352 99.3516H64.4883L64.4531 99.3164H64.418L64.125 99.9023L63.5391 100.5C63.5391 100.578 63.3789 100.809 63.0586 101.191V101.273H63.0234L63.0586 101.309V101.496C62.918 101.738 62.793 101.859 62.6836 101.859V101.895C63.3008 101.895 63.707 102.008 63.9023 102.234C64.5664 102.773 64.9961 103.25 65.1914 103.664C65.3867 103.828 65.5469 104.113 65.6719 104.52L66.1875 105.211L66.1523 105.328C66.2617 105.602 66.3477 105.762 66.4102 105.809L66.8906 106.172L67.3359 106.395L67.5234 106.43L67.6992 106.289H67.7344C67.8281 106.289 67.8906 106.422 67.9219 106.688C67.875 106.703 67.8281 106.766 67.7812 106.875L67.5234 106.805L67.3359 106.84L67.1484 106.77C67.4688 107.09 67.9844 107.699 68.6953 108.598L69.0703 108.715L69.1055 108.68V108.75C69.0273 108.75 68.9883 108.773 68.9883 108.82C69.0898 108.992 69.4219 109.277 69.9844 109.676C69.9844 109.746 70.0352 109.781 70.1367 109.781V109.852H70.1016C69.6797 109.516 69.3594 109.309 69.1406 109.23C69.1406 109.191 69.0195 109.082 68.7773 108.902C68.4883 108.621 68.2148 108.41 67.957 108.27C67.4492 107.941 67.1055 107.648 66.9258 107.391C66.5352 107.156 66.3398 106.984 66.3398 106.875C66.2383 106.875 65.9922 106.738 65.6016 106.465C65.4609 106.465 65.25 106.281 64.9688 105.914C64.9688 105.812 64.6367 105.492 63.9727 104.953C63.7383 104.727 63.4336 104.543 63.0586 104.402L62.2852 103.781C62.2148 103.656 62.0039 103.531 61.6523 103.406L61.5469 103.266V103.219H61.582L61.7695 103.266L61.8047 103.219C61.7266 103.023 61.5273 102.926 61.207 102.926L61.1016 102.855L60.9492 102.891C60.5586 102.648 60.3633 102.453 60.3633 102.305C60.3633 102.234 60.2383 102.012 59.9883 101.637V101.566L60.0703 101.496H60.1758L60.2578 101.566V101.602L60.2109 101.637L60.5156 102.27L60.4688 102.375L60.5156 102.41H60.5508C61.0898 102.066 61.3594 101.746 61.3594 101.449C61.3594 101.309 61.457 101.238 61.6523 101.238L61.9805 100.418C62.082 100.418 62.2188 100.113 62.3906 99.5039C62.6328 99.2461 62.7695 99.0469 62.8008 98.9062H62.7656L62.8359 98.7656L62.8008 98.7305L62.8711 98.6484L62.6484 98.6133V98.6484L62.0625 98.4727L61.875 98.6484H61.8398V98.5781L61.9453 98.4258H61.8398V98.3555L61.9805 98.3906L62.0977 98.3555C62.2305 98.4336 62.4141 98.4727 62.6484 98.4727V98.3555H62.6836L62.543 98.1328L62.3555 98.2148V98.168L62.0977 98.25V98.2148L62.1328 98.168V98.1328L62.0625 98.0625L62.2031 97.9922V97.957L61.8047 97.9102V97.8398H62.0625L62.2383 97.8047V97.7695C62.1914 97.7695 62.1055 97.6211 61.9805 97.3242V97.1719C62.0508 97.1719 62.125 97.2969 62.2031 97.5469L62.5078 97.4766V97.4297L62.4609 97.3945V97.3594L62.543 97.2891L62.4258 97.1719L62.5781 97.0664L62.3555 96.6211L62.3906 96.5859H62.4258C62.6133 96.9297 62.7969 97.1016 62.9766 97.1016L63.0234 96.9961C62.8594 96.918 62.6133 96.4883 62.2852 95.707C61.9023 95.1602 61.5312 94.8516 61.1719 94.7812C60.9688 94.5781 60.6875 94.3828 60.3281 94.1953L60.293 94.2305C60.2617 94.0586 60.1992 93.9727 60.1055 93.9727L60.1406 93.9375V93.8906L59.9883 93.8203H59.918C59.918 93.9375 59.832 94.0859 59.6602 94.2656V94.3359C59.9492 94.4297 60.1602 94.5664 60.293 94.7461H60.2109C60.0703 94.6289 59.9258 94.5664 59.7773 94.5586L59.5898 94.3711H59.5547V94.4883L59.5898 94.5234V94.5586H59.5547L59.4023 94.4883L59.2617 94.5234C59.2617 94.6875 59.3594 94.8086 59.5547 94.8867L59.6602 95.1094L59.625 95.332C59.625 95.6758 59.6758 95.8477 59.7773 95.8477L59.8477 95.918C59.6992 96.707 59.5508 97.1016 59.4023 97.1016L59.4375 97.1367V97.4766C59.2891 97.8125 59.2148 98.2305 59.2148 98.7305L59.1445 99.0938C59.1914 99.1875 59.2148 99.3242 59.2148 99.5039V99.5742L59.0742 99.8672L59.3672 100.898C59.5312 100.898 59.6289 100.949 59.6602 101.051V101.086L59.3672 101.93L59.332 101.977V102.82C59.332 103.367 59.4062 103.871 59.5547 104.332V104.402L59.5898 105.293L59.5547 105.398L59.7773 105.809C59.7773 106.238 59.7383 106.496 59.6602 106.582C59.707 106.621 59.7695 107.137 59.8477 108.129C59.8945 108.129 59.9414 108.238 59.9883 108.457C60.043 108.465 60.0938 108.527 60.1406 108.645C60.0703 108.887 60.0078 109.008 59.9531 109.008L59.8477 108.938H59.8125L59.8477 109.16L59.8125 109.195V109.23L59.8477 109.336L59.8125 109.371H59.7773L59.8125 109.418L59.7305 109.852L59.8125 110.004L59.7773 110.262V110.414L59.8477 111.188L59.8125 111.223V111.258L59.8477 111.293L59.8125 111.48L59.8477 111.621H59.8125L59.7305 111.551V111.41L59.5547 110.262L59.5898 110.156C59.4414 110.094 59.3672 109.945 59.3672 109.711C59.3203 109.711 59.2969 109.746 59.2969 109.816L59.2617 109.852H59.2148L59.1797 109.816L59.0742 109.934C59.0273 109.738 58.9297 109.641 58.7812 109.641C58.6328 109.523 58.5586 109.336 58.5586 109.078L58.6641 108.902V108.855H58.5938V108.785H58.6641V108.75L58.4062 108.387H58.3711L58.2656 108.457L58.043 108.199L57.9609 108.457L58.0078 108.492V108.527C57.9375 109.059 57.8633 109.355 57.7852 109.418L57.8203 109.453V109.559L57.7852 109.781L57.8203 109.898L57.668 110.191L57.7031 110.227H57.7383L57.7031 110.672V110.848H57.6328V110.812C57.6328 110.133 57.5703 109.617 57.4453 109.266V108.785L57.4805 108.562C57.4336 108.438 57.4102 108.219 57.4102 107.906V107.684L57.4453 107.648C57.2969 107.273 57.1875 106.793 57.1172 106.207V106.137C57.1875 105.629 57.25 105.359 57.3047 105.328L57.2695 105.176L57.3047 105.141H57.3398L57.3047 105.105V105.035L57.4102 104.848L57.3047 104.625V104.52C57.3047 104.238 57.3398 103.93 57.4102 103.594C57.3867 103.484 57.3242 103.41 57.2227 103.371L57.3047 103.148L57.2227 103.078L57.3047 102.785C57.2266 102.785 57.1875 102.758 57.1875 102.703V102.668L57.2227 102.527L57.1172 102.234C56.9688 102.234 56.8945 102.148 56.8945 101.977L56.9297 101.414L56.8594 100.898L56.8945 100.535C56.832 100.395 56.7344 99.9883 56.6016 99.3164C56.5703 99.3164 56.5312 99.2305 56.4844 99.0586L56.5312 98.8359C56.4453 98.3125 56.3594 98.0039 56.2734 97.9102V97.1016C56.3672 97.0391 56.4258 96.5586 56.4492 95.6602L56.4141 95.625H56.3789L56.3086 95.707L56.3438 95.8125C56.2969 95.8125 56.2578 95.875 56.2266 96L56.0156 96.0703H55.9688V95.9648H55.8984L55.6406 96.1055L55.6055 96.0703V96.0352C55.7305 95.8867 55.793 95.7773 55.793 95.707L55.6406 95.5547L55.7578 95.4492L55.8984 95.4844C56 95.4453 56.0508 95.4062 56.0508 95.3672V95.2266L55.9688 95.1094C55.9688 95.0625 56.0195 95.0391 56.1211 95.0391V95.0039L56.0508 94.8867V94.8516C56.168 94.8516 56.2266 94.8164 56.2266 94.7461L56.0859 94.6641L56.1211 94.5586L55.8984 94.3008V94.2305H55.9688L56.1562 94.3711L56.1211 94.4062C56.1836 94.6328 56.2812 94.7461 56.4141 94.7461V94.7109L56.3086 94.4531V94.3359L56.3438 93.7148C56.1641 93.543 56.0273 93.457 55.9336 93.457L55.8984 93.4922L55.9336 93.5273V93.5977C55.8398 93.5977 55.793 93.6602 55.793 93.7852C55.6445 93.7852 55.5703 93.8203 55.5703 93.8906C55.625 93.8906 55.6602 93.9531 55.6758 94.0781L55.5703 94.1133L55.6055 94.3008H55.5703C55.5234 94.3008 55.5 94.2656 55.5 94.1953L55.4648 94.2305H55.2773C55.1523 94.2305 55.0898 94.168 55.0898 94.043C54.9727 94.043 54.9141 94.0195 54.9141 93.9727L55.1719 93.8555V93.7852C55.0938 93.7852 54.9922 93.6016 54.8672 93.2344C55.1172 93.5 55.2422 93.6836 55.2422 93.7852L55.2773 93.75H55.3125L55.5 93.7852V93.7148C55.3516 93.7148 55.2773 93.6016 55.2773 93.375L55.4297 93.3398C55.3906 93.1211 55.3164 93.0117 55.207 93.0117L55.2773 92.9414L55.2422 92.8945V92.6016L55.3945 92.4141V92.3438L55.3125 92.0508V91.9805C55.3672 91.9805 55.418 92.0781 55.4648 92.2734L55.5703 92.3438C55.6406 92.3438 55.6758 92.2812 55.6758 92.1562H55.793C55.793 92.2422 55.8398 92.3281 55.9336 92.4141V92.4609L56.0859 92.3438V92.4141L56.0156 92.6016L56.1914 92.7891H56.2266L56.1211 93.0469V93.082L56.2734 93.2344H56.3438C56.4688 93.2344 56.543 93.1953 56.5664 93.1172L56.5312 93.0117H56.5664L56.6367 92.7891L56.2266 92.4961V92.4141H56.2734L56.7539 92.7539C56.8711 92.7227 56.9297 92.6836 56.9297 92.6367L56.8945 92.6016C56.9648 92.5938 57.0156 92.5312 57.0469 92.4141L56.8594 92.2383H56.8945L57.1523 92.3789V92.3086L57.082 92.0859H57.1172C57.1641 92.0859 57.1875 92.125 57.1875 92.2031H57.2695V92.1562L57.2227 92.1211V92.0859C57.3242 92.0859 57.375 92.0625 57.375 92.0156C57.3516 91.9219 57.2656 91.7969 57.1172 91.6406V91.6055H57.1875L57.5625 91.9453V91.8633H57.6328V92.0508H57.668L57.8203 91.8984V91.8633C57.7578 91.8633 57.6719 91.7891 57.5625 91.6406V91.6055H57.5977C57.7695 91.6992 57.8555 91.7852 57.8555 91.8633L57.9258 91.793L57.9609 91.8281H58.043L58.0078 91.793V91.6875L58.0781 91.6055L58.2188 91.6406L58.2656 91.4648H58.3359V91.6406L58.4062 91.7227C58.5703 91.4492 58.6797 91.3008 58.7344 91.2773ZM55.1367 91.6875L55.207 91.793V91.8281C55.1055 91.7891 55.0547 91.7539 55.0547 91.7227L55.0898 91.6875H55.1367ZM55.2422 91.8633L55.3125 91.9453V91.9805L55.2422 91.8984V91.8633ZM61.6875 91.8633L61.7227 91.8984V91.9453L61.6875 91.9805H61.6172V91.9453L61.6875 91.8633ZM56.7539 92.5312H56.7891L56.8594 92.6016H56.7539V92.5312ZM55.4648 94.6641H55.5V94.7812H55.3945V94.7461L55.4648 94.6641ZM60.8086 95.332H60.8438L60.9141 95.4023L60.6914 95.5195L60.6562 95.4844V95.4492L60.8086 95.332ZM65.8242 96.5859H65.9297V96.6562H65.8242V96.5859ZM61.4297 96.8086L61.5117 96.8789H61.3594L61.4297 96.8086ZM62.2852 97.582V97.6172L62.3555 97.6875H62.5078L62.5781 97.6172V97.5469L62.2852 97.582ZM60.8789 97.7344H61.0312V97.8398H60.9844L60.8789 97.8047V97.7344ZM63.0234 97.9102L63.1289 97.957V97.8398H63.0938L63.0234 97.9102ZM62.9062 97.957L62.9766 98.0625C62.9766 98.1328 62.9062 98.168 62.7656 98.168V98.3203L62.7188 98.5078L62.9062 98.3555L62.8711 98.25H62.9062C62.9844 98.25 63.0234 98.1641 63.0234 97.9922L62.9766 97.957H62.9062ZM65.3789 98.3906H65.4141C65.5859 98.4766 65.7227 98.5898 65.8242 98.7305H65.7891C65.6328 98.7305 65.4961 98.6172 65.3789 98.3906ZM66.5977 98.6836H66.7383V98.7656H66.5977V98.6836ZM64.8281 99.3516H64.8984V99.4688H64.8281V99.3516ZM64.6406 99.5039C64.7578 99.5039 64.8828 99.6641 65.0156 99.9844C64.8359 99.9141 64.6992 99.7773 64.6055 99.5742L64.6406 99.5391V99.5039ZM61.6875 105.176V105.211L61.582 105.363L61.7695 105.434C61.6992 105.676 61.5742 105.836 61.3945 105.914H61.207L61.0664 105.809L60.8789 105.844L60.9844 105.691L60.9492 105.469L61.207 105.293L61.5469 105.328L61.6875 105.176ZM62.5078 105.176H62.6133L62.6836 105.258L62.6133 105.328H62.4609L62.3906 105.258L62.5078 105.176ZM62.2031 105.258H62.3203V105.328H62.1328L62.2031 105.258ZM61.9102 105.328H62.1328L62.0625 105.398H61.8398L61.9102 105.328ZM61.2891 106.207L61.3242 106.254V106.289L61.2891 106.324H61.2422L61.207 106.289V106.254L61.2422 106.207H61.2891ZM58.5586 110.707L58.5938 110.742V110.777C58.5938 110.902 58.5547 110.977 58.4766 111L58.4414 110.965V110.93C58.4648 110.781 58.5039 110.707 58.5586 110.707ZM73.6758 91.6289H74.0859C74.6484 91.6289 75.0078 91.8477 75.1641 92.2852C75.3203 92.4805 75.5117 92.9336 75.7383 93.6445C75.793 93.6445 75.8594 93.8516 75.9375 94.2656C76.0469 94.3594 76.1016 94.4688 76.1016 94.5938H76.1484L76.5938 94.2188H76.6406L76.2305 94.7578C76.3555 94.7578 76.4492 94.9648 76.5117 95.3789H76.8867V95.4609H76.6758L76.5586 95.5781C76.5586 95.8516 76.668 96.5117 76.8867 97.5586C76.8867 97.7148 76.9688 97.9336 77.1328 98.2148L77.0508 99.2461C77.0508 99.4102 77.2305 99.4922 77.5898 99.4922C77.5898 99.4453 77.8477 99.3633 78.3633 99.2461H78.5391L78.6562 99.3281H78.7852L79.2305 99.3633L79.4766 99.2812L79.4414 99.082L79.5586 99.1641L79.6406 99.082H79.7227V99.1641L79.6875 99.1992V99.2461H79.7695L80.0156 99L80.0977 99.082H80.2266C80.2266 98.9961 80.2539 98.9531 80.3086 98.9531H80.3438C80.1719 99.3672 79.8828 99.5742 79.4766 99.5742C79.4766 99.668 79.3828 99.7344 79.1953 99.7734V99.8203C79.1953 99.8828 79.3867 99.9258 79.7695 99.9492C79.9727 99.8555 80.1523 99.7305 80.3086 99.5742L80.2617 99.5273V99.4922L80.4727 99.2812H80.5078V99.3633L80.4727 99.4102V99.4453H80.7188C80.7188 99.3828 80.8281 99.2891 81.0469 99.1641L81.375 98.8359L81.4102 99.082L81.6211 99.0352H81.7031V99.082L81.6562 99.2461L81.7031 99.3633H81.6562L81.457 99.2812L81.375 99.3633L81.3281 99.3281C81.0938 99.3984 80.9023 99.5195 80.7539 99.6914L80.5078 99.7734V99.8672C80.8125 99.9844 80.9766 100.078 81 100.148H80.9648L80.4258 99.9492L80.3906 99.9844H80.3438L80.2617 99.9023C80.0898 100.066 79.9648 100.148 79.8867 100.148L79.4414 100.066C79.3945 100.285 79.3125 100.395 79.1953 100.395L78.9844 100.77H78.9492L78.9844 100.559H78.9492L78.5742 100.723L78.3633 100.688L78.3281 100.723H78.2812L78.2461 100.688H78.1992L77.8711 100.77L78 100.969H77.918L77.7539 100.887C77.7539 100.949 77.6562 101.004 77.4609 101.051C77.5625 101.715 77.7148 102.047 77.918 102.047L77.8359 102.129C77.8594 102.363 77.8984 102.512 77.9531 102.574V102.867L77.8359 103.031V103.113H77.9531L78 103.066H78.0352L78.082 103.113V103.16L77.8359 103.195V103.406L77.7891 103.605C77.875 103.605 77.9453 103.66 78 103.77L77.9531 104.262L78.082 104.391V104.426C77.9961 104.527 77.9531 104.625 77.9531 104.719V104.754L78.082 105.34H78.0352C78.2695 105.645 78.4492 105.984 78.5742 106.359H78.6211L78.5742 106.617C78.5742 106.789 78.6445 107.035 78.7852 107.355L78.7383 107.473C78.7773 107.473 78.832 107.609 78.9023 107.883C78.9648 107.938 79.0352 108.117 79.1133 108.422C79.1992 108.422 79.293 108.68 79.3945 109.195H79.3125C79.2031 108.898 78.9453 108.379 78.5391 107.637V107.555L78.5742 107.52C78.3789 107.145 78.2539 106.828 78.1992 106.57L77.8711 106.031V105.832L77.9531 105.375C77.6797 105.141 77.543 104.895 77.543 104.637L77.5898 104.59V104.555L77.543 104.426L77.625 104.344V104.309L77.543 104.145L77.5898 103.98C77.3867 103.66 77.25 103.387 77.1797 103.16L77.2148 103.113L77.1328 103.031L76.6758 103.324H76.6406C77 102.988 77.1797 102.766 77.1797 102.656C77.125 102.234 77.043 101.988 76.9336 101.918L76.9688 101.719C76.9062 101.703 76.8359 101.578 76.7578 101.344C76.4922 101.398 76.2188 101.496 75.9375 101.637C75.5859 101.66 75.1875 101.77 74.7422 101.965V102.047C74.7422 102.133 74.7852 102.227 74.8711 102.328L74.707 102.375C74.6211 102.156 74.4961 102.047 74.332 102.047C74.1367 102.328 73.8633 102.52 73.5117 102.621L73.4297 102.703H73.2656L73.0547 102.656C73.0547 102.797 72.9336 102.895 72.6914 102.949C72.6914 103.09 72.6641 103.16 72.6094 103.16L72.4453 103.195V103.16L72.3164 103.195L71.9531 102.984L72.1992 102.703L72.0352 102.246L72.6094 101.672C72.6094 101.758 72.6484 101.801 72.7266 101.801C73.3047 101.48 73.5938 101.301 73.5938 101.262L74.332 100.805C74.4336 100.805 74.5703 100.684 74.7422 100.441C74.8438 100.441 75.0508 100.344 75.3633 100.148C75.5273 100.148 75.8164 100.012 76.2305 99.7383L76.5586 99.6562C76.3789 98.4766 76.2266 97.8867 76.1016 97.8867L76.0664 97.8398V97.8047L76.1016 97.7578C76.0391 97.2188 75.918 96.7656 75.7383 96.3984C75.4648 96.0938 75.3125 95.8633 75.2812 95.707L74.9062 95.625C74.7969 95.625 74.7422 95.7617 74.7422 96.0352C74.6797 96.0352 74.5977 96.2422 74.4961 96.6562L74.4609 96.6914C74.4609 96.7461 74.3789 96.8008 74.2148 96.8555V97.0195H74.2969V97.1016C74.1562 97.1016 74.0859 97.1992 74.0859 97.3945C74.0156 97.3945 73.9062 97.5312 73.7578 97.8047V98.4609C73.6016 98.6719 73.4766 98.9883 73.3828 99.4102C73.3047 99.4102 73.2656 99.5039 73.2656 99.6914C73.1562 99.6914 73.1016 99.7891 73.1016 99.9844C72.9922 99.9844 72.8555 100.121 72.6914 100.395H72.5625V100.605L72.1172 101.555C72.1172 101.742 72.0039 101.918 71.7773 102.082L71.8594 102.211C71.5625 102.547 71.4141 102.902 71.4141 103.277L71.3672 103.324C71.5156 103.566 71.625 103.688 71.6953 103.688L71.8242 103.652L71.9062 103.734H72.0703L72.0352 103.688V103.652L72.0703 103.605H72.1523V103.688H72.3984V103.57H72.4805L72.5273 103.77L72.8086 103.688V103.77C72.5898 103.824 72.4805 103.879 72.4805 103.934L72.5273 103.98C72.3867 103.996 72.3164 104.035 72.3164 104.098C72.3945 104.098 72.668 104.234 73.1367 104.508H73.1836V104.637H73.1367C73.0664 104.559 72.7656 104.406 72.2344 104.18V104.145H72.1172L72.1992 104.262V104.344H72.1523C72.082 104.344 72.043 104.277 72.0352 104.145L71.9062 104.262L71.6953 104.145L71.6602 104.18L71.6133 104.145L71.5781 104.18V104.391L71.7773 104.719H71.7422L71.3672 104.391L71.2852 104.473C71.2852 104.887 71.3945 105.094 71.6133 105.094C71.7383 104.953 71.8516 104.883 71.9531 104.883V104.965C71.8359 104.965 71.75 105.02 71.6953 105.129C71.6953 105.184 71.7656 105.211 71.9062 105.211V105.293L71.6602 105.34L71.6953 105.375V105.457C71.5859 105.457 71.5312 105.484 71.5312 105.539L71.6133 105.621H71.4961L71.3672 105.539H71.1211L71.168 105.586V105.621L71.0039 105.867V105.914H71.0859V105.949L71.4141 105.867L71.4492 105.914V105.996C71.4492 106.051 71.3945 106.078 71.2852 106.078L71.332 106.113V106.195H71.2852L70.5938 105.621H70.5469V105.668H70.6289V105.867C70.6289 105.922 70.6719 105.949 70.7578 105.949V106.031L70.5117 106.078C70.5117 106.133 70.5664 106.16 70.6758 106.16V106.242H70.5938V106.277L70.8398 106.324V106.406H70.6289L70.5938 106.359H70.5469L70.5117 106.488L70.8398 106.652L70.957 106.617V106.699H70.8398V106.734H70.9219L71.3672 106.57H71.4141V106.617H71.332V106.652H71.3672L71.6953 106.57H71.7422C71.7422 106.625 71.4961 106.723 71.0039 106.863C70.9727 107.02 70.8906 107.156 70.7578 107.273C70.7578 107.352 70.8125 107.391 70.9219 107.391L70.957 107.438V107.52H70.9219C70.8047 107.41 70.6953 107.355 70.5938 107.355H70.5469L70.5938 107.391V107.438L70.5469 107.473H70.5117L70.4648 107.355L70.4297 107.391L70.2188 107.355C70.1406 107.355 70.0586 107.41 69.9727 107.52H69.9258V107.555H69.9727L70.0898 107.52V107.555C69.9961 107.719 69.9141 107.801 69.8438 107.801V107.883C69.8984 107.992 69.9805 108.047 70.0898 108.047V108.129L69.7266 108.047L69.6445 108.258H69.5625V108.129H69.5156L69.3984 108.211H69.3516C69.3516 108.109 69.2969 108.039 69.1875 108H69.1523L69.1055 108.047H69.0703L69.2695 108.34H69.1875V108.422H69.2695V108.457L69.2344 108.504L69.3984 108.832H69.5156V108.914C69.4219 108.914 69.3398 108.996 69.2695 109.16L69.4336 109.406H69.3984C69.2891 109.352 69.2344 109.281 69.2344 109.195H69.1055V109.242L69.1875 109.359H69.1523L69.1055 109.324H69.0703C69.0703 109.402 69.043 109.441 68.9883 109.441C68.9336 109.441 68.9062 109.402 68.9062 109.324H68.8242V109.488L68.7773 109.699H68.6953V109.324H68.6602C68.6602 109.434 68.6172 109.488 68.5312 109.488H68.4844V109.441L68.5312 109.324L68.4141 109.242L68.3672 109.277L68.2852 109.195C68.2852 109.25 68.1641 109.32 67.9219 109.406V109.359L68.0039 109.277L67.957 109.242V109.078L68.0391 108.996L68.0039 108.949V108.914L68.0391 108.75C67.9844 108.75 67.957 108.707 67.957 108.621L67.7578 108.586C67.7578 108.539 67.8516 108.484 68.0391 108.422C68.0547 108.258 68.125 108.176 68.25 108.176L68.168 108.094H68.1211L68.0859 108.129H68.0391L68.0039 108.094V108.047H68.0859V107.883H68.0391L67.8398 107.965L67.957 107.801V107.766L67.8398 107.637H67.7578C67.6797 107.723 67.5273 107.766 67.3008 107.766L67.2656 107.801V107.848C67.3203 107.848 67.3594 107.93 67.3828 108.094H67.3477C67.2383 108.094 67.1836 108.16 67.1836 108.293H67.1016L67.2188 108.047L66.9727 108C66.8008 108.07 66.6914 108.184 66.6445 108.34L66.4336 108.293H66.2344V108.375H66.1875L66.1055 108.293L66.1875 108.211H66.3984L66.4336 108.258L66.6445 108.129L66.5977 108.094V108.047L66.6445 107.883C66.5039 107.75 66.3789 107.684 66.2695 107.684C66.2695 107.738 66.2305 107.766 66.1523 107.766L66.0234 107.719C66.0156 107.789 65.9336 107.883 65.7773 108L65.7422 107.965V107.93C66 107.656 66.1641 107.52 66.2344 107.52V107.438L66.1523 107.191C66.082 107.191 65.9297 107.082 65.6953 106.863H65.7422C65.8594 106.863 66.0508 106.957 66.3164 107.145L66.5977 107.027L66.5625 106.98V106.898H66.5977L66.6445 106.945H66.6797L66.8438 106.57L66.6445 106.324L66.7617 106.242H66.9258L67.1836 106.406H67.2656L67.3477 106.324L66.9727 105.914L67.0195 105.867H67.0547C67.1172 105.977 67.2539 106.102 67.4648 106.242V106.277L67.5938 106.16L67.4648 105.914V105.867L67.6758 106.031L67.7109 105.996C67.6562 105.824 67.5898 105.727 67.5117 105.703H67.4648V105.867C67.4102 105.867 67.3555 105.758 67.3008 105.539C67.1133 105.539 67.0195 105.473 67.0195 105.34H66.9727L66.8438 105.457L66.8086 105.422V105.375L66.8906 105.293L66.8086 105.211H66.7617L66.6445 105.293H66.5625L66.6445 105.176V105.129L66.5977 105.094V105.047L66.7266 104.93C66.6641 104.844 66.5664 104.801 66.4336 104.801L66.3984 104.754L66.1875 104.672L65.9414 104.754L65.9062 104.719V104.59L65.9883 104.508C66.043 104.508 66.0703 104.551 66.0703 104.637H66.1055C66.3711 104.637 66.5898 104.691 66.7617 104.801C66.8086 104.691 66.8633 104.637 66.9258 104.637V104.59L66.8438 104.473V104.426H66.8906L66.9727 104.508L67.1016 104.473V104.426C67.1016 104.371 67.0312 104.344 66.8906 104.344L66.8438 104.309V104.262H66.9727L67.1836 104.309C67.1836 104.23 67.2383 104.16 67.3477 104.098C67.3477 104.238 67.4297 104.309 67.5938 104.309H67.793L67.6758 104.145L67.7109 104.016H67.7578C67.7656 104.125 67.8047 104.18 67.875 104.18H67.9219V104.062L67.8398 103.934V103.852C67.9102 103.852 67.9648 103.949 68.0039 104.145H68.0391L68.0859 103.98L68.0391 103.77V103.406C68.1016 103.406 68.1445 103.582 68.168 103.934H68.25V103.852H68.332L68.3672 103.898H68.4141V103.77H68.4844L68.4492 103.98H68.5312L68.5664 103.77L68.5312 103.523H68.5664L68.5312 103.488V103.441L68.5664 103.406V103.359L68.4492 103.324L68.5312 103.242L68.6133 103.324C68.793 102.66 68.9297 102.273 69.0234 102.164L68.9414 102.082C69.0352 100.715 69.1602 100.031 69.3164 100.031C69.4805 99.7969 69.5625 99.5625 69.5625 99.3281L69.6445 99.082L69.6797 99.0352V98.9531L69.5625 98.707C69.75 98.668 69.8438 98.6016 69.8438 98.5078L70.0547 98.0039C70 98.0039 69.9727 97.9492 69.9727 97.8398H69.9258L69.8906 97.8867H69.8438L69.8086 97.7227L69.6797 97.8047H69.6445L69.7617 97.5586L69.7266 97.5117H69.6445C69.6367 97.5977 69.5117 97.668 69.2695 97.7227H69.2344L69.5625 97.3945V97.3125L69.5156 97.2656V97.2305L69.6445 97.1836V97.1016C69.5352 97.1016 69.4805 97.0742 69.4805 97.0195V96.9844H69.5977V96.9375H69.5625L68.9883 96.9844H68.8594V96.9023H68.9062C69.4219 96.8477 69.6953 96.7773 69.7266 96.6914C69.6094 96.6523 69.5273 96.582 69.4805 96.4805H69.5156L69.8906 96.5742L69.9258 96.5273V96.4805L69.7617 96.2344V96.0352C69.8711 96.1055 69.9258 96.1992 69.9258 96.3164H70.0078L69.9727 96.1172H70.0547C70.0547 96.25 70.082 96.3164 70.1367 96.3164L70.1719 95.9531H70.2188C70.3047 95.9688 70.3477 96.0781 70.3477 96.2812L70.3828 96.2344H70.4297L70.4648 96.2812C70.4805 96.1719 70.5234 96.1172 70.5938 96.1172H70.6289L70.6758 96.2344L70.5469 96.3633L70.6758 96.3984C70.9727 96.2344 71.1211 96.0977 71.1211 95.9883L71.5312 95.0039C71.5312 94.6992 71.6133 94.4805 71.7773 94.3477L71.8242 94.1367L71.6953 94.0195V93.9727L71.9062 94.0195V93.9727C71.9062 93.8945 71.9766 93.8398 72.1172 93.8086C72.1172 93.7305 72.1562 93.6914 72.2344 93.6914C72.3984 93.5742 72.4805 93.3516 72.4805 93.0234L73.0547 92.332C73.1953 91.8633 73.4023 91.6289 73.6758 91.6289ZM68.6133 91.7109H68.6953C69.1484 91.8438 69.4219 91.9688 69.5156 92.0859H69.4805L68.6133 91.793V91.7109ZM70.793 91.9219H70.875V91.957L70.8398 92.0039V92.0391C71.0586 92.0391 71.25 92.1367 71.4141 92.332H71.8594V92.4141H71.7422C71.625 92.4141 71.5 92.4961 71.3672 92.6602L71.4492 92.9062L70.875 93.3164C70.875 93.4648 70.7266 93.5742 70.4297 93.6445L70.2188 93.9727H70.1719L70.3008 93.6445L69.9258 93.5273H69.8906C69.7578 93.6367 69.6484 93.6914 69.5625 93.6914L69.4336 93.6094L69.3984 93.6445H69.3516L69.2344 93.6094L69.1055 93.6445L69.3164 93.3984C69.2305 93.3984 69.1602 93.3438 69.1055 93.2344V93.0703L69.3164 92.6953L69.4336 92.6602V92.5781C69.3711 92.5781 69.25 92.4961 69.0703 92.332V92.2852H69.1055L69.5977 92.5781L69.8438 92.4961C69.8438 92.4102 69.8867 92.3672 69.9727 92.3672V92.332C69.8477 92.3164 69.7109 92.2344 69.5625 92.0859H69.6445L70.1719 92.25C70.1719 92.1953 70.2969 92.1523 70.5469 92.1211L70.5938 92.168L70.793 91.9219ZM77.0508 94.6289L77.0977 94.6758V94.7109L77.0508 94.7578H76.9688V94.7109L77.0508 94.6289ZM71.2852 94.875V95.0039L71.168 95.1328H71.1211L71.0391 95.0508V95.0039C71.0391 94.9492 71.1211 94.9062 71.2852 94.875ZM70.2188 95.0508L70.3828 95.25L70.3477 95.543H70.1367V95.4609H70.2188L69.9727 95.2969V95.168C69.9961 95.0898 70.0781 95.0508 70.2188 95.0508ZM76.8516 95.2148V95.25L76.7578 95.332L76.6758 95.25L76.7227 95.2148H76.8516ZM69.1055 95.6602L69.1875 95.7891L69.1055 95.8711L69.0234 95.707L69.0703 95.6602H69.1055ZM68.332 95.9531L68.4492 96.0703L68.4141 96.1172H68.3672L68.25 95.9883L68.2852 95.9531H68.332ZM68.3672 96.5742H68.4141V96.6914H68.2852V96.6562L68.3672 96.5742ZM75.0352 96.5742H75.1641L75.2461 96.6562L75.1172 96.7383H75.0352L74.9531 96.6562L75.0352 96.5742ZM68.168 97.3945H68.25V97.4766L68.0859 97.5117V97.4766L68.168 97.3945ZM69.8438 97.8867V98.0039H69.7617V97.9688L69.8438 97.8867ZM81.457 98.6719H81.4922V98.707L81.375 98.8359V98.7539L81.457 98.6719ZM79.3594 99H79.3945V99.0352L79.1484 99.1992V99.1641C79.2031 99.0547 79.2734 99 79.3594 99ZM87.7031 96.6562L87.75 96.7031V96.75L87.7031 96.7969H87.6562L87.6094 96.75V96.7031L87.6562 96.6562H87.7031ZM75.2461 102.457H75.2812L75.3633 102.539L75.3281 102.574H75.2812L75.2461 102.539V102.457ZM68.4492 102.738L68.4844 102.785V102.867H68.3672V102.82L68.4492 102.738ZM67.5938 102.785L67.6289 102.82V102.867L67.5938 102.902H67.5117V102.867L67.5938 102.785ZM67.9219 103.066L68.0391 103.195V103.324H68.0039L67.8398 103.16L67.9219 103.066ZM67.0195 103.277H67.0547L67.1367 103.359L67.1016 103.406H67.0547L67.0195 103.359V103.277ZM74.2969 103.324H74.3789L74.4609 103.406L74.332 103.523H74.168C74.207 103.391 74.25 103.324 74.2969 103.324ZM67.5469 103.488H67.5938L67.6758 103.57V103.605L67.5469 103.488ZM76.9336 103.605V103.652L76.5938 103.898L76.5586 103.852V103.816C76.6289 103.676 76.7539 103.605 76.9336 103.605ZM66.7266 103.816L66.7617 103.852V103.98H66.6797L66.6445 103.852L66.6797 103.816H66.7266ZM65.4141 104.18H65.5781L65.6602 104.262L65.6133 104.309V104.344L65.6602 104.391L65.4492 104.426L65.3203 104.309V104.262L65.4141 104.18ZM77.2148 104.262H77.3438L77.2617 104.344L77.2148 104.309V104.262ZM67.4297 104.344V104.426H67.3477L67.3008 104.391H67.2656L67.2188 104.426V104.473C67.2969 104.473 67.3789 104.512 67.4648 104.59C67.5742 104.551 67.6289 104.512 67.6289 104.473C67.5195 104.473 67.4648 104.445 67.4648 104.391L67.5117 104.344H67.4297ZM67.5469 104.637L67.5938 104.848H67.6289L67.6758 104.637H67.5469ZM73.2188 104.59H73.2656L73.3828 104.719V104.754H73.3477L73.2188 104.719V104.59ZM72.4453 104.754H72.7266L72.8086 104.848L72.6445 104.965C72.5195 104.91 72.4531 104.855 72.4453 104.801V104.754ZM72.3164 104.801V104.883L72.1523 104.93V104.848L72.3164 104.801ZM67.5469 104.93C67.5469 105.078 67.4805 105.199 67.3477 105.293V105.375L67.7578 105.668H67.793L67.8398 105.258V105.211C67.7539 105.211 67.7109 105.184 67.7109 105.129L67.7578 105.094C67.6719 105.094 67.6289 105.051 67.6289 104.965L67.5938 104.93H67.5469ZM71.0391 104.93L71.0039 104.965V105.012H71.0391L71.168 104.965V104.93H71.0391ZM70.6289 105.34C70.6289 105.473 70.7266 105.609 70.9219 105.75V105.785H71.0039L71.0391 105.504C70.9531 105.504 70.8984 105.367 70.875 105.094L70.957 105.012H70.9219L70.6289 105.34ZM66.0234 105.621H66.1875L66.3516 105.703L66.4805 105.668L66.5156 105.703V105.832L66.4336 105.914L66.3164 105.832C66.3164 105.91 66.2617 105.949 66.1523 105.949C66.0273 105.902 65.957 105.848 65.9414 105.785V105.703L66.0234 105.621ZM72.1172 105.621H72.1523L72.2344 105.703L72.1992 105.75H72.1172V105.621ZM66.2695 106.031L66.3164 106.078V106.113L66.2695 106.16H66.2344L66.1875 106.113V106.078L66.2344 106.031H66.2695ZM69.3164 106.816L69.3516 106.863H69.3984L69.5625 106.734H69.7617C69.7617 106.516 69.8164 106.406 69.9258 106.406V106.324H69.8438C69.5391 106.496 69.3633 106.66 69.3164 106.816ZM72.3164 106.406V106.488L71.9883 106.57V106.488L72.3164 106.406ZM70.0078 106.535C69.9922 106.699 69.9102 106.781 69.7617 106.781L69.8438 106.898V106.945C69.7109 107.047 69.6445 107.168 69.6445 107.309L69.6797 107.355H69.7266L69.8086 107.273H69.8438L69.7617 107.391L69.9727 107.438L70.0898 107.273L70.0078 107.191C70.0469 106.832 70.1016 106.652 70.1719 106.652L70.1367 106.535H70.0078ZM68.0391 107.027C68.0391 107.16 67.9727 107.227 67.8398 107.227V107.355L68.0391 107.391H68.1211V107.355L68.0859 107.027H68.0391ZM67.7109 107.438L67.6758 107.473V107.555H67.875C67.875 107.516 67.8203 107.477 67.7109 107.438ZM65.6133 108.129H65.6953V108.176L65.5312 108.293L65.4961 108.258V108.211L65.6133 108.129ZM67.4648 108.129H67.5117V108.258H67.3828V108.211L67.4648 108.129ZM66.8086 108.457L66.8438 108.504V108.586H66.8086L66.7266 108.504L66.7617 108.457H66.8086ZM67.1016 109.488H67.1367V109.523L67.0547 109.605H67.0195V109.57L67.1016 109.488ZM76.9922 89.8242C77.1094 89.9414 77.2969 90.0547 77.5547 90.1641L78.3516 90.1172H78.3984L78.5742 90.082C78.6992 90.1367 78.7695 90.1914 78.7852 90.2461V90.3398H78.5273L78.2344 90.2461L78.0117 90.293L77.8008 90.2461C77.7305 90.3086 77.5898 90.3398 77.3789 90.3398L77.332 90.375V90.457L77.5547 90.5508C77.5078 90.6758 77.4219 90.7734 77.2969 90.8438H77.168L76.9922 90.7148L77.0859 90.457L77.0391 90.5039H76.875L76.5352 90.2461L76.1953 90.4219V90.375C76.1953 90.3203 76.2344 90.293 76.3125 90.293L76.5703 90.1172C76.5703 89.9219 76.7109 89.8242 76.9922 89.8242ZM85.3594 90L86.1328 90.1641V90.1172L86.168 90.1641H86.25V90.082H86.3438V90.1641L86.5078 90.1172L86.7656 90.293C86.9375 90.1758 87.0781 90.1172 87.1875 90.1172C87.1094 90.2656 87.0234 90.3398 86.9297 90.3398L87.0234 90.457V90.5508L86.9766 90.5859V90.6328L87.1055 90.7617V90.7969C87.1055 90.8438 87.0469 90.8867 86.9297 90.9258L86.6836 90.6797H86.5898L86.4258 90.9258C86.4258 91.0977 86.5391 91.1836 86.7656 91.1836L86.8125 91.1367H86.8477L87.1523 91.1836L87.2812 91.1367L87.3164 91.1836V91.2305L87.2812 91.2656V91.3125L87.3164 91.3594H87.3633L87.7852 91.2305V91.3125L87.0234 91.5234C86.9922 91.4375 86.9062 91.3945 86.7656 91.3945H86.7188V91.4414C86.7188 91.5977 86.9453 91.7812 87.3984 91.9922L87.4922 92.0742L87.7031 92.0391C87.7031 92.1016 87.7734 92.1406 87.9141 92.1562L88.043 92.0391L88.125 92.1211L88.3008 91.9922V91.8633L88.0781 91.8164L88.043 91.8633L87.8672 91.6055H87.7383C87.7383 91.7227 87.6992 91.7812 87.6211 91.7812H87.5742L87.4922 91.6992C87.4922 91.6367 87.6172 91.5781 87.8672 91.5234H87.9609L88.207 91.6523L88.2539 91.6055C88.2227 91.3789 88.1797 91.2656 88.125 91.2656H88.0781L87.8672 91.3125L87.832 91.2656V91.2305L88.043 91.1367V91.1016L87.7031 90.9258H87.5273L87.3984 91.0195H87.3164C87.2617 91.0195 87.2344 90.9766 87.2344 90.8906C87.2891 90.7188 87.3594 90.6328 87.4453 90.6328C87.5625 90.6641 87.6211 90.7188 87.6211 90.7969H87.7031L87.8672 90.5859L87.6562 90.3398L87.7031 90.293H87.7383L87.9609 90.5508H87.9961V90.4219H88.043L88.207 90.5508H88.2539L88.5469 90.2461H88.5938L88.3828 90.5859V90.6328H88.4648V90.6797L88.5117 90.6328H88.6406L88.5469 90.7617C88.6094 90.7617 88.6406 90.8047 88.6406 90.8906H88.7227L89.1914 90.6328L89.7773 90.4219C89.7773 90.4766 89.9062 90.5312 90.1641 90.5859V90.6797H89.9531L89.8242 90.5859C89.7461 90.6641 89.4492 90.7656 88.9336 90.8906L88.9805 91.1016H88.8516L89.0977 91.5234L89.2266 91.6523V91.7812L89.0625 91.9102C89.0625 92.1445 88.9492 92.5664 88.7227 93.1758C88.6055 93.4414 88.4766 93.8828 88.3359 94.5V95.7773C88.3359 95.9727 88.2812 96.2266 88.1719 96.5391L88.3008 96.75V97.1367L88.0781 97.3828V97.6875C88.0781 97.7891 88.0234 97.9297 87.9141 98.1094V98.1914C88 98.1914 88.043 98.2344 88.043 98.3203C88.043 98.7188 87.9727 99.1445 87.832 99.5977L87.8672 100.535L87.7852 101.344L87.9609 103.207L87.7383 104.309L87.7852 104.824L87.5742 105.715L87.5273 105.926L87.4922 105.973H87.4453L87.3984 105.926V105.68H87.3164C87.3164 105.594 87.2461 105.551 87.1055 105.551L87.0586 105.375H86.9297L86.9766 105.551L86.9297 106.312H86.8477V105.926L86.8125 105.762L86.8477 105.715V105.68C86.832 105.391 86.8047 105.246 86.7656 105.246C86.6484 105.246 86.5195 105.105 86.3789 104.824C86.2305 104.621 86.0898 104.281 85.957 103.805L85.2773 102.785C85.2773 102.605 85.0508 102.336 84.5977 101.977L84.2578 101.379C84.1406 101.332 84.0273 101.121 83.918 100.746L83.9648 100.535C83.8789 100.535 83.8359 100.422 83.8359 100.195C83.7812 100.195 83.7227 100.082 83.6602 99.8555C83.4883 99.8008 83.25 99.5156 82.9453 99C82.7969 98.9141 82.6836 98.8008 82.6055 98.6602C82.3477 98.4727 82.2188 98.3047 82.2188 98.1562L81.668 97.4766C81.668 97.3359 81.5273 97.0938 81.2461 96.75V96.7031H81.1992V96.75L81.2461 96.9609L81.1992 97.7695V98.2852L81.2812 98.4023V98.4492L81.2461 99.082C81.3555 99.3477 81.4375 99.9883 81.4922 101.004L81.5859 101.086V101.637L81.832 102.527C81.918 102.527 82.0312 102.926 82.1719 103.723C82.1406 103.973 82.0859 104.141 82.0078 104.227V104.309C82.1641 104.48 82.2773 104.566 82.3477 104.566L82.5586 104.531V104.613H82.4297L82.4766 104.66V104.695L82.3477 104.824C82.457 104.824 82.5117 104.895 82.5117 105.035L82.5586 105H82.6055L82.6406 105.164H82.6055C82.6445 105.281 82.6836 105.34 82.7227 105.34L82.6875 105.375V105.457C82.7188 105.527 82.9023 105.629 83.2383 105.762C83.4258 105.848 83.668 105.902 83.9648 105.926V106.02L83.4492 105.973L83.1094 106.137L82.9453 106.055C82.9453 106.141 82.8164 106.211 82.5586 106.266C82.6133 106.156 82.6992 106.102 82.8164 106.102V106.055L82.7227 105.926L82.7695 105.762C82.6055 105.762 82.3789 105.449 82.0898 104.824H81.9609L81.8789 105.082L81.832 105.035H81.75C81.75 105.121 81.707 105.164 81.6211 105.164L81.5859 105.211V105.246C81.6406 105.246 81.668 105.305 81.668 105.422C81.918 105.516 82.043 105.586 82.043 105.633H82.0078L81.5859 105.457L81.5391 105.504H81.4922C81.3672 105.488 81.2539 105.332 81.1523 105.035L81.1172 105H80.9414C80.8789 105 80.8359 105.141 80.8125 105.422C80.8125 105.508 80.8828 105.551 81.0234 105.551C81.125 105.863 81.1992 106.02 81.2461 106.02C81.3242 105.848 81.4492 105.762 81.6211 105.762C81.4492 105.918 81.3633 106.043 81.3633 106.137V106.184H81.5391L82.043 106.266L82.2656 106.137L82.3008 106.184V106.23L82.2656 106.266C82.375 106.266 82.4297 106.336 82.4297 106.477L82.8984 106.605H82.9805V106.699C82.8477 106.699 82.75 106.738 82.6875 106.816H82.6406L82.4766 106.699V106.734C82.4766 106.906 82.5898 107.035 82.8164 107.121C82.957 107.121 83.0273 107.148 83.0273 107.203V107.25L82.9453 107.332H82.8984C82.5312 107.09 82.3477 106.863 82.3477 106.652L81.9609 106.441V106.477L82.1719 106.781L82.1367 106.91C82.2227 106.934 82.2656 107.016 82.2656 107.156C82.0078 106.93 81.8633 106.734 81.832 106.57L81.9258 106.477L81.4922 106.441L81.4102 106.734H81.3633L81.3281 106.699H81.2812L81.3633 106.477L81.2461 106.395L80.9883 106.477V106.441L81.0703 106.312C80.9609 106.164 80.8359 106.066 80.6953 106.02L80.5664 106.055L80.6133 106.266H80.5664L80.6133 106.312V106.395C80.418 106.395 80.2734 106.309 80.1797 106.137C80.125 106.137 80.0977 106.066 80.0977 105.926C79.9336 105.926 79.793 106.012 79.6758 106.184L79.7227 106.359L79.6758 106.395C79.793 106.395 79.9219 106.508 80.0625 106.734L80.2734 106.781V106.863H80.2266L80.0977 106.816V106.863L79.9336 106.992L79.8867 107.039V107.074C80.3555 107.66 80.8203 108.012 81.2812 108.129L81.3633 108.211L81.2812 108.293H81.2461C80.8398 108.082 80.3594 107.734 79.8047 107.25L79.6289 107.285L79.3359 107.25L79.125 107.332L79.2539 107.074C79.1133 107.074 79.0117 107.02 78.9492 106.91C78.8398 106.91 78.7695 106.84 78.7383 106.699L78.9961 106.359L78.9492 106.312V106.266L78.9141 106.312H78.7383C78.668 106.312 78.5977 106.199 78.5273 105.973H78.4805V106.02L78.5273 106.184C78.4414 106.184 78.3984 106.324 78.3984 106.605L78.2344 106.699L78.1055 106.652L78.0117 106.816L77.8008 106.781L77.5898 106.992L77.5547 106.945V106.91L77.7656 106.699L77.7188 106.652C77.9375 106.574 78.0664 106.488 78.1055 106.395L78.0586 106.23L78.1875 106.102L78.1055 105.762V105.633H77.9297C77.9297 105.742 77.8438 105.797 77.6719 105.797C77.6719 105.914 77.6328 105.973 77.5547 105.973V105.926L77.6367 105.68L77.5898 105.633L77.6367 105.586H77.6719L77.6367 105.457C77.6367 105.293 77.6914 105.211 77.8008 105.211V105.117L76.957 104.613L76.9922 104.566H77.0391L77.6719 104.906L77.8945 105.035V105L77.8477 104.871L78.0586 104.777L78.0117 104.742V104.613H78.1406L78.0117 104.145V104.098L78.1406 103.969H78.1875L78.2695 104.062C78.2695 104.117 78.2266 104.145 78.1406 104.145L78.2344 104.613L78.1406 104.695L78.3516 104.742V104.695C78.3516 104.609 78.3945 104.566 78.4805 104.566L78.5273 104.531V104.484L78.4805 104.438L78.6094 104.309L78.1875 103.629C78.375 103.48 78.4727 103.355 78.4805 103.254H78.5742C78.7695 103.293 78.8672 103.348 78.8672 103.418L78.8203 103.547L78.9141 103.629C78.9141 103.691 78.8711 103.723 78.7852 103.723V103.852H78.8203C79.1094 103.711 79.2539 103.609 79.2539 103.547L79.207 102.996H79.2539L79.207 102.949V102.914L79.2539 102.738C79.1836 102.738 79.1406 102.613 79.125 102.363C79.125 101.512 79.2227 100.801 79.418 100.23L79.3828 100.195C79.4609 100.172 79.5 100.059 79.5 99.8555C79.5625 99.8555 79.6367 99.7539 79.7227 99.5508H79.7578V99.4688L79.125 100.02L79.0781 99.9844V99.9375C79.2969 99.7812 79.4688 99.6094 79.5938 99.4219L79.7578 99.3398V99.3047L79.3359 98.8359C79.5234 98.8359 79.6523 98.7773 79.7227 98.6602L79.5 98.4961H79.4648L79.3359 98.5781H79.2891V98.5312L79.3828 98.4023L79.3359 98.1914V98.1094C79.5312 97.8203 79.6289 97.4258 79.6289 96.9258V96.75L79.5469 96.6211L79.5938 96.4922C79.5391 96.4922 79.4531 96.3945 79.3359 96.1992V95.7773C79.3359 95.6133 79.1797 95.4414 78.8672 95.2617V95.3438H78.7852L78.7383 95.3086H78.6914C78.5977 95.6211 78.3008 95.7773 77.8008 95.7773C77.8008 95.8164 77.6602 95.8711 77.3789 95.9414L77.4258 95.9883V96.0234L77.25 96.2812L77.2148 96.2461H77.168L76.957 96.2812V96.2461L76.9922 96.1992V96.1523H76.957L76.3594 96.4922C76.2266 96.4375 76.1562 96.3828 76.1484 96.3281V96.1523L76.2305 96.0703H76.2773L76.4883 96.1172C76.4883 96.0469 76.6875 95.9883 77.0859 95.9414C77.1484 95.7695 77.2734 95.6836 77.4609 95.6836H77.7656L77.9297 95.6016L78.2344 95.6484L78.6094 95.4375V95.2617C78.4688 95.1367 78.3984 94.9961 78.3984 94.8398L78.6914 94.582V94.5352H78.5742L78.4453 94.6289H78.2695V94.5352L78.3164 94.3242L78.1875 94.1953V94.1602L78.2344 94.1133V94.0781C78.1641 94.0781 78.1211 94.0039 78.1055 93.8555H77.9766L77.8945 93.9492C78.0039 93.9648 78.0586 94.0078 78.0586 94.0781H77.9766L78.0586 94.1953C78.0586 94.2812 77.9883 94.3242 77.8477 94.3242L78.1055 94.582L78.0586 94.793L78.2695 94.9688L78.1875 95.0508C78.1406 95.0508 78.082 95.1641 78.0117 95.3906H77.8945L77.8008 95.3086H77.8477L77.8008 95.2617V95.1797C77.8008 95.125 77.8594 95.0977 77.9766 95.0977C77.8359 94.9883 77.7656 94.9023 77.7656 94.8398H77.6719L77.5078 94.9688H77.4609V94.9219L77.5898 94.7578L77.4609 94.6289V94.582L77.5547 94.4531L77.5078 94.418H77.4609L77.4258 94.4531H77.3789L77.332 94.3242L77.0859 94.418V94.3242H77.0391C76.9531 94.3477 76.8984 94.4062 76.875 94.5H76.7812L76.6523 94.4531L76.5703 94.5352H76.4062L76.4414 94.5V94.418L76.3125 94.3711C76.2266 94.3711 76.0156 94.5977 75.6797 95.0508L75.5977 94.9688C75.957 94.5391 76.1836 94.3242 76.2773 94.3242L76.2305 94.2891V94.1953L76.3125 94.0781L76.0195 93.7734V93.7383L76.3594 93.8555H76.4062L76.9102 93.6094C76.9102 93.5312 76.8398 93.4883 76.6992 93.4805L76.8281 93.2695L76.7461 93.1758V93.1406L76.957 93.1758V93.0938C76.4258 92.5 76.1133 92.2031 76.0195 92.2031L75.6797 92.0391L75.7266 91.9922V91.9453L75.4219 91.6992H75.5156L75.7266 91.8164V91.7344H75.7617L75.8906 91.7812V91.7344L75.9727 91.6523H76.0195L75.9727 91.8633V91.9102C76.0352 91.9102 76.1367 91.9922 76.2773 92.1562L76.7812 92.625C76.7812 92.7344 76.9258 92.8789 77.2148 93.0586H77.2969L77.5078 92.9297L77.2969 92.7188L77.5078 92.6719L77.2148 92.2852H77.25C77.4688 92.4805 77.6523 92.5938 77.8008 92.625L77.8477 92.4609H77.9297L77.8477 92.7188C77.9258 92.7188 78.0117 92.7578 78.1055 92.8359H78.1875V92.8008L78.1055 92.543H78.1406L78.1055 92.4961V92.3789H78.2344C78.2344 92.3008 78.1758 92.2578 78.0586 92.25V92.1562H78.1055L78.1875 92.25L78.3164 92.1562C78.3164 92.1094 78.1602 91.9414 77.8477 91.6523L77.8945 91.6055C78.043 91.6055 78.1836 91.707 78.3164 91.9102H78.3984L78.4805 91.8164H78.5273L78.3984 91.9922V92.0391C78.3984 92.0938 78.457 92.1211 78.5742 92.1211L78.5273 92.1562V92.332L78.6094 92.4141C78.6797 92.4141 78.8516 92.2461 79.125 91.9102L79.1602 91.9453H79.207C79.207 92.0547 79.1094 92.1562 78.9141 92.25V92.332L79.0781 92.4961L79.3828 92.3789L79.3359 92.25L79.418 92.0391L79.2539 91.8164V91.7812L79.418 91.9102V91.8164L79.2891 91.6523H79.3359C79.5 91.793 79.668 91.8633 79.8398 91.8633L79.5469 91.6992V91.6523C79.7188 91.6523 79.918 91.3984 80.1445 90.8906L80.0977 90.6797L80.2266 90.7617L80.2734 90.7148H80.3086V90.7969L80.2734 90.8438V90.8906H80.3086L80.6484 90.7969C80.6484 90.8594 80.4922 90.9453 80.1797 91.0547L80.0156 91.5234V91.6523C80.4062 91.9883 80.6328 92.1562 80.6953 92.1562L80.8125 92.2852L80.7773 92.332H80.7305L80.5195 92.2031L80.4375 92.2852L80.4844 92.4141L80.1797 92.5898V92.625C80.4062 92.6953 80.5195 92.7539 80.5195 92.8008L80.4375 92.9297V93.0117C80.625 93.3633 80.9062 93.6328 81.2812 93.8203C81.2812 93.8672 81.3828 93.9219 81.5859 93.9844C81.9219 94.7812 82.418 95.5195 83.0742 96.1992H83.1094L83.1562 96.0703C83.0703 96.0703 83.0273 96.043 83.0273 95.9883V95.9062L83.1094 95.8125C83.2266 95.8594 83.2852 95.9023 83.2852 95.9414L83.2383 95.9883C83.3086 96.168 83.3789 96.2656 83.4492 96.2812L83.7891 96.0703C83.7344 95.8438 83.6797 95.7305 83.625 95.7305H83.5781C83.5781 95.8711 83.5508 95.9414 83.4961 95.9414L83.4141 95.8125V95.7305L83.5312 95.6016C83.7031 95.6016 83.832 95.7305 83.918 95.9883H83.9648L84.1289 95.6484C84.0742 95.6484 84.0469 95.5898 84.0469 95.4727H83.9648V95.3906H84.0938L84.3867 95.7305C84.3867 95.6133 84.5156 95.4727 84.7734 95.3086V95.3438C84.5469 95.5781 84.4336 95.75 84.4336 95.8594H84.5508V95.9062L84.4688 95.9883L84.3398 95.9062C84.3398 95.9609 84.2852 95.9883 84.1758 95.9883V96.2461L84.0938 96.3633L84.1289 96.4102C84.3867 96.3789 84.7266 96.2812 85.1484 96.1172H85.2305L85.3242 96.1992C84.582 96.4023 84.2109 96.543 84.2109 96.6211L84.0938 96.668V96.7969L84.1289 96.75H84.1758C84.2773 96.7969 84.375 96.9102 84.4688 97.0898C84.5859 97.0898 84.7266 97.2031 84.8906 97.4297C85.0938 97.4844 85.1953 97.5977 85.1953 97.7695V97.8164L85.0195 98.0273H84.9844C84.9375 98.0273 84.8945 97.9688 84.8555 97.8516L85.0195 97.6875L84.6445 97.3008L84.6797 97.2656C84.6016 97.2656 84.4766 97.1797 84.3047 97.0078H84.2578L84.3047 97.043V97.1719L84.2109 97.2656C84.1328 97.2656 84.0938 97.2227 84.0938 97.1367H84L83.918 97.2188V97.2656C84.0039 97.2656 84.1172 97.3477 84.2578 97.5117L84.1758 97.6406L84.2109 97.7695L84.0469 97.8516L84.5156 98.625C84.6484 98.6328 84.918 99.1133 85.3242 100.066C85.3945 100.098 85.4648 100.254 85.5352 100.535C85.6289 100.574 85.7695 100.828 85.957 101.297L86.0859 101.379C86.1406 101.379 86.1836 101.195 86.2148 100.828C86.3555 100.641 86.4258 100.484 86.4258 100.359V100.113C86.3398 99.9883 86.2969 99.875 86.2969 99.7734H86.3438L86.2969 99.7266L86.3438 99V98.4961L86.2969 98.1094L86.3438 97.9453L86.2148 97.3477V96.832C85.8711 96.3242 85.6992 95.7734 85.6992 95.1797C85.6992 94.8516 85.5586 94.4258 85.2773 93.9023C85.1914 93.8633 85.0625 93.6094 84.8906 93.1406C84.6406 92.7656 84.5156 92.4961 84.5156 92.332V92.2852C84.7578 92.0352 84.957 91.9102 85.1133 91.9102V91.8633L84.8906 91.7344H84.4336C84.3789 91.7344 84.2656 91.8633 84.0938 92.1211H83.918C83.832 92.0898 83.7891 92.0039 83.7891 91.8633L84.2109 91.6523H84.3867C84.7617 91.6523 85.0156 91.5234 85.1484 91.2656V91.1836L85.0664 91.1016H84.8906L84.5156 91.3594H84.4688V91.3125L84.8086 90.9727L84.7734 90.9258H84.7266L84.8555 90.6328L84.3398 90.5508V90.457H84.3867L84.8555 90.5508C84.8555 90.293 84.9688 90.1641 85.1953 90.1641C85.25 90.1641 85.2773 90.1211 85.2773 90.0352L85.3242 90H85.3594ZM81.0234 90.0352L81.1172 90.1172L81.0703 90.1641H80.9414L80.8594 90.082L80.9062 90.0352H81.0234ZM79.207 90.1172H79.3359V90.2109H79.207V90.1172ZM78.9141 90.4219C79.3047 90.4766 79.5 90.5469 79.5 90.6328L79.418 90.7148C79.332 90.6289 79.1758 90.5586 78.9492 90.5039L78.9141 90.457V90.4219ZM80.0156 90.457H80.0625L80.0977 90.6797C79.9883 90.6328 79.9336 90.5898 79.9336 90.5508L80.0156 90.457ZM81.2461 90.5859L81.2812 90.6328C81.2812 90.6875 81.3516 90.7148 81.4922 90.7148L81.5391 90.7617V90.7969L81.2461 90.8906L81.1523 90.7148L80.7305 90.7969V90.7148L81.2461 90.5859ZM90.2109 90.6328H90.2461L90.3398 90.7148H90.2109V90.6328ZM76.7461 90.6797H76.8281L76.9102 90.7617V90.7969L76.8281 90.8906H76.7812L76.6523 90.7617L76.7461 90.6797ZM77.6719 90.8906L77.8008 91.0195L77.7188 91.1016H77.6719L77.5898 91.0195V90.9727L77.6719 90.8906ZM77.168 90.9258L77.25 91.0195L77.168 91.1016L77.0859 90.9727L77.1211 90.9258H77.168ZM78.1875 91.0547H78.2344C78.1875 91.1719 78.1445 91.2305 78.1055 91.2305L78.0586 91.1836V91.1367L78.1875 91.0547ZM78.7383 91.1016C78.8789 91.1406 78.9492 91.2383 78.9492 91.3945H78.8672V91.3125C78.7812 91.3125 78.7383 91.2852 78.7383 91.2305V91.1016ZM83.5781 91.1016H83.625L83.707 91.1836V91.2305L83.625 91.3125H83.5781L83.4961 91.2305V91.1836L83.5781 91.1016ZM76.6992 91.3125H76.7812L76.7461 91.5234V91.6055L76.9922 91.6992V91.7812L76.6523 91.8633H76.6172L76.5352 91.7812L76.6172 91.6992L76.4414 91.6523V91.5703C76.4414 91.5078 76.5117 91.4766 76.6523 91.4766L76.6992 91.3125ZM79.5938 91.3125H79.6758V91.3945L79.5938 91.4766H79.5V91.3945L79.5938 91.3125ZM82.8516 91.3125C82.8516 91.3594 82.9531 91.4141 83.1562 91.4766V91.6055C83.1562 91.6523 83.043 91.7383 82.8164 91.8633C82.5273 91.6367 82.3828 91.4961 82.3828 91.4414C82.5 91.3555 82.6562 91.3125 82.8516 91.3125ZM80.3555 91.4414L80.4375 91.5234L80.4023 91.5703H80.3086L80.2266 91.4766L80.2734 91.4414H80.3555ZM81.832 91.6992C81.8555 91.7773 81.9688 91.8164 82.1719 91.8164L82.2656 92.0391L82.0078 92.1211C81.8984 91.918 81.7852 91.8164 81.668 91.8164L81.4102 91.8633L81.1523 91.8164C80.8633 91.8477 80.6836 91.9062 80.6133 91.9922H80.5195V91.9102C80.5195 91.8008 80.957 91.7305 81.832 91.6992ZM77.2148 91.9102H77.332V91.9453L77.25 92.0391L77.2148 91.9922V91.9102ZM83.0742 92.0742L83.1562 92.1562L83.1094 92.2031H83.0742L82.9805 92.1211L83.0273 92.0742H83.0742ZM81.2812 92.1211C81.5078 92.168 81.6211 92.2227 81.6211 92.2852V92.332L81.4922 92.4609H81.3281L81.1523 92.3789C81.1836 92.207 81.2266 92.1211 81.2812 92.1211ZM75.293 92.1562L75.5156 92.2031L75.5508 92.1562L75.6797 92.4141L75.5977 92.4961L75.6328 92.625L75.3867 92.7188C75.3242 92.7188 75.293 92.6758 75.293 92.5898L75.3398 92.4609L75.1641 92.2852L75.293 92.1562ZM76.875 92.25H76.957L77.0391 92.332V92.4141L76.957 92.4961L76.875 92.4141V92.25ZM79.1602 92.5898L79.2891 92.6719H79.3828L79.4648 92.5898L79.418 92.4609C79.2461 92.4766 79.1602 92.5195 79.1602 92.5898ZM80.6133 92.4141H80.7305L80.8594 92.543L80.7305 92.625C80.668 92.625 80.6289 92.5547 80.6133 92.4141ZM75.8906 92.6719L75.9375 92.7188V92.8008L75.8086 92.7539L75.8906 92.6719ZM82.7695 92.8359C82.7695 92.9062 82.8828 92.9492 83.1094 92.9648L83.2383 92.9297L83.4961 93.2227L83.3672 93.3516C83.2734 93.3516 83.1602 93.293 83.0273 93.1758C83.0273 93.2617 82.9688 93.3047 82.8516 93.3047C82.6016 93.2891 82.4766 93.2461 82.4766 93.1758C82.5312 93.1758 82.5586 93.0938 82.5586 92.9297L82.7695 92.8359ZM80.6953 92.9297C80.8359 92.9609 80.9062 93.0039 80.9062 93.0586V93.0938H80.8125L80.6953 92.9648V92.9297ZM76.4062 93.0117L76.6523 93.0938V93.1758C76.457 93.1523 76.3594 93.1133 76.3594 93.0586L76.4062 93.0117ZM76.4414 93.2695C76.5039 93.2695 76.5352 93.3242 76.5352 93.4336C76.6445 93.4336 76.6992 93.4609 76.6992 93.5156L76.6172 93.6094C76.6172 93.5469 76.5156 93.4883 76.3125 93.4336V93.3984L76.4414 93.2695ZM76.9102 93.3047L76.875 93.4336H76.957L77.0859 93.3984L76.9922 93.3047H76.9102ZM82.9453 93.3984H82.9805L83.1094 93.5156L82.9805 93.6914H82.9453C82.875 93.6914 82.832 93.6211 82.8164 93.4805L82.9453 93.3984ZM75.6328 93.4336L75.7266 93.5156L75.5977 93.6094L75.5156 93.5156L75.6328 93.4336ZM76.7461 93.8555L76.8281 93.9492L76.7461 94.2891L76.7812 94.3242H76.8281L77.168 94.1953L77.0391 94.0312L77.0859 93.7734L76.9922 93.6445C76.875 93.6836 76.793 93.7539 76.7461 93.8555ZM83.2852 93.7383H83.3672L83.5781 93.9492L83.5312 93.9844H83.3203L83.1914 93.8555V93.8203L83.2852 93.7383ZM75.5977 93.9023H75.6328L75.7266 93.9844V94.0312L75.6328 94.1133H75.5977L75.5156 94.0312V93.9844L75.5977 93.9023ZM83.0273 94.1953H83.0742L83.1562 94.2891L83.1094 94.3242H83.0742L83.0273 94.2891V94.1953ZM76.2305 94.5352H76.3594L76.2773 94.6289H76.1484L76.2305 94.5352ZM77.9297 94.793L78.0586 94.9219V94.8867L77.9766 94.793H77.9297ZM77.2969 94.793L77.3789 94.8867L77.332 94.9219H77.25L77.168 94.8398L77.2148 94.793H77.2969ZM76.6523 94.8398L76.7461 94.9219L76.6992 94.9688H76.6172L76.5352 94.8867L76.5703 94.8398H76.6523ZM77.0859 95.0508L77.2148 95.2266C77.3555 95.2344 77.4258 95.2734 77.4258 95.3438L77.2148 95.5195H76.9102L76.8281 95.4375L76.9922 95.3438V95.3086C76.8828 95.3086 76.8281 95.2812 76.8281 95.2266C76.8828 95.2266 76.9102 95.1836 76.9102 95.0977L76.957 95.0508H77.0859ZM78.1406 95.2266H78.1875L78.3516 95.3906V95.4375L78.1406 95.2266ZM85.2773 95.3906L85.3242 95.4375V95.4727L85.2773 95.5195H85.1133L85.2773 95.3906ZM85.5352 96.832H85.6641V96.9258H85.5352V96.832ZM77.25 97.8984H77.3789C77.4492 97.8984 77.5078 98.0273 77.5547 98.2852C77.5 98.2852 77.457 98.2109 77.4258 98.0625C77.2539 98.0625 77.168 98.0352 77.168 97.9805L77.25 97.8984ZM78.6562 97.8984H78.8203L78.9492 98.0273V98.1094L78.9141 98.1562V98.1914L79.125 98.3203H79.1602V98.4492L79.0781 98.5312C79.0391 98.3672 78.9961 98.2852 78.9492 98.2852H78.9141L78.7852 98.3672C78.6133 98.2344 78.5273 98.1055 78.5273 97.9805L78.6562 97.8984ZM77.5898 98.3203H77.6367L77.7656 98.4492H77.6719L77.5898 98.3672V98.3203ZM77.7656 98.4492H77.8477L78.2695 98.7422V98.8359H78.3164L78.5742 98.707C78.5742 98.7539 78.6562 98.8086 78.8203 98.8711V98.9648C78.7344 99.2695 78.6523 99.4219 78.5742 99.4219H78.3984L78.3516 99.3867H78.3164L78.2695 99.4219V99.7266H78.1406L78.0586 99.6445L78.2344 99.4219L78.1406 99.3047V99.082L78.2344 98.9648V98.8711L77.7656 98.4492ZM90.8906 102.445L90.9727 102.574L90.9258 102.609H90.8906L90.7969 102.527L90.8906 102.445ZM90.6328 102.785H90.6797L90.7617 102.867V102.949C90.7617 103.027 90.5352 103.102 90.082 103.172L89.8711 103.078C89.8242 103.195 89.7227 103.254 89.5664 103.254C89.5664 103.098 89.7812 102.996 90.2109 102.949C90.2969 102.84 90.4375 102.785 90.6328 102.785ZM88.8516 103.207H89.0977C89.2148 103.27 89.2734 103.34 89.2734 103.418L89.4375 103.289H89.5312L89.4023 103.512L89.5312 103.887L89.2734 104.016C89.0469 104 88.9336 103.957 88.9336 103.887L88.8867 103.934H88.8047L88.6406 103.676V103.629L88.7227 103.465L88.6758 103.336L88.8516 103.207ZM85.793 103.723H85.875L85.9102 103.887L85.793 103.758V103.723ZM77.2969 103.758L77.332 103.805V103.887L77.25 103.969L77.2148 103.805L77.25 103.758H77.2969ZM78.6562 105.293L78.8203 105.422V105.164L78.6562 105.293ZM83.5312 105.117H83.5781V105.211H83.4492L83.5312 105.117ZM78.7383 105.633L78.6914 105.797L78.7383 105.844H78.7852V105.633H78.7383ZM84.5508 105.762L84.5977 105.797V105.844L84.5156 105.926H84.4688L84.3867 105.844V105.797L84.5508 105.762ZM78.7852 105.973C78.8633 106.168 78.9766 106.266 79.125 106.266V106.137C79.125 106.059 79.0117 106.004 78.7852 105.973ZM77.5078 106.02V106.055L76.9922 106.734L76.9102 106.652L77.5078 106.02ZM81.7969 106.055H81.9258L81.832 106.137L81.7969 106.102V106.055ZM83.4141 106.57L83.6602 106.605H83.918L84.0938 106.699V106.816C83.9922 106.988 83.8633 107.074 83.707 107.074L83.5781 106.945L83.4492 106.992L83.0742 106.652L83.4141 106.57ZM81.457 106.781L81.5391 106.863L81.457 106.992L81.9609 107.285L81.832 107.496V107.543H81.75L81.668 107.461L81.7031 107.414V107.379L81.3281 106.992C81.3906 106.992 81.4336 106.922 81.457 106.781ZM80.4375 107.203H80.4844L80.5664 107.285V107.332H80.4375V107.203ZM78.9141 107.332H79.125L79.0312 107.414H78.9141V107.332ZM79.5469 107.754L79.5938 107.801V107.836L79.5469 107.883H79.5L79.4648 107.836V107.801L79.5 107.754H79.5469ZM81.1992 108.457L81.2812 108.551L81.1992 108.633L81.1172 108.504L81.1523 108.457H81.1992ZM81.5859 108.457H81.668L81.75 108.551L81.7031 108.586H81.668L81.5859 108.457ZM82.0078 109.102H82.043C82.1992 109.102 82.3008 109.156 82.3477 109.266L82.2656 109.359H82.0898L81.9258 109.184L82.0078 109.102ZM94.1836 91.9102H94.2773L94.3828 92.2617H94.5234V92.1562H94.582L94.6289 92.2148H94.6758L94.7812 92.1094L94.8281 92.1562L94.9336 92.0625H94.9805L94.9336 92.1094L94.9805 92.3086H95.0273L95.1797 92.2148L95.1328 92.4609V92.5078L95.1797 92.4609H95.2734C95.2734 92.6641 95.4258 92.7656 95.7305 92.7656C96.0195 92.2266 96.2852 91.957 96.5273 91.957L96.832 92.0625L97.125 92.0156H97.2305L97.4766 92.2617V92.3086L97.0781 92.5547L97.0312 92.8125L97.1836 92.9062L97.5352 92.7656C97.5352 92.9297 97.5664 93.0117 97.6289 93.0117L97.4297 93.4102L97.4766 93.457V93.6562L97.3242 93.8555L97.3828 93.9141V93.9609C97.1484 93.9609 97.0312 94.0625 97.0312 94.2656L96.375 94.5586V94.6055H96.2812C96.2812 94.4727 96.2305 94.4062 96.1289 94.4062C95.9414 94.5391 95.7734 94.6055 95.625 94.6055L95.0273 94.2656V94.207H94.7344L94.5234 94.5117H94.4766V94.4648L94.582 94.1602C94.293 94.1602 93.8398 94.0117 93.2227 93.7148L92.5781 93.5625H92.5312L92.0273 93.7148C91.832 93.6133 91.6328 93.5625 91.4297 93.5625C91.2266 93.8203 91.125 94.0195 91.125 94.1602H91.0781L90.9727 94.0547L90.9258 94.1133H90.832C90.5977 94.1133 90.4805 94.0781 90.4805 94.0078C90.3242 94.0078 90.125 94.2578 89.8828 94.7578L89.9766 95.3555V95.7656L89.8828 95.9062V96.0117C89.9453 96.0742 89.9766 96.2227 89.9766 96.457C90.0312 96.457 90.2305 96.8906 90.5742 97.7578C90.6289 97.7578 90.7305 97.9258 90.8789 98.2617C91.0195 98.2617 91.1523 98.4102 91.2773 98.707V98.9062L91.5234 99.9609L91.4766 100.113H91.582C92.332 99.5898 92.7812 99.2383 92.9297 99.0586C93.0859 99.0586 93.2188 98.9766 93.3281 98.8125C92.6641 98.5703 92.2148 98.3203 91.9805 98.0625H92.0273C92.3555 98.2734 92.7227 98.457 93.1289 98.6133L93.4336 98.5664H93.4805C93.543 98.5664 93.5742 98.6133 93.5742 98.707H93.6328C93.7188 98.4727 93.8008 98.3555 93.8789 98.3555H93.9727L94.1836 98.6133L94.4297 98.6602L94.4766 98.6133H94.5234L94.9336 98.6602L94.9805 98.6133V98.5664L95.332 98.6133C95.832 98.4102 96.1797 98.3086 96.375 98.3086C96.375 98.1914 96.5586 98.1094 96.9258 98.0625L97.0312 98.1562L95.4844 99.1641L95.625 99.4102L95.5781 99.5625L95.625 99.6094V99.6562C95.4453 99.8672 95.2969 100.117 95.1797 100.406L95.2266 100.465H95.2734L95.2266 100.816L95.2734 101.062C95.2734 101.352 95.1602 101.617 94.9336 101.859C94.8555 101.859 94.8047 101.742 94.7812 101.508C94.8359 101.508 94.9023 101.391 94.9805 101.156L94.9336 100.957H94.9805L94.9336 100.91V100.605C94.7852 100.605 94.6484 100.559 94.5234 100.465L94.2305 100.816C94.0898 100.77 93.9883 100.684 93.9258 100.559L94.125 100.465L94.0312 100.207H93.832C93.7148 100.207 93.5977 100.16 93.4805 100.066H93.1758L93.0234 100.16H92.8242L92.7773 100.113C92.1445 100.316 91.8281 100.465 91.8281 100.559L91.6758 101.062L91.7812 101.508L91.7227 101.965C91.9336 102.293 92.0703 102.457 92.1328 102.457C92.2266 102.457 92.2734 102.391 92.2734 102.258H92.4258V101.965H92.5312C92.5312 102.129 92.5625 102.211 92.625 102.211L92.6836 102.164L92.8242 102.211L92.8828 102.164H92.9297L93.082 102.211V102.059H93.1758C93.1758 102.16 93.2109 102.211 93.2812 102.211L93.3281 102.164H93.375L93.4336 102.211V102.105H93.5273V102.211L93.5742 102.164L93.9258 102.316L94.0781 102.258V102.316L94.0312 102.363V102.41H94.1836V102.316H94.2773L94.2305 102.562H94.2773L94.2305 102.609V102.656L94.3242 102.961H94.3828L94.7812 102.855L94.8281 102.914L95.0742 102.715H95.4258L95.625 102.656C96.0625 102.766 96.3633 102.949 96.5273 103.207H96.5742L96.7734 103.16L96.9844 103.266L97.7812 103.008L98.1797 103.16L98.4844 102.961H99.082L99.2344 102.855H99.7852C100.262 102.723 100.66 102.656 100.98 102.656H101.027C101.23 102.594 101.332 102.48 101.332 102.316L101.379 102.258H101.426C101.426 102.32 101.527 102.406 101.73 102.516H101.93L102.082 102.41H102.48C103.059 102.27 103.508 102.121 103.828 101.965H104.285L104.426 101.859L104.531 101.965V102.012C104.531 102.098 104.066 102.266 103.137 102.516L102.035 103.16C100.73 103.27 100.078 103.418 100.078 103.605C99.5625 103.715 98.9141 104.219 98.1328 105.117C98.1328 105.477 97.832 105.656 97.2305 105.656C97.0039 105.961 96.7188 106.113 96.375 106.113H95.2266C95.0469 105.98 94.8633 105.914 94.6758 105.914L94.4297 105.961C94.4297 105.805 94.0273 105.656 93.2227 105.516H93.1289L92.625 105.867V105.914H92.8828L93.1758 105.809C93.5977 105.809 93.9805 105.941 94.3242 106.207V106.617L94.0312 107.508L93.375 107.613V107.859L93.2227 108L92.5312 107.906H92.1797C92.0312 107.766 91.8125 107.633 91.5234 107.508C91.4844 107.422 91.3359 107.305 91.0781 107.156C90.9531 106.938 90.7852 106.789 90.5742 106.711C90.4023 106.367 90.2383 106.117 90.082 105.961V105.867C90.2148 105.727 90.2812 105.359 90.2812 104.766L90.5742 104.414H90.7734L91.0312 104.613H91.0781V104.566L90.2812 103.863C90.2422 103.176 90.1094 102.293 89.8828 101.215L89.9297 99.2578C89.7969 99.2578 89.6641 99.0078 89.5312 98.5078V97.9102C89.3359 97.4961 89.1367 96.9297 88.9336 96.2109L88.7812 96.0586L88.8867 95.9062C88.793 95.9062 88.6602 95.7891 88.4883 95.5547C88.3867 95.5547 88.3008 95.4883 88.2305 95.3555L88.3828 95.0156L88.2773 94.8047L88.3359 94.6055L88.0781 94.2656L88.2305 94.1133C88.4023 94.1133 88.5352 94.3438 88.6289 94.8047L88.8281 94.9102L88.9805 94.7109L88.9336 94.6641V94.6055L89.0859 94.3594L88.9805 94.2656V94.0078L88.9336 93.2578H88.9805C88.9648 92.9141 88.6641 92.5156 88.0781 92.0625L88.1367 92.0156C88.3242 92.0156 88.6211 92.2969 89.0273 92.8594C89.1445 92.8594 89.2773 93.0273 89.4258 93.3633C89.543 93.3633 89.6758 93.6797 89.8242 94.3125H89.8828C89.9688 93.875 90.1016 93.6562 90.2812 93.6562L90.4805 93.7617C90.668 93.7617 90.8984 93.5781 91.1719 93.2109L91.4297 93.1641L91.6289 93.2109C92.1133 93.0547 92.7148 92.9375 93.4336 92.8594C93.4648 92.7578 93.5625 92.707 93.7266 92.707C93.8594 92.7461 93.9258 92.8125 93.9258 92.9062H94.0312L94.125 92.6133H93.9727V92.5547L94.0312 92.5078L93.9727 92.4609V92.3555H94.0781V92.3086C93.9453 92.3086 93.8789 92.2578 93.8789 92.1562H93.9258L94.2305 92.2148L94.1836 91.957V91.9102ZM91.3828 92.1562V92.2148L91.3242 92.3555H91.3828L91.4766 92.4609V92.5547H91.3828V92.6602L91.5234 92.707L91.7227 92.6602V92.7656H91.3828L91.3242 92.707L91.0312 92.8125V92.7656C91.0312 92.5938 90.9648 92.5078 90.832 92.5078V92.4141C91.0117 92.4141 91.1953 92.3281 91.3828 92.1562ZM92.3789 92.5547L92.4727 92.6602C92.457 92.7617 92.3242 92.8125 92.0742 92.8125L91.9805 92.707L91.9336 92.7656H91.8281V92.6602H92.2266L92.3789 92.5547ZM88.4297 93.4102H88.5352C88.6133 93.4102 88.6641 93.4922 88.6875 93.6562L88.3828 93.8555H88.2773L88.1836 93.7617V93.6562L88.4297 93.4102ZM87.832 93.7617L87.8789 93.8086V93.8555L87.832 93.9141H87.7852L87.7266 93.8555V93.8086L87.7852 93.7617H87.832ZM91.4297 97.8164C91.4922 97.8164 91.5234 97.8633 91.5234 97.957L91.4766 98.2148H91.4297L91.3242 98.1094V97.9102L91.4297 97.8164ZM97.9336 97.8633H98.0273L98.2852 97.9102V98.0156H98.2266C98.0547 98.0156 97.957 97.9648 97.9336 97.8633ZM91.3828 98.3086H91.4766V98.5078L91.3828 98.4141V98.3086ZM92.8242 101.156H92.9297V101.309H92.8242V101.156ZM102.375 101.461L102.434 101.508V101.566L102.375 101.613H102.328L102.281 101.566V101.508L102.328 101.461H102.375ZM101.578 101.766L101.684 101.859V101.965L101.484 102.258H101.426V102.059C101.449 101.863 101.5 101.766 101.578 101.766ZM99.4805 102.105L99.5273 102.164H99.7266L99.7852 102.105H99.832V102.211L99.6328 102.516H99.5273C99.4648 102.516 99.4336 102.465 99.4336 102.363L99.4805 102.105ZM91.8281 102.316V102.363L91.875 102.562C91.875 102.664 91.8086 102.715 91.6758 102.715V102.809H91.7227L92.0273 102.609L91.875 102.316H91.8281ZM94.875 107.414H94.9336C95.0273 107.445 95.0742 107.543 95.0742 107.707L95.0273 107.766H94.875L94.7344 107.613V107.566L94.875 107.414ZM94.4766 107.508C94.5547 107.508 94.6055 107.594 94.6289 107.766L94.4766 107.859H94.3828C94.2812 107.828 94.2305 107.73 94.2305 107.566L94.2773 107.508H94.4766ZM95.1797 107.707L95.2266 107.766V107.812L95.1797 107.859H95.1328L95.0742 107.812V107.766L95.1328 107.707H95.1797ZM94.875 107.812H94.9336C95.0039 107.812 95.0508 107.895 95.0742 108.059L94.9336 108.152H94.875L94.7344 108L94.875 107.812ZM94.3828 108.059L94.4297 108.105V108.152L94.3828 108.211H94.2773V108.152L94.3828 108.059ZM94.0781 108.609H94.125L94.2305 108.703L94.1836 108.762H94.0781V108.609Z" fill="white"/>
<g clip-path="url(#clip0_14_669)">
<rect x="28" y="117" width="85" height="85" fill="#0F104C" fill-opacity="0.5"/>
<path d="M28.2 185.2H44.8V201.8H28.2V185.2Z" stroke="#5F0D16" stroke-width="0.4"/>
<path d="M28.2 168.2H44.8V184.8H28.2V168.2Z" stroke="#5F0D16" stroke-width="0.4"/>
<path d="M28.2 151.2H44.8V167.8H28.2V151.2Z" stroke="#5F0D16" stroke-width="0.4"/>
<path d="M28.2 134.2H44.8V150.8H28.2V134.2Z" stroke="#5F0D16" stroke-width="0.4"/>
<path d="M28.2 117.2H44.8V133.8H28.2V117.2Z" stroke="#5F0D16" stroke-width="0.4"/>
<path d="M45.2 185.2H61.8V201.8H45.2V185.2Z" stroke="#5F0D16" stroke-width="0.4"/>
<path d="M45.2 168.2H61.8V184.8H45.2V168.2Z" fill="white"/>
<path d="M45.2 168.2H61.8V184.8H45.2V168.2Z" stroke="#5F0D16" stroke-width="0.4"/>
<path d="M45.2 151.2H61.8V167.8H45.2V151.2Z" stroke="#5F0D16" stroke-width="0.4"/>
<path d="M45.2 134.2H61.8V150.8H45.2V134.2Z" stroke="#5F0D16" stroke-width="0.4"/>
<path d="M45.2 117.2H61.8V133.8H45.2V117.2Z" stroke="#5F0D16" stroke-width="0.4"/>
<path d="M62.2 185.2H78.8V201.8H62.2V185.2Z" stroke="#5F0D16" stroke-width="0.4"/>
<path d="M62.2 168.2H78.8V184.8H62.2V168.2Z" stroke="#5F0D16" stroke-width="0.4"/>
<path d="M62.2 151.2H78.8V167.8H62.2V151.2Z" fill="#EB1E1E"/>
<path d="M62.2 151.2H78.8V167.8H62.2V151.2Z" stroke="#5F0D16" stroke-width="0.4"/>
<path d="M62.2 134.2H78.8V150.8H62.2V134.2Z" fill="white"/>
<path d="M62.2 134.2H78.8V150.8H62.2V134.2Z" stroke="#5F0D16" stroke-width="0.4"/>
<path d="M62.2 117.2H78.8V133.8H62.2V117.2Z" stroke="#5F0D16" stroke-width="0.4"/>
<path d="M79.2 185.2H95.8V201.8H79.2V185.2Z" stroke="#5F0D16" stroke-width="0.4"/>
<path d="M79.2 168.2H95.8V184.8H79.2V168.2Z" fill="white"/>
<path d="M79.2 168.2H95.8V184.8H79.2V168.2Z" stroke="#5F0D16" stroke-width="0.4"/>
<path d="M79.2 151.2H95.8V167.8H79.2V151.2Z" stroke="#5F0D16" stroke-width="0.4"/>
<path d="M79.2 134.2H95.8V150.8H79.2V134.2Z" stroke="#5F0D16" stroke-width="0.4"/>
<path d="M79.2 117.2H95.8V133.8H79.2V117.2Z" stroke="#5F0D16" stroke-width="0.4"/>
<path d="M96.2 185.2H112.8V201.8H96.2V185.2Z" stroke="#5F0D16" stroke-width="0.4"/>
<path d="M96.2 168.2H112.8V184.8H96.2V168.2Z" stroke="#5F0D16" stroke-width="0.4"/>
<path d="M96.2 151.2H112.8V167.8H96.2V151.2Z" stroke="#5F0D16" stroke-width="0.4"/>
<path d="M96.2 134.2H112.8V150.8H96.2V134.2Z" stroke="#5F0D16" stroke-width="0.4"/>
<path d="M96.2 117.2H112.8V133.8H96.2V117.2Z" stroke="#5F0D16" stroke-width="0.4"/>
</g>
<rect x="28.5" y="117.5" width="84" height="84" stroke="url(#paint1_linear_14_669)"/>
<defs>
<linearGradient id="paint0_linear_14_669" x1="70.5" y1="17" x2="70.5" y2="83" gradientUnits="userSpaceOnUse">
<stop stop-color="#123BD5"/>
<stop offset="1" stop-color="#CD2237"/>
</linearGradient>
<linearGradient id="paint1_linear_14_669" x1="31.7979" y1="120.436" x2="138.59" y2="226.777" gradientUnits="userSpaceOnUse">
<stop stop-color="#B17BFF"/>
<stop offset="1" stop-color="#FF0751"/>
</linearGradient>
<clipPath id="clip0_14_669">
<rect x="28" y="117" width="85" height="85" fill="white"/>
</clipPath>
</defs>
</svg>
