<svg width="142" height="218" viewBox="0 0 142 218" fill="none" xmlns="http://www.w3.org/2000/svg">
<rect x="0.5" y="0.5" width="141" height="217" rx="4.5" fill="#191515"/>
<rect x="0.5" y="0.5" width="141" height="217" rx="4.5" stroke="#B17BFF"/>
<path d="M75.18 80.92C73.02 80.74 70.95 80.38 68.88 79.93C66.9 79.48 64.92 78.4 63.21 76.87C62.67 75.43 62.4 73.63 62.4 71.65C62.4 69.67 62.13 67.87 61.5 66.16L60.69 65.8L58.89 66.43L58.62 65.53L57.99 65.26L57.18 64.18L53.94 61.75L53.13 60.04H52.5C52.32 58.87 51.87 57.79 51.06 56.89C50.25 55.9 49.44 54.91 48.45 53.92L46.38 51.67H46.92L50.16 52.57L51.33 52.21L52.5 52.57L57.99 47.26V46.18H58.89L59.16 45.01H60.33L61.14 45.28C64.11 44.47 66.9 43.48 69.6 42.4C72.39 41.23 75.27 40.51 78.33 40.33C79.5 40.96 80.67 41.32 82.02 41.5C83.28 41.68 84.54 41.95 85.89 42.4V43.21L85.26 44.38L82.74 45.55C81.12 48.07 80.13 50.77 79.86 53.83C79.41 56.89 78.87 59.68 78.06 62.38L76.26 62.65V63.28L75.18 63.55L73.65 63.28V63.55H73.38L73.11 62.11L72.3 61.75V61.3H71.67L66.09 64.18L65.82 71.11L66.99 75.79C68.16 76.33 69.42 76.6 70.77 76.6C72.12 76.6 73.47 76.69 74.91 76.87C77.61 76.69 80.22 76.42 83.01 76.24C85.71 75.97 88.14 75.07 90.57 73.72L92.55 69.31H92.82L93.45 70.84C94.62 71.47 95.79 71.92 97.14 72.28C98.4 72.64 99.57 73.09 100.74 73.72H99.21L98.67 74.62L98.13 76.87C94.44 78.04 90.75 79.03 86.97 79.84C83.19 80.56 79.23 80.92 75.18 80.92ZM61.77 62.38V58.6L60.06 58.33L58.62 58.87V60.04L60.06 62.38L60.96 62.65L61.77 62.38ZM71.4 58.87L71.67 58.6L71.4 57.16C72.21 56.8 72.48 56.17 72.48 55.36C72.48 54.55 72.57 53.83 72.75 53.11H72.3L67.35 55.72L66.09 60.67H66.99L71.4 58.87ZM62.04 54.55V52.57L61.77 50.77C62.22 50.14 62.76 49.96 63.57 49.96C64.38 49.96 64.92 49.96 65.55 49.96L66.99 52.84L72.03 53.11L72.75 52.84V48.16L71.13 46.18H70.23C68.88 46.45 67.62 46.99 66.45 47.71C65.28 48.43 64.02 48.79 62.67 48.79L59.16 46.63L56.28 49.96V51.31L56.55 53.11L56.01 54.19L55.11 54.55V55.09C55.56 55.72 56.01 55.99 56.64 55.99C57.18 55.99 57.63 55.99 58.26 55.99L62.04 54.55ZM44.4 48.43L39.99 47.53L38.64 47.89L35.31 46.99V46.63L38.01 45.55C38.19 45.19 38.55 45.01 39 45.01C39.45 45.01 39.9 44.92 40.26 44.65C47.64 41.41 55.29 38.89 63.3 37.27C71.22 35.56 79.14 34.03 87.06 32.5L97.23 33.67V34.21L96.33 34.84V35.92C87.33 36.37 78.33 37.36 69.51 38.98C60.69 40.69 52.32 43.75 44.4 48.43ZM54.84 38.35L54.21 37.99L51.6 34.57L50.43 30.43H51.33L58.89 33.04L59.16 34.57L57.99 37.45L54.84 38.35ZM65.82 35.65V35.38L66.09 34.57H65.82V34.21C66.63 32.86 67.26 31.42 67.89 30.16C68.52 28.81 68.79 27.37 68.97 25.84L70.23 25.48L76.08 28.36L76.26 29.89C75.9 30.7 75.45 31.33 75 31.96C74.55 32.68 73.92 33.31 73.11 33.94C71.85 33.94 70.5 34.12 69.33 34.39C68.25 34.66 66.99 35.11 65.82 35.65ZM55.74 27.28C54.57 26.65 53.31 26.2 51.78 25.93C50.25 25.66 48.99 25.21 47.82 24.58H48.18V24.04C49.89 23.86 51.51 23.41 53.13 22.6C54.57 21.79 56.37 21.43 58.26 21.43L60.06 21.7L66.45 19.18L66.72 18.55H67.35V17.92H75.72L76.26 18.28L76.53 20.08L76.08 21.16C72.48 21.97 69.06 22.96 65.73 24.04C62.31 25.21 58.98 26.29 55.74 27.28ZM62.67 18.55C60.96 17.56 59.16 16.57 57.36 15.67C55.47 14.68 53.76 13.42 52.5 12.16H53.13L53.4 11.26H54.21C56.01 11.89 57.81 12.43 59.7 12.97C61.5 13.6 63.21 14.41 64.74 15.4L65.28 17.38H63.57V18.28L62.67 18.55Z" fill="url(#paint0_linear_14_306)"/>
<path d="M34.7812 92.5078H34.8281L34.6875 92.6602V92.6016L34.7812 92.5078ZM35.8594 92.8945H36V93H35.8594V92.8945ZM40.1016 92.9531H40.1602C40.332 92.9531 40.5273 93.0977 40.7461 93.3867L40.6406 93.4805C40.4766 93.4492 40.2969 93.3047 40.1016 93.0469V92.9531ZM32.8359 93H32.9297L33.082 93.2461H33.0234L32.8359 93.0469V93ZM34.3359 93.0938V93.1406L34.043 93.3398V93.4336C34.207 93.3086 34.3398 93.2461 34.4414 93.2461L34.4883 93.293V93.3398L34.3359 93.4805V93.5859H34.3945L34.5352 93.4805H34.6289V93.5391C34.6289 93.6016 34.582 93.6328 34.4883 93.6328V93.6797H34.582V93.7266L34.6289 93.6797H34.6875L34.7812 93.7734L34.7344 93.832V93.8789L34.7812 93.9258L34.8281 93.8789H35.3672V93.9727H34.9219L35.0273 94.2188L34.9219 94.3125V94.4648H35.0742V94.5586H34.9805V94.6523L35.4609 94.8516L35.3672 95.0039L35.5664 95.2383H35.6602V95.3438H35.5664V95.4844C35.6602 95.5781 35.707 95.7422 35.707 95.9766C35.9023 96.0859 36.0664 96.4102 36.1992 96.9492V98.0273C36.1992 98.0977 36.2461 98.1328 36.3398 98.1328L36.3984 98.1797V98.3203C36.2422 98.8438 35.9805 99.1055 35.6133 99.1055L35.5664 99.1523V99.1992C35.5664 99.2773 35.7109 99.3594 36 99.4453C36.2969 99.4141 36.4453 99.3672 36.4453 99.3047L36.6914 99.3516C36.793 99.3516 36.9219 99.2852 37.0781 99.1523H37.125V99.3047L37.6172 99.1523H37.6641C37.6641 99.2148 37.5664 99.2812 37.3711 99.3516V99.3984C37.5039 99.4062 37.5703 99.4727 37.5703 99.5977L37.3711 99.6914C37.3711 99.7539 37.582 99.8672 38.0039 100.031V100.078H37.9102C37.3008 99.8203 36.8594 99.6758 36.5859 99.6445C36.5859 99.543 36.5547 99.4922 36.4922 99.4922H36.293L36 99.5977V99.6445C37.0469 100.434 37.5703 101.051 37.5703 101.496L38.0508 102.527L38.0977 102.574V102.715C38.0977 102.895 38.0195 103.027 37.8633 103.113C37.8633 103.426 37.9922 103.766 38.25 104.133V104.484L38.1562 104.578C38.2656 106.078 38.4414 106.828 38.6836 106.828L38.8828 107.555C39.0391 107.664 39.25 108.117 39.5156 108.914C39.7109 109.07 39.8086 109.316 39.8086 109.652C39.7773 109.949 39.6484 110.098 39.4219 110.098L39.082 109.898H38.9297L38.0508 110.039C37.707 110.008 37.3008 109.879 36.832 109.652H36.7383L36.8789 110.039C36.8789 110.109 36.832 110.145 36.7383 110.145L36.6914 110.285C36.5273 110.23 36.4453 110.148 36.4453 110.039H36.2461C36.3086 110.531 36.5039 111.117 36.832 111.797V111.855C36.6055 111.59 36.3281 111.035 36 110.191L35.5078 109.113C35.3516 109.113 35.2383 108.887 35.168 108.434L35.4609 108.281L35.5078 108.328C35.5078 107.945 35.5742 107.754 35.707 107.754C35.5898 106.871 35.4102 106.301 35.168 106.043V105.797L35.3672 105.07L35.2734 104.531V103.793L35.0273 103.453C34.7461 103.617 34.2422 103.781 33.5156 103.945L33.1758 104.133L33.1289 104.086V104.039C33.5664 103.68 33.8242 103.5 33.9023 103.5L34.2891 103.547C34.6562 103.398 34.8672 103.285 34.9219 103.207L35.0742 103.16L34.4414 101.602C34.4414 101.336 34.2461 101.172 33.8555 101.109C32.9492 100.906 32.4961 100.758 32.4961 100.664V100.523L32.543 100.477H32.6836C32.8242 100.703 33.0859 100.816 33.4688 100.816C33.8047 101.012 34.0781 101.109 34.2891 101.109L34.3359 101.062V101.016C34.2422 100.891 34.1953 100.773 34.1953 100.664V100.617C34.25 100.617 34.332 100.75 34.4414 101.016H34.4883L34.6875 100.711L34.5352 100.078L34.582 99.6914C34.4648 99.5977 34.3359 99.3867 34.1953 99.0586L34.2422 99.0117V98.9531C34.2422 98.7422 34.1133 98.5469 33.8555 98.3672H33.75L33.7031 98.4258H33.6562L33.6094 98.3672L33.6562 98.3203V98.2266C33.3047 98.2031 33.1289 98.1523 33.1289 98.0742V98.0273H33.4688V97.9805H33.375V97.8867L33.5625 97.8281C33.5312 97.7031 33.4336 97.6406 33.2695 97.6406V97.5352C33.3711 97.5352 33.4219 97.5039 33.4219 97.4414C33.4219 97.3789 33.3242 97.3125 33.1289 97.2422V97.1953L33.1758 97.1484L33.2227 97.1953H33.2695C33.4336 97.1484 33.5156 97.0508 33.5156 96.9023L33.7031 96.7148L33.6094 96.5625L33.7031 96.4688H33.6094L33.4219 96.6094L33.2227 96.5156L33.082 96.6562H33.0234V96.6094C33.1562 96.4141 33.2227 96.2695 33.2227 96.1758C33.0586 96.1758 32.8633 96.3203 32.6367 96.6094V96.5156L32.8359 96.2695L32.7891 96.1289L32.8359 95.9766H32.7891L32.6367 95.9297V95.8359H32.7891C32.7891 95.7656 32.7383 95.7305 32.6367 95.7305L32.5898 95.6836V95.5898L32.7891 95.6367L33.082 95.543C33.082 95.4414 32.918 95.3906 32.5898 95.3906C32.5898 95.2891 32.6367 95.2383 32.7305 95.2383V95.1914L32.6367 95.0508V95.0039H32.7305L32.3438 94.5117L32.3906 94.4648H32.4375C32.5312 94.6211 32.7461 94.7812 33.082 94.9453V94.7578L32.9297 94.5586V94.5117H32.9766C33.0781 94.5117 33.1289 94.5781 33.1289 94.7109C33.1914 94.7109 33.2227 94.6602 33.2227 94.5586L33.2695 94.6055H33.5625C33.5625 94.4414 33.707 94.3125 33.9961 94.2188L34.1016 94.0195H33.9961L33.8555 94.1719C33.6289 94.1797 33.5156 94.2109 33.5156 94.2656L33.4688 94.2188H33.3164L33.1758 94.3125H33.1289L33.1758 94.2656V94.2188L33.082 94.125L32.7891 94.2188V94.1719C32.7891 94.1016 32.8516 94.0664 32.9766 94.0664L33.0234 94.0195V93.9727L32.9297 93.8789L33.0234 93.7266L32.6367 93.6328V93.5391H32.6836L32.9766 93.6328V93.4336L33.0234 93.4805H33.1758V93.4336L33.082 93.2461H33.1289L33.4688 93.4805V93.3867H33.5625V93.4805C33.9688 93.2227 34.2266 93.0938 34.3359 93.0938ZM31.7109 93.6797H31.7578L31.9102 93.832V93.8789H31.8516L31.7109 93.7266V93.6797ZM34.2422 94.0195L33.9961 94.5117H34.043L34.4414 94.2188V94.0195L34.3945 94.0664H34.3359L34.2891 94.0195H34.2422ZM35.8594 94.418V94.4648L35.7539 94.5586L35.707 94.5117V94.4648L35.7539 94.418H35.8594ZM38.543 94.418H38.7891C38.9922 94.5039 39.8711 94.6172 41.4258 94.7578C41.4258 94.8125 41.7031 94.875 42.2578 94.9453C42.5 95.1406 42.8555 95.3203 43.3242 95.4844C43.5508 95.7188 43.8477 95.9336 44.2148 96.1289C44.2148 96.207 44.457 96.3359 44.9414 96.5156C44.9414 96.6328 45.1875 96.8438 45.6797 97.1484C45.6797 97.3047 45.8242 97.5664 46.1133 97.9336C46.3477 99.1055 46.707 99.6914 47.1914 99.6914C47.418 100.082 47.5312 100.375 47.5312 100.57C47.5312 101.195 47.0273 102.367 46.0195 104.086C45.418 104.734 44.6016 105.273 43.5703 105.703C43.4922 105.898 43.1016 106.156 42.3984 106.477C42.3047 106.57 42.0469 106.672 41.625 106.781C40.7734 107.211 40.3477 107.469 40.3477 107.555L40.207 107.707L40.0078 107.66L39.668 107.707L39.375 107.367V107.215L39.5156 106.969L39.4219 106.875V106.828L39.4688 106.781L39.4219 106.629C39.4219 106.207 39.5039 105.996 39.668 105.996V105.598H39.7617V106.289C39.9258 106.523 40.0078 106.719 40.0078 106.875C40.2266 107.039 40.3906 107.121 40.5 107.121L42.5039 106.242C43.2148 105.617 43.5703 105.129 43.5703 104.777C43.7031 104.582 43.8828 104.484 44.1094 104.484L44.3086 103.992L44.1094 103.406L44.2617 103.359V103.301C44.1289 103.184 44.0312 102.957 43.9688 102.621L43.4766 101.988V101.836C43.5391 101.773 43.6055 101.547 43.6758 101.156C43.6055 101.156 43.5547 100.961 43.5234 100.57C43.625 100.57 43.6914 100.422 43.7227 100.125L43.6758 99.8906L43.7227 99.832V99.7852C43.707 99.6992 43.625 99.6367 43.4766 99.5977C43.4766 98.9727 43.0859 98.5156 42.3047 98.2266C42.0234 98.2266 41.8281 98.0781 41.7188 97.7812C41.5547 97.7812 41.375 97.4414 41.1797 96.7617L41.2266 96.4219C41.1328 96.375 40.9531 96.0625 40.6875 95.4844C40.0781 95.1641 39.6875 95.0039 39.5156 95.0039L38.9766 95.0508C38.6406 94.8555 38.3164 94.7578 38.0039 94.7578V94.6523L36.7852 94.8047H36.3984V94.7109H36.5859L38.543 94.418ZM31.7109 94.5117L31.7578 94.5586V94.6523H31.6055V94.6055L31.7109 94.5117ZM32.4375 97.1016L32.4961 97.1484V97.1953L32.4375 97.2422H32.3438V97.1953L32.4375 97.1016ZM32.8828 97.7344V97.8281L31.9102 98.1328V98.0273L32.8828 97.7344ZM41.2266 98.1797V98.2734C41.1016 98.2734 40.957 98.3867 40.793 98.6133V98.7656C40.793 98.8594 40.875 98.9062 41.0391 98.9062V98.9531C41.0391 99.0234 40.9414 99.0586 40.7461 99.0586C40.7461 99.1523 40.6289 99.1992 40.3945 99.1992L40.4531 99.4453L40.1602 99.5977L39.8672 99.3047V99.2461L39.9141 99.1992V99.1523L39.8672 99.1055C39.9375 99.1055 40 98.9922 40.0547 98.7656C40.2266 98.7656 40.5859 98.5703 41.1328 98.1797H41.2266ZM41.3789 98.8594L41.5664 98.9062V99.0117H41.5195L41.4727 98.9531H41.4258L41.2734 99.0117V98.9531L41.3789 98.8594ZM41.7656 98.9531C42.2188 99.0391 42.4453 99.1367 42.4453 99.2461L42.3516 99.3516H42.2578C42.0625 99.1562 41.8984 99.0586 41.7656 99.0586V98.9531ZM32.5898 99.9375C32.7852 100.016 32.8828 100.078 32.8828 100.125L32.7891 100.23L32.4961 100.031L32.5898 99.9375ZM33.9492 100.078H33.9961C34.0977 100.109 34.1484 100.207 34.1484 100.371V100.523C34.0859 100.523 34.0195 100.375 33.9492 100.078ZM46.207 105.211L46.4531 105.457V105.504H46.4062C46.1953 105.418 46.082 105.336 46.0664 105.258L46.1133 105.211H46.207ZM36.832 111.949H36.8789L36.9844 112.043V112.102H36.9258L36.832 111.996V111.949ZM49.4062 91.2773H49.4414L49.5117 91.3477L49.4766 91.3828H49.4414L49.4062 91.3477V91.2773ZM50.8008 91.2773V91.3125L50.543 91.7578C50.6445 91.7578 50.6953 91.793 50.6953 91.8633L50.918 91.7578V91.793L50.8477 91.8984V91.9805L50.9883 92.0156L51.1758 91.8281V91.8633L51.0703 92.0156H51.1406V92.0508L51.1055 92.1562C51.1602 92.1562 51.293 92.0586 51.5039 91.8633V91.8984L51.2812 92.2734L51.4688 92.3086C51.4688 92.2539 51.5312 92.2188 51.6562 92.2031L51.5391 92.3438V92.4141H51.6211V92.4609L51.5391 92.5664C51.6406 92.5664 51.6914 92.5898 51.6914 92.6367L51.6562 92.6836L51.7969 92.7539C52.0703 92.7539 52.2461 92.5078 52.3242 92.0156C52.5664 91.8828 52.6875 91.7969 52.6875 91.7578H52.7578L52.7227 91.793V91.8633L53.0156 91.9453L53.7891 91.3477H53.8359L53.9062 91.4297V91.5L53.7188 91.5352V91.5L53.168 91.9453L53.3086 92.2383C53.3086 92.3711 53.1875 92.5195 52.9453 92.6836H52.875V92.7539C53.2969 93.1445 53.6641 93.3398 53.9766 93.3398C53.9766 93.4023 54.1602 93.5391 54.5273 93.75C54.5273 93.9297 54.8125 94.0391 55.3828 94.0781C55.5781 94.1953 55.7617 94.3789 55.9336 94.6289C56.1211 94.6289 56.3164 94.9375 56.5195 95.5547C56.5195 95.6797 56.6562 95.9023 56.9297 96.2227L57 96.7734H57.0352C57.0898 96.7734 57.1289 96.6602 57.1523 96.4336L57.375 96.2227L57.4102 96.2578H57.5977L57.7734 96.2227V96.293C57.7031 96.293 57.668 96.3398 57.668 96.4336L57.7383 96.5156V96.5508C57.7383 96.5977 57.6758 96.6211 57.5508 96.6211C57.5117 96.6992 57.4258 96.7383 57.293 96.7383L57.2578 96.9141C57.2578 96.9922 57.2969 97.0312 57.375 97.0312L57.4102 97.0664V97.1016L57.2227 97.2188V97.2539C57.2852 97.4414 57.5664 97.6602 58.0664 97.9102V97.9922H58.0312C57.8594 97.9922 57.5898 97.8203 57.2227 97.4766C57.0273 97.4766 56.9297 97.6094 56.9297 97.875L56.9648 98.0273H56.8594V98.1328H56.9648V98.168C56.9648 98.2227 56.9297 98.25 56.8594 98.25V98.2852L56.8945 98.4258C56.793 98.5742 56.7422 98.6875 56.7422 98.7656L56.8594 98.8711V98.9414H56.8125L56.6719 98.8711L56.6367 99.0586L56.6719 99.1641L56.6367 99.1289H56.6016L56.5547 99.1641V99.1992L56.6016 99.3516H56.5547L56.5195 99.3164H56.4844L56.1914 99.9023L55.6055 100.5C55.6055 100.578 55.4453 100.809 55.125 101.191V101.273H55.0898L55.125 101.309V101.496C54.9844 101.738 54.8594 101.859 54.75 101.859V101.895C55.3672 101.895 55.7734 102.008 55.9688 102.234C56.6328 102.773 57.0625 103.25 57.2578 103.664C57.4531 103.828 57.6133 104.113 57.7383 104.52L58.2539 105.211L58.2188 105.328C58.3281 105.602 58.4141 105.762 58.4766 105.809L58.957 106.172L59.4023 106.395L59.5898 106.43L59.7656 106.289H59.8008C59.8945 106.289 59.957 106.422 59.9883 106.688C59.9414 106.703 59.8945 106.766 59.8477 106.875L59.5898 106.805L59.4023 106.84L59.2148 106.77C59.5352 107.09 60.0508 107.699 60.7617 108.598L61.1367 108.715L61.1719 108.68V108.75C61.0938 108.75 61.0547 108.773 61.0547 108.82C61.1562 108.992 61.4883 109.277 62.0508 109.676C62.0508 109.746 62.1016 109.781 62.2031 109.781V109.852H62.168C61.7461 109.516 61.4258 109.309 61.207 109.23C61.207 109.191 61.0859 109.082 60.8438 108.902C60.5547 108.621 60.2812 108.41 60.0234 108.27C59.5156 107.941 59.1719 107.648 58.9922 107.391C58.6016 107.156 58.4062 106.984 58.4062 106.875C58.3047 106.875 58.0586 106.738 57.668 106.465C57.5273 106.465 57.3164 106.281 57.0352 105.914C57.0352 105.812 56.7031 105.492 56.0391 104.953C55.8047 104.727 55.5 104.543 55.125 104.402L54.3516 103.781C54.2812 103.656 54.0703 103.531 53.7188 103.406L53.6133 103.266V103.219H53.6484L53.8359 103.266L53.8711 103.219C53.793 103.023 53.5938 102.926 53.2734 102.926L53.168 102.855L53.0156 102.891C52.625 102.648 52.4297 102.453 52.4297 102.305C52.4297 102.234 52.3047 102.012 52.0547 101.637V101.566L52.1367 101.496H52.2422L52.3242 101.566V101.602L52.2773 101.637L52.582 102.27L52.5352 102.375L52.582 102.41H52.6172C53.1562 102.066 53.4258 101.746 53.4258 101.449C53.4258 101.309 53.5234 101.238 53.7188 101.238L54.0469 100.418C54.1484 100.418 54.2852 100.113 54.457 99.5039C54.6992 99.2461 54.8359 99.0469 54.8672 98.9062H54.832L54.9023 98.7656L54.8672 98.7305L54.9375 98.6484L54.7148 98.6133V98.6484L54.1289 98.4727L53.9414 98.6484H53.9062V98.5781L54.0117 98.4258H53.9062V98.3555L54.0469 98.3906L54.1641 98.3555C54.2969 98.4336 54.4805 98.4727 54.7148 98.4727V98.3555H54.75L54.6094 98.1328L54.4219 98.2148V98.168L54.1641 98.25V98.2148L54.1992 98.168V98.1328L54.1289 98.0625L54.2695 97.9922V97.957L53.8711 97.9102V97.8398H54.1289L54.3047 97.8047V97.7695C54.2578 97.7695 54.1719 97.6211 54.0469 97.3242V97.1719C54.1172 97.1719 54.1914 97.2969 54.2695 97.5469L54.5742 97.4766V97.4297L54.5273 97.3945V97.3594L54.6094 97.2891L54.4922 97.1719L54.6445 97.0664L54.4219 96.6211L54.457 96.5859H54.4922C54.6797 96.9297 54.8633 97.1016 55.043 97.1016L55.0898 96.9961C54.9258 96.918 54.6797 96.4883 54.3516 95.707C53.9688 95.1602 53.5977 94.8516 53.2383 94.7812C53.0352 94.5781 52.7539 94.3828 52.3945 94.1953L52.3594 94.2305C52.3281 94.0586 52.2656 93.9727 52.1719 93.9727L52.207 93.9375V93.8906L52.0547 93.8203H51.9844C51.9844 93.9375 51.8984 94.0859 51.7266 94.2656V94.3359C52.0156 94.4297 52.2266 94.5664 52.3594 94.7461H52.2773C52.1367 94.6289 51.9922 94.5664 51.8438 94.5586L51.6562 94.3711H51.6211V94.4883L51.6562 94.5234V94.5586H51.6211L51.4688 94.4883L51.3281 94.5234C51.3281 94.6875 51.4258 94.8086 51.6211 94.8867L51.7266 95.1094L51.6914 95.332C51.6914 95.6758 51.7422 95.8477 51.8438 95.8477L51.9141 95.918C51.7656 96.707 51.6172 97.1016 51.4688 97.1016L51.5039 97.1367V97.4766C51.3555 97.8125 51.2812 98.2305 51.2812 98.7305L51.2109 99.0938C51.2578 99.1875 51.2812 99.3242 51.2812 99.5039V99.5742L51.1406 99.8672L51.4336 100.898C51.5977 100.898 51.6953 100.949 51.7266 101.051V101.086L51.4336 101.93L51.3984 101.977V102.82C51.3984 103.367 51.4727 103.871 51.6211 104.332V104.402L51.6562 105.293L51.6211 105.398L51.8438 105.809C51.8438 106.238 51.8047 106.496 51.7266 106.582C51.7734 106.621 51.8359 107.137 51.9141 108.129C51.9609 108.129 52.0078 108.238 52.0547 108.457C52.1094 108.465 52.1602 108.527 52.207 108.645C52.1367 108.887 52.0742 109.008 52.0195 109.008L51.9141 108.938H51.8789L51.9141 109.16L51.8789 109.195V109.23L51.9141 109.336L51.8789 109.371H51.8438L51.8789 109.418L51.7969 109.852L51.8789 110.004L51.8438 110.262V110.414L51.9141 111.188L51.8789 111.223V111.258L51.9141 111.293L51.8789 111.48L51.9141 111.621H51.8789L51.7969 111.551V111.41L51.6211 110.262L51.6562 110.156C51.5078 110.094 51.4336 109.945 51.4336 109.711C51.3867 109.711 51.3633 109.746 51.3633 109.816L51.3281 109.852H51.2812L51.2461 109.816L51.1406 109.934C51.0938 109.738 50.9961 109.641 50.8477 109.641C50.6992 109.523 50.625 109.336 50.625 109.078L50.7305 108.902V108.855H50.6602V108.785H50.7305V108.75L50.4727 108.387H50.4375L50.332 108.457L50.1094 108.199L50.0273 108.457L50.0742 108.492V108.527C50.0039 109.059 49.9297 109.355 49.8516 109.418L49.8867 109.453V109.559L49.8516 109.781L49.8867 109.898L49.7344 110.191L49.7695 110.227H49.8047L49.7695 110.672V110.848H49.6992V110.812C49.6992 110.133 49.6367 109.617 49.5117 109.266V108.785L49.5469 108.562C49.5 108.438 49.4766 108.219 49.4766 107.906V107.684L49.5117 107.648C49.3633 107.273 49.2539 106.793 49.1836 106.207V106.137C49.2539 105.629 49.3164 105.359 49.3711 105.328L49.3359 105.176L49.3711 105.141H49.4062L49.3711 105.105V105.035L49.4766 104.848L49.3711 104.625V104.52C49.3711 104.238 49.4062 103.93 49.4766 103.594C49.4531 103.484 49.3906 103.41 49.2891 103.371L49.3711 103.148L49.2891 103.078L49.3711 102.785C49.293 102.785 49.2539 102.758 49.2539 102.703V102.668L49.2891 102.527L49.1836 102.234C49.0352 102.234 48.9609 102.148 48.9609 101.977L48.9961 101.414L48.9258 100.898L48.9609 100.535C48.8984 100.395 48.8008 99.9883 48.668 99.3164C48.6367 99.3164 48.5977 99.2305 48.5508 99.0586L48.5977 98.8359C48.5117 98.3125 48.4258 98.0039 48.3398 97.9102V97.1016C48.4336 97.0391 48.4922 96.5586 48.5156 95.6602L48.4805 95.625H48.4453L48.375 95.707L48.4102 95.8125C48.3633 95.8125 48.3242 95.875 48.293 96L48.082 96.0703H48.0352V95.9648H47.9648L47.707 96.1055L47.6719 96.0703V96.0352C47.7969 95.8867 47.8594 95.7773 47.8594 95.707L47.707 95.5547L47.8242 95.4492L47.9648 95.4844C48.0664 95.4453 48.1172 95.4062 48.1172 95.3672V95.2266L48.0352 95.1094C48.0352 95.0625 48.0859 95.0391 48.1875 95.0391V95.0039L48.1172 94.8867V94.8516C48.2344 94.8516 48.293 94.8164 48.293 94.7461L48.1523 94.6641L48.1875 94.5586L47.9648 94.3008V94.2305H48.0352L48.2227 94.3711L48.1875 94.4062C48.25 94.6328 48.3477 94.7461 48.4805 94.7461V94.7109L48.375 94.4531V94.3359L48.4102 93.7148C48.2305 93.543 48.0938 93.457 48 93.457L47.9648 93.4922L48 93.5273V93.5977C47.9062 93.5977 47.8594 93.6602 47.8594 93.7852C47.7109 93.7852 47.6367 93.8203 47.6367 93.8906C47.6914 93.8906 47.7266 93.9531 47.7422 94.0781L47.6367 94.1133L47.6719 94.3008H47.6367C47.5898 94.3008 47.5664 94.2656 47.5664 94.1953L47.5312 94.2305H47.3438C47.2188 94.2305 47.1562 94.168 47.1562 94.043C47.0391 94.043 46.9805 94.0195 46.9805 93.9727L47.2383 93.8555V93.7852C47.1602 93.7852 47.0586 93.6016 46.9336 93.2344C47.1836 93.5 47.3086 93.6836 47.3086 93.7852L47.3438 93.75H47.3789L47.5664 93.7852V93.7148C47.418 93.7148 47.3438 93.6016 47.3438 93.375L47.4961 93.3398C47.457 93.1211 47.3828 93.0117 47.2734 93.0117L47.3438 92.9414L47.3086 92.8945V92.6016L47.4609 92.4141V92.3438L47.3789 92.0508V91.9805C47.4336 91.9805 47.4844 92.0781 47.5312 92.2734L47.6367 92.3438C47.707 92.3438 47.7422 92.2812 47.7422 92.1562H47.8594C47.8594 92.2422 47.9062 92.3281 48 92.4141V92.4609L48.1523 92.3438V92.4141L48.082 92.6016L48.2578 92.7891H48.293L48.1875 93.0469V93.082L48.3398 93.2344H48.4102C48.5352 93.2344 48.6094 93.1953 48.6328 93.1172L48.5977 93.0117H48.6328L48.7031 92.7891L48.293 92.4961V92.4141H48.3398L48.8203 92.7539C48.9375 92.7227 48.9961 92.6836 48.9961 92.6367L48.9609 92.6016C49.0312 92.5938 49.082 92.5312 49.1133 92.4141L48.9258 92.2383H48.9609L49.2188 92.3789V92.3086L49.1484 92.0859H49.1836C49.2305 92.0859 49.2539 92.125 49.2539 92.2031H49.3359V92.1562L49.2891 92.1211V92.0859C49.3906 92.0859 49.4414 92.0625 49.4414 92.0156C49.418 91.9219 49.332 91.7969 49.1836 91.6406V91.6055H49.2539L49.6289 91.9453V91.8633H49.6992V92.0508H49.7344L49.8867 91.8984V91.8633C49.8242 91.8633 49.7383 91.7891 49.6289 91.6406V91.6055H49.6641C49.8359 91.6992 49.9219 91.7852 49.9219 91.8633L49.9922 91.793L50.0273 91.8281H50.1094L50.0742 91.793V91.6875L50.1445 91.6055L50.2852 91.6406L50.332 91.4648H50.4023V91.6406L50.4727 91.7227C50.6367 91.4492 50.7461 91.3008 50.8008 91.2773ZM47.2031 91.6875L47.2734 91.793V91.8281C47.1719 91.7891 47.1211 91.7539 47.1211 91.7227L47.1562 91.6875H47.2031ZM47.3086 91.8633L47.3789 91.9453V91.9805L47.3086 91.8984V91.8633ZM53.7539 91.8633L53.7891 91.8984V91.9453L53.7539 91.9805H53.6836V91.9453L53.7539 91.8633ZM48.8203 92.5312H48.8555L48.9258 92.6016H48.8203V92.5312ZM47.5312 94.6641H47.5664V94.7812H47.4609V94.7461L47.5312 94.6641ZM52.875 95.332H52.9102L52.9805 95.4023L52.7578 95.5195L52.7227 95.4844V95.4492L52.875 95.332ZM57.8906 96.5859H57.9961V96.6562H57.8906V96.5859ZM53.4961 96.8086L53.5781 96.8789H53.4258L53.4961 96.8086ZM54.3516 97.582V97.6172L54.4219 97.6875H54.5742L54.6445 97.6172V97.5469L54.3516 97.582ZM52.9453 97.7344H53.0977V97.8398H53.0508L52.9453 97.8047V97.7344ZM55.0898 97.9102L55.1953 97.957V97.8398H55.1602L55.0898 97.9102ZM54.9727 97.957L55.043 98.0625C55.043 98.1328 54.9727 98.168 54.832 98.168V98.3203L54.7852 98.5078L54.9727 98.3555L54.9375 98.25H54.9727C55.0508 98.25 55.0898 98.1641 55.0898 97.9922L55.043 97.957H54.9727ZM57.4453 98.3906H57.4805C57.6523 98.4766 57.7891 98.5898 57.8906 98.7305H57.8555C57.6992 98.7305 57.5625 98.6172 57.4453 98.3906ZM58.6641 98.6836H58.8047V98.7656H58.6641V98.6836ZM56.8945 99.3516H56.9648V99.4688H56.8945V99.3516ZM56.707 99.5039C56.8242 99.5039 56.9492 99.6641 57.082 99.9844C56.9023 99.9141 56.7656 99.7773 56.6719 99.5742L56.707 99.5391V99.5039ZM53.7539 105.176V105.211L53.6484 105.363L53.8359 105.434C53.7656 105.676 53.6406 105.836 53.4609 105.914H53.2734L53.1328 105.809L52.9453 105.844L53.0508 105.691L53.0156 105.469L53.2734 105.293L53.6133 105.328L53.7539 105.176ZM54.5742 105.176H54.6797L54.75 105.258L54.6797 105.328H54.5273L54.457 105.258L54.5742 105.176ZM54.2695 105.258H54.3867V105.328H54.1992L54.2695 105.258ZM53.9766 105.328H54.1992L54.1289 105.398H53.9062L53.9766 105.328ZM53.3555 106.207L53.3906 106.254V106.289L53.3555 106.324H53.3086L53.2734 106.289V106.254L53.3086 106.207H53.3555ZM50.625 110.707L50.6602 110.742V110.777C50.6602 110.902 50.6211 110.977 50.543 111L50.5078 110.965V110.93C50.5312 110.781 50.5703 110.707 50.625 110.707ZM65.7422 91.6289H66.1523C66.7148 91.6289 67.0742 91.8477 67.2305 92.2852C67.3867 92.4805 67.5781 92.9336 67.8047 93.6445C67.8594 93.6445 67.9258 93.8516 68.0039 94.2656C68.1133 94.3594 68.168 94.4688 68.168 94.5938H68.2148L68.6602 94.2188H68.707L68.2969 94.7578C68.4219 94.7578 68.5156 94.9648 68.5781 95.3789H68.9531V95.4609H68.7422L68.625 95.5781C68.625 95.8516 68.7344 96.5117 68.9531 97.5586C68.9531 97.7148 69.0352 97.9336 69.1992 98.2148L69.1172 99.2461C69.1172 99.4102 69.2969 99.4922 69.6562 99.4922C69.6562 99.4453 69.9141 99.3633 70.4297 99.2461H70.6055L70.7227 99.3281H70.8516L71.2969 99.3633L71.543 99.2812L71.5078 99.082L71.625 99.1641L71.707 99.082H71.7891V99.1641L71.7539 99.1992V99.2461H71.8359L72.082 99L72.1641 99.082H72.293C72.293 98.9961 72.3203 98.9531 72.375 98.9531H72.4102C72.2383 99.3672 71.9492 99.5742 71.543 99.5742C71.543 99.668 71.4492 99.7344 71.2617 99.7734V99.8203C71.2617 99.8828 71.4531 99.9258 71.8359 99.9492C72.0391 99.8555 72.2188 99.7305 72.375 99.5742L72.3281 99.5273V99.4922L72.5391 99.2812H72.5742V99.3633L72.5391 99.4102V99.4453H72.7852C72.7852 99.3828 72.8945 99.2891 73.1133 99.1641L73.4414 98.8359L73.4766 99.082L73.6875 99.0352H73.7695V99.082L73.7227 99.2461L73.7695 99.3633H73.7227L73.5234 99.2812L73.4414 99.3633L73.3945 99.3281C73.1602 99.3984 72.9688 99.5195 72.8203 99.6914L72.5742 99.7734V99.8672C72.8789 99.9844 73.043 100.078 73.0664 100.148H73.0312L72.4922 99.9492L72.457 99.9844H72.4102L72.3281 99.9023C72.1562 100.066 72.0312 100.148 71.9531 100.148L71.5078 100.066C71.4609 100.285 71.3789 100.395 71.2617 100.395L71.0508 100.77H71.0156L71.0508 100.559H71.0156L70.6406 100.723L70.4297 100.688L70.3945 100.723H70.3477L70.3125 100.688H70.2656L69.9375 100.77L70.0664 100.969H69.9844L69.8203 100.887C69.8203 100.949 69.7227 101.004 69.5273 101.051C69.6289 101.715 69.7812 102.047 69.9844 102.047L69.9023 102.129C69.9258 102.363 69.9648 102.512 70.0195 102.574V102.867L69.9023 103.031V103.113H70.0195L70.0664 103.066H70.1016L70.1484 103.113V103.16L69.9023 103.195V103.406L69.8555 103.605C69.9414 103.605 70.0117 103.66 70.0664 103.77L70.0195 104.262L70.1484 104.391V104.426C70.0625 104.527 70.0195 104.625 70.0195 104.719V104.754L70.1484 105.34H70.1016C70.3359 105.645 70.5156 105.984 70.6406 106.359H70.6875L70.6406 106.617C70.6406 106.789 70.7109 107.035 70.8516 107.355L70.8047 107.473C70.8438 107.473 70.8984 107.609 70.9688 107.883C71.0312 107.938 71.1016 108.117 71.1797 108.422C71.2656 108.422 71.3594 108.68 71.4609 109.195H71.3789C71.2695 108.898 71.0117 108.379 70.6055 107.637V107.555L70.6406 107.52C70.4453 107.145 70.3203 106.828 70.2656 106.57L69.9375 106.031V105.832L70.0195 105.375C69.7461 105.141 69.6094 104.895 69.6094 104.637L69.6562 104.59V104.555L69.6094 104.426L69.6914 104.344V104.309L69.6094 104.145L69.6562 103.98C69.4531 103.66 69.3164 103.387 69.2461 103.16L69.2812 103.113L69.1992 103.031L68.7422 103.324H68.707C69.0664 102.988 69.2461 102.766 69.2461 102.656C69.1914 102.234 69.1094 101.988 69 101.918L69.0352 101.719C68.9727 101.703 68.9023 101.578 68.8242 101.344C68.5586 101.398 68.2852 101.496 68.0039 101.637C67.6523 101.66 67.2539 101.77 66.8086 101.965V102.047C66.8086 102.133 66.8516 102.227 66.9375 102.328L66.7734 102.375C66.6875 102.156 66.5625 102.047 66.3984 102.047C66.2031 102.328 65.9297 102.52 65.5781 102.621L65.4961 102.703H65.332L65.1211 102.656C65.1211 102.797 65 102.895 64.7578 102.949C64.7578 103.09 64.7305 103.16 64.6758 103.16L64.5117 103.195V103.16L64.3828 103.195L64.0195 102.984L64.2656 102.703L64.1016 102.246L64.6758 101.672C64.6758 101.758 64.7148 101.801 64.793 101.801C65.3711 101.48 65.6602 101.301 65.6602 101.262L66.3984 100.805C66.5 100.805 66.6367 100.684 66.8086 100.441C66.9102 100.441 67.1172 100.344 67.4297 100.148C67.5938 100.148 67.8828 100.012 68.2969 99.7383L68.625 99.6562C68.4453 98.4766 68.293 97.8867 68.168 97.8867L68.1328 97.8398V97.8047L68.168 97.7578C68.1055 97.2188 67.9844 96.7656 67.8047 96.3984C67.5312 96.0938 67.3789 95.8633 67.3477 95.707L66.9727 95.625C66.8633 95.625 66.8086 95.7617 66.8086 96.0352C66.7461 96.0352 66.6641 96.2422 66.5625 96.6562L66.5273 96.6914C66.5273 96.7461 66.4453 96.8008 66.2812 96.8555V97.0195H66.3633V97.1016C66.2227 97.1016 66.1523 97.1992 66.1523 97.3945C66.082 97.3945 65.9727 97.5312 65.8242 97.8047V98.4609C65.668 98.6719 65.543 98.9883 65.4492 99.4102C65.3711 99.4102 65.332 99.5039 65.332 99.6914C65.2227 99.6914 65.168 99.7891 65.168 99.9844C65.0586 99.9844 64.9219 100.121 64.7578 100.395H64.6289V100.605L64.1836 101.555C64.1836 101.742 64.0703 101.918 63.8438 102.082L63.9258 102.211C63.6289 102.547 63.4805 102.902 63.4805 103.277L63.4336 103.324C63.582 103.566 63.6914 103.688 63.7617 103.688L63.8906 103.652L63.9727 103.734H64.1367L64.1016 103.688V103.652L64.1367 103.605H64.2188V103.688H64.4648V103.57H64.5469L64.5938 103.77L64.875 103.688V103.77C64.6562 103.824 64.5469 103.879 64.5469 103.934L64.5938 103.98C64.4531 103.996 64.3828 104.035 64.3828 104.098C64.4609 104.098 64.7344 104.234 65.2031 104.508H65.25V104.637H65.2031C65.1328 104.559 64.832 104.406 64.3008 104.18V104.145H64.1836L64.2656 104.262V104.344H64.2188C64.1484 104.344 64.1094 104.277 64.1016 104.145L63.9727 104.262L63.7617 104.145L63.7266 104.18L63.6797 104.145L63.6445 104.18V104.391L63.8438 104.719H63.8086L63.4336 104.391L63.3516 104.473C63.3516 104.887 63.4609 105.094 63.6797 105.094C63.8047 104.953 63.918 104.883 64.0195 104.883V104.965C63.9023 104.965 63.8164 105.02 63.7617 105.129C63.7617 105.184 63.832 105.211 63.9727 105.211V105.293L63.7266 105.34L63.7617 105.375V105.457C63.6523 105.457 63.5977 105.484 63.5977 105.539L63.6797 105.621H63.5625L63.4336 105.539H63.1875L63.2344 105.586V105.621L63.0703 105.867V105.914H63.1523V105.949L63.4805 105.867L63.5156 105.914V105.996C63.5156 106.051 63.4609 106.078 63.3516 106.078L63.3984 106.113V106.195H63.3516L62.6602 105.621H62.6133V105.668H62.6953V105.867C62.6953 105.922 62.7383 105.949 62.8242 105.949V106.031L62.5781 106.078C62.5781 106.133 62.6328 106.16 62.7422 106.16V106.242H62.6602V106.277L62.9062 106.324V106.406H62.6953L62.6602 106.359H62.6133L62.5781 106.488L62.9062 106.652L63.0234 106.617V106.699H62.9062V106.734H62.9883L63.4336 106.57H63.4805V106.617H63.3984V106.652H63.4336L63.7617 106.57H63.8086C63.8086 106.625 63.5625 106.723 63.0703 106.863C63.0391 107.02 62.957 107.156 62.8242 107.273C62.8242 107.352 62.8789 107.391 62.9883 107.391L63.0234 107.438V107.52H62.9883C62.8711 107.41 62.7617 107.355 62.6602 107.355H62.6133L62.6602 107.391V107.438L62.6133 107.473H62.5781L62.5312 107.355L62.4961 107.391L62.2852 107.355C62.207 107.355 62.125 107.41 62.0391 107.52H61.9922V107.555H62.0391L62.1562 107.52V107.555C62.0625 107.719 61.9805 107.801 61.9102 107.801V107.883C61.9648 107.992 62.0469 108.047 62.1562 108.047V108.129L61.793 108.047L61.7109 108.258H61.6289V108.129H61.582L61.4648 108.211H61.418C61.418 108.109 61.3633 108.039 61.2539 108H61.2188L61.1719 108.047H61.1367L61.3359 108.34H61.2539V108.422H61.3359V108.457L61.3008 108.504L61.4648 108.832H61.582V108.914C61.4883 108.914 61.4062 108.996 61.3359 109.16L61.5 109.406H61.4648C61.3555 109.352 61.3008 109.281 61.3008 109.195H61.1719V109.242L61.2539 109.359H61.2188L61.1719 109.324H61.1367C61.1367 109.402 61.1094 109.441 61.0547 109.441C61 109.441 60.9727 109.402 60.9727 109.324H60.8906V109.488L60.8438 109.699H60.7617V109.324H60.7266C60.7266 109.434 60.6836 109.488 60.5977 109.488H60.5508V109.441L60.5977 109.324L60.4805 109.242L60.4336 109.277L60.3516 109.195C60.3516 109.25 60.2305 109.32 59.9883 109.406V109.359L60.0703 109.277L60.0234 109.242V109.078L60.1055 108.996L60.0703 108.949V108.914L60.1055 108.75C60.0508 108.75 60.0234 108.707 60.0234 108.621L59.8242 108.586C59.8242 108.539 59.918 108.484 60.1055 108.422C60.1211 108.258 60.1914 108.176 60.3164 108.176L60.2344 108.094H60.1875L60.1523 108.129H60.1055L60.0703 108.094V108.047H60.1523V107.883H60.1055L59.9062 107.965L60.0234 107.801V107.766L59.9062 107.637H59.8242C59.7461 107.723 59.5938 107.766 59.3672 107.766L59.332 107.801V107.848C59.3867 107.848 59.4258 107.93 59.4492 108.094H59.4141C59.3047 108.094 59.25 108.16 59.25 108.293H59.168L59.2852 108.047L59.0391 108C58.8672 108.07 58.7578 108.184 58.7109 108.34L58.5 108.293H58.3008V108.375H58.2539L58.1719 108.293L58.2539 108.211H58.4648L58.5 108.258L58.7109 108.129L58.6641 108.094V108.047L58.7109 107.883C58.5703 107.75 58.4453 107.684 58.3359 107.684C58.3359 107.738 58.2969 107.766 58.2188 107.766L58.0898 107.719C58.082 107.789 58 107.883 57.8438 108L57.8086 107.965V107.93C58.0664 107.656 58.2305 107.52 58.3008 107.52V107.438L58.2188 107.191C58.1484 107.191 57.9961 107.082 57.7617 106.863H57.8086C57.9258 106.863 58.1172 106.957 58.3828 107.145L58.6641 107.027L58.6289 106.98V106.898H58.6641L58.7109 106.945H58.7461L58.9102 106.57L58.7109 106.324L58.8281 106.242H58.9922L59.25 106.406H59.332L59.4141 106.324L59.0391 105.914L59.0859 105.867H59.1211C59.1836 105.977 59.3203 106.102 59.5312 106.242V106.277L59.6602 106.16L59.5312 105.914V105.867L59.7422 106.031L59.7773 105.996C59.7227 105.824 59.6562 105.727 59.5781 105.703H59.5312V105.867C59.4766 105.867 59.4219 105.758 59.3672 105.539C59.1797 105.539 59.0859 105.473 59.0859 105.34H59.0391L58.9102 105.457L58.875 105.422V105.375L58.957 105.293L58.875 105.211H58.8281L58.7109 105.293H58.6289L58.7109 105.176V105.129L58.6641 105.094V105.047L58.793 104.93C58.7305 104.844 58.6328 104.801 58.5 104.801L58.4648 104.754L58.2539 104.672L58.0078 104.754L57.9727 104.719V104.59L58.0547 104.508C58.1094 104.508 58.1367 104.551 58.1367 104.637H58.1719C58.4375 104.637 58.6562 104.691 58.8281 104.801C58.875 104.691 58.9297 104.637 58.9922 104.637V104.59L58.9102 104.473V104.426H58.957L59.0391 104.508L59.168 104.473V104.426C59.168 104.371 59.0977 104.344 58.957 104.344L58.9102 104.309V104.262H59.0391L59.25 104.309C59.25 104.23 59.3047 104.16 59.4141 104.098C59.4141 104.238 59.4961 104.309 59.6602 104.309H59.8594L59.7422 104.145L59.7773 104.016H59.8242C59.832 104.125 59.8711 104.18 59.9414 104.18H59.9883V104.062L59.9062 103.934V103.852C59.9766 103.852 60.0312 103.949 60.0703 104.145H60.1055L60.1523 103.98L60.1055 103.77V103.406C60.168 103.406 60.2109 103.582 60.2344 103.934H60.3164V103.852H60.3984L60.4336 103.898H60.4805V103.77H60.5508L60.5156 103.98H60.5977L60.6328 103.77L60.5977 103.523H60.6328L60.5977 103.488V103.441L60.6328 103.406V103.359L60.5156 103.324L60.5977 103.242L60.6797 103.324C60.8594 102.66 60.9961 102.273 61.0898 102.164L61.0078 102.082C61.1016 100.715 61.2266 100.031 61.3828 100.031C61.5469 99.7969 61.6289 99.5625 61.6289 99.3281L61.7109 99.082L61.7461 99.0352V98.9531L61.6289 98.707C61.8164 98.668 61.9102 98.6016 61.9102 98.5078L62.1211 98.0039C62.0664 98.0039 62.0391 97.9492 62.0391 97.8398H61.9922L61.957 97.8867H61.9102L61.875 97.7227L61.7461 97.8047H61.7109L61.8281 97.5586L61.793 97.5117H61.7109C61.7031 97.5977 61.5781 97.668 61.3359 97.7227H61.3008L61.6289 97.3945V97.3125L61.582 97.2656V97.2305L61.7109 97.1836V97.1016C61.6016 97.1016 61.5469 97.0742 61.5469 97.0195V96.9844H61.6641V96.9375H61.6289L61.0547 96.9844H60.9258V96.9023H60.9727C61.4883 96.8477 61.7617 96.7773 61.793 96.6914C61.6758 96.6523 61.5938 96.582 61.5469 96.4805H61.582L61.957 96.5742L61.9922 96.5273V96.4805L61.8281 96.2344V96.0352C61.9375 96.1055 61.9922 96.1992 61.9922 96.3164H62.0742L62.0391 96.1172H62.1211C62.1211 96.25 62.1484 96.3164 62.2031 96.3164L62.2383 95.9531H62.2852C62.3711 95.9688 62.4141 96.0781 62.4141 96.2812L62.4492 96.2344H62.4961L62.5312 96.2812C62.5469 96.1719 62.5898 96.1172 62.6602 96.1172H62.6953L62.7422 96.2344L62.6133 96.3633L62.7422 96.3984C63.0391 96.2344 63.1875 96.0977 63.1875 95.9883L63.5977 95.0039C63.5977 94.6992 63.6797 94.4805 63.8438 94.3477L63.8906 94.1367L63.7617 94.0195V93.9727L63.9727 94.0195V93.9727C63.9727 93.8945 64.043 93.8398 64.1836 93.8086C64.1836 93.7305 64.2227 93.6914 64.3008 93.6914C64.4648 93.5742 64.5469 93.3516 64.5469 93.0234L65.1211 92.332C65.2617 91.8633 65.4688 91.6289 65.7422 91.6289ZM60.6797 91.7109H60.7617C61.2148 91.8438 61.4883 91.9688 61.582 92.0859H61.5469L60.6797 91.793V91.7109ZM62.8594 91.9219H62.9414V91.957L62.9062 92.0039V92.0391C63.125 92.0391 63.3164 92.1367 63.4805 92.332H63.9258V92.4141H63.8086C63.6914 92.4141 63.5664 92.4961 63.4336 92.6602L63.5156 92.9062L62.9414 93.3164C62.9414 93.4648 62.793 93.5742 62.4961 93.6445L62.2852 93.9727H62.2383L62.3672 93.6445L61.9922 93.5273H61.957C61.8242 93.6367 61.7148 93.6914 61.6289 93.6914L61.5 93.6094L61.4648 93.6445H61.418L61.3008 93.6094L61.1719 93.6445L61.3828 93.3984C61.2969 93.3984 61.2266 93.3438 61.1719 93.2344V93.0703L61.3828 92.6953L61.5 92.6602V92.5781C61.4375 92.5781 61.3164 92.4961 61.1367 92.332V92.2852H61.1719L61.6641 92.5781L61.9102 92.4961C61.9102 92.4102 61.9531 92.3672 62.0391 92.3672V92.332C61.9141 92.3164 61.7773 92.2344 61.6289 92.0859H61.7109L62.2383 92.25C62.2383 92.1953 62.3633 92.1523 62.6133 92.1211L62.6602 92.168L62.8594 91.9219ZM69.1172 94.6289L69.1641 94.6758V94.7109L69.1172 94.7578H69.0352V94.7109L69.1172 94.6289ZM63.3516 94.875V95.0039L63.2344 95.1328H63.1875L63.1055 95.0508V95.0039C63.1055 94.9492 63.1875 94.9062 63.3516 94.875ZM62.2852 95.0508L62.4492 95.25L62.4141 95.543H62.2031V95.4609H62.2852L62.0391 95.2969V95.168C62.0625 95.0898 62.1445 95.0508 62.2852 95.0508ZM68.918 95.2148V95.25L68.8242 95.332L68.7422 95.25L68.7891 95.2148H68.918ZM61.1719 95.6602L61.2539 95.7891L61.1719 95.8711L61.0898 95.707L61.1367 95.6602H61.1719ZM60.3984 95.9531L60.5156 96.0703L60.4805 96.1172H60.4336L60.3164 95.9883L60.3516 95.9531H60.3984ZM60.4336 96.5742H60.4805V96.6914H60.3516V96.6562L60.4336 96.5742ZM67.1016 96.5742H67.2305L67.3125 96.6562L67.1836 96.7383H67.1016L67.0195 96.6562L67.1016 96.5742ZM60.2344 97.3945H60.3164V97.4766L60.1523 97.5117V97.4766L60.2344 97.3945ZM61.9102 97.8867V98.0039H61.8281V97.9688L61.9102 97.8867ZM73.5234 98.6719H73.5586V98.707L73.4414 98.8359V98.7539L73.5234 98.6719ZM71.4258 99H71.4609V99.0352L71.2148 99.1992V99.1641C71.2695 99.0547 71.3398 99 71.4258 99ZM79.7695 96.6562L79.8164 96.7031V96.75L79.7695 96.7969H79.7227L79.6758 96.75V96.7031L79.7227 96.6562H79.7695ZM67.3125 102.457H67.3477L67.4297 102.539L67.3945 102.574H67.3477L67.3125 102.539V102.457ZM60.5156 102.738L60.5508 102.785V102.867H60.4336V102.82L60.5156 102.738ZM59.6602 102.785L59.6953 102.82V102.867L59.6602 102.902H59.5781V102.867L59.6602 102.785ZM59.9883 103.066L60.1055 103.195V103.324H60.0703L59.9062 103.16L59.9883 103.066ZM59.0859 103.277H59.1211L59.2031 103.359L59.168 103.406H59.1211L59.0859 103.359V103.277ZM66.3633 103.324H66.4453L66.5273 103.406L66.3984 103.523H66.2344C66.2734 103.391 66.3164 103.324 66.3633 103.324ZM59.6133 103.488H59.6602L59.7422 103.57V103.605L59.6133 103.488ZM69 103.605V103.652L68.6602 103.898L68.625 103.852V103.816C68.6953 103.676 68.8203 103.605 69 103.605ZM58.793 103.816L58.8281 103.852V103.98H58.7461L58.7109 103.852L58.7461 103.816H58.793ZM57.4805 104.18H57.6445L57.7266 104.262L57.6797 104.309V104.344L57.7266 104.391L57.5156 104.426L57.3867 104.309V104.262L57.4805 104.18ZM69.2812 104.262H69.4102L69.3281 104.344L69.2812 104.309V104.262ZM59.4961 104.344V104.426H59.4141L59.3672 104.391H59.332L59.2852 104.426V104.473C59.3633 104.473 59.4453 104.512 59.5312 104.59C59.6406 104.551 59.6953 104.512 59.6953 104.473C59.5859 104.473 59.5312 104.445 59.5312 104.391L59.5781 104.344H59.4961ZM59.6133 104.637L59.6602 104.848H59.6953L59.7422 104.637H59.6133ZM65.2852 104.59H65.332L65.4492 104.719V104.754H65.4141L65.2852 104.719V104.59ZM64.5117 104.754H64.793L64.875 104.848L64.7109 104.965C64.5859 104.91 64.5195 104.855 64.5117 104.801V104.754ZM64.3828 104.801V104.883L64.2188 104.93V104.848L64.3828 104.801ZM59.6133 104.93C59.6133 105.078 59.5469 105.199 59.4141 105.293V105.375L59.8242 105.668H59.8594L59.9062 105.258V105.211C59.8203 105.211 59.7773 105.184 59.7773 105.129L59.8242 105.094C59.7383 105.094 59.6953 105.051 59.6953 104.965L59.6602 104.93H59.6133ZM63.1055 104.93L63.0703 104.965V105.012H63.1055L63.2344 104.965V104.93H63.1055ZM62.6953 105.34C62.6953 105.473 62.793 105.609 62.9883 105.75V105.785H63.0703L63.1055 105.504C63.0195 105.504 62.9648 105.367 62.9414 105.094L63.0234 105.012H62.9883L62.6953 105.34ZM58.0898 105.621H58.2539L58.418 105.703L58.5469 105.668L58.582 105.703V105.832L58.5 105.914L58.3828 105.832C58.3828 105.91 58.3281 105.949 58.2188 105.949C58.0938 105.902 58.0234 105.848 58.0078 105.785V105.703L58.0898 105.621ZM64.1836 105.621H64.2188L64.3008 105.703L64.2656 105.75H64.1836V105.621ZM58.3359 106.031L58.3828 106.078V106.113L58.3359 106.16H58.3008L58.2539 106.113V106.078L58.3008 106.031H58.3359ZM61.3828 106.816L61.418 106.863H61.4648L61.6289 106.734H61.8281C61.8281 106.516 61.8828 106.406 61.9922 106.406V106.324H61.9102C61.6055 106.496 61.4297 106.66 61.3828 106.816ZM64.3828 106.406V106.488L64.0547 106.57V106.488L64.3828 106.406ZM62.0742 106.535C62.0586 106.699 61.9766 106.781 61.8281 106.781L61.9102 106.898V106.945C61.7773 107.047 61.7109 107.168 61.7109 107.309L61.7461 107.355H61.793L61.875 107.273H61.9102L61.8281 107.391L62.0391 107.438L62.1562 107.273L62.0742 107.191C62.1133 106.832 62.168 106.652 62.2383 106.652L62.2031 106.535H62.0742ZM60.1055 107.027C60.1055 107.16 60.0391 107.227 59.9062 107.227V107.355L60.1055 107.391H60.1875V107.355L60.1523 107.027H60.1055ZM59.7773 107.438L59.7422 107.473V107.555H59.9414C59.9414 107.516 59.8867 107.477 59.7773 107.438ZM57.6797 108.129H57.7617V108.176L57.5977 108.293L57.5625 108.258V108.211L57.6797 108.129ZM59.5312 108.129H59.5781V108.258H59.4492V108.211L59.5312 108.129ZM58.875 108.457L58.9102 108.504V108.586H58.875L58.793 108.504L58.8281 108.457H58.875ZM59.168 109.488H59.2031V109.523L59.1211 109.605H59.0859V109.57L59.168 109.488ZM78.2344 91.5117L79.9922 92.0977C80.4531 92.0977 80.9648 92.2734 81.5273 92.625L82.2188 93C82.2188 93.25 82.3633 93.375 82.6523 93.375C82.8008 93.5547 83.0117 93.9609 83.2852 94.5938L83.4961 94.6523C83.5352 94.5039 83.7148 94.3789 84.0352 94.2773L84.1406 94.3828V94.4883C84.1406 94.5586 84.0156 94.5938 83.7656 94.5938V94.6523C83.8672 94.6523 83.957 94.7227 84.0352 94.8633L83.9766 94.9102H83.9297L83.6602 94.8633L83.6016 94.9102V94.9688L84.1406 95.1797L84.293 95.1211L84.3516 95.1797L84.457 95.0742L84.5156 95.1211L84.457 95.3906L84.832 95.6602H84.9844C84.9844 95.4492 85.1094 95.3438 85.3594 95.3438L85.418 95.3906V95.6016C85.3477 95.7422 85.2383 95.8125 85.0898 95.8125L84.9844 95.707C84.8438 95.8711 84.7734 95.9961 84.7734 96.082H84.668C84.4336 96.082 84.2578 95.8867 84.1406 95.4961L83.8711 95.4492L83.6016 95.4961C83.1094 95.3398 82.8633 95.1797 82.8633 95.0156L82.9102 94.9688L82.6992 94.8047C82.6055 94.875 82.4453 94.9102 82.2188 94.9102L82.2773 94.9688V95.0156L82.1719 95.1211C82.1719 95.2539 82.3828 95.3438 82.8047 95.3906C83 95.8203 83.25 96.0352 83.5547 96.0352L83.707 96.1875V96.2461L83.4492 96.5039H83.3906C83.2891 96.4023 83.0938 96.3164 82.8047 96.2461V96.3516L82.9102 96.5039H82.8047L82.6523 96.3984H82.5938C82.5938 96.5078 82.5586 96.5625 82.4883 96.5625C82.4883 96.5078 82.3633 96.4375 82.1133 96.3516L81.9609 96.5625L81.7969 96.457C81.7969 96.6445 81.6562 96.7695 81.375 96.832V96.7266H81.1055L80.9414 96.5625L81.1641 96.3516L81.1055 96.293L81.1641 96.0352L81.0586 95.918H81L80.6836 96.0352V96.1406L80.8359 96.3516V96.457C80.8359 96.5273 80.7656 96.5625 80.625 96.5625V96.6094L80.7891 96.9844H80.7305L80.5781 96.8789H80.5195L80.625 97.043V97.0898C80.625 97.1602 80.5391 97.1953 80.3672 97.1953V97.3008C80.0078 97.2773 79.8281 97.1914 79.8281 97.043C79.8281 96.9023 79.9336 96.832 80.1445 96.832V96.7734L80.2031 96.1406L79.9336 95.9766C79.793 96.1328 79.7227 96.2578 79.7227 96.3516L79.9336 96.5039V96.6094L79.8867 96.668V96.7266L79.8281 96.668H79.7227C79.6211 97.0586 79.5312 97.2891 79.4531 97.3594C79.3125 97.3594 79.2266 97.2188 79.1953 96.9375L79.1367 96.8789H79.0898L78.6094 97.1484H78.3984C78.3984 97.0625 78.5391 96.9727 78.8203 96.8789C78.8203 96.668 78.8906 96.5625 79.0312 96.5625V96.457C78.8203 96.457 78.6797 96.3867 78.6094 96.2461L77.707 96.0352H77.2734C77.0938 96.0352 76.8828 96.1562 76.6406 96.3984H76.582V96.668L75.7852 97.418L75.8438 97.4648L75.2578 97.6758V97.8398L75.4688 97.8867C75.3984 98.1055 75.3281 98.2148 75.2578 98.2148L75.3047 98.2617V98.3672L75.1523 98.2617H74.7773C74.7773 98.3398 74.6016 98.5547 74.25 98.9062L74.4023 99.0586L74.0859 99.2227L74.25 99.5391C74.0703 99.4375 73.9805 99.332 73.9805 99.2227C73.9258 99.2227 73.8359 99.3828 73.7109 99.7031C73.5859 99.7891 73.4258 100 73.2305 100.336V100.5L73.3477 100.652V100.922C73.2305 101.219 72.9609 101.66 72.5391 102.246V102.363C72.7578 102.363 72.8672 102.484 72.8672 102.727L74.1445 103.266L75.9961 104.004C76.3945 104.004 76.6641 104.148 76.8047 104.438L77.2266 104.648H77.4961C77.6133 104.648 77.7344 104.594 77.8594 104.484H78.2344L78.3984 104.59H78.6094L78.6562 104.543H78.7148L78.6562 104.484V104.438C79.0859 104.211 79.3008 104.066 79.3008 104.004L79.5117 103.477L79.1367 103.16C78.7773 103.16 78.3711 103.355 77.918 103.746L77.1211 104.109L77.0625 104.062V104.004L77.543 103.477C77.3633 103.477 77.2734 103.422 77.2734 103.312L77.4375 103.266L77.8594 103.312C77.8594 103.203 78.2344 102.848 78.9844 102.246V102.199H78.7617L78.8672 102.094L79.0312 102.141C79.3828 101.898 79.5586 101.617 79.5586 101.297L79.6172 101.238H79.6758L79.7227 101.449C79.8945 101.309 80.2305 101.203 80.7305 101.133C81.3164 100.766 81.6562 100.5 81.75 100.336C81.8672 100.312 81.9727 100.207 82.0664 100.02V99.9609L82.0078 99.9141V99.8555C82.2578 99.5742 82.418 99.4336 82.4883 99.4336C82.6992 99.4336 82.9141 99.5039 83.1328 99.6445C83.1328 99.582 83.5039 99.4219 84.2461 99.1641L84.293 99.1172L84.3984 99.2227V99.3281L84.0352 99.4922V99.4336L83.8242 99.5977L83.9297 99.7031L83.9766 99.6445H84.0352C84.0352 99.8242 84.1562 99.9492 84.3984 100.02V100.066C84.3281 100.285 84.2578 100.395 84.1875 100.395H84.082C84.0273 100.395 83.9766 100.27 83.9297 100.02H83.8711C83.8086 100.02 83.7539 100.109 83.707 100.289L83.9297 100.5L83.8711 100.547C83.9805 100.547 84.0352 100.617 84.0352 100.758L83.9766 100.922L84.082 101.027V101.449C84.082 101.52 83.9766 101.574 83.7656 101.613C83.6953 101.402 83.625 101.297 83.5547 101.297L83.3906 101.613C83.4609 101.613 83.4961 101.719 83.4961 101.93L83.6602 101.988V102.363L83.2852 102.832H83.2383C83.1055 102.59 82.9453 102.469 82.7578 102.469L82.3828 102.832L82.4414 102.996H82.3828C82.2031 102.996 82.1133 103.086 82.1133 103.266C82.1133 103.406 82.3281 103.492 82.7578 103.523L83.0156 103.418V103.523C82.9062 103.523 82.7852 103.598 82.6523 103.746H82.4883L82.3242 103.629L82.3828 103.898V103.957H82.3242L82.1719 103.898V104.062C82.3984 104.062 82.5234 104.113 82.5469 104.215V104.32H82.4414V104.379L82.7578 104.754H82.6992L82.3242 104.438C82.2539 104.438 82.2188 104.383 82.2188 104.273H82.1719L82.1133 104.438L82.1719 104.484V104.543C82.1719 104.613 82.0469 104.664 81.7969 104.695L81.6328 105.012L81.7969 105.176C81.7969 105.246 81.707 105.281 81.5273 105.281L81.5859 105.34V105.492C81.3672 105.492 81.207 105.812 81.1055 106.453L81.2695 106.512V106.617L81.1641 106.828L81.2109 107.25L81.1641 107.309H81.1055L81 107.145L81.0586 107.086V107.039L80.9414 106.723C80.8789 106.723 80.6484 106.953 80.25 107.414C80.1719 107.484 80.0508 107.52 79.8867 107.52V107.625H79.8281L79.8867 107.672V107.73L79.5586 108.152C79.6211 108.527 79.6953 108.758 79.7812 108.844V108.996L79.6758 109.102C79.5977 109.055 79.543 108.754 79.5117 108.199L79.4531 108L79.4062 107.941H79.0898V108.152H78.9844C78.9844 107.926 78.7539 107.766 78.293 107.672C77.793 107.672 76.7617 107.195 75.1992 106.242C75.082 106.242 74.5156 105.887 73.5 105.176C73.0859 105.035 72.6953 104.824 72.3281 104.543C71.9453 104.543 71.4531 103.957 70.8516 102.785L70.7461 102.246V101.449L70.5234 100.758V100.5L70.957 99.2227L71.0039 99.1641V98.5781L72.0117 97.1953L72.4336 96.0352L72.6562 95.8711H72.8086L72.9727 95.9766H73.0195C73.1211 95.625 73.2461 95.4492 73.3945 95.4492L73.4531 95.4961H73.5C73.7969 95.3555 73.9922 95.1953 74.0859 95.0156C73.8984 94.8203 73.793 94.5742 73.7695 94.2773L73.8164 94.2188H73.875L74.0859 94.2773L74.1445 94.2188H74.1914L74.5078 94.3242L74.7773 94.1133L74.6719 94.0078L74.7305 93.9609V93.9023L74.5664 93.7383V93.6914C74.9336 93.3711 75.2695 93.2109 75.5742 93.2109C75.5742 93.1016 75.8594 92.9062 76.4297 92.625C76.4297 92.5156 76.5898 92.375 76.9102 92.2031C76.9102 92.0078 77.2461 91.8281 77.918 91.6641C77.9492 91.5625 78.0547 91.5117 78.2344 91.5117ZM74.1445 92.9414H74.25L74.3555 93.0469L74.1914 93.1523L74.1445 93.1055V92.9414ZM73.5586 93.7969H73.6055L73.7109 93.9023L73.4531 94.0078L73.3945 93.9609V93.9023L73.5586 93.7969ZM84.3984 94.2188L84.457 94.2773V94.3828H84.293V94.3242L84.3984 94.2188ZM73.3945 94.2773C73.5039 94.2773 73.5586 94.3477 73.5586 94.4883C73.5195 94.6992 73.4648 94.8047 73.3945 94.8047H73.2891C73.2188 94.8047 73.1836 94.7148 73.1836 94.5352H73.0781V94.4297C73.1094 94.3281 73.2148 94.2773 73.3945 94.2773ZM85.418 94.5938H85.5703L85.6758 94.6992L85.5234 94.8633L85.3125 94.6992L85.418 94.5938ZM72.4336 95.0156H72.4922L72.5977 95.1211L72.5391 95.1797H72.4336V95.0156ZM85.4648 95.8711V95.918L85.5234 95.8711H85.5703L85.7344 96.0352L85.5703 96.1875H85.3125L85.207 96.082V96.0352C85.207 95.9492 85.293 95.8945 85.4648 95.8711ZM82.4883 96.6094H82.5938L82.6523 96.8789C82.5664 96.8789 82.5117 96.7891 82.4883 96.6094ZM81.375 96.8789V97.043H81.2695V96.9844L81.375 96.8789ZM83.3906 96.9375H83.4961L83.6016 97.043L83.4961 97.1484L83.3906 96.9844V96.9375ZM79.6172 97.3594L79.9922 97.7344L80.0391 97.6758H80.25C80.25 97.7461 80.1797 97.7812 80.0391 97.7812V97.8398C80.2578 97.8711 80.3672 97.9219 80.3672 97.9922L80.2031 98.0508L80.3672 98.2617V98.3203L80.25 98.4258C79.8281 97.9102 79.6172 97.5742 79.6172 97.418V97.3594ZM75.9961 97.4648H76.1133L76.3711 97.5234V97.6289H76.3242C76.1367 97.6289 76.0273 97.5742 75.9961 97.4648ZM81.2695 97.4648L81.4219 97.6289V97.7812L81.3164 97.8867H81.1641L80.9414 97.6758V97.6289C80.9805 97.5195 81.0898 97.4648 81.2695 97.4648ZM85.418 97.5234H85.4648L85.6289 97.5703V97.6758H85.5234L85.418 97.5703V97.5234ZM76.2656 98.2617H76.3242L76.4297 98.3672L76.2656 98.4727H76.1602V98.3672L76.2656 98.2617ZM77.3789 98.3203L77.4961 98.4258L76.4297 98.8008V98.6836L77.3789 98.3203ZM75.3047 98.3672C75.4531 98.4375 75.5273 98.543 75.5273 98.6836L75.3047 98.4727V98.3672ZM82.9688 98.3672L83.0742 98.4727V98.7422L83.3438 98.6836L83.4492 98.8008C83.4492 98.6914 83.4844 98.6367 83.5547 98.6367L83.6016 98.6836H83.6602L83.8711 98.4727V98.5312C83.7695 98.7422 83.6445 98.8477 83.4961 98.8477V98.9062C83.6055 98.9062 83.6602 98.9414 83.6602 99.0117V99.0586C83.5273 99.3086 83.3867 99.4336 83.2383 99.4336C82.8477 99.3398 82.6523 99.2344 82.6523 99.1172C82.7148 99.1172 82.7656 99.0273 82.8047 98.8477C82.9141 98.8477 82.9688 98.8125 82.9688 98.7422L82.8047 98.4727L82.9688 98.3672ZM84.8789 98.4727H84.9844L85.0898 98.5781V98.6367L84.9375 98.8008C84.7969 98.7461 84.7266 98.6914 84.7266 98.6367L84.8789 98.4727ZM80.4141 98.5312C80.5469 98.5312 80.6719 98.6367 80.7891 98.8477V98.9531L80.6836 99.0586C80.4336 99.0586 80.3086 98.8984 80.3086 98.5781L80.3672 98.5312H80.4141ZM75.8438 98.6367L75.9492 98.7422L75.7852 98.8008V98.9062L75.8906 99.0117L76.1602 98.9531V99.0117L75.9492 99.375L75.9961 99.4336V99.5391C75.9258 99.5391 75.8906 99.5938 75.8906 99.7031L75.5742 99.9609L75.0938 99.75L74.9883 99.8555H74.9414V99.8086L74.9883 99.75V99.7031C74.8555 99.5625 74.75 99.4922 74.6719 99.4922L74.7305 99.4336V99.3281H74.5664C74.6758 99.1172 74.8359 99.0117 75.0469 99.0117L75.1523 99.1172H75.3047L75.4219 99.0117C75.3125 99.0117 75.2578 98.9766 75.2578 98.9062V98.8008H75.4219L75.4688 98.8477H75.5273V98.6836L75.6797 98.8008L75.8438 98.6367ZM82.0664 99.3281H82.2188L81.9023 99.5977L81.75 99.4336L82.0664 99.3281ZM74.2969 99.5977L74.4023 99.7031V99.75L74.2969 99.6445V99.5977ZM84.6211 99.7031L84.668 99.75V99.8086L84.5625 99.9141L84.457 99.8086L84.6211 99.7031ZM78.0234 99.8555H78.293L78.3984 99.9609V100.02L78.293 100.125H78.1875L78.0234 99.9609V99.8555ZM84.3516 100.652H84.457L84.5625 100.758L84.457 100.875H84.3516L84.2461 100.758L84.3516 100.652ZM84.5625 102.094H84.6211L84.457 102.246L84.5156 102.305V102.41L84.457 102.469L84.5156 102.516V102.574C84.4766 102.676 84.3672 102.727 84.1875 102.727H84.1406L83.9766 102.574V102.41L84.0352 102.363L83.9766 102.305V102.199L84.293 102.141L84.457 102.199L84.5625 102.094ZM85.4648 102.832H85.5234C85.5938 102.832 85.6289 102.887 85.6289 102.996L85.6758 103.055H85.7344L85.8398 102.938V102.996L85.7344 103.16V103.207L85.7812 103.266V103.312L85.7344 103.371H85.6758L85.3594 103.266C85.4062 103.086 85.4609 102.996 85.5234 102.996L85.4648 102.938V102.832ZM83.0742 103.055H83.1328L83.2383 103.16L83.0742 103.266L82.9688 103.16L83.0742 103.055ZM84.668 103.055H84.832L84.9375 103.16L84.8789 103.207H84.7734L84.668 103.102V103.055ZM82.5469 103.102L82.6523 103.207L82.5938 103.266H82.5469L82.4414 103.16L82.4883 103.102H82.5469ZM83.9766 103.312L84.082 103.477V103.582L83.9766 103.688H83.707C83.6289 103.578 83.4531 103.523 83.1797 103.523L83.1328 103.477V103.418L83.1797 103.371H83.2383L83.707 103.418L83.9766 103.312ZM84.3516 104.004H84.457V104.168L84.3516 104.062V104.004ZM82.9102 104.859H82.9688L83.9766 105.703L83.9297 105.762H83.8242L82.9102 104.859ZM84.1875 105.867H84.2461C84.3867 105.922 84.457 105.977 84.457 106.031V106.078H84.3984L84.1875 105.867ZM81.9609 106.512L82.0078 106.559H82.0664L82.2773 106.512L82.3242 106.664L82.4883 106.559H82.5469L82.6523 106.664L82.0664 106.934C82.0664 106.863 82.0117 106.828 81.9023 106.828L81.8555 106.77V106.617L81.9609 106.512ZM84.0352 106.512L84.082 106.559V106.617L84.0352 106.664H83.9766L83.9297 106.617V106.559L83.9766 106.512H84.0352ZM83.3906 106.559L83.4961 106.664L83.3906 106.77L83.2852 106.617L83.3438 106.559H83.3906ZM82.8633 107.039H83.0742L83.2852 107.461L83.0742 107.625H82.9688L82.6992 107.52V107.203L82.8633 107.039ZM82.5938 107.625H82.6523L82.7578 107.73V107.777L82.6523 107.895L82.4883 107.73L82.5938 107.625ZM81.5859 108C81.7266 108.047 81.7969 108.098 81.7969 108.152L81.6914 108.258H81.6328L81.4219 108.047L81.5859 108ZM79.8867 109.371L80.0391 109.535V109.688H79.9922L79.7812 109.477L79.8867 109.371ZM91.3242 92.543L91.3711 92.5898V92.8594H91.2656L91.2188 92.5898L91.2656 92.543H91.3242ZM89.8594 92.5898L90.0703 92.8594H90.0234L89.7539 92.6484L89.8125 92.5898H89.8594ZM93.3047 92.6953V92.7539L93.0938 93.0117H92.8828V92.9648C92.9766 92.7852 93.1172 92.6953 93.3047 92.6953ZM90.9023 92.7539H91.0078L91.2188 93.3281L91.4297 93.2695L91.582 93.3281V93.2695L91.8984 92.9062V92.9648C91.8438 93.0977 91.7891 93.1641 91.7344 93.1641L91.9453 93.5391C91.8906 93.7109 91.7891 93.7969 91.6406 93.7969L91.582 93.7383V93.8438L91.8398 93.9492L92.0508 93.7969V93.9023L92.0039 93.9492V94.0078C92.168 94.0078 92.2891 94.0391 92.3672 94.1016C92.3672 94.0156 92.4531 93.8945 92.625 93.7383H92.8359V93.7969L92.4727 94.1602H92.7305L92.8828 94.0547H93.0469L92.9414 94.2656L92.8828 94.207H92.7891V94.2656H92.8828V94.3125L92.8359 94.3711V94.418C92.9062 94.418 92.9414 94.4727 92.9414 94.582L93.7266 94.418H93.7734C93.5781 94.6289 93.4062 94.7344 93.2578 94.7344C93.2578 94.8516 93.6211 95.0586 94.3477 95.3555L94.4062 95.4141V95.5195H94.3477C94.0273 95.3398 93.7148 95.2148 93.4102 95.1445H93.2578L93.4102 95.3555V95.4141L93.3516 95.3555H93.0938V95.4609C93.3281 95.4609 93.5391 95.6172 93.7266 95.9297H93.7734V96.0352L93.457 96.1406L93.3047 96.0352L93.2578 96.0938H92.9414V96.1406L93.0469 96.293V96.3516H92.9883L92.8359 96.293V96.3984C92.8359 96.5312 92.9219 96.6875 93.0938 96.8672L93.0469 96.9258H92.9883L92.7891 96.7148C92.6797 96.7148 92.6094 96.8359 92.5781 97.0781H92.7305V97.1367L92.625 97.2305H92.5781L92.4141 97.1367L92.2617 97.1836L92.1562 97.0781C92.1562 97.25 92.0859 97.3359 91.9453 97.3359C91.9453 97.4062 92.0859 97.5117 92.3672 97.6523V97.6992C92.2266 97.9102 92.1562 98.0664 92.1562 98.168L92.2148 98.4375L92.1562 98.4844H92.1094L92.0508 98.332H92.0039L91.9453 98.6953V98.7422C92.0547 98.7422 92.1094 98.7773 92.1094 98.8477V98.9062L92.0039 99.0117C92.0039 98.918 91.8125 98.7617 91.4297 98.543H91.3711L91.1719 98.6953L91.0664 98.5898H90.9023L90.6914 98.6484L90.6445 98.5898H90.5977C90.5117 98.5898 90.3359 98.6953 90.0703 98.9062L89.918 98.8477V98.9062C89.918 98.9766 89.7773 99.0117 89.4961 99.0117C89.4648 99.0977 89.2227 99.2188 88.7695 99.375C88.7695 99.4531 88.6289 99.5234 88.3477 99.5859C88.3477 99.7031 88.0703 99.9609 87.5156 100.359C87.375 100.57 87.2344 100.676 87.0938 100.676L87.3047 101.145V101.355C87.2031 101.48 87.1523 101.602 87.1523 101.719V102.035C87.4961 103.16 87.9141 103.836 88.4062 104.062C89.3281 105 90.3008 105.469 91.3242 105.469L91.6406 105.422L92.0508 105.527C92.2695 105.527 92.6719 105.18 93.2578 104.484C93.3516 104.484 93.4375 104.344 93.5156 104.062C93.7656 104.062 94.1484 103.699 94.6641 102.973L94.6055 102.293C94.6055 102.16 94.6602 102.02 94.7695 101.871V101.613L94.9219 99.8438L94.875 99.5273L94.9219 99.4805V99.4219L94.875 99.2695L94.9219 99.2109L94.8164 99.1172V98.9062L94.875 98.8477C94.8125 98.6914 94.707 98.5703 94.5586 98.4844L94.4062 98.543L94.3008 98.3789L94.3477 98.332L94.2422 98.2266L94.3008 98.168V98.1211C94.832 98.3242 95.125 98.5312 95.1797 98.7422V98.8008L95.1328 98.8477C95.2109 99.0898 95.2812 99.2109 95.3438 99.2109L95.3906 99.0586L95.2852 98.8477L95.3906 98.6484L95.3438 98.3789L95.3906 98.2266L94.8164 97.6992L94.7695 97.7578V97.6992L94.8164 97.5469L94.6641 97.3945H94.7109L94.9688 97.5469C95.0703 97.4219 95.332 97.2852 95.7539 97.1367V97.2891C95.3008 97.4062 95.0742 97.5273 95.0742 97.6523L95.8125 98.332C96.0781 98.332 96.2695 98.6094 96.3867 99.1641V99.4805L96.5977 99.7852L96.4922 100.102L96.6445 101.461C96.582 101.531 96.5312 101.789 96.4922 102.234C96.4062 102.234 96.3359 102.461 96.2812 102.914C95.9688 103.016 95.8125 103.172 95.8125 103.383C95.8125 103.734 95.6914 103.91 95.4492 103.91C95.3398 104.16 94.9922 104.488 94.4062 104.895C93.9375 105.77 93.4648 106.207 92.9883 106.207C92.832 106.48 92.3984 106.617 91.6875 106.617L90.9023 106.828C90.3477 106.828 89.3555 106.48 87.9258 105.785L87.0469 105.316C86.8906 105.113 86.5234 104.836 85.9453 104.484C85.1172 103.609 84.7031 103.051 84.7031 102.809V102.762L84.6445 101.719L84.75 101.613V101.402L84.6445 100.828V100.723C84.8555 100.457 84.9609 100.285 84.9609 100.207C84.7891 100.207 84.7031 100.172 84.7031 100.102V99.9492L85.2656 98.6953C85.4297 97.9766 85.5547 97.6133 85.6406 97.6055C85.9141 97.2539 86.1914 97.0781 86.4727 97.0781C86.8086 96.7891 87.0859 96.3359 87.3047 95.7188L87.7734 95.4609L88.5 94.9453L89.2852 94.6289C89.6367 94.4805 89.8125 94.375 89.8125 94.3125V94.207L89.4961 93.7969H89.543C89.7617 94 89.9219 94.1016 90.0234 94.1016L90.1758 93.9023L90.1172 93.8438L90.1758 93.7969L90.0703 93.6914V93.6328H90.1172C90.1875 93.6328 90.2227 93.6875 90.2227 93.7969H90.3867L90.6445 93.5859L90.5391 93.4336V93.375L90.9023 93.4336C90.9023 93.3242 90.957 93.2695 91.0664 93.2695L90.9023 92.8008V92.7539ZM92.2617 92.8008H92.3086V92.9062L92.2148 93.0117H92.1094V92.9648L92.2617 92.8008ZM92.7305 93.1641H92.7891V93.2227C92.7891 93.2773 92.7188 93.3281 92.5781 93.375V93.3281L92.7305 93.1641ZM89.6484 93.2695H89.707L89.8125 93.375L89.7539 93.4336H89.707L89.6484 93.375V93.2695ZM89.2852 93.6328H89.3438L89.4492 93.7383H89.3906L89.2852 93.6328ZM93.8789 93.7969L93.9258 93.8438V93.9023L93.668 94.1016L93.5156 94.0547V94.0078C93.5156 93.9453 93.6367 93.875 93.8789 93.7969ZM93.1523 96.3516H93.1992C93.6523 96.5156 93.8789 96.6719 93.8789 96.8203C93.957 96.8203 94.1836 96.9922 94.5586 97.3359H94.4531C93.8828 97.0391 93.5352 96.7812 93.4102 96.5625C93.2383 96.5625 93.1523 96.5078 93.1523 96.3984V96.3516ZM94.7695 96.8203L94.875 96.9258L94.7109 97.0312L94.6055 96.9258L94.7695 96.8203ZM96.7969 97.2305L96.8555 97.2891V97.3359C96.8555 97.4062 96.6641 97.4609 96.2812 97.5V97.4414C96.2812 97.3398 96.4531 97.2695 96.7969 97.2305ZM96.9023 97.5H96.9609L97.0664 97.6055H96.9023V97.5ZM93.1992 97.6055H93.3516V97.6523L93.2578 97.7578L93.1992 97.6992V97.6055ZM93.832 97.8633H93.8789L94.0312 98.0156V98.0742H93.9258L93.832 97.9688V97.8633ZM97.6406 97.8633L97.6875 97.9102V97.9688L97.5352 98.0742L97.4766 98.0156V97.9688L97.6406 97.8633ZM96.75 98.2734H96.8555V98.332L96.75 98.4375H96.6445V98.3789L96.75 98.2734ZM93.5156 98.9062H93.5625L93.668 99.0117L93.6211 99.0586H93.5156V98.9062ZM94.0312 99.5273H94.1367V99.5859L94.0312 99.6797V99.5273ZM92.3086 99.8906L92.3672 99.9492V99.9961L92.3086 100.055H92.2617L92.2148 99.9961V99.9492L92.2617 99.8906H92.3086ZM91.8398 100.254L91.8984 100.312V100.359L91.793 100.465H91.7344L91.6406 100.359L91.8398 100.254ZM91.1133 101.098H91.1719V101.145L91.0664 101.25H90.9609L91.1133 101.098ZM90.5977 101.508H90.6445V101.613H90.6914C90.6914 101.676 90.5703 101.797 90.3281 101.977H90.2227V101.93L90.5977 101.508ZM89.918 102.293H90.0703V102.34C90 102.48 89.8945 102.551 89.7539 102.551L89.707 102.504V102.445L89.918 102.293ZM89.4492 102.914V103.078L89.3438 103.184H89.2852V103.078L89.4492 102.914ZM88.9805 103.441L89.0742 103.547L88.9219 103.652L88.875 103.594V103.547L88.9805 103.441ZM95.0742 105.059L95.1328 105.105V105.164L94.7109 105.469L94.6641 105.422V105.363C94.8047 105.16 94.9414 105.059 95.0742 105.059ZM95.2617 89.8242C95.3789 89.9414 95.5664 90.0547 95.8242 90.1641L96.6211 90.1172H96.668L96.8438 90.082C96.9688 90.1367 97.0391 90.1914 97.0547 90.2461V90.3398H96.7969L96.5039 90.2461L96.2812 90.293L96.0703 90.2461C96 90.3086 95.8594 90.3398 95.6484 90.3398L95.6016 90.375V90.457L95.8242 90.5508C95.7773 90.6758 95.6914 90.7734 95.5664 90.8438H95.4375L95.2617 90.7148L95.3555 90.457L95.3086 90.5039H95.1445L94.8047 90.2461L94.4648 90.4219V90.375C94.4648 90.3203 94.5039 90.293 94.582 90.293L94.8398 90.1172C94.8398 89.9219 94.9805 89.8242 95.2617 89.8242ZM103.629 90L104.402 90.1641V90.1172L104.438 90.1641H104.52V90.082H104.613V90.1641L104.777 90.1172L105.035 90.293C105.207 90.1758 105.348 90.1172 105.457 90.1172C105.379 90.2656 105.293 90.3398 105.199 90.3398L105.293 90.457V90.5508L105.246 90.5859V90.6328L105.375 90.7617V90.7969C105.375 90.8438 105.316 90.8867 105.199 90.9258L104.953 90.6797H104.859L104.695 90.9258C104.695 91.0977 104.809 91.1836 105.035 91.1836L105.082 91.1367H105.117L105.422 91.1836L105.551 91.1367L105.586 91.1836V91.2305L105.551 91.2656V91.3125L105.586 91.3594H105.633L106.055 91.2305V91.3125L105.293 91.5234C105.262 91.4375 105.176 91.3945 105.035 91.3945H104.988V91.4414C104.988 91.5977 105.215 91.7812 105.668 91.9922L105.762 92.0742L105.973 92.0391C105.973 92.1016 106.043 92.1406 106.184 92.1562L106.312 92.0391L106.395 92.1211L106.57 91.9922V91.8633L106.348 91.8164L106.312 91.8633L106.137 91.6055H106.008C106.008 91.7227 105.969 91.7812 105.891 91.7812H105.844L105.762 91.6992C105.762 91.6367 105.887 91.5781 106.137 91.5234H106.23L106.477 91.6523L106.523 91.6055C106.492 91.3789 106.449 91.2656 106.395 91.2656H106.348L106.137 91.3125L106.102 91.2656V91.2305L106.312 91.1367V91.1016L105.973 90.9258H105.797L105.668 91.0195H105.586C105.531 91.0195 105.504 90.9766 105.504 90.8906C105.559 90.7188 105.629 90.6328 105.715 90.6328C105.832 90.6641 105.891 90.7188 105.891 90.7969H105.973L106.137 90.5859L105.926 90.3398L105.973 90.293H106.008L106.23 90.5508H106.266V90.4219H106.312L106.477 90.5508H106.523L106.816 90.2461H106.863L106.652 90.5859V90.6328H106.734V90.6797L106.781 90.6328H106.91L106.816 90.7617C106.879 90.7617 106.91 90.8047 106.91 90.8906H106.992L107.461 90.6328L108.047 90.4219C108.047 90.4766 108.176 90.5312 108.434 90.5859V90.6797H108.223L108.094 90.5859C108.016 90.6641 107.719 90.7656 107.203 90.8906L107.25 91.1016H107.121L107.367 91.5234L107.496 91.6523V91.7812L107.332 91.9102C107.332 92.1445 107.219 92.5664 106.992 93.1758C106.875 93.4414 106.746 93.8828 106.605 94.5V95.7773C106.605 95.9727 106.551 96.2266 106.441 96.5391L106.57 96.75V97.1367L106.348 97.3828V97.6875C106.348 97.7891 106.293 97.9297 106.184 98.1094V98.1914C106.27 98.1914 106.312 98.2344 106.312 98.3203C106.312 98.7188 106.242 99.1445 106.102 99.5977L106.137 100.535L106.055 101.344L106.23 103.207L106.008 104.309L106.055 104.824L105.844 105.715L105.797 105.926L105.762 105.973H105.715L105.668 105.926V105.68H105.586C105.586 105.594 105.516 105.551 105.375 105.551L105.328 105.375H105.199L105.246 105.551L105.199 106.312H105.117V105.926L105.082 105.762L105.117 105.715V105.68C105.102 105.391 105.074 105.246 105.035 105.246C104.918 105.246 104.789 105.105 104.648 104.824C104.5 104.621 104.359 104.281 104.227 103.805L103.547 102.785C103.547 102.605 103.32 102.336 102.867 101.977L102.527 101.379C102.41 101.332 102.297 101.121 102.188 100.746L102.234 100.535C102.148 100.535 102.105 100.422 102.105 100.195C102.051 100.195 101.992 100.082 101.93 99.8555C101.758 99.8008 101.52 99.5156 101.215 99C101.066 98.9141 100.953 98.8008 100.875 98.6602C100.617 98.4727 100.488 98.3047 100.488 98.1562L99.9375 97.4766C99.9375 97.3359 99.7969 97.0938 99.5156 96.75V96.7031H99.4688V96.75L99.5156 96.9609L99.4688 97.7695V98.2852L99.5508 98.4023V98.4492L99.5156 99.082C99.625 99.3477 99.707 99.9883 99.7617 101.004L99.8555 101.086V101.637L100.102 102.527C100.188 102.527 100.301 102.926 100.441 103.723C100.41 103.973 100.355 104.141 100.277 104.227V104.309C100.434 104.48 100.547 104.566 100.617 104.566L100.828 104.531V104.613H100.699L100.746 104.66V104.695L100.617 104.824C100.727 104.824 100.781 104.895 100.781 105.035L100.828 105H100.875L100.91 105.164H100.875C100.914 105.281 100.953 105.34 100.992 105.34L100.957 105.375V105.457C100.988 105.527 101.172 105.629 101.508 105.762C101.695 105.848 101.938 105.902 102.234 105.926V106.02L101.719 105.973L101.379 106.137L101.215 106.055C101.215 106.141 101.086 106.211 100.828 106.266C100.883 106.156 100.969 106.102 101.086 106.102V106.055L100.992 105.926L101.039 105.762C100.875 105.762 100.648 105.449 100.359 104.824H100.23L100.148 105.082L100.102 105.035H100.02C100.02 105.121 99.9766 105.164 99.8906 105.164L99.8555 105.211V105.246C99.9102 105.246 99.9375 105.305 99.9375 105.422C100.188 105.516 100.312 105.586 100.312 105.633H100.277L99.8555 105.457L99.8086 105.504H99.7617C99.6367 105.488 99.5234 105.332 99.4219 105.035L99.3867 105H99.2109C99.1484 105 99.1055 105.141 99.082 105.422C99.082 105.508 99.1523 105.551 99.293 105.551C99.3945 105.863 99.4688 106.02 99.5156 106.02C99.5938 105.848 99.7188 105.762 99.8906 105.762C99.7188 105.918 99.6328 106.043 99.6328 106.137V106.184H99.8086L100.312 106.266L100.535 106.137L100.57 106.184V106.23L100.535 106.266C100.645 106.266 100.699 106.336 100.699 106.477L101.168 106.605H101.25V106.699C101.117 106.699 101.02 106.738 100.957 106.816H100.91L100.746 106.699V106.734C100.746 106.906 100.859 107.035 101.086 107.121C101.227 107.121 101.297 107.148 101.297 107.203V107.25L101.215 107.332H101.168C100.801 107.09 100.617 106.863 100.617 106.652L100.23 106.441V106.477L100.441 106.781L100.406 106.91C100.492 106.934 100.535 107.016 100.535 107.156C100.277 106.93 100.133 106.734 100.102 106.57L100.195 106.477L99.7617 106.441L99.6797 106.734H99.6328L99.5977 106.699H99.5508L99.6328 106.477L99.5156 106.395L99.2578 106.477V106.441L99.3398 106.312C99.2305 106.164 99.1055 106.066 98.9648 106.02L98.8359 106.055L98.8828 106.266H98.8359L98.8828 106.312V106.395C98.6875 106.395 98.543 106.309 98.4492 106.137C98.3945 106.137 98.3672 106.066 98.3672 105.926C98.2031 105.926 98.0625 106.012 97.9453 106.184L97.9922 106.359L97.9453 106.395C98.0625 106.395 98.1914 106.508 98.332 106.734L98.543 106.781V106.863H98.4961L98.3672 106.816V106.863L98.2031 106.992L98.1562 107.039V107.074C98.625 107.66 99.0898 108.012 99.5508 108.129L99.6328 108.211L99.5508 108.293H99.5156C99.1094 108.082 98.6289 107.734 98.0742 107.25L97.8984 107.285L97.6055 107.25L97.3945 107.332L97.5234 107.074C97.3828 107.074 97.2812 107.02 97.2188 106.91C97.1094 106.91 97.0391 106.84 97.0078 106.699L97.2656 106.359L97.2188 106.312V106.266L97.1836 106.312H97.0078C96.9375 106.312 96.8672 106.199 96.7969 105.973H96.75V106.02L96.7969 106.184C96.7109 106.184 96.668 106.324 96.668 106.605L96.5039 106.699L96.375 106.652L96.2812 106.816L96.0703 106.781L95.8594 106.992L95.8242 106.945V106.91L96.0352 106.699L95.9883 106.652C96.207 106.574 96.3359 106.488 96.375 106.395L96.3281 106.23L96.457 106.102L96.375 105.762V105.633H96.1992C96.1992 105.742 96.1133 105.797 95.9414 105.797C95.9414 105.914 95.9023 105.973 95.8242 105.973V105.926L95.9062 105.68L95.8594 105.633L95.9062 105.586H95.9414L95.9062 105.457C95.9062 105.293 95.9609 105.211 96.0703 105.211V105.117L95.2266 104.613L95.2617 104.566H95.3086L95.9414 104.906L96.1641 105.035V105L96.1172 104.871L96.3281 104.777L96.2812 104.742V104.613H96.4102L96.2812 104.145V104.098L96.4102 103.969H96.457L96.5391 104.062C96.5391 104.117 96.4961 104.145 96.4102 104.145L96.5039 104.613L96.4102 104.695L96.6211 104.742V104.695C96.6211 104.609 96.6641 104.566 96.75 104.566L96.7969 104.531V104.484L96.75 104.438L96.8789 104.309L96.457 103.629C96.6445 103.48 96.7422 103.355 96.75 103.254H96.8438C97.0391 103.293 97.1367 103.348 97.1367 103.418L97.0898 103.547L97.1836 103.629C97.1836 103.691 97.1406 103.723 97.0547 103.723V103.852H97.0898C97.3789 103.711 97.5234 103.609 97.5234 103.547L97.4766 102.996H97.5234L97.4766 102.949V102.914L97.5234 102.738C97.4531 102.738 97.4102 102.613 97.3945 102.363C97.3945 101.512 97.4922 100.801 97.6875 100.23L97.6523 100.195C97.7305 100.172 97.7695 100.059 97.7695 99.8555C97.832 99.8555 97.9062 99.7539 97.9922 99.5508H98.0273V99.4688L97.3945 100.02L97.3477 99.9844V99.9375C97.5664 99.7812 97.7383 99.6094 97.8633 99.4219L98.0273 99.3398V99.3047L97.6055 98.8359C97.793 98.8359 97.9219 98.7773 97.9922 98.6602L97.7695 98.4961H97.7344L97.6055 98.5781H97.5586V98.5312L97.6523 98.4023L97.6055 98.1914V98.1094C97.8008 97.8203 97.8984 97.4258 97.8984 96.9258V96.75L97.8164 96.6211L97.8633 96.4922C97.8086 96.4922 97.7227 96.3945 97.6055 96.1992V95.7773C97.6055 95.6133 97.4492 95.4414 97.1367 95.2617V95.3438H97.0547L97.0078 95.3086H96.9609C96.8672 95.6211 96.5703 95.7773 96.0703 95.7773C96.0703 95.8164 95.9297 95.8711 95.6484 95.9414L95.6953 95.9883V96.0234L95.5195 96.2812L95.4844 96.2461H95.4375L95.2266 96.2812V96.2461L95.2617 96.1992V96.1523H95.2266L94.6289 96.4922C94.4961 96.4375 94.4258 96.3828 94.418 96.3281V96.1523L94.5 96.0703H94.5469L94.7578 96.1172C94.7578 96.0469 94.957 95.9883 95.3555 95.9414C95.418 95.7695 95.543 95.6836 95.7305 95.6836H96.0352L96.1992 95.6016L96.5039 95.6484L96.8789 95.4375V95.2617C96.7383 95.1367 96.668 94.9961 96.668 94.8398L96.9609 94.582V94.5352H96.8438L96.7148 94.6289H96.5391V94.5352L96.5859 94.3242L96.457 94.1953V94.1602L96.5039 94.1133V94.0781C96.4336 94.0781 96.3906 94.0039 96.375 93.8555H96.2461L96.1641 93.9492C96.2734 93.9648 96.3281 94.0078 96.3281 94.0781H96.2461L96.3281 94.1953C96.3281 94.2812 96.2578 94.3242 96.1172 94.3242L96.375 94.582L96.3281 94.793L96.5391 94.9688L96.457 95.0508C96.4102 95.0508 96.3516 95.1641 96.2812 95.3906H96.1641L96.0703 95.3086H96.1172L96.0703 95.2617V95.1797C96.0703 95.125 96.1289 95.0977 96.2461 95.0977C96.1055 94.9883 96.0352 94.9023 96.0352 94.8398H95.9414L95.7773 94.9688H95.7305V94.9219L95.8594 94.7578L95.7305 94.6289V94.582L95.8242 94.4531L95.7773 94.418H95.7305L95.6953 94.4531H95.6484L95.6016 94.3242L95.3555 94.418V94.3242H95.3086C95.2227 94.3477 95.168 94.4062 95.1445 94.5H95.0508L94.9219 94.4531L94.8398 94.5352H94.6758L94.7109 94.5V94.418L94.582 94.3711C94.4961 94.3711 94.2852 94.5977 93.9492 95.0508L93.8672 94.9688C94.2266 94.5391 94.4531 94.3242 94.5469 94.3242L94.5 94.2891V94.1953L94.582 94.0781L94.2891 93.7734V93.7383L94.6289 93.8555H94.6758L95.1797 93.6094C95.1797 93.5312 95.1094 93.4883 94.9688 93.4805L95.0977 93.2695L95.0156 93.1758V93.1406L95.2266 93.1758V93.0938C94.6953 92.5 94.3828 92.2031 94.2891 92.2031L93.9492 92.0391L93.9961 91.9922V91.9453L93.6914 91.6992H93.7852L93.9961 91.8164V91.7344H94.0312L94.1602 91.7812V91.7344L94.2422 91.6523H94.2891L94.2422 91.8633V91.9102C94.3047 91.9102 94.4062 91.9922 94.5469 92.1562L95.0508 92.625C95.0508 92.7344 95.1953 92.8789 95.4844 93.0586H95.5664L95.7773 92.9297L95.5664 92.7188L95.7773 92.6719L95.4844 92.2852H95.5195C95.7383 92.4805 95.9219 92.5938 96.0703 92.625L96.1172 92.4609H96.1992L96.1172 92.7188C96.1953 92.7188 96.2812 92.7578 96.375 92.8359H96.457V92.8008L96.375 92.543H96.4102L96.375 92.4961V92.3789H96.5039C96.5039 92.3008 96.4453 92.2578 96.3281 92.25V92.1562H96.375L96.457 92.25L96.5859 92.1562C96.5859 92.1094 96.4297 91.9414 96.1172 91.6523L96.1641 91.6055C96.3125 91.6055 96.4531 91.707 96.5859 91.9102H96.668L96.75 91.8164H96.7969L96.668 91.9922V92.0391C96.668 92.0938 96.7266 92.1211 96.8438 92.1211L96.7969 92.1562V92.332L96.8789 92.4141C96.9492 92.4141 97.1211 92.2461 97.3945 91.9102L97.4297 91.9453H97.4766C97.4766 92.0547 97.3789 92.1562 97.1836 92.25V92.332L97.3477 92.4961L97.6523 92.3789L97.6055 92.25L97.6875 92.0391L97.5234 91.8164V91.7812L97.6875 91.9102V91.8164L97.5586 91.6523H97.6055C97.7695 91.793 97.9375 91.8633 98.1094 91.8633L97.8164 91.6992V91.6523C97.9883 91.6523 98.1875 91.3984 98.4141 90.8906L98.3672 90.6797L98.4961 90.7617L98.543 90.7148H98.5781V90.7969L98.543 90.8438V90.8906H98.5781L98.918 90.7969C98.918 90.8594 98.7617 90.9453 98.4492 91.0547L98.2852 91.5234V91.6523C98.6758 91.9883 98.9023 92.1562 98.9648 92.1562L99.082 92.2852L99.0469 92.332H99L98.7891 92.2031L98.707 92.2852L98.7539 92.4141L98.4492 92.5898V92.625C98.6758 92.6953 98.7891 92.7539 98.7891 92.8008L98.707 92.9297V93.0117C98.8945 93.3633 99.1758 93.6328 99.5508 93.8203C99.5508 93.8672 99.6523 93.9219 99.8555 93.9844C100.191 94.7812 100.688 95.5195 101.344 96.1992H101.379L101.426 96.0703C101.34 96.0703 101.297 96.043 101.297 95.9883V95.9062L101.379 95.8125C101.496 95.8594 101.555 95.9023 101.555 95.9414L101.508 95.9883C101.578 96.168 101.648 96.2656 101.719 96.2812L102.059 96.0703C102.004 95.8438 101.949 95.7305 101.895 95.7305H101.848C101.848 95.8711 101.82 95.9414 101.766 95.9414L101.684 95.8125V95.7305L101.801 95.6016C101.973 95.6016 102.102 95.7305 102.188 95.9883H102.234L102.398 95.6484C102.344 95.6484 102.316 95.5898 102.316 95.4727H102.234V95.3906H102.363L102.656 95.7305C102.656 95.6133 102.785 95.4727 103.043 95.3086V95.3438C102.816 95.5781 102.703 95.75 102.703 95.8594H102.82V95.9062L102.738 95.9883L102.609 95.9062C102.609 95.9609 102.555 95.9883 102.445 95.9883V96.2461L102.363 96.3633L102.398 96.4102C102.656 96.3789 102.996 96.2812 103.418 96.1172H103.5L103.594 96.1992C102.852 96.4023 102.48 96.543 102.48 96.6211L102.363 96.668V96.7969L102.398 96.75H102.445C102.547 96.7969 102.645 96.9102 102.738 97.0898C102.855 97.0898 102.996 97.2031 103.16 97.4297C103.363 97.4844 103.465 97.5977 103.465 97.7695V97.8164L103.289 98.0273H103.254C103.207 98.0273 103.164 97.9688 103.125 97.8516L103.289 97.6875L102.914 97.3008L102.949 97.2656C102.871 97.2656 102.746 97.1797 102.574 97.0078H102.527L102.574 97.043V97.1719L102.48 97.2656C102.402 97.2656 102.363 97.2227 102.363 97.1367H102.27L102.188 97.2188V97.2656C102.273 97.2656 102.387 97.3477 102.527 97.5117L102.445 97.6406L102.48 97.7695L102.316 97.8516L102.785 98.625C102.918 98.6328 103.188 99.1133 103.594 100.066C103.664 100.098 103.734 100.254 103.805 100.535C103.898 100.574 104.039 100.828 104.227 101.297L104.355 101.379C104.41 101.379 104.453 101.195 104.484 100.828C104.625 100.641 104.695 100.484 104.695 100.359V100.113C104.609 99.9883 104.566 99.875 104.566 99.7734H104.613L104.566 99.7266L104.613 99V98.4961L104.566 98.1094L104.613 97.9453L104.484 97.3477V96.832C104.141 96.3242 103.969 95.7734 103.969 95.1797C103.969 94.8516 103.828 94.4258 103.547 93.9023C103.461 93.8633 103.332 93.6094 103.16 93.1406C102.91 92.7656 102.785 92.4961 102.785 92.332V92.2852C103.027 92.0352 103.227 91.9102 103.383 91.9102V91.8633L103.16 91.7344H102.703C102.648 91.7344 102.535 91.8633 102.363 92.1211H102.188C102.102 92.0898 102.059 92.0039 102.059 91.8633L102.48 91.6523H102.656C103.031 91.6523 103.285 91.5234 103.418 91.2656V91.1836L103.336 91.1016H103.16L102.785 91.3594H102.738V91.3125L103.078 90.9727L103.043 90.9258H102.996L103.125 90.6328L102.609 90.5508V90.457H102.656L103.125 90.5508C103.125 90.293 103.238 90.1641 103.465 90.1641C103.52 90.1641 103.547 90.1211 103.547 90.0352L103.594 90H103.629ZM99.293 90.0352L99.3867 90.1172L99.3398 90.1641H99.2109L99.1289 90.082L99.1758 90.0352H99.293ZM97.4766 90.1172H97.6055V90.2109H97.4766V90.1172ZM97.1836 90.4219C97.5742 90.4766 97.7695 90.5469 97.7695 90.6328L97.6875 90.7148C97.6016 90.6289 97.4453 90.5586 97.2188 90.5039L97.1836 90.457V90.4219ZM98.2852 90.457H98.332L98.3672 90.6797C98.2578 90.6328 98.2031 90.5898 98.2031 90.5508L98.2852 90.457ZM99.5156 90.5859L99.5508 90.6328C99.5508 90.6875 99.6211 90.7148 99.7617 90.7148L99.8086 90.7617V90.7969L99.5156 90.8906L99.4219 90.7148L99 90.7969V90.7148L99.5156 90.5859ZM108.48 90.6328H108.516L108.609 90.7148H108.48V90.6328ZM95.0156 90.6797H95.0977L95.1797 90.7617V90.7969L95.0977 90.8906H95.0508L94.9219 90.7617L95.0156 90.6797ZM95.9414 90.8906L96.0703 91.0195L95.9883 91.1016H95.9414L95.8594 91.0195V90.9727L95.9414 90.8906ZM95.4375 90.9258L95.5195 91.0195L95.4375 91.1016L95.3555 90.9727L95.3906 90.9258H95.4375ZM96.457 91.0547H96.5039C96.457 91.1719 96.4141 91.2305 96.375 91.2305L96.3281 91.1836V91.1367L96.457 91.0547ZM97.0078 91.1016C97.1484 91.1406 97.2188 91.2383 97.2188 91.3945H97.1367V91.3125C97.0508 91.3125 97.0078 91.2852 97.0078 91.2305V91.1016ZM101.848 91.1016H101.895L101.977 91.1836V91.2305L101.895 91.3125H101.848L101.766 91.2305V91.1836L101.848 91.1016ZM94.9688 91.3125H95.0508L95.0156 91.5234V91.6055L95.2617 91.6992V91.7812L94.9219 91.8633H94.8867L94.8047 91.7812L94.8867 91.6992L94.7109 91.6523V91.5703C94.7109 91.5078 94.7812 91.4766 94.9219 91.4766L94.9688 91.3125ZM97.8633 91.3125H97.9453V91.3945L97.8633 91.4766H97.7695V91.3945L97.8633 91.3125ZM101.121 91.3125C101.121 91.3594 101.223 91.4141 101.426 91.4766V91.6055C101.426 91.6523 101.312 91.7383 101.086 91.8633C100.797 91.6367 100.652 91.4961 100.652 91.4414C100.77 91.3555 100.926 91.3125 101.121 91.3125ZM98.625 91.4414L98.707 91.5234L98.6719 91.5703H98.5781L98.4961 91.4766L98.543 91.4414H98.625ZM100.102 91.6992C100.125 91.7773 100.238 91.8164 100.441 91.8164L100.535 92.0391L100.277 92.1211C100.168 91.918 100.055 91.8164 99.9375 91.8164L99.6797 91.8633L99.4219 91.8164C99.1328 91.8477 98.9531 91.9062 98.8828 91.9922H98.7891V91.9102C98.7891 91.8008 99.2266 91.7305 100.102 91.6992ZM95.4844 91.9102H95.6016V91.9453L95.5195 92.0391L95.4844 91.9922V91.9102ZM101.344 92.0742L101.426 92.1562L101.379 92.2031H101.344L101.25 92.1211L101.297 92.0742H101.344ZM99.5508 92.1211C99.7773 92.168 99.8906 92.2227 99.8906 92.2852V92.332L99.7617 92.4609H99.5977L99.4219 92.3789C99.4531 92.207 99.4961 92.1211 99.5508 92.1211ZM93.5625 92.1562L93.7852 92.2031L93.8203 92.1562L93.9492 92.4141L93.8672 92.4961L93.9023 92.625L93.6562 92.7188C93.5938 92.7188 93.5625 92.6758 93.5625 92.5898L93.6094 92.4609L93.4336 92.2852L93.5625 92.1562ZM95.1445 92.25H95.2266L95.3086 92.332V92.4141L95.2266 92.4961L95.1445 92.4141V92.25ZM97.4297 92.5898L97.5586 92.6719H97.6523L97.7344 92.5898L97.6875 92.4609C97.5156 92.4766 97.4297 92.5195 97.4297 92.5898ZM98.8828 92.4141H99L99.1289 92.543L99 92.625C98.9375 92.625 98.8984 92.5547 98.8828 92.4141ZM94.1602 92.6719L94.207 92.7188V92.8008L94.0781 92.7539L94.1602 92.6719ZM101.039 92.8359C101.039 92.9062 101.152 92.9492 101.379 92.9648L101.508 92.9297L101.766 93.2227L101.637 93.3516C101.543 93.3516 101.43 93.293 101.297 93.1758C101.297 93.2617 101.238 93.3047 101.121 93.3047C100.871 93.2891 100.746 93.2461 100.746 93.1758C100.801 93.1758 100.828 93.0938 100.828 92.9297L101.039 92.8359ZM98.9648 92.9297C99.1055 92.9609 99.1758 93.0039 99.1758 93.0586V93.0938H99.082L98.9648 92.9648V92.9297ZM94.6758 93.0117L94.9219 93.0938V93.1758C94.7266 93.1523 94.6289 93.1133 94.6289 93.0586L94.6758 93.0117ZM94.7109 93.2695C94.7734 93.2695 94.8047 93.3242 94.8047 93.4336C94.9141 93.4336 94.9688 93.4609 94.9688 93.5156L94.8867 93.6094C94.8867 93.5469 94.7852 93.4883 94.582 93.4336V93.3984L94.7109 93.2695ZM95.1797 93.3047L95.1445 93.4336H95.2266L95.3555 93.3984L95.2617 93.3047H95.1797ZM101.215 93.3984H101.25L101.379 93.5156L101.25 93.6914H101.215C101.145 93.6914 101.102 93.6211 101.086 93.4805L101.215 93.3984ZM93.9023 93.4336L93.9961 93.5156L93.8672 93.6094L93.7852 93.5156L93.9023 93.4336ZM95.0156 93.8555L95.0977 93.9492L95.0156 94.2891L95.0508 94.3242H95.0977L95.4375 94.1953L95.3086 94.0312L95.3555 93.7734L95.2617 93.6445C95.1445 93.6836 95.0625 93.7539 95.0156 93.8555ZM101.555 93.7383H101.637L101.848 93.9492L101.801 93.9844H101.59L101.461 93.8555V93.8203L101.555 93.7383ZM93.8672 93.9023H93.9023L93.9961 93.9844V94.0312L93.9023 94.1133H93.8672L93.7852 94.0312V93.9844L93.8672 93.9023ZM101.297 94.1953H101.344L101.426 94.2891L101.379 94.3242H101.344L101.297 94.2891V94.1953ZM94.5 94.5352H94.6289L94.5469 94.6289H94.418L94.5 94.5352ZM96.1992 94.793L96.3281 94.9219V94.8867L96.2461 94.793H96.1992ZM95.5664 94.793L95.6484 94.8867L95.6016 94.9219H95.5195L95.4375 94.8398L95.4844 94.793H95.5664ZM94.9219 94.8398L95.0156 94.9219L94.9688 94.9688H94.8867L94.8047 94.8867L94.8398 94.8398H94.9219ZM95.3555 95.0508L95.4844 95.2266C95.625 95.2344 95.6953 95.2734 95.6953 95.3438L95.4844 95.5195H95.1797L95.0977 95.4375L95.2617 95.3438V95.3086C95.1523 95.3086 95.0977 95.2812 95.0977 95.2266C95.1523 95.2266 95.1797 95.1836 95.1797 95.0977L95.2266 95.0508H95.3555ZM96.4102 95.2266H96.457L96.6211 95.3906V95.4375L96.4102 95.2266ZM103.547 95.3906L103.594 95.4375V95.4727L103.547 95.5195H103.383L103.547 95.3906ZM103.805 96.832H103.934V96.9258H103.805V96.832ZM95.5195 97.8984H95.6484C95.7188 97.8984 95.7773 98.0273 95.8242 98.2852C95.7695 98.2852 95.7266 98.2109 95.6953 98.0625C95.5234 98.0625 95.4375 98.0352 95.4375 97.9805L95.5195 97.8984ZM96.9258 97.8984H97.0898L97.2188 98.0273V98.1094L97.1836 98.1562V98.1914L97.3945 98.3203H97.4297V98.4492L97.3477 98.5312C97.3086 98.3672 97.2656 98.2852 97.2188 98.2852H97.1836L97.0547 98.3672C96.8828 98.2344 96.7969 98.1055 96.7969 97.9805L96.9258 97.8984ZM95.8594 98.3203H95.9062L96.0352 98.4492H95.9414L95.8594 98.3672V98.3203ZM96.0352 98.4492H96.1172L96.5391 98.7422V98.8359H96.5859L96.8438 98.707C96.8438 98.7539 96.9258 98.8086 97.0898 98.8711V98.9648C97.0039 99.2695 96.9219 99.4219 96.8438 99.4219H96.668L96.6211 99.3867H96.5859L96.5391 99.4219V99.7266H96.4102L96.3281 99.6445L96.5039 99.4219L96.4102 99.3047V99.082L96.5039 98.9648V98.8711L96.0352 98.4492ZM109.16 102.445L109.242 102.574L109.195 102.609H109.16L109.066 102.527L109.16 102.445ZM108.902 102.785H108.949L109.031 102.867V102.949C109.031 103.027 108.805 103.102 108.352 103.172L108.141 103.078C108.094 103.195 107.992 103.254 107.836 103.254C107.836 103.098 108.051 102.996 108.48 102.949C108.566 102.84 108.707 102.785 108.902 102.785ZM107.121 103.207H107.367C107.484 103.27 107.543 103.34 107.543 103.418L107.707 103.289H107.801L107.672 103.512L107.801 103.887L107.543 104.016C107.316 104 107.203 103.957 107.203 103.887L107.156 103.934H107.074L106.91 103.676V103.629L106.992 103.465L106.945 103.336L107.121 103.207ZM104.062 103.723H104.145L104.18 103.887L104.062 103.758V103.723ZM95.5664 103.758L95.6016 103.805V103.887L95.5195 103.969L95.4844 103.805L95.5195 103.758H95.5664ZM96.9258 105.293L97.0898 105.422V105.164L96.9258 105.293ZM101.801 105.117H101.848V105.211H101.719L101.801 105.117ZM97.0078 105.633L96.9609 105.797L97.0078 105.844H97.0547V105.633H97.0078ZM102.82 105.762L102.867 105.797V105.844L102.785 105.926H102.738L102.656 105.844V105.797L102.82 105.762ZM97.0547 105.973C97.1328 106.168 97.2461 106.266 97.3945 106.266V106.137C97.3945 106.059 97.2812 106.004 97.0547 105.973ZM95.7773 106.02V106.055L95.2617 106.734L95.1797 106.652L95.7773 106.02ZM100.066 106.055H100.195L100.102 106.137L100.066 106.102V106.055ZM101.684 106.57L101.93 106.605H102.188L102.363 106.699V106.816C102.262 106.988 102.133 107.074 101.977 107.074L101.848 106.945L101.719 106.992L101.344 106.652L101.684 106.57ZM99.7266 106.781L99.8086 106.863L99.7266 106.992L100.23 107.285L100.102 107.496V107.543H100.02L99.9375 107.461L99.9727 107.414V107.379L99.5977 106.992C99.6602 106.992 99.7031 106.922 99.7266 106.781ZM98.707 107.203H98.7539L98.8359 107.285V107.332H98.707V107.203ZM97.1836 107.332H97.3945L97.3008 107.414H97.1836V107.332ZM97.8164 107.754L97.8633 107.801V107.836L97.8164 107.883H97.7695L97.7344 107.836V107.801L97.7695 107.754H97.8164ZM99.4688 108.457L99.5508 108.551L99.4688 108.633L99.3867 108.504L99.4219 108.457H99.4688ZM99.8555 108.457H99.9375L100.02 108.551L99.9727 108.586H99.9375L99.8555 108.457ZM100.277 109.102H100.312C100.469 109.102 100.57 109.156 100.617 109.266L100.535 109.359H100.359L100.195 109.184L100.277 109.102Z" fill="white"/>
<g clip-path="url(#clip0_14_306)">
<rect x="28" y="117" width="85" height="85" fill="#0F104C" fill-opacity="0.5"/>
<path d="M28.2 185.2H44.8V201.8H28.2V185.2Z" stroke="#5F0D16" stroke-width="0.4"/>
<path d="M28.2 168.2H44.8V184.8H28.2V168.2Z" stroke="#5F0D16" stroke-width="0.4"/>
<path d="M28.2 151.2H44.8V167.8H28.2V151.2Z" stroke="#5F0D16" stroke-width="0.4"/>
<path d="M28.2 134.2H44.8V150.8H28.2V134.2Z" fill="white"/>
<path d="M28.2 134.2H44.8V150.8H28.2V134.2Z" stroke="#5F0D16" stroke-width="0.4"/>
<path d="M28.2 117.2H44.8V133.8H28.2V117.2Z" stroke="#5F0D16" stroke-width="0.4"/>
<path d="M45.2 185.2H61.8V201.8H45.2V185.2Z" stroke="#5F0D16" stroke-width="0.4"/>
<path d="M45.2 168.2H61.8V184.8H45.2V168.2Z" fill="white"/>
<path d="M45.2 168.2H61.8V184.8H45.2V168.2Z" stroke="#5F0D16" stroke-width="0.4"/>
<path d="M45.2 151.2H61.8V167.8H45.2V151.2Z" stroke="#5F0D16" stroke-width="0.4"/>
<path d="M45.2 134.2H61.8V150.8H45.2V134.2Z" stroke="#5F0D16" stroke-width="0.4"/>
<path d="M45.2 117.2H61.8V133.8H45.2V117.2Z" stroke="#5F0D16" stroke-width="0.4"/>
<path d="M62.2 185.2H78.8V201.8H62.2V185.2Z" stroke="#5F0D16" stroke-width="0.4"/>
<path d="M62.2 168.2H78.8V184.8H62.2V168.2Z" stroke="#5F0D16" stroke-width="0.4"/>
<path d="M62.2 151.2H78.8V167.8H62.2V151.2Z" fill="#EB1E1E"/>
<path d="M62.2 151.2H78.8V167.8H62.2V151.2Z" stroke="#5F0D16" stroke-width="0.4"/>
<path d="M62.2 134.2H78.8V150.8H62.2V134.2Z" stroke="#5F0D16" stroke-width="0.4"/>
<path d="M62.2 117.2H78.8V133.8H62.2V117.2Z" stroke="#5F0D16" stroke-width="0.4"/>
<path d="M79.2 185.2H95.8V201.8H79.2V185.2Z" stroke="#5F0D16" stroke-width="0.4"/>
<path d="M79.2 168.2H95.8V184.8H79.2V168.2Z" fill="white"/>
<path d="M79.2 168.2H95.8V184.8H79.2V168.2Z" stroke="#5F0D16" stroke-width="0.4"/>
<path d="M79.2 151.2H95.8V167.8H79.2V151.2Z" stroke="#5F0D16" stroke-width="0.4"/>
<path d="M79.2 134.2H95.8V150.8H79.2V134.2Z" stroke="#5F0D16" stroke-width="0.4"/>
<path d="M79.2 117.2H95.8V133.8H79.2V117.2Z" stroke="#5F0D16" stroke-width="0.4"/>
<path d="M96.2 185.2H112.8V201.8H96.2V185.2Z" stroke="#5F0D16" stroke-width="0.4"/>
<path d="M96.2 168.2H112.8V184.8H96.2V168.2Z" stroke="#5F0D16" stroke-width="0.4"/>
<path d="M96.2 151.2H112.8V167.8H96.2V151.2Z" stroke="#5F0D16" stroke-width="0.4"/>
<path d="M96.2 134.2H112.8V150.8H96.2V134.2Z" fill="white"/>
<path d="M96.2 134.2H112.8V150.8H96.2V134.2Z" stroke="#5F0D16" stroke-width="0.4"/>
<path d="M96.2 117.2H112.8V133.8H96.2V117.2Z" stroke="#5F0D16" stroke-width="0.4"/>
</g>
<rect x="28.5" y="117.5" width="84" height="84" stroke="url(#paint1_linear_14_306)"/>
<defs>
<linearGradient id="paint0_linear_14_306" x1="70.5" y1="17" x2="70.5" y2="83" gradientUnits="userSpaceOnUse">
<stop stop-color="#123BD5"/>
<stop offset="1" stop-color="#CD2237"/>
</linearGradient>
<linearGradient id="paint1_linear_14_306" x1="31.7979" y1="120.436" x2="138.59" y2="226.777" gradientUnits="userSpaceOnUse">
<stop stop-color="#B17BFF"/>
<stop offset="1" stop-color="#FF0751"/>
</linearGradient>
<clipPath id="clip0_14_306">
<rect x="28" y="117" width="85" height="85" fill="white"/>
</clipPath>
</defs>
</svg>
