<svg width="142" height="218" viewBox="0 0 142 218" fill="none" xmlns="http://www.w3.org/2000/svg">
<rect x="0.5" y="0.5" width="141" height="217" rx="4.5" fill="#191515"/>
<rect x="0.5" y="0.5" width="141" height="217" rx="4.5" stroke="#B17BFF"/>
<path d="M41.34 88.48C40.71 88.12 40.17 87.67 39.72 87.04C39.27 86.41 38.73 85.78 38.28 85.24V84.88L37.74 84.7C37.65 84.07 37.47 83.71 37.29 83.26C37.11 82.81 36.84 82.45 36.48 82L33.96 80.65C33.69 80.02 33.33 79.39 32.79 78.94C32.16 78.49 31.71 77.95 31.26 77.32V76.96H31.35C32.07 77.32 32.79 77.68 33.51 77.95C34.14 78.22 34.86 78.4 35.58 78.4L36.48 78.22C37.2 78.58 37.92 78.94 38.64 79.39C39.45 79.84 40.17 80.2 40.89 80.83C41.61 81.82 42.15 82.9 42.51 83.98C42.87 85.06 43.14 86.14 43.41 87.31L42.96 88.12L41.34 88.48ZM108.48 87.76L106.86 87.49L106.32 87.67C101.82 87.04 97.32 86.32 93 85.51C88.59 84.61 84.63 82.54 81.21 79.3V78.94C80.94 78.94 80.58 78.76 80.31 78.31C79.95 77.86 79.68 77.77 79.32 77.86L77.97 78.4V78.76C76.44 79.57 74.91 80.2 73.2 80.74C71.58 81.28 69.78 81.73 68.07 82L65.1 81.91V81.73C67.17 81.01 69.15 80.11 71.13 79.12C73.02 78.04 74.91 76.78 76.62 75.34L76.8 74.8C75.36 73.27 73.74 71.83 72.3 70.3C70.68 68.86 68.97 67.6 67.26 66.43L66.36 66.07V65.89H67.08V65.44H67.62C68.07 65.98 68.61 66.25 69.15 66.16C69.78 66.07 70.41 66.16 71.04 66.25L71.67 66.07C73.11 66.52 74.55 67.24 75.9 68.05C77.16 68.86 78.42 69.67 79.77 70.48C80.4 69.13 80.94 67.78 81.21 66.25C81.48 64.81 81.66 63.28 81.75 61.66L81.57 61.3H80.94V61.48H80.76L79.95 61.39C79.05 61.84 78.06 62.38 77.07 62.83C76.17 63.28 75.18 64 74.19 64.81L74.37 64.27H74.01C73.74 64.63 73.38 64.9 73.02 65.08C72.66 65.35 72.3 65.53 71.67 65.53H72.03L72.39 64.99C72.12 64.99 71.94 64.99 71.85 64.9C71.67 64.81 71.49 64.72 71.4 64.45L71.04 61.3L70.41 60.94L70.14 60.04L72.66 59.14L74.37 60.04C75.72 59.32 76.98 58.78 78.33 58.42C79.68 58.15 80.94 57.88 82.38 57.61V57.34H83.1L83.46 54.55H83.91C84.72 55 85.62 55.45 86.52 55.9C87.33 56.35 88.14 56.71 89.04 56.8L89.22 57.97L88.5 59.68C88.23 59.59 87.96 59.59 87.69 59.77C87.42 59.95 87.24 60.13 86.97 60.22C86.16 62.2 85.44 64.27 84.72 66.43C83.91 68.68 83.19 70.66 82.2 72.55C86.52 77.05 91.56 80.11 97.41 81.46C103.08 82.99 108.75 84.79 114.24 87.13V87.67H111.81L109.29 87.49L108.48 87.76ZM48.45 83.98L47.64 83.71L47.1 82.54C46.83 82.45 46.56 82.18 46.47 81.73C46.29 81.37 46.11 81.01 45.84 80.65C45.75 79.93 45.57 79.12 45.39 78.31C45.12 77.5 44.85 76.78 44.49 76.15L44.04 75.79L41.52 72.37H41.88L45.39 73.72L45.84 73.54L48.09 75.34L48.27 75.79L48.81 75.97C49.26 76.33 49.53 76.87 49.71 77.5C49.89 78.13 49.98 78.76 50.07 79.39L49.8 83.17H49.44V83.89L48.45 83.98ZM52.86 76.33C51.78 75.79 50.97 74.8 50.52 73.45C49.98 72.19 49.26 71.2 48.09 70.48V70.21H48.99C49.8 70.66 50.7 70.93 51.69 71.02C52.68 71.11 53.49 71.65 54.03 72.55C54.3 72.82 54.39 73.18 54.39 73.63C54.39 74.08 54.39 74.53 54.39 74.98L53.85 75.16V75.34H53.67L53.4 75.79L52.86 76.15L53.04 76.33H52.86ZM58.44 74.26V74.08L56.91 72.55L56.19 72.28L55.2 70.84H54.84C54.66 70.3 54.39 69.76 54.03 69.13C53.67 68.68 53.31 68.14 52.86 67.51H53.58C54.39 67.96 55.38 68.32 56.55 68.41C57.63 68.5 58.62 68.77 59.61 69.13V69.49H59.79V69.67L59.52 70.21L60.24 70.66V72.1L59.34 72.28L59.16 72.64H58.98L58.17 72.37L57.99 72.82L58.8 74.08L58.44 74.26ZM44.85 65.53C44.04 63.55 43.23 61.39 42.51 59.23C41.88 57.16 40.98 55.09 39.81 53.2C39.27 52.93 38.73 52.75 38.19 52.48C37.56 52.21 37.02 51.85 36.66 51.4C36.03 50.59 35.4 49.87 34.86 49.06C34.23 48.34 33.78 47.53 33.69 46.54H33.87L36.66 48.16V47.98H36.84C37.83 48.25 38.73 48.52 39.72 48.7C40.71 48.88 41.61 49.24 42.42 49.87L42.6 50.32H42.96L43.23 50.86H44.22L47.64 49.15L47.82 45.19L47.46 42.4H47.1C46.83 42.67 46.47 42.94 46.11 43.21C45.66 43.48 45.12 43.75 44.67 44.02L43.77 46.27L42.96 46.36L42.15 43.48H41.88L41.34 40.87L42.15 40.69V39.97H42.6V40.33H43.59C43.86 39.88 44.31 39.61 44.76 39.52C45.21 39.43 45.66 39.34 46.11 39.07C46.74 37.27 47.46 35.47 48.09 33.67C48.72 31.87 49.17 29.98 49.44 27.82H48.99L48.63 29.08V28.9H47.64C46.11 29.89 45.03 31.15 44.22 32.59C43.41 34.21 42.51 35.65 41.52 37.09C40.89 37.54 40.35 37.9 39.81 38.17C39.27 38.44 38.64 38.62 38.1 38.62L37.38 38.44V37.81C39 35.2 40.62 32.59 42.33 30.07C43.86 27.55 44.67 24.49 44.67 21.25L44.31 19.99L44.49 19.63H45.84C46.2 19.9 46.56 20.08 47.01 20.08C47.46 20.17 47.82 20.26 48.27 20.26V19.99H48.63V20.26C49.26 20.71 49.89 21.16 50.52 21.7C51.15 22.24 51.87 22.42 52.68 22.33L53.22 22.15L53.67 22.33L54.39 21.97C54.93 22.33 55.56 22.51 56.28 22.6C56.91 22.69 57.36 22.96 57.81 23.41L58.35 24.76L57.45 25.3V25.66L56.19 27.1H55.83L53.85 31.06C52.95 31.87 52.05 32.95 51.33 34.21C50.52 35.38 49.8 36.46 48.81 37.45H49.08C50.52 36.73 52.05 36.28 53.58 36.01C55.02 35.74 56.55 35.38 57.81 35.02L57.99 34.57H58.44C58.89 34.75 59.43 34.84 60.06 34.93C60.69 35.02 61.14 35.11 61.77 35.11L62.22 35.02C62.85 35.38 63.66 35.65 64.47 35.74C65.19 35.83 65.91 36.1 66.54 36.55L66.81 38.08L66.54 38.89L66 39.07V39.43C65.28 39.88 64.74 40.33 64.11 40.78C63.48 41.23 62.94 41.77 62.4 42.4L62.22 43.66C62.85 44.38 63.3 45.01 63.75 45.64C64.2 46.27 64.83 46.81 65.55 47.26C66.18 47.53 66.9 47.8 67.53 48.16C68.16 48.61 68.7 49.06 69.33 49.51L70.41 51.04H70.68L71.58 49.51H71.85L72.75 50.86L73.38 52.3H75L76.62 51.85V51.58L76.35 48.16L76.44 47.62L76.26 44.92H75.99L75.45 43.48C75.09 43.57 74.73 43.57 74.46 43.39C74.19 43.21 73.83 43.03 73.56 42.94V42.85C76.35 42.31 79.23 41.59 82.02 40.6C84.72 39.7 87.6 39.25 90.66 39.25L92.82 39.43L93.9 39.07V38.89H94.53L95.88 39.61V39.25H96.24L97.59 39.61L98.67 40.69L100.74 41.68L100.92 42.85L98.67 44.02L98.31 44.74L96.6 46.09L96.42 46.9L95.88 47.08C95.43 47.98 95.16 48.97 95.07 49.96C94.98 50.86 94.62 51.76 93.99 52.48L92.64 53.2L90.39 51.04V50.32C90.66 49.96 90.93 49.42 91.11 48.97C91.2 48.52 91.29 48.07 91.29 47.44C91.2 46.45 91.11 45.64 91.02 44.65C90.93 43.75 90.66 42.94 90.39 42.22C89.85 41.95 89.4 41.77 88.95 41.68C88.5 41.59 88.05 41.59 87.51 41.68L85.98 42.58V42.85L86.79 43.48V44.02C86.7 44.92 86.52 45.82 86.43 46.54C86.25 47.35 85.98 48.16 85.71 48.97H85.98L89.58 48.16V48.61L86.97 51.22C84.54 52.66 82.02 53.74 79.32 54.46C76.53 55.27 73.92 56.17 71.4 57.16L71.04 58.33H70.41C69.24 57.25 68.52 55.9 67.89 54.46C67.26 53.2 66.27 52.03 64.92 51.04L64.2 50.68L61.77 46.09L61.23 45.91C60.6 48.61 60.06 51.4 59.79 54.19C59.52 57.16 59.16 59.95 58.8 62.65L57.36 63.01L56.19 60.76L55.56 60.58L53.58 61.84V62.11C52.23 63.1 50.79 63.82 49.35 64.36C47.82 64.9 46.29 65.26 44.85 65.53ZM46.83 59.86C47.28 58.96 47.46 57.88 47.46 56.8C47.46 55.63 47.55 54.55 47.64 53.56L47.01 53.38C46.74 53.65 46.29 53.74 45.93 53.74C45.48 53.74 44.94 53.74 44.49 53.74V55.72L44.85 59.32L46.65 60.04L46.83 59.86ZM54.84 57.97V57.34L54.75 55.9L56.19 53.74L56.01 52.84H56.19V52.48C56.64 51.4 56.91 50.14 57 48.79C57.09 47.44 57.09 46.09 57.09 44.74L56.46 40.69H55.38V40.33H56.01V39.79L55.38 38.44H54.75C53.76 38.71 52.95 38.89 52.05 39.25C51.06 39.61 50.16 40.06 49.44 40.51L49.26 41.23L50.07 41.41V41.23H50.25C50.88 41.86 51.24 42.58 51.33 43.57C51.42 44.56 51.42 45.55 51.42 46.54L51.24 47.8L52.23 47.98L54.21 47.62L54.57 49.15L53.67 49.87V50.32H53.85L50.61 52.12C50.34 53.47 50.16 54.64 49.89 55.9C49.71 57.25 49.44 58.42 49.08 59.68H49.89L54.84 57.97ZM81.57 50.14C82.02 49.42 82.29 48.52 82.47 47.53C82.65 46.63 82.65 45.73 82.56 44.74L81.39 44.02L79.77 44.38V44.74L79.86 45.19H80.4V45.73C79.95 46.63 79.68 47.53 79.5 48.43C79.23 49.42 78.96 50.23 78.51 51.22H79.14L81.57 50.14ZM74.55 40.51C73.65 39.16 73.02 37.81 72.75 36.28C72.48 34.84 72.03 33.31 71.4 31.96C70.05 30.88 68.79 29.62 67.8 28.09C66.72 26.74 65.64 25.39 64.65 24.04H64.92C66.63 24.85 68.25 25.75 69.78 26.56C71.4 27.37 72.84 28.27 74.37 29.44V29.8L74.91 29.98C75.54 30.79 75.9 31.6 76.08 32.5C76.17 33.49 76.26 34.39 76.35 35.11L77.97 35.47C78.96 35.2 79.95 35.11 81.03 35.11C82.02 35.02 83.1 35.02 84.09 35.02V35.29L83.46 36.37L83.1 36.55V36.91C82.47 37.36 81.75 37.72 80.94 37.81C80.13 37.9 79.5 37.99 78.78 38.08L76.8 37.99L76.26 38.26L76.17 38.8L76.26 39.25C76.08 39.52 75.81 39.79 75.54 40.06C75.18 40.33 74.82 40.51 74.55 40.51ZM86.34 37.81C85.89 36.82 85.53 35.92 85.17 35.11C84.72 34.21 84.36 33.31 84.09 32.32C84.54 31.69 84.81 31.15 85.08 30.43C85.26 29.8 85.35 28.99 85.35 28.18L85.17 27.46H84.72L83.64 28.36H83.37V28.72C82.56 29.35 81.75 29.8 80.94 30.16C80.04 30.52 79.14 30.7 78.15 30.7L76.44 30.16L76.26 28.9H75.99L75.45 28V27.82C76.98 27.64 78.6 27.37 80.04 26.74C81.57 26.11 83.37 25.93 85.17 26.02V25.12L84.45 24.67V24.22L83.46 23.77L83.37 21.25H83.1L78.15 24.04C78.06 24.31 77.88 24.49 77.7 24.49C77.43 24.49 77.16 24.49 76.8 24.49L76.17 21.43L75.81 21.25L75 19.27C75.63 19.27 76.17 19.09 76.44 18.82C76.8 18.55 77.25 18.28 77.79 18.19L78.33 18.91H78.78C80.04 18.28 81.48 17.74 82.92 17.29C84.27 16.84 85.71 16.66 87.24 16.66L87.51 15.85H88.05V15.67H88.5C89.31 16.39 90.3 16.75 91.29 17.02C92.28 17.29 93.27 17.74 94.17 18.37L94.53 19.81L93.72 20.62C93.27 20.71 92.82 20.8 92.37 20.8C91.92 20.89 91.47 21.16 91.11 21.61C89.94 23.59 89.13 25.66 88.86 28C88.5 30.43 88.14 32.77 87.69 35.02L87.87 36.01L86.79 37.81H86.34Z" fill="url(#paint0_linear_14_729)"/>
<path d="M59.0859 91.9102H59.1797L59.2852 92.2617H59.4258V92.1562H59.4844L59.5312 92.2148H59.5781L59.6836 92.1094L59.7305 92.1562L59.8359 92.0625H59.8828L59.8359 92.1094L59.8828 92.3086H59.9297L60.082 92.2148L60.0352 92.4609V92.5078L60.082 92.4609H60.1758C60.1758 92.6641 60.3281 92.7656 60.6328 92.7656C60.9219 92.2266 61.1875 91.957 61.4297 91.957L61.7344 92.0625L62.0273 92.0156H62.1328L62.3789 92.2617V92.3086L61.9805 92.5547L61.9336 92.8125L62.0859 92.9062L62.4375 92.7656C62.4375 92.9297 62.4688 93.0117 62.5312 93.0117L62.332 93.4102L62.3789 93.457V93.6562L62.2266 93.8555L62.2852 93.9141V93.9609C62.0508 93.9609 61.9336 94.0625 61.9336 94.2656L61.2773 94.5586V94.6055H61.1836C61.1836 94.4727 61.1328 94.4062 61.0312 94.4062C60.8438 94.5391 60.6758 94.6055 60.5273 94.6055L59.9297 94.2656V94.207H59.6367L59.4258 94.5117H59.3789V94.4648L59.4844 94.1602C59.1953 94.1602 58.7422 94.0117 58.125 93.7148L57.4805 93.5625H57.4336L56.9297 93.7148C56.7344 93.6133 56.5352 93.5625 56.332 93.5625C56.1289 93.8203 56.0273 94.0195 56.0273 94.1602H55.9805L55.875 94.0547L55.8281 94.1133H55.7344C55.5 94.1133 55.3828 94.0781 55.3828 94.0078C55.2266 94.0078 55.0273 94.2578 54.7852 94.7578L54.8789 95.3555V95.7656L54.7852 95.9062V96.0117C54.8477 96.0742 54.8789 96.2227 54.8789 96.457C54.9336 96.457 55.1328 96.8906 55.4766 97.7578C55.5312 97.7578 55.6328 97.9258 55.7812 98.2617C55.9219 98.2617 56.0547 98.4102 56.1797 98.707V98.9062L56.4258 99.9609L56.3789 100.113H56.4844C57.2344 99.5898 57.6836 99.2383 57.832 99.0586C57.9883 99.0586 58.1211 98.9766 58.2305 98.8125C57.5664 98.5703 57.1172 98.3203 56.8828 98.0625H56.9297C57.2578 98.2734 57.625 98.457 58.0312 98.6133L58.3359 98.5664H58.3828C58.4453 98.5664 58.4766 98.6133 58.4766 98.707H58.5352C58.6211 98.4727 58.7031 98.3555 58.7812 98.3555H58.875L59.0859 98.6133L59.332 98.6602L59.3789 98.6133H59.4258L59.8359 98.6602L59.8828 98.6133V98.5664L60.2344 98.6133C60.7344 98.4102 61.082 98.3086 61.2773 98.3086C61.2773 98.1914 61.4609 98.1094 61.8281 98.0625L61.9336 98.1562L60.3867 99.1641L60.5273 99.4102L60.4805 99.5625L60.5273 99.6094V99.6562C60.3477 99.8672 60.1992 100.117 60.082 100.406L60.1289 100.465H60.1758L60.1289 100.816L60.1758 101.062C60.1758 101.352 60.0625 101.617 59.8359 101.859C59.7578 101.859 59.707 101.742 59.6836 101.508C59.7383 101.508 59.8047 101.391 59.8828 101.156L59.8359 100.957H59.8828L59.8359 100.91V100.605C59.6875 100.605 59.5508 100.559 59.4258 100.465L59.1328 100.816C58.9922 100.77 58.8906 100.684 58.8281 100.559L59.0273 100.465L58.9336 100.207H58.7344C58.6172 100.207 58.5 100.16 58.3828 100.066H58.0781L57.9258 100.16H57.7266L57.6797 100.113C57.0469 100.316 56.7305 100.465 56.7305 100.559L56.5781 101.062L56.6836 101.508L56.625 101.965C56.8359 102.293 56.9727 102.457 57.0352 102.457C57.1289 102.457 57.1758 102.391 57.1758 102.258H57.3281V101.965H57.4336C57.4336 102.129 57.4648 102.211 57.5273 102.211L57.5859 102.164L57.7266 102.211L57.7852 102.164H57.832L57.9844 102.211V102.059H58.0781C58.0781 102.16 58.1133 102.211 58.1836 102.211L58.2305 102.164H58.2773L58.3359 102.211V102.105H58.4297V102.211L58.4766 102.164L58.8281 102.316L58.9805 102.258V102.316L58.9336 102.363V102.41H59.0859V102.316H59.1797L59.1328 102.562H59.1797L59.1328 102.609V102.656L59.2266 102.961H59.2852L59.6836 102.855L59.7305 102.914L59.9766 102.715H60.3281L60.5273 102.656C60.9648 102.766 61.2656 102.949 61.4297 103.207H61.4766L61.6758 103.16L61.8867 103.266L62.6836 103.008L63.082 103.16L63.3867 102.961H63.9844L64.1367 102.855H64.6875C65.1641 102.723 65.5625 102.656 65.8828 102.656H65.9297C66.1328 102.594 66.2344 102.48 66.2344 102.316L66.2812 102.258H66.3281C66.3281 102.32 66.4297 102.406 66.6328 102.516H66.832L66.9844 102.41H67.3828C67.9609 102.27 68.4102 102.121 68.7305 101.965H69.1875L69.3281 101.859L69.4336 101.965V102.012C69.4336 102.098 68.9688 102.266 68.0391 102.516L66.9375 103.16C65.6328 103.27 64.9805 103.418 64.9805 103.605C64.4648 103.715 63.8164 104.219 63.0352 105.117C63.0352 105.477 62.7344 105.656 62.1328 105.656C61.9062 105.961 61.6211 106.113 61.2773 106.113H60.1289C59.9492 105.98 59.7656 105.914 59.5781 105.914L59.332 105.961C59.332 105.805 58.9297 105.656 58.125 105.516H58.0312L57.5273 105.867V105.914H57.7852L58.0781 105.809C58.5 105.809 58.8828 105.941 59.2266 106.207V106.617L58.9336 107.508L58.2773 107.613V107.859L58.125 108L57.4336 107.906H57.082C56.9336 107.766 56.7148 107.633 56.4258 107.508C56.3867 107.422 56.2383 107.305 55.9805 107.156C55.8555 106.938 55.6875 106.789 55.4766 106.711C55.3047 106.367 55.1406 106.117 54.9844 105.961V105.867C55.1172 105.727 55.1836 105.359 55.1836 104.766L55.4766 104.414H55.6758L55.9336 104.613H55.9805V104.566L55.1836 103.863C55.1445 103.176 55.0117 102.293 54.7852 101.215L54.832 99.2578C54.6992 99.2578 54.5664 99.0078 54.4336 98.5078V97.9102C54.2383 97.4961 54.0391 96.9297 53.8359 96.2109L53.6836 96.0586L53.7891 95.9062C53.6953 95.9062 53.5625 95.7891 53.3906 95.5547C53.2891 95.5547 53.2031 95.4883 53.1328 95.3555L53.2852 95.0156L53.1797 94.8047L53.2383 94.6055L52.9805 94.2656L53.1328 94.1133C53.3047 94.1133 53.4375 94.3438 53.5312 94.8047L53.7305 94.9102L53.8828 94.7109L53.8359 94.6641V94.6055L53.9883 94.3594L53.8828 94.2656V94.0078L53.8359 93.2578H53.8828C53.8672 92.9141 53.5664 92.5156 52.9805 92.0625L53.0391 92.0156C53.2266 92.0156 53.5234 92.2969 53.9297 92.8594C54.0469 92.8594 54.1797 93.0273 54.3281 93.3633C54.4453 93.3633 54.5781 93.6797 54.7266 94.3125H54.7852C54.8711 93.875 55.0039 93.6562 55.1836 93.6562L55.3828 93.7617C55.5703 93.7617 55.8008 93.5781 56.0742 93.2109L56.332 93.1641L56.5312 93.2109C57.0156 93.0547 57.6172 92.9375 58.3359 92.8594C58.3672 92.7578 58.4648 92.707 58.6289 92.707C58.7617 92.7461 58.8281 92.8125 58.8281 92.9062H58.9336L59.0273 92.6133H58.875V92.5547L58.9336 92.5078L58.875 92.4609V92.3555H58.9805V92.3086C58.8477 92.3086 58.7812 92.2578 58.7812 92.1562H58.8281L59.1328 92.2148L59.0859 91.957V91.9102ZM56.2852 92.1562V92.2148L56.2266 92.3555H56.2852L56.3789 92.4609V92.5547H56.2852V92.6602L56.4258 92.707L56.625 92.6602V92.7656H56.2852L56.2266 92.707L55.9336 92.8125V92.7656C55.9336 92.5938 55.8672 92.5078 55.7344 92.5078V92.4141C55.9141 92.4141 56.0977 92.3281 56.2852 92.1562ZM57.2812 92.5547L57.375 92.6602C57.3594 92.7617 57.2266 92.8125 56.9766 92.8125L56.8828 92.707L56.8359 92.7656H56.7305V92.6602H57.1289L57.2812 92.5547ZM53.332 93.4102H53.4375C53.5156 93.4102 53.5664 93.4922 53.5898 93.6562L53.2852 93.8555H53.1797L53.0859 93.7617V93.6562L53.332 93.4102ZM52.7344 93.7617L52.7812 93.8086V93.8555L52.7344 93.9141H52.6875L52.6289 93.8555V93.8086L52.6875 93.7617H52.7344ZM56.332 97.8164C56.3945 97.8164 56.4258 97.8633 56.4258 97.957L56.3789 98.2148H56.332L56.2266 98.1094V97.9102L56.332 97.8164ZM62.8359 97.8633H62.9297L63.1875 97.9102V98.0156H63.1289C62.957 98.0156 62.8594 97.9648 62.8359 97.8633ZM56.2852 98.3086H56.3789V98.5078L56.2852 98.4141V98.3086ZM57.7266 101.156H57.832V101.309H57.7266V101.156ZM67.2773 101.461L67.3359 101.508V101.566L67.2773 101.613H67.2305L67.1836 101.566V101.508L67.2305 101.461H67.2773ZM66.4805 101.766L66.5859 101.859V101.965L66.3867 102.258H66.3281V102.059C66.3516 101.863 66.4023 101.766 66.4805 101.766ZM64.3828 102.105L64.4297 102.164H64.6289L64.6875 102.105H64.7344V102.211L64.5352 102.516H64.4297C64.3672 102.516 64.3359 102.465 64.3359 102.363L64.3828 102.105ZM56.7305 102.316V102.363L56.7773 102.562C56.7773 102.664 56.7109 102.715 56.5781 102.715V102.809H56.625L56.9297 102.609L56.7773 102.316H56.7305ZM59.7773 107.414H59.8359C59.9297 107.445 59.9766 107.543 59.9766 107.707L59.9297 107.766H59.7773L59.6367 107.613V107.566L59.7773 107.414ZM59.3789 107.508C59.457 107.508 59.5078 107.594 59.5312 107.766L59.3789 107.859H59.2852C59.1836 107.828 59.1328 107.73 59.1328 107.566L59.1797 107.508H59.3789ZM60.082 107.707L60.1289 107.766V107.812L60.082 107.859H60.0352L59.9766 107.812V107.766L60.0352 107.707H60.082ZM59.7773 107.812H59.8359C59.9062 107.812 59.9531 107.895 59.9766 108.059L59.8359 108.152H59.7773L59.6367 108L59.7773 107.812ZM59.2852 108.059L59.332 108.105V108.152L59.2852 108.211H59.1797V108.152L59.2852 108.059ZM58.9805 108.609H59.0273L59.1328 108.703L59.0859 108.762H58.9805V108.609ZM70.7812 91.9102H70.875L70.9805 92.2617H71.1211V92.1562H71.1797L71.2266 92.2148H71.2734L71.3789 92.1094L71.4258 92.1562L71.5312 92.0625H71.5781L71.5312 92.1094L71.5781 92.3086H71.625L71.7773 92.2148L71.7305 92.4609V92.5078L71.7773 92.4609H71.8711C71.8711 92.6641 72.0234 92.7656 72.3281 92.7656C72.6172 92.2266 72.8828 91.957 73.125 91.957L73.4297 92.0625L73.7227 92.0156H73.8281L74.0742 92.2617V92.3086L73.6758 92.5547L73.6289 92.8125L73.7812 92.9062L74.1328 92.7656C74.1328 92.9297 74.1641 93.0117 74.2266 93.0117L74.0273 93.4102L74.0742 93.457V93.6562L73.9219 93.8555L73.9805 93.9141V93.9609C73.7461 93.9609 73.6289 94.0625 73.6289 94.2656L72.9727 94.5586V94.6055H72.8789C72.8789 94.4727 72.8281 94.4062 72.7266 94.4062C72.5391 94.5391 72.3711 94.6055 72.2227 94.6055L71.625 94.2656V94.207H71.332L71.1211 94.5117H71.0742V94.4648L71.1797 94.1602C70.8906 94.1602 70.4375 94.0117 69.8203 93.7148L69.1758 93.5625H69.1289L68.625 93.7148C68.4297 93.6133 68.2305 93.5625 68.0273 93.5625C67.8242 93.8203 67.7227 94.0195 67.7227 94.1602H67.6758L67.5703 94.0547L67.5234 94.1133H67.4297C67.1953 94.1133 67.0781 94.0781 67.0781 94.0078C66.9219 94.0078 66.7227 94.2578 66.4805 94.7578L66.5742 95.3555V95.7656L66.4805 95.9062V96.0117C66.543 96.0742 66.5742 96.2227 66.5742 96.457C66.6289 96.457 66.8281 96.8906 67.1719 97.7578C67.2266 97.7578 67.3281 97.9258 67.4766 98.2617C67.6172 98.2617 67.75 98.4102 67.875 98.707V98.9062L68.1211 99.9609L68.0742 100.113H68.1797C68.9297 99.5898 69.3789 99.2383 69.5273 99.0586C69.6836 99.0586 69.8164 98.9766 69.9258 98.8125C69.2617 98.5703 68.8125 98.3203 68.5781 98.0625H68.625C68.9531 98.2734 69.3203 98.457 69.7266 98.6133L70.0312 98.5664H70.0781C70.1406 98.5664 70.1719 98.6133 70.1719 98.707H70.2305C70.3164 98.4727 70.3984 98.3555 70.4766 98.3555H70.5703L70.7812 98.6133L71.0273 98.6602L71.0742 98.6133H71.1211L71.5312 98.6602L71.5781 98.6133V98.5664L71.9297 98.6133C72.4297 98.4102 72.7773 98.3086 72.9727 98.3086C72.9727 98.1914 73.1562 98.1094 73.5234 98.0625L73.6289 98.1562L72.082 99.1641L72.2227 99.4102L72.1758 99.5625L72.2227 99.6094V99.6562C72.043 99.8672 71.8945 100.117 71.7773 100.406L71.8242 100.465H71.8711L71.8242 100.816L71.8711 101.062C71.8711 101.352 71.7578 101.617 71.5312 101.859C71.4531 101.859 71.4023 101.742 71.3789 101.508C71.4336 101.508 71.5 101.391 71.5781 101.156L71.5312 100.957H71.5781L71.5312 100.91V100.605C71.3828 100.605 71.2461 100.559 71.1211 100.465L70.8281 100.816C70.6875 100.77 70.5859 100.684 70.5234 100.559L70.7227 100.465L70.6289 100.207H70.4297C70.3125 100.207 70.1953 100.16 70.0781 100.066H69.7734L69.6211 100.16H69.4219L69.375 100.113C68.7422 100.316 68.4258 100.465 68.4258 100.559L68.2734 101.062L68.3789 101.508L68.3203 101.965C68.5312 102.293 68.668 102.457 68.7305 102.457C68.8242 102.457 68.8711 102.391 68.8711 102.258H69.0234V101.965H69.1289C69.1289 102.129 69.1602 102.211 69.2227 102.211L69.2812 102.164L69.4219 102.211L69.4805 102.164H69.5273L69.6797 102.211V102.059H69.7734C69.7734 102.16 69.8086 102.211 69.8789 102.211L69.9258 102.164H69.9727L70.0312 102.211V102.105H70.125V102.211L70.1719 102.164L70.5234 102.316L70.6758 102.258V102.316L70.6289 102.363V102.41H70.7812V102.316H70.875L70.8281 102.562H70.875L70.8281 102.609V102.656L70.9219 102.961H70.9805L71.3789 102.855L71.4258 102.914L71.6719 102.715H72.0234L72.2227 102.656C72.6602 102.766 72.9609 102.949 73.125 103.207H73.1719L73.3711 103.16L73.582 103.266L74.3789 103.008L74.7773 103.16L75.082 102.961H75.6797L75.832 102.855H76.3828C76.8594 102.723 77.2578 102.656 77.5781 102.656H77.625C77.8281 102.594 77.9297 102.48 77.9297 102.316L77.9766 102.258H78.0234C78.0234 102.32 78.125 102.406 78.3281 102.516H78.5273L78.6797 102.41H79.0781C79.6562 102.27 80.1055 102.121 80.4258 101.965H80.8828L81.0234 101.859L81.1289 101.965V102.012C81.1289 102.098 80.6641 102.266 79.7344 102.516L78.6328 103.16C77.3281 103.27 76.6758 103.418 76.6758 103.605C76.1602 103.715 75.5117 104.219 74.7305 105.117C74.7305 105.477 74.4297 105.656 73.8281 105.656C73.6016 105.961 73.3164 106.113 72.9727 106.113H71.8242C71.6445 105.98 71.4609 105.914 71.2734 105.914L71.0273 105.961C71.0273 105.805 70.625 105.656 69.8203 105.516H69.7266L69.2227 105.867V105.914H69.4805L69.7734 105.809C70.1953 105.809 70.5781 105.941 70.9219 106.207V106.617L70.6289 107.508L69.9727 107.613V107.859L69.8203 108L69.1289 107.906H68.7773C68.6289 107.766 68.4102 107.633 68.1211 107.508C68.082 107.422 67.9336 107.305 67.6758 107.156C67.5508 106.938 67.3828 106.789 67.1719 106.711C67 106.367 66.8359 106.117 66.6797 105.961V105.867C66.8125 105.727 66.8789 105.359 66.8789 104.766L67.1719 104.414H67.3711L67.6289 104.613H67.6758V104.566L66.8789 103.863C66.8398 103.176 66.707 102.293 66.4805 101.215L66.5273 99.2578C66.3945 99.2578 66.2617 99.0078 66.1289 98.5078V97.9102C65.9336 97.4961 65.7344 96.9297 65.5312 96.2109L65.3789 96.0586L65.4844 95.9062C65.3906 95.9062 65.2578 95.7891 65.0859 95.5547C64.9844 95.5547 64.8984 95.4883 64.8281 95.3555L64.9805 95.0156L64.875 94.8047L64.9336 94.6055L64.6758 94.2656L64.8281 94.1133C65 94.1133 65.1328 94.3438 65.2266 94.8047L65.4258 94.9102L65.5781 94.7109L65.5312 94.6641V94.6055L65.6836 94.3594L65.5781 94.2656V94.0078L65.5312 93.2578H65.5781C65.5625 92.9141 65.2617 92.5156 64.6758 92.0625L64.7344 92.0156C64.9219 92.0156 65.2188 92.2969 65.625 92.8594C65.7422 92.8594 65.875 93.0273 66.0234 93.3633C66.1406 93.3633 66.2734 93.6797 66.4219 94.3125H66.4805C66.5664 93.875 66.6992 93.6562 66.8789 93.6562L67.0781 93.7617C67.2656 93.7617 67.4961 93.5781 67.7695 93.2109L68.0273 93.1641L68.2266 93.2109C68.7109 93.0547 69.3125 92.9375 70.0312 92.8594C70.0625 92.7578 70.1602 92.707 70.3242 92.707C70.457 92.7461 70.5234 92.8125 70.5234 92.9062H70.6289L70.7227 92.6133H70.5703V92.5547L70.6289 92.5078L70.5703 92.4609V92.3555H70.6758V92.3086C70.543 92.3086 70.4766 92.2578 70.4766 92.1562H70.5234L70.8281 92.2148L70.7812 91.957V91.9102ZM67.9805 92.1562V92.2148L67.9219 92.3555H67.9805L68.0742 92.4609V92.5547H67.9805V92.6602L68.1211 92.707L68.3203 92.6602V92.7656H67.9805L67.9219 92.707L67.6289 92.8125V92.7656C67.6289 92.5938 67.5625 92.5078 67.4297 92.5078V92.4141C67.6094 92.4141 67.793 92.3281 67.9805 92.1562ZM68.9766 92.5547L69.0703 92.6602C69.0547 92.7617 68.9219 92.8125 68.6719 92.8125L68.5781 92.707L68.5312 92.7656H68.4258V92.6602H68.8242L68.9766 92.5547ZM65.0273 93.4102H65.1328C65.2109 93.4102 65.2617 93.4922 65.2852 93.6562L64.9805 93.8555H64.875L64.7812 93.7617V93.6562L65.0273 93.4102ZM64.4297 93.7617L64.4766 93.8086V93.8555L64.4297 93.9141H64.3828L64.3242 93.8555V93.8086L64.3828 93.7617H64.4297ZM68.0273 97.8164C68.0898 97.8164 68.1211 97.8633 68.1211 97.957L68.0742 98.2148H68.0273L67.9219 98.1094V97.9102L68.0273 97.8164ZM74.5312 97.8633H74.625L74.8828 97.9102V98.0156H74.8242C74.6523 98.0156 74.5547 97.9648 74.5312 97.8633ZM67.9805 98.3086H68.0742V98.5078L67.9805 98.4141V98.3086ZM69.4219 101.156H69.5273V101.309H69.4219V101.156ZM78.9727 101.461L79.0312 101.508V101.566L78.9727 101.613H78.9258L78.8789 101.566V101.508L78.9258 101.461H78.9727ZM78.1758 101.766L78.2812 101.859V101.965L78.082 102.258H78.0234V102.059C78.0469 101.863 78.0977 101.766 78.1758 101.766ZM76.0781 102.105L76.125 102.164H76.3242L76.3828 102.105H76.4297V102.211L76.2305 102.516H76.125C76.0625 102.516 76.0312 102.465 76.0312 102.363L76.0781 102.105ZM68.4258 102.316V102.363L68.4727 102.562C68.4727 102.664 68.4062 102.715 68.2734 102.715V102.809H68.3203L68.625 102.609L68.4727 102.316H68.4258ZM71.4727 107.414H71.5312C71.625 107.445 71.6719 107.543 71.6719 107.707L71.625 107.766H71.4727L71.332 107.613V107.566L71.4727 107.414ZM71.0742 107.508C71.1523 107.508 71.2031 107.594 71.2266 107.766L71.0742 107.859H70.9805C70.8789 107.828 70.8281 107.73 70.8281 107.566L70.875 107.508H71.0742ZM71.7773 107.707L71.8242 107.766V107.812L71.7773 107.859H71.7305L71.6719 107.812V107.766L71.7305 107.707H71.7773ZM71.4727 107.812H71.5312C71.6016 107.812 71.6484 107.895 71.6719 108.059L71.5312 108.152H71.4727L71.332 108L71.4727 107.812ZM70.9805 108.059L71.0273 108.105V108.152L70.9805 108.211H70.875V108.152L70.9805 108.059ZM70.6758 108.609H70.7227L70.8281 108.703L70.7812 108.762H70.6758V108.609ZM80.7305 91.8164V91.8633L80.625 91.9688L80.5781 91.9219V91.8633L80.7305 91.8164ZM80.1211 91.9688V92.0156C80.1211 92.0938 79.9023 92.3633 79.4648 92.8242L79.1133 93.3867V93.5859H79.207V93.6328L79.2656 93.5859H79.3594L79.418 93.6328H79.4648V93.4336H79.5703C79.5703 93.668 79.6367 93.7852 79.7695 93.7852H79.9219L79.9688 93.4336L79.7109 93.4805L79.7695 93.4336V93.2812C79.7695 93.2188 79.7031 93.1875 79.5703 93.1875V93.0352L79.7109 92.7773L79.8633 92.8242L79.9219 92.7773C79.9219 92.8789 79.9883 92.9297 80.1211 92.9297L80.168 93.082L80.4258 93.0352L80.3203 93.1875V93.3281L80.625 93.3867V93.3281L80.9297 92.5195L81.082 92.4727V92.5195L80.8828 92.7773L80.9766 92.9297L80.7773 93.4336L80.9766 93.5391L81.3398 93.1875V93.2344L81.082 93.5859H81.1289L81.2812 93.5391V93.5859L81.2344 93.6328V93.6914H81.3398L81.4922 93.6328V93.7383L81.7852 93.5391V93.5859C81.7852 93.6562 81.7383 93.6914 81.6445 93.6914V93.8438C81.7773 93.8438 81.8438 93.875 81.8438 93.9375L82.6992 93.6914C82.6836 93.8008 82.4492 93.9336 81.9961 94.0898V94.1484L82.043 94.1953V94.2422L81.9961 94.2891C82.0977 94.3203 82.1641 94.3906 82.1953 94.5L82.4531 94.3945C82.4531 94.4961 82.3828 94.5469 82.2422 94.5469V94.5938L82.5469 94.6523L83.3086 94.5938L83.3555 94.6523V94.6992C83.1836 94.6992 83.0312 94.75 82.8984 94.8516C82.9375 95.1172 83.0078 95.3008 83.1094 95.4023V95.5078L83.0039 95.6602C83.1055 95.6602 83.1562 95.6953 83.1562 95.7656H83.1094C83.25 96.1016 83.3516 96.2695 83.4141 96.2695H83.5078L83.6602 96.1172V96.0117H83.5664V95.9648L83.6133 95.8125H83.5078V95.6602C83.7344 95.3242 83.9219 95.1562 84.0703 95.1562C84.0703 95.2188 84.2031 95.2695 84.4688 95.3086L84.5742 95.4023C84.5742 95.3164 84.6562 95.2344 84.8203 95.1562V95.3086L84.7266 95.4023C84.7734 95.543 84.8242 95.6133 84.8789 95.6133L84.9727 95.5078V95.6602H84.8789V95.707L85.125 95.8125H85.1836L85.5352 95.5547H85.6406C85.3984 95.7969 85.2773 95.9688 85.2773 96.0703C85.3164 96.2031 85.3867 96.2695 85.4883 96.2695V96.3164L85.3828 96.4688V96.668C85.4531 96.7305 85.4883 96.8984 85.4883 97.1719L85.582 97.3242L85.1836 97.6289L84.8789 97.582H84.7734C84.7734 97.6836 84.7383 97.7344 84.668 97.7344H84.6211L84.668 97.6875V97.582L84.6211 97.6289L84.5742 97.582H84.4219L83.9648 97.8398C83.9648 97.9258 83.832 97.9922 83.5664 98.0391H83.4609C83.3281 97.9922 83.2617 97.8398 83.2617 97.582V97.2773L83.1094 97.125L83.0039 97.4297H82.957C83.0195 97.5625 83.0508 97.75 83.0508 97.9922V98.0859C82.918 98.2422 82.7695 98.6641 82.6055 99.3516C82.4336 99.3516 82.2305 99.875 81.9961 100.922C81.9258 100.922 81.8398 101.176 81.7383 101.684L81.7852 102.586L81.7383 103.195L81.7852 103.746L81.7383 103.805V103.852L81.7852 103.898V103.957C81.6914 104.121 81.6445 104.34 81.6445 104.613L81.6914 104.918H81.6445C81.7383 105.074 81.8047 105.426 81.8438 105.973L81.7852 106.629V106.734C81.9023 107.672 82.0898 108.141 82.3477 108.141L85.0312 108.551L85.3359 108.445H85.6875L86.6016 108.598L88.0078 108.551L88.0664 108.504H88.1602C88.1602 108.285 88.4297 108.148 88.9688 108.094C89.3047 107.93 89.6758 107.848 90.082 107.848C90.082 107.707 90.2539 107.574 90.5977 107.449C90.5977 107.34 90.7812 107.254 91.1484 107.191C91.4141 107.004 92.0039 106.75 92.918 106.43H93.4805C93.5508 106.359 93.8711 106.258 94.4414 106.125H94.4883L94.5938 106.23L94.4883 106.535L93.9844 106.488C93.7422 106.488 93.5039 106.809 93.2695 107.449L93.2227 107.496H92.9648L92.7656 107.344C92.1562 107.648 91.6172 107.984 91.1484 108.352V108.398L91.3477 108.598V108.75L91.043 109.055V109.102L91.1484 109.254H91.043V109.312H91.1484L91.2539 109.207H91.3477V109.312C91.082 109.375 90.9492 109.441 90.9492 109.512V109.559H91.1016C91.0156 109.762 90.9141 109.863 90.7969 109.863V109.922C91.1016 110 91.2539 110.066 91.2539 110.121L90.9492 110.215L90.8906 110.168H90.8438C90.8438 110.301 90.8086 110.367 90.7383 110.367L90.6914 110.32H90.6445V110.367L90.7383 110.52V110.578C90.7383 110.641 90.6914 110.672 90.5977 110.672L91.3008 111.387V111.434H91.2539L90.3867 110.883L90.3398 111.082C90.4883 111.355 90.6719 111.609 90.8906 111.844V111.938C90.5547 111.688 90.3867 111.469 90.3867 111.281L90.2344 111.129L90.1875 111.176H90.1406L90.082 111.129H90.0352L89.9297 111.328L89.9883 111.387H89.9297L89.8828 111.328H89.8359L89.6367 111.691V111.234L89.4258 111.176L89.3789 111.328H89.332L89.2734 111.281H89.2266V111.387H89.1211V111.234L89.0742 111.281H88.9688C88.9688 111.18 88.918 111.129 88.8164 111.129V111.176L88.875 111.234V111.281L88.5703 111.48V111.434L88.6641 110.977H88.6172C88.4375 111.008 88.2031 111.277 87.9141 111.785C87.8047 111.801 87.668 112.039 87.5039 112.5C87.4492 112.5 87.3828 112.602 87.3047 112.805H87.2578L87.1992 112.746V112.652C87.9414 111.551 88.3125 110.961 88.3125 110.883L88.1602 110.777C88.0664 110.777 87.8984 110.98 87.6562 111.387L87.457 111.586V111.539L87.8086 110.883V110.824L87.7031 110.73H87.6094L87.1992 111.023V110.93L87.5625 110.625V110.52C86.8203 110.52 86.4492 110.641 86.4492 110.883C86.4102 110.977 86.3086 111.023 86.1445 111.023H85.582L85.0781 110.883L84.4688 111.176H83.5078C83.3203 111.379 82.918 111.48 82.3008 111.48C81.5977 111.66 81.2266 111.781 81.1875 111.844C81.1406 111.969 80.7852 112.137 80.1211 112.348C79.5117 112.16 79.207 111.973 79.207 111.785V111.281C79.3477 111.016 79.5664 110.359 79.8633 109.312L79.7695 108.199L79.8164 108.141C79.6367 108.141 79.418 107.707 79.1602 106.84L79.207 106.535L78.9609 105.82L78.8555 105.117L79.0078 104.766L78.9609 104.508V103.5L79.0078 103.453C78.9375 102.859 78.8203 102.367 78.6562 101.977C78.6562 101.742 78.5195 101.375 78.2461 100.875C78.2461 100.523 78.1133 100.203 77.8477 99.9141V99.8086L78.0938 99.3984V99.3047C78 99.0859 77.6328 98.8672 76.9922 98.6484L77.4961 97.9922L77.4492 97.9336V97.6289L77.4961 97.582L77.6484 97.5352V97.4766C77.6484 97.375 77.582 97.3242 77.4492 97.3242L77.543 97.0781L77.3906 96.668V96.3164C77.3906 96.1523 77.4766 96.0195 77.6484 95.918V95.8594L77.8945 95.918L78.0469 95.7656C78.0469 95.625 77.9609 95.4883 77.7891 95.3555H77.8477L78.1523 95.4023L78.2461 95.3086V95.2031C78.1445 95.2031 78.0273 95.1016 77.8945 94.8984V94.8516C78.0977 94.9219 78.1992 95.0078 78.1992 95.1094H78.2461L78.3047 94.6992C78.2188 94.6992 78.168 94.6328 78.1523 94.5L77.2383 93.5859V93.5391H77.2969C78 94.0859 78.3516 94.4219 78.3516 94.5469H78.3984L78.6094 94.3477L78.3984 94.043L78.3047 93.9375C78.3047 93.8516 78.3867 93.8008 78.5508 93.7852V93.6914C78.4883 93.5352 78.3203 93.3477 78.0469 93.1289V93.082H78.0938C78.4141 93.2383 78.6172 93.457 78.7031 93.7383C78.8359 93.668 79.0547 93.332 79.3594 92.7305L80.1211 91.9688ZM77.543 92.6719L77.5898 92.7305V92.8242H77.543L77.4492 92.7305L77.4961 92.6719H77.543ZM82.4531 92.8828H82.5V92.9766H82.3477L82.4531 92.8828ZM74.7891 93.6211H74.8359L74.9297 93.7148H74.7891V93.6211ZM83.9648 93.1289L84.0117 93.1875V93.2344L83.9648 93.2812H83.918L83.8125 93.1875L83.9648 93.1289ZM76.9453 93.2812H76.9922L77.1914 93.4805H77.1445L76.9453 93.3867V93.2812ZM75.4219 94.0898H75.4688C75.6094 94.1445 75.6797 94.1953 75.6797 94.2422H75.5742L75.4219 94.1953V94.0898ZM76.2773 94.5H76.3359L76.4297 94.5938H76.2773V94.5ZM75.2695 94.5469L75.3164 94.5938V94.6523L75.2695 94.6992H75.2227L75.1641 94.6523V94.5938L75.2227 94.5469H75.2695ZM83.6133 94.5469H84.3164V94.6523H83.6133V94.5469ZM84.6211 94.5469H84.8789V94.6523H84.6211V94.5469ZM77.0977 94.8984H77.1445L77.2383 95.0039H77.0977V94.8984ZM77.2383 95.0039H77.3438L77.4492 95.1094H77.3438L77.2383 95.0039ZM77.4961 95.1562H77.543C77.6992 95.2188 77.7812 95.2852 77.7891 95.3555H77.7422C77.5938 95.293 77.5117 95.2266 77.4961 95.1562ZM86.6484 97.8398H86.8008V97.9336H86.7422L86.6484 97.8398ZM84.1172 98.0859H84.1641L84.3164 98.2383V98.2852H84.2695L84.1172 98.1328V98.0859ZM83.2617 98.543L83.3086 98.5898V98.6484L83.2617 98.6953H83.1562V98.6484L83.2617 98.543ZM75.4688 103.453H75.5742C75.707 103.516 75.7734 103.613 75.7734 103.746L75.4688 103.852L75.3164 103.652V103.605L75.4688 103.453ZM95.0977 106.125L95.1445 106.184V106.23L95.0977 106.277H95.0391L94.9922 106.23V106.184L95.0391 106.125H95.0977ZM92.3086 109.406L92.4609 109.465V109.559H92.3672L92.2617 109.465L92.3086 109.406ZM93.2227 109.406H93.5742V109.512H93.2227V109.406ZM91.1953 109.465H91.957V109.512L91.6055 109.559V109.512L91.5586 109.559H91.5L91.4531 109.512L91.4062 109.559H91.1016L91.1953 109.465ZM91.6055 110.062H91.8516V110.168H91.6055V110.062ZM89.6367 111.738C89.6055 112.074 89.5547 112.242 89.4844 112.242L89.4258 112.195V112.137C89.5117 111.871 89.582 111.738 89.6367 111.738ZM88.5703 112.043L88.6172 112.09V112.137L88.5703 112.195H88.4648V112.137L88.5703 112.043Z" fill="white"/>
<g clip-path="url(#clip0_14_729)">
<rect x="28" y="117" width="85" height="85" fill="#0F104C" fill-opacity="0.5"/>
<path d="M28.2 185.2H44.8V201.8H28.2V185.2Z" stroke="#5F0D16" stroke-width="0.4"/>
<path d="M28.2 168.2H44.8V184.8H28.2V168.2Z" stroke="#5F0D16" stroke-width="0.4"/>
<path d="M28.2 151.2H44.8V167.8H28.2V151.2Z" stroke="#5F0D16" stroke-width="0.4"/>
<path d="M28.2 134.2H44.8V150.8H28.2V134.2Z" stroke="#5F0D16" stroke-width="0.4"/>
<path d="M28.2 117.2H44.8V133.8H28.2V117.2Z" stroke="#5F0D16" stroke-width="0.4"/>
<path d="M45.2 185.2H61.8V201.8H45.2V185.2Z" stroke="#5F0D16" stroke-width="0.4"/>
<path d="M45.2 168.2H61.8V184.8H45.2V168.2Z" fill="white"/>
<path d="M45.2 168.2H61.8V184.8H45.2V168.2Z" stroke="#5F0D16" stroke-width="0.4"/>
<path d="M45.2 151.2H61.8V167.8H45.2V151.2Z" stroke="#5F0D16" stroke-width="0.4"/>
<path d="M45.2 134.2H61.8V150.8H45.2V134.2Z" fill="white"/>
<path d="M45.2 134.2H61.8V150.8H45.2V134.2Z" stroke="#5F0D16" stroke-width="0.4"/>
<path d="M45.2 117.2H61.8V133.8H45.2V117.2Z" stroke="#5F0D16" stroke-width="0.4"/>
<path d="M62.2 185.2H78.8V201.8H62.2V185.2Z" stroke="#5F0D16" stroke-width="0.4"/>
<path d="M62.2 168.2H78.8V184.8H62.2V168.2Z" stroke="#5F0D16" stroke-width="0.4"/>
<path d="M62.2 151.2H78.8V167.8H62.2V151.2Z" fill="#EB1E1E"/>
<path d="M62.2 151.2H78.8V167.8H62.2V151.2Z" stroke="#5F0D16" stroke-width="0.4"/>
<path d="M62.2 134.2H78.8V150.8H62.2V134.2Z" stroke="#5F0D16" stroke-width="0.4"/>
<path d="M62.2 117.2H78.8V133.8H62.2V117.2Z" stroke="#5F0D16" stroke-width="0.4"/>
<path d="M79.2 185.2H95.8V201.8H79.2V185.2Z" stroke="#5F0D16" stroke-width="0.4"/>
<path d="M79.2 168.2H95.8V184.8H79.2V168.2Z" stroke="#5F0D16" stroke-width="0.4"/>
<path d="M79.2 151.2H95.8V167.8H79.2V151.2Z" fill="white"/>
<path d="M79.2 151.2H95.8V167.8H79.2V151.2Z" stroke="#5F0D16" stroke-width="0.4"/>
<path d="M79.2 134.2H95.8V150.8H79.2V134.2Z" stroke="#5F0D16" stroke-width="0.4"/>
<path d="M79.2 117.2H95.8V133.8H79.2V117.2Z" stroke="#5F0D16" stroke-width="0.4"/>
<path d="M96.2 185.2H112.8V201.8H96.2V185.2Z" stroke="#5F0D16" stroke-width="0.4"/>
<path d="M96.2 168.2H112.8V184.8H96.2V168.2Z" stroke="#5F0D16" stroke-width="0.4"/>
<path d="M96.2 151.2H112.8V167.8H96.2V151.2Z" stroke="#5F0D16" stroke-width="0.4"/>
<path d="M96.2 134.2H112.8V150.8H96.2V134.2Z" stroke="#5F0D16" stroke-width="0.4"/>
<path d="M96.2 117.2H112.8V133.8H96.2V117.2Z" stroke="#5F0D16" stroke-width="0.4"/>
</g>
<rect x="28.5" y="117.5" width="84" height="84" stroke="url(#paint1_linear_14_729)"/>
<defs>
<linearGradient id="paint0_linear_14_729" x1="70.5" y1="17" x2="70.5" y2="83" gradientUnits="userSpaceOnUse">
<stop stop-color="#123BD5"/>
<stop offset="1" stop-color="#CD2237"/>
</linearGradient>
<linearGradient id="paint1_linear_14_729" x1="31.7979" y1="120.436" x2="138.59" y2="226.777" gradientUnits="userSpaceOnUse">
<stop stop-color="#B17BFF"/>
<stop offset="1" stop-color="#FF0751"/>
</linearGradient>
<clipPath id="clip0_14_729">
<rect x="28" y="117" width="85" height="85" fill="white"/>
</clipPath>
</defs>
</svg>
