<svg width="142" height="218" viewBox="0 0 142 218" fill="none" xmlns="http://www.w3.org/2000/svg">
<rect x="0.5" y="0.5" width="141" height="217" rx="4.5" fill="#191515"/>
<rect x="0.5" y="0.5" width="141" height="217" rx="4.5" stroke="#B17BFF"/>
<path d="M69.96 75.43L66.09 74.17L64.47 71.56L67.08 71.2V70.48H67.71L68.43 70.84L81.21 67.51C82.29 66.16 83.01 64.72 83.37 62.83C83.64 61.12 83.64 59.23 83.55 57.25H82.2L78.24 57.88C77.07 57.61 76.17 57.25 75.18 56.53C74.19 55.9 73.2 55.18 72.39 54.46L72.03 53.56C73.92 53.56 75.9 53.47 77.88 53.38C79.86 53.29 81.66 52.75 83.19 51.94V49.96L82.2 46.9L81.48 46.54V45.91H81.84L82.2 44.56H83.19L88.05 46.27L88.77 48.25C90.48 48.7 92.37 48.88 94.53 48.79C96.6 48.7 98.13 49.42 98.94 50.86L96.96 52.57V53.2L88.77 55.9C88.32 57.88 87.69 59.86 87.15 61.66C86.52 63.55 85.62 65.35 84.45 67.15H85.8L94.71 66.52L95.97 66.79L101.28 66.16C102.36 66.61 103.53 66.88 104.79 66.97C105.96 67.06 107.04 67.51 108.21 68.14L108.57 70.21C107.85 71.11 106.95 71.56 105.87 71.65C104.7 71.74 103.62 71.83 102.54 71.83C100.02 70.93 97.32 70.48 94.44 70.48C91.47 70.48 88.68 70.48 85.8 70.48C82.92 71.2 80.22 72.1 77.88 73.09C75.54 74.26 72.84 74.98 69.96 75.43ZM36.12 73.81L35.4 71.56H35.04L34.86 68.86L37.47 67.51L38.46 66.52L39.72 66.79L45.66 62.92L46.92 53.83H46.02L42.42 55.54L42.06 56.26H40.08L38.46 55.54L36.12 51.94H35.4L34.5 49.96L32.16 47.17L31.53 45.28H33.51L36.48 45.91L42.42 40.6L42.6 39.25L47.28 38.35L47.64 35.29C47.64 33.49 47.37 31.78 46.83 30.34C46.2 28.81 45.84 27.28 45.39 25.66L45.66 22.69H46.02L47.64 24.67L50.97 25.66L51.6 27.64L51.24 29.98L51.96 33.31L51.6 35.65L51.96 36.64H52.95C54.21 36.64 55.47 36.28 56.73 35.56C57.9 35.02 59.34 34.66 60.87 34.66L66.09 36.64L66.36 38.62C63.48 39.88 61.41 42.04 60.33 44.92C59.16 47.8 57.18 49.96 54.21 51.22C53.13 50.95 52.23 51.04 51.42 51.49C50.61 51.94 49.89 52.48 49.26 52.93L46.29 62.47H46.92L53.22 58.87V57.61L52.95 56.89H53.22C54.3 57.34 55.38 57.7 56.37 58.15C57.36 58.6 58.17 59.32 58.8 60.22C59.25 60.67 59.61 61.21 59.7 61.84C59.79 62.56 59.79 63.28 59.79 63.91H56.46C56.01 62.92 55.47 62.2 54.84 61.57C54.21 61.12 53.94 60.31 54.21 59.23H53.22L49.26 64.9H48.63V65.53H47.91L46.92 67.15C45.3 68.5 43.5 69.67 41.79 70.84C39.99 72.01 38.19 72.91 36.12 73.81ZM47.28 49.96V48.25L47.64 43.57H46.65L45.39 44.29L43.68 42.31H42.6C41.79 43.12 41.07 44.2 40.53 45.37C39.99 46.54 39.81 47.89 40.08 49.33L41.34 50.86L43.05 51.22L47.28 49.96ZM54.21 46.54L54.84 43.57L53.85 40.87L52.59 40.6L50.97 41.23L50.25 48.25H51.24L54.21 46.54ZM71.04 45.91V45.64L70.59 44.29L67.08 42.58L71.67 40.6V40.24C73.65 39.97 75.63 39.7 77.43 39.34C79.32 39.07 81.12 38.53 82.83 37.63L84.09 32.23L82.83 31.96L79.23 32.59L74.64 30.97V30.34C76.26 29.71 78.06 29.08 79.86 28.63C81.57 28.18 83.28 27.46 84.81 26.29L85.17 24.31C84.45 23.5 83.91 22.6 83.64 21.61C83.37 20.71 83.19 19.81 83.19 18.64L83.55 16.03H86.52L88.77 17.02L89.04 18.64C88.59 19.09 88.41 19.63 88.41 20.08C88.41 20.71 88.41 21.25 88.41 21.7L89.04 24.67L95.61 25.93V27.28L88.05 29.98L86.88 36.28H89.4L94.71 35.65V35.02L100.92 34.66C101.82 35.11 102.72 35.38 103.71 35.47C104.7 35.56 105.6 36.01 106.23 36.64V37.27H105.24L104.16 38.89L100.65 39.52L91.29 38.89C87.87 39.52 84.45 40.6 81.03 41.95C77.61 43.21 74.28 44.56 71.04 45.91Z" fill="url(#paint0_linear_14_336)"/>
<path d="M55.5703 91.207L55.6172 91.2539V91.3125L55.5703 91.3594H55.5117L55.4648 91.3125V91.2539L55.5117 91.207H55.5703ZM43.957 91.4648L44.0039 91.5117V91.5586L43.8516 91.7109H43.8047L43.6523 91.5586L43.957 91.4648ZM54.75 91.5117L55.1133 91.6641L55.418 91.6172C55.582 91.6484 55.6641 91.7148 55.6641 91.8164C55.8828 91.6836 56.0898 91.6172 56.2852 91.6172L56.2266 91.6641V91.8164H56.332V91.875L56.2852 91.9219L56.332 91.9688V92.0742L56.2266 92.2266L56.332 92.3789L56.6367 92.2734L56.5898 92.2266V92.0742C56.6523 92.0742 56.6836 92.125 56.6836 92.2266H56.8359L57.0469 92.0742L57.1523 92.332L57.6094 92.2266V92.332L57.1992 92.3789C57.1992 92.6523 57.5039 92.7891 58.1133 92.7891V92.8828L56.9883 92.7305L56.9414 92.7891V92.8359C57.043 92.8359 57.0938 92.8711 57.0938 92.9414L57.0469 92.9883L56.8359 92.8828L56.5898 92.9414L56.5312 92.8828C56.5312 93.0938 56.3633 93.1992 56.0273 93.1992C55.9883 93.457 55.5312 93.8281 54.6562 94.3125C54.6562 94.6172 54.5508 94.7695 54.3398 94.7695L53.4258 95.2383H53.3789C52.8477 95.2383 52.5078 95.1523 52.3594 94.9805L51.9961 95.0273H51.082L50.7305 94.9805L50.625 95.0742H50.4258C50.2539 95.0742 49.7422 95.2305 48.8906 95.543V95.5898L48.9961 95.6953V95.9414L48.7969 96.1523L48.8906 96.457L48.7383 96.8086V97.2656C48.9414 97.4766 49.043 97.6133 49.043 97.6758L48.7383 98.3906C48.7383 98.7656 48.9766 99.0898 49.4531 99.3633H49.5V99.4102L49.3477 99.6094L49.8164 99.8672L49.8633 99.7148C50.0586 99.918 50.2617 100.02 50.4727 100.02L50.7773 100.078H50.8242L50.7773 100.02V99.9727L50.9297 99.8672L50.9883 99.9258L50.9297 99.9727V100.078C51.0547 100.078 51.2773 99.9922 51.5977 99.8203C51.5977 99.7188 51.5469 99.668 51.4453 99.668V99.5625H51.4922L51.8438 99.8672C52.4062 99.6328 52.8828 99.5156 53.2734 99.5156L53.5312 99.3047L53.7891 99.3633C54.2266 99.2852 54.4453 99.1641 54.4453 99C54.4453 98.8125 54.582 98.6953 54.8555 98.6484C54.7773 98.8203 54.6914 98.9062 54.5977 98.9062V99.1055C54.6992 99.2148 54.75 99.3672 54.75 99.5625L54.8086 99.6094H54.8555C54.8555 99.5469 54.9062 99.5156 55.0078 99.5156L55.1602 99.5625L55.207 99.5156C55.207 99.6172 55.2578 99.668 55.3594 99.668L55.418 99.7148V99.7734H55.3125L55.3594 99.8203V99.8672L55.207 100.23H55.3125V100.383L54.6562 100.277L54.7031 100.324V100.535L54.5977 100.629H54.5508L54.0938 100.477L53.8828 100.629V100.688C53.9688 100.688 54.1055 100.773 54.293 100.945C54.4648 100.953 54.5508 101.004 54.5508 101.098L54.4922 101.145H54.4453C54.2109 101.043 53.9727 100.871 53.7305 100.629L53.6836 100.688H53.6367C53.4805 100.555 53.3242 100.484 53.168 100.477C53.168 100.578 53.1016 100.629 52.9688 100.629L52.6641 100.535L52.6172 100.582H52.5586L52.2539 100.477C52.1523 100.477 52.1016 100.562 52.1016 100.734C51.9609 100.875 51.8086 100.961 51.6445 100.992L51.3398 100.84H51.082C51.082 100.949 50.9961 101.066 50.8242 101.191L50.8828 101.25V101.402L50.7773 101.297V101.039L50.5195 100.992C50.5195 101.07 50.4375 101.172 50.2734 101.297C50.2734 101.422 50.3555 101.574 50.5195 101.754H50.4727C50.1367 101.473 49.9688 101.285 49.9688 101.191L50.3203 100.535H50.168C50.168 100.465 50.2695 100.414 50.4727 100.383C50.4727 100.227 50.3359 100.125 50.0625 100.078L49.9688 100.535H50.168C50.168 100.598 50.1172 100.629 50.0156 100.629L49.9688 100.688V100.734L50.0156 100.992L49.9688 101.039H49.9102L49.8633 100.734H49.8164L49.7109 101.859C49.8438 102.438 49.9453 103.25 50.0156 104.297C50.5938 104.664 50.8828 105.277 50.8828 106.137L51.082 106.395V106.746L50.9883 106.957C51.0898 107.051 51.1406 107.285 51.1406 107.66C51.3047 108.262 51.3867 108.719 51.3867 109.031C51.5586 110.062 51.832 110.844 52.207 111.375C52.4336 111.82 52.6211 112.316 52.7695 112.863L52.2539 111.891C52.1445 111.672 51.957 111.434 51.6914 111.176C51.6914 110.965 51.5742 110.797 51.3398 110.672C51.2539 110.43 51.168 110.309 51.082 110.309H50.9883C50.9258 110.309 50.7539 110.48 50.4727 110.824H50.3203V110.766C50.7031 110.422 50.9258 110.184 50.9883 110.051V110.004L50.2148 108.938L49.4531 107.566C49.4531 107.348 49.3359 106.988 49.1016 106.488C49.1016 106.23 48.8633 105.738 48.3867 105.012C48.3867 104.824 48.1836 104.453 47.7773 103.898C47.4336 103.18 47.1445 102.449 46.9102 101.707C46.332 101.113 46.043 100.586 46.043 100.125L46.1484 100.02V99.9727L46.043 99.668H45.6328C45.0938 99.668 44.7734 99.7188 44.6719 99.8203H44.625C44.625 99.6797 44.8594 99.5781 45.3281 99.5156H45.6797C45.8047 99.4141 45.9258 99.3633 46.043 99.3633V98.9531L46.1484 98.8008V98.4375C45.875 97.8438 45.7383 97.4531 45.7383 97.2656C45.3789 96.4531 45.1562 96.0117 45.0703 95.9414C45.0156 95.9414 44.9648 95.7734 44.918 95.4375H44.8711C44.8711 95.7422 44.8203 95.8945 44.7188 95.8945L44.918 96.2461V96.3047H44.8125C44.8125 96.1641 44.7305 96.0938 44.5664 96.0938V96.0469L44.4141 96.0938L43.9102 96.0469V96.0938C43.8086 96.2188 43.7578 96.3555 43.7578 96.5039H43.6523V96.4102L43.7578 96C43.7578 95.8281 43.6719 95.7422 43.5 95.7422L43.4531 95.6953H43.3945L42.9844 95.9414H42.8906C42.8906 95.832 42.8398 95.7305 42.7383 95.6367C42.7383 95.4727 42.7031 95.3906 42.6328 95.3906H42.5273L42.375 95.4844H42.2812C42.0312 95.3281 41.8438 95.1406 41.7188 94.9219L41.5078 94.7227C41.6797 94.5586 41.7812 94.3555 41.8125 94.1133C41.75 94.1133 41.7188 94.043 41.7188 93.9023L41.2617 94.0078V93.9023L41.7656 93.75L41.6133 93.3984L41.6602 93.3516H41.7188L41.5664 93.0938L41.6133 93.0469L41.3555 92.5781C41.4258 92.5938 41.5781 92.7656 41.8125 93.0938L41.9766 93.1406L42.0234 93.0938H42.0703L42.1289 93.1406H42.1758V93.0938L42.1289 92.9414L42.2812 92.8359L42.4336 92.8828V92.7305H42.5273L42.5859 92.9414L42.6328 92.8828H42.6797L42.832 92.9883C42.832 92.9336 42.918 92.8828 43.0898 92.8359V92.8828L43.1484 92.8359H43.1953L43.3477 92.8828V92.7305H43.4531L43.5469 93.0469L43.6055 92.9883H43.6992C43.6992 93.082 43.8359 93.2188 44.1094 93.3984V93.4453H44.1562V93.3516L44.1094 93.1406L44.1562 92.9414L43.957 92.7891H44.0039L44.2148 92.8359C44.418 92.7578 44.5195 92.6914 44.5195 92.6367V92.5781C44.418 92.5781 44.3164 92.5117 44.2148 92.3789H44.3672L44.5195 92.4844L44.7188 92.4258L44.918 92.4844L44.9766 92.332H45.0703V92.3789L45.0234 92.5312H45.1289L45.2812 92.4258L45.3281 92.4844H45.375L45.4805 92.3789L45.5273 92.4258L45.6797 92.2734V92.332L45.5273 92.5312C45.7695 92.6797 45.8906 92.8164 45.8906 92.9414V93.1406C46.0781 93.0781 46.2461 92.9609 46.3945 92.7891V92.9883L46.3477 93.0469V93.0938L46.6055 93.1406C47.4102 92.8359 47.918 92.6836 48.1289 92.6836L48.7383 92.8359C49.1602 92.6641 49.6523 92.5781 50.2148 92.5781C50.2148 92.6562 50.625 92.707 51.4453 92.7305C51.8125 92.7305 52.3711 92.6289 53.1211 92.4258H53.5781C54.0156 92.3242 54.5938 92.2578 55.3125 92.2266V92.1211C55.1875 92.1211 55.0508 92.0547 54.9023 91.9219L54.8555 91.9688H54.8086L54.75 91.9219V91.875C54.8906 91.8203 54.9609 91.7656 54.9609 91.7109C54.9609 91.6484 54.8906 91.6172 54.75 91.6172V91.5117ZM42.9844 91.6172H43.0898L43.1953 91.7109L43.043 91.8164H42.9844L42.8906 91.7109L42.9844 91.6172ZM42.3281 91.8164H42.4336C42.8711 92.0898 43.0898 92.3633 43.0898 92.6367H42.9844C42.875 92.332 42.6914 92.1797 42.4336 92.1797L42.2227 91.9688V91.9219L42.3281 91.8164ZM55.4648 92.1211H55.5703L55.6641 92.0273V91.9688L55.4648 92.1211ZM46.8516 92.2266L46.9102 92.2734V92.332L46.6523 92.4844V92.4258C46.6758 92.3242 46.7422 92.2578 46.8516 92.2266ZM41.0039 92.2734H41.1094L41.2031 92.3789V92.4258H41.1094L41.0039 92.332V92.2734ZM46.5469 92.5781V92.6367L46.4531 92.7305V92.6836L46.5469 92.5781ZM58.8281 92.6836V92.8359H58.6289L58.5234 92.7305L58.5703 92.6836H58.8281ZM57.8086 93.5508C58.0117 93.6289 58.1133 93.6953 58.1133 93.75L58.0664 93.8086H58.0078L57.7617 93.5977L57.8086 93.5508ZM41.5078 95.543H41.5664V95.5898L41.4141 95.7422H41.3555V95.6953L41.5078 95.543ZM40.8516 96.457L40.8984 96.5039V96.6094L40.7461 96.7617L40.6992 96.7148H40.6406C40.7109 96.5586 40.7812 96.4727 40.8516 96.457ZM44.625 96.5625L44.6719 96.6094V96.6562L44.625 96.7148H44.5664L44.5195 96.6562V96.6094L44.5664 96.5625H44.625ZM43.6523 96.6094H43.6992V96.6562L43.6523 96.9141H43.5469V96.7148L43.6523 96.6094ZM42.5273 96.8672L42.5859 96.9141V96.9609L42.5273 97.0195H42.4805L42.4336 96.9609V96.9141L42.4805 96.8672H42.5273ZM44.1094 98.0391H44.1562L44.2617 98.1328C44.2148 98.2734 44.1289 98.375 44.0039 98.4375L43.9102 98.1914L44.1094 98.0391ZM43.1953 98.3906H43.2422V98.4375L43.0898 98.5898H43.043V98.543L43.1953 98.3906ZM54.9609 98.543H55.0078V98.6484H54.8555L54.9609 98.543ZM42.5859 98.5898C43.125 98.6602 43.3945 98.7305 43.3945 98.8008V98.9062C43.3945 98.9688 43.3281 99 43.1953 99V99.1055C43.3672 99.1289 43.4531 99.1797 43.4531 99.2578H43.3008L43.1484 99.1523H42.6797L42.5273 99.0586L41.9766 99.3633C41.9766 99.4648 41.9414 99.5156 41.8711 99.5156C41.7305 99.4609 41.6602 99.4102 41.6602 99.3633C41.7695 99.3633 42.0078 99.2266 42.375 98.9531H42.4336L42.375 98.9062V98.8477C42.4453 98.6914 42.5156 98.6055 42.5859 98.5898ZM53.2734 98.5898L53.3203 98.6484V98.6953L53.168 98.8008L53.1211 98.7539V98.6953L53.2734 98.5898ZM43.7578 99.0586H43.8516L43.957 99.1523L43.9102 99.2109H43.8516L43.7578 99.1055V99.0586ZM41.0508 99.2578H41.1562L41.3555 99.3047L41.5078 99.2578V99.3047L41.4141 99.4102H41.3086L41.1562 99.3633V99.4102C41.1562 99.543 41.1211 99.6094 41.0508 99.6094L40.957 99.457V99.3633L41.0508 99.2578ZM55.418 99.2578H55.4648V99.3047L55.3594 99.4102H55.3125V99.3633L55.418 99.2578ZM52.2539 99.3047H52.3125V99.3633L52.207 99.457H52.1484V99.4102L52.2539 99.3047ZM50.2148 99.6094H50.4258L50.5781 99.7734V99.8203L50.2148 99.7148V99.6094ZM41.918 99.7734H42.0234L42.375 100.078V100.172C42.375 100.227 42.0859 100.297 41.5078 100.383L41.4609 100.324V100.277C41.5156 100.277 41.668 100.109 41.918 99.7734ZM49.5 99.9727V100.02C49.6016 100.137 49.6719 100.289 49.7109 100.477H49.7578L49.8164 100.324C49.8164 100.09 49.7109 99.9727 49.5 99.9727ZM44.1562 100.078H44.2148L44.0039 100.277H43.957L44.1562 100.078ZM43.0898 100.324H43.2422V100.43H43.0898V100.324ZM50.8828 101.402C50.9844 101.434 51.0352 101.535 51.0352 101.707V101.754C50.9336 101.723 50.8828 101.621 50.8828 101.449V101.402ZM55.9805 101.449L56.0273 101.496V101.555L55.9805 101.602H55.7695V101.496L55.9805 101.449ZM50.5195 101.754H50.6719V101.859H50.625L50.5195 101.754ZM51.1406 102.012L51.293 102.164V102.27H51.1875L51.1406 102.012ZM50.8828 103.383H50.9297V103.535L50.8242 103.641H50.7305V103.535L50.8828 103.383ZM50.4727 103.898H50.5195L50.6719 103.992L50.9297 103.945C50.7109 104.18 50.543 104.297 50.4258 104.297L50.3672 104.25L50.4727 103.898ZM50.0156 111.328V111.375L49.9102 111.48L49.8633 111.434V111.375L49.9102 111.328H50.0156ZM58.8516 91.2773H58.8867L58.957 91.3477L58.9219 91.3828H58.8867L58.8516 91.3477V91.2773ZM60.2461 91.2773V91.3125L59.9883 91.7578C60.0898 91.7578 60.1406 91.793 60.1406 91.8633L60.3633 91.7578V91.793L60.293 91.8984V91.9805L60.4336 92.0156L60.6211 91.8281V91.8633L60.5156 92.0156H60.5859V92.0508L60.5508 92.1562C60.6055 92.1562 60.7383 92.0586 60.9492 91.8633V91.8984L60.7266 92.2734L60.9141 92.3086C60.9141 92.2539 60.9766 92.2188 61.1016 92.2031L60.9844 92.3438V92.4141H61.0664V92.4609L60.9844 92.5664C61.0859 92.5664 61.1367 92.5898 61.1367 92.6367L61.1016 92.6836L61.2422 92.7539C61.5156 92.7539 61.6914 92.5078 61.7695 92.0156C62.0117 91.8828 62.1328 91.7969 62.1328 91.7578H62.2031L62.168 91.793V91.8633L62.4609 91.9453L63.2344 91.3477H63.2812L63.3516 91.4297V91.5L63.1641 91.5352V91.5L62.6133 91.9453L62.7539 92.2383C62.7539 92.3711 62.6328 92.5195 62.3906 92.6836H62.3203V92.7539C62.7422 93.1445 63.1094 93.3398 63.4219 93.3398C63.4219 93.4023 63.6055 93.5391 63.9727 93.75C63.9727 93.9297 64.2578 94.0391 64.8281 94.0781C65.0234 94.1953 65.207 94.3789 65.3789 94.6289C65.5664 94.6289 65.7617 94.9375 65.9648 95.5547C65.9648 95.6797 66.1016 95.9023 66.375 96.2227L66.4453 96.7734H66.4805C66.5352 96.7734 66.5742 96.6602 66.5977 96.4336L66.8203 96.2227L66.8555 96.2578H67.043L67.2188 96.2227V96.293C67.1484 96.293 67.1133 96.3398 67.1133 96.4336L67.1836 96.5156V96.5508C67.1836 96.5977 67.1211 96.6211 66.9961 96.6211C66.957 96.6992 66.8711 96.7383 66.7383 96.7383L66.7031 96.9141C66.7031 96.9922 66.7422 97.0312 66.8203 97.0312L66.8555 97.0664V97.1016L66.668 97.2188V97.2539C66.7305 97.4414 67.0117 97.6602 67.5117 97.9102V97.9922H67.4766C67.3047 97.9922 67.0352 97.8203 66.668 97.4766C66.4727 97.4766 66.375 97.6094 66.375 97.875L66.4102 98.0273H66.3047V98.1328H66.4102V98.168C66.4102 98.2227 66.375 98.25 66.3047 98.25V98.2852L66.3398 98.4258C66.2383 98.5742 66.1875 98.6875 66.1875 98.7656L66.3047 98.8711V98.9414H66.2578L66.1172 98.8711L66.082 99.0586L66.1172 99.1641L66.082 99.1289H66.0469L66 99.1641V99.1992L66.0469 99.3516H66L65.9648 99.3164H65.9297L65.6367 99.9023L65.0508 100.5C65.0508 100.578 64.8906 100.809 64.5703 101.191V101.273H64.5352L64.5703 101.309V101.496C64.4297 101.738 64.3047 101.859 64.1953 101.859V101.895C64.8125 101.895 65.2188 102.008 65.4141 102.234C66.0781 102.773 66.5078 103.25 66.7031 103.664C66.8984 103.828 67.0586 104.113 67.1836 104.52L67.6992 105.211L67.6641 105.328C67.7734 105.602 67.8594 105.762 67.9219 105.809L68.4023 106.172L68.8477 106.395L69.0352 106.43L69.2109 106.289H69.2461C69.3398 106.289 69.4023 106.422 69.4336 106.688C69.3867 106.703 69.3398 106.766 69.293 106.875L69.0352 106.805L68.8477 106.84L68.6602 106.77C68.9805 107.09 69.4961 107.699 70.207 108.598L70.582 108.715L70.6172 108.68V108.75C70.5391 108.75 70.5 108.773 70.5 108.82C70.6016 108.992 70.9336 109.277 71.4961 109.676C71.4961 109.746 71.5469 109.781 71.6484 109.781V109.852H71.6133C71.1914 109.516 70.8711 109.309 70.6523 109.23C70.6523 109.191 70.5312 109.082 70.2891 108.902C70 108.621 69.7266 108.41 69.4688 108.27C68.9609 107.941 68.6172 107.648 68.4375 107.391C68.0469 107.156 67.8516 106.984 67.8516 106.875C67.75 106.875 67.5039 106.738 67.1133 106.465C66.9727 106.465 66.7617 106.281 66.4805 105.914C66.4805 105.812 66.1484 105.492 65.4844 104.953C65.25 104.727 64.9453 104.543 64.5703 104.402L63.7969 103.781C63.7266 103.656 63.5156 103.531 63.1641 103.406L63.0586 103.266V103.219H63.0938L63.2812 103.266L63.3164 103.219C63.2383 103.023 63.0391 102.926 62.7188 102.926L62.6133 102.855L62.4609 102.891C62.0703 102.648 61.875 102.453 61.875 102.305C61.875 102.234 61.75 102.012 61.5 101.637V101.566L61.582 101.496H61.6875L61.7695 101.566V101.602L61.7227 101.637L62.0273 102.27L61.9805 102.375L62.0273 102.41H62.0625C62.6016 102.066 62.8711 101.746 62.8711 101.449C62.8711 101.309 62.9688 101.238 63.1641 101.238L63.4922 100.418C63.5938 100.418 63.7305 100.113 63.9023 99.5039C64.1445 99.2461 64.2812 99.0469 64.3125 98.9062H64.2773L64.3477 98.7656L64.3125 98.7305L64.3828 98.6484L64.1602 98.6133V98.6484L63.5742 98.4727L63.3867 98.6484H63.3516V98.5781L63.457 98.4258H63.3516V98.3555L63.4922 98.3906L63.6094 98.3555C63.7422 98.4336 63.9258 98.4727 64.1602 98.4727V98.3555H64.1953L64.0547 98.1328L63.8672 98.2148V98.168L63.6094 98.25V98.2148L63.6445 98.168V98.1328L63.5742 98.0625L63.7148 97.9922V97.957L63.3164 97.9102V97.8398H63.5742L63.75 97.8047V97.7695C63.7031 97.7695 63.6172 97.6211 63.4922 97.3242V97.1719C63.5625 97.1719 63.6367 97.2969 63.7148 97.5469L64.0195 97.4766V97.4297L63.9727 97.3945V97.3594L64.0547 97.2891L63.9375 97.1719L64.0898 97.0664L63.8672 96.6211L63.9023 96.5859H63.9375C64.125 96.9297 64.3086 97.1016 64.4883 97.1016L64.5352 96.9961C64.3711 96.918 64.125 96.4883 63.7969 95.707C63.4141 95.1602 63.043 94.8516 62.6836 94.7812C62.4805 94.5781 62.1992 94.3828 61.8398 94.1953L61.8047 94.2305C61.7734 94.0586 61.7109 93.9727 61.6172 93.9727L61.6523 93.9375V93.8906L61.5 93.8203H61.4297C61.4297 93.9375 61.3438 94.0859 61.1719 94.2656V94.3359C61.4609 94.4297 61.6719 94.5664 61.8047 94.7461H61.7227C61.582 94.6289 61.4375 94.5664 61.2891 94.5586L61.1016 94.3711H61.0664V94.4883L61.1016 94.5234V94.5586H61.0664L60.9141 94.4883L60.7734 94.5234C60.7734 94.6875 60.8711 94.8086 61.0664 94.8867L61.1719 95.1094L61.1367 95.332C61.1367 95.6758 61.1875 95.8477 61.2891 95.8477L61.3594 95.918C61.2109 96.707 61.0625 97.1016 60.9141 97.1016L60.9492 97.1367V97.4766C60.8008 97.8125 60.7266 98.2305 60.7266 98.7305L60.6562 99.0938C60.7031 99.1875 60.7266 99.3242 60.7266 99.5039V99.5742L60.5859 99.8672L60.8789 100.898C61.043 100.898 61.1406 100.949 61.1719 101.051V101.086L60.8789 101.93L60.8438 101.977V102.82C60.8438 103.367 60.918 103.871 61.0664 104.332V104.402L61.1016 105.293L61.0664 105.398L61.2891 105.809C61.2891 106.238 61.25 106.496 61.1719 106.582C61.2188 106.621 61.2812 107.137 61.3594 108.129C61.4062 108.129 61.4531 108.238 61.5 108.457C61.5547 108.465 61.6055 108.527 61.6523 108.645C61.582 108.887 61.5195 109.008 61.4648 109.008L61.3594 108.938H61.3242L61.3594 109.16L61.3242 109.195V109.23L61.3594 109.336L61.3242 109.371H61.2891L61.3242 109.418L61.2422 109.852L61.3242 110.004L61.2891 110.262V110.414L61.3594 111.188L61.3242 111.223V111.258L61.3594 111.293L61.3242 111.48L61.3594 111.621H61.3242L61.2422 111.551V111.41L61.0664 110.262L61.1016 110.156C60.9531 110.094 60.8789 109.945 60.8789 109.711C60.832 109.711 60.8086 109.746 60.8086 109.816L60.7734 109.852H60.7266L60.6914 109.816L60.5859 109.934C60.5391 109.738 60.4414 109.641 60.293 109.641C60.1445 109.523 60.0703 109.336 60.0703 109.078L60.1758 108.902V108.855H60.1055V108.785H60.1758V108.75L59.918 108.387H59.8828L59.7773 108.457L59.5547 108.199L59.4727 108.457L59.5195 108.492V108.527C59.4492 109.059 59.375 109.355 59.2969 109.418L59.332 109.453V109.559L59.2969 109.781L59.332 109.898L59.1797 110.191L59.2148 110.227H59.25L59.2148 110.672V110.848H59.1445V110.812C59.1445 110.133 59.082 109.617 58.957 109.266V108.785L58.9922 108.562C58.9453 108.438 58.9219 108.219 58.9219 107.906V107.684L58.957 107.648C58.8086 107.273 58.6992 106.793 58.6289 106.207V106.137C58.6992 105.629 58.7617 105.359 58.8164 105.328L58.7812 105.176L58.8164 105.141H58.8516L58.8164 105.105V105.035L58.9219 104.848L58.8164 104.625V104.52C58.8164 104.238 58.8516 103.93 58.9219 103.594C58.8984 103.484 58.8359 103.41 58.7344 103.371L58.8164 103.148L58.7344 103.078L58.8164 102.785C58.7383 102.785 58.6992 102.758 58.6992 102.703V102.668L58.7344 102.527L58.6289 102.234C58.4805 102.234 58.4062 102.148 58.4062 101.977L58.4414 101.414L58.3711 100.898L58.4062 100.535C58.3438 100.395 58.2461 99.9883 58.1133 99.3164C58.082 99.3164 58.043 99.2305 57.9961 99.0586L58.043 98.8359C57.957 98.3125 57.8711 98.0039 57.7852 97.9102V97.1016C57.8789 97.0391 57.9375 96.5586 57.9609 95.6602L57.9258 95.625H57.8906L57.8203 95.707L57.8555 95.8125C57.8086 95.8125 57.7695 95.875 57.7383 96L57.5273 96.0703H57.4805V95.9648H57.4102L57.1523 96.1055L57.1172 96.0703V96.0352C57.2422 95.8867 57.3047 95.7773 57.3047 95.707L57.1523 95.5547L57.2695 95.4492L57.4102 95.4844C57.5117 95.4453 57.5625 95.4062 57.5625 95.3672V95.2266L57.4805 95.1094C57.4805 95.0625 57.5312 95.0391 57.6328 95.0391V95.0039L57.5625 94.8867V94.8516C57.6797 94.8516 57.7383 94.8164 57.7383 94.7461L57.5977 94.6641L57.6328 94.5586L57.4102 94.3008V94.2305H57.4805L57.668 94.3711L57.6328 94.4062C57.6953 94.6328 57.793 94.7461 57.9258 94.7461V94.7109L57.8203 94.4531V94.3359L57.8555 93.7148C57.6758 93.543 57.5391 93.457 57.4453 93.457L57.4102 93.4922L57.4453 93.5273V93.5977C57.3516 93.5977 57.3047 93.6602 57.3047 93.7852C57.1562 93.7852 57.082 93.8203 57.082 93.8906C57.1367 93.8906 57.1719 93.9531 57.1875 94.0781L57.082 94.1133L57.1172 94.3008H57.082C57.0352 94.3008 57.0117 94.2656 57.0117 94.1953L56.9766 94.2305H56.7891C56.6641 94.2305 56.6016 94.168 56.6016 94.043C56.4844 94.043 56.4258 94.0195 56.4258 93.9727L56.6836 93.8555V93.7852C56.6055 93.7852 56.5039 93.6016 56.3789 93.2344C56.6289 93.5 56.7539 93.6836 56.7539 93.7852L56.7891 93.75H56.8242L57.0117 93.7852V93.7148C56.8633 93.7148 56.7891 93.6016 56.7891 93.375L56.9414 93.3398C56.9023 93.1211 56.8281 93.0117 56.7188 93.0117L56.7891 92.9414L56.7539 92.8945V92.6016L56.9062 92.4141V92.3438L56.8242 92.0508V91.9805C56.8789 91.9805 56.9297 92.0781 56.9766 92.2734L57.082 92.3438C57.1523 92.3438 57.1875 92.2812 57.1875 92.1562H57.3047C57.3047 92.2422 57.3516 92.3281 57.4453 92.4141V92.4609L57.5977 92.3438V92.4141L57.5273 92.6016L57.7031 92.7891H57.7383L57.6328 93.0469V93.082L57.7852 93.2344H57.8555C57.9805 93.2344 58.0547 93.1953 58.0781 93.1172L58.043 93.0117H58.0781L58.1484 92.7891L57.7383 92.4961V92.4141H57.7852L58.2656 92.7539C58.3828 92.7227 58.4414 92.6836 58.4414 92.6367L58.4062 92.6016C58.4766 92.5938 58.5273 92.5312 58.5586 92.4141L58.3711 92.2383H58.4062L58.6641 92.3789V92.3086L58.5938 92.0859H58.6289C58.6758 92.0859 58.6992 92.125 58.6992 92.2031H58.7812V92.1562L58.7344 92.1211V92.0859C58.8359 92.0859 58.8867 92.0625 58.8867 92.0156C58.8633 91.9219 58.7773 91.7969 58.6289 91.6406V91.6055H58.6992L59.0742 91.9453V91.8633H59.1445V92.0508H59.1797L59.332 91.8984V91.8633C59.2695 91.8633 59.1836 91.7891 59.0742 91.6406V91.6055H59.1094C59.2812 91.6992 59.3672 91.7852 59.3672 91.8633L59.4375 91.793L59.4727 91.8281H59.5547L59.5195 91.793V91.6875L59.5898 91.6055L59.7305 91.6406L59.7773 91.4648H59.8477V91.6406L59.918 91.7227C60.082 91.4492 60.1914 91.3008 60.2461 91.2773ZM56.6484 91.6875L56.7188 91.793V91.8281C56.6172 91.7891 56.5664 91.7539 56.5664 91.7227L56.6016 91.6875H56.6484ZM56.7539 91.8633L56.8242 91.9453V91.9805L56.7539 91.8984V91.8633ZM63.1992 91.8633L63.2344 91.8984V91.9453L63.1992 91.9805H63.1289V91.9453L63.1992 91.8633ZM58.2656 92.5312H58.3008L58.3711 92.6016H58.2656V92.5312ZM56.9766 94.6641H57.0117V94.7812H56.9062V94.7461L56.9766 94.6641ZM62.3203 95.332H62.3555L62.4258 95.4023L62.2031 95.5195L62.168 95.4844V95.4492L62.3203 95.332ZM67.3359 96.5859H67.4414V96.6562H67.3359V96.5859ZM62.9414 96.8086L63.0234 96.8789H62.8711L62.9414 96.8086ZM63.7969 97.582V97.6172L63.8672 97.6875H64.0195L64.0898 97.6172V97.5469L63.7969 97.582ZM62.3906 97.7344H62.543V97.8398H62.4961L62.3906 97.8047V97.7344ZM64.5352 97.9102L64.6406 97.957V97.8398H64.6055L64.5352 97.9102ZM64.418 97.957L64.4883 98.0625C64.4883 98.1328 64.418 98.168 64.2773 98.168V98.3203L64.2305 98.5078L64.418 98.3555L64.3828 98.25H64.418C64.4961 98.25 64.5352 98.1641 64.5352 97.9922L64.4883 97.957H64.418ZM66.8906 98.3906H66.9258C67.0977 98.4766 67.2344 98.5898 67.3359 98.7305H67.3008C67.1445 98.7305 67.0078 98.6172 66.8906 98.3906ZM68.1094 98.6836H68.25V98.7656H68.1094V98.6836ZM66.3398 99.3516H66.4102V99.4688H66.3398V99.3516ZM66.1523 99.5039C66.2695 99.5039 66.3945 99.6641 66.5273 99.9844C66.3477 99.9141 66.2109 99.7773 66.1172 99.5742L66.1523 99.5391V99.5039ZM63.1992 105.176V105.211L63.0938 105.363L63.2812 105.434C63.2109 105.676 63.0859 105.836 62.9062 105.914H62.7188L62.5781 105.809L62.3906 105.844L62.4961 105.691L62.4609 105.469L62.7188 105.293L63.0586 105.328L63.1992 105.176ZM64.0195 105.176H64.125L64.1953 105.258L64.125 105.328H63.9727L63.9023 105.258L64.0195 105.176ZM63.7148 105.258H63.832V105.328H63.6445L63.7148 105.258ZM63.4219 105.328H63.6445L63.5742 105.398H63.3516L63.4219 105.328ZM62.8008 106.207L62.8359 106.254V106.289L62.8008 106.324H62.7539L62.7188 106.289V106.254L62.7539 106.207H62.8008ZM60.0703 110.707L60.1055 110.742V110.777C60.1055 110.902 60.0664 110.977 59.9883 111L59.9531 110.965V110.93C59.9766 110.781 60.0156 110.707 60.0703 110.707ZM76.4414 92.543L76.4883 92.5898V92.8594H76.3828L76.3359 92.5898L76.3828 92.543H76.4414ZM74.9766 92.5898L75.1875 92.8594H75.1406L74.8711 92.6484L74.9297 92.5898H74.9766ZM78.4219 92.6953V92.7539L78.2109 93.0117H78V92.9648C78.0938 92.7852 78.2344 92.6953 78.4219 92.6953ZM76.0195 92.7539H76.125L76.3359 93.3281L76.5469 93.2695L76.6992 93.3281V93.2695L77.0156 92.9062V92.9648C76.9609 93.0977 76.9062 93.1641 76.8516 93.1641L77.0625 93.5391C77.0078 93.7109 76.9062 93.7969 76.7578 93.7969L76.6992 93.7383V93.8438L76.957 93.9492L77.168 93.7969V93.9023L77.1211 93.9492V94.0078C77.2852 94.0078 77.4062 94.0391 77.4844 94.1016C77.4844 94.0156 77.5703 93.8945 77.7422 93.7383H77.9531V93.7969L77.5898 94.1602H77.8477L78 94.0547H78.1641L78.0586 94.2656L78 94.207H77.9062V94.2656H78V94.3125L77.9531 94.3711V94.418C78.0234 94.418 78.0586 94.4727 78.0586 94.582L78.8438 94.418H78.8906C78.6953 94.6289 78.5234 94.7344 78.375 94.7344C78.375 94.8516 78.7383 95.0586 79.4648 95.3555L79.5234 95.4141V95.5195H79.4648C79.1445 95.3398 78.832 95.2148 78.5273 95.1445H78.375L78.5273 95.3555V95.4141L78.4688 95.3555H78.2109V95.4609C78.4453 95.4609 78.6562 95.6172 78.8438 95.9297H78.8906V96.0352L78.5742 96.1406L78.4219 96.0352L78.375 96.0938H78.0586V96.1406L78.1641 96.293V96.3516H78.1055L77.9531 96.293V96.3984C77.9531 96.5312 78.0391 96.6875 78.2109 96.8672L78.1641 96.9258H78.1055L77.9062 96.7148C77.7969 96.7148 77.7266 96.8359 77.6953 97.0781H77.8477V97.1367L77.7422 97.2305H77.6953L77.5312 97.1367L77.3789 97.1836L77.2734 97.0781C77.2734 97.25 77.2031 97.3359 77.0625 97.3359C77.0625 97.4062 77.2031 97.5117 77.4844 97.6523V97.6992C77.3438 97.9102 77.2734 98.0664 77.2734 98.168L77.332 98.4375L77.2734 98.4844H77.2266L77.168 98.332H77.1211L77.0625 98.6953V98.7422C77.1719 98.7422 77.2266 98.7773 77.2266 98.8477V98.9062L77.1211 99.0117C77.1211 98.918 76.9297 98.7617 76.5469 98.543H76.4883L76.2891 98.6953L76.1836 98.5898H76.0195L75.8086 98.6484L75.7617 98.5898H75.7148C75.6289 98.5898 75.4531 98.6953 75.1875 98.9062L75.0352 98.8477V98.9062C75.0352 98.9766 74.8945 99.0117 74.6133 99.0117C74.582 99.0977 74.3398 99.2188 73.8867 99.375C73.8867 99.4531 73.7461 99.5234 73.4648 99.5859C73.4648 99.7031 73.1875 99.9609 72.6328 100.359C72.4922 100.57 72.3516 100.676 72.2109 100.676L72.4219 101.145V101.355C72.3203 101.48 72.2695 101.602 72.2695 101.719V102.035C72.6133 103.16 73.0312 103.836 73.5234 104.062C74.4453 105 75.418 105.469 76.4414 105.469L76.7578 105.422L77.168 105.527C77.3867 105.527 77.7891 105.18 78.375 104.484C78.4688 104.484 78.5547 104.344 78.6328 104.062C78.8828 104.062 79.2656 103.699 79.7812 102.973L79.7227 102.293C79.7227 102.16 79.7773 102.02 79.8867 101.871V101.613L80.0391 99.8438L79.9922 99.5273L80.0391 99.4805V99.4219L79.9922 99.2695L80.0391 99.2109L79.9336 99.1172V98.9062L79.9922 98.8477C79.9297 98.6914 79.8242 98.5703 79.6758 98.4844L79.5234 98.543L79.418 98.3789L79.4648 98.332L79.3594 98.2266L79.418 98.168V98.1211C79.9492 98.3242 80.2422 98.5312 80.2969 98.7422V98.8008L80.25 98.8477C80.3281 99.0898 80.3984 99.2109 80.4609 99.2109L80.5078 99.0586L80.4023 98.8477L80.5078 98.6484L80.4609 98.3789L80.5078 98.2266L79.9336 97.6992L79.8867 97.7578V97.6992L79.9336 97.5469L79.7812 97.3945H79.8281L80.0859 97.5469C80.1875 97.4219 80.4492 97.2852 80.8711 97.1367V97.2891C80.418 97.4062 80.1914 97.5273 80.1914 97.6523L80.9297 98.332C81.1953 98.332 81.3867 98.6094 81.5039 99.1641V99.4805L81.7148 99.7852L81.6094 100.102L81.7617 101.461C81.6992 101.531 81.6484 101.789 81.6094 102.234C81.5234 102.234 81.4531 102.461 81.3984 102.914C81.0859 103.016 80.9297 103.172 80.9297 103.383C80.9297 103.734 80.8086 103.91 80.5664 103.91C80.457 104.16 80.1094 104.488 79.5234 104.895C79.0547 105.77 78.582 106.207 78.1055 106.207C77.9492 106.48 77.5156 106.617 76.8047 106.617L76.0195 106.828C75.4648 106.828 74.4727 106.48 73.043 105.785L72.1641 105.316C72.0078 105.113 71.6406 104.836 71.0625 104.484C70.2344 103.609 69.8203 103.051 69.8203 102.809V102.762L69.7617 101.719L69.8672 101.613V101.402L69.7617 100.828V100.723C69.9727 100.457 70.0781 100.285 70.0781 100.207C69.9062 100.207 69.8203 100.172 69.8203 100.102V99.9492L70.3828 98.6953C70.5469 97.9766 70.6719 97.6133 70.7578 97.6055C71.0312 97.2539 71.3086 97.0781 71.5898 97.0781C71.9258 96.7891 72.2031 96.3359 72.4219 95.7188L72.8906 95.4609L73.6172 94.9453L74.4023 94.6289C74.7539 94.4805 74.9297 94.375 74.9297 94.3125V94.207L74.6133 93.7969H74.6602C74.8789 94 75.0391 94.1016 75.1406 94.1016L75.293 93.9023L75.2344 93.8438L75.293 93.7969L75.1875 93.6914V93.6328H75.2344C75.3047 93.6328 75.3398 93.6875 75.3398 93.7969H75.5039L75.7617 93.5859L75.6562 93.4336V93.375L76.0195 93.4336C76.0195 93.3242 76.0742 93.2695 76.1836 93.2695L76.0195 92.8008V92.7539ZM77.3789 92.8008H77.4258V92.9062L77.332 93.0117H77.2266V92.9648L77.3789 92.8008ZM77.8477 93.1641H77.9062V93.2227C77.9062 93.2773 77.8359 93.3281 77.6953 93.375V93.3281L77.8477 93.1641ZM74.7656 93.2695H74.8242L74.9297 93.375L74.8711 93.4336H74.8242L74.7656 93.375V93.2695ZM74.4023 93.6328H74.4609L74.5664 93.7383H74.5078L74.4023 93.6328ZM78.9961 93.7969L79.043 93.8438V93.9023L78.7852 94.1016L78.6328 94.0547V94.0078C78.6328 93.9453 78.7539 93.875 78.9961 93.7969ZM78.2695 96.3516H78.3164C78.7695 96.5156 78.9961 96.6719 78.9961 96.8203C79.0742 96.8203 79.3008 96.9922 79.6758 97.3359H79.5703C79 97.0391 78.6523 96.7812 78.5273 96.5625C78.3555 96.5625 78.2695 96.5078 78.2695 96.3984V96.3516ZM79.8867 96.8203L79.9922 96.9258L79.8281 97.0312L79.7227 96.9258L79.8867 96.8203ZM81.9141 97.2305L81.9727 97.2891V97.3359C81.9727 97.4062 81.7812 97.4609 81.3984 97.5V97.4414C81.3984 97.3398 81.5703 97.2695 81.9141 97.2305ZM82.0195 97.5H82.0781L82.1836 97.6055H82.0195V97.5ZM78.3164 97.6055H78.4688V97.6523L78.375 97.7578L78.3164 97.6992V97.6055ZM78.9492 97.8633H78.9961L79.1484 98.0156V98.0742H79.043L78.9492 97.9688V97.8633ZM82.7578 97.8633L82.8047 97.9102V97.9688L82.6523 98.0742L82.5938 98.0156V97.9688L82.7578 97.8633ZM81.8672 98.2734H81.9727V98.332L81.8672 98.4375H81.7617V98.3789L81.8672 98.2734ZM78.6328 98.9062H78.6797L78.7852 99.0117L78.7383 99.0586H78.6328V98.9062ZM79.1484 99.5273H79.2539V99.5859L79.1484 99.6797V99.5273ZM77.4258 99.8906L77.4844 99.9492V99.9961L77.4258 100.055H77.3789L77.332 99.9961V99.9492L77.3789 99.8906H77.4258ZM76.957 100.254L77.0156 100.312V100.359L76.9102 100.465H76.8516L76.7578 100.359L76.957 100.254ZM76.2305 101.098H76.2891V101.145L76.1836 101.25H76.0781L76.2305 101.098ZM75.7148 101.508H75.7617V101.613H75.8086C75.8086 101.676 75.6875 101.797 75.4453 101.977H75.3398V101.93L75.7148 101.508ZM75.0352 102.293H75.1875V102.34C75.1172 102.48 75.0117 102.551 74.8711 102.551L74.8242 102.504V102.445L75.0352 102.293ZM74.5664 102.914V103.078L74.4609 103.184H74.4023V103.078L74.5664 102.914ZM74.0977 103.441L74.1914 103.547L74.0391 103.652L73.9922 103.594V103.547L74.0977 103.441ZM80.1914 105.059L80.25 105.105V105.164L79.8281 105.469L79.7812 105.422V105.363C79.9219 105.16 80.0586 105.059 80.1914 105.059ZM89.5547 91.5117L91.3125 92.0977C91.7734 92.0977 92.2852 92.2734 92.8477 92.625L93.5391 93C93.5391 93.25 93.6836 93.375 93.9727 93.375C94.1211 93.5547 94.332 93.9609 94.6055 94.5938L94.8164 94.6523C94.8555 94.5039 95.0352 94.3789 95.3555 94.2773L95.4609 94.3828V94.4883C95.4609 94.5586 95.3359 94.5938 95.0859 94.5938V94.6523C95.1875 94.6523 95.2773 94.7227 95.3555 94.8633L95.2969 94.9102H95.25L94.9805 94.8633L94.9219 94.9102V94.9688L95.4609 95.1797L95.6133 95.1211L95.6719 95.1797L95.7773 95.0742L95.8359 95.1211L95.7773 95.3906L96.1523 95.6602H96.3047C96.3047 95.4492 96.4297 95.3438 96.6797 95.3438L96.7383 95.3906V95.6016C96.668 95.7422 96.5586 95.8125 96.4102 95.8125L96.3047 95.707C96.1641 95.8711 96.0938 95.9961 96.0938 96.082H95.9883C95.7539 96.082 95.5781 95.8867 95.4609 95.4961L95.1914 95.4492L94.9219 95.4961C94.4297 95.3398 94.1836 95.1797 94.1836 95.0156L94.2305 94.9688L94.0195 94.8047C93.9258 94.875 93.7656 94.9102 93.5391 94.9102L93.5977 94.9688V95.0156L93.4922 95.1211C93.4922 95.2539 93.7031 95.3438 94.125 95.3906C94.3203 95.8203 94.5703 96.0352 94.875 96.0352L95.0273 96.1875V96.2461L94.7695 96.5039H94.7109C94.6094 96.4023 94.4141 96.3164 94.125 96.2461V96.3516L94.2305 96.5039H94.125L93.9727 96.3984H93.9141C93.9141 96.5078 93.8789 96.5625 93.8086 96.5625C93.8086 96.5078 93.6836 96.4375 93.4336 96.3516L93.2812 96.5625L93.1172 96.457C93.1172 96.6445 92.9766 96.7695 92.6953 96.832V96.7266H92.4258L92.2617 96.5625L92.4844 96.3516L92.4258 96.293L92.4844 96.0352L92.3789 95.918H92.3203L92.0039 96.0352V96.1406L92.1562 96.3516V96.457C92.1562 96.5273 92.0859 96.5625 91.9453 96.5625V96.6094L92.1094 96.9844H92.0508L91.8984 96.8789H91.8398L91.9453 97.043V97.0898C91.9453 97.1602 91.8594 97.1953 91.6875 97.1953V97.3008C91.3281 97.2773 91.1484 97.1914 91.1484 97.043C91.1484 96.9023 91.2539 96.832 91.4648 96.832V96.7734L91.5234 96.1406L91.2539 95.9766C91.1133 96.1328 91.043 96.2578 91.043 96.3516L91.2539 96.5039V96.6094L91.207 96.668V96.7266L91.1484 96.668H91.043C90.9414 97.0586 90.8516 97.2891 90.7734 97.3594C90.6328 97.3594 90.5469 97.2188 90.5156 96.9375L90.457 96.8789H90.4102L89.9297 97.1484H89.7188C89.7188 97.0625 89.8594 96.9727 90.1406 96.8789C90.1406 96.668 90.2109 96.5625 90.3516 96.5625V96.457C90.1406 96.457 90 96.3867 89.9297 96.2461L89.0273 96.0352H88.5938C88.4141 96.0352 88.2031 96.1562 87.9609 96.3984H87.9023V96.668L87.1055 97.418L87.1641 97.4648L86.5781 97.6758V97.8398L86.7891 97.8867C86.7188 98.1055 86.6484 98.2148 86.5781 98.2148L86.625 98.2617V98.3672L86.4727 98.2617H86.0977C86.0977 98.3398 85.9219 98.5547 85.5703 98.9062L85.7227 99.0586L85.4062 99.2227L85.5703 99.5391C85.3906 99.4375 85.3008 99.332 85.3008 99.2227C85.2461 99.2227 85.1562 99.3828 85.0312 99.7031C84.9062 99.7891 84.7461 100 84.5508 100.336V100.5L84.668 100.652V100.922C84.5508 101.219 84.2812 101.66 83.8594 102.246V102.363C84.0781 102.363 84.1875 102.484 84.1875 102.727L85.4648 103.266L87.3164 104.004C87.7148 104.004 87.9844 104.148 88.125 104.438L88.5469 104.648H88.8164C88.9336 104.648 89.0547 104.594 89.1797 104.484H89.5547L89.7188 104.59H89.9297L89.9766 104.543H90.0352L89.9766 104.484V104.438C90.4062 104.211 90.6211 104.066 90.6211 104.004L90.832 103.477L90.457 103.16C90.0977 103.16 89.6914 103.355 89.2383 103.746L88.4414 104.109L88.3828 104.062V104.004L88.8633 103.477C88.6836 103.477 88.5938 103.422 88.5938 103.312L88.7578 103.266L89.1797 103.312C89.1797 103.203 89.5547 102.848 90.3047 102.246V102.199H90.082L90.1875 102.094L90.3516 102.141C90.7031 101.898 90.8789 101.617 90.8789 101.297L90.9375 101.238H90.9961L91.043 101.449C91.2148 101.309 91.5508 101.203 92.0508 101.133C92.6367 100.766 92.9766 100.5 93.0703 100.336C93.1875 100.312 93.293 100.207 93.3867 100.02V99.9609L93.3281 99.9141V99.8555C93.5781 99.5742 93.7383 99.4336 93.8086 99.4336C94.0195 99.4336 94.2344 99.5039 94.4531 99.6445C94.4531 99.582 94.8242 99.4219 95.5664 99.1641L95.6133 99.1172L95.7188 99.2227V99.3281L95.3555 99.4922V99.4336L95.1445 99.5977L95.25 99.7031L95.2969 99.6445H95.3555C95.3555 99.8242 95.4766 99.9492 95.7188 100.02V100.066C95.6484 100.285 95.5781 100.395 95.5078 100.395H95.4023C95.3477 100.395 95.2969 100.27 95.25 100.02H95.1914C95.1289 100.02 95.0742 100.109 95.0273 100.289L95.25 100.5L95.1914 100.547C95.3008 100.547 95.3555 100.617 95.3555 100.758L95.2969 100.922L95.4023 101.027V101.449C95.4023 101.52 95.2969 101.574 95.0859 101.613C95.0156 101.402 94.9453 101.297 94.875 101.297L94.7109 101.613C94.7812 101.613 94.8164 101.719 94.8164 101.93L94.9805 101.988V102.363L94.6055 102.832H94.5586C94.4258 102.59 94.2656 102.469 94.0781 102.469L93.7031 102.832L93.7617 102.996H93.7031C93.5234 102.996 93.4336 103.086 93.4336 103.266C93.4336 103.406 93.6484 103.492 94.0781 103.523L94.3359 103.418V103.523C94.2266 103.523 94.1055 103.598 93.9727 103.746H93.8086L93.6445 103.629L93.7031 103.898V103.957H93.6445L93.4922 103.898V104.062C93.7188 104.062 93.8438 104.113 93.8672 104.215V104.32H93.7617V104.379L94.0781 104.754H94.0195L93.6445 104.438C93.5742 104.438 93.5391 104.383 93.5391 104.273H93.4922L93.4336 104.438L93.4922 104.484V104.543C93.4922 104.613 93.3672 104.664 93.1172 104.695L92.9531 105.012L93.1172 105.176C93.1172 105.246 93.0273 105.281 92.8477 105.281L92.9062 105.34V105.492C92.6875 105.492 92.5273 105.812 92.4258 106.453L92.5898 106.512V106.617L92.4844 106.828L92.5312 107.25L92.4844 107.309H92.4258L92.3203 107.145L92.3789 107.086V107.039L92.2617 106.723C92.1992 106.723 91.9688 106.953 91.5703 107.414C91.4922 107.484 91.3711 107.52 91.207 107.52V107.625H91.1484L91.207 107.672V107.73L90.8789 108.152C90.9414 108.527 91.0156 108.758 91.1016 108.844V108.996L90.9961 109.102C90.918 109.055 90.8633 108.754 90.832 108.199L90.7734 108L90.7266 107.941H90.4102V108.152H90.3047C90.3047 107.926 90.0742 107.766 89.6133 107.672C89.1133 107.672 88.082 107.195 86.5195 106.242C86.4023 106.242 85.8359 105.887 84.8203 105.176C84.4062 105.035 84.0156 104.824 83.6484 104.543C83.2656 104.543 82.7734 103.957 82.1719 102.785L82.0664 102.246V101.449L81.8438 100.758V100.5L82.2773 99.2227L82.3242 99.1641V98.5781L83.332 97.1953L83.7539 96.0352L83.9766 95.8711H84.1289L84.293 95.9766H84.3398C84.4414 95.625 84.5664 95.4492 84.7148 95.4492L84.7734 95.4961H84.8203C85.1172 95.3555 85.3125 95.1953 85.4062 95.0156C85.2188 94.8203 85.1133 94.5742 85.0898 94.2773L85.1367 94.2188H85.1953L85.4062 94.2773L85.4648 94.2188H85.5117L85.8281 94.3242L86.0977 94.1133L85.9922 94.0078L86.0508 93.9609V93.9023L85.8867 93.7383V93.6914C86.2539 93.3711 86.5898 93.2109 86.8945 93.2109C86.8945 93.1016 87.1797 92.9062 87.75 92.625C87.75 92.5156 87.9102 92.375 88.2305 92.2031C88.2305 92.0078 88.5664 91.8281 89.2383 91.6641C89.2695 91.5625 89.375 91.5117 89.5547 91.5117ZM85.4648 92.9414H85.5703L85.6758 93.0469L85.5117 93.1523L85.4648 93.1055V92.9414ZM84.8789 93.7969H84.9258L85.0312 93.9023L84.7734 94.0078L84.7148 93.9609V93.9023L84.8789 93.7969ZM95.7188 94.2188L95.7773 94.2773V94.3828H95.6133V94.3242L95.7188 94.2188ZM84.7148 94.2773C84.8242 94.2773 84.8789 94.3477 84.8789 94.4883C84.8398 94.6992 84.7852 94.8047 84.7148 94.8047H84.6094C84.5391 94.8047 84.5039 94.7148 84.5039 94.5352H84.3984V94.4297C84.4297 94.3281 84.5352 94.2773 84.7148 94.2773ZM96.7383 94.5938H96.8906L96.9961 94.6992L96.8438 94.8633L96.6328 94.6992L96.7383 94.5938ZM83.7539 95.0156H83.8125L83.918 95.1211L83.8594 95.1797H83.7539V95.0156ZM96.7852 95.8711V95.918L96.8438 95.8711H96.8906L97.0547 96.0352L96.8906 96.1875H96.6328L96.5273 96.082V96.0352C96.5273 95.9492 96.6133 95.8945 96.7852 95.8711ZM93.8086 96.6094H93.9141L93.9727 96.8789C93.8867 96.8789 93.832 96.7891 93.8086 96.6094ZM92.6953 96.8789V97.043H92.5898V96.9844L92.6953 96.8789ZM94.7109 96.9375H94.8164L94.9219 97.043L94.8164 97.1484L94.7109 96.9844V96.9375ZM90.9375 97.3594L91.3125 97.7344L91.3594 97.6758H91.5703C91.5703 97.7461 91.5 97.7812 91.3594 97.7812V97.8398C91.5781 97.8711 91.6875 97.9219 91.6875 97.9922L91.5234 98.0508L91.6875 98.2617V98.3203L91.5703 98.4258C91.1484 97.9102 90.9375 97.5742 90.9375 97.418V97.3594ZM87.3164 97.4648H87.4336L87.6914 97.5234V97.6289H87.6445C87.457 97.6289 87.3477 97.5742 87.3164 97.4648ZM92.5898 97.4648L92.7422 97.6289V97.7812L92.6367 97.8867H92.4844L92.2617 97.6758V97.6289C92.3008 97.5195 92.4102 97.4648 92.5898 97.4648ZM96.7383 97.5234H96.7852L96.9492 97.5703V97.6758H96.8438L96.7383 97.5703V97.5234ZM87.5859 98.2617H87.6445L87.75 98.3672L87.5859 98.4727H87.4805V98.3672L87.5859 98.2617ZM88.6992 98.3203L88.8164 98.4258L87.75 98.8008V98.6836L88.6992 98.3203ZM86.625 98.3672C86.7734 98.4375 86.8477 98.543 86.8477 98.6836L86.625 98.4727V98.3672ZM94.2891 98.3672L94.3945 98.4727V98.7422L94.6641 98.6836L94.7695 98.8008C94.7695 98.6914 94.8047 98.6367 94.875 98.6367L94.9219 98.6836H94.9805L95.1914 98.4727V98.5312C95.0898 98.7422 94.9648 98.8477 94.8164 98.8477V98.9062C94.9258 98.9062 94.9805 98.9414 94.9805 99.0117V99.0586C94.8477 99.3086 94.707 99.4336 94.5586 99.4336C94.168 99.3398 93.9727 99.2344 93.9727 99.1172C94.0352 99.1172 94.0859 99.0273 94.125 98.8477C94.2344 98.8477 94.2891 98.8125 94.2891 98.7422L94.125 98.4727L94.2891 98.3672ZM96.1992 98.4727H96.3047L96.4102 98.5781V98.6367L96.2578 98.8008C96.1172 98.7461 96.0469 98.6914 96.0469 98.6367L96.1992 98.4727ZM91.7344 98.5312C91.8672 98.5312 91.9922 98.6367 92.1094 98.8477V98.9531L92.0039 99.0586C91.7539 99.0586 91.6289 98.8984 91.6289 98.5781L91.6875 98.5312H91.7344ZM87.1641 98.6367L87.2695 98.7422L87.1055 98.8008V98.9062L87.2109 99.0117L87.4805 98.9531V99.0117L87.2695 99.375L87.3164 99.4336V99.5391C87.2461 99.5391 87.2109 99.5938 87.2109 99.7031L86.8945 99.9609L86.4141 99.75L86.3086 99.8555H86.2617V99.8086L86.3086 99.75V99.7031C86.1758 99.5625 86.0703 99.4922 85.9922 99.4922L86.0508 99.4336V99.3281H85.8867C85.9961 99.1172 86.1562 99.0117 86.3672 99.0117L86.4727 99.1172H86.625L86.7422 99.0117C86.6328 99.0117 86.5781 98.9766 86.5781 98.9062V98.8008H86.7422L86.7891 98.8477H86.8477V98.6836L87 98.8008L87.1641 98.6367ZM93.3867 99.3281H93.5391L93.2227 99.5977L93.0703 99.4336L93.3867 99.3281ZM85.6172 99.5977L85.7227 99.7031V99.75L85.6172 99.6445V99.5977ZM95.9414 99.7031L95.9883 99.75V99.8086L95.8828 99.9141L95.7773 99.8086L95.9414 99.7031ZM89.3438 99.8555H89.6133L89.7188 99.9609V100.02L89.6133 100.125H89.5078L89.3438 99.9609V99.8555ZM95.6719 100.652H95.7773L95.8828 100.758L95.7773 100.875H95.6719L95.5664 100.758L95.6719 100.652ZM95.8828 102.094H95.9414L95.7773 102.246L95.8359 102.305V102.41L95.7773 102.469L95.8359 102.516V102.574C95.7969 102.676 95.6875 102.727 95.5078 102.727H95.4609L95.2969 102.574V102.41L95.3555 102.363L95.2969 102.305V102.199L95.6133 102.141L95.7773 102.199L95.8828 102.094ZM96.7852 102.832H96.8438C96.9141 102.832 96.9492 102.887 96.9492 102.996L96.9961 103.055H97.0547L97.1602 102.938V102.996L97.0547 103.16V103.207L97.1016 103.266V103.312L97.0547 103.371H96.9961L96.6797 103.266C96.7266 103.086 96.7812 102.996 96.8438 102.996L96.7852 102.938V102.832ZM94.3945 103.055H94.4531L94.5586 103.16L94.3945 103.266L94.2891 103.16L94.3945 103.055ZM95.9883 103.055H96.1523L96.2578 103.16L96.1992 103.207H96.0938L95.9883 103.102V103.055ZM93.8672 103.102L93.9727 103.207L93.9141 103.266H93.8672L93.7617 103.16L93.8086 103.102H93.8672ZM95.2969 103.312L95.4023 103.477V103.582L95.2969 103.688H95.0273C94.9492 103.578 94.7734 103.523 94.5 103.523L94.4531 103.477V103.418L94.5 103.371H94.5586L95.0273 103.418L95.2969 103.312ZM95.6719 104.004H95.7773V104.168L95.6719 104.062V104.004ZM94.2305 104.859H94.2891L95.2969 105.703L95.25 105.762H95.1445L94.2305 104.859ZM95.5078 105.867H95.5664C95.707 105.922 95.7773 105.977 95.7773 106.031V106.078H95.7188L95.5078 105.867ZM93.2812 106.512L93.3281 106.559H93.3867L93.5977 106.512L93.6445 106.664L93.8086 106.559H93.8672L93.9727 106.664L93.3867 106.934C93.3867 106.863 93.332 106.828 93.2227 106.828L93.1758 106.77V106.617L93.2812 106.512ZM95.3555 106.512L95.4023 106.559V106.617L95.3555 106.664H95.2969L95.25 106.617V106.559L95.2969 106.512H95.3555ZM94.7109 106.559L94.8164 106.664L94.7109 106.77L94.6055 106.617L94.6641 106.559H94.7109ZM94.1836 107.039H94.3945L94.6055 107.461L94.3945 107.625H94.2891L94.0195 107.52V107.203L94.1836 107.039ZM93.9141 107.625H93.9727L94.0781 107.73V107.777L93.9727 107.895L93.8086 107.73L93.9141 107.625ZM92.9062 108C93.0469 108.047 93.1172 108.098 93.1172 108.152L93.0117 108.258H92.9531L92.7422 108.047L92.9062 108ZM91.207 109.371L91.3594 109.535V109.688H91.3125L91.1016 109.477L91.207 109.371Z" fill="white"/>
<g clip-path="url(#clip0_14_336)">
<rect x="28" y="117" width="85" height="85" fill="#0F104C" fill-opacity="0.5"/>
<path d="M28.2 185.2H44.8V201.8H28.2V185.2Z" stroke="#5F0D16" stroke-width="0.4"/>
<path d="M28.2 168.2H44.8V184.8H28.2V168.2Z" stroke="#5F0D16" stroke-width="0.4"/>
<path d="M28.2 151.2H44.8V167.8H28.2V151.2Z" fill="white"/>
<path d="M28.2 151.2H44.8V167.8H28.2V151.2Z" stroke="#5F0D16" stroke-width="0.4"/>
<path d="M28.2 134.2H44.8V150.8H28.2V134.2Z" stroke="#5F0D16" stroke-width="0.4"/>
<path d="M28.2 117.2H44.8V133.8H28.2V117.2Z" stroke="#5F0D16" stroke-width="0.4"/>
<path d="M45.2 185.2H61.8V201.8H45.2V185.2Z" stroke="#5F0D16" stroke-width="0.4"/>
<path d="M45.2 168.2H61.8V184.8H45.2V168.2Z" stroke="#5F0D16" stroke-width="0.4"/>
<path d="M45.2 151.2H61.8V167.8H45.2V151.2Z" stroke="#5F0D16" stroke-width="0.4"/>
<path d="M45.2 134.2H61.8V150.8H45.2V134.2Z" fill="white"/>
<path d="M45.2 134.2H61.8V150.8H45.2V134.2Z" stroke="#5F0D16" stroke-width="0.4"/>
<path d="M45.2 117.2H61.8V133.8H45.2V117.2Z" stroke="#5F0D16" stroke-width="0.4"/>
<path d="M62.2 185.2H78.8V201.8H62.2V185.2Z" stroke="#5F0D16" stroke-width="0.4"/>
<path d="M62.2 168.2H78.8V184.8H62.2V168.2Z" stroke="#5F0D16" stroke-width="0.4"/>
<path d="M62.2 151.2H78.8V167.8H62.2V151.2Z" fill="#EB1E1E"/>
<path d="M62.2 151.2H78.8V167.8H62.2V151.2Z" stroke="#5F0D16" stroke-width="0.4"/>
<path d="M62.2 134.2H78.8V150.8H62.2V134.2Z" stroke="#5F0D16" stroke-width="0.4"/>
<path d="M62.2 117.2H78.8V133.8H62.2V117.2Z" stroke="#5F0D16" stroke-width="0.4"/>
<path d="M79.2 185.2H95.8V201.8H79.2V185.2Z" stroke="#5F0D16" stroke-width="0.4"/>
<path d="M79.2 168.2H95.8V184.8H79.2V168.2Z" fill="white"/>
<path d="M79.2 168.2H95.8V184.8H79.2V168.2Z" stroke="#5F0D16" stroke-width="0.4"/>
<path d="M79.2 151.2H95.8V167.8H79.2V151.2Z" stroke="#5F0D16" stroke-width="0.4"/>
<path d="M79.2 134.2H95.8V150.8H79.2V134.2Z" stroke="#5F0D16" stroke-width="0.4"/>
<path d="M79.2 117.2H95.8V133.8H79.2V117.2Z" stroke="#5F0D16" stroke-width="0.4"/>
<path d="M96.2 185.2H112.8V201.8H96.2V185.2Z" stroke="#5F0D16" stroke-width="0.4"/>
<path d="M96.2 168.2H112.8V184.8H96.2V168.2Z" stroke="#5F0D16" stroke-width="0.4"/>
<path d="M96.2 151.2H112.8V167.8H96.2V151.2Z" stroke="#5F0D16" stroke-width="0.4"/>
<path d="M96.2 134.2H112.8V150.8H96.2V134.2Z" stroke="#5F0D16" stroke-width="0.4"/>
<path d="M96.2 117.2H112.8V133.8H96.2V117.2Z" stroke="#5F0D16" stroke-width="0.4"/>
</g>
<rect x="28.5" y="117.5" width="84" height="84" stroke="url(#paint1_linear_14_336)"/>
<defs>
<linearGradient id="paint0_linear_14_336" x1="70.5" y1="17" x2="70.5" y2="83" gradientUnits="userSpaceOnUse">
<stop stop-color="#123BD5"/>
<stop offset="1" stop-color="#CD2237"/>
</linearGradient>
<linearGradient id="paint1_linear_14_336" x1="31.7979" y1="120.436" x2="138.59" y2="226.777" gradientUnits="userSpaceOnUse">
<stop stop-color="#B17BFF"/>
<stop offset="1" stop-color="#FF0751"/>
</linearGradient>
<clipPath id="clip0_14_336">
<rect x="28" y="117" width="85" height="85" fill="white"/>
</clipPath>
</defs>
</svg>
