<svg width="142" height="218" viewBox="0 0 142 218" fill="none" xmlns="http://www.w3.org/2000/svg">
<rect x="0.5" y="0.5" width="141" height="217" rx="4.5" fill="#191515"/>
<rect x="0.5" y="0.5" width="141" height="217" rx="4.5" stroke="#B17BFF"/>
<path d="M50.92 78.312V77.8L50.408 76.328L49.192 75.816L48.936 75.048H48.424V74.344L51.368 72.552C51.88 70.76 52.392 68.968 52.904 67.112C53.352 65.32 53.608 63.4 53.608 61.416L52.904 60.968V59.944H50.92C48.232 60.264 45.608 60.776 42.984 61.288C40.296 61.864 37.672 62.312 34.984 62.632L31.592 61.16L31.336 60.2H32.04V59.432L30.824 56.424C31.144 55.656 31.464 54.824 31.656 54.056C31.912 53.352 31.976 52.52 31.784 51.496L31.08 50.024L27.56 47.976H30.312L31.592 48.232V47.72C33.384 47.592 35.112 47.336 36.84 46.888C38.44 46.504 39.912 45.864 41.256 45.032L39.016 44.072V43.816C40.168 43.624 41.32 43.368 42.344 43.048C43.432 42.728 44.52 42.344 45.672 42.088L49.448 43.56L49.96 44.84L49.704 45.288L47.912 45.8L46.44 53.48H46.952L49.704 52.52L49.96 52.008H50.408L54.888 53.224V54.504C53.16 54.824 51.624 55.08 50.088 55.336C48.488 55.592 46.952 55.976 45.416 56.68L43.176 56.424C41.896 56.744 40.552 57.128 39.272 57.576C37.928 58.024 36.52 58.152 34.984 57.96L33.832 57.704V59.688L34.088 60.456H34.536C37.864 59.752 41.192 59.112 44.648 58.536C47.976 58.024 51.432 57.448 54.888 56.936L56.616 57.192V57.448L60.072 58.408L60.328 59.688L60.072 60.2L58.344 60.712C57.384 63.528 56.424 66.28 55.528 69.032C54.568 71.848 53.672 74.728 52.904 77.544L50.92 78.312ZM29.288 75.304L25.896 72.296C25.384 71.336 24.68 70.504 23.72 69.8C22.824 69.16 22.056 68.456 21.352 67.624H21.608C22.952 68.136 24.296 68.584 25.64 68.968C26.92 69.416 28.072 70.12 29.032 71.08L30.312 74.536L29.8 75.304H29.288ZM35.24 73.576L32.04 71.08L28.84 67.112H29.288C29.992 67.304 30.696 67.496 31.464 67.752C32.168 68.008 32.808 68.392 33.32 68.904V69.352H33.832L35.752 72.808L35.24 73.576ZM41.512 71.592C40.168 71.272 39.08 70.504 38.12 69.416C37.16 68.392 36.2 67.432 34.984 66.6V66.344H36.008C36.84 66.536 37.672 66.728 38.632 66.984C39.592 67.24 40.296 67.816 41 68.648L42.024 70.824L41.768 71.592H41.512ZM48.68 69.864C47.528 69.16 46.568 68.328 45.8 67.112C45.032 65.96 44.392 64.872 43.688 63.848H43.944L47.912 66.152L49.192 68.904L48.68 69.864ZM37.032 53.992L36.776 53.736L34.088 54.504V55.464L34.984 55.912L44.2 53.992V53.224L43.944 52.52H43.176L37.032 53.992ZM42.728 50.28V49.256L42.472 48.232H41.256L34.792 49.512V50.28L34.984 51.496H36.776L42.728 50.28ZM29.288 47.016V46.504L30.312 46.056V45.544L34.344 41.832V40.808L33.32 40.552L35.24 39.784V39.336C36.072 39.528 36.776 39.272 37.224 38.696C37.736 38.12 38.248 37.608 38.76 37.096L41.768 32.36L41 31.144L39.72 30.44L38.504 28.712H37.736L37.48 29.416C36.328 29.416 35.24 29.608 34.344 29.928C33.32 30.248 32.296 30.696 31.336 31.144L31.08 34.152H31.592L33.576 32.616C32.232 34.152 31.336 35.752 30.824 37.544C30.312 39.4 29.864 41.256 29.544 43.048H28.84L27.56 40.552H27.048C26.152 41.384 25.064 42.152 23.976 42.792C22.952 43.496 21.8 43.88 20.648 44.072L19.88 41.32L20.392 40.04H21.352L22.632 40.296L28.584 36.392L28.84 34.344L28.584 33.128H27.816C26.664 33.64 25.512 34.216 24.232 34.856C23.016 35.56 21.672 35.944 20.392 36.136L19.368 34.152H18.92V33.64H18.664V33.384C19.304 33.192 19.816 32.808 20.264 32.232C20.712 31.656 21.16 31.464 21.864 31.656L23.656 31.848L27.048 30.44V29.672L25.896 29.16V28.2H27.816L30.568 28.456C31.592 27.624 32.68 27.176 33.96 27.176C35.112 27.176 36.264 26.92 37.224 26.408V25.96L34.984 21.992L34.344 20.776L34.536 20.264H35.752L38.248 20.968C38.056 21.8 38.184 22.568 38.632 23.208C39.08 23.848 39.272 24.616 39.272 25.448H39.72C40.424 24.936 41.064 24.488 41.768 24.168C42.408 23.848 43.112 23.656 43.944 23.656L47.464 24.68V25.96C46.12 25.768 44.968 25.896 43.88 26.344C42.792 26.728 41.768 27.112 40.744 27.432V28.456L43.176 30.44L43.688 28.712H43.176V28.456H43.944L46.44 29.672L46.696 31.144L45.416 32.616H44.968V33.896L46.696 35.88V36.392L47.656 36.904L49.96 38.568L50.92 36.392H51.624C51.816 37.544 52.2 38.568 52.776 39.464C53.288 40.36 53.8 41.32 54.12 42.344L53.864 43.048H53.096C51.496 42.536 50.024 41.768 48.68 40.68C47.4 39.656 46.12 38.44 44.968 37.096L43.176 34.856H42.472L41.256 36.136H40.744L38.248 39.784L40.744 40.808L41 41.576L40.488 42.536C38.824 42.728 37.224 43.176 35.816 43.944C34.344 44.712 32.808 45.48 31.336 46.312L31.08 46.76L29.288 47.016ZM23.848 27.432L23.656 26.92C24.296 26.28 25 25.576 25.768 24.808C26.472 24.04 26.92 23.208 27.048 22.248L26.856 21.736L28.584 21.48L32.808 22.696L33.064 23.656L32.808 24.168C31.144 24.36 29.544 24.744 28.136 25.32C26.6 25.896 25.192 26.6 23.848 27.432ZM53.608 25.448C53.096 25.128 52.584 24.808 51.944 24.552C51.24 24.296 50.6 24.232 49.96 24.424V23.656L50.216 22.504L48.936 21.224H49.192C50.024 21.416 50.856 21.672 51.688 21.992C52.52 22.312 53.16 22.824 53.864 23.464L54.12 25.448H53.608ZM113 77.48C112.808 76.84 112.488 76.136 111.912 75.496C111.4 74.856 111.208 74.152 111.336 73.32L111.528 72.872L112.744 72.68C114.088 69.736 114.92 66.728 115.432 63.592C115.88 60.456 116.328 57.256 116.776 54.056C116.456 53.608 116.136 53.416 115.816 53.416C115.496 53.416 115.112 53.416 114.664 53.416C111.848 54.12 109.096 55.016 106.408 55.912C103.656 56.936 100.968 57.96 98.152 58.856L96.424 57.832V57.448H96.04L94.568 55.336L93.096 53.416L92.712 50.728C93.096 49.768 93.288 48.616 93.288 47.4C93.288 46.12 93.288 44.968 93.288 43.816C93.032 42.664 92.52 41.704 91.688 40.744C90.792 39.848 89.96 38.952 89.128 37.928H89.384L93.096 39.208L96.232 36.328V36.52L95.016 40.68H95.784L104.808 37.736L105.064 35.432H104.616C104.168 35.88 103.72 36.072 103.208 36.072C102.632 36.072 102.056 36.072 101.48 36.072V35.688L98.984 34.216V33.768H98.536C99.944 33.64 101.224 33.256 102.568 32.68C103.784 32.104 105.128 31.656 106.472 31.272L106.92 30.632L108.84 31.08L109.416 30.888C110.376 31.336 111.336 31.72 112.168 32.168C113 32.68 113.896 33.32 114.664 34.024L114.856 35.24C114.344 35.56 113.704 35.624 112.936 35.432C112.104 35.304 111.592 35.496 111.144 36.072C110.696 36.904 110.44 37.736 110.312 38.696C110.12 39.656 109.992 40.488 109.864 41.32C110.312 41.32 110.76 41.32 111.272 41.384C111.656 41.448 112.04 41.64 112.36 41.96V42.344L109.416 43.368L108.008 46.12L107.112 46.312C106.792 46.184 106.472 46.12 106.088 46.12C105.64 46.12 105.384 45.928 105.256 45.48V45.032H103.976L97.32 47.592C97 47.848 96.872 48.232 96.872 48.68C96.872 49.192 96.872 49.64 96.872 50.088H98.344C101.416 49.256 104.424 48.296 107.432 47.4C110.44 46.44 113.576 45.672 116.776 45.224C117.544 45.224 118.376 45.352 119.08 45.672C119.72 45.992 120.424 46.248 121.128 46.568L121.384 47.4C117.032 47.912 112.872 48.808 108.968 50.088C104.936 51.368 100.904 52.456 96.68 53.224L96.232 55.528H96.872C100.2 54.248 103.656 53.16 107.112 52.392C110.632 51.56 114.28 50.984 117.992 50.728L124.712 53.224V53.608L125.288 53.864L125.544 54.696L122.792 56.168C122.344 57.448 122.024 58.6 121.576 59.816C121.128 60.968 120.808 62.312 120.488 63.656L119.528 64.104C119.08 66.472 118.056 68.648 116.52 70.568C114.856 72.488 114.152 74.792 114.28 77.48H113ZM92.712 72.488C91.88 72.488 91.048 72.36 90.344 72.104C89.512 71.912 88.872 71.528 88.296 70.824L84.968 66.6C84.136 66.408 83.368 66.216 82.728 65.768C82.152 65.32 81.448 64.872 80.744 64.296L80.36 63.528H80.744C82.536 63.912 84.456 64.232 86.248 64.488C88.04 64.808 89.64 65.576 90.984 66.792L93.096 72.232L92.712 72.488ZM97.96 68.52C97.256 68.2 96.552 67.816 95.848 67.304C95.208 66.856 94.504 66.344 93.928 65.768L93.096 64.936V64.488L92.328 64.296V63.848H92.072L95.464 63.656L98.728 65.384C99.048 65.96 99.432 66.344 99.944 66.792C100.392 67.24 100.648 67.816 100.648 68.52H97.96ZM102.76 65.128L99.624 62.632L102.504 62.44L106.088 64.296V64.936L102.76 65.128ZM109.864 62.888L107.56 60.584V59.944H108.008C108.712 60.072 109.288 60.264 109.864 60.456C110.44 60.648 110.952 60.968 111.528 61.352L111.72 61.992L109.864 62.888ZM104.168 42.344L104.616 40.68H104.168C103.08 41.256 101.864 41.576 100.648 41.704C99.368 41.896 98.152 42.088 96.872 42.344V42.728L97.064 44.648H97.768L104.168 42.344ZM91.88 36.712L91.624 36.52C92.328 35.048 93.032 33.704 93.608 32.296C94.248 30.952 94.76 29.48 95.208 27.944L95.016 26.408L96.68 23.528L97.512 23.336C98.344 24.104 99.24 24.68 100.328 24.872C101.352 25.064 102.376 25.512 103.4 26.088L103.976 27.496C103.208 28.968 102.12 30.12 100.904 31.08C99.624 31.976 98.344 33 96.872 34.024L94.184 34.792L93.288 35.88L91.88 36.712Z" fill="url(#paint0_linear_14_487)"/>
<path d="M44.7305 91.5117L46.4883 92.0977C46.9492 92.0977 47.4609 92.2734 48.0234 92.625L48.7148 93C48.7148 93.25 48.8594 93.375 49.1484 93.375C49.2969 93.5547 49.5078 93.9609 49.7812 94.5938L49.9922 94.6523C50.0312 94.5039 50.2109 94.3789 50.5312 94.2773L50.6367 94.3828V94.4883C50.6367 94.5586 50.5117 94.5938 50.2617 94.5938V94.6523C50.3633 94.6523 50.4531 94.7227 50.5312 94.8633L50.4727 94.9102H50.4258L50.1562 94.8633L50.0977 94.9102V94.9688L50.6367 95.1797L50.7891 95.1211L50.8477 95.1797L50.9531 95.0742L51.0117 95.1211L50.9531 95.3906L51.3281 95.6602H51.4805C51.4805 95.4492 51.6055 95.3438 51.8555 95.3438L51.9141 95.3906V95.6016C51.8438 95.7422 51.7344 95.8125 51.5859 95.8125L51.4805 95.707C51.3398 95.8711 51.2695 95.9961 51.2695 96.082H51.1641C50.9297 96.082 50.7539 95.8867 50.6367 95.4961L50.3672 95.4492L50.0977 95.4961C49.6055 95.3398 49.3594 95.1797 49.3594 95.0156L49.4062 94.9688L49.1953 94.8047C49.1016 94.875 48.9414 94.9102 48.7148 94.9102L48.7734 94.9688V95.0156L48.668 95.1211C48.668 95.2539 48.8789 95.3438 49.3008 95.3906C49.4961 95.8203 49.7461 96.0352 50.0508 96.0352L50.2031 96.1875V96.2461L49.9453 96.5039H49.8867C49.7852 96.4023 49.5898 96.3164 49.3008 96.2461V96.3516L49.4062 96.5039H49.3008L49.1484 96.3984H49.0898C49.0898 96.5078 49.0547 96.5625 48.9844 96.5625C48.9844 96.5078 48.8594 96.4375 48.6094 96.3516L48.457 96.5625L48.293 96.457C48.293 96.6445 48.1523 96.7695 47.8711 96.832V96.7266H47.6016L47.4375 96.5625L47.6602 96.3516L47.6016 96.293L47.6602 96.0352L47.5547 95.918H47.4961L47.1797 96.0352V96.1406L47.332 96.3516V96.457C47.332 96.5273 47.2617 96.5625 47.1211 96.5625V96.6094L47.2852 96.9844H47.2266L47.0742 96.8789H47.0156L47.1211 97.043V97.0898C47.1211 97.1602 47.0352 97.1953 46.8633 97.1953V97.3008C46.5039 97.2773 46.3242 97.1914 46.3242 97.043C46.3242 96.9023 46.4297 96.832 46.6406 96.832V96.7734L46.6992 96.1406L46.4297 95.9766C46.2891 96.1328 46.2188 96.2578 46.2188 96.3516L46.4297 96.5039V96.6094L46.3828 96.668V96.7266L46.3242 96.668H46.2188C46.1172 97.0586 46.0273 97.2891 45.9492 97.3594C45.8086 97.3594 45.7227 97.2188 45.6914 96.9375L45.6328 96.8789H45.5859L45.1055 97.1484H44.8945C44.8945 97.0625 45.0352 96.9727 45.3164 96.8789C45.3164 96.668 45.3867 96.5625 45.5273 96.5625V96.457C45.3164 96.457 45.1758 96.3867 45.1055 96.2461L44.2031 96.0352H43.7695C43.5898 96.0352 43.3789 96.1562 43.1367 96.3984H43.0781V96.668L42.2812 97.418L42.3398 97.4648L41.7539 97.6758V97.8398L41.9648 97.8867C41.8945 98.1055 41.8242 98.2148 41.7539 98.2148L41.8008 98.2617V98.3672L41.6484 98.2617H41.2734C41.2734 98.3398 41.0977 98.5547 40.7461 98.9062L40.8984 99.0586L40.582 99.2227L40.7461 99.5391C40.5664 99.4375 40.4766 99.332 40.4766 99.2227C40.4219 99.2227 40.332 99.3828 40.207 99.7031C40.082 99.7891 39.9219 100 39.7266 100.336V100.5L39.8438 100.652V100.922C39.7266 101.219 39.457 101.66 39.0352 102.246V102.363C39.2539 102.363 39.3633 102.484 39.3633 102.727L40.6406 103.266L42.4922 104.004C42.8906 104.004 43.1602 104.148 43.3008 104.438L43.7227 104.648H43.9922C44.1094 104.648 44.2305 104.594 44.3555 104.484H44.7305L44.8945 104.59H45.1055L45.1523 104.543H45.2109L45.1523 104.484V104.438C45.582 104.211 45.7969 104.066 45.7969 104.004L46.0078 103.477L45.6328 103.16C45.2734 103.16 44.8672 103.355 44.4141 103.746L43.6172 104.109L43.5586 104.062V104.004L44.0391 103.477C43.8594 103.477 43.7695 103.422 43.7695 103.312L43.9336 103.266L44.3555 103.312C44.3555 103.203 44.7305 102.848 45.4805 102.246V102.199H45.2578L45.3633 102.094L45.5273 102.141C45.8789 101.898 46.0547 101.617 46.0547 101.297L46.1133 101.238H46.1719L46.2188 101.449C46.3906 101.309 46.7266 101.203 47.2266 101.133C47.8125 100.766 48.1523 100.5 48.2461 100.336C48.3633 100.312 48.4688 100.207 48.5625 100.02V99.9609L48.5039 99.9141V99.8555C48.7539 99.5742 48.9141 99.4336 48.9844 99.4336C49.1953 99.4336 49.4102 99.5039 49.6289 99.6445C49.6289 99.582 50 99.4219 50.7422 99.1641L50.7891 99.1172L50.8945 99.2227V99.3281L50.5312 99.4922V99.4336L50.3203 99.5977L50.4258 99.7031L50.4727 99.6445H50.5312C50.5312 99.8242 50.6523 99.9492 50.8945 100.02V100.066C50.8242 100.285 50.7539 100.395 50.6836 100.395H50.5781C50.5234 100.395 50.4727 100.27 50.4258 100.02H50.3672C50.3047 100.02 50.25 100.109 50.2031 100.289L50.4258 100.5L50.3672 100.547C50.4766 100.547 50.5312 100.617 50.5312 100.758L50.4727 100.922L50.5781 101.027V101.449C50.5781 101.52 50.4727 101.574 50.2617 101.613C50.1914 101.402 50.1211 101.297 50.0508 101.297L49.8867 101.613C49.957 101.613 49.9922 101.719 49.9922 101.93L50.1562 101.988V102.363L49.7812 102.832H49.7344C49.6016 102.59 49.4414 102.469 49.2539 102.469L48.8789 102.832L48.9375 102.996H48.8789C48.6992 102.996 48.6094 103.086 48.6094 103.266C48.6094 103.406 48.8242 103.492 49.2539 103.523L49.5117 103.418V103.523C49.4023 103.523 49.2812 103.598 49.1484 103.746H48.9844L48.8203 103.629L48.8789 103.898V103.957H48.8203L48.668 103.898V104.062C48.8945 104.062 49.0195 104.113 49.043 104.215V104.32H48.9375V104.379L49.2539 104.754H49.1953L48.8203 104.438C48.75 104.438 48.7148 104.383 48.7148 104.273H48.668L48.6094 104.438L48.668 104.484V104.543C48.668 104.613 48.543 104.664 48.293 104.695L48.1289 105.012L48.293 105.176C48.293 105.246 48.2031 105.281 48.0234 105.281L48.082 105.34V105.492C47.8633 105.492 47.7031 105.812 47.6016 106.453L47.7656 106.512V106.617L47.6602 106.828L47.707 107.25L47.6602 107.309H47.6016L47.4961 107.145L47.5547 107.086V107.039L47.4375 106.723C47.375 106.723 47.1445 106.953 46.7461 107.414C46.668 107.484 46.5469 107.52 46.3828 107.52V107.625H46.3242L46.3828 107.672V107.73L46.0547 108.152C46.1172 108.527 46.1914 108.758 46.2773 108.844V108.996L46.1719 109.102C46.0938 109.055 46.0391 108.754 46.0078 108.199L45.9492 108L45.9023 107.941H45.5859V108.152H45.4805C45.4805 107.926 45.25 107.766 44.7891 107.672C44.2891 107.672 43.2578 107.195 41.6953 106.242C41.5781 106.242 41.0117 105.887 39.9961 105.176C39.582 105.035 39.1914 104.824 38.8242 104.543C38.4414 104.543 37.9492 103.957 37.3477 102.785L37.2422 102.246V101.449L37.0195 100.758V100.5L37.4531 99.2227L37.5 99.1641V98.5781L38.5078 97.1953L38.9297 96.0352L39.1523 95.8711H39.3047L39.4688 95.9766H39.5156C39.6172 95.625 39.7422 95.4492 39.8906 95.4492L39.9492 95.4961H39.9961C40.293 95.3555 40.4883 95.1953 40.582 95.0156C40.3945 94.8203 40.2891 94.5742 40.2656 94.2773L40.3125 94.2188H40.3711L40.582 94.2773L40.6406 94.2188H40.6875L41.0039 94.3242L41.2734 94.1133L41.168 94.0078L41.2266 93.9609V93.9023L41.0625 93.7383V93.6914C41.4297 93.3711 41.7656 93.2109 42.0703 93.2109C42.0703 93.1016 42.3555 92.9062 42.9258 92.625C42.9258 92.5156 43.0859 92.375 43.4062 92.2031C43.4062 92.0078 43.7422 91.8281 44.4141 91.6641C44.4453 91.5625 44.5508 91.5117 44.7305 91.5117ZM40.6406 92.9414H40.7461L40.8516 93.0469L40.6875 93.1523L40.6406 93.1055V92.9414ZM40.0547 93.7969H40.1016L40.207 93.9023L39.9492 94.0078L39.8906 93.9609V93.9023L40.0547 93.7969ZM50.8945 94.2188L50.9531 94.2773V94.3828H50.7891V94.3242L50.8945 94.2188ZM39.8906 94.2773C40 94.2773 40.0547 94.3477 40.0547 94.4883C40.0156 94.6992 39.9609 94.8047 39.8906 94.8047H39.7852C39.7148 94.8047 39.6797 94.7148 39.6797 94.5352H39.5742V94.4297C39.6055 94.3281 39.7109 94.2773 39.8906 94.2773ZM51.9141 94.5938H52.0664L52.1719 94.6992L52.0195 94.8633L51.8086 94.6992L51.9141 94.5938ZM38.9297 95.0156H38.9883L39.0938 95.1211L39.0352 95.1797H38.9297V95.0156ZM51.9609 95.8711V95.918L52.0195 95.8711H52.0664L52.2305 96.0352L52.0664 96.1875H51.8086L51.7031 96.082V96.0352C51.7031 95.9492 51.7891 95.8945 51.9609 95.8711ZM48.9844 96.6094H49.0898L49.1484 96.8789C49.0625 96.8789 49.0078 96.7891 48.9844 96.6094ZM47.8711 96.8789V97.043H47.7656V96.9844L47.8711 96.8789ZM49.8867 96.9375H49.9922L50.0977 97.043L49.9922 97.1484L49.8867 96.9844V96.9375ZM46.1133 97.3594L46.4883 97.7344L46.5352 97.6758H46.7461C46.7461 97.7461 46.6758 97.7812 46.5352 97.7812V97.8398C46.7539 97.8711 46.8633 97.9219 46.8633 97.9922L46.6992 98.0508L46.8633 98.2617V98.3203L46.7461 98.4258C46.3242 97.9102 46.1133 97.5742 46.1133 97.418V97.3594ZM42.4922 97.4648H42.6094L42.8672 97.5234V97.6289H42.8203C42.6328 97.6289 42.5234 97.5742 42.4922 97.4648ZM47.7656 97.4648L47.918 97.6289V97.7812L47.8125 97.8867H47.6602L47.4375 97.6758V97.6289C47.4766 97.5195 47.5859 97.4648 47.7656 97.4648ZM51.9141 97.5234H51.9609L52.125 97.5703V97.6758H52.0195L51.9141 97.5703V97.5234ZM42.7617 98.2617H42.8203L42.9258 98.3672L42.7617 98.4727H42.6562V98.3672L42.7617 98.2617ZM43.875 98.3203L43.9922 98.4258L42.9258 98.8008V98.6836L43.875 98.3203ZM41.8008 98.3672C41.9492 98.4375 42.0234 98.543 42.0234 98.6836L41.8008 98.4727V98.3672ZM49.4648 98.3672L49.5703 98.4727V98.7422L49.8398 98.6836L49.9453 98.8008C49.9453 98.6914 49.9805 98.6367 50.0508 98.6367L50.0977 98.6836H50.1562L50.3672 98.4727V98.5312C50.2656 98.7422 50.1406 98.8477 49.9922 98.8477V98.9062C50.1016 98.9062 50.1562 98.9414 50.1562 99.0117V99.0586C50.0234 99.3086 49.8828 99.4336 49.7344 99.4336C49.3438 99.3398 49.1484 99.2344 49.1484 99.1172C49.2109 99.1172 49.2617 99.0273 49.3008 98.8477C49.4102 98.8477 49.4648 98.8125 49.4648 98.7422L49.3008 98.4727L49.4648 98.3672ZM51.375 98.4727H51.4805L51.5859 98.5781V98.6367L51.4336 98.8008C51.293 98.7461 51.2227 98.6914 51.2227 98.6367L51.375 98.4727ZM46.9102 98.5312C47.043 98.5312 47.168 98.6367 47.2852 98.8477V98.9531L47.1797 99.0586C46.9297 99.0586 46.8047 98.8984 46.8047 98.5781L46.8633 98.5312H46.9102ZM42.3398 98.6367L42.4453 98.7422L42.2812 98.8008V98.9062L42.3867 99.0117L42.6562 98.9531V99.0117L42.4453 99.375L42.4922 99.4336V99.5391C42.4219 99.5391 42.3867 99.5938 42.3867 99.7031L42.0703 99.9609L41.5898 99.75L41.4844 99.8555H41.4375V99.8086L41.4844 99.75V99.7031C41.3516 99.5625 41.2461 99.4922 41.168 99.4922L41.2266 99.4336V99.3281H41.0625C41.1719 99.1172 41.332 99.0117 41.543 99.0117L41.6484 99.1172H41.8008L41.918 99.0117C41.8086 99.0117 41.7539 98.9766 41.7539 98.9062V98.8008H41.918L41.9648 98.8477H42.0234V98.6836L42.1758 98.8008L42.3398 98.6367ZM48.5625 99.3281H48.7148L48.3984 99.5977L48.2461 99.4336L48.5625 99.3281ZM40.793 99.5977L40.8984 99.7031V99.75L40.793 99.6445V99.5977ZM51.1172 99.7031L51.1641 99.75V99.8086L51.0586 99.9141L50.9531 99.8086L51.1172 99.7031ZM44.5195 99.8555H44.7891L44.8945 99.9609V100.02L44.7891 100.125H44.6836L44.5195 99.9609V99.8555ZM50.8477 100.652H50.9531L51.0586 100.758L50.9531 100.875H50.8477L50.7422 100.758L50.8477 100.652ZM51.0586 102.094H51.1172L50.9531 102.246L51.0117 102.305V102.41L50.9531 102.469L51.0117 102.516V102.574C50.9727 102.676 50.8633 102.727 50.6836 102.727H50.6367L50.4727 102.574V102.41L50.5312 102.363L50.4727 102.305V102.199L50.7891 102.141L50.9531 102.199L51.0586 102.094ZM51.9609 102.832H52.0195C52.0898 102.832 52.125 102.887 52.125 102.996L52.1719 103.055H52.2305L52.3359 102.938V102.996L52.2305 103.16V103.207L52.2773 103.266V103.312L52.2305 103.371H52.1719L51.8555 103.266C51.9023 103.086 51.957 102.996 52.0195 102.996L51.9609 102.938V102.832ZM49.5703 103.055H49.6289L49.7344 103.16L49.5703 103.266L49.4648 103.16L49.5703 103.055ZM51.1641 103.055H51.3281L51.4336 103.16L51.375 103.207H51.2695L51.1641 103.102V103.055ZM49.043 103.102L49.1484 103.207L49.0898 103.266H49.043L48.9375 103.16L48.9844 103.102H49.043ZM50.4727 103.312L50.5781 103.477V103.582L50.4727 103.688H50.2031C50.125 103.578 49.9492 103.523 49.6758 103.523L49.6289 103.477V103.418L49.6758 103.371H49.7344L50.2031 103.418L50.4727 103.312ZM50.8477 104.004H50.9531V104.168L50.8477 104.062V104.004ZM49.4062 104.859H49.4648L50.4727 105.703L50.4258 105.762H50.3203L49.4062 104.859ZM50.6836 105.867H50.7422C50.8828 105.922 50.9531 105.977 50.9531 106.031V106.078H50.8945L50.6836 105.867ZM48.457 106.512L48.5039 106.559H48.5625L48.7734 106.512L48.8203 106.664L48.9844 106.559H49.043L49.1484 106.664L48.5625 106.934C48.5625 106.863 48.5078 106.828 48.3984 106.828L48.3516 106.77V106.617L48.457 106.512ZM50.5312 106.512L50.5781 106.559V106.617L50.5312 106.664H50.4727L50.4258 106.617V106.559L50.4727 106.512H50.5312ZM49.8867 106.559L49.9922 106.664L49.8867 106.77L49.7812 106.617L49.8398 106.559H49.8867ZM49.3594 107.039H49.5703L49.7812 107.461L49.5703 107.625H49.4648L49.1953 107.52V107.203L49.3594 107.039ZM49.0898 107.625H49.1484L49.2539 107.73V107.777L49.1484 107.895L48.9844 107.73L49.0898 107.625ZM48.082 108C48.2227 108.047 48.293 108.098 48.293 108.152L48.1875 108.258H48.1289L47.918 108.047L48.082 108ZM46.3828 109.371L46.5352 109.535V109.688H46.4883L46.2773 109.477L46.3828 109.371ZM57.8203 92.543L57.8672 92.5898V92.8594H57.7617L57.7148 92.5898L57.7617 92.543H57.8203ZM56.3555 92.5898L56.5664 92.8594H56.5195L56.25 92.6484L56.3086 92.5898H56.3555ZM59.8008 92.6953V92.7539L59.5898 93.0117H59.3789V92.9648C59.4727 92.7852 59.6133 92.6953 59.8008 92.6953ZM57.3984 92.7539H57.5039L57.7148 93.3281L57.9258 93.2695L58.0781 93.3281V93.2695L58.3945 92.9062V92.9648C58.3398 93.0977 58.2852 93.1641 58.2305 93.1641L58.4414 93.5391C58.3867 93.7109 58.2852 93.7969 58.1367 93.7969L58.0781 93.7383V93.8438L58.3359 93.9492L58.5469 93.7969V93.9023L58.5 93.9492V94.0078C58.6641 94.0078 58.7852 94.0391 58.8633 94.1016C58.8633 94.0156 58.9492 93.8945 59.1211 93.7383H59.332V93.7969L58.9688 94.1602H59.2266L59.3789 94.0547H59.543L59.4375 94.2656L59.3789 94.207H59.2852V94.2656H59.3789V94.3125L59.332 94.3711V94.418C59.4023 94.418 59.4375 94.4727 59.4375 94.582L60.2227 94.418H60.2695C60.0742 94.6289 59.9023 94.7344 59.7539 94.7344C59.7539 94.8516 60.1172 95.0586 60.8438 95.3555L60.9023 95.4141V95.5195H60.8438C60.5234 95.3398 60.2109 95.2148 59.9062 95.1445H59.7539L59.9062 95.3555V95.4141L59.8477 95.3555H59.5898V95.4609C59.8242 95.4609 60.0352 95.6172 60.2227 95.9297H60.2695V96.0352L59.9531 96.1406L59.8008 96.0352L59.7539 96.0938H59.4375V96.1406L59.543 96.293V96.3516H59.4844L59.332 96.293V96.3984C59.332 96.5312 59.418 96.6875 59.5898 96.8672L59.543 96.9258H59.4844L59.2852 96.7148C59.1758 96.7148 59.1055 96.8359 59.0742 97.0781H59.2266V97.1367L59.1211 97.2305H59.0742L58.9102 97.1367L58.7578 97.1836L58.6523 97.0781C58.6523 97.25 58.582 97.3359 58.4414 97.3359C58.4414 97.4062 58.582 97.5117 58.8633 97.6523V97.6992C58.7227 97.9102 58.6523 98.0664 58.6523 98.168L58.7109 98.4375L58.6523 98.4844H58.6055L58.5469 98.332H58.5L58.4414 98.6953V98.7422C58.5508 98.7422 58.6055 98.7773 58.6055 98.8477V98.9062L58.5 99.0117C58.5 98.918 58.3086 98.7617 57.9258 98.543H57.8672L57.668 98.6953L57.5625 98.5898H57.3984L57.1875 98.6484L57.1406 98.5898H57.0938C57.0078 98.5898 56.832 98.6953 56.5664 98.9062L56.4141 98.8477V98.9062C56.4141 98.9766 56.2734 99.0117 55.9922 99.0117C55.9609 99.0977 55.7188 99.2188 55.2656 99.375C55.2656 99.4531 55.125 99.5234 54.8438 99.5859C54.8438 99.7031 54.5664 99.9609 54.0117 100.359C53.8711 100.57 53.7305 100.676 53.5898 100.676L53.8008 101.145V101.355C53.6992 101.48 53.6484 101.602 53.6484 101.719V102.035C53.9922 103.16 54.4102 103.836 54.9023 104.062C55.8242 105 56.7969 105.469 57.8203 105.469L58.1367 105.422L58.5469 105.527C58.7656 105.527 59.168 105.18 59.7539 104.484C59.8477 104.484 59.9336 104.344 60.0117 104.062C60.2617 104.062 60.6445 103.699 61.1602 102.973L61.1016 102.293C61.1016 102.16 61.1562 102.02 61.2656 101.871V101.613L61.418 99.8438L61.3711 99.5273L61.418 99.4805V99.4219L61.3711 99.2695L61.418 99.2109L61.3125 99.1172V98.9062L61.3711 98.8477C61.3086 98.6914 61.2031 98.5703 61.0547 98.4844L60.9023 98.543L60.7969 98.3789L60.8438 98.332L60.7383 98.2266L60.7969 98.168V98.1211C61.3281 98.3242 61.6211 98.5312 61.6758 98.7422V98.8008L61.6289 98.8477C61.707 99.0898 61.7773 99.2109 61.8398 99.2109L61.8867 99.0586L61.7812 98.8477L61.8867 98.6484L61.8398 98.3789L61.8867 98.2266L61.3125 97.6992L61.2656 97.7578V97.6992L61.3125 97.5469L61.1602 97.3945H61.207L61.4648 97.5469C61.5664 97.4219 61.8281 97.2852 62.25 97.1367V97.2891C61.7969 97.4062 61.5703 97.5273 61.5703 97.6523L62.3086 98.332C62.5742 98.332 62.7656 98.6094 62.8828 99.1641V99.4805L63.0938 99.7852L62.9883 100.102L63.1406 101.461C63.0781 101.531 63.0273 101.789 62.9883 102.234C62.9023 102.234 62.832 102.461 62.7773 102.914C62.4648 103.016 62.3086 103.172 62.3086 103.383C62.3086 103.734 62.1875 103.91 61.9453 103.91C61.8359 104.16 61.4883 104.488 60.9023 104.895C60.4336 105.77 59.9609 106.207 59.4844 106.207C59.3281 106.48 58.8945 106.617 58.1836 106.617L57.3984 106.828C56.8438 106.828 55.8516 106.48 54.4219 105.785L53.543 105.316C53.3867 105.113 53.0195 104.836 52.4414 104.484C51.6133 103.609 51.1992 103.051 51.1992 102.809V102.762L51.1406 101.719L51.2461 101.613V101.402L51.1406 100.828V100.723C51.3516 100.457 51.457 100.285 51.457 100.207C51.2852 100.207 51.1992 100.172 51.1992 100.102V99.9492L51.7617 98.6953C51.9258 97.9766 52.0508 97.6133 52.1367 97.6055C52.4102 97.2539 52.6875 97.0781 52.9688 97.0781C53.3047 96.7891 53.582 96.3359 53.8008 95.7188L54.2695 95.4609L54.9961 94.9453L55.7812 94.6289C56.1328 94.4805 56.3086 94.375 56.3086 94.3125V94.207L55.9922 93.7969H56.0391C56.2578 94 56.418 94.1016 56.5195 94.1016L56.6719 93.9023L56.6133 93.8438L56.6719 93.7969L56.5664 93.6914V93.6328H56.6133C56.6836 93.6328 56.7188 93.6875 56.7188 93.7969H56.8828L57.1406 93.5859L57.0352 93.4336V93.375L57.3984 93.4336C57.3984 93.3242 57.4531 93.2695 57.5625 93.2695L57.3984 92.8008V92.7539ZM58.7578 92.8008H58.8047V92.9062L58.7109 93.0117H58.6055V92.9648L58.7578 92.8008ZM59.2266 93.1641H59.2852V93.2227C59.2852 93.2773 59.2148 93.3281 59.0742 93.375V93.3281L59.2266 93.1641ZM56.1445 93.2695H56.2031L56.3086 93.375L56.25 93.4336H56.2031L56.1445 93.375V93.2695ZM55.7812 93.6328H55.8398L55.9453 93.7383H55.8867L55.7812 93.6328ZM60.375 93.7969L60.4219 93.8438V93.9023L60.1641 94.1016L60.0117 94.0547V94.0078C60.0117 93.9453 60.1328 93.875 60.375 93.7969ZM59.6484 96.3516H59.6953C60.1484 96.5156 60.375 96.6719 60.375 96.8203C60.4531 96.8203 60.6797 96.9922 61.0547 97.3359H60.9492C60.3789 97.0391 60.0312 96.7812 59.9062 96.5625C59.7344 96.5625 59.6484 96.5078 59.6484 96.3984V96.3516ZM61.2656 96.8203L61.3711 96.9258L61.207 97.0312L61.1016 96.9258L61.2656 96.8203ZM63.293 97.2305L63.3516 97.2891V97.3359C63.3516 97.4062 63.1602 97.4609 62.7773 97.5V97.4414C62.7773 97.3398 62.9492 97.2695 63.293 97.2305ZM63.3984 97.5H63.457L63.5625 97.6055H63.3984V97.5ZM59.6953 97.6055H59.8477V97.6523L59.7539 97.7578L59.6953 97.6992V97.6055ZM60.3281 97.8633H60.375L60.5273 98.0156V98.0742H60.4219L60.3281 97.9688V97.8633ZM64.1367 97.8633L64.1836 97.9102V97.9688L64.0312 98.0742L63.9727 98.0156V97.9688L64.1367 97.8633ZM63.2461 98.2734H63.3516V98.332L63.2461 98.4375H63.1406V98.3789L63.2461 98.2734ZM60.0117 98.9062H60.0586L60.1641 99.0117L60.1172 99.0586H60.0117V98.9062ZM60.5273 99.5273H60.6328V99.5859L60.5273 99.6797V99.5273ZM58.8047 99.8906L58.8633 99.9492V99.9961L58.8047 100.055H58.7578L58.7109 99.9961V99.9492L58.7578 99.8906H58.8047ZM58.3359 100.254L58.3945 100.312V100.359L58.2891 100.465H58.2305L58.1367 100.359L58.3359 100.254ZM57.6094 101.098H57.668V101.145L57.5625 101.25H57.457L57.6094 101.098ZM57.0938 101.508H57.1406V101.613H57.1875C57.1875 101.676 57.0664 101.797 56.8242 101.977H56.7188V101.93L57.0938 101.508ZM56.4141 102.293H56.5664V102.34C56.4961 102.48 56.3906 102.551 56.25 102.551L56.2031 102.504V102.445L56.4141 102.293ZM55.9453 102.914V103.078L55.8398 103.184H55.7812V103.078L55.9453 102.914ZM55.4766 103.441L55.5703 103.547L55.418 103.652L55.3711 103.594V103.547L55.4766 103.441ZM61.5703 105.059L61.6289 105.105V105.164L61.207 105.469L61.1602 105.422V105.363C61.3008 105.16 61.4375 105.059 61.5703 105.059ZM70.6875 92.543L70.7344 92.5898V92.8594H70.6289L70.582 92.5898L70.6289 92.543H70.6875ZM69.2227 92.5898L69.4336 92.8594H69.3867L69.1172 92.6484L69.1758 92.5898H69.2227ZM72.668 92.6953V92.7539L72.457 93.0117H72.2461V92.9648C72.3398 92.7852 72.4805 92.6953 72.668 92.6953ZM70.2656 92.7539H70.3711L70.582 93.3281L70.793 93.2695L70.9453 93.3281V93.2695L71.2617 92.9062V92.9648C71.207 93.0977 71.1523 93.1641 71.0977 93.1641L71.3086 93.5391C71.2539 93.7109 71.1523 93.7969 71.0039 93.7969L70.9453 93.7383V93.8438L71.2031 93.9492L71.4141 93.7969V93.9023L71.3672 93.9492V94.0078C71.5312 94.0078 71.6523 94.0391 71.7305 94.1016C71.7305 94.0156 71.8164 93.8945 71.9883 93.7383H72.1992V93.7969L71.8359 94.1602H72.0938L72.2461 94.0547H72.4102L72.3047 94.2656L72.2461 94.207H72.1523V94.2656H72.2461V94.3125L72.1992 94.3711V94.418C72.2695 94.418 72.3047 94.4727 72.3047 94.582L73.0898 94.418H73.1367C72.9414 94.6289 72.7695 94.7344 72.6211 94.7344C72.6211 94.8516 72.9844 95.0586 73.7109 95.3555L73.7695 95.4141V95.5195H73.7109C73.3906 95.3398 73.0781 95.2148 72.7734 95.1445H72.6211L72.7734 95.3555V95.4141L72.7148 95.3555H72.457V95.4609C72.6914 95.4609 72.9023 95.6172 73.0898 95.9297H73.1367V96.0352L72.8203 96.1406L72.668 96.0352L72.6211 96.0938H72.3047V96.1406L72.4102 96.293V96.3516H72.3516L72.1992 96.293V96.3984C72.1992 96.5312 72.2852 96.6875 72.457 96.8672L72.4102 96.9258H72.3516L72.1523 96.7148C72.043 96.7148 71.9727 96.8359 71.9414 97.0781H72.0938V97.1367L71.9883 97.2305H71.9414L71.7773 97.1367L71.625 97.1836L71.5195 97.0781C71.5195 97.25 71.4492 97.3359 71.3086 97.3359C71.3086 97.4062 71.4492 97.5117 71.7305 97.6523V97.6992C71.5898 97.9102 71.5195 98.0664 71.5195 98.168L71.5781 98.4375L71.5195 98.4844H71.4727L71.4141 98.332H71.3672L71.3086 98.6953V98.7422C71.418 98.7422 71.4727 98.7773 71.4727 98.8477V98.9062L71.3672 99.0117C71.3672 98.918 71.1758 98.7617 70.793 98.543H70.7344L70.5352 98.6953L70.4297 98.5898H70.2656L70.0547 98.6484L70.0078 98.5898H69.9609C69.875 98.5898 69.6992 98.6953 69.4336 98.9062L69.2812 98.8477V98.9062C69.2812 98.9766 69.1406 99.0117 68.8594 99.0117C68.8281 99.0977 68.5859 99.2188 68.1328 99.375C68.1328 99.4531 67.9922 99.5234 67.7109 99.5859C67.7109 99.7031 67.4336 99.9609 66.8789 100.359C66.7383 100.57 66.5977 100.676 66.457 100.676L66.668 101.145V101.355C66.5664 101.48 66.5156 101.602 66.5156 101.719V102.035C66.8594 103.16 67.2773 103.836 67.7695 104.062C68.6914 105 69.6641 105.469 70.6875 105.469L71.0039 105.422L71.4141 105.527C71.6328 105.527 72.0352 105.18 72.6211 104.484C72.7148 104.484 72.8008 104.344 72.8789 104.062C73.1289 104.062 73.5117 103.699 74.0273 102.973L73.9688 102.293C73.9688 102.16 74.0234 102.02 74.1328 101.871V101.613L74.2852 99.8438L74.2383 99.5273L74.2852 99.4805V99.4219L74.2383 99.2695L74.2852 99.2109L74.1797 99.1172V98.9062L74.2383 98.8477C74.1758 98.6914 74.0703 98.5703 73.9219 98.4844L73.7695 98.543L73.6641 98.3789L73.7109 98.332L73.6055 98.2266L73.6641 98.168V98.1211C74.1953 98.3242 74.4883 98.5312 74.543 98.7422V98.8008L74.4961 98.8477C74.5742 99.0898 74.6445 99.2109 74.707 99.2109L74.7539 99.0586L74.6484 98.8477L74.7539 98.6484L74.707 98.3789L74.7539 98.2266L74.1797 97.6992L74.1328 97.7578V97.6992L74.1797 97.5469L74.0273 97.3945H74.0742L74.332 97.5469C74.4336 97.4219 74.6953 97.2852 75.1172 97.1367V97.2891C74.6641 97.4062 74.4375 97.5273 74.4375 97.6523L75.1758 98.332C75.4414 98.332 75.6328 98.6094 75.75 99.1641V99.4805L75.9609 99.7852L75.8555 100.102L76.0078 101.461C75.9453 101.531 75.8945 101.789 75.8555 102.234C75.7695 102.234 75.6992 102.461 75.6445 102.914C75.332 103.016 75.1758 103.172 75.1758 103.383C75.1758 103.734 75.0547 103.91 74.8125 103.91C74.7031 104.16 74.3555 104.488 73.7695 104.895C73.3008 105.77 72.8281 106.207 72.3516 106.207C72.1953 106.48 71.7617 106.617 71.0508 106.617L70.2656 106.828C69.7109 106.828 68.7188 106.48 67.2891 105.785L66.4102 105.316C66.2539 105.113 65.8867 104.836 65.3086 104.484C64.4805 103.609 64.0664 103.051 64.0664 102.809V102.762L64.0078 101.719L64.1133 101.613V101.402L64.0078 100.828V100.723C64.2188 100.457 64.3242 100.285 64.3242 100.207C64.1523 100.207 64.0664 100.172 64.0664 100.102V99.9492L64.6289 98.6953C64.793 97.9766 64.918 97.6133 65.0039 97.6055C65.2773 97.2539 65.5547 97.0781 65.8359 97.0781C66.1719 96.7891 66.4492 96.3359 66.668 95.7188L67.1367 95.4609L67.8633 94.9453L68.6484 94.6289C69 94.4805 69.1758 94.375 69.1758 94.3125V94.207L68.8594 93.7969H68.9062C69.125 94 69.2852 94.1016 69.3867 94.1016L69.5391 93.9023L69.4805 93.8438L69.5391 93.7969L69.4336 93.6914V93.6328H69.4805C69.5508 93.6328 69.5859 93.6875 69.5859 93.7969H69.75L70.0078 93.5859L69.9023 93.4336V93.375L70.2656 93.4336C70.2656 93.3242 70.3203 93.2695 70.4297 93.2695L70.2656 92.8008V92.7539ZM71.625 92.8008H71.6719V92.9062L71.5781 93.0117H71.4727V92.9648L71.625 92.8008ZM72.0938 93.1641H72.1523V93.2227C72.1523 93.2773 72.082 93.3281 71.9414 93.375V93.3281L72.0938 93.1641ZM69.0117 93.2695H69.0703L69.1758 93.375L69.1172 93.4336H69.0703L69.0117 93.375V93.2695ZM68.6484 93.6328H68.707L68.8125 93.7383H68.7539L68.6484 93.6328ZM73.2422 93.7969L73.2891 93.8438V93.9023L73.0312 94.1016L72.8789 94.0547V94.0078C72.8789 93.9453 73 93.875 73.2422 93.7969ZM72.5156 96.3516H72.5625C73.0156 96.5156 73.2422 96.6719 73.2422 96.8203C73.3203 96.8203 73.5469 96.9922 73.9219 97.3359H73.8164C73.2461 97.0391 72.8984 96.7812 72.7734 96.5625C72.6016 96.5625 72.5156 96.5078 72.5156 96.3984V96.3516ZM74.1328 96.8203L74.2383 96.9258L74.0742 97.0312L73.9688 96.9258L74.1328 96.8203ZM76.1602 97.2305L76.2188 97.2891V97.3359C76.2188 97.4062 76.0273 97.4609 75.6445 97.5V97.4414C75.6445 97.3398 75.8164 97.2695 76.1602 97.2305ZM76.2656 97.5H76.3242L76.4297 97.6055H76.2656V97.5ZM72.5625 97.6055H72.7148V97.6523L72.6211 97.7578L72.5625 97.6992V97.6055ZM73.1953 97.8633H73.2422L73.3945 98.0156V98.0742H73.2891L73.1953 97.9688V97.8633ZM77.0039 97.8633L77.0508 97.9102V97.9688L76.8984 98.0742L76.8398 98.0156V97.9688L77.0039 97.8633ZM76.1133 98.2734H76.2188V98.332L76.1133 98.4375H76.0078V98.3789L76.1133 98.2734ZM72.8789 98.9062H72.9258L73.0312 99.0117L72.9844 99.0586H72.8789V98.9062ZM73.3945 99.5273H73.5V99.5859L73.3945 99.6797V99.5273ZM71.6719 99.8906L71.7305 99.9492V99.9961L71.6719 100.055H71.625L71.5781 99.9961V99.9492L71.625 99.8906H71.6719ZM71.2031 100.254L71.2617 100.312V100.359L71.1562 100.465H71.0977L71.0039 100.359L71.2031 100.254ZM70.4766 101.098H70.5352V101.145L70.4297 101.25H70.3242L70.4766 101.098ZM69.9609 101.508H70.0078V101.613H70.0547C70.0547 101.676 69.9336 101.797 69.6914 101.977H69.5859V101.93L69.9609 101.508ZM69.2812 102.293H69.4336V102.34C69.3633 102.48 69.2578 102.551 69.1172 102.551L69.0703 102.504V102.445L69.2812 102.293ZM68.8125 102.914V103.078L68.707 103.184H68.6484V103.078L68.8125 102.914ZM68.3438 103.441L68.4375 103.547L68.2852 103.652L68.2383 103.594V103.547L68.3438 103.441ZM74.4375 105.059L74.4961 105.105V105.164L74.0742 105.469L74.0273 105.422V105.363C74.168 105.16 74.3047 105.059 74.4375 105.059ZM79.5703 90.2695H79.6172V90.3281L79.5117 90.4336H79.4648V90.375L79.5703 90.2695ZM75 90.9023C75.1719 90.9023 75.457 90.9922 75.8555 91.1719V91.2305H75.75C75.25 91.1758 75 91.1016 75 91.0078V90.9023ZM89.8125 91.3828L89.918 91.5469C89.918 91.6094 89.7969 91.7148 89.5547 91.8633H89.4961V91.8047C89.6289 91.5469 89.7344 91.4062 89.8125 91.3828ZM76.2305 91.4414L76.9219 91.8047L78.2344 92.3906L78.293 92.4492H78.3984L78.5625 92.2852L78.5039 92.1328H78.5625L78.7148 92.1797L78.9844 92.0273H79.0312L79.4062 92.3438L79.6172 92.0742L79.8867 92.1328L79.9922 92.0273H80.0977V92.0742L80.0391 92.2383L80.625 92.4961C81.75 92.1445 82.6719 91.9688 83.3906 91.9688C83.3906 91.8594 83.5859 91.8047 83.9766 91.8047V91.8633L84.3984 91.6992H84.8203L86.3672 91.5469C87.1641 91.6875 87.6406 91.8086 87.7969 91.9102L88.5938 91.4883H88.7578C88.7344 91.5664 88.5039 91.7266 88.0664 91.9688V92.0273L88.4297 92.0742H88.8047V92.1797H88.5352V92.2852H88.6523V92.3438C88.5195 92.5547 88.3594 92.6602 88.1719 92.6602V92.707L88.7578 92.8242L88.8047 92.7656V92.8711H88.9688L90.1289 92.3906H90.1875C90.3281 92.4453 90.3984 92.5 90.3984 92.5547V92.8242L90.3516 92.8711V92.9297H90.5039V93.0352H90.3984L90.2344 92.9297L90.1289 93.0352H89.9766L89.6602 92.9297L89.4961 92.9766L89.4492 92.9297H89.3906C88.9062 93.0312 88.6406 93.1172 88.5938 93.1875V93.1406L88.6523 93.082V93.0352L88.2773 93.082V93.1406L89.0156 93.7734V93.832H88.9102L88.4883 93.3984L88.4297 93.457V93.7266C88.4297 94.0781 88.5547 94.2539 88.8047 94.2539C88.8047 94.332 88.6797 94.3828 88.4297 94.4062C88.4297 94.5859 88.3945 94.6758 88.3242 94.6758L88.2773 94.6289H88.2188C88.1562 94.6289 88.0156 94.7852 87.7969 95.0977C87.8516 95.2773 87.957 95.3672 88.1133 95.3672V95.3086C88.1133 95.207 88.1484 95.1562 88.2188 95.1562H88.2773C88.4492 95.2578 88.5352 95.3633 88.5352 95.4727L88.3828 95.7891H88.7578V95.8945C87.8672 96.043 87.4219 96.1875 87.4219 96.3281V96.4336L87.8555 96.4805L87.9023 96.4336H87.9609C88.1719 96.4336 88.2773 96.5547 88.2773 96.7969V96.9023L88.2188 96.9609V97.0078L88.6523 97.4414H88.5938C88.0938 97.0586 87.8125 96.8086 87.75 96.6914L87.1641 96.6445H87L86.6836 96.3281H86.625V96.4805L86.8945 97.2773C86.5039 96.9805 86.0273 96.6797 85.4648 96.375C83.4883 96.5547 82.2656 96.8047 81.7969 97.125C81.6406 97.125 81.3945 97.2461 81.0586 97.4883L81.4219 97.5938L81.4805 97.5469H81.5273L84.5039 98.1797H85.4062C86.2656 98.1797 87.6484 98.5352 89.5547 99.2461C90.2188 99.6211 90.6055 100.008 90.7148 100.406C91.082 100.836 91.4375 101.051 91.7812 101.051L92.0508 100.945L91.9336 101.098V101.156C92.1523 101.352 92.5781 101.527 93.2109 101.684C93.2266 101.824 93.2812 101.895 93.375 101.895V102H93.3164C92.8477 102 92.5469 101.879 92.4141 101.637C92.2891 101.637 92.1484 101.566 91.9922 101.426H91.8867C91.8164 101.426 91.7812 101.477 91.7812 101.578L91.7227 101.637H91.6758C91.6758 101.566 91.6211 101.531 91.5117 101.531L91.3008 101.473L91.2539 101.426V101.367L91.3594 101.262V101.203L90.8789 101.098H90.7734L90.7148 101.473L90.8203 101.637V101.684L90.7148 101.789C90.6602 101.648 90.6094 101.578 90.5625 101.578H90.457V101.684C90.457 101.863 90.6875 102.129 91.1484 102.48V102.539L91.0898 102.75C91.2305 102.75 91.3008 102.785 91.3008 102.855V102.902C91.2539 103.105 91.0234 103.391 90.6094 103.758C90.0625 103.953 89.25 104.344 88.1719 104.93C87.9922 104.93 87.1602 105.316 85.6758 106.09L83.332 107.051C83.1758 107.191 82.7891 107.352 82.1719 107.531C82.1719 107.781 81.9414 107.938 81.4805 108L80.5195 108.375C80.2461 108.375 79.9297 108.496 79.5703 108.738C78.9531 109.168 78.2422 109.488 77.4375 109.699L77.3906 109.758V109.699L78.082 109.113V109.066L77.8125 109.113V109.066L77.918 108.797L78.2344 108.902L78.8789 108.527C79.0977 108.527 79.3086 108.301 79.5117 107.848L80.1562 107.203C80.3125 107.203 80.5039 107.062 80.7305 106.781C82.3555 105.828 83.3477 105.086 83.707 104.555C83.8008 104.555 84.0508 104.359 84.457 103.969C85.1602 103.609 85.707 102.973 86.0977 102.059C86.0977 101.59 85.9219 101.27 85.5703 101.098L84.457 100.57L84.293 100.676H84.2344V100.629L84.293 100.57V100.523C83.8633 100.523 83.5781 100.469 83.4375 100.359H83.2266C83.1094 100.359 82.9883 100.414 82.8633 100.523H82.8047L82.8633 100.465V100.406H82.8047C82.0938 100.492 81.7383 100.602 81.7383 100.734L81.7969 100.781H81.7383L81.2695 100.676H80.9531L80.7305 100.84L80.625 100.734L80.4141 100.887H80.3672V100.84L80.4727 100.676C78.7383 100.402 77.8711 100.191 77.8711 100.043C76.8789 99.3789 76.3828 98.7773 76.3828 98.2383L76.1719 97.2773V96.8555C76.2969 95.918 76.4375 95.4023 76.5938 95.3086C76.7031 94.9727 77.1289 94.3555 77.8711 93.457V93.3516H77.6602V93.2461L77.918 93.293V93.2461L78.082 93.0352V92.9766C78.082 92.9062 78.0273 92.8711 77.918 92.8711L77.8711 92.8242V92.7656C78.1133 92.7422 78.2344 92.6875 78.2344 92.6016C78.125 92.4922 77.7734 92.3164 77.1797 92.0742C76.4453 91.7461 76.0742 91.5508 76.0664 91.4883L76.2305 91.4414ZM78.082 91.4883L78.1289 91.5469H78.2344L78.293 91.4883H78.3398L78.3984 91.5469V91.5938L78.2344 91.6523L78.082 91.5938V91.4883ZM80.2031 91.8047V91.9102L80.0977 92.0273V91.9102L80.2031 91.8047ZM89.4492 91.8633V91.9102L89.332 92.0273V91.9688L89.4492 91.8633ZM91.6172 91.9102H91.8281L91.9922 92.0742V92.1797C91.9922 92.25 91.8867 92.3203 91.6758 92.3906L91.3008 92.2852C91.1055 92.3945 90.9102 92.4492 90.7148 92.4492C91.082 92.0898 91.3828 91.9102 91.6172 91.9102ZM89.1797 92.1797V92.2852L88.9102 92.6016V92.5547C89.0352 92.3047 89.125 92.1797 89.1797 92.1797ZM87.9023 92.3906V92.4492L87.9609 92.6016H88.1133L88.2188 92.4961L87.9023 92.3906ZM93.5859 92.3438H93.6914C93.6914 92.4766 93.3359 92.6523 92.625 92.8711V92.9766H92.5195V92.8711C92.5195 92.7617 92.875 92.5859 93.5859 92.3438ZM91.8281 92.9297H91.9336L92.0977 93.082C91.4648 93.3633 90.7734 93.6133 90.0234 93.832V93.7734L91.4648 93.1875C91.4648 93.1328 91.5859 93.0469 91.8281 92.9297ZM87.5859 93.1875V93.2461L87.75 93.457V93.5039L87.6328 93.668V93.832H87.6914L87.8555 93.668V93.6094L87.7969 93.5625V93.5039L87.8555 93.457L87.7969 93.3984L87.8555 93.3516H88.0664V93.5039L88.4297 93.3984V93.3516C88.3281 93.3516 88.1719 93.2812 87.9609 93.1406L87.5859 93.1875ZM89.2852 93.832L89.8125 93.8789L89.7656 93.9375V93.9844C90.0469 94.0703 90.1875 94.1602 90.1875 94.2539C90.1875 94.3477 90.0469 94.418 89.7656 94.4648L89.707 94.4062H89.6602L89.707 94.3594V94.1953C89.707 94.1094 89.5664 94.0234 89.2852 93.9375V93.832ZM89.1797 94.3008L89.2852 94.6289C89.1992 94.7461 89.0586 94.832 88.8633 94.8867L88.7578 94.6758C88.7578 94.4727 88.8984 94.3477 89.1797 94.3008ZM90.1875 94.4648L90.2344 94.5234V94.5703L90.1289 94.6758L90.082 94.6289V94.5703L90.1875 94.4648ZM90.457 94.7344C90.6992 94.9141 90.8203 95.125 90.8203 95.3672L90.5625 95.4727L90.2344 94.7812L90.293 94.7344H90.457ZM88.8633 95.0508L88.9688 95.1562L88.8047 95.2617H88.7578V95.1562L88.8633 95.0508ZM90.1289 95.7891H90.3516V95.8945H90.1289V95.7891ZM88.6523 97.4414H88.8047V97.5469H88.7578L88.6523 97.4414ZM87.3164 97.6523H87.375L87.5273 97.8047L87.4805 97.8633H87.4219L87.3164 97.6523ZM91.9922 100.148H92.1562V100.195L92.0508 100.301H91.9922V100.148ZM82.4297 100.887H82.4883L82.0078 101.578V101.637C82.1172 101.637 82.1719 101.707 82.1719 101.848L82.3242 101.895C82.3086 102.215 82.168 102.375 81.9023 102.375L81.6328 102.328L81.5273 102.434H81.375L81.2695 102.328V102.27C81.3008 101.809 81.5117 101.578 81.9023 101.578L82.4297 100.887ZM81.1055 101.531L81.1641 101.578V101.637L81 101.789L80.9531 101.742V101.684L81.1055 101.531ZM81 103.383L81.0586 103.441V103.488L80.8945 103.652V103.488L81 103.383ZM96.1992 91.9102H96.293L96.3984 92.2617H96.5391V92.1562H96.5977L96.6445 92.2148H96.6914L96.7969 92.1094L96.8438 92.1562L96.9492 92.0625H96.9961L96.9492 92.1094L96.9961 92.3086H97.043L97.1953 92.2148L97.1484 92.4609V92.5078L97.1953 92.4609H97.2891C97.2891 92.6641 97.4414 92.7656 97.7461 92.7656C98.0352 92.2266 98.3008 91.957 98.543 91.957L98.8477 92.0625L99.1406 92.0156H99.2461L99.4922 92.2617V92.3086L99.0938 92.5547L99.0469 92.8125L99.1992 92.9062L99.5508 92.7656C99.5508 92.9297 99.582 93.0117 99.6445 93.0117L99.4453 93.4102L99.4922 93.457V93.6562L99.3398 93.8555L99.3984 93.9141V93.9609C99.1641 93.9609 99.0469 94.0625 99.0469 94.2656L98.3906 94.5586V94.6055H98.2969C98.2969 94.4727 98.2461 94.4062 98.1445 94.4062C97.957 94.5391 97.7891 94.6055 97.6406 94.6055L97.043 94.2656V94.207H96.75L96.5391 94.5117H96.4922V94.4648L96.5977 94.1602C96.3086 94.1602 95.8555 94.0117 95.2383 93.7148L94.5938 93.5625H94.5469L94.043 93.7148C93.8477 93.6133 93.6484 93.5625 93.4453 93.5625C93.2422 93.8203 93.1406 94.0195 93.1406 94.1602H93.0938L92.9883 94.0547L92.9414 94.1133H92.8477C92.6133 94.1133 92.4961 94.0781 92.4961 94.0078C92.3398 94.0078 92.1406 94.2578 91.8984 94.7578L91.9922 95.3555V95.7656L91.8984 95.9062V96.0117C91.9609 96.0742 91.9922 96.2227 91.9922 96.457C92.0469 96.457 92.2461 96.8906 92.5898 97.7578C92.6445 97.7578 92.7461 97.9258 92.8945 98.2617C93.0352 98.2617 93.168 98.4102 93.293 98.707V98.9062L93.5391 99.9609L93.4922 100.113H93.5977C94.3477 99.5898 94.7969 99.2383 94.9453 99.0586C95.1016 99.0586 95.2344 98.9766 95.3438 98.8125C94.6797 98.5703 94.2305 98.3203 93.9961 98.0625H94.043C94.3711 98.2734 94.7383 98.457 95.1445 98.6133L95.4492 98.5664H95.4961C95.5586 98.5664 95.5898 98.6133 95.5898 98.707H95.6484C95.7344 98.4727 95.8164 98.3555 95.8945 98.3555H95.9883L96.1992 98.6133L96.4453 98.6602L96.4922 98.6133H96.5391L96.9492 98.6602L96.9961 98.6133V98.5664L97.3477 98.6133C97.8477 98.4102 98.1953 98.3086 98.3906 98.3086C98.3906 98.1914 98.5742 98.1094 98.9414 98.0625L99.0469 98.1562L97.5 99.1641L97.6406 99.4102L97.5938 99.5625L97.6406 99.6094V99.6562C97.4609 99.8672 97.3125 100.117 97.1953 100.406L97.2422 100.465H97.2891L97.2422 100.816L97.2891 101.062C97.2891 101.352 97.1758 101.617 96.9492 101.859C96.8711 101.859 96.8203 101.742 96.7969 101.508C96.8516 101.508 96.918 101.391 96.9961 101.156L96.9492 100.957H96.9961L96.9492 100.91V100.605C96.8008 100.605 96.6641 100.559 96.5391 100.465L96.2461 100.816C96.1055 100.77 96.0039 100.684 95.9414 100.559L96.1406 100.465L96.0469 100.207H95.8477C95.7305 100.207 95.6133 100.16 95.4961 100.066H95.1914L95.0391 100.16H94.8398L94.793 100.113C94.1602 100.316 93.8438 100.465 93.8438 100.559L93.6914 101.062L93.7969 101.508L93.7383 101.965C93.9492 102.293 94.0859 102.457 94.1484 102.457C94.2422 102.457 94.2891 102.391 94.2891 102.258H94.4414V101.965H94.5469C94.5469 102.129 94.5781 102.211 94.6406 102.211L94.6992 102.164L94.8398 102.211L94.8984 102.164H94.9453L95.0977 102.211V102.059H95.1914C95.1914 102.16 95.2266 102.211 95.2969 102.211L95.3438 102.164H95.3906L95.4492 102.211V102.105H95.543V102.211L95.5898 102.164L95.9414 102.316L96.0938 102.258V102.316L96.0469 102.363V102.41H96.1992V102.316H96.293L96.2461 102.562H96.293L96.2461 102.609V102.656L96.3398 102.961H96.3984L96.7969 102.855L96.8438 102.914L97.0898 102.715H97.4414L97.6406 102.656C98.0781 102.766 98.3789 102.949 98.543 103.207H98.5898L98.7891 103.16L99 103.266L99.7969 103.008L100.195 103.16L100.5 102.961H101.098L101.25 102.855H101.801C102.277 102.723 102.676 102.656 102.996 102.656H103.043C103.246 102.594 103.348 102.48 103.348 102.316L103.395 102.258H103.441C103.441 102.32 103.543 102.406 103.746 102.516H103.945L104.098 102.41H104.496C105.074 102.27 105.523 102.121 105.844 101.965H106.301L106.441 101.859L106.547 101.965V102.012C106.547 102.098 106.082 102.266 105.152 102.516L104.051 103.16C102.746 103.27 102.094 103.418 102.094 103.605C101.578 103.715 100.93 104.219 100.148 105.117C100.148 105.477 99.8477 105.656 99.2461 105.656C99.0195 105.961 98.7344 106.113 98.3906 106.113H97.2422C97.0625 105.98 96.8789 105.914 96.6914 105.914L96.4453 105.961C96.4453 105.805 96.043 105.656 95.2383 105.516H95.1445L94.6406 105.867V105.914H94.8984L95.1914 105.809C95.6133 105.809 95.9961 105.941 96.3398 106.207V106.617L96.0469 107.508L95.3906 107.613V107.859L95.2383 108L94.5469 107.906H94.1953C94.0469 107.766 93.8281 107.633 93.5391 107.508C93.5 107.422 93.3516 107.305 93.0938 107.156C92.9688 106.938 92.8008 106.789 92.5898 106.711C92.418 106.367 92.2539 106.117 92.0977 105.961V105.867C92.2305 105.727 92.2969 105.359 92.2969 104.766L92.5898 104.414H92.7891L93.0469 104.613H93.0938V104.566L92.2969 103.863C92.2578 103.176 92.125 102.293 91.8984 101.215L91.9453 99.2578C91.8125 99.2578 91.6797 99.0078 91.5469 98.5078V97.9102C91.3516 97.4961 91.1523 96.9297 90.9492 96.2109L90.7969 96.0586L90.9023 95.9062C90.8086 95.9062 90.6758 95.7891 90.5039 95.5547C90.4023 95.5547 90.3164 95.4883 90.2461 95.3555L90.3984 95.0156L90.293 94.8047L90.3516 94.6055L90.0938 94.2656L90.2461 94.1133C90.418 94.1133 90.5508 94.3438 90.6445 94.8047L90.8438 94.9102L90.9961 94.7109L90.9492 94.6641V94.6055L91.1016 94.3594L90.9961 94.2656V94.0078L90.9492 93.2578H90.9961C90.9805 92.9141 90.6797 92.5156 90.0938 92.0625L90.1523 92.0156C90.3398 92.0156 90.6367 92.2969 91.043 92.8594C91.1602 92.8594 91.293 93.0273 91.4414 93.3633C91.5586 93.3633 91.6914 93.6797 91.8398 94.3125H91.8984C91.9844 93.875 92.1172 93.6562 92.2969 93.6562L92.4961 93.7617C92.6836 93.7617 92.9141 93.5781 93.1875 93.2109L93.4453 93.1641L93.6445 93.2109C94.1289 93.0547 94.7305 92.9375 95.4492 92.8594C95.4805 92.7578 95.5781 92.707 95.7422 92.707C95.875 92.7461 95.9414 92.8125 95.9414 92.9062H96.0469L96.1406 92.6133H95.9883V92.5547L96.0469 92.5078L95.9883 92.4609V92.3555H96.0938V92.3086C95.9609 92.3086 95.8945 92.2578 95.8945 92.1562H95.9414L96.2461 92.2148L96.1992 91.957V91.9102ZM93.3984 92.1562V92.2148L93.3398 92.3555H93.3984L93.4922 92.4609V92.5547H93.3984V92.6602L93.5391 92.707L93.7383 92.6602V92.7656H93.3984L93.3398 92.707L93.0469 92.8125V92.7656C93.0469 92.5938 92.9805 92.5078 92.8477 92.5078V92.4141C93.0273 92.4141 93.2109 92.3281 93.3984 92.1562ZM94.3945 92.5547L94.4883 92.6602C94.4727 92.7617 94.3398 92.8125 94.0898 92.8125L93.9961 92.707L93.9492 92.7656H93.8438V92.6602H94.2422L94.3945 92.5547ZM90.4453 93.4102H90.5508C90.6289 93.4102 90.6797 93.4922 90.7031 93.6562L90.3984 93.8555H90.293L90.1992 93.7617V93.6562L90.4453 93.4102ZM89.8477 93.7617L89.8945 93.8086V93.8555L89.8477 93.9141H89.8008L89.7422 93.8555V93.8086L89.8008 93.7617H89.8477ZM93.4453 97.8164C93.5078 97.8164 93.5391 97.8633 93.5391 97.957L93.4922 98.2148H93.4453L93.3398 98.1094V97.9102L93.4453 97.8164ZM99.9492 97.8633H100.043L100.301 97.9102V98.0156H100.242C100.07 98.0156 99.9727 97.9648 99.9492 97.8633ZM93.3984 98.3086H93.4922V98.5078L93.3984 98.4141V98.3086ZM94.8398 101.156H94.9453V101.309H94.8398V101.156ZM104.391 101.461L104.449 101.508V101.566L104.391 101.613H104.344L104.297 101.566V101.508L104.344 101.461H104.391ZM103.594 101.766L103.699 101.859V101.965L103.5 102.258H103.441V102.059C103.465 101.863 103.516 101.766 103.594 101.766ZM101.496 102.105L101.543 102.164H101.742L101.801 102.105H101.848V102.211L101.648 102.516H101.543C101.48 102.516 101.449 102.465 101.449 102.363L101.496 102.105ZM93.8438 102.316V102.363L93.8906 102.562C93.8906 102.664 93.8242 102.715 93.6914 102.715V102.809H93.7383L94.043 102.609L93.8906 102.316H93.8438ZM96.8906 107.414H96.9492C97.043 107.445 97.0898 107.543 97.0898 107.707L97.043 107.766H96.8906L96.75 107.613V107.566L96.8906 107.414ZM96.4922 107.508C96.5703 107.508 96.6211 107.594 96.6445 107.766L96.4922 107.859H96.3984C96.2969 107.828 96.2461 107.73 96.2461 107.566L96.293 107.508H96.4922ZM97.1953 107.707L97.2422 107.766V107.812L97.1953 107.859H97.1484L97.0898 107.812V107.766L97.1484 107.707H97.1953ZM96.8906 107.812H96.9492C97.0195 107.812 97.0664 107.895 97.0898 108.059L96.9492 108.152H96.8906L96.75 108L96.8906 107.812ZM96.3984 108.059L96.4453 108.105V108.152L96.3984 108.211H96.293V108.152L96.3984 108.059ZM96.0938 108.609H96.1406L96.2461 108.703L96.1992 108.762H96.0938V108.609Z" fill="white"/>
<g clip-path="url(#clip0_14_487)">
<rect x="28" y="117" width="85" height="85" fill="#0F104C" fill-opacity="0.5"/>
<path d="M28.2 185.2H44.8V201.8H28.2V185.2Z" stroke="#5F0D16" stroke-width="0.4"/>
<path d="M28.2 168.2H44.8V184.8H28.2V168.2Z" stroke="#5F0D16" stroke-width="0.4"/>
<path d="M28.2 151.2H44.8V167.8H28.2V151.2Z" stroke="#5F0D16" stroke-width="0.4"/>
<path d="M28.2 134.2H44.8V150.8H28.2V134.2Z" stroke="#5F0D16" stroke-width="0.4"/>
<path d="M28.2 117.2H44.8V133.8H28.2V117.2Z" stroke="#5F0D16" stroke-width="0.4"/>
<path d="M45.2 185.2H61.8V201.8H45.2V185.2Z" stroke="#5F0D16" stroke-width="0.4"/>
<path d="M45.2 168.2H61.8V184.8H45.2V168.2Z" stroke="#5F0D16" stroke-width="0.4"/>
<path d="M45.2 151.2H61.8V167.8H45.2V151.2Z" fill="white"/>
<path d="M45.2 151.2H61.8V167.8H45.2V151.2Z" stroke="#5F0D16" stroke-width="0.4"/>
<path d="M45.2 134.2H61.8V150.8H45.2V134.2Z" fill="white"/>
<path d="M45.2 134.2H61.8V150.8H45.2V134.2Z" stroke="#5F0D16" stroke-width="0.4"/>
<path d="M45.2 117.2H61.8V133.8H45.2V117.2Z" stroke="#5F0D16" stroke-width="0.4"/>
<path d="M62.2 185.2H78.8V201.8H62.2V185.2Z" stroke="#5F0D16" stroke-width="0.4"/>
<path d="M62.2 168.2H78.8V184.8H62.2V168.2Z" stroke="#5F0D16" stroke-width="0.4"/>
<path d="M62.2 151.2H78.8V167.8H62.2V151.2Z" fill="#EB1E1E"/>
<path d="M62.2 151.2H78.8V167.8H62.2V151.2Z" stroke="#5F0D16" stroke-width="0.4"/>
<path d="M62.2 134.2H78.8V150.8H62.2V134.2Z" stroke="#5F0D16" stroke-width="0.4"/>
<path d="M62.2 117.2H78.8V133.8H62.2V117.2Z" stroke="#5F0D16" stroke-width="0.4"/>
<path d="M79.2 185.2H95.8V201.8H79.2V185.2Z" stroke="#5F0D16" stroke-width="0.4"/>
<path d="M79.2 168.2H95.8V184.8H79.2V168.2Z" fill="white"/>
<path d="M79.2 168.2H95.8V184.8H79.2V168.2Z" stroke="#5F0D16" stroke-width="0.4"/>
<path d="M79.2 151.2H95.8V167.8H79.2V151.2Z" fill="white"/>
<path d="M79.2 151.2H95.8V167.8H79.2V151.2Z" stroke="#5F0D16" stroke-width="0.4"/>
<path d="M79.2 134.2H95.8V150.8H79.2V134.2Z" stroke="#5F0D16" stroke-width="0.4"/>
<path d="M79.2 117.2H95.8V133.8H79.2V117.2Z" stroke="#5F0D16" stroke-width="0.4"/>
<path d="M96.2 185.2H112.8V201.8H96.2V185.2Z" stroke="#5F0D16" stroke-width="0.4"/>
<path d="M96.2 168.2H112.8V184.8H96.2V168.2Z" stroke="#5F0D16" stroke-width="0.4"/>
<path d="M96.2 151.2H112.8V167.8H96.2V151.2Z" stroke="#5F0D16" stroke-width="0.4"/>
<path d="M96.2 134.2H112.8V150.8H96.2V134.2Z" stroke="#5F0D16" stroke-width="0.4"/>
<path d="M96.2 117.2H112.8V133.8H96.2V117.2Z" stroke="#5F0D16" stroke-width="0.4"/>
</g>
<rect x="28.5" y="117.5" width="84" height="84" stroke="url(#paint1_linear_14_487)"/>
<defs>
<linearGradient id="paint0_linear_14_487" x1="73" y1="17" x2="73" y2="83" gradientUnits="userSpaceOnUse">
<stop stop-color="#123BD5"/>
<stop offset="1" stop-color="#CD2237"/>
</linearGradient>
<linearGradient id="paint1_linear_14_487" x1="31.7979" y1="120.436" x2="138.59" y2="226.777" gradientUnits="userSpaceOnUse">
<stop stop-color="#B17BFF"/>
<stop offset="1" stop-color="#FF0751"/>
</linearGradient>
<clipPath id="clip0_14_487">
<rect x="28" y="117" width="85" height="85" fill="white"/>
</clipPath>
</defs>
</svg>
