<svg width="142" height="218" viewBox="0 0 142 218" fill="none" xmlns="http://www.w3.org/2000/svg">
<rect x="0.5" y="0.5" width="141" height="217" rx="4.5" fill="#191515"/>
<rect x="0.5" y="0.5" width="141" height="217" rx="4.5" stroke="#B17BFF"/>
<path d="M82.29 85.87L81.93 85.33H81.39V84.7L80.49 84.43V83.89H79.86L79.59 82.36C79.95 81.91 80.13 81.46 80.13 80.92C80.13 80.47 80.13 80.11 80.13 79.66H80.76L81.39 76.96L82.56 76.69C84.9 72.73 86.43 68.41 87.06 63.73C87.6 59.05 88.14 54.46 88.77 49.96L87.87 47.53L84.27 47.26L76.89 49.06L76.62 49.96C73.65 50.86 70.77 52.03 68.07 53.38C65.19 54.64 62.13 55.27 58.8 55.27L54.93 54.1C53.58 52.75 52.86 51.13 52.77 49.33C52.68 47.53 52.41 45.82 51.96 44.02C52.41 42.85 52.68 41.59 52.77 40.15C52.86 38.8 52.86 37.36 52.86 36.01C52.86 32.86 52.32 29.89 51.33 27.01C50.34 24.04 49.17 21.34 47.82 18.82H48.09C49.08 19.45 50.07 20.08 51.24 20.62C52.32 21.34 53.58 21.7 54.93 21.7C56.37 20.89 57.72 20.08 59.16 19.18C60.51 18.28 61.95 17.74 63.57 17.56V16.39H64.2V15.85H65.28C65.91 16.39 66.63 16.66 67.44 16.75C68.25 16.84 68.97 16.93 69.78 16.93C71.58 16.57 73.2 16.12 74.82 15.49C76.35 14.86 78.06 14.32 79.86 13.69L85.53 14.95L85.8 16.66L85.26 18.19L75.45 20.53V23.59H76.26L78.69 23.23L83.73 23.86V24.4H84V26.56C82.65 27.37 81.12 27.82 79.59 28.09C77.97 28.36 76.44 28.99 75.18 29.8L74.55 33.94H75.18C76.17 33.49 77.16 33.22 78.33 33.13C79.41 33.04 80.49 33.04 81.66 33.04L82.92 33.31V35.11L73.92 38.71L73.29 45.19H74.82C77.61 44.38 80.49 43.84 83.64 43.57C86.7 43.3 89.76 43.12 92.91 43.12C94.17 44.11 95.43 44.83 96.87 45.1C98.22 45.37 99.48 45.91 100.65 46.63V49.06L100.38 49.96L96.78 51.4C94.89 56.8 93.18 62.38 91.74 68.14C90.39 73.81 88.05 79.3 84.9 84.43L83.19 84.97V85.6L82.29 85.87ZM49.89 76.96C48.54 74.62 46.74 72.55 44.76 70.75C42.6 68.95 40.53 67.24 38.37 65.35H38.64V64.81L38.37 63.91H39.45C41.7 64.36 43.68 64.99 45.66 65.8C47.46 66.7 49.44 67.69 51.33 68.68C51.96 69.4 52.5 70.21 52.95 71.02C53.31 71.83 53.4 72.73 53.22 73.72L52.59 75.52L50.79 75.88L49.89 76.96ZM61.14 72.01L59.43 70.75C58.62 69.13 57.63 67.6 56.73 66.07C55.74 64.63 54.66 63.1 53.67 61.48H54.93C56.37 61.75 57.63 62.11 58.8 62.56C59.97 63.1 61.14 63.82 62.04 64.81C62.67 65.53 63.12 66.43 63.57 67.33C64.02 68.23 64.11 69.22 63.84 70.48L62.94 70.75V72.01H62.31L61.41 71.65L61.14 72.01ZM70.05 68.95C68.52 67.6 67.17 66.07 66.18 64.63C65.19 63.1 64.38 61.48 63.57 59.77H65.28L70.68 62.11C71.13 62.92 71.58 63.73 72.12 64.54C72.48 65.26 72.66 66.16 72.39 67.15L72.21 68.14L70.41 68.41V68.95H70.05ZM78.69 63.64L76.26 63.01L73.29 57.61H75.18L81.03 60.04L81.39 61.84L80.13 63.01V63.37L78.69 63.64ZM58.17 49.42L56.73 48.52V49.69L59.07 50.23L69.78 46.63V45.82L68.61 44.92L68.07 41.32H68.61V40.42H67.44L60.96 41.32L59.07 40.78L58.44 49.42H58.17ZM68.88 36.01L69.51 31.51H68.88L64.2 32.14L59.07 31.33V32.14L59.43 37.54L59.07 38.44L61.41 38.71L68.88 36.01ZM68.88 26.56L69.15 25.03L68.07 22.33L66.81 21.7L64.74 19.09H61.77L57.9 21.43L57.36 23.86L57.54 25.03L57.09 27.1L58.17 29.44H59.07L68.88 26.56Z" fill="url(#paint0_linear_14_607)"/>
<path d="M40.3125 88.9219H40.3711C40.4336 88.9219 40.4648 89.0234 40.4648 89.2266C40.5664 89.2266 40.6172 89.2578 40.6172 89.3203V89.4258H40.5703C40.3359 89.3008 40.2188 89.168 40.2188 89.0273L40.3125 88.9219ZM42.1875 89.2266L42.2344 89.2734V89.3203L42.1875 89.3789H42.1289L42.082 89.3203V89.2734L42.1289 89.2266H42.1875ZM40.6172 89.4258C40.9531 89.9961 41.2578 90.2812 41.5312 90.2812L41.8828 89.8828L41.9297 89.9297V89.9766L41.5781 90.3398V90.3867L41.6836 90.4805C41.6836 90.3164 41.7656 90.2344 41.9297 90.2344L42.1289 90.2812C42.4102 90.1172 42.6133 90.0352 42.7383 90.0352L42.9375 90.2812C43.2266 90.0781 43.4961 89.9766 43.7461 89.9766L44.0039 90.1289L44.0508 90.082V90.0352L44.0977 90.082H44.2031V89.9766H44.25L44.2969 90.1289L44.3555 90.082H44.5547C44.5547 90.1523 44.5039 90.1875 44.4023 90.1875L44.4492 90.2344V90.2812L44.3555 90.5859C44.457 90.5859 44.5078 90.6211 44.5078 90.6914L44.0039 90.7383L43.9453 90.6914V90.6328L44.0039 90.5859V90.5391C43.9414 90.5391 43.8906 90.4531 43.8516 90.2812L43.4414 90.2344L43.0898 90.4336H42.9961L42.8438 90.3398H42.7852C42.3867 90.4336 42.1875 90.5312 42.1875 90.6328V90.6914C42.3516 90.7148 42.4336 90.7656 42.4336 90.8438C42.4336 90.8984 42.3164 90.9648 42.082 91.043V91.2422L42.4336 92.25L42.3398 92.7539C42.4336 92.7539 42.5156 92.9062 42.5859 93.2109V93.457L42.2344 94.7695L42.4336 96.2812V96.5859L42.3867 96.8438H42.4805V97.3945C42.4805 98.1289 42.4492 98.668 42.3867 99.0117H42.4336C42.9805 98.8945 43.4688 98.5898 43.8984 98.0977C44.0078 98.0977 44.1758 97.9492 44.4023 97.6523C44.6133 97.6523 44.75 97.6016 44.8125 97.5L44.9531 97.5469L46.0664 97.3477C45.9648 97.2305 45.8984 97.0781 45.8672 96.8906L45.5156 96.5391V96.4922H45.5625C45.7891 96.7578 46.0078 96.9414 46.2188 97.043C46.3906 97.043 46.4766 96.5234 46.4766 95.4844V95.1211C46.2031 94.7617 46.0664 94.293 46.0664 93.7148L46.3711 93.2109L46.3242 92.9062C46.3633 92.8203 46.5469 92.6875 46.875 92.5078L46.7695 92.4023L46.5703 92.5078C46.4375 92.4766 46.2695 92.2734 46.0664 91.8984C45.832 91.875 45.7148 91.8242 45.7148 91.7461L45.7617 91.6992V91.6406L45.7148 91.4414L45.7617 91.3945H45.9141L46.2188 91.6406L46.3242 91.3945C46.4727 91.457 46.5547 91.5234 46.5703 91.5938L46.5234 91.6406V91.6992L46.6758 91.7461L46.7227 91.6992H46.7695L46.9805 91.8516C47.043 91.8516 47.1602 91.7344 47.332 91.5L47.2266 91.3945C47.4219 91.2617 47.5586 91.1094 47.6367 90.9375V90.6914C47.5352 90.6914 47.4844 90.6562 47.4844 90.5859V90.5391H47.5312L47.5781 90.5859H47.6367L47.8359 90.4805L47.6836 90.1289H47.7305L47.9883 90.3398L48.0352 90.2812L48.082 90.3398C48.082 90.2383 48.1172 90.1875 48.1875 90.1875V90.3398H48.3867L48.5391 90.2344H48.8438C48.8438 90.3047 48.8945 90.3398 48.9961 90.3398C48.9961 90.4023 49.0469 90.4336 49.1484 90.4336L49.1953 90.4805V90.5859L49.0898 90.6914L49.1484 90.7383V90.7852L48.9961 90.9375H48.8906C48.8125 90.9375 48.7617 90.8711 48.7383 90.7383L48.4922 90.7852V90.8438C48.5781 91.0078 48.7109 91.0898 48.8906 91.0898L48.9492 91.1367V91.1953L48.8906 91.2422L48.6445 91.1953L48.5391 91.2891L48.6445 91.793L49.043 91.5H49.0898V91.5938L48.7383 91.8516H48.6914L48.7969 91.9453L48.9492 91.8984L48.9961 91.9453V92.0039L48.5859 92.0977V92.25L48.7969 92.2969V92.3555L48.7383 92.4023V92.4492C49.5117 92.8789 50.0859 93.1328 50.4609 93.2109L50.5547 93.4102L50.2031 93.457C50.1172 93.457 50.0156 93.3594 49.8984 93.1641L48.8906 92.707V92.7539L48.8438 93.2109V93.2578L48.9492 95.1797L48.8438 95.6836C48.9844 95.8398 49.1367 96.2773 49.3008 96.9961C49.5352 96.9961 49.6836 97.6992 49.7461 99.1055L49.3945 100.219L49.4531 100.266C49.3516 100.883 49.1992 101.371 48.9961 101.73C49.4023 102.418 49.6055 102.871 49.6055 103.09V103.547C49.4648 103.969 49.3789 104.391 49.3477 104.812C49.3867 105.156 49.4375 105.355 49.5 105.41V105.973C49.6172 106.34 49.6992 106.523 49.7461 106.523H49.8047L50.3086 105.867H50.4023L50.5078 105.973L49.8047 106.781V106.98H49.8516L50.2031 106.934L50.2617 106.98V107.027L50.1562 107.133L50.1094 107.074C50.1094 107.145 50.0391 107.18 49.8984 107.18C49.7891 107.414 49.707 107.531 49.6523 107.531L49.3945 107.18C49.3398 107.18 49.2891 107.297 49.2422 107.531H49.1953C49.125 107.531 49.0898 107.48 49.0898 107.379H48.9961V107.684C48.9961 107.855 48.9453 107.957 48.8438 107.988L48.8906 108.129C48.8672 108.434 48.8164 108.586 48.7383 108.586L48.6914 108.539V108.234L48.6445 107.684L48.6914 107.484C48.5977 107.484 48.5156 107.332 48.4453 107.027H48.3398C48.3398 107.262 48.2227 107.379 47.9883 107.379L47.8359 107.227L47.8828 106.98V106.875L47.4258 106.219H47.332L47.2266 106.418V106.57L47.2734 107.133L47.1328 107.438H47.0273L46.7695 106.629L46.8281 106.57L46.7695 106.324V106.125C46.9102 105.984 46.9805 105.848 46.9805 105.715L46.875 105.469L47.1797 104.355C46.9766 103.973 46.8242 103.367 46.7227 102.539V101.684L46.7695 101.379C46.6055 100.629 46.5234 100.008 46.5234 99.5156V99.4688L45.6094 99.2578C45.5234 99.2578 45.4258 99.4258 45.3164 99.7617H45.2109L45.3164 99.3164C45.3164 99.1758 45.1133 99.0391 44.707 98.9062C44.707 98.7422 44.5703 98.6602 44.2969 98.6602H44.1562L43.793 98.9062L43.8516 99.2578H43.793L43.7461 99.2109C43.4961 99.2109 43.3281 99.3125 43.2422 99.5156L43.1953 99.5625H43.1367V99.5156L43.2422 99.2109L43.1953 99.1641V99.1055C42.5859 99.1055 42.2812 99.2578 42.2812 99.5625C42.3047 99.7578 42.3555 99.9102 42.4336 100.02V100.219L42.3398 100.723L42.4805 101.426L42.3867 102.141V102.738C42.4883 102.871 42.5391 103.023 42.5391 103.195V103.301L42.4336 103.594C42.4336 103.734 42.5 103.805 42.6328 103.805L42.5391 103.898L42.5859 103.957V104.109L42.5391 104.156V104.203L42.5859 104.25H42.5391L42.6914 104.66L42.5859 105.621L42.6914 106.172L42.6328 106.629H42.7383L42.6914 106.676V106.828L43.1367 107.18H43.0898L42.6914 107.027V107.379L42.7383 107.684L42.6328 107.988V108.387H42.5391C42.375 107.754 42.2578 107.438 42.1875 107.438H42.1289L42.082 107.484H42.0352V107.438L42.082 107.379V107.332L41.7773 107.227V107.285C41.7461 107.387 41.6445 107.438 41.4727 107.438H41.4258C41.3555 107.438 41.3047 107.285 41.2734 106.98L41.3203 106.934H41.3789L42.1289 107.18V106.98L41.9766 106.781V106.676H42.082V106.629C41.7227 106.043 41.5039 105.488 41.4258 104.965L41.2734 104.707V104.613H41.3789L41.2734 104.203V104.156L41.3789 104.004C41.043 103.629 40.875 102.973 40.875 102.035L40.6172 101.379C40.4766 101.379 40.3594 101.262 40.2656 101.027H40.2188L40.0664 101.074V101.027C39.9492 100.902 39.7148 100.262 39.3633 99.1055L39.1172 97.9453L39.2578 96.0352C39.1172 95.9727 39 95.6016 38.9062 94.9219V94.418C38.8047 94.0508 38.7539 93.6992 38.7539 93.3633H38.5547L38.25 93.2578L38.0508 93.3047L38.0039 93.2578L37.957 93.4102C37.7852 93.2773 37.6484 93.2109 37.5469 93.2109L37.8047 92.9531C37.6016 92.9531 37.5 92.9023 37.5 92.8008L37.5469 92.7539H37.5938L37.7461 92.8008L37.6992 92.7539V92.6484C37.6992 92.5859 37.7656 92.5547 37.8984 92.5547C37.8984 92.3203 37.9844 92.2031 38.1562 92.2031L37.8516 91.6992L37.957 91.3945L37.8984 91.3477C37.9922 91.3477 38.0938 91.2773 38.2031 91.1367L38.25 91.1953C38.3047 91.0547 38.3555 90.9844 38.4023 90.9844C38.418 91.125 38.5352 91.1953 38.7539 91.1953L38.8594 91.4414L38.7539 91.5938L38.8125 91.6406V91.6992L38.6602 91.8984V91.9453L38.8594 92.1445H39.0117C39.0586 92.1445 39.1094 92.0781 39.1641 91.9453H39.2578L39.457 92.0977C39.457 92.168 39.4102 92.2031 39.3164 92.2031L39.3633 92.4492L39.3164 92.4023H39.2109V92.4492L39.3164 92.5547L39.9609 92.4023V92.3555L39.8672 92.2031V92.1445L39.9609 92.0039L39.8672 91.6992L40.2656 91.5469V91.4414L40.0195 91.043C39.8867 91.0742 39.7852 91.1914 39.7148 91.3945L39.6562 91.3477H39.5625L39.5039 91.6406H39.4102V91.5938L39.457 91.4414H39.3633L39.1172 91.6992H39.0117L38.9062 91.5938C38.9922 91.3984 39.2773 91.1953 39.7617 90.9844C40.1523 90.4531 40.5039 90.1875 40.8164 90.1875V90.082H40.875C40.7031 89.7773 40.6172 89.5586 40.6172 89.4258ZM49.3477 89.625H49.4531C49.7188 89.7969 49.8672 89.9648 49.8984 90.1289L49.957 90.1875L49.8516 90.2812H49.6523L49.4531 90.1289L49.3477 90.2344H49.3008C49.2461 90.2344 49.1953 90.168 49.1484 90.0352C49.2109 89.7617 49.2773 89.625 49.3477 89.625ZM47.2266 89.7305H47.332L47.6367 90.0352V90.082L47.2266 89.7773V89.7305ZM48.7969 89.8828L48.8438 89.9297V89.9766L48.7969 90.0352H48.7383L48.6914 89.9766V89.9297L48.7383 89.8828H48.7969ZM40.3125 89.9297L40.3711 89.9766V90.0352C40.3242 90.1992 40.2734 90.2812 40.2188 90.2812H40.1133L40.0195 90.1875C40.0742 90.0156 40.1719 89.9297 40.3125 89.9297ZM39.3164 90.0352L39.3633 90.082V90.1289C39.3477 90.2227 39.2656 90.293 39.1172 90.3398L39.0586 90.2812V90.2344L39.3164 90.0352ZM46.4766 90.4805L46.6289 90.6914V90.7383L46.5234 90.8438H46.3711L46.2656 90.7383V90.6914L46.4766 90.4805ZM45.3164 90.5391H45.5156L45.6094 90.6328V90.7383H45.4102L45.3164 90.6328V90.5391ZM37.3945 90.6328L37.5469 90.7852C37.5 90.918 37.4492 90.9844 37.3945 90.9844L37.3008 90.6914L37.3477 90.6328H37.3945ZM39.1641 90.6914V90.7383L39.0586 90.8438V90.7852L39.1641 90.6914ZM44.5547 90.9375L44.6016 90.9844V91.043L44.5547 91.0898H44.5078L44.4492 91.043V90.9844L44.5078 90.9375H44.5547ZM37.4414 90.9844H37.5L37.6992 91.0898V91.1953H37.6523L37.4414 91.0898V90.9844ZM43.793 90.9844H43.8984L44.0977 91.1953L43.9453 91.2891H43.7461L43.6523 91.1953V91.1367L43.793 90.9844ZM49.6992 90.9844H49.7461L49.8516 91.0898L49.6992 91.2422H49.6523L49.5469 91.1367L49.6992 90.9844ZM46.7695 91.043L46.8281 91.0898V91.1367L46.7695 91.1953H46.7227L46.6758 91.1367V91.0898L46.7227 91.043H46.7695ZM45.3164 91.2422H45.4688V91.3477H45.3164V91.2422ZM49.3008 91.6406C49.5586 91.7344 49.707 91.8359 49.7461 91.9453L49.6055 92.0508H49.5C49.4297 92.0508 49.3945 91.9648 49.3945 91.793L49.2422 91.7461L49.043 91.9453H48.9961L49.3008 91.6406ZM45.3633 92.0977H45.4688L45.5625 92.2031L45.5156 92.25H45.4688L45.3633 92.1445V92.0977ZM45.8203 92.1445H45.9141L46.0195 92.25C46.0195 92.3203 45.9531 92.3555 45.8203 92.3555V92.4023L46.0195 92.6484L45.8203 92.8594H45.7617L45.7148 92.8008H45.668C45.668 92.9023 45.6328 92.9531 45.5625 92.9531H45.4688L45.3164 92.8008C45.3398 92.5039 45.3906 92.3555 45.4688 92.3555H45.6094L45.668 92.4023H45.7148L45.7617 92.3555L45.7148 92.2969V92.25L45.8203 92.1445ZM37.1484 92.25H37.2422L37.3477 92.3555L37.3008 92.4023H37.043V92.3555L37.1484 92.25ZM37.5 93.2109H37.5469L37.4414 93.3047H37.3945L37.5 93.2109ZM37.1953 93.4102H37.2422C37.0312 93.7461 36.8984 93.9141 36.8438 93.9141L36.7852 93.8672V93.8086C36.957 93.5742 37.0938 93.4414 37.1953 93.4102ZM45.0117 95.3789H45.0586L45.2109 95.5312V95.6836H45.1641C45.0625 95.6445 45.0117 95.543 45.0117 95.3789ZM45.3164 95.9883C45.3164 96.1523 45.3828 96.3008 45.5156 96.4336V96.4922H45.4688C45.375 96.4453 45.2539 96.293 45.1055 96.0352L45.1641 95.9883H45.3164ZM44.5547 96.9961L44.6016 97.043V97.1484H44.5547L44.4492 97.043L44.5078 96.9961H44.5547ZM43.8516 97.3945L43.8984 97.4414V97.5C43.8984 97.6016 43.832 97.6523 43.6992 97.6523L43.3477 97.5469V97.4414H43.5L43.8516 97.3945ZM45.2109 99.8203V99.8672C45.1641 100.031 45.0469 100.113 44.8594 100.113V99.9727C44.8594 99.9023 44.9766 99.8516 45.2109 99.8203ZM51.0117 100.523L51.1641 100.676V100.723L51.0117 100.875H50.8125L50.707 100.77V100.676C50.7461 100.574 50.8477 100.523 51.0117 100.523ZM50.2617 100.629L50.3555 100.723V100.875C50.3555 100.969 50.2227 101.035 49.957 101.074L49.8047 100.77C49.9297 100.676 50.082 100.629 50.2617 100.629ZM50.4609 101.074C50.6641 101.098 50.7656 101.148 50.7656 101.227L50.6133 101.332H50.4609L50.3555 101.227V101.18L50.4609 101.074ZM50.3086 105.516H50.4609L50.5547 105.621L50.5078 105.668H50.2031V105.621L50.3086 105.516ZM51.0117 105.914C51.082 105.914 51.1328 106.035 51.1641 106.277L51.0117 106.371H50.9648L50.8125 106.219L51.0117 105.914ZM50.6133 106.723L50.707 106.828L50.6602 106.875H50.6133L50.5078 106.781L50.5547 106.723H50.6133ZM43.1367 107.18H43.3477L43.4414 107.285L43.3945 107.332C43.2227 107.285 43.1367 107.234 43.1367 107.18ZM46.9805 107.578H47.0742L47.332 108.434L47.1797 108.539C47.1016 108.539 47.0352 108.219 46.9805 107.578ZM39.7148 107.684L39.8086 107.789L39.6562 107.883L39.6094 107.836V107.789L39.7148 107.684ZM42.6328 108.586C42.7031 108.586 42.7539 108.723 42.7852 108.996H42.6914L42.6328 108.738V108.586ZM56.4375 92.543L56.4844 92.5898V92.8594H56.3789L56.332 92.5898L56.3789 92.543H56.4375ZM54.9727 92.5898L55.1836 92.8594H55.1367L54.8672 92.6484L54.9258 92.5898H54.9727ZM58.418 92.6953V92.7539L58.207 93.0117H57.9961V92.9648C58.0898 92.7852 58.2305 92.6953 58.418 92.6953ZM56.0156 92.7539H56.1211L56.332 93.3281L56.543 93.2695L56.6953 93.3281V93.2695L57.0117 92.9062V92.9648C56.957 93.0977 56.9023 93.1641 56.8477 93.1641L57.0586 93.5391C57.0039 93.7109 56.9023 93.7969 56.7539 93.7969L56.6953 93.7383V93.8438L56.9531 93.9492L57.1641 93.7969V93.9023L57.1172 93.9492V94.0078C57.2812 94.0078 57.4023 94.0391 57.4805 94.1016C57.4805 94.0156 57.5664 93.8945 57.7383 93.7383H57.9492V93.7969L57.5859 94.1602H57.8438L57.9961 94.0547H58.1602L58.0547 94.2656L57.9961 94.207H57.9023V94.2656H57.9961V94.3125L57.9492 94.3711V94.418C58.0195 94.418 58.0547 94.4727 58.0547 94.582L58.8398 94.418H58.8867C58.6914 94.6289 58.5195 94.7344 58.3711 94.7344C58.3711 94.8516 58.7344 95.0586 59.4609 95.3555L59.5195 95.4141V95.5195H59.4609C59.1406 95.3398 58.8281 95.2148 58.5234 95.1445H58.3711L58.5234 95.3555V95.4141L58.4648 95.3555H58.207V95.4609C58.4414 95.4609 58.6523 95.6172 58.8398 95.9297H58.8867V96.0352L58.5703 96.1406L58.418 96.0352L58.3711 96.0938H58.0547V96.1406L58.1602 96.293V96.3516H58.1016L57.9492 96.293V96.3984C57.9492 96.5312 58.0352 96.6875 58.207 96.8672L58.1602 96.9258H58.1016L57.9023 96.7148C57.793 96.7148 57.7227 96.8359 57.6914 97.0781H57.8438V97.1367L57.7383 97.2305H57.6914L57.5273 97.1367L57.375 97.1836L57.2695 97.0781C57.2695 97.25 57.1992 97.3359 57.0586 97.3359C57.0586 97.4062 57.1992 97.5117 57.4805 97.6523V97.6992C57.3398 97.9102 57.2695 98.0664 57.2695 98.168L57.3281 98.4375L57.2695 98.4844H57.2227L57.1641 98.332H57.1172L57.0586 98.6953V98.7422C57.168 98.7422 57.2227 98.7773 57.2227 98.8477V98.9062L57.1172 99.0117C57.1172 98.918 56.9258 98.7617 56.543 98.543H56.4844L56.2852 98.6953L56.1797 98.5898H56.0156L55.8047 98.6484L55.7578 98.5898H55.7109C55.625 98.5898 55.4492 98.6953 55.1836 98.9062L55.0312 98.8477V98.9062C55.0312 98.9766 54.8906 99.0117 54.6094 99.0117C54.5781 99.0977 54.3359 99.2188 53.8828 99.375C53.8828 99.4531 53.7422 99.5234 53.4609 99.5859C53.4609 99.7031 53.1836 99.9609 52.6289 100.359C52.4883 100.57 52.3477 100.676 52.207 100.676L52.418 101.145V101.355C52.3164 101.48 52.2656 101.602 52.2656 101.719V102.035C52.6094 103.16 53.0273 103.836 53.5195 104.062C54.4414 105 55.4141 105.469 56.4375 105.469L56.7539 105.422L57.1641 105.527C57.3828 105.527 57.7852 105.18 58.3711 104.484C58.4648 104.484 58.5508 104.344 58.6289 104.062C58.8789 104.062 59.2617 103.699 59.7773 102.973L59.7188 102.293C59.7188 102.16 59.7734 102.02 59.8828 101.871V101.613L60.0352 99.8438L59.9883 99.5273L60.0352 99.4805V99.4219L59.9883 99.2695L60.0352 99.2109L59.9297 99.1172V98.9062L59.9883 98.8477C59.9258 98.6914 59.8203 98.5703 59.6719 98.4844L59.5195 98.543L59.4141 98.3789L59.4609 98.332L59.3555 98.2266L59.4141 98.168V98.1211C59.9453 98.3242 60.2383 98.5312 60.293 98.7422V98.8008L60.2461 98.8477C60.3242 99.0898 60.3945 99.2109 60.457 99.2109L60.5039 99.0586L60.3984 98.8477L60.5039 98.6484L60.457 98.3789L60.5039 98.2266L59.9297 97.6992L59.8828 97.7578V97.6992L59.9297 97.5469L59.7773 97.3945H59.8242L60.082 97.5469C60.1836 97.4219 60.4453 97.2852 60.8672 97.1367V97.2891C60.4141 97.4062 60.1875 97.5273 60.1875 97.6523L60.9258 98.332C61.1914 98.332 61.3828 98.6094 61.5 99.1641V99.4805L61.7109 99.7852L61.6055 100.102L61.7578 101.461C61.6953 101.531 61.6445 101.789 61.6055 102.234C61.5195 102.234 61.4492 102.461 61.3945 102.914C61.082 103.016 60.9258 103.172 60.9258 103.383C60.9258 103.734 60.8047 103.91 60.5625 103.91C60.4531 104.16 60.1055 104.488 59.5195 104.895C59.0508 105.77 58.5781 106.207 58.1016 106.207C57.9453 106.48 57.5117 106.617 56.8008 106.617L56.0156 106.828C55.4609 106.828 54.4688 106.48 53.0391 105.785L52.1602 105.316C52.0039 105.113 51.6367 104.836 51.0586 104.484C50.2305 103.609 49.8164 103.051 49.8164 102.809V102.762L49.7578 101.719L49.8633 101.613V101.402L49.7578 100.828V100.723C49.9688 100.457 50.0742 100.285 50.0742 100.207C49.9023 100.207 49.8164 100.172 49.8164 100.102V99.9492L50.3789 98.6953C50.543 97.9766 50.668 97.6133 50.7539 97.6055C51.0273 97.2539 51.3047 97.0781 51.5859 97.0781C51.9219 96.7891 52.1992 96.3359 52.418 95.7188L52.8867 95.4609L53.6133 94.9453L54.3984 94.6289C54.75 94.4805 54.9258 94.375 54.9258 94.3125V94.207L54.6094 93.7969H54.6562C54.875 94 55.0352 94.1016 55.1367 94.1016L55.2891 93.9023L55.2305 93.8438L55.2891 93.7969L55.1836 93.6914V93.6328H55.2305C55.3008 93.6328 55.3359 93.6875 55.3359 93.7969H55.5L55.7578 93.5859L55.6523 93.4336V93.375L56.0156 93.4336C56.0156 93.3242 56.0703 93.2695 56.1797 93.2695L56.0156 92.8008V92.7539ZM57.375 92.8008H57.4219V92.9062L57.3281 93.0117H57.2227V92.9648L57.375 92.8008ZM57.8438 93.1641H57.9023V93.2227C57.9023 93.2773 57.832 93.3281 57.6914 93.375V93.3281L57.8438 93.1641ZM54.7617 93.2695H54.8203L54.9258 93.375L54.8672 93.4336H54.8203L54.7617 93.375V93.2695ZM54.3984 93.6328H54.457L54.5625 93.7383H54.5039L54.3984 93.6328ZM58.9922 93.7969L59.0391 93.8438V93.9023L58.7812 94.1016L58.6289 94.0547V94.0078C58.6289 93.9453 58.75 93.875 58.9922 93.7969ZM58.2656 96.3516H58.3125C58.7656 96.5156 58.9922 96.6719 58.9922 96.8203C59.0703 96.8203 59.2969 96.9922 59.6719 97.3359H59.5664C58.9961 97.0391 58.6484 96.7812 58.5234 96.5625C58.3516 96.5625 58.2656 96.5078 58.2656 96.3984V96.3516ZM59.8828 96.8203L59.9883 96.9258L59.8242 97.0312L59.7188 96.9258L59.8828 96.8203ZM61.9102 97.2305L61.9688 97.2891V97.3359C61.9688 97.4062 61.7773 97.4609 61.3945 97.5V97.4414C61.3945 97.3398 61.5664 97.2695 61.9102 97.2305ZM62.0156 97.5H62.0742L62.1797 97.6055H62.0156V97.5ZM58.3125 97.6055H58.4648V97.6523L58.3711 97.7578L58.3125 97.6992V97.6055ZM58.9453 97.8633H58.9922L59.1445 98.0156V98.0742H59.0391L58.9453 97.9688V97.8633ZM62.7539 97.8633L62.8008 97.9102V97.9688L62.6484 98.0742L62.5898 98.0156V97.9688L62.7539 97.8633ZM61.8633 98.2734H61.9688V98.332L61.8633 98.4375H61.7578V98.3789L61.8633 98.2734ZM58.6289 98.9062H58.6758L58.7812 99.0117L58.7344 99.0586H58.6289V98.9062ZM59.1445 99.5273H59.25V99.5859L59.1445 99.6797V99.5273ZM57.4219 99.8906L57.4805 99.9492V99.9961L57.4219 100.055H57.375L57.3281 99.9961V99.9492L57.375 99.8906H57.4219ZM56.9531 100.254L57.0117 100.312V100.359L56.9062 100.465H56.8477L56.7539 100.359L56.9531 100.254ZM56.2266 101.098H56.2852V101.145L56.1797 101.25H56.0742L56.2266 101.098ZM55.7109 101.508H55.7578V101.613H55.8047C55.8047 101.676 55.6836 101.797 55.4414 101.977H55.3359V101.93L55.7109 101.508ZM55.0312 102.293H55.1836V102.34C55.1133 102.48 55.0078 102.551 54.8672 102.551L54.8203 102.504V102.445L55.0312 102.293ZM54.5625 102.914V103.078L54.457 103.184H54.3984V103.078L54.5625 102.914ZM54.0938 103.441L54.1875 103.547L54.0352 103.652L53.9883 103.594V103.547L54.0938 103.441ZM60.1875 105.059L60.2461 105.105V105.164L59.8242 105.469L59.7773 105.422V105.363C59.918 105.16 60.0547 105.059 60.1875 105.059ZM64.582 91.2773H64.6172L64.6875 91.3477L64.6523 91.3828H64.6172L64.582 91.3477V91.2773ZM65.9766 91.2773V91.3125L65.7188 91.7578C65.8203 91.7578 65.8711 91.793 65.8711 91.8633L66.0938 91.7578V91.793L66.0234 91.8984V91.9805L66.1641 92.0156L66.3516 91.8281V91.8633L66.2461 92.0156H66.3164V92.0508L66.2812 92.1562C66.3359 92.1562 66.4688 92.0586 66.6797 91.8633V91.8984L66.457 92.2734L66.6445 92.3086C66.6445 92.2539 66.707 92.2188 66.832 92.2031L66.7148 92.3438V92.4141H66.7969V92.4609L66.7148 92.5664C66.8164 92.5664 66.8672 92.5898 66.8672 92.6367L66.832 92.6836L66.9727 92.7539C67.2461 92.7539 67.4219 92.5078 67.5 92.0156C67.7422 91.8828 67.8633 91.7969 67.8633 91.7578H67.9336L67.8984 91.793V91.8633L68.1914 91.9453L68.9648 91.3477H69.0117L69.082 91.4297V91.5L68.8945 91.5352V91.5L68.3438 91.9453L68.4844 92.2383C68.4844 92.3711 68.3633 92.5195 68.1211 92.6836H68.0508V92.7539C68.4727 93.1445 68.8398 93.3398 69.1523 93.3398C69.1523 93.4023 69.3359 93.5391 69.7031 93.75C69.7031 93.9297 69.9883 94.0391 70.5586 94.0781C70.7539 94.1953 70.9375 94.3789 71.1094 94.6289C71.2969 94.6289 71.4922 94.9375 71.6953 95.5547C71.6953 95.6797 71.832 95.9023 72.1055 96.2227L72.1758 96.7734H72.2109C72.2656 96.7734 72.3047 96.6602 72.3281 96.4336L72.5508 96.2227L72.5859 96.2578H72.7734L72.9492 96.2227V96.293C72.8789 96.293 72.8438 96.3398 72.8438 96.4336L72.9141 96.5156V96.5508C72.9141 96.5977 72.8516 96.6211 72.7266 96.6211C72.6875 96.6992 72.6016 96.7383 72.4688 96.7383L72.4336 96.9141C72.4336 96.9922 72.4727 97.0312 72.5508 97.0312L72.5859 97.0664V97.1016L72.3984 97.2188V97.2539C72.4609 97.4414 72.7422 97.6602 73.2422 97.9102V97.9922H73.207C73.0352 97.9922 72.7656 97.8203 72.3984 97.4766C72.2031 97.4766 72.1055 97.6094 72.1055 97.875L72.1406 98.0273H72.0352V98.1328H72.1406V98.168C72.1406 98.2227 72.1055 98.25 72.0352 98.25V98.2852L72.0703 98.4258C71.9688 98.5742 71.918 98.6875 71.918 98.7656L72.0352 98.8711V98.9414H71.9883L71.8477 98.8711L71.8125 99.0586L71.8477 99.1641L71.8125 99.1289H71.7773L71.7305 99.1641V99.1992L71.7773 99.3516H71.7305L71.6953 99.3164H71.6602L71.3672 99.9023L70.7812 100.5C70.7812 100.578 70.6211 100.809 70.3008 101.191V101.273H70.2656L70.3008 101.309V101.496C70.1602 101.738 70.0352 101.859 69.9258 101.859V101.895C70.543 101.895 70.9492 102.008 71.1445 102.234C71.8086 102.773 72.2383 103.25 72.4336 103.664C72.6289 103.828 72.7891 104.113 72.9141 104.52L73.4297 105.211L73.3945 105.328C73.5039 105.602 73.5898 105.762 73.6523 105.809L74.1328 106.172L74.5781 106.395L74.7656 106.43L74.9414 106.289H74.9766C75.0703 106.289 75.1328 106.422 75.1641 106.688C75.1172 106.703 75.0703 106.766 75.0234 106.875L74.7656 106.805L74.5781 106.84L74.3906 106.77C74.7109 107.09 75.2266 107.699 75.9375 108.598L76.3125 108.715L76.3477 108.68V108.75C76.2695 108.75 76.2305 108.773 76.2305 108.82C76.332 108.992 76.6641 109.277 77.2266 109.676C77.2266 109.746 77.2773 109.781 77.3789 109.781V109.852H77.3438C76.9219 109.516 76.6016 109.309 76.3828 109.23C76.3828 109.191 76.2617 109.082 76.0195 108.902C75.7305 108.621 75.457 108.41 75.1992 108.27C74.6914 107.941 74.3477 107.648 74.168 107.391C73.7773 107.156 73.582 106.984 73.582 106.875C73.4805 106.875 73.2344 106.738 72.8438 106.465C72.7031 106.465 72.4922 106.281 72.2109 105.914C72.2109 105.812 71.8789 105.492 71.2148 104.953C70.9805 104.727 70.6758 104.543 70.3008 104.402L69.5273 103.781C69.457 103.656 69.2461 103.531 68.8945 103.406L68.7891 103.266V103.219H68.8242L69.0117 103.266L69.0469 103.219C68.9688 103.023 68.7695 102.926 68.4492 102.926L68.3438 102.855L68.1914 102.891C67.8008 102.648 67.6055 102.453 67.6055 102.305C67.6055 102.234 67.4805 102.012 67.2305 101.637V101.566L67.3125 101.496H67.418L67.5 101.566V101.602L67.4531 101.637L67.7578 102.27L67.7109 102.375L67.7578 102.41H67.793C68.332 102.066 68.6016 101.746 68.6016 101.449C68.6016 101.309 68.6992 101.238 68.8945 101.238L69.2227 100.418C69.3242 100.418 69.4609 100.113 69.6328 99.5039C69.875 99.2461 70.0117 99.0469 70.043 98.9062H70.0078L70.0781 98.7656L70.043 98.7305L70.1133 98.6484L69.8906 98.6133V98.6484L69.3047 98.4727L69.1172 98.6484H69.082V98.5781L69.1875 98.4258H69.082V98.3555L69.2227 98.3906L69.3398 98.3555C69.4727 98.4336 69.6562 98.4727 69.8906 98.4727V98.3555H69.9258L69.7852 98.1328L69.5977 98.2148V98.168L69.3398 98.25V98.2148L69.375 98.168V98.1328L69.3047 98.0625L69.4453 97.9922V97.957L69.0469 97.9102V97.8398H69.3047L69.4805 97.8047V97.7695C69.4336 97.7695 69.3477 97.6211 69.2227 97.3242V97.1719C69.293 97.1719 69.3672 97.2969 69.4453 97.5469L69.75 97.4766V97.4297L69.7031 97.3945V97.3594L69.7852 97.2891L69.668 97.1719L69.8203 97.0664L69.5977 96.6211L69.6328 96.5859H69.668C69.8555 96.9297 70.0391 97.1016 70.2188 97.1016L70.2656 96.9961C70.1016 96.918 69.8555 96.4883 69.5273 95.707C69.1445 95.1602 68.7734 94.8516 68.4141 94.7812C68.2109 94.5781 67.9297 94.3828 67.5703 94.1953L67.5352 94.2305C67.5039 94.0586 67.4414 93.9727 67.3477 93.9727L67.3828 93.9375V93.8906L67.2305 93.8203H67.1602C67.1602 93.9375 67.0742 94.0859 66.9023 94.2656V94.3359C67.1914 94.4297 67.4023 94.5664 67.5352 94.7461H67.4531C67.3125 94.6289 67.168 94.5664 67.0195 94.5586L66.832 94.3711H66.7969V94.4883L66.832 94.5234V94.5586H66.7969L66.6445 94.4883L66.5039 94.5234C66.5039 94.6875 66.6016 94.8086 66.7969 94.8867L66.9023 95.1094L66.8672 95.332C66.8672 95.6758 66.918 95.8477 67.0195 95.8477L67.0898 95.918C66.9414 96.707 66.793 97.1016 66.6445 97.1016L66.6797 97.1367V97.4766C66.5312 97.8125 66.457 98.2305 66.457 98.7305L66.3867 99.0938C66.4336 99.1875 66.457 99.3242 66.457 99.5039V99.5742L66.3164 99.8672L66.6094 100.898C66.7734 100.898 66.8711 100.949 66.9023 101.051V101.086L66.6094 101.93L66.5742 101.977V102.82C66.5742 103.367 66.6484 103.871 66.7969 104.332V104.402L66.832 105.293L66.7969 105.398L67.0195 105.809C67.0195 106.238 66.9805 106.496 66.9023 106.582C66.9492 106.621 67.0117 107.137 67.0898 108.129C67.1367 108.129 67.1836 108.238 67.2305 108.457C67.2852 108.465 67.3359 108.527 67.3828 108.645C67.3125 108.887 67.25 109.008 67.1953 109.008L67.0898 108.938H67.0547L67.0898 109.16L67.0547 109.195V109.23L67.0898 109.336L67.0547 109.371H67.0195L67.0547 109.418L66.9727 109.852L67.0547 110.004L67.0195 110.262V110.414L67.0898 111.188L67.0547 111.223V111.258L67.0898 111.293L67.0547 111.48L67.0898 111.621H67.0547L66.9727 111.551V111.41L66.7969 110.262L66.832 110.156C66.6836 110.094 66.6094 109.945 66.6094 109.711C66.5625 109.711 66.5391 109.746 66.5391 109.816L66.5039 109.852H66.457L66.4219 109.816L66.3164 109.934C66.2695 109.738 66.1719 109.641 66.0234 109.641C65.875 109.523 65.8008 109.336 65.8008 109.078L65.9062 108.902V108.855H65.8359V108.785H65.9062V108.75L65.6484 108.387H65.6133L65.5078 108.457L65.2852 108.199L65.2031 108.457L65.25 108.492V108.527C65.1797 109.059 65.1055 109.355 65.0273 109.418L65.0625 109.453V109.559L65.0273 109.781L65.0625 109.898L64.9102 110.191L64.9453 110.227H64.9805L64.9453 110.672V110.848H64.875V110.812C64.875 110.133 64.8125 109.617 64.6875 109.266V108.785L64.7227 108.562C64.6758 108.438 64.6523 108.219 64.6523 107.906V107.684L64.6875 107.648C64.5391 107.273 64.4297 106.793 64.3594 106.207V106.137C64.4297 105.629 64.4922 105.359 64.5469 105.328L64.5117 105.176L64.5469 105.141H64.582L64.5469 105.105V105.035L64.6523 104.848L64.5469 104.625V104.52C64.5469 104.238 64.582 103.93 64.6523 103.594C64.6289 103.484 64.5664 103.41 64.4648 103.371L64.5469 103.148L64.4648 103.078L64.5469 102.785C64.4688 102.785 64.4297 102.758 64.4297 102.703V102.668L64.4648 102.527L64.3594 102.234C64.2109 102.234 64.1367 102.148 64.1367 101.977L64.1719 101.414L64.1016 100.898L64.1367 100.535C64.0742 100.395 63.9766 99.9883 63.8438 99.3164C63.8125 99.3164 63.7734 99.2305 63.7266 99.0586L63.7734 98.8359C63.6875 98.3125 63.6016 98.0039 63.5156 97.9102V97.1016C63.6094 97.0391 63.668 96.5586 63.6914 95.6602L63.6562 95.625H63.6211L63.5508 95.707L63.5859 95.8125C63.5391 95.8125 63.5 95.875 63.4688 96L63.2578 96.0703H63.2109V95.9648H63.1406L62.8828 96.1055L62.8477 96.0703V96.0352C62.9727 95.8867 63.0352 95.7773 63.0352 95.707L62.8828 95.5547L63 95.4492L63.1406 95.4844C63.2422 95.4453 63.293 95.4062 63.293 95.3672V95.2266L63.2109 95.1094C63.2109 95.0625 63.2617 95.0391 63.3633 95.0391V95.0039L63.293 94.8867V94.8516C63.4102 94.8516 63.4688 94.8164 63.4688 94.7461L63.3281 94.6641L63.3633 94.5586L63.1406 94.3008V94.2305H63.2109L63.3984 94.3711L63.3633 94.4062C63.4258 94.6328 63.5234 94.7461 63.6562 94.7461V94.7109L63.5508 94.4531V94.3359L63.5859 93.7148C63.4062 93.543 63.2695 93.457 63.1758 93.457L63.1406 93.4922L63.1758 93.5273V93.5977C63.082 93.5977 63.0352 93.6602 63.0352 93.7852C62.8867 93.7852 62.8125 93.8203 62.8125 93.8906C62.8672 93.8906 62.9023 93.9531 62.918 94.0781L62.8125 94.1133L62.8477 94.3008H62.8125C62.7656 94.3008 62.7422 94.2656 62.7422 94.1953L62.707 94.2305H62.5195C62.3945 94.2305 62.332 94.168 62.332 94.043C62.2148 94.043 62.1562 94.0195 62.1562 93.9727L62.4141 93.8555V93.7852C62.3359 93.7852 62.2344 93.6016 62.1094 93.2344C62.3594 93.5 62.4844 93.6836 62.4844 93.7852L62.5195 93.75H62.5547L62.7422 93.7852V93.7148C62.5938 93.7148 62.5195 93.6016 62.5195 93.375L62.6719 93.3398C62.6328 93.1211 62.5586 93.0117 62.4492 93.0117L62.5195 92.9414L62.4844 92.8945V92.6016L62.6367 92.4141V92.3438L62.5547 92.0508V91.9805C62.6094 91.9805 62.6602 92.0781 62.707 92.2734L62.8125 92.3438C62.8828 92.3438 62.918 92.2812 62.918 92.1562H63.0352C63.0352 92.2422 63.082 92.3281 63.1758 92.4141V92.4609L63.3281 92.3438V92.4141L63.2578 92.6016L63.4336 92.7891H63.4688L63.3633 93.0469V93.082L63.5156 93.2344H63.5859C63.7109 93.2344 63.7852 93.1953 63.8086 93.1172L63.7734 93.0117H63.8086L63.8789 92.7891L63.4688 92.4961V92.4141H63.5156L63.9961 92.7539C64.1133 92.7227 64.1719 92.6836 64.1719 92.6367L64.1367 92.6016C64.207 92.5938 64.2578 92.5312 64.2891 92.4141L64.1016 92.2383H64.1367L64.3945 92.3789V92.3086L64.3242 92.0859H64.3594C64.4062 92.0859 64.4297 92.125 64.4297 92.2031H64.5117V92.1562L64.4648 92.1211V92.0859C64.5664 92.0859 64.6172 92.0625 64.6172 92.0156C64.5938 91.9219 64.5078 91.7969 64.3594 91.6406V91.6055H64.4297L64.8047 91.9453V91.8633H64.875V92.0508H64.9102L65.0625 91.8984V91.8633C65 91.8633 64.9141 91.7891 64.8047 91.6406V91.6055H64.8398C65.0117 91.6992 65.0977 91.7852 65.0977 91.8633L65.168 91.793L65.2031 91.8281H65.2852L65.25 91.793V91.6875L65.3203 91.6055L65.4609 91.6406L65.5078 91.4648H65.5781V91.6406L65.6484 91.7227C65.8125 91.4492 65.9219 91.3008 65.9766 91.2773ZM62.3789 91.6875L62.4492 91.793V91.8281C62.3477 91.7891 62.2969 91.7539 62.2969 91.7227L62.332 91.6875H62.3789ZM62.4844 91.8633L62.5547 91.9453V91.9805L62.4844 91.8984V91.8633ZM68.9297 91.8633L68.9648 91.8984V91.9453L68.9297 91.9805H68.8594V91.9453L68.9297 91.8633ZM63.9961 92.5312H64.0312L64.1016 92.6016H63.9961V92.5312ZM62.707 94.6641H62.7422V94.7812H62.6367V94.7461L62.707 94.6641ZM68.0508 95.332H68.0859L68.1562 95.4023L67.9336 95.5195L67.8984 95.4844V95.4492L68.0508 95.332ZM73.0664 96.5859H73.1719V96.6562H73.0664V96.5859ZM68.6719 96.8086L68.7539 96.8789H68.6016L68.6719 96.8086ZM69.5273 97.582V97.6172L69.5977 97.6875H69.75L69.8203 97.6172V97.5469L69.5273 97.582ZM68.1211 97.7344H68.2734V97.8398H68.2266L68.1211 97.8047V97.7344ZM70.2656 97.9102L70.3711 97.957V97.8398H70.3359L70.2656 97.9102ZM70.1484 97.957L70.2188 98.0625C70.2188 98.1328 70.1484 98.168 70.0078 98.168V98.3203L69.9609 98.5078L70.1484 98.3555L70.1133 98.25H70.1484C70.2266 98.25 70.2656 98.1641 70.2656 97.9922L70.2188 97.957H70.1484ZM72.6211 98.3906H72.6562C72.8281 98.4766 72.9648 98.5898 73.0664 98.7305H73.0312C72.875 98.7305 72.7383 98.6172 72.6211 98.3906ZM73.8398 98.6836H73.9805V98.7656H73.8398V98.6836ZM72.0703 99.3516H72.1406V99.4688H72.0703V99.3516ZM71.8828 99.5039C72 99.5039 72.125 99.6641 72.2578 99.9844C72.0781 99.9141 71.9414 99.7773 71.8477 99.5742L71.8828 99.5391V99.5039ZM68.9297 105.176V105.211L68.8242 105.363L69.0117 105.434C68.9414 105.676 68.8164 105.836 68.6367 105.914H68.4492L68.3086 105.809L68.1211 105.844L68.2266 105.691L68.1914 105.469L68.4492 105.293L68.7891 105.328L68.9297 105.176ZM69.75 105.176H69.8555L69.9258 105.258L69.8555 105.328H69.7031L69.6328 105.258L69.75 105.176ZM69.4453 105.258H69.5625V105.328H69.375L69.4453 105.258ZM69.1523 105.328H69.375L69.3047 105.398H69.082L69.1523 105.328ZM68.5312 106.207L68.5664 106.254V106.289L68.5312 106.324H68.4844L68.4492 106.289V106.254L68.4844 106.207H68.5312ZM65.8008 110.707L65.8359 110.742V110.777C65.8359 110.902 65.7969 110.977 65.7188 111L65.6836 110.965V110.93C65.707 110.781 65.7461 110.707 65.8008 110.707ZM78.1875 90.2695H78.2344V90.3281L78.1289 90.4336H78.082V90.375L78.1875 90.2695ZM73.6172 90.9023C73.7891 90.9023 74.0742 90.9922 74.4727 91.1719V91.2305H74.3672C73.8672 91.1758 73.6172 91.1016 73.6172 91.0078V90.9023ZM88.4297 91.3828L88.5352 91.5469C88.5352 91.6094 88.4141 91.7148 88.1719 91.8633H88.1133V91.8047C88.2461 91.5469 88.3516 91.4062 88.4297 91.3828ZM74.8477 91.4414L75.5391 91.8047L76.8516 92.3906L76.9102 92.4492H77.0156L77.1797 92.2852L77.1211 92.1328H77.1797L77.332 92.1797L77.6016 92.0273H77.6484L78.0234 92.3438L78.2344 92.0742L78.5039 92.1328L78.6094 92.0273H78.7148V92.0742L78.6562 92.2383L79.2422 92.4961C80.3672 92.1445 81.2891 91.9688 82.0078 91.9688C82.0078 91.8594 82.2031 91.8047 82.5938 91.8047V91.8633L83.0156 91.6992H83.4375L84.9844 91.5469C85.7812 91.6875 86.2578 91.8086 86.4141 91.9102L87.2109 91.4883H87.375C87.3516 91.5664 87.1211 91.7266 86.6836 91.9688V92.0273L87.0469 92.0742H87.4219V92.1797H87.1523V92.2852H87.2695V92.3438C87.1367 92.5547 86.9766 92.6602 86.7891 92.6602V92.707L87.375 92.8242L87.4219 92.7656V92.8711H87.5859L88.7461 92.3906H88.8047C88.9453 92.4453 89.0156 92.5 89.0156 92.5547V92.8242L88.9688 92.8711V92.9297H89.1211V93.0352H89.0156L88.8516 92.9297L88.7461 93.0352H88.5938L88.2773 92.9297L88.1133 92.9766L88.0664 92.9297H88.0078C87.5234 93.0312 87.2578 93.1172 87.2109 93.1875V93.1406L87.2695 93.082V93.0352L86.8945 93.082V93.1406L87.6328 93.7734V93.832H87.5273L87.1055 93.3984L87.0469 93.457V93.7266C87.0469 94.0781 87.1719 94.2539 87.4219 94.2539C87.4219 94.332 87.2969 94.3828 87.0469 94.4062C87.0469 94.5859 87.0117 94.6758 86.9414 94.6758L86.8945 94.6289H86.8359C86.7734 94.6289 86.6328 94.7852 86.4141 95.0977C86.4688 95.2773 86.5742 95.3672 86.7305 95.3672V95.3086C86.7305 95.207 86.7656 95.1562 86.8359 95.1562H86.8945C87.0664 95.2578 87.1523 95.3633 87.1523 95.4727L87 95.7891H87.375V95.8945C86.4844 96.043 86.0391 96.1875 86.0391 96.3281V96.4336L86.4727 96.4805L86.5195 96.4336H86.5781C86.7891 96.4336 86.8945 96.5547 86.8945 96.7969V96.9023L86.8359 96.9609V97.0078L87.2695 97.4414H87.2109C86.7109 97.0586 86.4297 96.8086 86.3672 96.6914L85.7812 96.6445H85.6172L85.3008 96.3281H85.2422V96.4805L85.5117 97.2773C85.1211 96.9805 84.6445 96.6797 84.082 96.375C82.1055 96.5547 80.8828 96.8047 80.4141 97.125C80.2578 97.125 80.0117 97.2461 79.6758 97.4883L80.0391 97.5938L80.0977 97.5469H80.1445L83.1211 98.1797H84.0234C84.8828 98.1797 86.2656 98.5352 88.1719 99.2461C88.8359 99.6211 89.2227 100.008 89.332 100.406C89.6992 100.836 90.0547 101.051 90.3984 101.051L90.668 100.945L90.5508 101.098V101.156C90.7695 101.352 91.1953 101.527 91.8281 101.684C91.8438 101.824 91.8984 101.895 91.9922 101.895V102H91.9336C91.4648 102 91.1641 101.879 91.0312 101.637C90.9062 101.637 90.7656 101.566 90.6094 101.426H90.5039C90.4336 101.426 90.3984 101.477 90.3984 101.578L90.3398 101.637H90.293C90.293 101.566 90.2383 101.531 90.1289 101.531L89.918 101.473L89.8711 101.426V101.367L89.9766 101.262V101.203L89.4961 101.098H89.3906L89.332 101.473L89.4375 101.637V101.684L89.332 101.789C89.2773 101.648 89.2266 101.578 89.1797 101.578H89.0742V101.684C89.0742 101.863 89.3047 102.129 89.7656 102.48V102.539L89.707 102.75C89.8477 102.75 89.918 102.785 89.918 102.855V102.902C89.8711 103.105 89.6406 103.391 89.2266 103.758C88.6797 103.953 87.8672 104.344 86.7891 104.93C86.6094 104.93 85.7773 105.316 84.293 106.09L81.9492 107.051C81.793 107.191 81.4062 107.352 80.7891 107.531C80.7891 107.781 80.5586 107.938 80.0977 108L79.1367 108.375C78.8633 108.375 78.5469 108.496 78.1875 108.738C77.5703 109.168 76.8594 109.488 76.0547 109.699L76.0078 109.758V109.699L76.6992 109.113V109.066L76.4297 109.113V109.066L76.5352 108.797L76.8516 108.902L77.4961 108.527C77.7148 108.527 77.9258 108.301 78.1289 107.848L78.7734 107.203C78.9297 107.203 79.1211 107.062 79.3477 106.781C80.9727 105.828 81.9648 105.086 82.3242 104.555C82.418 104.555 82.668 104.359 83.0742 103.969C83.7773 103.609 84.3242 102.973 84.7148 102.059C84.7148 101.59 84.5391 101.27 84.1875 101.098L83.0742 100.57L82.9102 100.676H82.8516V100.629L82.9102 100.57V100.523C82.4805 100.523 82.1953 100.469 82.0547 100.359H81.8438C81.7266 100.359 81.6055 100.414 81.4805 100.523H81.4219L81.4805 100.465V100.406H81.4219C80.7109 100.492 80.3555 100.602 80.3555 100.734L80.4141 100.781H80.3555L79.8867 100.676H79.5703L79.3477 100.84L79.2422 100.734L79.0312 100.887H78.9844V100.84L79.0898 100.676C77.3555 100.402 76.4883 100.191 76.4883 100.043C75.4961 99.3789 75 98.7773 75 98.2383L74.7891 97.2773V96.8555C74.9141 95.918 75.0547 95.4023 75.2109 95.3086C75.3203 94.9727 75.7461 94.3555 76.4883 93.457V93.3516H76.2773V93.2461L76.5352 93.293V93.2461L76.6992 93.0352V92.9766C76.6992 92.9062 76.6445 92.8711 76.5352 92.8711L76.4883 92.8242V92.7656C76.7305 92.7422 76.8516 92.6875 76.8516 92.6016C76.7422 92.4922 76.3906 92.3164 75.7969 92.0742C75.0625 91.7461 74.6914 91.5508 74.6836 91.4883L74.8477 91.4414ZM76.6992 91.4883L76.7461 91.5469H76.8516L76.9102 91.4883H76.957L77.0156 91.5469V91.5938L76.8516 91.6523L76.6992 91.5938V91.4883ZM78.8203 91.8047V91.9102L78.7148 92.0273V91.9102L78.8203 91.8047ZM88.0664 91.8633V91.9102L87.9492 92.0273V91.9688L88.0664 91.8633ZM90.2344 91.9102H90.4453L90.6094 92.0742V92.1797C90.6094 92.25 90.5039 92.3203 90.293 92.3906L89.918 92.2852C89.7227 92.3945 89.5273 92.4492 89.332 92.4492C89.6992 92.0898 90 91.9102 90.2344 91.9102ZM87.7969 92.1797V92.2852L87.5273 92.6016V92.5547C87.6523 92.3047 87.7422 92.1797 87.7969 92.1797ZM86.5195 92.3906V92.4492L86.5781 92.6016H86.7305L86.8359 92.4961L86.5195 92.3906ZM92.2031 92.3438H92.3086C92.3086 92.4766 91.9531 92.6523 91.2422 92.8711V92.9766H91.1367V92.8711C91.1367 92.7617 91.4922 92.5859 92.2031 92.3438ZM90.4453 92.9297H90.5508L90.7148 93.082C90.082 93.3633 89.3906 93.6133 88.6406 93.832V93.7734L90.082 93.1875C90.082 93.1328 90.2031 93.0469 90.4453 92.9297ZM86.2031 93.1875V93.2461L86.3672 93.457V93.5039L86.25 93.668V93.832H86.3086L86.4727 93.668V93.6094L86.4141 93.5625V93.5039L86.4727 93.457L86.4141 93.3984L86.4727 93.3516H86.6836V93.5039L87.0469 93.3984V93.3516C86.9453 93.3516 86.7891 93.2812 86.5781 93.1406L86.2031 93.1875ZM87.9023 93.832L88.4297 93.8789L88.3828 93.9375V93.9844C88.6641 94.0703 88.8047 94.1602 88.8047 94.2539C88.8047 94.3477 88.6641 94.418 88.3828 94.4648L88.3242 94.4062H88.2773L88.3242 94.3594V94.1953C88.3242 94.1094 88.1836 94.0234 87.9023 93.9375V93.832ZM87.7969 94.3008L87.9023 94.6289C87.8164 94.7461 87.6758 94.832 87.4805 94.8867L87.375 94.6758C87.375 94.4727 87.5156 94.3477 87.7969 94.3008ZM88.8047 94.4648L88.8516 94.5234V94.5703L88.7461 94.6758L88.6992 94.6289V94.5703L88.8047 94.4648ZM89.0742 94.7344C89.3164 94.9141 89.4375 95.125 89.4375 95.3672L89.1797 95.4727L88.8516 94.7812L88.9102 94.7344H89.0742ZM87.4805 95.0508L87.5859 95.1562L87.4219 95.2617H87.375V95.1562L87.4805 95.0508ZM88.7461 95.7891H88.9688V95.8945H88.7461V95.7891ZM87.2695 97.4414H87.4219V97.5469H87.375L87.2695 97.4414ZM85.9336 97.6523H85.9922L86.1445 97.8047L86.0977 97.8633H86.0391L85.9336 97.6523ZM90.6094 100.148H90.7734V100.195L90.668 100.301H90.6094V100.148ZM81.0469 100.887H81.1055L80.625 101.578V101.637C80.7344 101.637 80.7891 101.707 80.7891 101.848L80.9414 101.895C80.9258 102.215 80.7852 102.375 80.5195 102.375L80.25 102.328L80.1445 102.434H79.9922L79.8867 102.328V102.27C79.918 101.809 80.1289 101.578 80.5195 101.578L81.0469 100.887ZM79.7227 101.531L79.7812 101.578V101.637L79.6172 101.789L79.5703 101.742V101.684L79.7227 101.531ZM79.6172 103.383L79.6758 103.441V103.488L79.5117 103.652V103.488L79.6172 103.383ZM94.8164 91.9102H94.9102L95.0156 92.2617H95.1562V92.1562H95.2148L95.2617 92.2148H95.3086L95.4141 92.1094L95.4609 92.1562L95.5664 92.0625H95.6133L95.5664 92.1094L95.6133 92.3086H95.6602L95.8125 92.2148L95.7656 92.4609V92.5078L95.8125 92.4609H95.9062C95.9062 92.6641 96.0586 92.7656 96.3633 92.7656C96.6523 92.2266 96.918 91.957 97.1602 91.957L97.4648 92.0625L97.7578 92.0156H97.8633L98.1094 92.2617V92.3086L97.7109 92.5547L97.6641 92.8125L97.8164 92.9062L98.168 92.7656C98.168 92.9297 98.1992 93.0117 98.2617 93.0117L98.0625 93.4102L98.1094 93.457V93.6562L97.957 93.8555L98.0156 93.9141V93.9609C97.7812 93.9609 97.6641 94.0625 97.6641 94.2656L97.0078 94.5586V94.6055H96.9141C96.9141 94.4727 96.8633 94.4062 96.7617 94.4062C96.5742 94.5391 96.4062 94.6055 96.2578 94.6055L95.6602 94.2656V94.207H95.3672L95.1562 94.5117H95.1094V94.4648L95.2148 94.1602C94.9258 94.1602 94.4727 94.0117 93.8555 93.7148L93.2109 93.5625H93.1641L92.6602 93.7148C92.4648 93.6133 92.2656 93.5625 92.0625 93.5625C91.8594 93.8203 91.7578 94.0195 91.7578 94.1602H91.7109L91.6055 94.0547L91.5586 94.1133H91.4648C91.2305 94.1133 91.1133 94.0781 91.1133 94.0078C90.957 94.0078 90.7578 94.2578 90.5156 94.7578L90.6094 95.3555V95.7656L90.5156 95.9062V96.0117C90.5781 96.0742 90.6094 96.2227 90.6094 96.457C90.6641 96.457 90.8633 96.8906 91.207 97.7578C91.2617 97.7578 91.3633 97.9258 91.5117 98.2617C91.6523 98.2617 91.7852 98.4102 91.9102 98.707V98.9062L92.1562 99.9609L92.1094 100.113H92.2148C92.9648 99.5898 93.4141 99.2383 93.5625 99.0586C93.7188 99.0586 93.8516 98.9766 93.9609 98.8125C93.2969 98.5703 92.8477 98.3203 92.6133 98.0625H92.6602C92.9883 98.2734 93.3555 98.457 93.7617 98.6133L94.0664 98.5664H94.1133C94.1758 98.5664 94.207 98.6133 94.207 98.707H94.2656C94.3516 98.4727 94.4336 98.3555 94.5117 98.3555H94.6055L94.8164 98.6133L95.0625 98.6602L95.1094 98.6133H95.1562L95.5664 98.6602L95.6133 98.6133V98.5664L95.9648 98.6133C96.4648 98.4102 96.8125 98.3086 97.0078 98.3086C97.0078 98.1914 97.1914 98.1094 97.5586 98.0625L97.6641 98.1562L96.1172 99.1641L96.2578 99.4102L96.2109 99.5625L96.2578 99.6094V99.6562C96.0781 99.8672 95.9297 100.117 95.8125 100.406L95.8594 100.465H95.9062L95.8594 100.816L95.9062 101.062C95.9062 101.352 95.793 101.617 95.5664 101.859C95.4883 101.859 95.4375 101.742 95.4141 101.508C95.4688 101.508 95.5352 101.391 95.6133 101.156L95.5664 100.957H95.6133L95.5664 100.91V100.605C95.418 100.605 95.2812 100.559 95.1562 100.465L94.8633 100.816C94.7227 100.77 94.6211 100.684 94.5586 100.559L94.7578 100.465L94.6641 100.207H94.4648C94.3477 100.207 94.2305 100.16 94.1133 100.066H93.8086L93.6562 100.16H93.457L93.4102 100.113C92.7773 100.316 92.4609 100.465 92.4609 100.559L92.3086 101.062L92.4141 101.508L92.3555 101.965C92.5664 102.293 92.7031 102.457 92.7656 102.457C92.8594 102.457 92.9062 102.391 92.9062 102.258H93.0586V101.965H93.1641C93.1641 102.129 93.1953 102.211 93.2578 102.211L93.3164 102.164L93.457 102.211L93.5156 102.164H93.5625L93.7148 102.211V102.059H93.8086C93.8086 102.16 93.8438 102.211 93.9141 102.211L93.9609 102.164H94.0078L94.0664 102.211V102.105H94.1602V102.211L94.207 102.164L94.5586 102.316L94.7109 102.258V102.316L94.6641 102.363V102.41H94.8164V102.316H94.9102L94.8633 102.562H94.9102L94.8633 102.609V102.656L94.957 102.961H95.0156L95.4141 102.855L95.4609 102.914L95.707 102.715H96.0586L96.2578 102.656C96.6953 102.766 96.9961 102.949 97.1602 103.207H97.207L97.4062 103.16L97.6172 103.266L98.4141 103.008L98.8125 103.16L99.1172 102.961H99.7148L99.8672 102.855H100.418C100.895 102.723 101.293 102.656 101.613 102.656H101.66C101.863 102.594 101.965 102.48 101.965 102.316L102.012 102.258H102.059C102.059 102.32 102.16 102.406 102.363 102.516H102.562L102.715 102.41H103.113C103.691 102.27 104.141 102.121 104.461 101.965H104.918L105.059 101.859L105.164 101.965V102.012C105.164 102.098 104.699 102.266 103.77 102.516L102.668 103.16C101.363 103.27 100.711 103.418 100.711 103.605C100.195 103.715 99.5469 104.219 98.7656 105.117C98.7656 105.477 98.4648 105.656 97.8633 105.656C97.6367 105.961 97.3516 106.113 97.0078 106.113H95.8594C95.6797 105.98 95.4961 105.914 95.3086 105.914L95.0625 105.961C95.0625 105.805 94.6602 105.656 93.8555 105.516H93.7617L93.2578 105.867V105.914H93.5156L93.8086 105.809C94.2305 105.809 94.6133 105.941 94.957 106.207V106.617L94.6641 107.508L94.0078 107.613V107.859L93.8555 108L93.1641 107.906H92.8125C92.6641 107.766 92.4453 107.633 92.1562 107.508C92.1172 107.422 91.9688 107.305 91.7109 107.156C91.5859 106.938 91.418 106.789 91.207 106.711C91.0352 106.367 90.8711 106.117 90.7148 105.961V105.867C90.8477 105.727 90.9141 105.359 90.9141 104.766L91.207 104.414H91.4062L91.6641 104.613H91.7109V104.566L90.9141 103.863C90.875 103.176 90.7422 102.293 90.5156 101.215L90.5625 99.2578C90.4297 99.2578 90.2969 99.0078 90.1641 98.5078V97.9102C89.9688 97.4961 89.7695 96.9297 89.5664 96.2109L89.4141 96.0586L89.5195 95.9062C89.4258 95.9062 89.293 95.7891 89.1211 95.5547C89.0195 95.5547 88.9336 95.4883 88.8633 95.3555L89.0156 95.0156L88.9102 94.8047L88.9688 94.6055L88.7109 94.2656L88.8633 94.1133C89.0352 94.1133 89.168 94.3438 89.2617 94.8047L89.4609 94.9102L89.6133 94.7109L89.5664 94.6641V94.6055L89.7188 94.3594L89.6133 94.2656V94.0078L89.5664 93.2578H89.6133C89.5977 92.9141 89.2969 92.5156 88.7109 92.0625L88.7695 92.0156C88.957 92.0156 89.2539 92.2969 89.6602 92.8594C89.7773 92.8594 89.9102 93.0273 90.0586 93.3633C90.1758 93.3633 90.3086 93.6797 90.457 94.3125H90.5156C90.6016 93.875 90.7344 93.6562 90.9141 93.6562L91.1133 93.7617C91.3008 93.7617 91.5312 93.5781 91.8047 93.2109L92.0625 93.1641L92.2617 93.2109C92.7461 93.0547 93.3477 92.9375 94.0664 92.8594C94.0977 92.7578 94.1953 92.707 94.3594 92.707C94.4922 92.7461 94.5586 92.8125 94.5586 92.9062H94.6641L94.7578 92.6133H94.6055V92.5547L94.6641 92.5078L94.6055 92.4609V92.3555H94.7109V92.3086C94.5781 92.3086 94.5117 92.2578 94.5117 92.1562H94.5586L94.8633 92.2148L94.8164 91.957V91.9102ZM92.0156 92.1562V92.2148L91.957 92.3555H92.0156L92.1094 92.4609V92.5547H92.0156V92.6602L92.1562 92.707L92.3555 92.6602V92.7656H92.0156L91.957 92.707L91.6641 92.8125V92.7656C91.6641 92.5938 91.5977 92.5078 91.4648 92.5078V92.4141C91.6445 92.4141 91.8281 92.3281 92.0156 92.1562ZM93.0117 92.5547L93.1055 92.6602C93.0898 92.7617 92.957 92.8125 92.707 92.8125L92.6133 92.707L92.5664 92.7656H92.4609V92.6602H92.8594L93.0117 92.5547ZM89.0625 93.4102H89.168C89.2461 93.4102 89.2969 93.4922 89.3203 93.6562L89.0156 93.8555H88.9102L88.8164 93.7617V93.6562L89.0625 93.4102ZM88.4648 93.7617L88.5117 93.8086V93.8555L88.4648 93.9141H88.418L88.3594 93.8555V93.8086L88.418 93.7617H88.4648ZM92.0625 97.8164C92.125 97.8164 92.1562 97.8633 92.1562 97.957L92.1094 98.2148H92.0625L91.957 98.1094V97.9102L92.0625 97.8164ZM98.5664 97.8633H98.6602L98.918 97.9102V98.0156H98.8594C98.6875 98.0156 98.5898 97.9648 98.5664 97.8633ZM92.0156 98.3086H92.1094V98.5078L92.0156 98.4141V98.3086ZM93.457 101.156H93.5625V101.309H93.457V101.156ZM103.008 101.461L103.066 101.508V101.566L103.008 101.613H102.961L102.914 101.566V101.508L102.961 101.461H103.008ZM102.211 101.766L102.316 101.859V101.965L102.117 102.258H102.059V102.059C102.082 101.863 102.133 101.766 102.211 101.766ZM100.113 102.105L100.16 102.164H100.359L100.418 102.105H100.465V102.211L100.266 102.516H100.16C100.098 102.516 100.066 102.465 100.066 102.363L100.113 102.105ZM92.4609 102.316V102.363L92.5078 102.562C92.5078 102.664 92.4414 102.715 92.3086 102.715V102.809H92.3555L92.6602 102.609L92.5078 102.316H92.4609ZM95.5078 107.414H95.5664C95.6602 107.445 95.707 107.543 95.707 107.707L95.6602 107.766H95.5078L95.3672 107.613V107.566L95.5078 107.414ZM95.1094 107.508C95.1875 107.508 95.2383 107.594 95.2617 107.766L95.1094 107.859H95.0156C94.9141 107.828 94.8633 107.73 94.8633 107.566L94.9102 107.508H95.1094ZM95.8125 107.707L95.8594 107.766V107.812L95.8125 107.859H95.7656L95.707 107.812V107.766L95.7656 107.707H95.8125ZM95.5078 107.812H95.5664C95.6367 107.812 95.6836 107.895 95.707 108.059L95.5664 108.152H95.5078L95.3672 108L95.5078 107.812ZM95.0156 108.059L95.0625 108.105V108.152L95.0156 108.211H94.9102V108.152L95.0156 108.059ZM94.7109 108.609H94.7578L94.8633 108.703L94.8164 108.762H94.7109V108.609Z" fill="white"/>
<g clip-path="url(#clip0_14_607)">
<rect x="28" y="117" width="85" height="85" fill="#0F104C" fill-opacity="0.5"/>
<path d="M28.2 185.2H44.8V201.8H28.2V185.2Z" stroke="#5F0D16" stroke-width="0.4"/>
<path d="M28.2 168.2H44.8V184.8H28.2V168.2Z" stroke="#5F0D16" stroke-width="0.4"/>
<path d="M28.2 151.2H44.8V167.8H28.2V151.2Z" stroke="#5F0D16" stroke-width="0.4"/>
<path d="M28.2 134.2H44.8V150.8H28.2V134.2Z" stroke="#5F0D16" stroke-width="0.4"/>
<path d="M28.2 117.2H44.8V133.8H28.2V117.2Z" stroke="#5F0D16" stroke-width="0.4"/>
<path d="M45.2 185.2H61.8V201.8H45.2V185.2Z" stroke="#5F0D16" stroke-width="0.4"/>
<path d="M45.2 168.2H61.8V184.8H45.2V168.2Z" stroke="#5F0D16" stroke-width="0.4"/>
<path d="M45.2 151.2H61.8V167.8H45.2V151.2Z" fill="white"/>
<path d="M45.2 151.2H61.8V167.8H45.2V151.2Z" stroke="#5F0D16" stroke-width="0.4"/>
<path d="M45.2 134.2H61.8V150.8H45.2V134.2Z" stroke="#5F0D16" stroke-width="0.4"/>
<path d="M45.2 117.2H61.8V133.8H45.2V117.2Z" stroke="#5F0D16" stroke-width="0.4"/>
<path d="M62.2 185.2H78.8V201.8H62.2V185.2Z" stroke="#5F0D16" stroke-width="0.4"/>
<path d="M62.2 168.2H78.8V184.8H62.2V168.2Z" fill="white"/>
<path d="M62.2 168.2H78.8V184.8H62.2V168.2Z" stroke="#5F0D16" stroke-width="0.4"/>
<path d="M62.2 151.2H78.8V167.8H62.2V151.2Z" fill="#EB1E1E"/>
<path d="M62.2 151.2H78.8V167.8H62.2V151.2Z" stroke="#5F0D16" stroke-width="0.4"/>
<path d="M62.2 134.2H78.8V150.8H62.2V134.2Z" fill="white"/>
<path d="M62.2 134.2H78.8V150.8H62.2V134.2Z" stroke="#5F0D16" stroke-width="0.4"/>
<path d="M62.2 117.2H78.8V133.8H62.2V117.2Z" stroke="#5F0D16" stroke-width="0.4"/>
<path d="M79.2 185.2H95.8V201.8H79.2V185.2Z" stroke="#5F0D16" stroke-width="0.4"/>
<path d="M79.2 168.2H95.8V184.8H79.2V168.2Z" stroke="#5F0D16" stroke-width="0.4"/>
<path d="M79.2 151.2H95.8V167.8H79.2V151.2Z" stroke="#5F0D16" stroke-width="0.4"/>
<path d="M79.2 134.2H95.8V150.8H79.2V134.2Z" stroke="#5F0D16" stroke-width="0.4"/>
<path d="M79.2 117.2H95.8V133.8H79.2V117.2Z" stroke="#5F0D16" stroke-width="0.4"/>
<path d="M96.2 185.2H112.8V201.8H96.2V185.2Z" stroke="#5F0D16" stroke-width="0.4"/>
<path d="M96.2 168.2H112.8V184.8H96.2V168.2Z" stroke="#5F0D16" stroke-width="0.4"/>
<path d="M96.2 151.2H112.8V167.8H96.2V151.2Z" stroke="#5F0D16" stroke-width="0.4"/>
<path d="M96.2 134.2H112.8V150.8H96.2V134.2Z" stroke="#5F0D16" stroke-width="0.4"/>
<path d="M96.2 117.2H112.8V133.8H96.2V117.2Z" stroke="#5F0D16" stroke-width="0.4"/>
</g>
<rect x="28.5" y="117.5" width="84" height="84" stroke="url(#paint1_linear_14_607)"/>
<defs>
<linearGradient id="paint0_linear_14_607" x1="70.5" y1="17" x2="70.5" y2="83" gradientUnits="userSpaceOnUse">
<stop stop-color="#123BD5"/>
<stop offset="1" stop-color="#CD2237"/>
</linearGradient>
<linearGradient id="paint1_linear_14_607" x1="31.7979" y1="120.436" x2="138.59" y2="226.777" gradientUnits="userSpaceOnUse">
<stop stop-color="#B17BFF"/>
<stop offset="1" stop-color="#FF0751"/>
</linearGradient>
<clipPath id="clip0_14_607">
<rect x="28" y="117" width="85" height="85" fill="white"/>
</clipPath>
</defs>
</svg>
