<svg width="142" height="218" viewBox="0 0 142 218" fill="none" xmlns="http://www.w3.org/2000/svg">
<rect x="0.5" y="0.5" width="141" height="217" rx="4.5" fill="#191515"/>
<rect x="0.5" y="0.5" width="141" height="217" rx="4.5" stroke="#B17BFF"/>
<path d="M36.84 87.4C40.89 81.28 44.04 74.98 46.2 68.32C48.45 61.57 49.62 54.46 49.62 46.99L48.81 43.39H49.35C49.35 42.85 49.44 42.31 49.53 41.5C49.62 40.78 49.89 40.33 50.43 40.06C50.79 40.51 51.24 40.78 51.69 40.96C52.14 41.14 52.68 41.23 53.31 41.23L55.65 40.96L57.36 41.77L59.88 40.69V39.79L59.34 38.8H59.7L63.21 39.61L70.23 36.01L70.41 35.38L71.67 35.11L71.94 34.66H72.39L77.43 35.02V35.65C76.98 36.46 76.44 37.09 75.81 37.63C75 38.17 74.28 38.62 73.56 38.98L65.19 42.04L64.65 45.1C65.19 45.46 65.82 45.73 66.63 45.91C67.35 46.09 68.07 46.18 68.79 46.18L71.67 45.64L72.21 44.74C73.47 44.02 74.91 43.66 76.35 43.66C77.88 43.66 79.32 43.66 80.76 43.66L82.74 44.56L83.01 46C80.94 47.53 78.69 48.43 76.17 48.61C73.47 48.88 70.86 48.97 68.25 48.97C67.08 48.79 66 48.52 64.92 48.25C63.75 47.98 62.85 47.26 62.04 46.18L61.05 43.66H60.15L55.65 44.29C54.75 49.96 53.49 55.45 51.6 60.85C49.8 66.25 47.55 71.56 45.21 76.69L42.42 79.75L40.71 83.26L38.91 84.25L36.84 87.4ZM57.18 84.07V82.99C57.99 79.21 58.8 75.25 59.43 71.29C60.06 67.33 60.33 63.28 60.15 59.05L59.7 56.62H60.15L65.46 58.78L66.27 62.38C66.09 66.07 65.46 69.49 64.56 72.73C63.48 76.06 62.31 79.12 61.05 82.18C60.42 82.72 59.79 83.08 59.07 83.17C58.26 83.26 57.63 83.53 57.18 84.07ZM87.96 79.93C85.62 79.93 83.28 79.75 80.94 79.39C78.6 79.12 76.44 78.31 74.64 76.96L72.39 74.26C71.31 71.74 70.77 68.86 70.77 65.8C70.77 62.83 70.41 59.95 69.6 57.25L70.23 52.3L71.67 51.67L73.2 51.4L75.18 53.11V57.25L74.64 69.58L76.08 73.99C77.52 75.34 79.32 75.97 81.21 75.97C83.19 75.97 85.17 75.97 87.24 75.97C88.32 75.52 89.49 75.34 90.75 75.34C91.83 75.34 92.91 74.8 93.9 73.63C94.89 72.55 95.52 71.29 95.97 69.94C96.42 68.68 96.69 67.15 96.69 65.62L97.77 68.41L101.64 71.29C102.27 72.01 102.63 72.64 103.08 73.45C103.44 74.26 103.62 75.25 103.62 76.24L100.56 78.67C98.67 79.21 96.69 79.48 94.71 79.57C92.64 79.66 90.66 79.84 88.59 79.93L88.32 79.75L87.96 79.93ZM55.2 35.65C54.21 35.2 53.31 34.75 52.5 34.21C51.69 33.76 50.7 33.49 49.62 33.49C51.24 32.5 53.04 31.78 54.84 31.33C56.73 30.79 58.53 30.34 60.42 29.98C61.05 28.63 61.23 27.28 61.23 25.66C61.23 24.13 61.23 22.6 61.23 21.07L60.15 18.73H59.7V13.69L60.15 9.54999H60.78L66 14.77C66 15.76 66 16.57 66 17.56C66 18.55 66.27 19.36 66.81 20.08H67.71L68.52 19.81L68.79 19H71.94L76.8 20.08V20.8L76.08 22.33C74.73 23.05 73.38 23.59 71.94 23.95C70.41 24.4 68.79 24.76 67.17 25.03L65.73 24.4L62.94 29.35H63.57C66.27 28.27 69.15 27.46 72.3 26.74C75.36 26.11 78.42 25.48 81.57 25.03C83.64 25.21 85.71 25.39 87.6 25.66C89.58 25.93 91.29 26.74 92.82 28L93.09 29.08C91.74 29.89 90.39 30.43 88.86 30.79C87.42 31.24 85.89 31.42 84.36 31.6V32.05C83.28 31.87 82.29 31.96 81.48 32.23C80.67 32.5 79.77 32.86 78.78 33.31C79.41 32.32 80.04 31.33 80.94 30.61C81.75 29.8 82.2 28.72 82.2 27.46L81.03 27.19C76.53 28.45 72.3 29.89 68.16 31.51C64.02 33.22 59.7 34.66 55.2 35.65Z" fill="url(#paint0_linear_14_577)"/>
<path d="M38.4141 87.9609V88.0195L38.3086 88.125V88.0664L38.4141 87.9609ZM34.2656 88.1836H34.3711L34.5352 88.3477L34.4883 88.3945H34.4297L34.2656 88.1836ZM39.5156 88.2305L39.6211 88.3477L39.457 88.4531H39.4102V88.3477L39.5156 88.2305ZM39.7852 88.8398L39.9023 88.9453L39.8438 89.0039H39.7852L39.6797 88.8867L39.7383 88.8398H39.7852ZM40.2773 88.8398C40.4258 88.8945 40.5 88.9492 40.5 89.0039V89.1094L40.2773 89.0039L40.2305 89.0508L40.1133 88.8867L40.2773 88.8398ZM38.0859 88.8867L38.1445 88.9453V89.0039L38.0859 89.0508H37.9805V89.0039L38.0859 88.8867ZM39.2461 88.9453H39.293V89.0508L38.9062 89.6016C39.0234 89.6016 39.082 89.6406 39.082 89.7188L39.0234 89.9297C39.0938 89.9297 39.1289 89.9844 39.1289 90.0938H39.1875C39.1875 89.9219 39.2969 89.7773 39.5156 89.6602L39.6797 89.4961H39.7383L39.9492 89.543C40.0977 89.5117 40.1719 89.4414 40.1719 89.332H40.2773V89.4375C40.4258 89.3672 40.5 89.2773 40.5 89.168L40.8281 89.2734C40.8984 89.2734 40.9336 89.2188 40.9336 89.1094H41.0508V89.168L40.9922 89.332H41.0977C41.3398 89.1836 41.5234 89.1094 41.6484 89.1094H41.8125L41.9766 89.2148L42.3047 89.168H42.3633L42.3047 89.2148C42.1016 89.293 41.957 89.4219 41.8711 89.6016L41.9766 89.7656C41.6875 89.8906 41.543 89.9844 41.543 90.0469V90.0938C41.832 89.9141 42.0508 89.8242 42.1992 89.8242H42.2461V89.8828L41.1562 90.375L41.2617 90.2109L40.9922 90.1523L41.0508 89.9883H40.9922C40.8203 89.8398 40.6562 89.7656 40.5 89.7656C39.8438 89.7656 39.5156 89.9141 39.5156 90.2109L39.9492 90.4219L40.2773 90.2109H40.3359V90.3164L40.2773 90.375V90.4219H40.3359L40.3945 90.375L40.6641 90.4219L40.8867 90.375L40.9336 90.4219H40.9922L41.1562 90.375L40.6641 90.8086C41.1016 90.8086 41.3203 91.082 41.3203 91.6289L41.4258 91.8516V91.957L41.1562 92.1211C40.9375 91.957 40.8281 91.8281 40.8281 91.7344H40.6055L40.5586 91.957L40.6055 92.0156L40.5586 92.0625H40.5L40.3359 91.8516V91.793L40.3945 91.5234L40.2305 91.4062L40.1133 91.8984V91.957C40.1133 92.0352 40.2617 92.1094 40.5586 92.1797L40.5 92.4492V92.5547C40.5 92.6406 40.5898 92.6953 40.7695 92.7188C41.0742 92.5 41.293 92.3906 41.4258 92.3906H41.543L41.6484 92.5078C41.6406 92.5781 41.3867 92.7578 40.8867 93.0469C40.7148 92.9766 40.6211 92.9062 40.6055 92.8359L40.1719 92.9414V93.1641C40.1719 93.4531 40.3711 93.9453 40.7695 94.6406L40.8867 95.1914L40.8281 95.2383C40.9375 95.2383 40.9922 95.3125 40.9922 95.4609H41.0508L41.0977 95.4023H41.1562C41.1562 95.6992 41.2109 95.8477 41.3203 95.8477V96.3398C41.6094 96.9961 41.8633 97.4141 42.082 97.5938C42.3008 98.2734 42.4102 98.8203 42.4102 99.2344H42.4688C42.4688 99.1484 42.7617 98.6211 43.3477 97.6523C43.457 97.5039 43.5859 97.1367 43.7344 96.5508C43.9375 96.3711 44.1562 95.8242 44.3906 94.9102C44.4609 94.9102 44.6055 94.6211 44.8242 94.043L44.7656 93.5508C44.875 93.3633 45.0234 93.2695 45.2109 93.2695L45.5391 92.1211L45.8086 92.0625V92.0156C45.8086 91.9375 45.6445 91.8984 45.3164 91.8984C45.3164 91.6797 45.0977 91.5703 44.6602 91.5703L44.7188 91.6289V91.7344C44.5547 91.625 44.2969 91.5547 43.9453 91.5234L43.7812 91.5703C43.7812 91.5 43.7109 91.4648 43.5703 91.4648V91.4062L43.7344 91.2422H44.0039L45.2578 91.5234C45.6953 91.5234 45.9141 91.2656 45.9141 90.75H46.0312L45.9141 91.3008C46.1719 91.4414 46.3008 91.5859 46.3008 91.7344H46.3594L46.6289 90.75L46.5234 90.5859V90.5391L46.6289 90.4219H46.7461L46.793 90.4805H46.8516L47.0156 90.2578L47.8945 91.0781C47.8945 91.3828 48.1289 91.5859 48.5977 91.6875V91.8516C48.5977 91.9062 48.4531 91.9961 48.1641 92.1211L48.0586 92.7773C48.4961 92.8867 48.7148 93.1055 48.7148 93.4336L48.8203 93.7617L48.7617 93.9258C49.1992 94.1836 49.4727 94.3125 49.582 94.3125L50.0273 94.207H50.1328L50.2969 94.3711L50.25 94.418H49.5352C50.3008 94.9102 50.6836 95.293 50.6836 95.5664L50.625 95.625H50.5195L49.8633 94.8047L49.3125 94.5352C49.2109 94.5352 49.0469 94.4258 48.8203 94.207L48.7617 94.1484H48.7148V94.207L48.8203 94.3711V94.418L48.6562 94.582H48.5977L48.4922 94.4766L48.5508 94.418V94.3711L48.3867 94.2539L48.3281 94.3125V94.418L48.4336 94.582V94.6406L48.1641 94.9688L48.2227 95.4609L48.1055 95.6836C48.168 96.8164 48.332 97.3828 48.5977 97.3828H48.6562V97.5469C48.4766 97.5469 48.3477 97.7461 48.2695 98.1445V98.3086L48.7148 99.6211C48.7695 99.6211 48.8398 99.7656 48.9258 100.055C49.0742 100.055 49.168 100.203 49.207 100.5L49.6992 100.172H49.7578C49.4609 100.539 49.3125 100.793 49.3125 100.934H49.418L49.6406 100.77H49.7578L49.418 101.215V101.262L49.4766 101.215H49.582L49.6406 101.262H49.6992C49.7383 101.152 49.8477 101.098 50.0273 101.098H50.0859L50.1914 101.215C50.0117 101.215 49.8672 101.25 49.7578 101.32L49.9688 101.754L50.2969 101.648L50.25 101.59V101.543L50.3555 101.426L50.4609 101.543V101.648C50.4609 101.758 50.3164 101.812 50.0273 101.812V101.871C50.1289 102.051 50.293 102.141 50.5195 102.141L50.5781 102.199C50.7188 102.27 50.7891 102.414 50.7891 102.633L50.8477 102.691H50.9531C51.1797 102.504 51.3438 102.41 51.4453 102.41L51.5039 102.469V102.574L51.4453 102.633V102.691L51.2812 102.633L50.8477 102.855L50.6836 102.691H50.625C50.7422 102.957 51.125 103.414 51.7734 104.062L51.8906 103.945L51.9961 104.062L51.9375 104.227H51.9961L52.2188 104.332H52.2656L52.4297 104.227C52.6172 104.227 52.7109 104.336 52.7109 104.555H52.7578C52.8438 104.555 52.8984 104.426 52.9219 104.168L53.2617 104.109V104.004C53.2617 103.934 53.2031 103.898 53.0859 103.898L53.0391 103.84V103.676H53.0859C53.2891 103.676 53.418 103.75 53.4727 103.898L53.4258 103.945C53.5273 103.945 53.6172 104.02 53.6953 104.168C53.3281 104.363 53.1445 104.582 53.1445 104.824L53.4258 105.047V105.094L53.0391 105.48V105.75C53.1719 105.75 53.3555 105.898 53.5898 106.195H53.5312L53.5898 106.242V106.57H53.6953V106.688C53.6094 106.688 53.5352 106.758 53.4727 106.898V106.957H53.6953L54.082 107.016V107.121H53.3086V107.18L53.3672 107.238V107.285C53.0703 107.285 52.9219 107.523 52.9219 108H52.8164L52.875 107.613L52.8164 107.672H52.6523V107.566C52.6523 107.457 52.7617 107.402 52.9805 107.402L52.9219 107.344L53.1445 107.016H52.5938C52.5234 107.016 52.4883 106.961 52.4883 106.852H52.3242L51.9375 107.238V107.344C52.0469 107.344 52.1016 107.379 52.1016 107.449V107.566L51.7734 107.613V107.566L51.4453 107.285L51.1172 107.449H51.0117C51.0117 107.395 51.0859 107.34 51.2344 107.285L51.2812 107.238V107.121C51.1328 107.121 51.0234 107.031 50.9531 106.852L50.7422 106.793L50.5781 106.852L50.6836 107.18L50.4141 107.285V107.238L50.4609 107.062L50.25 106.898H50.1328C50.1328 107.008 50.0977 107.062 50.0273 107.062C49.957 107.062 49.9219 106.973 49.9219 106.793C49.6953 106.793 49.582 106.664 49.582 106.406H49.6992L49.8633 106.523V106.465C49.8633 105.879 49.7539 105.531 49.5352 105.422C49.3164 105.422 48.9688 104.801 48.4922 103.559C48.3359 103.559 48.2266 103.305 48.1641 102.797C48.1016 102.797 48.0117 102.633 47.8945 102.305H47.7773L47.6133 102.363V102.305L47.5664 102.141L47.6719 102.035L47.3438 101.977C47.3594 101.898 47.4492 101.824 47.6133 101.754L47.5664 101.707V101.543L47.6133 101.379H47.5664L47.5078 101.32H47.4492L47.5078 101.262V101.098H47.3438C47.3438 101.199 47.2148 101.309 46.957 101.426L46.793 101.379V101.426L46.7461 101.59L46.793 101.648L46.3594 102.141L46.418 102.41L46.3594 102.469H46.3008L46.2539 102.246L45.9727 102.305H45.9141V102.246C46.0234 102.152 46.0781 102.062 46.0781 101.977L46.2539 102.082L46.6289 101.484H46.582L46.2539 101.426C46.2539 101.535 46.1797 101.59 46.0312 101.59L46.1367 101.812L45.9727 101.918H45.9141L45.4805 101.648C45.5195 101.492 45.6094 101.363 45.75 101.262V101.156L45.8086 101.098L45.75 101.051L45.4805 100.887H45.4219L45.375 100.934V100.992L45.4805 101.098C45.4258 101.246 45.3711 101.32 45.3164 101.32H45.2578C45.1641 101.32 45.1094 101.23 45.0938 101.051H45.0469V101.215L45.0938 101.379L44.8828 101.707L44.9297 101.977C44.8359 101.977 44.7266 102.195 44.6016 102.633C44.8359 102.914 45.1641 103.133 45.5859 103.289L45.7031 103.512C45.6406 103.77 45.5664 103.898 45.4805 103.898C45.332 103.898 45.2578 103.715 45.2578 103.348C44.7891 103.207 44.5547 103.004 44.5547 102.738C44.3984 102.738 44.3047 102.613 44.2734 102.363L44.4961 102.246C44.4961 102.191 44.4219 102.137 44.2734 102.082L44.0625 102.141H44.0039V102.082L44.1094 101.977H44.2266L44.5547 102.082V102.035L44.4961 101.754L44.8828 101.426V101.32L44.8242 101.262V101.215C44.6445 101.23 44.5547 101.285 44.5547 101.379H44.4375L44.3906 101.098H44.2734L44.2266 101.156H44.168L44.2266 101.215V101.262L44.168 101.484H44.0625L44.0039 101.215L43.7812 101.262V101.32L43.8984 101.543C43.8984 101.652 43.8438 101.707 43.7344 101.707V101.754H44.1094V101.871H43.7812L43.7344 102.141L43.8398 102.691L43.6758 102.574L43.6172 102.633V102.469C43.5078 102.57 43.3828 102.918 43.2422 103.512C43.1797 103.512 43.0508 103.676 42.8555 104.004V104.062H42.9141C43.0859 104.031 43.5391 103.793 44.2734 103.348H44.4375V103.453C44.4375 103.555 44.1836 103.664 43.6758 103.781C43.6758 103.867 43.3672 104.031 42.75 104.273C42.75 104.406 42.6953 104.555 42.5859 104.719L42.75 104.766V104.93H42.6914L42.5273 104.824C42.3086 105.043 42.125 105.371 41.9766 105.809L41.7539 105.973H41.707C41.6445 105.973 41.5156 105.809 41.3203 105.48L41.3789 105.211L40.9336 105.094C40.8867 105.273 40.6523 105.477 40.2305 105.703H40.1133V105.645C40.1133 105.566 40.3516 105.402 40.8281 105.152C40.8438 105.004 40.8984 104.93 40.9922 104.93L40.3945 103.453C40.3945 102.859 40.3555 102.387 40.2773 102.035L40.3359 101.871L40.2773 101.812L40.3945 101.215L40.0078 98.6953C39.875 98.6953 39.7109 98.0938 39.5156 96.8906C39.4141 96.7344 39.3047 96.3477 39.1875 95.7305H39.1289C39.1289 96.5273 39.0391 97.1484 38.8594 97.5938L38.9062 98.25V98.7422L38.3672 100.992L38.3086 101.051H38.3672L38.7422 100.77H39.082L39.3516 100.828V100.934L39.082 100.992L38.9648 100.887L38.0391 101.215L38.1445 101.379L37.875 101.426V101.484L38.0859 101.543L38.0391 101.59V101.648L37.9219 104.391V104.555L38.3086 104.332H38.4141C37.9453 104.652 37.7109 104.945 37.7109 105.211C37.6172 105.5 37.543 105.645 37.4883 105.645L37.4297 105.586V105.48L37.4883 105.422V105.375C37.418 105.375 37.3828 105.281 37.3828 105.094C37.3125 105.102 37.1641 105.25 36.9375 105.539C37 105.539 37.0938 105.738 37.2188 106.137L37.2656 106.078H37.3242L37.4883 106.195L37.7109 105.973H37.7578L38.0391 106.195L37.9805 106.242L37.7578 106.195L37.3242 106.301L37.2656 106.242V106.301L37.3242 106.465L37.2656 106.523H37.2188L36.9961 106.301L37.0547 106.242C36.9766 106.242 36.9375 106.172 36.9375 106.031L36.8906 105.973H36.7266C36.7266 106.074 36.6172 106.219 36.3984 106.406L36.6094 106.688L36.5039 106.852L36.0117 106.793V106.852L36.6094 107.508H36.5039C35.8477 106.898 35.4102 106.57 35.1914 106.523L34.9805 106.629L34.8633 106.406H34.5938L34.1602 106.898H34.1016L33.9961 106.793V106.734L33.9375 106.793H33.6562V106.688C34.0234 106.656 34.207 106.602 34.207 106.523L34.1602 106.465L34.6523 106.078L34.5938 106.031V105.914C34.7109 105.789 34.8203 105.59 34.9219 105.316L34.6992 105.152V105.047C34.8867 105.047 34.9805 104.938 34.9805 104.719L35.3086 104.273V103.676L35.5781 103.02L35.5195 102.691C35.7617 101.668 35.9805 101.156 36.1758 101.156L36.3984 100.559L36.3398 100.172C36.3398 99.5781 36.4688 98.8477 36.7266 97.9805C36.7969 97.9805 36.832 97.7266 36.832 97.2188C36.957 97.2188 37.0469 96.6328 37.1016 95.4609C37.2891 95.2344 37.3828 94.9961 37.3828 94.7461V94.5352L37.2656 94.0898V93.5508L37.3242 93.2695H37.2656L36.9961 93.5508L36.832 93.4336L36.3984 93.5508C36.3984 93.4414 36.6172 93.3867 37.0547 93.3867L37.3828 92.7773L37.3242 92.5547C37.543 92.3047 37.6523 92.0508 37.6523 91.793H37.5938C37.5391 91.793 37.4844 91.8672 37.4297 92.0156L37.3828 92.0625H37.3242L37.2656 92.0156H37.2188L37.1602 92.2266L37.1016 92.1797H36.8906L36.9375 92.2266V92.2852L36.7734 92.4492C36.7031 92.207 36.5781 92.0078 36.3984 91.8516V91.793L36.5039 91.6875C36.6289 91.6875 36.8125 91.7578 37.0547 91.8984C37.3828 91.75 37.5469 91.5703 37.5469 91.3594H37.8164L37.6523 91.1953L37.4883 91.3008C37.2305 91.2148 37.1016 91.1406 37.1016 91.0781L37.1602 90.8086L36.9961 90.6445C37.1602 90.5742 37.25 90.5 37.2656 90.4219L37.1016 89.9883L36.7734 89.7656C36.7734 90.2031 36.7188 90.4219 36.6094 90.4219H36.5039C36.4336 90.4219 36.3984 90.3672 36.3984 90.2578L36.3398 90.3164H36.2344V90.2578C36.3828 90.0781 36.5273 89.9883 36.668 89.9883L36.6094 89.9297V89.8828L36.7266 89.7188L35.5195 89.2148L34.4883 89.543V89.3789C34.4883 89.2617 34.7773 89.1719 35.3555 89.1094L35.9062 89.2148L36.0703 89.0508H36.1172V89.168H36.0117C36.0117 89.2461 36.2852 89.3711 36.832 89.543V89.6016L36.7734 89.6602L36.9375 89.7656H37.1602L37.1016 89.4961L37.3242 89.332H37.3828L37.5469 89.4961L37.3242 89.7656H37.4297C38.1328 89.7656 38.5156 89.5664 38.5781 89.168H38.6953V89.543L39.2461 88.9453ZM42.75 89.0039H42.9141L43.0195 89.1094L42.9141 89.2148H42.8555L42.6328 89.1094L42.75 89.0039ZM43.4531 89.2148C43.3828 89.3633 43.2734 89.4375 43.125 89.4375V89.3789C43.1641 89.2695 43.2734 89.2148 43.4531 89.2148ZM40.8281 89.332L40.7695 89.3789V89.4375L40.9922 89.4961L41.0508 89.4375V89.3789L40.8281 89.332ZM42.75 89.543H42.7969L42.9609 89.6016V89.7188H42.9141L42.75 89.543ZM46.8516 89.7188V89.8242L46.793 89.8828L46.8516 89.9297V90.0469L46.6875 90.2109C46.4922 90.2109 46.3633 90.1367 46.3008 89.9883C46.5508 89.8086 46.7344 89.7188 46.8516 89.7188ZM37.7578 89.8828L38.0391 90.0938H38.0859L38.1445 89.8828H37.7578ZM37.3242 89.9883C37.3242 90.043 37.3984 90.0977 37.5469 90.1523V89.9883H37.3242ZM35.7422 89.9883H36.0703L36.2344 90.1523V90.2109L35.9531 90.0469C35.9531 90.125 35.8086 90.1953 35.5195 90.2578V90.2109L35.7422 89.9883ZM44.4375 90.3164L44.4961 90.375V90.4219L44.3906 90.5391L44.332 90.4805V90.4219L44.4375 90.3164ZM38.0391 90.5391V90.6445L38.1445 90.5391V90.4219L38.0391 90.5391ZM41.3789 90.375H41.543L41.8125 90.7031L41.6484 90.8086H41.4844L41.2148 90.5391L41.3789 90.375ZM40.5 90.6445H40.6055L40.7227 90.5391H40.6055L40.5 90.6445ZM36.4453 90.9141H36.7266C36.7969 90.9141 36.8672 91.0234 36.9375 91.2422L36.8906 91.5234H36.4453L36.3398 91.4062L36.3984 91.1367H36.2812V91.0781L36.4453 90.9141ZM41.8711 91.1953H42.082V91.3008H41.8711V91.1953ZM35.3086 91.3008L35.4141 91.4062L35.3555 91.4648H35.3086L35.1914 91.3594L35.25 91.3008H35.3086ZM35.9531 91.6875L36.0117 91.7344V91.793L35.9062 91.8984L35.8477 91.8516V91.793L35.9531 91.6875ZM42.2461 91.793H42.4102L42.5273 91.8984V91.957L42.4102 92.0625H42.3633L42.2461 91.957V91.793ZM34.7578 91.8984L35.0859 91.957V92.0625L34.3711 92.2852V92.2266C34.4648 92.0703 34.5938 91.9609 34.7578 91.8984ZM44.2734 92.0625L44.332 92.1211V92.1797L44.168 92.2852L44.1094 92.2266V92.1797L44.2734 92.0625ZM40.1133 92.5547L40.2773 92.7188H40.3359V92.5547H40.1133ZM36.2344 92.6719H36.5039L36.6094 92.7773V92.8359L36.4453 93H36.2812L36.1172 92.8359V92.7773L36.2344 92.6719ZM44.9883 93.0469H45.0938V93.1055L44.8828 93.3281H44.7656V93.2695L44.9883 93.0469ZM44.3906 93.3281L44.4961 93.4336V93.4922H44.3906L44.2734 93.3867L44.332 93.3281H44.3906ZM36.3398 93.5508H36.3984L36.1172 93.9258L36.0117 93.8203L36.3398 93.5508ZM41.2617 93.6562L41.3789 93.8203L41.3203 93.8789H41.2617L41.1562 93.7617L41.2617 93.6562ZM44.168 93.6562H44.4375L44.6016 93.8203V93.8789L44.4961 93.9844L44.1094 93.9258C44.0547 94.0742 43.9297 94.1484 43.7344 94.1484V94.0898L44.168 93.6562ZM43.6758 94.1484H43.7344L43.6172 94.2539H43.5703L43.6758 94.1484ZM43.4531 94.3125H43.5117V94.3711L43.2422 94.582H43.1836L43.4531 94.3125ZM50.8477 94.3125L50.9531 94.418L50.9062 94.4766H50.8477L50.7422 94.3711L50.7891 94.3125H50.8477ZM43.0781 94.6406C43.2969 94.6406 43.4062 94.7695 43.4062 95.0273C43.3281 95.0273 43.2734 95.1367 43.2422 95.3555L43.3477 95.5664H43.1836V95.4023H43.125C42.9688 95.6211 42.7305 95.7305 42.4102 95.7305C42.2305 95.6992 42.1406 95.6289 42.1406 95.5195H41.8125C41.7422 95.5195 41.707 95.5742 41.707 95.6836H41.6484L41.543 95.5664C41.6133 95.457 41.8125 95.4023 42.1406 95.4023L42.082 95.3555V95.2969L42.3633 95.0742L42.3047 95.0273C42.5 94.8008 42.7578 94.6719 43.0781 94.6406ZM39.0234 95.2383L39.082 95.4609H39.1289V95.2383H39.0234ZM43.4062 95.5195H43.4531C43.6016 95.5742 43.6758 95.6289 43.6758 95.6836V95.7891L43.5703 95.8945L43.5117 95.8477L43.5703 95.7891V95.7305C43.5703 95.6602 43.5156 95.625 43.4062 95.625V95.5195ZM50.9531 95.7891L51.0117 95.8477V95.8945L50.9531 95.9531H50.9062L50.8477 95.8945V95.8477L50.9062 95.7891H50.9531ZM50.5781 95.9531H50.6836C51.0117 96.2656 51.1758 96.5039 51.1758 96.668H51.1172L50.5781 95.9531ZM48.8789 96.2227H48.9258V96.2812C48.8711 96.4297 48.8164 96.5039 48.7617 96.5039H48.5977V96.4453L48.8789 96.2227ZM50.6836 96.5508C50.7773 96.5508 50.8672 96.8281 50.9531 97.3828L50.9062 97.4297H50.8477C50.7773 97.3828 50.7227 97.0898 50.6836 96.5508ZM48.9258 98.0391H49.0898V98.0859C49.0898 98.1484 48.9648 98.2422 48.7148 98.3672H48.6562L48.9258 98.0391ZM39.293 98.4727L39.3516 98.5312V98.5781L39.1875 98.6953L39.1289 98.6367V98.5781L39.293 98.4727ZM45.8086 98.7422L45.7031 98.8594L45.75 98.9062V99.0234L45.7031 98.9648H45.6445L45.4805 99.2344V99.293L45.5391 99.3516V99.3984L45.4805 99.457H45.4219L45.3164 99.3516L45.2578 99.3984V99.5625L45.375 99.7266L45.3164 99.7852H45.2578L45.0938 99.6211H45.0469L44.8242 100.008V100.055L44.8828 100.008H44.9883L45.1523 100.113C45.1523 100.004 45.2266 99.9492 45.375 99.9492L45.6445 99.5625H45.8086L45.75 99.293C45.9688 99.2383 46.0781 99.0938 46.0781 98.8594L45.8086 98.7422ZM49.7578 99.293L49.8047 99.3516V99.3984L49.7578 99.457H49.6406V99.3984L49.7578 99.293ZM51.3984 99.457H51.5039L51.6094 99.5625L51.3398 99.8438H51.1758L51.0703 99.7266V99.6211C51.1016 99.5117 51.2109 99.457 51.3984 99.457ZM45.2578 100.055L45.3164 100.113V100.172L45.2578 100.336L45.5859 100.441L45.6445 100.395V100.336L45.9141 100.559C46.0625 100.52 46.1367 100.445 46.1367 100.336L46.0781 100.277V100.23L46.1367 100.055C46.0273 100.055 45.9727 99.8906 45.9727 99.5625C45.7148 99.6172 45.5859 99.7461 45.5859 99.9492L45.2578 100.055ZM35.9062 99.6211L36.0117 99.7266L35.8477 99.8906L35.7422 99.7852L35.9062 99.6211ZM39.4102 99.8438L39.5156 99.9492L39.2461 100.23H39.1875V100.055L39.4102 99.8438ZM50.4141 100.605H50.625V100.723H50.5195L50.4141 100.605ZM51.3984 100.77L51.4453 100.828V100.887L51.0703 101.215V101.262C51.1797 101.262 51.2344 101.301 51.2344 101.379L51.1758 101.426H51.0117C50.5039 101.348 50.25 101.277 50.25 101.215H50.7422C50.9062 101.215 51.125 101.066 51.3984 100.77ZM45.75 101.426V101.543H45.8672L46.1367 101.484V101.426L45.9141 101.379L45.75 101.426ZM45.2578 101.543L45.3164 101.59V101.648L45.2578 101.707H45.2109L45.1523 101.648V101.59L45.2109 101.543H45.2578ZM47.2383 102.035H47.4492C47.4492 102.113 47.3594 102.168 47.1797 102.199L47.2383 102.035ZM54.1875 102.141L54.2461 102.199V102.246L54.082 102.41L53.9648 102.305L54.1875 102.141ZM44.9883 102.246L45.3164 102.469L45.0938 102.633H45.0469L44.9297 102.527L45.0469 102.41L44.9883 102.363V102.246ZM45.5391 102.305H45.6445V102.363L45.5391 102.469H45.4219V102.41L45.5391 102.305ZM52.875 102.574L52.9805 102.691V102.738H52.875L52.7578 102.633L52.8164 102.574H52.875ZM53.5898 102.902H53.6953L53.8008 103.02L53.7539 103.066H53.6953L53.5898 102.961V102.902ZM46.957 102.961H47.0742L47.3438 103.23V103.395L47.2383 103.559L47.2852 103.617H47.2383C46.8008 103.547 46.582 103.383 46.582 103.125C46.7148 103.016 46.8398 102.961 46.957 102.961ZM52.5469 103.23V103.348C52.4062 103.348 52.2578 103.457 52.1016 103.676H51.9961C52.1445 103.379 52.3281 103.23 52.5469 103.23ZM53.3672 103.395L53.4258 103.453V103.512L53.3672 103.559H53.2617V103.512L53.3672 103.395ZM54.1289 103.512H54.1875L54.6211 103.734C54.5742 103.914 54.5195 104.004 54.457 104.004H54.3516C54.3516 103.895 54.2773 103.84 54.1289 103.84L54.0234 103.734V103.617L54.1289 103.512ZM45.8086 103.617L46.1367 103.84L45.8672 103.945V103.898L45.8086 103.617ZM47.3438 103.676H47.4492L47.6133 103.734V103.84H47.5078L47.3438 103.676ZM47.7305 103.734H47.8945L48.0586 103.898L47.9414 104.004C47.8008 103.949 47.7305 103.895 47.7305 103.84V103.734ZM43.9453 103.84L44.0039 103.898V103.945L43.9453 104.004H43.8984L43.8398 103.945V103.898L43.8984 103.84H43.9453ZM44.7188 103.84C44.8828 103.91 44.9727 103.984 44.9883 104.062V104.109L44.8828 104.227H44.7188C44.6406 104.211 44.5664 104.117 44.4961 103.945L44.7188 103.84ZM39.082 104.004L39.1875 104.109V104.168H38.7422C38.7812 104.059 38.8945 104.004 39.082 104.004ZM35.9062 106.078L35.5195 106.031L35.4727 106.078V106.137L35.5781 106.242V106.301C35.5781 106.371 35.5234 106.406 35.4141 106.406C35.4141 106.492 35.5039 106.547 35.6836 106.57L35.7422 106.523H35.7891L35.8477 106.57H35.9062C36.0703 106.516 36.2148 106.391 36.3398 106.195L36.2344 105.973L35.9062 106.078ZM51.9961 106.523C52.0508 106.664 52.1055 106.734 52.1602 106.734L52.4297 106.629C52.6484 106.699 52.7578 106.789 52.7578 106.898H53.1445C53.2383 106.898 53.3125 106.734 53.3672 106.406C53 106.336 52.8164 106.266 52.8164 106.195L52.7578 106.242H52.6523C52.582 106.242 52.5469 106.172 52.5469 106.031H52.2188C52.1484 106.031 52.0742 106.195 51.9961 106.523ZM54.6211 107.285H54.6797C54.8984 107.309 55.0078 107.363 55.0078 107.449L54.9023 107.566L54.6211 107.285ZM34.2656 107.402H34.4297V107.508L34.207 107.613L34.1602 107.566V107.508L34.2656 107.402ZM53.4727 107.402L53.5898 107.508V107.566L53.4727 107.449V107.402ZM50.8477 107.508H50.9062L50.7891 107.672L50.8477 107.73L50.7891 107.777H50.7422L50.6836 107.73V107.672L50.8477 107.508ZM52.5938 108.645V108.703L52.4883 108.82H52.4297V108.703L52.5938 108.645ZM58.3242 91.6289H58.7344C59.2969 91.6289 59.6562 91.8477 59.8125 92.2852C59.9688 92.4805 60.1602 92.9336 60.3867 93.6445C60.4414 93.6445 60.5078 93.8516 60.5859 94.2656C60.6953 94.3594 60.75 94.4688 60.75 94.5938H60.7969L61.2422 94.2188H61.2891L60.8789 94.7578C61.0039 94.7578 61.0977 94.9648 61.1602 95.3789H61.5352V95.4609H61.3242L61.207 95.5781C61.207 95.8516 61.3164 96.5117 61.5352 97.5586C61.5352 97.7148 61.6172 97.9336 61.7812 98.2148L61.6992 99.2461C61.6992 99.4102 61.8789 99.4922 62.2383 99.4922C62.2383 99.4453 62.4961 99.3633 63.0117 99.2461H63.1875L63.3047 99.3281H63.4336L63.8789 99.3633L64.125 99.2812L64.0898 99.082L64.207 99.1641L64.2891 99.082H64.3711V99.1641L64.3359 99.1992V99.2461H64.418L64.6641 99L64.7461 99.082H64.875C64.875 98.9961 64.9023 98.9531 64.957 98.9531H64.9922C64.8203 99.3672 64.5312 99.5742 64.125 99.5742C64.125 99.668 64.0312 99.7344 63.8438 99.7734V99.8203C63.8438 99.8828 64.0352 99.9258 64.418 99.9492C64.6211 99.8555 64.8008 99.7305 64.957 99.5742L64.9102 99.5273V99.4922L65.1211 99.2812H65.1562V99.3633L65.1211 99.4102V99.4453H65.3672C65.3672 99.3828 65.4766 99.2891 65.6953 99.1641L66.0234 98.8359L66.0586 99.082L66.2695 99.0352H66.3516V99.082L66.3047 99.2461L66.3516 99.3633H66.3047L66.1055 99.2812L66.0234 99.3633L65.9766 99.3281C65.7422 99.3984 65.5508 99.5195 65.4023 99.6914L65.1562 99.7734V99.8672C65.4609 99.9844 65.625 100.078 65.6484 100.148H65.6133L65.0742 99.9492L65.0391 99.9844H64.9922L64.9102 99.9023C64.7383 100.066 64.6133 100.148 64.5352 100.148L64.0898 100.066C64.043 100.285 63.9609 100.395 63.8438 100.395L63.6328 100.77H63.5977L63.6328 100.559H63.5977L63.2227 100.723L63.0117 100.688L62.9766 100.723H62.9297L62.8945 100.688H62.8477L62.5195 100.77L62.6484 100.969H62.5664L62.4023 100.887C62.4023 100.949 62.3047 101.004 62.1094 101.051C62.2109 101.715 62.3633 102.047 62.5664 102.047L62.4844 102.129C62.5078 102.363 62.5469 102.512 62.6016 102.574V102.867L62.4844 103.031V103.113H62.6016L62.6484 103.066H62.6836L62.7305 103.113V103.16L62.4844 103.195V103.406L62.4375 103.605C62.5234 103.605 62.5938 103.66 62.6484 103.77L62.6016 104.262L62.7305 104.391V104.426C62.6445 104.527 62.6016 104.625 62.6016 104.719V104.754L62.7305 105.34H62.6836C62.918 105.645 63.0977 105.984 63.2227 106.359H63.2695L63.2227 106.617C63.2227 106.789 63.293 107.035 63.4336 107.355L63.3867 107.473C63.4258 107.473 63.4805 107.609 63.5508 107.883C63.6133 107.938 63.6836 108.117 63.7617 108.422C63.8477 108.422 63.9414 108.68 64.043 109.195H63.9609C63.8516 108.898 63.5938 108.379 63.1875 107.637V107.555L63.2227 107.52C63.0273 107.145 62.9023 106.828 62.8477 106.57L62.5195 106.031V105.832L62.6016 105.375C62.3281 105.141 62.1914 104.895 62.1914 104.637L62.2383 104.59V104.555L62.1914 104.426L62.2734 104.344V104.309L62.1914 104.145L62.2383 103.98C62.0352 103.66 61.8984 103.387 61.8281 103.16L61.8633 103.113L61.7812 103.031L61.3242 103.324H61.2891C61.6484 102.988 61.8281 102.766 61.8281 102.656C61.7734 102.234 61.6914 101.988 61.582 101.918L61.6172 101.719C61.5547 101.703 61.4844 101.578 61.4062 101.344C61.1406 101.398 60.8672 101.496 60.5859 101.637C60.2344 101.66 59.8359 101.77 59.3906 101.965V102.047C59.3906 102.133 59.4336 102.227 59.5195 102.328L59.3555 102.375C59.2695 102.156 59.1445 102.047 58.9805 102.047C58.7852 102.328 58.5117 102.52 58.1602 102.621L58.0781 102.703H57.9141L57.7031 102.656C57.7031 102.797 57.582 102.895 57.3398 102.949C57.3398 103.09 57.3125 103.16 57.2578 103.16L57.0938 103.195V103.16L56.9648 103.195L56.6016 102.984L56.8477 102.703L56.6836 102.246L57.2578 101.672C57.2578 101.758 57.2969 101.801 57.375 101.801C57.9531 101.48 58.2422 101.301 58.2422 101.262L58.9805 100.805C59.082 100.805 59.2188 100.684 59.3906 100.441C59.4922 100.441 59.6992 100.344 60.0117 100.148C60.1758 100.148 60.4648 100.012 60.8789 99.7383L61.207 99.6562C61.0273 98.4766 60.875 97.8867 60.75 97.8867L60.7148 97.8398V97.8047L60.75 97.7578C60.6875 97.2188 60.5664 96.7656 60.3867 96.3984C60.1133 96.0938 59.9609 95.8633 59.9297 95.707L59.5547 95.625C59.4453 95.625 59.3906 95.7617 59.3906 96.0352C59.3281 96.0352 59.2461 96.2422 59.1445 96.6562L59.1094 96.6914C59.1094 96.7461 59.0273 96.8008 58.8633 96.8555V97.0195H58.9453V97.1016C58.8047 97.1016 58.7344 97.1992 58.7344 97.3945C58.6641 97.3945 58.5547 97.5312 58.4062 97.8047V98.4609C58.25 98.6719 58.125 98.9883 58.0312 99.4102C57.9531 99.4102 57.9141 99.5039 57.9141 99.6914C57.8047 99.6914 57.75 99.7891 57.75 99.9844C57.6406 99.9844 57.5039 100.121 57.3398 100.395H57.2109V100.605L56.7656 101.555C56.7656 101.742 56.6523 101.918 56.4258 102.082L56.5078 102.211C56.2109 102.547 56.0625 102.902 56.0625 103.277L56.0156 103.324C56.1641 103.566 56.2734 103.688 56.3438 103.688L56.4727 103.652L56.5547 103.734H56.7188L56.6836 103.688V103.652L56.7188 103.605H56.8008V103.688H57.0469V103.57H57.1289L57.1758 103.77L57.457 103.688V103.77C57.2383 103.824 57.1289 103.879 57.1289 103.934L57.1758 103.98C57.0352 103.996 56.9648 104.035 56.9648 104.098C57.043 104.098 57.3164 104.234 57.7852 104.508H57.832V104.637H57.7852C57.7148 104.559 57.4141 104.406 56.8828 104.18V104.145H56.7656L56.8477 104.262V104.344H56.8008C56.7305 104.344 56.6914 104.277 56.6836 104.145L56.5547 104.262L56.3438 104.145L56.3086 104.18L56.2617 104.145L56.2266 104.18V104.391L56.4258 104.719H56.3906L56.0156 104.391L55.9336 104.473C55.9336 104.887 56.043 105.094 56.2617 105.094C56.3867 104.953 56.5 104.883 56.6016 104.883V104.965C56.4844 104.965 56.3984 105.02 56.3438 105.129C56.3438 105.184 56.4141 105.211 56.5547 105.211V105.293L56.3086 105.34L56.3438 105.375V105.457C56.2344 105.457 56.1797 105.484 56.1797 105.539L56.2617 105.621H56.1445L56.0156 105.539H55.7695L55.8164 105.586V105.621L55.6523 105.867V105.914H55.7344V105.949L56.0625 105.867L56.0977 105.914V105.996C56.0977 106.051 56.043 106.078 55.9336 106.078L55.9805 106.113V106.195H55.9336L55.2422 105.621H55.1953V105.668H55.2773V105.867C55.2773 105.922 55.3203 105.949 55.4062 105.949V106.031L55.1602 106.078C55.1602 106.133 55.2148 106.16 55.3242 106.16V106.242H55.2422V106.277L55.4883 106.324V106.406H55.2773L55.2422 106.359H55.1953L55.1602 106.488L55.4883 106.652L55.6055 106.617V106.699H55.4883V106.734H55.5703L56.0156 106.57H56.0625V106.617H55.9805V106.652H56.0156L56.3438 106.57H56.3906C56.3906 106.625 56.1445 106.723 55.6523 106.863C55.6211 107.02 55.5391 107.156 55.4062 107.273C55.4062 107.352 55.4609 107.391 55.5703 107.391L55.6055 107.438V107.52H55.5703C55.4531 107.41 55.3438 107.355 55.2422 107.355H55.1953L55.2422 107.391V107.438L55.1953 107.473H55.1602L55.1133 107.355L55.0781 107.391L54.8672 107.355C54.7891 107.355 54.707 107.41 54.6211 107.52H54.5742V107.555H54.6211L54.7383 107.52V107.555C54.6445 107.719 54.5625 107.801 54.4922 107.801V107.883C54.5469 107.992 54.6289 108.047 54.7383 108.047V108.129L54.375 108.047L54.293 108.258H54.2109V108.129H54.1641L54.0469 108.211H54C54 108.109 53.9453 108.039 53.8359 108H53.8008L53.7539 108.047H53.7188L53.918 108.34H53.8359V108.422H53.918V108.457L53.8828 108.504L54.0469 108.832H54.1641V108.914C54.0703 108.914 53.9883 108.996 53.918 109.16L54.082 109.406H54.0469C53.9375 109.352 53.8828 109.281 53.8828 109.195H53.7539V109.242L53.8359 109.359H53.8008L53.7539 109.324H53.7188C53.7188 109.402 53.6914 109.441 53.6367 109.441C53.582 109.441 53.5547 109.402 53.5547 109.324H53.4727V109.488L53.4258 109.699H53.3438V109.324H53.3086C53.3086 109.434 53.2656 109.488 53.1797 109.488H53.1328V109.441L53.1797 109.324L53.0625 109.242L53.0156 109.277L52.9336 109.195C52.9336 109.25 52.8125 109.32 52.5703 109.406V109.359L52.6523 109.277L52.6055 109.242V109.078L52.6875 108.996L52.6523 108.949V108.914L52.6875 108.75C52.6328 108.75 52.6055 108.707 52.6055 108.621L52.4062 108.586C52.4062 108.539 52.5 108.484 52.6875 108.422C52.7031 108.258 52.7734 108.176 52.8984 108.176L52.8164 108.094H52.7695L52.7344 108.129H52.6875L52.6523 108.094V108.047H52.7344V107.883H52.6875L52.4883 107.965L52.6055 107.801V107.766L52.4883 107.637H52.4062C52.3281 107.723 52.1758 107.766 51.9492 107.766L51.9141 107.801V107.848C51.9688 107.848 52.0078 107.93 52.0312 108.094H51.9961C51.8867 108.094 51.832 108.16 51.832 108.293H51.75L51.8672 108.047L51.6211 108C51.4492 108.07 51.3398 108.184 51.293 108.34L51.082 108.293H50.8828V108.375H50.8359L50.7539 108.293L50.8359 108.211H51.0469L51.082 108.258L51.293 108.129L51.2461 108.094V108.047L51.293 107.883C51.1523 107.75 51.0273 107.684 50.918 107.684C50.918 107.738 50.8789 107.766 50.8008 107.766L50.6719 107.719C50.6641 107.789 50.582 107.883 50.4258 108L50.3906 107.965V107.93C50.6484 107.656 50.8125 107.52 50.8828 107.52V107.438L50.8008 107.191C50.7305 107.191 50.5781 107.082 50.3438 106.863H50.3906C50.5078 106.863 50.6992 106.957 50.9648 107.145L51.2461 107.027L51.2109 106.98V106.898H51.2461L51.293 106.945H51.3281L51.4922 106.57L51.293 106.324L51.4102 106.242H51.5742L51.832 106.406H51.9141L51.9961 106.324L51.6211 105.914L51.668 105.867H51.7031C51.7656 105.977 51.9023 106.102 52.1133 106.242V106.277L52.2422 106.16L52.1133 105.914V105.867L52.3242 106.031L52.3594 105.996C52.3047 105.824 52.2383 105.727 52.1602 105.703H52.1133V105.867C52.0586 105.867 52.0039 105.758 51.9492 105.539C51.7617 105.539 51.668 105.473 51.668 105.34H51.6211L51.4922 105.457L51.457 105.422V105.375L51.5391 105.293L51.457 105.211H51.4102L51.293 105.293H51.2109L51.293 105.176V105.129L51.2461 105.094V105.047L51.375 104.93C51.3125 104.844 51.2148 104.801 51.082 104.801L51.0469 104.754L50.8359 104.672L50.5898 104.754L50.5547 104.719V104.59L50.6367 104.508C50.6914 104.508 50.7188 104.551 50.7188 104.637H50.7539C51.0195 104.637 51.2383 104.691 51.4102 104.801C51.457 104.691 51.5117 104.637 51.5742 104.637V104.59L51.4922 104.473V104.426H51.5391L51.6211 104.508L51.75 104.473V104.426C51.75 104.371 51.6797 104.344 51.5391 104.344L51.4922 104.309V104.262H51.6211L51.832 104.309C51.832 104.23 51.8867 104.16 51.9961 104.098C51.9961 104.238 52.0781 104.309 52.2422 104.309H52.4414L52.3242 104.145L52.3594 104.016H52.4062C52.4141 104.125 52.4531 104.18 52.5234 104.18H52.5703V104.062L52.4883 103.934V103.852C52.5586 103.852 52.6133 103.949 52.6523 104.145H52.6875L52.7344 103.98L52.6875 103.77V103.406C52.75 103.406 52.793 103.582 52.8164 103.934H52.8984V103.852H52.9805L53.0156 103.898H53.0625V103.77H53.1328L53.0977 103.98H53.1797L53.2148 103.77L53.1797 103.523H53.2148L53.1797 103.488V103.441L53.2148 103.406V103.359L53.0977 103.324L53.1797 103.242L53.2617 103.324C53.4414 102.66 53.5781 102.273 53.6719 102.164L53.5898 102.082C53.6836 100.715 53.8086 100.031 53.9648 100.031C54.1289 99.7969 54.2109 99.5625 54.2109 99.3281L54.293 99.082L54.3281 99.0352V98.9531L54.2109 98.707C54.3984 98.668 54.4922 98.6016 54.4922 98.5078L54.7031 98.0039C54.6484 98.0039 54.6211 97.9492 54.6211 97.8398H54.5742L54.5391 97.8867H54.4922L54.457 97.7227L54.3281 97.8047H54.293L54.4102 97.5586L54.375 97.5117H54.293C54.2852 97.5977 54.1602 97.668 53.918 97.7227H53.8828L54.2109 97.3945V97.3125L54.1641 97.2656V97.2305L54.293 97.1836V97.1016C54.1836 97.1016 54.1289 97.0742 54.1289 97.0195V96.9844H54.2461V96.9375H54.2109L53.6367 96.9844H53.5078V96.9023H53.5547C54.0703 96.8477 54.3438 96.7773 54.375 96.6914C54.2578 96.6523 54.1758 96.582 54.1289 96.4805H54.1641L54.5391 96.5742L54.5742 96.5273V96.4805L54.4102 96.2344V96.0352C54.5195 96.1055 54.5742 96.1992 54.5742 96.3164H54.6562L54.6211 96.1172H54.7031C54.7031 96.25 54.7305 96.3164 54.7852 96.3164L54.8203 95.9531H54.8672C54.9531 95.9688 54.9961 96.0781 54.9961 96.2812L55.0312 96.2344H55.0781L55.1133 96.2812C55.1289 96.1719 55.1719 96.1172 55.2422 96.1172H55.2773L55.3242 96.2344L55.1953 96.3633L55.3242 96.3984C55.6211 96.2344 55.7695 96.0977 55.7695 95.9883L56.1797 95.0039C56.1797 94.6992 56.2617 94.4805 56.4258 94.3477L56.4727 94.1367L56.3438 94.0195V93.9727L56.5547 94.0195V93.9727C56.5547 93.8945 56.625 93.8398 56.7656 93.8086C56.7656 93.7305 56.8047 93.6914 56.8828 93.6914C57.0469 93.5742 57.1289 93.3516 57.1289 93.0234L57.7031 92.332C57.8438 91.8633 58.0508 91.6289 58.3242 91.6289ZM53.2617 91.7109H53.3438C53.7969 91.8438 54.0703 91.9688 54.1641 92.0859H54.1289L53.2617 91.793V91.7109ZM55.4414 91.9219H55.5234V91.957L55.4883 92.0039V92.0391C55.707 92.0391 55.8984 92.1367 56.0625 92.332H56.5078V92.4141H56.3906C56.2734 92.4141 56.1484 92.4961 56.0156 92.6602L56.0977 92.9062L55.5234 93.3164C55.5234 93.4648 55.375 93.5742 55.0781 93.6445L54.8672 93.9727H54.8203L54.9492 93.6445L54.5742 93.5273H54.5391C54.4062 93.6367 54.2969 93.6914 54.2109 93.6914L54.082 93.6094L54.0469 93.6445H54L53.8828 93.6094L53.7539 93.6445L53.9648 93.3984C53.8789 93.3984 53.8086 93.3438 53.7539 93.2344V93.0703L53.9648 92.6953L54.082 92.6602V92.5781C54.0195 92.5781 53.8984 92.4961 53.7188 92.332V92.2852H53.7539L54.2461 92.5781L54.4922 92.4961C54.4922 92.4102 54.5352 92.3672 54.6211 92.3672V92.332C54.4961 92.3164 54.3594 92.2344 54.2109 92.0859H54.293L54.8203 92.25C54.8203 92.1953 54.9453 92.1523 55.1953 92.1211L55.2422 92.168L55.4414 91.9219ZM61.6992 94.6289L61.7461 94.6758V94.7109L61.6992 94.7578H61.6172V94.7109L61.6992 94.6289ZM55.9336 94.875V95.0039L55.8164 95.1328H55.7695L55.6875 95.0508V95.0039C55.6875 94.9492 55.7695 94.9062 55.9336 94.875ZM54.8672 95.0508L55.0312 95.25L54.9961 95.543H54.7852V95.4609H54.8672L54.6211 95.2969V95.168C54.6445 95.0898 54.7266 95.0508 54.8672 95.0508ZM61.5 95.2148V95.25L61.4062 95.332L61.3242 95.25L61.3711 95.2148H61.5ZM53.7539 95.6602L53.8359 95.7891L53.7539 95.8711L53.6719 95.707L53.7188 95.6602H53.7539ZM52.9805 95.9531L53.0977 96.0703L53.0625 96.1172H53.0156L52.8984 95.9883L52.9336 95.9531H52.9805ZM53.0156 96.5742H53.0625V96.6914H52.9336V96.6562L53.0156 96.5742ZM59.6836 96.5742H59.8125L59.8945 96.6562L59.7656 96.7383H59.6836L59.6016 96.6562L59.6836 96.5742ZM52.8164 97.3945H52.8984V97.4766L52.7344 97.5117V97.4766L52.8164 97.3945ZM54.4922 97.8867V98.0039H54.4102V97.9688L54.4922 97.8867ZM66.1055 98.6719H66.1406V98.707L66.0234 98.8359V98.7539L66.1055 98.6719ZM64.0078 99H64.043V99.0352L63.7969 99.1992V99.1641C63.8516 99.0547 63.9219 99 64.0078 99ZM72.3516 96.6562L72.3984 96.7031V96.75L72.3516 96.7969H72.3047L72.2578 96.75V96.7031L72.3047 96.6562H72.3516ZM59.8945 102.457H59.9297L60.0117 102.539L59.9766 102.574H59.9297L59.8945 102.539V102.457ZM53.0977 102.738L53.1328 102.785V102.867H53.0156V102.82L53.0977 102.738ZM52.2422 102.785L52.2773 102.82V102.867L52.2422 102.902H52.1602V102.867L52.2422 102.785ZM52.5703 103.066L52.6875 103.195V103.324H52.6523L52.4883 103.16L52.5703 103.066ZM51.668 103.277H51.7031L51.7852 103.359L51.75 103.406H51.7031L51.668 103.359V103.277ZM58.9453 103.324H59.0273L59.1094 103.406L58.9805 103.523H58.8164C58.8555 103.391 58.8984 103.324 58.9453 103.324ZM52.1953 103.488H52.2422L52.3242 103.57V103.605L52.1953 103.488ZM61.582 103.605V103.652L61.2422 103.898L61.207 103.852V103.816C61.2773 103.676 61.4023 103.605 61.582 103.605ZM51.375 103.816L51.4102 103.852V103.98H51.3281L51.293 103.852L51.3281 103.816H51.375ZM50.0625 104.18H50.2266L50.3086 104.262L50.2617 104.309V104.344L50.3086 104.391L50.0977 104.426L49.9688 104.309V104.262L50.0625 104.18ZM61.8633 104.262H61.9922L61.9102 104.344L61.8633 104.309V104.262ZM52.0781 104.344V104.426H51.9961L51.9492 104.391H51.9141L51.8672 104.426V104.473C51.9453 104.473 52.0273 104.512 52.1133 104.59C52.2227 104.551 52.2773 104.512 52.2773 104.473C52.168 104.473 52.1133 104.445 52.1133 104.391L52.1602 104.344H52.0781ZM52.1953 104.637L52.2422 104.848H52.2773L52.3242 104.637H52.1953ZM57.8672 104.59H57.9141L58.0312 104.719V104.754H57.9961L57.8672 104.719V104.59ZM57.0938 104.754H57.375L57.457 104.848L57.293 104.965C57.168 104.91 57.1016 104.855 57.0938 104.801V104.754ZM56.9648 104.801V104.883L56.8008 104.93V104.848L56.9648 104.801ZM52.1953 104.93C52.1953 105.078 52.1289 105.199 51.9961 105.293V105.375L52.4062 105.668H52.4414L52.4883 105.258V105.211C52.4023 105.211 52.3594 105.184 52.3594 105.129L52.4062 105.094C52.3203 105.094 52.2773 105.051 52.2773 104.965L52.2422 104.93H52.1953ZM55.6875 104.93L55.6523 104.965V105.012H55.6875L55.8164 104.965V104.93H55.6875ZM55.2773 105.34C55.2773 105.473 55.375 105.609 55.5703 105.75V105.785H55.6523L55.6875 105.504C55.6016 105.504 55.5469 105.367 55.5234 105.094L55.6055 105.012H55.5703L55.2773 105.34ZM50.6719 105.621H50.8359L51 105.703L51.1289 105.668L51.1641 105.703V105.832L51.082 105.914L50.9648 105.832C50.9648 105.91 50.9102 105.949 50.8008 105.949C50.6758 105.902 50.6055 105.848 50.5898 105.785V105.703L50.6719 105.621ZM56.7656 105.621H56.8008L56.8828 105.703L56.8477 105.75H56.7656V105.621ZM50.918 106.031L50.9648 106.078V106.113L50.918 106.16H50.8828L50.8359 106.113V106.078L50.8828 106.031H50.918ZM53.9648 106.816L54 106.863H54.0469L54.2109 106.734H54.4102C54.4102 106.516 54.4648 106.406 54.5742 106.406V106.324H54.4922C54.1875 106.496 54.0117 106.66 53.9648 106.816ZM56.9648 106.406V106.488L56.6367 106.57V106.488L56.9648 106.406ZM54.6562 106.535C54.6406 106.699 54.5586 106.781 54.4102 106.781L54.4922 106.898V106.945C54.3594 107.047 54.293 107.168 54.293 107.309L54.3281 107.355H54.375L54.457 107.273H54.4922L54.4102 107.391L54.6211 107.438L54.7383 107.273L54.6562 107.191C54.6953 106.832 54.75 106.652 54.8203 106.652L54.7852 106.535H54.6562ZM52.6875 107.027C52.6875 107.16 52.6211 107.227 52.4883 107.227V107.355L52.6875 107.391H52.7695V107.355L52.7344 107.027H52.6875ZM52.3594 107.438L52.3242 107.473V107.555H52.5234C52.5234 107.516 52.4688 107.477 52.3594 107.438ZM50.2617 108.129H50.3438V108.176L50.1797 108.293L50.1445 108.258V108.211L50.2617 108.129ZM52.1133 108.129H52.1602V108.258H52.0312V108.211L52.1133 108.129ZM51.457 108.457L51.4922 108.504V108.586H51.457L51.375 108.504L51.4102 108.457H51.457ZM51.75 109.488H51.7852V109.523L51.7031 109.605H51.668V109.57L51.75 109.488ZM61.6406 89.8242C61.7578 89.9414 61.9453 90.0547 62.2031 90.1641L63 90.1172H63.0469L63.2227 90.082C63.3477 90.1367 63.418 90.1914 63.4336 90.2461V90.3398H63.1758L62.8828 90.2461L62.6602 90.293L62.4492 90.2461C62.3789 90.3086 62.2383 90.3398 62.0273 90.3398L61.9805 90.375V90.457L62.2031 90.5508C62.1562 90.6758 62.0703 90.7734 61.9453 90.8438H61.8164L61.6406 90.7148L61.7344 90.457L61.6875 90.5039H61.5234L61.1836 90.2461L60.8438 90.4219V90.375C60.8438 90.3203 60.8828 90.293 60.9609 90.293L61.2188 90.1172C61.2188 89.9219 61.3594 89.8242 61.6406 89.8242ZM70.0078 90L70.7812 90.1641V90.1172L70.8164 90.1641H70.8984V90.082H70.9922V90.1641L71.1562 90.1172L71.4141 90.293C71.5859 90.1758 71.7266 90.1172 71.8359 90.1172C71.7578 90.2656 71.6719 90.3398 71.5781 90.3398L71.6719 90.457V90.5508L71.625 90.5859V90.6328L71.7539 90.7617V90.7969C71.7539 90.8438 71.6953 90.8867 71.5781 90.9258L71.332 90.6797H71.2383L71.0742 90.9258C71.0742 91.0977 71.1875 91.1836 71.4141 91.1836L71.4609 91.1367H71.4961L71.8008 91.1836L71.9297 91.1367L71.9648 91.1836V91.2305L71.9297 91.2656V91.3125L71.9648 91.3594H72.0117L72.4336 91.2305V91.3125L71.6719 91.5234C71.6406 91.4375 71.5547 91.3945 71.4141 91.3945H71.3672V91.4414C71.3672 91.5977 71.5938 91.7812 72.0469 91.9922L72.1406 92.0742L72.3516 92.0391C72.3516 92.1016 72.4219 92.1406 72.5625 92.1562L72.6914 92.0391L72.7734 92.1211L72.9492 91.9922V91.8633L72.7266 91.8164L72.6914 91.8633L72.5156 91.6055H72.3867C72.3867 91.7227 72.3477 91.7812 72.2695 91.7812H72.2227L72.1406 91.6992C72.1406 91.6367 72.2656 91.5781 72.5156 91.5234H72.6094L72.8555 91.6523L72.9023 91.6055C72.8711 91.3789 72.8281 91.2656 72.7734 91.2656H72.7266L72.5156 91.3125L72.4805 91.2656V91.2305L72.6914 91.1367V91.1016L72.3516 90.9258H72.1758L72.0469 91.0195H71.9648C71.9102 91.0195 71.8828 90.9766 71.8828 90.8906C71.9375 90.7188 72.0078 90.6328 72.0938 90.6328C72.2109 90.6641 72.2695 90.7188 72.2695 90.7969H72.3516L72.5156 90.5859L72.3047 90.3398L72.3516 90.293H72.3867L72.6094 90.5508H72.6445V90.4219H72.6914L72.8555 90.5508H72.9023L73.1953 90.2461H73.2422L73.0312 90.5859V90.6328H73.1133V90.6797L73.1602 90.6328H73.2891L73.1953 90.7617C73.2578 90.7617 73.2891 90.8047 73.2891 90.8906H73.3711L73.8398 90.6328L74.4258 90.4219C74.4258 90.4766 74.5547 90.5312 74.8125 90.5859V90.6797H74.6016L74.4727 90.5859C74.3945 90.6641 74.0977 90.7656 73.582 90.8906L73.6289 91.1016H73.5L73.7461 91.5234L73.875 91.6523V91.7812L73.7109 91.9102C73.7109 92.1445 73.5977 92.5664 73.3711 93.1758C73.2539 93.4414 73.125 93.8828 72.9844 94.5V95.7773C72.9844 95.9727 72.9297 96.2266 72.8203 96.5391L72.9492 96.75V97.1367L72.7266 97.3828V97.6875C72.7266 97.7891 72.6719 97.9297 72.5625 98.1094V98.1914C72.6484 98.1914 72.6914 98.2344 72.6914 98.3203C72.6914 98.7188 72.6211 99.1445 72.4805 99.5977L72.5156 100.535L72.4336 101.344L72.6094 103.207L72.3867 104.309L72.4336 104.824L72.2227 105.715L72.1758 105.926L72.1406 105.973H72.0938L72.0469 105.926V105.68H71.9648C71.9648 105.594 71.8945 105.551 71.7539 105.551L71.707 105.375H71.5781L71.625 105.551L71.5781 106.312H71.4961V105.926L71.4609 105.762L71.4961 105.715V105.68C71.4805 105.391 71.4531 105.246 71.4141 105.246C71.2969 105.246 71.168 105.105 71.0273 104.824C70.8789 104.621 70.7383 104.281 70.6055 103.805L69.9258 102.785C69.9258 102.605 69.6992 102.336 69.2461 101.977L68.9062 101.379C68.7891 101.332 68.6758 101.121 68.5664 100.746L68.6133 100.535C68.5273 100.535 68.4844 100.422 68.4844 100.195C68.4297 100.195 68.3711 100.082 68.3086 99.8555C68.1367 99.8008 67.8984 99.5156 67.5938 99C67.4453 98.9141 67.332 98.8008 67.2539 98.6602C66.9961 98.4727 66.8672 98.3047 66.8672 98.1562L66.3164 97.4766C66.3164 97.3359 66.1758 97.0938 65.8945 96.75V96.7031H65.8477V96.75L65.8945 96.9609L65.8477 97.7695V98.2852L65.9297 98.4023V98.4492L65.8945 99.082C66.0039 99.3477 66.0859 99.9883 66.1406 101.004L66.2344 101.086V101.637L66.4805 102.527C66.5664 102.527 66.6797 102.926 66.8203 103.723C66.7891 103.973 66.7344 104.141 66.6562 104.227V104.309C66.8125 104.48 66.9258 104.566 66.9961 104.566L67.207 104.531V104.613H67.0781L67.125 104.66V104.695L66.9961 104.824C67.1055 104.824 67.1602 104.895 67.1602 105.035L67.207 105H67.2539L67.2891 105.164H67.2539C67.293 105.281 67.332 105.34 67.3711 105.34L67.3359 105.375V105.457C67.3672 105.527 67.5508 105.629 67.8867 105.762C68.0742 105.848 68.3164 105.902 68.6133 105.926V106.02L68.0977 105.973L67.7578 106.137L67.5938 106.055C67.5938 106.141 67.4648 106.211 67.207 106.266C67.2617 106.156 67.3477 106.102 67.4648 106.102V106.055L67.3711 105.926L67.418 105.762C67.2539 105.762 67.0273 105.449 66.7383 104.824H66.6094L66.5273 105.082L66.4805 105.035H66.3984C66.3984 105.121 66.3555 105.164 66.2695 105.164L66.2344 105.211V105.246C66.2891 105.246 66.3164 105.305 66.3164 105.422C66.5664 105.516 66.6914 105.586 66.6914 105.633H66.6562L66.2344 105.457L66.1875 105.504H66.1406C66.0156 105.488 65.9023 105.332 65.8008 105.035L65.7656 105H65.5898C65.5273 105 65.4844 105.141 65.4609 105.422C65.4609 105.508 65.5312 105.551 65.6719 105.551C65.7734 105.863 65.8477 106.02 65.8945 106.02C65.9727 105.848 66.0977 105.762 66.2695 105.762C66.0977 105.918 66.0117 106.043 66.0117 106.137V106.184H66.1875L66.6914 106.266L66.9141 106.137L66.9492 106.184V106.23L66.9141 106.266C67.0234 106.266 67.0781 106.336 67.0781 106.477L67.5469 106.605H67.6289V106.699C67.4961 106.699 67.3984 106.738 67.3359 106.816H67.2891L67.125 106.699V106.734C67.125 106.906 67.2383 107.035 67.4648 107.121C67.6055 107.121 67.6758 107.148 67.6758 107.203V107.25L67.5938 107.332H67.5469C67.1797 107.09 66.9961 106.863 66.9961 106.652L66.6094 106.441V106.477L66.8203 106.781L66.7852 106.91C66.8711 106.934 66.9141 107.016 66.9141 107.156C66.6562 106.93 66.5117 106.734 66.4805 106.57L66.5742 106.477L66.1406 106.441L66.0586 106.734H66.0117L65.9766 106.699H65.9297L66.0117 106.477L65.8945 106.395L65.6367 106.477V106.441L65.7188 106.312C65.6094 106.164 65.4844 106.066 65.3438 106.02L65.2148 106.055L65.2617 106.266H65.2148L65.2617 106.312V106.395C65.0664 106.395 64.9219 106.309 64.8281 106.137C64.7734 106.137 64.7461 106.066 64.7461 105.926C64.582 105.926 64.4414 106.012 64.3242 106.184L64.3711 106.359L64.3242 106.395C64.4414 106.395 64.5703 106.508 64.7109 106.734L64.9219 106.781V106.863H64.875L64.7461 106.816V106.863L64.582 106.992L64.5352 107.039V107.074C65.0039 107.66 65.4688 108.012 65.9297 108.129L66.0117 108.211L65.9297 108.293H65.8945C65.4883 108.082 65.0078 107.734 64.4531 107.25L64.2773 107.285L63.9844 107.25L63.7734 107.332L63.9023 107.074C63.7617 107.074 63.6602 107.02 63.5977 106.91C63.4883 106.91 63.418 106.84 63.3867 106.699L63.6445 106.359L63.5977 106.312V106.266L63.5625 106.312H63.3867C63.3164 106.312 63.2461 106.199 63.1758 105.973H63.1289V106.02L63.1758 106.184C63.0898 106.184 63.0469 106.324 63.0469 106.605L62.8828 106.699L62.7539 106.652L62.6602 106.816L62.4492 106.781L62.2383 106.992L62.2031 106.945V106.91L62.4141 106.699L62.3672 106.652C62.5859 106.574 62.7148 106.488 62.7539 106.395L62.707 106.23L62.8359 106.102L62.7539 105.762V105.633H62.5781C62.5781 105.742 62.4922 105.797 62.3203 105.797C62.3203 105.914 62.2812 105.973 62.2031 105.973V105.926L62.2852 105.68L62.2383 105.633L62.2852 105.586H62.3203L62.2852 105.457C62.2852 105.293 62.3398 105.211 62.4492 105.211V105.117L61.6055 104.613L61.6406 104.566H61.6875L62.3203 104.906L62.543 105.035V105L62.4961 104.871L62.707 104.777L62.6602 104.742V104.613H62.7891L62.6602 104.145V104.098L62.7891 103.969H62.8359L62.918 104.062C62.918 104.117 62.875 104.145 62.7891 104.145L62.8828 104.613L62.7891 104.695L63 104.742V104.695C63 104.609 63.043 104.566 63.1289 104.566L63.1758 104.531V104.484L63.1289 104.438L63.2578 104.309L62.8359 103.629C63.0234 103.48 63.1211 103.355 63.1289 103.254H63.2227C63.418 103.293 63.5156 103.348 63.5156 103.418L63.4688 103.547L63.5625 103.629C63.5625 103.691 63.5195 103.723 63.4336 103.723V103.852H63.4688C63.7578 103.711 63.9023 103.609 63.9023 103.547L63.8555 102.996H63.9023L63.8555 102.949V102.914L63.9023 102.738C63.832 102.738 63.7891 102.613 63.7734 102.363C63.7734 101.512 63.8711 100.801 64.0664 100.23L64.0312 100.195C64.1094 100.172 64.1484 100.059 64.1484 99.8555C64.2109 99.8555 64.2852 99.7539 64.3711 99.5508H64.4062V99.4688L63.7734 100.02L63.7266 99.9844V99.9375C63.9453 99.7812 64.1172 99.6094 64.2422 99.4219L64.4062 99.3398V99.3047L63.9844 98.8359C64.1719 98.8359 64.3008 98.7773 64.3711 98.6602L64.1484 98.4961H64.1133L63.9844 98.5781H63.9375V98.5312L64.0312 98.4023L63.9844 98.1914V98.1094C64.1797 97.8203 64.2773 97.4258 64.2773 96.9258V96.75L64.1953 96.6211L64.2422 96.4922C64.1875 96.4922 64.1016 96.3945 63.9844 96.1992V95.7773C63.9844 95.6133 63.8281 95.4414 63.5156 95.2617V95.3438H63.4336L63.3867 95.3086H63.3398C63.2461 95.6211 62.9492 95.7773 62.4492 95.7773C62.4492 95.8164 62.3086 95.8711 62.0273 95.9414L62.0742 95.9883V96.0234L61.8984 96.2812L61.8633 96.2461H61.8164L61.6055 96.2812V96.2461L61.6406 96.1992V96.1523H61.6055L61.0078 96.4922C60.875 96.4375 60.8047 96.3828 60.7969 96.3281V96.1523L60.8789 96.0703H60.9258L61.1367 96.1172C61.1367 96.0469 61.3359 95.9883 61.7344 95.9414C61.7969 95.7695 61.9219 95.6836 62.1094 95.6836H62.4141L62.5781 95.6016L62.8828 95.6484L63.2578 95.4375V95.2617C63.1172 95.1367 63.0469 94.9961 63.0469 94.8398L63.3398 94.582V94.5352H63.2227L63.0938 94.6289H62.918V94.5352L62.9648 94.3242L62.8359 94.1953V94.1602L62.8828 94.1133V94.0781C62.8125 94.0781 62.7695 94.0039 62.7539 93.8555H62.625L62.543 93.9492C62.6523 93.9648 62.707 94.0078 62.707 94.0781H62.625L62.707 94.1953C62.707 94.2812 62.6367 94.3242 62.4961 94.3242L62.7539 94.582L62.707 94.793L62.918 94.9688L62.8359 95.0508C62.7891 95.0508 62.7305 95.1641 62.6602 95.3906H62.543L62.4492 95.3086H62.4961L62.4492 95.2617V95.1797C62.4492 95.125 62.5078 95.0977 62.625 95.0977C62.4844 94.9883 62.4141 94.9023 62.4141 94.8398H62.3203L62.1562 94.9688H62.1094V94.9219L62.2383 94.7578L62.1094 94.6289V94.582L62.2031 94.4531L62.1562 94.418H62.1094L62.0742 94.4531H62.0273L61.9805 94.3242L61.7344 94.418V94.3242H61.6875C61.6016 94.3477 61.5469 94.4062 61.5234 94.5H61.4297L61.3008 94.4531L61.2188 94.5352H61.0547L61.0898 94.5V94.418L60.9609 94.3711C60.875 94.3711 60.6641 94.5977 60.3281 95.0508L60.2461 94.9688C60.6055 94.5391 60.832 94.3242 60.9258 94.3242L60.8789 94.2891V94.1953L60.9609 94.0781L60.668 93.7734V93.7383L61.0078 93.8555H61.0547L61.5586 93.6094C61.5586 93.5312 61.4883 93.4883 61.3477 93.4805L61.4766 93.2695L61.3945 93.1758V93.1406L61.6055 93.1758V93.0938C61.0742 92.5 60.7617 92.2031 60.668 92.2031L60.3281 92.0391L60.375 91.9922V91.9453L60.0703 91.6992H60.1641L60.375 91.8164V91.7344H60.4102L60.5391 91.7812V91.7344L60.6211 91.6523H60.668L60.6211 91.8633V91.9102C60.6836 91.9102 60.7852 91.9922 60.9258 92.1562L61.4297 92.625C61.4297 92.7344 61.5742 92.8789 61.8633 93.0586H61.9453L62.1562 92.9297L61.9453 92.7188L62.1562 92.6719L61.8633 92.2852H61.8984C62.1172 92.4805 62.3008 92.5938 62.4492 92.625L62.4961 92.4609H62.5781L62.4961 92.7188C62.5742 92.7188 62.6602 92.7578 62.7539 92.8359H62.8359V92.8008L62.7539 92.543H62.7891L62.7539 92.4961V92.3789H62.8828C62.8828 92.3008 62.8242 92.2578 62.707 92.25V92.1562H62.7539L62.8359 92.25L62.9648 92.1562C62.9648 92.1094 62.8086 91.9414 62.4961 91.6523L62.543 91.6055C62.6914 91.6055 62.832 91.707 62.9648 91.9102H63.0469L63.1289 91.8164H63.1758L63.0469 91.9922V92.0391C63.0469 92.0938 63.1055 92.1211 63.2227 92.1211L63.1758 92.1562V92.332L63.2578 92.4141C63.3281 92.4141 63.5 92.2461 63.7734 91.9102L63.8086 91.9453H63.8555C63.8555 92.0547 63.7578 92.1562 63.5625 92.25V92.332L63.7266 92.4961L64.0312 92.3789L63.9844 92.25L64.0664 92.0391L63.9023 91.8164V91.7812L64.0664 91.9102V91.8164L63.9375 91.6523H63.9844C64.1484 91.793 64.3164 91.8633 64.4883 91.8633L64.1953 91.6992V91.6523C64.3672 91.6523 64.5664 91.3984 64.793 90.8906L64.7461 90.6797L64.875 90.7617L64.9219 90.7148H64.957V90.7969L64.9219 90.8438V90.8906H64.957L65.2969 90.7969C65.2969 90.8594 65.1406 90.9453 64.8281 91.0547L64.6641 91.5234V91.6523C65.0547 91.9883 65.2812 92.1562 65.3438 92.1562L65.4609 92.2852L65.4258 92.332H65.3789L65.168 92.2031L65.0859 92.2852L65.1328 92.4141L64.8281 92.5898V92.625C65.0547 92.6953 65.168 92.7539 65.168 92.8008L65.0859 92.9297V93.0117C65.2734 93.3633 65.5547 93.6328 65.9297 93.8203C65.9297 93.8672 66.0312 93.9219 66.2344 93.9844C66.5703 94.7812 67.0664 95.5195 67.7227 96.1992H67.7578L67.8047 96.0703C67.7188 96.0703 67.6758 96.043 67.6758 95.9883V95.9062L67.7578 95.8125C67.875 95.8594 67.9336 95.9023 67.9336 95.9414L67.8867 95.9883C67.957 96.168 68.0273 96.2656 68.0977 96.2812L68.4375 96.0703C68.3828 95.8438 68.3281 95.7305 68.2734 95.7305H68.2266C68.2266 95.8711 68.1992 95.9414 68.1445 95.9414L68.0625 95.8125V95.7305L68.1797 95.6016C68.3516 95.6016 68.4805 95.7305 68.5664 95.9883H68.6133L68.7773 95.6484C68.7227 95.6484 68.6953 95.5898 68.6953 95.4727H68.6133V95.3906H68.7422L69.0352 95.7305C69.0352 95.6133 69.1641 95.4727 69.4219 95.3086V95.3438C69.1953 95.5781 69.082 95.75 69.082 95.8594H69.1992V95.9062L69.1172 95.9883L68.9883 95.9062C68.9883 95.9609 68.9336 95.9883 68.8242 95.9883V96.2461L68.7422 96.3633L68.7773 96.4102C69.0352 96.3789 69.375 96.2812 69.7969 96.1172H69.8789L69.9727 96.1992C69.2305 96.4023 68.8594 96.543 68.8594 96.6211L68.7422 96.668V96.7969L68.7773 96.75H68.8242C68.9258 96.7969 69.0234 96.9102 69.1172 97.0898C69.2344 97.0898 69.375 97.2031 69.5391 97.4297C69.7422 97.4844 69.8438 97.5977 69.8438 97.7695V97.8164L69.668 98.0273H69.6328C69.5859 98.0273 69.543 97.9688 69.5039 97.8516L69.668 97.6875L69.293 97.3008L69.3281 97.2656C69.25 97.2656 69.125 97.1797 68.9531 97.0078H68.9062L68.9531 97.043V97.1719L68.8594 97.2656C68.7812 97.2656 68.7422 97.2227 68.7422 97.1367H68.6484L68.5664 97.2188V97.2656C68.6523 97.2656 68.7656 97.3477 68.9062 97.5117L68.8242 97.6406L68.8594 97.7695L68.6953 97.8516L69.1641 98.625C69.2969 98.6328 69.5664 99.1133 69.9727 100.066C70.043 100.098 70.1133 100.254 70.1836 100.535C70.2773 100.574 70.418 100.828 70.6055 101.297L70.7344 101.379C70.7891 101.379 70.832 101.195 70.8633 100.828C71.0039 100.641 71.0742 100.484 71.0742 100.359V100.113C70.9883 99.9883 70.9453 99.875 70.9453 99.7734H70.9922L70.9453 99.7266L70.9922 99V98.4961L70.9453 98.1094L70.9922 97.9453L70.8633 97.3477V96.832C70.5195 96.3242 70.3477 95.7734 70.3477 95.1797C70.3477 94.8516 70.207 94.4258 69.9258 93.9023C69.8398 93.8633 69.7109 93.6094 69.5391 93.1406C69.2891 92.7656 69.1641 92.4961 69.1641 92.332V92.2852C69.4062 92.0352 69.6055 91.9102 69.7617 91.9102V91.8633L69.5391 91.7344H69.082C69.0273 91.7344 68.9141 91.8633 68.7422 92.1211H68.5664C68.4805 92.0898 68.4375 92.0039 68.4375 91.8633L68.8594 91.6523H69.0352C69.4102 91.6523 69.6641 91.5234 69.7969 91.2656V91.1836L69.7148 91.1016H69.5391L69.1641 91.3594H69.1172V91.3125L69.457 90.9727L69.4219 90.9258H69.375L69.5039 90.6328L68.9883 90.5508V90.457H69.0352L69.5039 90.5508C69.5039 90.293 69.6172 90.1641 69.8438 90.1641C69.8984 90.1641 69.9258 90.1211 69.9258 90.0352L69.9727 90H70.0078ZM65.6719 90.0352L65.7656 90.1172L65.7188 90.1641H65.5898L65.5078 90.082L65.5547 90.0352H65.6719ZM63.8555 90.1172H63.9844V90.2109H63.8555V90.1172ZM63.5625 90.4219C63.9531 90.4766 64.1484 90.5469 64.1484 90.6328L64.0664 90.7148C63.9805 90.6289 63.8242 90.5586 63.5977 90.5039L63.5625 90.457V90.4219ZM64.6641 90.457H64.7109L64.7461 90.6797C64.6367 90.6328 64.582 90.5898 64.582 90.5508L64.6641 90.457ZM65.8945 90.5859L65.9297 90.6328C65.9297 90.6875 66 90.7148 66.1406 90.7148L66.1875 90.7617V90.7969L65.8945 90.8906L65.8008 90.7148L65.3789 90.7969V90.7148L65.8945 90.5859ZM74.8594 90.6328H74.8945L74.9883 90.7148H74.8594V90.6328ZM61.3945 90.6797H61.4766L61.5586 90.7617V90.7969L61.4766 90.8906H61.4297L61.3008 90.7617L61.3945 90.6797ZM62.3203 90.8906L62.4492 91.0195L62.3672 91.1016H62.3203L62.2383 91.0195V90.9727L62.3203 90.8906ZM61.8164 90.9258L61.8984 91.0195L61.8164 91.1016L61.7344 90.9727L61.7695 90.9258H61.8164ZM62.8359 91.0547H62.8828C62.8359 91.1719 62.793 91.2305 62.7539 91.2305L62.707 91.1836V91.1367L62.8359 91.0547ZM63.3867 91.1016C63.5273 91.1406 63.5977 91.2383 63.5977 91.3945H63.5156V91.3125C63.4297 91.3125 63.3867 91.2852 63.3867 91.2305V91.1016ZM68.2266 91.1016H68.2734L68.3555 91.1836V91.2305L68.2734 91.3125H68.2266L68.1445 91.2305V91.1836L68.2266 91.1016ZM61.3477 91.3125H61.4297L61.3945 91.5234V91.6055L61.6406 91.6992V91.7812L61.3008 91.8633H61.2656L61.1836 91.7812L61.2656 91.6992L61.0898 91.6523V91.5703C61.0898 91.5078 61.1602 91.4766 61.3008 91.4766L61.3477 91.3125ZM64.2422 91.3125H64.3242V91.3945L64.2422 91.4766H64.1484V91.3945L64.2422 91.3125ZM67.5 91.3125C67.5 91.3594 67.6016 91.4141 67.8047 91.4766V91.6055C67.8047 91.6523 67.6914 91.7383 67.4648 91.8633C67.1758 91.6367 67.0312 91.4961 67.0312 91.4414C67.1484 91.3555 67.3047 91.3125 67.5 91.3125ZM65.0039 91.4414L65.0859 91.5234L65.0508 91.5703H64.957L64.875 91.4766L64.9219 91.4414H65.0039ZM66.4805 91.6992C66.5039 91.7773 66.6172 91.8164 66.8203 91.8164L66.9141 92.0391L66.6562 92.1211C66.5469 91.918 66.4336 91.8164 66.3164 91.8164L66.0586 91.8633L65.8008 91.8164C65.5117 91.8477 65.332 91.9062 65.2617 91.9922H65.168V91.9102C65.168 91.8008 65.6055 91.7305 66.4805 91.6992ZM61.8633 91.9102H61.9805V91.9453L61.8984 92.0391L61.8633 91.9922V91.9102ZM67.7227 92.0742L67.8047 92.1562L67.7578 92.2031H67.7227L67.6289 92.1211L67.6758 92.0742H67.7227ZM65.9297 92.1211C66.1562 92.168 66.2695 92.2227 66.2695 92.2852V92.332L66.1406 92.4609H65.9766L65.8008 92.3789C65.832 92.207 65.875 92.1211 65.9297 92.1211ZM59.9414 92.1562L60.1641 92.2031L60.1992 92.1562L60.3281 92.4141L60.2461 92.4961L60.2812 92.625L60.0352 92.7188C59.9727 92.7188 59.9414 92.6758 59.9414 92.5898L59.9883 92.4609L59.8125 92.2852L59.9414 92.1562ZM61.5234 92.25H61.6055L61.6875 92.332V92.4141L61.6055 92.4961L61.5234 92.4141V92.25ZM63.8086 92.5898L63.9375 92.6719H64.0312L64.1133 92.5898L64.0664 92.4609C63.8945 92.4766 63.8086 92.5195 63.8086 92.5898ZM65.2617 92.4141H65.3789L65.5078 92.543L65.3789 92.625C65.3164 92.625 65.2773 92.5547 65.2617 92.4141ZM60.5391 92.6719L60.5859 92.7188V92.8008L60.457 92.7539L60.5391 92.6719ZM67.418 92.8359C67.418 92.9062 67.5312 92.9492 67.7578 92.9648L67.8867 92.9297L68.1445 93.2227L68.0156 93.3516C67.9219 93.3516 67.8086 93.293 67.6758 93.1758C67.6758 93.2617 67.6172 93.3047 67.5 93.3047C67.25 93.2891 67.125 93.2461 67.125 93.1758C67.1797 93.1758 67.207 93.0938 67.207 92.9297L67.418 92.8359ZM65.3438 92.9297C65.4844 92.9609 65.5547 93.0039 65.5547 93.0586V93.0938H65.4609L65.3438 92.9648V92.9297ZM61.0547 93.0117L61.3008 93.0938V93.1758C61.1055 93.1523 61.0078 93.1133 61.0078 93.0586L61.0547 93.0117ZM61.0898 93.2695C61.1523 93.2695 61.1836 93.3242 61.1836 93.4336C61.293 93.4336 61.3477 93.4609 61.3477 93.5156L61.2656 93.6094C61.2656 93.5469 61.1641 93.4883 60.9609 93.4336V93.3984L61.0898 93.2695ZM61.5586 93.3047L61.5234 93.4336H61.6055L61.7344 93.3984L61.6406 93.3047H61.5586ZM67.5938 93.3984H67.6289L67.7578 93.5156L67.6289 93.6914H67.5938C67.5234 93.6914 67.4805 93.6211 67.4648 93.4805L67.5938 93.3984ZM60.2812 93.4336L60.375 93.5156L60.2461 93.6094L60.1641 93.5156L60.2812 93.4336ZM61.3945 93.8555L61.4766 93.9492L61.3945 94.2891L61.4297 94.3242H61.4766L61.8164 94.1953L61.6875 94.0312L61.7344 93.7734L61.6406 93.6445C61.5234 93.6836 61.4414 93.7539 61.3945 93.8555ZM67.9336 93.7383H68.0156L68.2266 93.9492L68.1797 93.9844H67.9688L67.8398 93.8555V93.8203L67.9336 93.7383ZM60.2461 93.9023H60.2812L60.375 93.9844V94.0312L60.2812 94.1133H60.2461L60.1641 94.0312V93.9844L60.2461 93.9023ZM67.6758 94.1953H67.7227L67.8047 94.2891L67.7578 94.3242H67.7227L67.6758 94.2891V94.1953ZM60.8789 94.5352H61.0078L60.9258 94.6289H60.7969L60.8789 94.5352ZM62.5781 94.793L62.707 94.9219V94.8867L62.625 94.793H62.5781ZM61.9453 94.793L62.0273 94.8867L61.9805 94.9219H61.8984L61.8164 94.8398L61.8633 94.793H61.9453ZM61.3008 94.8398L61.3945 94.9219L61.3477 94.9688H61.2656L61.1836 94.8867L61.2188 94.8398H61.3008ZM61.7344 95.0508L61.8633 95.2266C62.0039 95.2344 62.0742 95.2734 62.0742 95.3438L61.8633 95.5195H61.5586L61.4766 95.4375L61.6406 95.3438V95.3086C61.5312 95.3086 61.4766 95.2812 61.4766 95.2266C61.5312 95.2266 61.5586 95.1836 61.5586 95.0977L61.6055 95.0508H61.7344ZM62.7891 95.2266H62.8359L63 95.3906V95.4375L62.7891 95.2266ZM69.9258 95.3906L69.9727 95.4375V95.4727L69.9258 95.5195H69.7617L69.9258 95.3906ZM70.1836 96.832H70.3125V96.9258H70.1836V96.832ZM61.8984 97.8984H62.0273C62.0977 97.8984 62.1562 98.0273 62.2031 98.2852C62.1484 98.2852 62.1055 98.2109 62.0742 98.0625C61.9023 98.0625 61.8164 98.0352 61.8164 97.9805L61.8984 97.8984ZM63.3047 97.8984H63.4688L63.5977 98.0273V98.1094L63.5625 98.1562V98.1914L63.7734 98.3203H63.8086V98.4492L63.7266 98.5312C63.6875 98.3672 63.6445 98.2852 63.5977 98.2852H63.5625L63.4336 98.3672C63.2617 98.2344 63.1758 98.1055 63.1758 97.9805L63.3047 97.8984ZM62.2383 98.3203H62.2852L62.4141 98.4492H62.3203L62.2383 98.3672V98.3203ZM62.4141 98.4492H62.4961L62.918 98.7422V98.8359H62.9648L63.2227 98.707C63.2227 98.7539 63.3047 98.8086 63.4688 98.8711V98.9648C63.3828 99.2695 63.3008 99.4219 63.2227 99.4219H63.0469L63 99.3867H62.9648L62.918 99.4219V99.7266H62.7891L62.707 99.6445L62.8828 99.4219L62.7891 99.3047V99.082L62.8828 98.9648V98.8711L62.4141 98.4492ZM75.5391 102.445L75.6211 102.574L75.5742 102.609H75.5391L75.4453 102.527L75.5391 102.445ZM75.2812 102.785H75.3281L75.4102 102.867V102.949C75.4102 103.027 75.1836 103.102 74.7305 103.172L74.5195 103.078C74.4727 103.195 74.3711 103.254 74.2148 103.254C74.2148 103.098 74.4297 102.996 74.8594 102.949C74.9453 102.84 75.0859 102.785 75.2812 102.785ZM73.5 103.207H73.7461C73.8633 103.27 73.9219 103.34 73.9219 103.418L74.0859 103.289H74.1797L74.0508 103.512L74.1797 103.887L73.9219 104.016C73.6953 104 73.582 103.957 73.582 103.887L73.5352 103.934H73.4531L73.2891 103.676V103.629L73.3711 103.465L73.3242 103.336L73.5 103.207ZM70.4414 103.723H70.5234L70.5586 103.887L70.4414 103.758V103.723ZM61.9453 103.758L61.9805 103.805V103.887L61.8984 103.969L61.8633 103.805L61.8984 103.758H61.9453ZM63.3047 105.293L63.4688 105.422V105.164L63.3047 105.293ZM68.1797 105.117H68.2266V105.211H68.0977L68.1797 105.117ZM63.3867 105.633L63.3398 105.797L63.3867 105.844H63.4336V105.633H63.3867ZM69.1992 105.762L69.2461 105.797V105.844L69.1641 105.926H69.1172L69.0352 105.844V105.797L69.1992 105.762ZM63.4336 105.973C63.5117 106.168 63.625 106.266 63.7734 106.266V106.137C63.7734 106.059 63.6602 106.004 63.4336 105.973ZM62.1562 106.02V106.055L61.6406 106.734L61.5586 106.652L62.1562 106.02ZM66.4453 106.055H66.5742L66.4805 106.137L66.4453 106.102V106.055ZM68.0625 106.57L68.3086 106.605H68.5664L68.7422 106.699V106.816C68.6406 106.988 68.5117 107.074 68.3555 107.074L68.2266 106.945L68.0977 106.992L67.7227 106.652L68.0625 106.57ZM66.1055 106.781L66.1875 106.863L66.1055 106.992L66.6094 107.285L66.4805 107.496V107.543H66.3984L66.3164 107.461L66.3516 107.414V107.379L65.9766 106.992C66.0391 106.992 66.082 106.922 66.1055 106.781ZM65.0859 107.203H65.1328L65.2148 107.285V107.332H65.0859V107.203ZM63.5625 107.332H63.7734L63.6797 107.414H63.5625V107.332ZM64.1953 107.754L64.2422 107.801V107.836L64.1953 107.883H64.1484L64.1133 107.836V107.801L64.1484 107.754H64.1953ZM65.8477 108.457L65.9297 108.551L65.8477 108.633L65.7656 108.504L65.8008 108.457H65.8477ZM66.2344 108.457H66.3164L66.3984 108.551L66.3516 108.586H66.3164L66.2344 108.457ZM66.6562 109.102H66.6914C66.8477 109.102 66.9492 109.156 66.9961 109.266L66.9141 109.359H66.7383L66.5742 109.184L66.6562 109.102ZM77.9766 88.8281H78.1172C78.4922 89.0312 78.6797 89.1719 78.6797 89.25L78.6328 89.2969V89.3438C78.4922 89.2188 78.3047 89.1562 78.0703 89.1562L78.0234 89.1094C77.9297 89.1094 77.8828 89.0781 77.8828 89.0156V88.9219L77.9766 88.8281ZM76.5 87.8203L76.5586 87.8672V87.9258L76.5 87.9727H76.4531L76.4062 87.9258V87.8672L76.4531 87.8203H76.5ZM76.8633 87.8672C77.4102 88.1953 77.6836 88.4883 77.6836 88.7461L77.8945 89.0039V89.1094C77.793 89.1953 77.7422 89.2969 77.7422 89.4141H77.6836L77.7891 89.8242L77.6836 89.9297V89.9766C77.7695 90.125 77.8555 90.2109 77.9414 90.2344L78.3516 89.8242L78.3047 89.5664V89.4609H78.3516C78.5938 89.5469 78.7148 89.6172 78.7148 89.6719V89.7188L78.6094 89.8711L78.7148 90.0352C78.8555 89.9883 78.957 89.9023 79.0195 89.7773V89.6719C78.918 89.6719 78.8672 89.6367 78.8672 89.5664V89.5195H78.9727L78.8672 89.3672L79.2305 89.1094H79.3359L79.2305 89.2617L79.2773 89.3086V89.3672C79.6367 89.3672 79.8945 89.2461 80.0508 89.0039C80.1055 89.0039 80.1562 89.125 80.2031 89.3672C80.1328 89.3672 80.0469 89.4844 79.9453 89.7188V89.7773L80.0977 89.8242C80.0977 89.7227 80.1328 89.6719 80.2031 89.6719L80.1562 89.625V89.5664C80.1562 89.5117 80.2422 89.4609 80.4141 89.4141C80.5156 89.5391 80.5664 89.6602 80.5664 89.7773L80.4609 90.0352L80.5078 90.082H80.5664L80.7656 89.8711H80.8242V89.9297C80.6836 90.1016 80.5781 90.1875 80.5078 90.1875V90.2344H80.6719L81.082 89.9766H81.1289L80.8242 90.3398V90.3867L83.1914 89.7188L83.6484 89.8242L84.1641 89.625L84.5273 89.6719C84.5273 89.5781 84.7305 89.4922 85.1367 89.4141L85.0898 89.3672V89.3086L85.1367 89.2617H85.1953L85.2422 89.3086L85.3945 89.2617V89.2031L85.1367 88.9453L84.9844 89.0039L85.1367 88.8516C85.3867 89.0859 85.6289 89.2031 85.8633 89.2031V89.3086L85.5 89.3672V89.4141H85.7578L86.3203 89.2617C86.3281 89.1914 86.4297 89.1406 86.625 89.1094V89.2031H86.5312C86.5312 89.4141 86.4609 89.5195 86.3203 89.5195L86.0625 89.4609L86.0156 89.625C86.2891 89.625 86.4258 89.6914 86.4258 89.8242L86.3203 89.9297H86.2148L86.0625 89.8242L85.8047 89.8711V89.9766C85.8047 90.0469 85.8555 90.082 85.957 90.082V90.1289L85.8633 90.2344L85.9102 90.3867C86.2148 90.3398 86.4219 90.2734 86.5312 90.1875V90.2344L86.4727 90.4922H86.5312L86.9883 90.4453H87.1992C87.2227 90.2734 87.2734 90.1875 87.3516 90.1875L87.3984 90.2344L87.1992 90.5977V90.7031L87.457 90.7969L88.0195 90.6445V90.75L87.5508 90.9023L87.6562 91.1602L87.6094 91.207H87.5508L87.3984 91.1133C87.3203 91.2852 87.2344 91.3711 87.1406 91.3711V91.418C87.2812 91.4336 87.3516 91.4844 87.3516 91.5703L86.9414 91.7227L86.9883 91.7812V91.8281L86.8828 91.9336H86.6836L86.5312 91.7812C86.1328 91.9844 85.8906 92.1367 85.8047 92.2383C85.8047 92.3086 85.5664 92.3789 85.0898 92.4492L84.9375 92.6016L84.3164 92.5547C83.6758 92.7891 83.1289 92.9414 82.6758 93.0117H82.3594C81.5547 93.0117 80.9922 93.082 80.6719 93.2227V94.0898L80.6133 94.5586L80.7188 95.0625L80.6719 96.6094L80.7656 96.9141V97.3242C80.7656 97.9102 80.7148 98.2031 80.6133 98.2031C80.8008 98.6094 80.9375 99.1055 81.0234 99.6914V101.953C80.75 103.188 80.5781 104.164 80.5078 104.883L80.5664 105.551C80.5664 105.754 80.4297 106.082 80.1562 106.535L80.0508 107.098L80.2031 107.66L80.1562 108.176H80.0508V108.07L79.4883 105.656C79.3711 105.141 79.2852 104.883 79.2305 104.883H79.1719L79.125 104.941H79.0781L78.8672 104.625L78.9258 104.578L78.7617 104.273H78.668L78.5039 104.367L78.3516 104.32L78.2461 104.426L78.1992 104.367V104.32L78.3047 104.215L78.1523 103.957L78.1992 103.805H78.1523L77.8945 103.91L77.9414 104.168L77.5312 104.32L77.4844 104.273V104.215C77.7188 103.77 77.9414 103.547 78.1523 103.547H78.3047C78.3203 103.414 78.3711 103.348 78.457 103.348L78.6094 103.395V103.137H78.668L78.7148 103.195H78.7617C78.7617 102.883 78.8164 102.555 78.9258 102.211L78.8672 101.906L78.9727 101.391C78.9727 101.117 78.9023 100.895 78.7617 100.723C78.8164 99.7617 78.8867 99.2812 78.9727 99.2812V99.1758C78.8164 99.1758 78.6797 98.7148 78.5625 97.793C78.3516 97.793 78.2461 97.6914 78.2461 97.4883C78.2461 97.3164 78.2812 97.2305 78.3516 97.2305C78.2734 96.2617 78.1211 95.625 77.8945 95.3203C77.6836 95.3203 77.4961 94.9297 77.332 94.1484V93.8906L76.9102 94.043L76.1484 93.9375C75.9062 94.1328 74.8633 94.2695 73.0195 94.3477L72.9609 94.3945L72.8086 94.4531L72.2461 94.3477L72.0352 94.3945L71.4727 94.3477L71.2617 94.3945V94.3008C71.5664 94.2773 71.8594 94.1055 72.1406 93.7852C72.5859 93.6445 72.9453 93.4883 73.2188 93.3164C73.2812 93.3164 73.5039 93.1133 73.8867 92.707C74.3789 92.707 74.7383 92.5352 74.9648 92.1914C74.9648 92.1055 75.168 92.0039 75.5742 91.8867C75.5742 91.7773 75.6797 91.7227 75.8906 91.7227L76.5 91.3125H76.5586L76.7109 91.418L77.168 91.3125V90.9609L77.2266 90.9023L77.0156 90.4453L77.0742 90.3867H77.1211L77.332 90.5391L77.5312 90.293L77.3789 90.082V90.0352L77.5312 89.7773L77.4844 89.4609C77.5391 89.4609 77.6055 89.3242 77.6836 89.0508L77.4844 88.793C77.3828 88.793 77.2617 88.6211 77.1211 88.2773C76.8711 88.1523 76.7344 88.0508 76.7109 87.9727C76.7109 87.9023 76.7617 87.8672 76.8633 87.8672ZM78.1523 88.4414H78.1992L78.3047 88.5352L78.2461 88.5938H78.1523V88.4414ZM80.0039 88.5352L80.0508 88.5938V88.6406L80.0039 88.6992H79.9453L79.8984 88.6406V88.5938L79.9453 88.5352H80.0039ZM82.3594 88.793H82.4648V88.9453L81.9023 89.4141V89.3672L82.3594 88.793ZM87.0469 88.793H87.0938V88.8984L86.9414 88.9453V88.8984L87.0469 88.793ZM78.4102 88.9453H78.457L78.5625 89.0508L78.5039 89.1094H78.457L78.4102 89.0508V88.9453ZM79.4883 88.9453H79.5352V89.0039L79.4297 89.1094H79.3359L79.4883 88.9453ZM84.9375 89.1562H85.0312L85.0898 89.3086H85.0312L84.9375 89.2031V89.1562ZM81.6445 89.5195L81.6914 89.5664V89.625L81.2344 89.9297H81.1875C81.2578 89.7578 81.4102 89.6211 81.6445 89.5195ZM87.9609 89.625L88.0195 89.6719V89.7188L87.9609 89.7773H87.9141L87.8672 89.7188V89.6719L87.9141 89.625H87.9609ZM91.1016 89.7773V89.8242L90.8906 90.0352H90.6445V89.9766C90.6836 89.8438 90.8359 89.7773 91.1016 89.7773ZM86.0625 89.8711L86.1211 89.9297V90.0352H85.957V89.9766L86.0625 89.8711ZM86.8828 89.9766L86.9414 90.0352V90.082L86.8828 90.1289H86.8359L86.7891 90.082V90.0352L86.8359 89.9766H86.8828ZM90.3867 90.082L90.4336 90.1289V90.1875C90.3477 90.3516 89.918 90.5547 89.1445 90.7969C88.6367 90.7422 88.3828 90.6914 88.3828 90.6445L88.3242 90.7031H88.125V90.6445L88.2188 90.5391H88.9922L90.3867 90.082ZM86.4727 92.0391H86.5312C86.6094 92.0391 86.6758 92.1562 86.7305 92.3906H86.6836L86.4727 92.0859V92.0391ZM72.1875 93.0117L72.3516 93.1641L72.0352 93.2695L71.9883 93.2227V93.1641L72.1875 93.0117ZM75.7852 94.7109V94.8164L75.5742 94.9102L75.4805 94.8164L75.7852 94.7109ZM77.4844 104.531L77.5312 104.578C77.4844 104.812 77.3984 104.984 77.2734 105.094H77.2266L77.1211 104.988V104.941C77.2305 104.691 77.3516 104.555 77.4844 104.531ZM91.125 89.7422L91.1836 89.7891V89.8945L91.0195 90.0586H90.9141C90.9844 89.8477 91.0547 89.7422 91.125 89.7422ZM91.3828 90.1641L91.4414 90.2109V90.2578L91.3828 90.3164H91.3359L91.2773 90.2578V90.2109L91.3359 90.1641H91.3828ZM89.9766 90.2109L90.3984 90.6328V90.7383L89.8711 90.3164L89.9766 90.2109ZM93.5742 90.3164L93.6797 90.4219L93.6328 90.4688H93.5742V90.3164ZM92.4258 90.3633H92.5312V90.4219L92.2266 90.7383C92.2891 90.7383 92.3203 90.7891 92.3203 90.8906L92.168 91.3008L92.1211 91.2539H92.0625L91.957 91.3594V91.4062L92.2734 91.6172H92.3203L92.5898 91.5703V91.6758H92.4844V91.7812C92.4844 91.8359 92.6914 91.9727 93.1055 92.1914V92.25L93 92.3438L92.4258 91.9336L92.2734 91.9805V92.0391L92.3789 92.1914H92.2734L91.4883 91.7812V91.7227L91.5469 91.6758V91.6172C91.4609 91.6172 91.3711 91.5664 91.2773 91.4648H91.1836V91.5117C91.1836 91.6289 91.2344 91.75 91.3359 91.875L91.2773 92.3438V92.4023L91.5938 92.1914L91.5469 92.1445V92.0391H91.6523V92.1914L91.6992 92.1445H91.8047C91.875 92.1445 91.9258 92.2461 91.957 92.4492H92.0625V92.5078L92.0156 92.5547V92.6133L92.0625 92.6602L91.5938 92.8242V92.8711C91.9922 92.8711 92.2539 93.0273 92.3789 93.3398L92.6367 93.4453V93.5508H92.5898L92.2266 93.3867V93.4453C92.4688 93.6641 92.5898 93.8203 92.5898 93.9141H92.5312L91.6523 93.2344C91.6523 93.2969 91.5273 93.3477 91.2773 93.3867V93.4453L91.4414 93.6562L91.0195 93.7031V93.7617C91.7852 94.082 92.168 94.3398 92.168 94.5352L92.1211 94.5938V94.6406L92.4844 95.0039L92.4258 95.0625H92.3789C92.1602 94.7812 91.9688 94.6406 91.8047 94.6406C91.7344 94.5625 91.6992 94.4414 91.6992 94.2773L90.8672 93.7031L90.8086 93.7617V93.8086L90.8672 93.8672V93.9141L90.8086 93.9609C90.918 93.9609 91.0234 94.0508 91.125 94.2305L91.0781 94.2773H91.0195C91.0195 94.1523 90.7773 94.0469 90.293 93.9609C90.5742 94.2812 90.7148 94.5078 90.7148 94.6406C90.6602 94.8203 90.5898 94.9414 90.5039 95.0039L90.5508 95.0625V95.1094C90.5508 95.5859 90.3789 96.2148 90.0352 96.9961L90.3398 98.7656L90.293 99.1758L90.4453 99.8086V100.066C90.2734 100.488 90.1875 100.887 90.1875 101.262H90.1406L90.293 101.531V101.73L90.3398 102.516L90.293 102.879L90.4453 103.453V103.664L90.3984 105.07L90.293 105.176L90.3398 105.434L90.0352 107.414L89.9766 107.473V107.52L90.1406 107.789L89.9766 108.41H89.8711L89.5664 107.262V106.582L89.1914 105.492L88.7812 104.285V103.09L88.418 101.73L88.5703 101.367C88.5703 101.094 88.5 100.695 88.3594 100.172L88.418 99.9609L87.6328 98.0391L87.6797 97.5117L87.4805 96.5156V96.2578L87.5859 96.0469L87.3164 94.8516L87.375 94.5938L87.0586 94.3359V93.9609C87.0586 93.7109 87.3359 93.418 87.8906 93.082C88.2969 92.8789 88.543 92.7227 88.6289 92.6133L88.5703 92.5547V92.4492L88.6289 92.5078H88.7227C88.918 92.5078 89.0742 92.4023 89.1914 92.1914L89.4609 92.1445L88.8867 91.6172L89.0391 91.5703L88.9922 91.5117V91.4648L89.0977 91.3594L89.1914 91.6172L89.25 91.5703H89.2969L89.3555 91.6172V91.6758L89.1914 91.7227V91.7812L89.5078 91.9805H89.5664L89.7188 91.9336V91.8281C89.6172 91.8281 89.5664 91.793 89.5664 91.7227V91.6758L89.7188 91.4062L89.4609 91.3594V91.2539L89.7188 91.3008H89.8711L89.8242 91.2539V91.207L89.9297 91.1016L90.1875 91.1484C90.1875 91.0781 90.293 91.0273 90.5039 90.9961L90.6094 91.207C90.6875 91.207 90.8594 90.9453 91.125 90.4219H91.1836L91.2305 90.4688V90.5273C91.1055 90.6289 90.9844 90.8555 90.8672 91.207L90.9141 91.2539H90.9727L91.0195 91.207H91.0781L91.125 91.2539V91.3008L91.3359 91.207V91.2539L91.2773 91.3008V91.3594H91.3828C91.4688 91.3594 91.6094 91.168 91.8047 90.7852C91.9922 90.7852 92.1992 90.6445 92.4258 90.3633ZM89.5078 90.4219L89.6133 90.5742L89.5078 90.6797L89.4023 90.5273L89.5078 90.4219ZM93.7852 90.5742H93.8438L93.9375 90.6797V90.7383H93.7852V90.5742ZM92.6953 91.4062L92.8008 91.5117L92.7422 91.5703H92.6953L92.6367 91.5117L92.5898 91.5703V91.5117L92.6953 91.4062ZM88.5234 91.5703H88.5703L88.6758 91.6758V91.7812H88.6289L88.5234 91.6758V91.5703ZM93.8438 91.5703H93.9961L94.1016 91.6758L94.1484 91.6172H94.2539L94.3594 91.7227V91.875L94.2539 91.9805H94.207C94.1367 91.9805 94.1016 91.9297 94.1016 91.8281L93.9375 91.9336C93.7656 91.8867 93.6797 91.8359 93.6797 91.7812V91.7227L93.8438 91.5703ZM94.1016 92.0391L94.207 92.1445L94.1484 92.1914H94.1016V92.0391ZM93.5742 92.1445H93.6797L93.7852 92.25L93.6797 92.3438L93.5742 92.25V92.1445ZM91.1836 92.5547V92.6133L91.3828 92.7188V92.5547H91.1836ZM92.3789 92.6602L92.4258 92.7188V92.8242L92.3203 92.918L92.2734 92.8711V92.7656L92.3789 92.6602ZM92.8945 94.4883L92.9531 94.5352V94.5938L92.5312 94.7461C92.5547 94.668 92.6758 94.582 92.8945 94.4883ZM91.8047 95.0625H91.8516C91.6797 95.3047 91.543 95.4258 91.4414 95.4258V95.5312L91.4883 95.5781V95.6367L91.2773 95.7422H91.2305C91.1758 95.7422 91.1055 95.6367 91.0195 95.4258C91.0664 95.2539 91.1211 95.168 91.1836 95.168H91.2305L91.3828 95.2734L91.8047 95.0625ZM92.0625 95.3789V95.5312H92.0156L91.9102 95.4258L91.957 95.3789H92.0625ZM93.7734 90.2695H93.8203V90.3281L93.7148 90.4336H93.668V90.375L93.7734 90.2695ZM89.2031 90.9023C89.375 90.9023 89.6602 90.9922 90.0586 91.1719V91.2305H89.9531C89.4531 91.1758 89.2031 91.1016 89.2031 91.0078V90.9023ZM104.016 91.3828L104.121 91.5469C104.121 91.6094 104 91.7148 103.758 91.8633H103.699V91.8047C103.832 91.5469 103.938 91.4062 104.016 91.3828ZM90.4336 91.4414L91.125 91.8047L92.4375 92.3906L92.4961 92.4492H92.6016L92.7656 92.2852L92.707 92.1328H92.7656L92.918 92.1797L93.1875 92.0273H93.2344L93.6094 92.3438L93.8203 92.0742L94.0898 92.1328L94.1953 92.0273H94.3008V92.0742L94.2422 92.2383L94.8281 92.4961C95.9531 92.1445 96.875 91.9688 97.5938 91.9688C97.5938 91.8594 97.7891 91.8047 98.1797 91.8047V91.8633L98.6016 91.6992H99.0234L100.57 91.5469C101.367 91.6875 101.844 91.8086 102 91.9102L102.797 91.4883H102.961C102.938 91.5664 102.707 91.7266 102.27 91.9688V92.0273L102.633 92.0742H103.008V92.1797H102.738V92.2852H102.855V92.3438C102.723 92.5547 102.562 92.6602 102.375 92.6602V92.707L102.961 92.8242L103.008 92.7656V92.8711H103.172L104.332 92.3906H104.391C104.531 92.4453 104.602 92.5 104.602 92.5547V92.8242L104.555 92.8711V92.9297H104.707V93.0352H104.602L104.438 92.9297L104.332 93.0352H104.18L103.863 92.9297L103.699 92.9766L103.652 92.9297H103.594C103.109 93.0312 102.844 93.1172 102.797 93.1875V93.1406L102.855 93.082V93.0352L102.48 93.082V93.1406L103.219 93.7734V93.832H103.113L102.691 93.3984L102.633 93.457V93.7266C102.633 94.0781 102.758 94.2539 103.008 94.2539C103.008 94.332 102.883 94.3828 102.633 94.4062C102.633 94.5859 102.598 94.6758 102.527 94.6758L102.48 94.6289H102.422C102.359 94.6289 102.219 94.7852 102 95.0977C102.055 95.2773 102.16 95.3672 102.316 95.3672V95.3086C102.316 95.207 102.352 95.1562 102.422 95.1562H102.48C102.652 95.2578 102.738 95.3633 102.738 95.4727L102.586 95.7891H102.961V95.8945C102.07 96.043 101.625 96.1875 101.625 96.3281V96.4336L102.059 96.4805L102.105 96.4336H102.164C102.375 96.4336 102.48 96.5547 102.48 96.7969V96.9023L102.422 96.9609V97.0078L102.855 97.4414H102.797C102.297 97.0586 102.016 96.8086 101.953 96.6914L101.367 96.6445H101.203L100.887 96.3281H100.828V96.4805L101.098 97.2773C100.707 96.9805 100.23 96.6797 99.668 96.375C97.6914 96.5547 96.4688 96.8047 96 97.125C95.8438 97.125 95.5977 97.2461 95.2617 97.4883L95.625 97.5938L95.6836 97.5469H95.7305L98.707 98.1797H99.6094C100.469 98.1797 101.852 98.5352 103.758 99.2461C104.422 99.6211 104.809 100.008 104.918 100.406C105.285 100.836 105.641 101.051 105.984 101.051L106.254 100.945L106.137 101.098V101.156C106.355 101.352 106.781 101.527 107.414 101.684C107.43 101.824 107.484 101.895 107.578 101.895V102H107.52C107.051 102 106.75 101.879 106.617 101.637C106.492 101.637 106.352 101.566 106.195 101.426H106.09C106.02 101.426 105.984 101.477 105.984 101.578L105.926 101.637H105.879C105.879 101.566 105.824 101.531 105.715 101.531L105.504 101.473L105.457 101.426V101.367L105.562 101.262V101.203L105.082 101.098H104.977L104.918 101.473L105.023 101.637V101.684L104.918 101.789C104.863 101.648 104.812 101.578 104.766 101.578H104.66V101.684C104.66 101.863 104.891 102.129 105.352 102.48V102.539L105.293 102.75C105.434 102.75 105.504 102.785 105.504 102.855V102.902C105.457 103.105 105.227 103.391 104.812 103.758C104.266 103.953 103.453 104.344 102.375 104.93C102.195 104.93 101.363 105.316 99.8789 106.09L97.5352 107.051C97.3789 107.191 96.9922 107.352 96.375 107.531C96.375 107.781 96.1445 107.938 95.6836 108L94.7227 108.375C94.4492 108.375 94.1328 108.496 93.7734 108.738C93.1562 109.168 92.4453 109.488 91.6406 109.699L91.5938 109.758V109.699L92.2852 109.113V109.066L92.0156 109.113V109.066L92.1211 108.797L92.4375 108.902L93.082 108.527C93.3008 108.527 93.5117 108.301 93.7148 107.848L94.3594 107.203C94.5156 107.203 94.707 107.062 94.9336 106.781C96.5586 105.828 97.5508 105.086 97.9102 104.555C98.0039 104.555 98.2539 104.359 98.6602 103.969C99.3633 103.609 99.9102 102.973 100.301 102.059C100.301 101.59 100.125 101.27 99.7734 101.098L98.6602 100.57L98.4961 100.676H98.4375V100.629L98.4961 100.57V100.523C98.0664 100.523 97.7812 100.469 97.6406 100.359H97.4297C97.3125 100.359 97.1914 100.414 97.0664 100.523H97.0078L97.0664 100.465V100.406H97.0078C96.2969 100.492 95.9414 100.602 95.9414 100.734L96 100.781H95.9414L95.4727 100.676H95.1562L94.9336 100.84L94.8281 100.734L94.6172 100.887H94.5703V100.84L94.6758 100.676C92.9414 100.402 92.0742 100.191 92.0742 100.043C91.082 99.3789 90.5859 98.7773 90.5859 98.2383L90.375 97.2773V96.8555C90.5 95.918 90.6406 95.4023 90.7969 95.3086C90.9062 94.9727 91.332 94.3555 92.0742 93.457V93.3516H91.8633V93.2461L92.1211 93.293V93.2461L92.2852 93.0352V92.9766C92.2852 92.9062 92.2305 92.8711 92.1211 92.8711L92.0742 92.8242V92.7656C92.3164 92.7422 92.4375 92.6875 92.4375 92.6016C92.3281 92.4922 91.9766 92.3164 91.3828 92.0742C90.6484 91.7461 90.2773 91.5508 90.2695 91.4883L90.4336 91.4414ZM92.2852 91.4883L92.332 91.5469H92.4375L92.4961 91.4883H92.543L92.6016 91.5469V91.5938L92.4375 91.6523L92.2852 91.5938V91.4883ZM94.4062 91.8047V91.9102L94.3008 92.0273V91.9102L94.4062 91.8047ZM103.652 91.8633V91.9102L103.535 92.0273V91.9688L103.652 91.8633ZM105.82 91.9102H106.031L106.195 92.0742V92.1797C106.195 92.25 106.09 92.3203 105.879 92.3906L105.504 92.2852C105.309 92.3945 105.113 92.4492 104.918 92.4492C105.285 92.0898 105.586 91.9102 105.82 91.9102ZM103.383 92.1797V92.2852L103.113 92.6016V92.5547C103.238 92.3047 103.328 92.1797 103.383 92.1797ZM102.105 92.3906V92.4492L102.164 92.6016H102.316L102.422 92.4961L102.105 92.3906ZM107.789 92.3438H107.895C107.895 92.4766 107.539 92.6523 106.828 92.8711V92.9766H106.723V92.8711C106.723 92.7617 107.078 92.5859 107.789 92.3438ZM106.031 92.9297H106.137L106.301 93.082C105.668 93.3633 104.977 93.6133 104.227 93.832V93.7734L105.668 93.1875C105.668 93.1328 105.789 93.0469 106.031 92.9297ZM101.789 93.1875V93.2461L101.953 93.457V93.5039L101.836 93.668V93.832H101.895L102.059 93.668V93.6094L102 93.5625V93.5039L102.059 93.457L102 93.3984L102.059 93.3516H102.27V93.5039L102.633 93.3984V93.3516C102.531 93.3516 102.375 93.2812 102.164 93.1406L101.789 93.1875ZM103.488 93.832L104.016 93.8789L103.969 93.9375V93.9844C104.25 94.0703 104.391 94.1602 104.391 94.2539C104.391 94.3477 104.25 94.418 103.969 94.4648L103.91 94.4062H103.863L103.91 94.3594V94.1953C103.91 94.1094 103.77 94.0234 103.488 93.9375V93.832ZM103.383 94.3008L103.488 94.6289C103.402 94.7461 103.262 94.832 103.066 94.8867L102.961 94.6758C102.961 94.4727 103.102 94.3477 103.383 94.3008ZM104.391 94.4648L104.438 94.5234V94.5703L104.332 94.6758L104.285 94.6289V94.5703L104.391 94.4648ZM104.66 94.7344C104.902 94.9141 105.023 95.125 105.023 95.3672L104.766 95.4727L104.438 94.7812L104.496 94.7344H104.66ZM103.066 95.0508L103.172 95.1562L103.008 95.2617H102.961V95.1562L103.066 95.0508ZM104.332 95.7891H104.555V95.8945H104.332V95.7891ZM102.855 97.4414H103.008V97.5469H102.961L102.855 97.4414ZM101.52 97.6523H101.578L101.73 97.8047L101.684 97.8633H101.625L101.52 97.6523ZM106.195 100.148H106.359V100.195L106.254 100.301H106.195V100.148ZM96.6328 100.887H96.6914L96.2109 101.578V101.637C96.3203 101.637 96.375 101.707 96.375 101.848L96.5273 101.895C96.5117 102.215 96.3711 102.375 96.1055 102.375L95.8359 102.328L95.7305 102.434H95.5781L95.4727 102.328V102.27C95.5039 101.809 95.7148 101.578 96.1055 101.578L96.6328 100.887ZM95.3086 101.531L95.3672 101.578V101.637L95.2031 101.789L95.1562 101.742V101.684L95.3086 101.531ZM95.2031 103.383L95.2617 103.441V103.488L95.0977 103.652V103.488L95.2031 103.383Z" fill="white"/>
<g clip-path="url(#clip0_14_577)">
<rect x="28" y="117" width="85" height="85" fill="#0F104C" fill-opacity="0.5"/>
<path d="M28.2 185.2H44.8V201.8H28.2V185.2Z" stroke="#5F0D16" stroke-width="0.4"/>
<path d="M28.2 168.2H44.8V184.8H28.2V168.2Z" stroke="#5F0D16" stroke-width="0.4"/>
<path d="M28.2 151.2H44.8V167.8H28.2V151.2Z" stroke="#5F0D16" stroke-width="0.4"/>
<path d="M28.2 134.2H44.8V150.8H28.2V134.2Z" stroke="#5F0D16" stroke-width="0.4"/>
<path d="M28.2 117.2H44.8V133.8H28.2V117.2Z" stroke="#5F0D16" stroke-width="0.4"/>
<path d="M45.2 185.2H61.8V201.8H45.2V185.2Z" stroke="#5F0D16" stroke-width="0.4"/>
<path d="M45.2 168.2H61.8V184.8H45.2V168.2Z" stroke="#5F0D16" stroke-width="0.4"/>
<path d="M45.2 151.2H61.8V167.8H45.2V151.2Z" stroke="#5F0D16" stroke-width="0.4"/>
<path d="M45.2 134.2H61.8V150.8H45.2V134.2Z" fill="white"/>
<path d="M45.2 134.2H61.8V150.8H45.2V134.2Z" stroke="#5F0D16" stroke-width="0.4"/>
<path d="M45.2 117.2H61.8V133.8H45.2V117.2Z" stroke="#5F0D16" stroke-width="0.4"/>
<path d="M62.2 185.2H78.8V201.8H62.2V185.2Z" stroke="#5F0D16" stroke-width="0.4"/>
<path d="M62.2 168.2H78.8V184.8H62.2V168.2Z" fill="white"/>
<path d="M62.2 168.2H78.8V184.8H62.2V168.2Z" stroke="#5F0D16" stroke-width="0.4"/>
<path d="M62.2 151.2H78.8V167.8H62.2V151.2Z" fill="#EB1E1E"/>
<path d="M62.2 151.2H78.8V167.8H62.2V151.2Z" stroke="#5F0D16" stroke-width="0.4"/>
<path d="M62.2 134.2H78.8V150.8H62.2V134.2Z" stroke="#5F0D16" stroke-width="0.4"/>
<path d="M62.2 117.2H78.8V133.8H62.2V117.2Z" stroke="#5F0D16" stroke-width="0.4"/>
<path d="M79.2 185.2H95.8V201.8H79.2V185.2Z" stroke="#5F0D16" stroke-width="0.4"/>
<path d="M79.2 168.2H95.8V184.8H79.2V168.2Z" stroke="#5F0D16" stroke-width="0.4"/>
<path d="M79.2 151.2H95.8V167.8H79.2V151.2Z" stroke="#5F0D16" stroke-width="0.4"/>
<path d="M79.2 134.2H95.8V150.8H79.2V134.2Z" fill="white"/>
<path d="M79.2 134.2H95.8V150.8H79.2V134.2Z" stroke="#5F0D16" stroke-width="0.4"/>
<path d="M79.2 117.2H95.8V133.8H79.2V117.2Z" stroke="#5F0D16" stroke-width="0.4"/>
<path d="M96.2 185.2H112.8V201.8H96.2V185.2Z" stroke="#5F0D16" stroke-width="0.4"/>
<path d="M96.2 168.2H112.8V184.8H96.2V168.2Z" stroke="#5F0D16" stroke-width="0.4"/>
<path d="M96.2 151.2H112.8V167.8H96.2V151.2Z" stroke="#5F0D16" stroke-width="0.4"/>
<path d="M96.2 134.2H112.8V150.8H96.2V134.2Z" stroke="#5F0D16" stroke-width="0.4"/>
<path d="M96.2 117.2H112.8V133.8H96.2V117.2Z" stroke="#5F0D16" stroke-width="0.4"/>
</g>
<rect x="28.5" y="117.5" width="84" height="84" stroke="url(#paint1_linear_14_577)"/>
<defs>
<linearGradient id="paint0_linear_14_577" x1="70.5" y1="17" x2="70.5" y2="83" gradientUnits="userSpaceOnUse">
<stop stop-color="#123BD5"/>
<stop offset="1" stop-color="#CD2237"/>
</linearGradient>
<linearGradient id="paint1_linear_14_577" x1="31.7979" y1="120.436" x2="138.59" y2="226.777" gradientUnits="userSpaceOnUse">
<stop stop-color="#B17BFF"/>
<stop offset="1" stop-color="#FF0751"/>
</linearGradient>
<clipPath id="clip0_14_577">
<rect x="28" y="117" width="85" height="85" fill="white"/>
</clipPath>
</defs>
</svg>
