<svg width="142" height="218" viewBox="0 0 142 218" fill="none" xmlns="http://www.w3.org/2000/svg">
<rect x="0.5" y="0.5" width="141" height="217" rx="4.5" fill="#191515"/>
<rect x="0.5" y="0.5" width="141" height="217" rx="4.5" stroke="#B17BFF"/>
<path d="M72.93 82.36C72.48 82.09 72.03 81.82 71.58 81.73C71.04 81.64 70.5 81.37 70.05 81.01V80.65L68.88 80.2L67.26 78.31C68.07 78.22 68.7 77.86 69.33 77.32C69.96 76.87 70.59 76.42 71.22 76.06C72.48 74.53 73.11 72.73 73.2 70.75C73.2 68.86 73.2 66.88 73.2 64.99L71.94 61.21L70.95 61.03L68.88 63.64H68.61C68.52 64.18 68.25 64.63 67.89 64.99C67.44 65.35 67.08 65.8 66.72 66.25H66.45L65.55 67.51L61.59 71.11L61.14 71.29L59.25 71.11L58.26 71.29V71.11L59.07 69.94L59.88 69.67L60.24 69.13L60.6 68.59C62.22 67.06 63.75 65.35 65.1 63.73C66.54 62.02 67.89 60.31 69.06 58.51C69.51 57.7 70.05 56.89 70.5 55.9C70.95 55 71.22 54.1 71.4 53.2L69.06 52.12L68.07 51.22V50.86H67.8L67.62 49.87L66.72 49.6C66.63 48.79 66.45 47.98 66.27 47.17C66 46.36 65.64 45.82 65.19 45.19L63.21 43.3V42.76H64.11L69.06 44.47L70.05 42.94V44.65L69.87 45.19L71.22 46.54L71.4 47.62L73.38 47.71C74.37 47.17 75.54 46.81 76.71 46.54C77.97 46.36 79.14 45.91 80.04 45.28C80.31 44.74 80.58 44.11 80.67 43.3C80.76 42.58 80.85 42.04 80.85 41.41L80.49 40.69H79.5C78.78 41.14 78.06 41.41 77.34 41.5C76.62 41.59 75.99 41.77 75.27 42.13L74.37 43.12H74.55V42.58H74.28C74.01 41.95 73.65 41.23 73.2 40.42C72.66 39.7 72.39 38.98 72.12 38.26L72.57 38.08L72.75 37.63H73.2L73.74 38.26H74.28C75.63 37.99 76.89 37.63 78.24 37.18C79.5 36.73 80.76 36.46 82.11 36.19V36.01L83.28 35.83C84.36 36.19 85.44 36.55 86.61 37C87.69 37.45 88.86 37.9 90.03 38.44V40.69H89.13V41.05L87.51 41.77C86.88 42.85 86.43 44.2 86.16 45.64C85.89 46.99 85.44 48.34 84.72 49.6C84.27 49.78 83.73 49.87 83.28 49.78C82.74 49.69 82.38 49.96 82.11 50.5H81.75L81.57 49.6H81.03C80.67 49.78 80.31 49.87 79.86 49.87C79.5 49.87 79.23 50.14 78.96 50.5L78.78 51.76C79.5 51.85 80.04 52.12 80.67 52.57C81.3 53.02 81.84 53.47 82.29 53.92C82.92 54.82 83.37 55.72 83.73 56.53C84.18 57.43 84.63 58.24 85.26 59.05H85.62V59.32L86.16 59.68C86.79 61.21 87.6 62.47 88.77 63.55C89.94 64.72 91.29 65.53 93 66.25C96.15 68.14 99.48 69.49 103.08 70.48C106.68 71.47 110.1 72.64 113.52 74.08L113.61 75.25L111.9 75.79V75.61H110.19L108.93 75.79L106.14 75.43L103.89 75.61C100.83 74.98 98.04 73.99 95.25 72.55C92.55 71.02 89.94 69.49 87.24 68.05L86.79 67.51L85.44 66.07H84.9L84.36 66.43V66.07H84L82.65 66.97L81.93 67.51L81.57 68.41L81.03 68.59V69.13L81.21 69.67L81.57 70.48L81.39 71.29L81.75 72.19L81.03 73.54H81.39L81.57 73.36L80.67 74.89L80.04 75.79H79.86L79.5 76.51L78.78 77.32H78.42L78.06 77.77C77.79 78.13 77.61 78.49 77.34 78.85C77.07 79.21 76.89 79.66 76.89 80.11L76.44 80.2L76.17 81.37V81.19L74.28 81.01L72.93 82.36ZM48.09 79.93L47.91 78.94H47.55C47.1 78.04 46.74 77.14 46.47 76.24C46.2 75.34 46.11 74.35 46.02 73.36L46.11 72.64H46.83V72.19H47.73C48.72 69.22 49.26 66.34 49.53 63.46C49.8 60.58 49.89 57.52 50.16 54.37V47.26L49.98 46.72H49.71C48.36 49.51 47.01 52.21 45.57 54.82C44.04 57.61 42.42 60.13 40.71 62.65H40.35L39.99 63.46L39.54 63.64L39.27 64.09L38.91 64.63L37.38 66.07L39.27 62.83L39.09 62.11H38.73C38.55 62.47 38.37 62.74 38.1 63.01C37.83 63.28 37.56 63.55 37.2 63.64V64.63H36.66L36.12 65.35L36.57 64.63L37.02 64.27C37.11 63.73 37.38 63.19 37.83 62.74C38.28 62.29 38.46 61.75 38.46 61.21H38.73L39.81 58.51H39.72V58.15C41.07 55.36 42.42 52.48 43.59 49.6C44.85 46.63 45.75 43.57 46.2 40.33L46.11 39.88C46.11 39.25 46.38 38.71 46.83 38.26C47.28 37.81 47.46 37.27 47.19 36.55H46.83L43.14 41.41L42.6 42.04L42.15 42.49C41.7 42.85 41.16 43.21 40.62 43.48C39.99 43.75 39.45 43.93 38.91 44.11C38.82 43.84 38.64 43.66 38.28 43.75C37.92 43.84 37.56 43.84 37.2 43.84L36.21 44.11V43.93H36.57V43.66L38.28 42.13L38.73 41.95C39 41.23 39.36 40.6 39.99 40.06C40.62 39.61 40.89 38.98 40.89 38.26H41.25C41.7 37.09 42.42 36.01 43.14 35.11C43.95 34.12 44.67 33.04 45.12 31.87C43.59 30.61 42.51 28.99 41.79 27.37C40.98 25.66 40.08 24.04 39.09 22.6H39.27V22.06L38.91 21.52L39.54 22.06V22.42H39.99L40.35 22.87C41.16 23.14 41.97 23.5 42.51 23.95C43.14 24.49 43.77 25.12 44.4 25.84L46.29 28.27L47.19 29.08C47.46 28.18 47.82 27.46 48.36 26.74C48.9 26.02 49.17 25.12 49.17 24.13L48.99 23.59C49.62 22.69 49.89 21.7 50.16 20.62C50.43 19.63 50.7 18.55 51.06 17.47L52.32 17.29C53.04 17.83 53.67 18.37 54.48 18.82C55.2 19.36 56.1 19.63 57.09 19.63L57.27 21.16L56.91 22.24L56.1 23.23C56.01 23.95 55.65 24.67 55.11 25.3C54.48 26.02 54.03 26.65 53.67 27.28C53.22 27.55 52.86 27.82 52.68 28.27C52.41 28.81 52.23 29.35 51.96 29.8L50.7 32.23L52.59 33.13L53.22 33.85C53.49 35.11 53.67 36.28 53.76 37.63C53.94 38.89 54.12 40.24 54.21 41.59L53.85 45.28L54.03 45.46L53.85 47.08L54.03 47.62L53.67 53.65L54.03 56.98C53.67 60.58 53.4 64.18 53.13 67.78C52.77 71.38 51.87 74.89 50.34 78.13C49.89 78.4 49.53 78.67 49.17 78.94C48.81 79.21 48.45 79.57 48.09 79.93ZM79.5 69.49L81.21 67.51H81.57V67.15L83.28 66.07L83.46 64.63H83.64V63.91C83.01 62.47 82.2 61.12 81.21 59.68C80.22 58.33 79.14 57.16 77.7 56.08L76.71 54.91H76.26L74.37 57.52L74.73 56.8H74.37L73.92 56.98L73.2 58.69L76.26 60.4L76.71 60.85L77.88 63.28L77.7 64.63L78.06 66.79L77.88 69.76H78.96L79.5 69.49ZM89.67 59.5L90.21 58.87H89.85V58.69H89.49L88.95 59.05L88.59 58.51H88.23V58.33L88.95 57.34H89.67V57.43L89.13 58.33H89.49L91.11 56.8L91.38 56.08L93 54.55H93.27V53.83H92.46L92.1 53.92V53.83L92.82 53.38L93 51.76L93.54 51.49L93.9 51.58V51.94H94.44V51.58H95.07L98.94 52.48V53.02H99.3L99.39 53.83L98.67 55.54C97.32 56.8 95.88 57.61 94.44 58.24C92.91 58.87 91.29 59.32 89.67 59.5ZM63.39 39.52L60.24 38.44L59.43 37.63L57.54 36.55L57.36 35.65H57.09C58.08 35.38 59.16 35.11 60.15 34.84C61.14 34.48 62.04 34.12 62.94 33.85L63.21 32.86H63.57L65.91 33.13L66.54 32.86L68.61 32.95C69.24 32.68 70.05 32.5 70.86 32.41C71.67 32.32 72.39 32.05 72.93 31.51L73.74 27.91H72.93L71.58 28.09C71.31 28 70.95 27.73 70.5 27.55C70.05 27.28 69.69 27.19 69.24 27.28V26.74L67.44 26.56L65.73 24.76L65.19 24.58L64.92 23.86L69.06 23.23L69.87 23.41C70.59 23.14 71.4 23.05 72.21 22.96C72.93 22.87 73.74 22.78 74.37 22.6L74.55 16.66L73.92 14.95H73.74L73.56 13.69L74.55 13.51V12.7L74.1 11.08H74.37C75.45 11.62 76.35 12.25 77.25 12.97C78.15 13.78 78.87 14.68 79.5 15.67C79.41 16.39 79.41 16.93 79.59 17.56C79.77 18.19 79.86 18.82 79.86 19.45H80.04L81.21 19.09V18.82L81.03 18.46H81.75L83.82 18.82L84.36 18.64L88.41 19.27V20.26L88.05 21.7L87.51 21.88C87.33 22.24 87.06 22.42 86.7 22.51C86.34 22.6 85.98 22.6 85.62 22.69C84.45 23.41 83.37 23.95 82.2 24.49C81.03 25.03 79.86 25.57 78.78 26.2L77.52 30.7H78.24C80.22 30.52 82.29 30.25 84.27 29.89C86.34 29.62 88.32 29.17 90.21 28.54L90.39 28.09H90.75C91.02 28.36 91.29 28.54 91.74 28.45C92.19 28.45 92.64 28.45 93 28.54L93.9 28.45L97.95 29.62V30.07L97.59 30.7H97.77V30.88L96.6 31.33L96.42 31.87C92.82 32.14 89.31 32.32 85.8 32.5C82.2 32.77 78.87 33.49 75.63 34.84L75.45 35.11L74.91 35.29L73.74 36.37L73.2 36.1V35.65H72.57V36.01H72.39L71.58 35.65C70.41 35.92 69.24 36.37 68.34 37.09C67.26 37.9 66.18 38.53 65.01 38.89L64.65 39.52H63.39Z" fill="url(#paint0_linear_14_547)"/>
<path d="M35.4023 87.9609V88.0195L35.2969 88.125V88.0664L35.4023 87.9609ZM31.2539 88.1836H31.3594L31.5234 88.3477L31.4766 88.3945H31.418L31.2539 88.1836ZM36.5039 88.2305L36.6094 88.3477L36.4453 88.4531H36.3984V88.3477L36.5039 88.2305ZM36.7734 88.8398L36.8906 88.9453L36.832 89.0039H36.7734L36.668 88.8867L36.7266 88.8398H36.7734ZM37.2656 88.8398C37.4141 88.8945 37.4883 88.9492 37.4883 89.0039V89.1094L37.2656 89.0039L37.2188 89.0508L37.1016 88.8867L37.2656 88.8398ZM35.0742 88.8867L35.1328 88.9453V89.0039L35.0742 89.0508H34.9688V89.0039L35.0742 88.8867ZM36.2344 88.9453H36.2812V89.0508L35.8945 89.6016C36.0117 89.6016 36.0703 89.6406 36.0703 89.7188L36.0117 89.9297C36.082 89.9297 36.1172 89.9844 36.1172 90.0938H36.1758C36.1758 89.9219 36.2852 89.7773 36.5039 89.6602L36.668 89.4961H36.7266L36.9375 89.543C37.0859 89.5117 37.1602 89.4414 37.1602 89.332H37.2656V89.4375C37.4141 89.3672 37.4883 89.2773 37.4883 89.168L37.8164 89.2734C37.8867 89.2734 37.9219 89.2188 37.9219 89.1094H38.0391V89.168L37.9805 89.332H38.0859C38.3281 89.1836 38.5117 89.1094 38.6367 89.1094H38.8008L38.9648 89.2148L39.293 89.168H39.3516L39.293 89.2148C39.0898 89.293 38.9453 89.4219 38.8594 89.6016L38.9648 89.7656C38.6758 89.8906 38.5312 89.9844 38.5312 90.0469V90.0938C38.8203 89.9141 39.0391 89.8242 39.1875 89.8242H39.2344V89.8828L38.1445 90.375L38.25 90.2109L37.9805 90.1523L38.0391 89.9883H37.9805C37.8086 89.8398 37.6445 89.7656 37.4883 89.7656C36.832 89.7656 36.5039 89.9141 36.5039 90.2109L36.9375 90.4219L37.2656 90.2109H37.3242V90.3164L37.2656 90.375V90.4219H37.3242L37.3828 90.375L37.6523 90.4219L37.875 90.375L37.9219 90.4219H37.9805L38.1445 90.375L37.6523 90.8086C38.0898 90.8086 38.3086 91.082 38.3086 91.6289L38.4141 91.8516V91.957L38.1445 92.1211C37.9258 91.957 37.8164 91.8281 37.8164 91.7344H37.5938L37.5469 91.957L37.5938 92.0156L37.5469 92.0625H37.4883L37.3242 91.8516V91.793L37.3828 91.5234L37.2188 91.4062L37.1016 91.8984V91.957C37.1016 92.0352 37.25 92.1094 37.5469 92.1797L37.4883 92.4492V92.5547C37.4883 92.6406 37.5781 92.6953 37.7578 92.7188C38.0625 92.5 38.2812 92.3906 38.4141 92.3906H38.5312L38.6367 92.5078C38.6289 92.5781 38.375 92.7578 37.875 93.0469C37.7031 92.9766 37.6094 92.9062 37.5938 92.8359L37.1602 92.9414V93.1641C37.1602 93.4531 37.3594 93.9453 37.7578 94.6406L37.875 95.1914L37.8164 95.2383C37.9258 95.2383 37.9805 95.3125 37.9805 95.4609H38.0391L38.0859 95.4023H38.1445C38.1445 95.6992 38.1992 95.8477 38.3086 95.8477V96.3398C38.5977 96.9961 38.8516 97.4141 39.0703 97.5938C39.2891 98.2734 39.3984 98.8203 39.3984 99.2344H39.457C39.457 99.1484 39.75 98.6211 40.3359 97.6523C40.4453 97.5039 40.5742 97.1367 40.7227 96.5508C40.9258 96.3711 41.1445 95.8242 41.3789 94.9102C41.4492 94.9102 41.5938 94.6211 41.8125 94.043L41.7539 93.5508C41.8633 93.3633 42.0117 93.2695 42.1992 93.2695L42.5273 92.1211L42.7969 92.0625V92.0156C42.7969 91.9375 42.6328 91.8984 42.3047 91.8984C42.3047 91.6797 42.0859 91.5703 41.6484 91.5703L41.707 91.6289V91.7344C41.543 91.625 41.2852 91.5547 40.9336 91.5234L40.7695 91.5703C40.7695 91.5 40.6992 91.4648 40.5586 91.4648V91.4062L40.7227 91.2422H40.9922L42.2461 91.5234C42.6836 91.5234 42.9023 91.2656 42.9023 90.75H43.0195L42.9023 91.3008C43.1602 91.4414 43.2891 91.5859 43.2891 91.7344H43.3477L43.6172 90.75L43.5117 90.5859V90.5391L43.6172 90.4219H43.7344L43.7812 90.4805H43.8398L44.0039 90.2578L44.8828 91.0781C44.8828 91.3828 45.1172 91.5859 45.5859 91.6875V91.8516C45.5859 91.9062 45.4414 91.9961 45.1523 92.1211L45.0469 92.7773C45.4844 92.8867 45.7031 93.1055 45.7031 93.4336L45.8086 93.7617L45.75 93.9258C46.1875 94.1836 46.4609 94.3125 46.5703 94.3125L47.0156 94.207H47.1211L47.2852 94.3711L47.2383 94.418H46.5234C47.2891 94.9102 47.6719 95.293 47.6719 95.5664L47.6133 95.625H47.5078L46.8516 94.8047L46.3008 94.5352C46.1992 94.5352 46.0352 94.4258 45.8086 94.207L45.75 94.1484H45.7031V94.207L45.8086 94.3711V94.418L45.6445 94.582H45.5859L45.4805 94.4766L45.5391 94.418V94.3711L45.375 94.2539L45.3164 94.3125V94.418L45.4219 94.582V94.6406L45.1523 94.9688L45.2109 95.4609L45.0938 95.6836C45.1562 96.8164 45.3203 97.3828 45.5859 97.3828H45.6445V97.5469C45.4648 97.5469 45.3359 97.7461 45.2578 98.1445V98.3086L45.7031 99.6211C45.7578 99.6211 45.8281 99.7656 45.9141 100.055C46.0625 100.055 46.1562 100.203 46.1953 100.5L46.6875 100.172H46.7461C46.4492 100.539 46.3008 100.793 46.3008 100.934H46.4062L46.6289 100.77H46.7461L46.4062 101.215V101.262L46.4648 101.215H46.5703L46.6289 101.262H46.6875C46.7266 101.152 46.8359 101.098 47.0156 101.098H47.0742L47.1797 101.215C47 101.215 46.8555 101.25 46.7461 101.32L46.957 101.754L47.2852 101.648L47.2383 101.59V101.543L47.3438 101.426L47.4492 101.543V101.648C47.4492 101.758 47.3047 101.812 47.0156 101.812V101.871C47.1172 102.051 47.2812 102.141 47.5078 102.141L47.5664 102.199C47.707 102.27 47.7773 102.414 47.7773 102.633L47.8359 102.691H47.9414C48.168 102.504 48.332 102.41 48.4336 102.41L48.4922 102.469V102.574L48.4336 102.633V102.691L48.2695 102.633L47.8359 102.855L47.6719 102.691H47.6133C47.7305 102.957 48.1133 103.414 48.7617 104.062L48.8789 103.945L48.9844 104.062L48.9258 104.227H48.9844L49.207 104.332H49.2539L49.418 104.227C49.6055 104.227 49.6992 104.336 49.6992 104.555H49.7461C49.832 104.555 49.8867 104.426 49.9102 104.168L50.25 104.109V104.004C50.25 103.934 50.1914 103.898 50.0742 103.898L50.0273 103.84V103.676H50.0742C50.2773 103.676 50.4062 103.75 50.4609 103.898L50.4141 103.945C50.5156 103.945 50.6055 104.02 50.6836 104.168C50.3164 104.363 50.1328 104.582 50.1328 104.824L50.4141 105.047V105.094L50.0273 105.48V105.75C50.1602 105.75 50.3438 105.898 50.5781 106.195H50.5195L50.5781 106.242V106.57H50.6836V106.688C50.5977 106.688 50.5234 106.758 50.4609 106.898V106.957H50.6836L51.0703 107.016V107.121H50.2969V107.18L50.3555 107.238V107.285C50.0586 107.285 49.9102 107.523 49.9102 108H49.8047L49.8633 107.613L49.8047 107.672H49.6406V107.566C49.6406 107.457 49.75 107.402 49.9688 107.402L49.9102 107.344L50.1328 107.016H49.582C49.5117 107.016 49.4766 106.961 49.4766 106.852H49.3125L48.9258 107.238V107.344C49.0352 107.344 49.0898 107.379 49.0898 107.449V107.566L48.7617 107.613V107.566L48.4336 107.285L48.1055 107.449H48C48 107.395 48.0742 107.34 48.2227 107.285L48.2695 107.238V107.121C48.1211 107.121 48.0117 107.031 47.9414 106.852L47.7305 106.793L47.5664 106.852L47.6719 107.18L47.4023 107.285V107.238L47.4492 107.062L47.2383 106.898H47.1211C47.1211 107.008 47.0859 107.062 47.0156 107.062C46.9453 107.062 46.9102 106.973 46.9102 106.793C46.6836 106.793 46.5703 106.664 46.5703 106.406H46.6875L46.8516 106.523V106.465C46.8516 105.879 46.7422 105.531 46.5234 105.422C46.3047 105.422 45.957 104.801 45.4805 103.559C45.3242 103.559 45.2148 103.305 45.1523 102.797C45.0898 102.797 45 102.633 44.8828 102.305H44.7656L44.6016 102.363V102.305L44.5547 102.141L44.6602 102.035L44.332 101.977C44.3477 101.898 44.4375 101.824 44.6016 101.754L44.5547 101.707V101.543L44.6016 101.379H44.5547L44.4961 101.32H44.4375L44.4961 101.262V101.098H44.332C44.332 101.199 44.2031 101.309 43.9453 101.426L43.7812 101.379V101.426L43.7344 101.59L43.7812 101.648L43.3477 102.141L43.4062 102.41L43.3477 102.469H43.2891L43.2422 102.246L42.9609 102.305H42.9023V102.246C43.0117 102.152 43.0664 102.062 43.0664 101.977L43.2422 102.082L43.6172 101.484H43.5703L43.2422 101.426C43.2422 101.535 43.168 101.59 43.0195 101.59L43.125 101.812L42.9609 101.918H42.9023L42.4688 101.648C42.5078 101.492 42.5977 101.363 42.7383 101.262V101.156L42.7969 101.098L42.7383 101.051L42.4688 100.887H42.4102L42.3633 100.934V100.992L42.4688 101.098C42.4141 101.246 42.3594 101.32 42.3047 101.32H42.2461C42.1523 101.32 42.0977 101.23 42.082 101.051H42.0352V101.215L42.082 101.379L41.8711 101.707L41.918 101.977C41.8242 101.977 41.7148 102.195 41.5898 102.633C41.8242 102.914 42.1523 103.133 42.5742 103.289L42.6914 103.512C42.6289 103.77 42.5547 103.898 42.4688 103.898C42.3203 103.898 42.2461 103.715 42.2461 103.348C41.7773 103.207 41.543 103.004 41.543 102.738C41.3867 102.738 41.293 102.613 41.2617 102.363L41.4844 102.246C41.4844 102.191 41.4102 102.137 41.2617 102.082L41.0508 102.141H40.9922V102.082L41.0977 101.977H41.2148L41.543 102.082V102.035L41.4844 101.754L41.8711 101.426V101.32L41.8125 101.262V101.215C41.6328 101.23 41.543 101.285 41.543 101.379H41.4258L41.3789 101.098H41.2617L41.2148 101.156H41.1562L41.2148 101.215V101.262L41.1562 101.484H41.0508L40.9922 101.215L40.7695 101.262V101.32L40.8867 101.543C40.8867 101.652 40.832 101.707 40.7227 101.707V101.754H41.0977V101.871H40.7695L40.7227 102.141L40.8281 102.691L40.6641 102.574L40.6055 102.633V102.469C40.4961 102.57 40.3711 102.918 40.2305 103.512C40.168 103.512 40.0391 103.676 39.8438 104.004V104.062H39.9023C40.0742 104.031 40.5273 103.793 41.2617 103.348H41.4258V103.453C41.4258 103.555 41.1719 103.664 40.6641 103.781C40.6641 103.867 40.3555 104.031 39.7383 104.273C39.7383 104.406 39.6836 104.555 39.5742 104.719L39.7383 104.766V104.93H39.6797L39.5156 104.824C39.2969 105.043 39.1133 105.371 38.9648 105.809L38.7422 105.973H38.6953C38.6328 105.973 38.5039 105.809 38.3086 105.48L38.3672 105.211L37.9219 105.094C37.875 105.273 37.6406 105.477 37.2188 105.703H37.1016V105.645C37.1016 105.566 37.3398 105.402 37.8164 105.152C37.832 105.004 37.8867 104.93 37.9805 104.93L37.3828 103.453C37.3828 102.859 37.3438 102.387 37.2656 102.035L37.3242 101.871L37.2656 101.812L37.3828 101.215L36.9961 98.6953C36.8633 98.6953 36.6992 98.0938 36.5039 96.8906C36.4023 96.7344 36.293 96.3477 36.1758 95.7305H36.1172C36.1172 96.5273 36.0273 97.1484 35.8477 97.5938L35.8945 98.25V98.7422L35.3555 100.992L35.2969 101.051H35.3555L35.7305 100.77H36.0703L36.3398 100.828V100.934L36.0703 100.992L35.9531 100.887L35.0273 101.215L35.1328 101.379L34.8633 101.426V101.484L35.0742 101.543L35.0273 101.59V101.648L34.9102 104.391V104.555L35.2969 104.332H35.4023C34.9336 104.652 34.6992 104.945 34.6992 105.211C34.6055 105.5 34.5312 105.645 34.4766 105.645L34.418 105.586V105.48L34.4766 105.422V105.375C34.4062 105.375 34.3711 105.281 34.3711 105.094C34.3008 105.102 34.1523 105.25 33.9258 105.539C33.9883 105.539 34.082 105.738 34.207 106.137L34.2539 106.078H34.3125L34.4766 106.195L34.6992 105.973H34.7461L35.0273 106.195L34.9688 106.242L34.7461 106.195L34.3125 106.301L34.2539 106.242V106.301L34.3125 106.465L34.2539 106.523H34.207L33.9844 106.301L34.043 106.242C33.9648 106.242 33.9258 106.172 33.9258 106.031L33.8789 105.973H33.7148C33.7148 106.074 33.6055 106.219 33.3867 106.406L33.5977 106.688L33.4922 106.852L33 106.793V106.852L33.5977 107.508H33.4922C32.8359 106.898 32.3984 106.57 32.1797 106.523L31.9688 106.629L31.8516 106.406H31.582L31.1484 106.898H31.0898L30.9844 106.793V106.734L30.9258 106.793H30.6445V106.688C31.0117 106.656 31.1953 106.602 31.1953 106.523L31.1484 106.465L31.6406 106.078L31.582 106.031V105.914C31.6992 105.789 31.8086 105.59 31.9102 105.316L31.6875 105.152V105.047C31.875 105.047 31.9688 104.938 31.9688 104.719L32.2969 104.273V103.676L32.5664 103.02L32.5078 102.691C32.75 101.668 32.9688 101.156 33.1641 101.156L33.3867 100.559L33.3281 100.172C33.3281 99.5781 33.457 98.8477 33.7148 97.9805C33.7852 97.9805 33.8203 97.7266 33.8203 97.2188C33.9453 97.2188 34.0352 96.6328 34.0898 95.4609C34.2773 95.2344 34.3711 94.9961 34.3711 94.7461V94.5352L34.2539 94.0898V93.5508L34.3125 93.2695H34.2539L33.9844 93.5508L33.8203 93.4336L33.3867 93.5508C33.3867 93.4414 33.6055 93.3867 34.043 93.3867L34.3711 92.7773L34.3125 92.5547C34.5312 92.3047 34.6406 92.0508 34.6406 91.793H34.582C34.5273 91.793 34.4727 91.8672 34.418 92.0156L34.3711 92.0625H34.3125L34.2539 92.0156H34.207L34.1484 92.2266L34.0898 92.1797H33.8789L33.9258 92.2266V92.2852L33.7617 92.4492C33.6914 92.207 33.5664 92.0078 33.3867 91.8516V91.793L33.4922 91.6875C33.6172 91.6875 33.8008 91.7578 34.043 91.8984C34.3711 91.75 34.5352 91.5703 34.5352 91.3594H34.8047L34.6406 91.1953L34.4766 91.3008C34.2188 91.2148 34.0898 91.1406 34.0898 91.0781L34.1484 90.8086L33.9844 90.6445C34.1484 90.5742 34.2383 90.5 34.2539 90.4219L34.0898 89.9883L33.7617 89.7656C33.7617 90.2031 33.707 90.4219 33.5977 90.4219H33.4922C33.4219 90.4219 33.3867 90.3672 33.3867 90.2578L33.3281 90.3164H33.2227V90.2578C33.3711 90.0781 33.5156 89.9883 33.6562 89.9883L33.5977 89.9297V89.8828L33.7148 89.7188L32.5078 89.2148L31.4766 89.543V89.3789C31.4766 89.2617 31.7656 89.1719 32.3438 89.1094L32.8945 89.2148L33.0586 89.0508H33.1055V89.168H33C33 89.2461 33.2734 89.3711 33.8203 89.543V89.6016L33.7617 89.6602L33.9258 89.7656H34.1484L34.0898 89.4961L34.3125 89.332H34.3711L34.5352 89.4961L34.3125 89.7656H34.418C35.1211 89.7656 35.5039 89.5664 35.5664 89.168H35.6836V89.543L36.2344 88.9453ZM39.7383 89.0039H39.9023L40.0078 89.1094L39.9023 89.2148H39.8438L39.6211 89.1094L39.7383 89.0039ZM40.4414 89.2148C40.3711 89.3633 40.2617 89.4375 40.1133 89.4375V89.3789C40.1523 89.2695 40.2617 89.2148 40.4414 89.2148ZM37.8164 89.332L37.7578 89.3789V89.4375L37.9805 89.4961L38.0391 89.4375V89.3789L37.8164 89.332ZM39.7383 89.543H39.7852L39.9492 89.6016V89.7188H39.9023L39.7383 89.543ZM43.8398 89.7188V89.8242L43.7812 89.8828L43.8398 89.9297V90.0469L43.6758 90.2109C43.4805 90.2109 43.3516 90.1367 43.2891 89.9883C43.5391 89.8086 43.7227 89.7188 43.8398 89.7188ZM34.7461 89.8828L35.0273 90.0938H35.0742L35.1328 89.8828H34.7461ZM34.3125 89.9883C34.3125 90.043 34.3867 90.0977 34.5352 90.1523V89.9883H34.3125ZM32.7305 89.9883H33.0586L33.2227 90.1523V90.2109L32.9414 90.0469C32.9414 90.125 32.7969 90.1953 32.5078 90.2578V90.2109L32.7305 89.9883ZM41.4258 90.3164L41.4844 90.375V90.4219L41.3789 90.5391L41.3203 90.4805V90.4219L41.4258 90.3164ZM35.0273 90.5391V90.6445L35.1328 90.5391V90.4219L35.0273 90.5391ZM38.3672 90.375H38.5312L38.8008 90.7031L38.6367 90.8086H38.4727L38.2031 90.5391L38.3672 90.375ZM37.4883 90.6445H37.5938L37.7109 90.5391H37.5938L37.4883 90.6445ZM33.4336 90.9141H33.7148C33.7852 90.9141 33.8555 91.0234 33.9258 91.2422L33.8789 91.5234H33.4336L33.3281 91.4062L33.3867 91.1367H33.2695V91.0781L33.4336 90.9141ZM38.8594 91.1953H39.0703V91.3008H38.8594V91.1953ZM32.2969 91.3008L32.4023 91.4062L32.3438 91.4648H32.2969L32.1797 91.3594L32.2383 91.3008H32.2969ZM32.9414 91.6875L33 91.7344V91.793L32.8945 91.8984L32.8359 91.8516V91.793L32.9414 91.6875ZM39.2344 91.793H39.3984L39.5156 91.8984V91.957L39.3984 92.0625H39.3516L39.2344 91.957V91.793ZM31.7461 91.8984L32.0742 91.957V92.0625L31.3594 92.2852V92.2266C31.4531 92.0703 31.582 91.9609 31.7461 91.8984ZM41.2617 92.0625L41.3203 92.1211V92.1797L41.1562 92.2852L41.0977 92.2266V92.1797L41.2617 92.0625ZM37.1016 92.5547L37.2656 92.7188H37.3242V92.5547H37.1016ZM33.2227 92.6719H33.4922L33.5977 92.7773V92.8359L33.4336 93H33.2695L33.1055 92.8359V92.7773L33.2227 92.6719ZM41.9766 93.0469H42.082V93.1055L41.8711 93.3281H41.7539V93.2695L41.9766 93.0469ZM41.3789 93.3281L41.4844 93.4336V93.4922H41.3789L41.2617 93.3867L41.3203 93.3281H41.3789ZM33.3281 93.5508H33.3867L33.1055 93.9258L33 93.8203L33.3281 93.5508ZM38.25 93.6562L38.3672 93.8203L38.3086 93.8789H38.25L38.1445 93.7617L38.25 93.6562ZM41.1562 93.6562H41.4258L41.5898 93.8203V93.8789L41.4844 93.9844L41.0977 93.9258C41.043 94.0742 40.918 94.1484 40.7227 94.1484V94.0898L41.1562 93.6562ZM40.6641 94.1484H40.7227L40.6055 94.2539H40.5586L40.6641 94.1484ZM40.4414 94.3125H40.5V94.3711L40.2305 94.582H40.1719L40.4414 94.3125ZM47.8359 94.3125L47.9414 94.418L47.8945 94.4766H47.8359L47.7305 94.3711L47.7773 94.3125H47.8359ZM40.0664 94.6406C40.2852 94.6406 40.3945 94.7695 40.3945 95.0273C40.3164 95.0273 40.2617 95.1367 40.2305 95.3555L40.3359 95.5664H40.1719V95.4023H40.1133C39.957 95.6211 39.7188 95.7305 39.3984 95.7305C39.2188 95.6992 39.1289 95.6289 39.1289 95.5195H38.8008C38.7305 95.5195 38.6953 95.5742 38.6953 95.6836H38.6367L38.5312 95.5664C38.6016 95.457 38.8008 95.4023 39.1289 95.4023L39.0703 95.3555V95.2969L39.3516 95.0742L39.293 95.0273C39.4883 94.8008 39.7461 94.6719 40.0664 94.6406ZM36.0117 95.2383L36.0703 95.4609H36.1172V95.2383H36.0117ZM40.3945 95.5195H40.4414C40.5898 95.5742 40.6641 95.6289 40.6641 95.6836V95.7891L40.5586 95.8945L40.5 95.8477L40.5586 95.7891V95.7305C40.5586 95.6602 40.5039 95.625 40.3945 95.625V95.5195ZM47.9414 95.7891L48 95.8477V95.8945L47.9414 95.9531H47.8945L47.8359 95.8945V95.8477L47.8945 95.7891H47.9414ZM47.5664 95.9531H47.6719C48 96.2656 48.1641 96.5039 48.1641 96.668H48.1055L47.5664 95.9531ZM45.8672 96.2227H45.9141V96.2812C45.8594 96.4297 45.8047 96.5039 45.75 96.5039H45.5859V96.4453L45.8672 96.2227ZM47.6719 96.5508C47.7656 96.5508 47.8555 96.8281 47.9414 97.3828L47.8945 97.4297H47.8359C47.7656 97.3828 47.7109 97.0898 47.6719 96.5508ZM45.9141 98.0391H46.0781V98.0859C46.0781 98.1484 45.9531 98.2422 45.7031 98.3672H45.6445L45.9141 98.0391ZM36.2812 98.4727L36.3398 98.5312V98.5781L36.1758 98.6953L36.1172 98.6367V98.5781L36.2812 98.4727ZM42.7969 98.7422L42.6914 98.8594L42.7383 98.9062V99.0234L42.6914 98.9648H42.6328L42.4688 99.2344V99.293L42.5273 99.3516V99.3984L42.4688 99.457H42.4102L42.3047 99.3516L42.2461 99.3984V99.5625L42.3633 99.7266L42.3047 99.7852H42.2461L42.082 99.6211H42.0352L41.8125 100.008V100.055L41.8711 100.008H41.9766L42.1406 100.113C42.1406 100.004 42.2148 99.9492 42.3633 99.9492L42.6328 99.5625H42.7969L42.7383 99.293C42.957 99.2383 43.0664 99.0938 43.0664 98.8594L42.7969 98.7422ZM46.7461 99.293L46.793 99.3516V99.3984L46.7461 99.457H46.6289V99.3984L46.7461 99.293ZM48.3867 99.457H48.4922L48.5977 99.5625L48.3281 99.8438H48.1641L48.0586 99.7266V99.6211C48.0898 99.5117 48.1992 99.457 48.3867 99.457ZM42.2461 100.055L42.3047 100.113V100.172L42.2461 100.336L42.5742 100.441L42.6328 100.395V100.336L42.9023 100.559C43.0508 100.52 43.125 100.445 43.125 100.336L43.0664 100.277V100.23L43.125 100.055C43.0156 100.055 42.9609 99.8906 42.9609 99.5625C42.7031 99.6172 42.5742 99.7461 42.5742 99.9492L42.2461 100.055ZM32.8945 99.6211L33 99.7266L32.8359 99.8906L32.7305 99.7852L32.8945 99.6211ZM36.3984 99.8438L36.5039 99.9492L36.2344 100.23H36.1758V100.055L36.3984 99.8438ZM47.4023 100.605H47.6133V100.723H47.5078L47.4023 100.605ZM48.3867 100.77L48.4336 100.828V100.887L48.0586 101.215V101.262C48.168 101.262 48.2227 101.301 48.2227 101.379L48.1641 101.426H48C47.4922 101.348 47.2383 101.277 47.2383 101.215H47.7305C47.8945 101.215 48.1133 101.066 48.3867 100.77ZM42.7383 101.426V101.543H42.8555L43.125 101.484V101.426L42.9023 101.379L42.7383 101.426ZM42.2461 101.543L42.3047 101.59V101.648L42.2461 101.707H42.1992L42.1406 101.648V101.59L42.1992 101.543H42.2461ZM44.2266 102.035H44.4375C44.4375 102.113 44.3477 102.168 44.168 102.199L44.2266 102.035ZM51.1758 102.141L51.2344 102.199V102.246L51.0703 102.41L50.9531 102.305L51.1758 102.141ZM41.9766 102.246L42.3047 102.469L42.082 102.633H42.0352L41.918 102.527L42.0352 102.41L41.9766 102.363V102.246ZM42.5273 102.305H42.6328V102.363L42.5273 102.469H42.4102V102.41L42.5273 102.305ZM49.8633 102.574L49.9688 102.691V102.738H49.8633L49.7461 102.633L49.8047 102.574H49.8633ZM50.5781 102.902H50.6836L50.7891 103.02L50.7422 103.066H50.6836L50.5781 102.961V102.902ZM43.9453 102.961H44.0625L44.332 103.23V103.395L44.2266 103.559L44.2734 103.617H44.2266C43.7891 103.547 43.5703 103.383 43.5703 103.125C43.7031 103.016 43.8281 102.961 43.9453 102.961ZM49.5352 103.23V103.348C49.3945 103.348 49.2461 103.457 49.0898 103.676H48.9844C49.1328 103.379 49.3164 103.23 49.5352 103.23ZM50.3555 103.395L50.4141 103.453V103.512L50.3555 103.559H50.25V103.512L50.3555 103.395ZM51.1172 103.512H51.1758L51.6094 103.734C51.5625 103.914 51.5078 104.004 51.4453 104.004H51.3398C51.3398 103.895 51.2656 103.84 51.1172 103.84L51.0117 103.734V103.617L51.1172 103.512ZM42.7969 103.617L43.125 103.84L42.8555 103.945V103.898L42.7969 103.617ZM44.332 103.676H44.4375L44.6016 103.734V103.84H44.4961L44.332 103.676ZM44.7188 103.734H44.8828L45.0469 103.898L44.9297 104.004C44.7891 103.949 44.7188 103.895 44.7188 103.84V103.734ZM40.9336 103.84L40.9922 103.898V103.945L40.9336 104.004H40.8867L40.8281 103.945V103.898L40.8867 103.84H40.9336ZM41.707 103.84C41.8711 103.91 41.9609 103.984 41.9766 104.062V104.109L41.8711 104.227H41.707C41.6289 104.211 41.5547 104.117 41.4844 103.945L41.707 103.84ZM36.0703 104.004L36.1758 104.109V104.168H35.7305C35.7695 104.059 35.8828 104.004 36.0703 104.004ZM32.8945 106.078L32.5078 106.031L32.4609 106.078V106.137L32.5664 106.242V106.301C32.5664 106.371 32.5117 106.406 32.4023 106.406C32.4023 106.492 32.4922 106.547 32.6719 106.57L32.7305 106.523H32.7773L32.8359 106.57H32.8945C33.0586 106.516 33.2031 106.391 33.3281 106.195L33.2227 105.973L32.8945 106.078ZM48.9844 106.523C49.0391 106.664 49.0938 106.734 49.1484 106.734L49.418 106.629C49.6367 106.699 49.7461 106.789 49.7461 106.898H50.1328C50.2266 106.898 50.3008 106.734 50.3555 106.406C49.9883 106.336 49.8047 106.266 49.8047 106.195L49.7461 106.242H49.6406C49.5703 106.242 49.5352 106.172 49.5352 106.031H49.207C49.1367 106.031 49.0625 106.195 48.9844 106.523ZM51.6094 107.285H51.668C51.8867 107.309 51.9961 107.363 51.9961 107.449L51.8906 107.566L51.6094 107.285ZM31.2539 107.402H31.418V107.508L31.1953 107.613L31.1484 107.566V107.508L31.2539 107.402ZM50.4609 107.402L50.5781 107.508V107.566L50.4609 107.449V107.402ZM47.8359 107.508H47.8945L47.7773 107.672L47.8359 107.73L47.7773 107.777H47.7305L47.6719 107.73V107.672L47.8359 107.508ZM49.582 108.645V108.703L49.4766 108.82H49.418V108.703L49.582 108.645ZM56.5664 92.543L56.6133 92.5898V92.8594H56.5078L56.4609 92.5898L56.5078 92.543H56.5664ZM55.1016 92.5898L55.3125 92.8594H55.2656L54.9961 92.6484L55.0547 92.5898H55.1016ZM58.5469 92.6953V92.7539L58.3359 93.0117H58.125V92.9648C58.2188 92.7852 58.3594 92.6953 58.5469 92.6953ZM56.1445 92.7539H56.25L56.4609 93.3281L56.6719 93.2695L56.8242 93.3281V93.2695L57.1406 92.9062V92.9648C57.0859 93.0977 57.0312 93.1641 56.9766 93.1641L57.1875 93.5391C57.1328 93.7109 57.0312 93.7969 56.8828 93.7969L56.8242 93.7383V93.8438L57.082 93.9492L57.293 93.7969V93.9023L57.2461 93.9492V94.0078C57.4102 94.0078 57.5312 94.0391 57.6094 94.1016C57.6094 94.0156 57.6953 93.8945 57.8672 93.7383H58.0781V93.7969L57.7148 94.1602H57.9727L58.125 94.0547H58.2891L58.1836 94.2656L58.125 94.207H58.0312V94.2656H58.125V94.3125L58.0781 94.3711V94.418C58.1484 94.418 58.1836 94.4727 58.1836 94.582L58.9688 94.418H59.0156C58.8203 94.6289 58.6484 94.7344 58.5 94.7344C58.5 94.8516 58.8633 95.0586 59.5898 95.3555L59.6484 95.4141V95.5195H59.5898C59.2695 95.3398 58.957 95.2148 58.6523 95.1445H58.5L58.6523 95.3555V95.4141L58.5938 95.3555H58.3359V95.4609C58.5703 95.4609 58.7812 95.6172 58.9688 95.9297H59.0156V96.0352L58.6992 96.1406L58.5469 96.0352L58.5 96.0938H58.1836V96.1406L58.2891 96.293V96.3516H58.2305L58.0781 96.293V96.3984C58.0781 96.5312 58.1641 96.6875 58.3359 96.8672L58.2891 96.9258H58.2305L58.0312 96.7148C57.9219 96.7148 57.8516 96.8359 57.8203 97.0781H57.9727V97.1367L57.8672 97.2305H57.8203L57.6562 97.1367L57.5039 97.1836L57.3984 97.0781C57.3984 97.25 57.3281 97.3359 57.1875 97.3359C57.1875 97.4062 57.3281 97.5117 57.6094 97.6523V97.6992C57.4688 97.9102 57.3984 98.0664 57.3984 98.168L57.457 98.4375L57.3984 98.4844H57.3516L57.293 98.332H57.2461L57.1875 98.6953V98.7422C57.2969 98.7422 57.3516 98.7773 57.3516 98.8477V98.9062L57.2461 99.0117C57.2461 98.918 57.0547 98.7617 56.6719 98.543H56.6133L56.4141 98.6953L56.3086 98.5898H56.1445L55.9336 98.6484L55.8867 98.5898H55.8398C55.7539 98.5898 55.5781 98.6953 55.3125 98.9062L55.1602 98.8477V98.9062C55.1602 98.9766 55.0195 99.0117 54.7383 99.0117C54.707 99.0977 54.4648 99.2188 54.0117 99.375C54.0117 99.4531 53.8711 99.5234 53.5898 99.5859C53.5898 99.7031 53.3125 99.9609 52.7578 100.359C52.6172 100.57 52.4766 100.676 52.3359 100.676L52.5469 101.145V101.355C52.4453 101.48 52.3945 101.602 52.3945 101.719V102.035C52.7383 103.16 53.1562 103.836 53.6484 104.062C54.5703 105 55.543 105.469 56.5664 105.469L56.8828 105.422L57.293 105.527C57.5117 105.527 57.9141 105.18 58.5 104.484C58.5938 104.484 58.6797 104.344 58.7578 104.062C59.0078 104.062 59.3906 103.699 59.9062 102.973L59.8477 102.293C59.8477 102.16 59.9023 102.02 60.0117 101.871V101.613L60.1641 99.8438L60.1172 99.5273L60.1641 99.4805V99.4219L60.1172 99.2695L60.1641 99.2109L60.0586 99.1172V98.9062L60.1172 98.8477C60.0547 98.6914 59.9492 98.5703 59.8008 98.4844L59.6484 98.543L59.543 98.3789L59.5898 98.332L59.4844 98.2266L59.543 98.168V98.1211C60.0742 98.3242 60.3672 98.5312 60.4219 98.7422V98.8008L60.375 98.8477C60.4531 99.0898 60.5234 99.2109 60.5859 99.2109L60.6328 99.0586L60.5273 98.8477L60.6328 98.6484L60.5859 98.3789L60.6328 98.2266L60.0586 97.6992L60.0117 97.7578V97.6992L60.0586 97.5469L59.9062 97.3945H59.9531L60.2109 97.5469C60.3125 97.4219 60.5742 97.2852 60.9961 97.1367V97.2891C60.543 97.4062 60.3164 97.5273 60.3164 97.6523L61.0547 98.332C61.3203 98.332 61.5117 98.6094 61.6289 99.1641V99.4805L61.8398 99.7852L61.7344 100.102L61.8867 101.461C61.8242 101.531 61.7734 101.789 61.7344 102.234C61.6484 102.234 61.5781 102.461 61.5234 102.914C61.2109 103.016 61.0547 103.172 61.0547 103.383C61.0547 103.734 60.9336 103.91 60.6914 103.91C60.582 104.16 60.2344 104.488 59.6484 104.895C59.1797 105.77 58.707 106.207 58.2305 106.207C58.0742 106.48 57.6406 106.617 56.9297 106.617L56.1445 106.828C55.5898 106.828 54.5977 106.48 53.168 105.785L52.2891 105.316C52.1328 105.113 51.7656 104.836 51.1875 104.484C50.3594 103.609 49.9453 103.051 49.9453 102.809V102.762L49.8867 101.719L49.9922 101.613V101.402L49.8867 100.828V100.723C50.0977 100.457 50.2031 100.285 50.2031 100.207C50.0312 100.207 49.9453 100.172 49.9453 100.102V99.9492L50.5078 98.6953C50.6719 97.9766 50.7969 97.6133 50.8828 97.6055C51.1562 97.2539 51.4336 97.0781 51.7148 97.0781C52.0508 96.7891 52.3281 96.3359 52.5469 95.7188L53.0156 95.4609L53.7422 94.9453L54.5273 94.6289C54.8789 94.4805 55.0547 94.375 55.0547 94.3125V94.207L54.7383 93.7969H54.7852C55.0039 94 55.1641 94.1016 55.2656 94.1016L55.418 93.9023L55.3594 93.8438L55.418 93.7969L55.3125 93.6914V93.6328H55.3594C55.4297 93.6328 55.4648 93.6875 55.4648 93.7969H55.6289L55.8867 93.5859L55.7812 93.4336V93.375L56.1445 93.4336C56.1445 93.3242 56.1992 93.2695 56.3086 93.2695L56.1445 92.8008V92.7539ZM57.5039 92.8008H57.5508V92.9062L57.457 93.0117H57.3516V92.9648L57.5039 92.8008ZM57.9727 93.1641H58.0312V93.2227C58.0312 93.2773 57.9609 93.3281 57.8203 93.375V93.3281L57.9727 93.1641ZM54.8906 93.2695H54.9492L55.0547 93.375L54.9961 93.4336H54.9492L54.8906 93.375V93.2695ZM54.5273 93.6328H54.5859L54.6914 93.7383H54.6328L54.5273 93.6328ZM59.1211 93.7969L59.168 93.8438V93.9023L58.9102 94.1016L58.7578 94.0547V94.0078C58.7578 93.9453 58.8789 93.875 59.1211 93.7969ZM58.3945 96.3516H58.4414C58.8945 96.5156 59.1211 96.6719 59.1211 96.8203C59.1992 96.8203 59.4258 96.9922 59.8008 97.3359H59.6953C59.125 97.0391 58.7773 96.7812 58.6523 96.5625C58.4805 96.5625 58.3945 96.5078 58.3945 96.3984V96.3516ZM60.0117 96.8203L60.1172 96.9258L59.9531 97.0312L59.8477 96.9258L60.0117 96.8203ZM62.0391 97.2305L62.0977 97.2891V97.3359C62.0977 97.4062 61.9062 97.4609 61.5234 97.5V97.4414C61.5234 97.3398 61.6953 97.2695 62.0391 97.2305ZM62.1445 97.5H62.2031L62.3086 97.6055H62.1445V97.5ZM58.4414 97.6055H58.5938V97.6523L58.5 97.7578L58.4414 97.6992V97.6055ZM59.0742 97.8633H59.1211L59.2734 98.0156V98.0742H59.168L59.0742 97.9688V97.8633ZM62.8828 97.8633L62.9297 97.9102V97.9688L62.7773 98.0742L62.7188 98.0156V97.9688L62.8828 97.8633ZM61.9922 98.2734H62.0977V98.332L61.9922 98.4375H61.8867V98.3789L61.9922 98.2734ZM58.7578 98.9062H58.8047L58.9102 99.0117L58.8633 99.0586H58.7578V98.9062ZM59.2734 99.5273H59.3789V99.5859L59.2734 99.6797V99.5273ZM57.5508 99.8906L57.6094 99.9492V99.9961L57.5508 100.055H57.5039L57.457 99.9961V99.9492L57.5039 99.8906H57.5508ZM57.082 100.254L57.1406 100.312V100.359L57.0352 100.465H56.9766L56.8828 100.359L57.082 100.254ZM56.3555 101.098H56.4141V101.145L56.3086 101.25H56.2031L56.3555 101.098ZM55.8398 101.508H55.8867V101.613H55.9336C55.9336 101.676 55.8125 101.797 55.5703 101.977H55.4648V101.93L55.8398 101.508ZM55.1602 102.293H55.3125V102.34C55.2422 102.48 55.1367 102.551 54.9961 102.551L54.9492 102.504V102.445L55.1602 102.293ZM54.6914 102.914V103.078L54.5859 103.184H54.5273V103.078L54.6914 102.914ZM54.2227 103.441L54.3164 103.547L54.1641 103.652L54.1172 103.594V103.547L54.2227 103.441ZM60.3164 105.059L60.375 105.105V105.164L59.9531 105.469L59.9062 105.422V105.363C60.0469 105.16 60.1836 105.059 60.3164 105.059ZM60.5039 89.8242C60.6211 89.9414 60.8086 90.0547 61.0664 90.1641L61.8633 90.1172H61.9102L62.0859 90.082C62.2109 90.1367 62.2812 90.1914 62.2969 90.2461V90.3398H62.0391L61.7461 90.2461L61.5234 90.293L61.3125 90.2461C61.2422 90.3086 61.1016 90.3398 60.8906 90.3398L60.8438 90.375V90.457L61.0664 90.5508C61.0195 90.6758 60.9336 90.7734 60.8086 90.8438H60.6797L60.5039 90.7148L60.5977 90.457L60.5508 90.5039H60.3867L60.0469 90.2461L59.707 90.4219V90.375C59.707 90.3203 59.7461 90.293 59.8242 90.293L60.082 90.1172C60.082 89.9219 60.2227 89.8242 60.5039 89.8242ZM68.8711 90L69.6445 90.1641V90.1172L69.6797 90.1641H69.7617V90.082H69.8555V90.1641L70.0195 90.1172L70.2773 90.293C70.4492 90.1758 70.5898 90.1172 70.6992 90.1172C70.6211 90.2656 70.5352 90.3398 70.4414 90.3398L70.5352 90.457V90.5508L70.4883 90.5859V90.6328L70.6172 90.7617V90.7969C70.6172 90.8438 70.5586 90.8867 70.4414 90.9258L70.1953 90.6797H70.1016L69.9375 90.9258C69.9375 91.0977 70.0508 91.1836 70.2773 91.1836L70.3242 91.1367H70.3594L70.6641 91.1836L70.793 91.1367L70.8281 91.1836V91.2305L70.793 91.2656V91.3125L70.8281 91.3594H70.875L71.2969 91.2305V91.3125L70.5352 91.5234C70.5039 91.4375 70.418 91.3945 70.2773 91.3945H70.2305V91.4414C70.2305 91.5977 70.457 91.7812 70.9102 91.9922L71.0039 92.0742L71.2148 92.0391C71.2148 92.1016 71.2852 92.1406 71.4258 92.1562L71.5547 92.0391L71.6367 92.1211L71.8125 91.9922V91.8633L71.5898 91.8164L71.5547 91.8633L71.3789 91.6055H71.25C71.25 91.7227 71.2109 91.7812 71.1328 91.7812H71.0859L71.0039 91.6992C71.0039 91.6367 71.1289 91.5781 71.3789 91.5234H71.4727L71.7188 91.6523L71.7656 91.6055C71.7344 91.3789 71.6914 91.2656 71.6367 91.2656H71.5898L71.3789 91.3125L71.3438 91.2656V91.2305L71.5547 91.1367V91.1016L71.2148 90.9258H71.0391L70.9102 91.0195H70.8281C70.7734 91.0195 70.7461 90.9766 70.7461 90.8906C70.8008 90.7188 70.8711 90.6328 70.957 90.6328C71.0742 90.6641 71.1328 90.7188 71.1328 90.7969H71.2148L71.3789 90.5859L71.168 90.3398L71.2148 90.293H71.25L71.4727 90.5508H71.5078V90.4219H71.5547L71.7188 90.5508H71.7656L72.0586 90.2461H72.1055L71.8945 90.5859V90.6328H71.9766V90.6797L72.0234 90.6328H72.1523L72.0586 90.7617C72.1211 90.7617 72.1523 90.8047 72.1523 90.8906H72.2344L72.7031 90.6328L73.2891 90.4219C73.2891 90.4766 73.418 90.5312 73.6758 90.5859V90.6797H73.4648L73.3359 90.5859C73.2578 90.6641 72.9609 90.7656 72.4453 90.8906L72.4922 91.1016H72.3633L72.6094 91.5234L72.7383 91.6523V91.7812L72.5742 91.9102C72.5742 92.1445 72.4609 92.5664 72.2344 93.1758C72.1172 93.4414 71.9883 93.8828 71.8477 94.5V95.7773C71.8477 95.9727 71.793 96.2266 71.6836 96.5391L71.8125 96.75V97.1367L71.5898 97.3828V97.6875C71.5898 97.7891 71.5352 97.9297 71.4258 98.1094V98.1914C71.5117 98.1914 71.5547 98.2344 71.5547 98.3203C71.5547 98.7188 71.4844 99.1445 71.3438 99.5977L71.3789 100.535L71.2969 101.344L71.4727 103.207L71.25 104.309L71.2969 104.824L71.0859 105.715L71.0391 105.926L71.0039 105.973H70.957L70.9102 105.926V105.68H70.8281C70.8281 105.594 70.7578 105.551 70.6172 105.551L70.5703 105.375H70.4414L70.4883 105.551L70.4414 106.312H70.3594V105.926L70.3242 105.762L70.3594 105.715V105.68C70.3438 105.391 70.3164 105.246 70.2773 105.246C70.1602 105.246 70.0312 105.105 69.8906 104.824C69.7422 104.621 69.6016 104.281 69.4688 103.805L68.7891 102.785C68.7891 102.605 68.5625 102.336 68.1094 101.977L67.7695 101.379C67.6523 101.332 67.5391 101.121 67.4297 100.746L67.4766 100.535C67.3906 100.535 67.3477 100.422 67.3477 100.195C67.293 100.195 67.2344 100.082 67.1719 99.8555C67 99.8008 66.7617 99.5156 66.457 99C66.3086 98.9141 66.1953 98.8008 66.1172 98.6602C65.8594 98.4727 65.7305 98.3047 65.7305 98.1562L65.1797 97.4766C65.1797 97.3359 65.0391 97.0938 64.7578 96.75V96.7031H64.7109V96.75L64.7578 96.9609L64.7109 97.7695V98.2852L64.793 98.4023V98.4492L64.7578 99.082C64.8672 99.3477 64.9492 99.9883 65.0039 101.004L65.0977 101.086V101.637L65.3438 102.527C65.4297 102.527 65.543 102.926 65.6836 103.723C65.6523 103.973 65.5977 104.141 65.5195 104.227V104.309C65.6758 104.48 65.7891 104.566 65.8594 104.566L66.0703 104.531V104.613H65.9414L65.9883 104.66V104.695L65.8594 104.824C65.9688 104.824 66.0234 104.895 66.0234 105.035L66.0703 105H66.1172L66.1523 105.164H66.1172C66.1562 105.281 66.1953 105.34 66.2344 105.34L66.1992 105.375V105.457C66.2305 105.527 66.4141 105.629 66.75 105.762C66.9375 105.848 67.1797 105.902 67.4766 105.926V106.02L66.9609 105.973L66.6211 106.137L66.457 106.055C66.457 106.141 66.3281 106.211 66.0703 106.266C66.125 106.156 66.2109 106.102 66.3281 106.102V106.055L66.2344 105.926L66.2812 105.762C66.1172 105.762 65.8906 105.449 65.6016 104.824H65.4727L65.3906 105.082L65.3438 105.035H65.2617C65.2617 105.121 65.2188 105.164 65.1328 105.164L65.0977 105.211V105.246C65.1523 105.246 65.1797 105.305 65.1797 105.422C65.4297 105.516 65.5547 105.586 65.5547 105.633H65.5195L65.0977 105.457L65.0508 105.504H65.0039C64.8789 105.488 64.7656 105.332 64.6641 105.035L64.6289 105H64.4531C64.3906 105 64.3477 105.141 64.3242 105.422C64.3242 105.508 64.3945 105.551 64.5352 105.551C64.6367 105.863 64.7109 106.02 64.7578 106.02C64.8359 105.848 64.9609 105.762 65.1328 105.762C64.9609 105.918 64.875 106.043 64.875 106.137V106.184H65.0508L65.5547 106.266L65.7773 106.137L65.8125 106.184V106.23L65.7773 106.266C65.8867 106.266 65.9414 106.336 65.9414 106.477L66.4102 106.605H66.4922V106.699C66.3594 106.699 66.2617 106.738 66.1992 106.816H66.1523L65.9883 106.699V106.734C65.9883 106.906 66.1016 107.035 66.3281 107.121C66.4688 107.121 66.5391 107.148 66.5391 107.203V107.25L66.457 107.332H66.4102C66.043 107.09 65.8594 106.863 65.8594 106.652L65.4727 106.441V106.477L65.6836 106.781L65.6484 106.91C65.7344 106.934 65.7773 107.016 65.7773 107.156C65.5195 106.93 65.375 106.734 65.3438 106.57L65.4375 106.477L65.0039 106.441L64.9219 106.734H64.875L64.8398 106.699H64.793L64.875 106.477L64.7578 106.395L64.5 106.477V106.441L64.582 106.312C64.4727 106.164 64.3477 106.066 64.207 106.02L64.0781 106.055L64.125 106.266H64.0781L64.125 106.312V106.395C63.9297 106.395 63.7852 106.309 63.6914 106.137C63.6367 106.137 63.6094 106.066 63.6094 105.926C63.4453 105.926 63.3047 106.012 63.1875 106.184L63.2344 106.359L63.1875 106.395C63.3047 106.395 63.4336 106.508 63.5742 106.734L63.7852 106.781V106.863H63.7383L63.6094 106.816V106.863L63.4453 106.992L63.3984 107.039V107.074C63.8672 107.66 64.332 108.012 64.793 108.129L64.875 108.211L64.793 108.293H64.7578C64.3516 108.082 63.8711 107.734 63.3164 107.25L63.1406 107.285L62.8477 107.25L62.6367 107.332L62.7656 107.074C62.625 107.074 62.5234 107.02 62.4609 106.91C62.3516 106.91 62.2812 106.84 62.25 106.699L62.5078 106.359L62.4609 106.312V106.266L62.4258 106.312H62.25C62.1797 106.312 62.1094 106.199 62.0391 105.973H61.9922V106.02L62.0391 106.184C61.9531 106.184 61.9102 106.324 61.9102 106.605L61.7461 106.699L61.6172 106.652L61.5234 106.816L61.3125 106.781L61.1016 106.992L61.0664 106.945V106.91L61.2773 106.699L61.2305 106.652C61.4492 106.574 61.5781 106.488 61.6172 106.395L61.5703 106.23L61.6992 106.102L61.6172 105.762V105.633H61.4414C61.4414 105.742 61.3555 105.797 61.1836 105.797C61.1836 105.914 61.1445 105.973 61.0664 105.973V105.926L61.1484 105.68L61.1016 105.633L61.1484 105.586H61.1836L61.1484 105.457C61.1484 105.293 61.2031 105.211 61.3125 105.211V105.117L60.4688 104.613L60.5039 104.566H60.5508L61.1836 104.906L61.4062 105.035V105L61.3594 104.871L61.5703 104.777L61.5234 104.742V104.613H61.6523L61.5234 104.145V104.098L61.6523 103.969H61.6992L61.7812 104.062C61.7812 104.117 61.7383 104.145 61.6523 104.145L61.7461 104.613L61.6523 104.695L61.8633 104.742V104.695C61.8633 104.609 61.9062 104.566 61.9922 104.566L62.0391 104.531V104.484L61.9922 104.438L62.1211 104.309L61.6992 103.629C61.8867 103.48 61.9844 103.355 61.9922 103.254H62.0859C62.2812 103.293 62.3789 103.348 62.3789 103.418L62.332 103.547L62.4258 103.629C62.4258 103.691 62.3828 103.723 62.2969 103.723V103.852H62.332C62.6211 103.711 62.7656 103.609 62.7656 103.547L62.7188 102.996H62.7656L62.7188 102.949V102.914L62.7656 102.738C62.6953 102.738 62.6523 102.613 62.6367 102.363C62.6367 101.512 62.7344 100.801 62.9297 100.23L62.8945 100.195C62.9727 100.172 63.0117 100.059 63.0117 99.8555C63.0742 99.8555 63.1484 99.7539 63.2344 99.5508H63.2695V99.4688L62.6367 100.02L62.5898 99.9844V99.9375C62.8086 99.7812 62.9805 99.6094 63.1055 99.4219L63.2695 99.3398V99.3047L62.8477 98.8359C63.0352 98.8359 63.1641 98.7773 63.2344 98.6602L63.0117 98.4961H62.9766L62.8477 98.5781H62.8008V98.5312L62.8945 98.4023L62.8477 98.1914V98.1094C63.043 97.8203 63.1406 97.4258 63.1406 96.9258V96.75L63.0586 96.6211L63.1055 96.4922C63.0508 96.4922 62.9648 96.3945 62.8477 96.1992V95.7773C62.8477 95.6133 62.6914 95.4414 62.3789 95.2617V95.3438H62.2969L62.25 95.3086H62.2031C62.1094 95.6211 61.8125 95.7773 61.3125 95.7773C61.3125 95.8164 61.1719 95.8711 60.8906 95.9414L60.9375 95.9883V96.0234L60.7617 96.2812L60.7266 96.2461H60.6797L60.4688 96.2812V96.2461L60.5039 96.1992V96.1523H60.4688L59.8711 96.4922C59.7383 96.4375 59.668 96.3828 59.6602 96.3281V96.1523L59.7422 96.0703H59.7891L60 96.1172C60 96.0469 60.1992 95.9883 60.5977 95.9414C60.6602 95.7695 60.7852 95.6836 60.9727 95.6836H61.2773L61.4414 95.6016L61.7461 95.6484L62.1211 95.4375V95.2617C61.9805 95.1367 61.9102 94.9961 61.9102 94.8398L62.2031 94.582V94.5352H62.0859L61.957 94.6289H61.7812V94.5352L61.8281 94.3242L61.6992 94.1953V94.1602L61.7461 94.1133V94.0781C61.6758 94.0781 61.6328 94.0039 61.6172 93.8555H61.4883L61.4062 93.9492C61.5156 93.9648 61.5703 94.0078 61.5703 94.0781H61.4883L61.5703 94.1953C61.5703 94.2812 61.5 94.3242 61.3594 94.3242L61.6172 94.582L61.5703 94.793L61.7812 94.9688L61.6992 95.0508C61.6523 95.0508 61.5938 95.1641 61.5234 95.3906H61.4062L61.3125 95.3086H61.3594L61.3125 95.2617V95.1797C61.3125 95.125 61.3711 95.0977 61.4883 95.0977C61.3477 94.9883 61.2773 94.9023 61.2773 94.8398H61.1836L61.0195 94.9688H60.9727V94.9219L61.1016 94.7578L60.9727 94.6289V94.582L61.0664 94.4531L61.0195 94.418H60.9727L60.9375 94.4531H60.8906L60.8438 94.3242L60.5977 94.418V94.3242H60.5508C60.4648 94.3477 60.4102 94.4062 60.3867 94.5H60.293L60.1641 94.4531L60.082 94.5352H59.918L59.9531 94.5V94.418L59.8242 94.3711C59.7383 94.3711 59.5273 94.5977 59.1914 95.0508L59.1094 94.9688C59.4688 94.5391 59.6953 94.3242 59.7891 94.3242L59.7422 94.2891V94.1953L59.8242 94.0781L59.5312 93.7734V93.7383L59.8711 93.8555H59.918L60.4219 93.6094C60.4219 93.5312 60.3516 93.4883 60.2109 93.4805L60.3398 93.2695L60.2578 93.1758V93.1406L60.4688 93.1758V93.0938C59.9375 92.5 59.625 92.2031 59.5312 92.2031L59.1914 92.0391L59.2383 91.9922V91.9453L58.9336 91.6992H59.0273L59.2383 91.8164V91.7344H59.2734L59.4023 91.7812V91.7344L59.4844 91.6523H59.5312L59.4844 91.8633V91.9102C59.5469 91.9102 59.6484 91.9922 59.7891 92.1562L60.293 92.625C60.293 92.7344 60.4375 92.8789 60.7266 93.0586H60.8086L61.0195 92.9297L60.8086 92.7188L61.0195 92.6719L60.7266 92.2852H60.7617C60.9805 92.4805 61.1641 92.5938 61.3125 92.625L61.3594 92.4609H61.4414L61.3594 92.7188C61.4375 92.7188 61.5234 92.7578 61.6172 92.8359H61.6992V92.8008L61.6172 92.543H61.6523L61.6172 92.4961V92.3789H61.7461C61.7461 92.3008 61.6875 92.2578 61.5703 92.25V92.1562H61.6172L61.6992 92.25L61.8281 92.1562C61.8281 92.1094 61.6719 91.9414 61.3594 91.6523L61.4062 91.6055C61.5547 91.6055 61.6953 91.707 61.8281 91.9102H61.9102L61.9922 91.8164H62.0391L61.9102 91.9922V92.0391C61.9102 92.0938 61.9688 92.1211 62.0859 92.1211L62.0391 92.1562V92.332L62.1211 92.4141C62.1914 92.4141 62.3633 92.2461 62.6367 91.9102L62.6719 91.9453H62.7188C62.7188 92.0547 62.6211 92.1562 62.4258 92.25V92.332L62.5898 92.4961L62.8945 92.3789L62.8477 92.25L62.9297 92.0391L62.7656 91.8164V91.7812L62.9297 91.9102V91.8164L62.8008 91.6523H62.8477C63.0117 91.793 63.1797 91.8633 63.3516 91.8633L63.0586 91.6992V91.6523C63.2305 91.6523 63.4297 91.3984 63.6562 90.8906L63.6094 90.6797L63.7383 90.7617L63.7852 90.7148H63.8203V90.7969L63.7852 90.8438V90.8906H63.8203L64.1602 90.7969C64.1602 90.8594 64.0039 90.9453 63.6914 91.0547L63.5273 91.5234V91.6523C63.918 91.9883 64.1445 92.1562 64.207 92.1562L64.3242 92.2852L64.2891 92.332H64.2422L64.0312 92.2031L63.9492 92.2852L63.9961 92.4141L63.6914 92.5898V92.625C63.918 92.6953 64.0312 92.7539 64.0312 92.8008L63.9492 92.9297V93.0117C64.1367 93.3633 64.418 93.6328 64.793 93.8203C64.793 93.8672 64.8945 93.9219 65.0977 93.9844C65.4336 94.7812 65.9297 95.5195 66.5859 96.1992H66.6211L66.668 96.0703C66.582 96.0703 66.5391 96.043 66.5391 95.9883V95.9062L66.6211 95.8125C66.7383 95.8594 66.7969 95.9023 66.7969 95.9414L66.75 95.9883C66.8203 96.168 66.8906 96.2656 66.9609 96.2812L67.3008 96.0703C67.2461 95.8438 67.1914 95.7305 67.1367 95.7305H67.0898C67.0898 95.8711 67.0625 95.9414 67.0078 95.9414L66.9258 95.8125V95.7305L67.043 95.6016C67.2148 95.6016 67.3438 95.7305 67.4297 95.9883H67.4766L67.6406 95.6484C67.5859 95.6484 67.5586 95.5898 67.5586 95.4727H67.4766V95.3906H67.6055L67.8984 95.7305C67.8984 95.6133 68.0273 95.4727 68.2852 95.3086V95.3438C68.0586 95.5781 67.9453 95.75 67.9453 95.8594H68.0625V95.9062L67.9805 95.9883L67.8516 95.9062C67.8516 95.9609 67.7969 95.9883 67.6875 95.9883V96.2461L67.6055 96.3633L67.6406 96.4102C67.8984 96.3789 68.2383 96.2812 68.6602 96.1172H68.7422L68.8359 96.1992C68.0938 96.4023 67.7227 96.543 67.7227 96.6211L67.6055 96.668V96.7969L67.6406 96.75H67.6875C67.7891 96.7969 67.8867 96.9102 67.9805 97.0898C68.0977 97.0898 68.2383 97.2031 68.4023 97.4297C68.6055 97.4844 68.707 97.5977 68.707 97.7695V97.8164L68.5312 98.0273H68.4961C68.4492 98.0273 68.4062 97.9688 68.3672 97.8516L68.5312 97.6875L68.1562 97.3008L68.1914 97.2656C68.1133 97.2656 67.9883 97.1797 67.8164 97.0078H67.7695L67.8164 97.043V97.1719L67.7227 97.2656C67.6445 97.2656 67.6055 97.2227 67.6055 97.1367H67.5117L67.4297 97.2188V97.2656C67.5156 97.2656 67.6289 97.3477 67.7695 97.5117L67.6875 97.6406L67.7227 97.7695L67.5586 97.8516L68.0273 98.625C68.1602 98.6328 68.4297 99.1133 68.8359 100.066C68.9062 100.098 68.9766 100.254 69.0469 100.535C69.1406 100.574 69.2812 100.828 69.4688 101.297L69.5977 101.379C69.6523 101.379 69.6953 101.195 69.7266 100.828C69.8672 100.641 69.9375 100.484 69.9375 100.359V100.113C69.8516 99.9883 69.8086 99.875 69.8086 99.7734H69.8555L69.8086 99.7266L69.8555 99V98.4961L69.8086 98.1094L69.8555 97.9453L69.7266 97.3477V96.832C69.3828 96.3242 69.2109 95.7734 69.2109 95.1797C69.2109 94.8516 69.0703 94.4258 68.7891 93.9023C68.7031 93.8633 68.5742 93.6094 68.4023 93.1406C68.1523 92.7656 68.0273 92.4961 68.0273 92.332V92.2852C68.2695 92.0352 68.4688 91.9102 68.625 91.9102V91.8633L68.4023 91.7344H67.9453C67.8906 91.7344 67.7773 91.8633 67.6055 92.1211H67.4297C67.3438 92.0898 67.3008 92.0039 67.3008 91.8633L67.7227 91.6523H67.8984C68.2734 91.6523 68.5273 91.5234 68.6602 91.2656V91.1836L68.5781 91.1016H68.4023L68.0273 91.3594H67.9805V91.3125L68.3203 90.9727L68.2852 90.9258H68.2383L68.3672 90.6328L67.8516 90.5508V90.457H67.8984L68.3672 90.5508C68.3672 90.293 68.4805 90.1641 68.707 90.1641C68.7617 90.1641 68.7891 90.1211 68.7891 90.0352L68.8359 90H68.8711ZM64.5352 90.0352L64.6289 90.1172L64.582 90.1641H64.4531L64.3711 90.082L64.418 90.0352H64.5352ZM62.7188 90.1172H62.8477V90.2109H62.7188V90.1172ZM62.4258 90.4219C62.8164 90.4766 63.0117 90.5469 63.0117 90.6328L62.9297 90.7148C62.8438 90.6289 62.6875 90.5586 62.4609 90.5039L62.4258 90.457V90.4219ZM63.5273 90.457H63.5742L63.6094 90.6797C63.5 90.6328 63.4453 90.5898 63.4453 90.5508L63.5273 90.457ZM64.7578 90.5859L64.793 90.6328C64.793 90.6875 64.8633 90.7148 65.0039 90.7148L65.0508 90.7617V90.7969L64.7578 90.8906L64.6641 90.7148L64.2422 90.7969V90.7148L64.7578 90.5859ZM73.7227 90.6328H73.7578L73.8516 90.7148H73.7227V90.6328ZM60.2578 90.6797H60.3398L60.4219 90.7617V90.7969L60.3398 90.8906H60.293L60.1641 90.7617L60.2578 90.6797ZM61.1836 90.8906L61.3125 91.0195L61.2305 91.1016H61.1836L61.1016 91.0195V90.9727L61.1836 90.8906ZM60.6797 90.9258L60.7617 91.0195L60.6797 91.1016L60.5977 90.9727L60.6328 90.9258H60.6797ZM61.6992 91.0547H61.7461C61.6992 91.1719 61.6562 91.2305 61.6172 91.2305L61.5703 91.1836V91.1367L61.6992 91.0547ZM62.25 91.1016C62.3906 91.1406 62.4609 91.2383 62.4609 91.3945H62.3789V91.3125C62.293 91.3125 62.25 91.2852 62.25 91.2305V91.1016ZM67.0898 91.1016H67.1367L67.2188 91.1836V91.2305L67.1367 91.3125H67.0898L67.0078 91.2305V91.1836L67.0898 91.1016ZM60.2109 91.3125H60.293L60.2578 91.5234V91.6055L60.5039 91.6992V91.7812L60.1641 91.8633H60.1289L60.0469 91.7812L60.1289 91.6992L59.9531 91.6523V91.5703C59.9531 91.5078 60.0234 91.4766 60.1641 91.4766L60.2109 91.3125ZM63.1055 91.3125H63.1875V91.3945L63.1055 91.4766H63.0117V91.3945L63.1055 91.3125ZM66.3633 91.3125C66.3633 91.3594 66.4648 91.4141 66.668 91.4766V91.6055C66.668 91.6523 66.5547 91.7383 66.3281 91.8633C66.0391 91.6367 65.8945 91.4961 65.8945 91.4414C66.0117 91.3555 66.168 91.3125 66.3633 91.3125ZM63.8672 91.4414L63.9492 91.5234L63.9141 91.5703H63.8203L63.7383 91.4766L63.7852 91.4414H63.8672ZM65.3438 91.6992C65.3672 91.7773 65.4805 91.8164 65.6836 91.8164L65.7773 92.0391L65.5195 92.1211C65.4102 91.918 65.2969 91.8164 65.1797 91.8164L64.9219 91.8633L64.6641 91.8164C64.375 91.8477 64.1953 91.9062 64.125 91.9922H64.0312V91.9102C64.0312 91.8008 64.4688 91.7305 65.3438 91.6992ZM60.7266 91.9102H60.8438V91.9453L60.7617 92.0391L60.7266 91.9922V91.9102ZM66.5859 92.0742L66.668 92.1562L66.6211 92.2031H66.5859L66.4922 92.1211L66.5391 92.0742H66.5859ZM64.793 92.1211C65.0195 92.168 65.1328 92.2227 65.1328 92.2852V92.332L65.0039 92.4609H64.8398L64.6641 92.3789C64.6953 92.207 64.7383 92.1211 64.793 92.1211ZM58.8047 92.1562L59.0273 92.2031L59.0625 92.1562L59.1914 92.4141L59.1094 92.4961L59.1445 92.625L58.8984 92.7188C58.8359 92.7188 58.8047 92.6758 58.8047 92.5898L58.8516 92.4609L58.6758 92.2852L58.8047 92.1562ZM60.3867 92.25H60.4688L60.5508 92.332V92.4141L60.4688 92.4961L60.3867 92.4141V92.25ZM62.6719 92.5898L62.8008 92.6719H62.8945L62.9766 92.5898L62.9297 92.4609C62.7578 92.4766 62.6719 92.5195 62.6719 92.5898ZM64.125 92.4141H64.2422L64.3711 92.543L64.2422 92.625C64.1797 92.625 64.1406 92.5547 64.125 92.4141ZM59.4023 92.6719L59.4492 92.7188V92.8008L59.3203 92.7539L59.4023 92.6719ZM66.2812 92.8359C66.2812 92.9062 66.3945 92.9492 66.6211 92.9648L66.75 92.9297L67.0078 93.2227L66.8789 93.3516C66.7852 93.3516 66.6719 93.293 66.5391 93.1758C66.5391 93.2617 66.4805 93.3047 66.3633 93.3047C66.1133 93.2891 65.9883 93.2461 65.9883 93.1758C66.043 93.1758 66.0703 93.0938 66.0703 92.9297L66.2812 92.8359ZM64.207 92.9297C64.3477 92.9609 64.418 93.0039 64.418 93.0586V93.0938H64.3242L64.207 92.9648V92.9297ZM59.918 93.0117L60.1641 93.0938V93.1758C59.9688 93.1523 59.8711 93.1133 59.8711 93.0586L59.918 93.0117ZM59.9531 93.2695C60.0156 93.2695 60.0469 93.3242 60.0469 93.4336C60.1562 93.4336 60.2109 93.4609 60.2109 93.5156L60.1289 93.6094C60.1289 93.5469 60.0273 93.4883 59.8242 93.4336V93.3984L59.9531 93.2695ZM60.4219 93.3047L60.3867 93.4336H60.4688L60.5977 93.3984L60.5039 93.3047H60.4219ZM66.457 93.3984H66.4922L66.6211 93.5156L66.4922 93.6914H66.457C66.3867 93.6914 66.3438 93.6211 66.3281 93.4805L66.457 93.3984ZM59.1445 93.4336L59.2383 93.5156L59.1094 93.6094L59.0273 93.5156L59.1445 93.4336ZM60.2578 93.8555L60.3398 93.9492L60.2578 94.2891L60.293 94.3242H60.3398L60.6797 94.1953L60.5508 94.0312L60.5977 93.7734L60.5039 93.6445C60.3867 93.6836 60.3047 93.7539 60.2578 93.8555ZM66.7969 93.7383H66.8789L67.0898 93.9492L67.043 93.9844H66.832L66.7031 93.8555V93.8203L66.7969 93.7383ZM59.1094 93.9023H59.1445L59.2383 93.9844V94.0312L59.1445 94.1133H59.1094L59.0273 94.0312V93.9844L59.1094 93.9023ZM66.5391 94.1953H66.5859L66.668 94.2891L66.6211 94.3242H66.5859L66.5391 94.2891V94.1953ZM59.7422 94.5352H59.8711L59.7891 94.6289H59.6602L59.7422 94.5352ZM61.4414 94.793L61.5703 94.9219V94.8867L61.4883 94.793H61.4414ZM60.8086 94.793L60.8906 94.8867L60.8438 94.9219H60.7617L60.6797 94.8398L60.7266 94.793H60.8086ZM60.1641 94.8398L60.2578 94.9219L60.2109 94.9688H60.1289L60.0469 94.8867L60.082 94.8398H60.1641ZM60.5977 95.0508L60.7266 95.2266C60.8672 95.2344 60.9375 95.2734 60.9375 95.3438L60.7266 95.5195H60.4219L60.3398 95.4375L60.5039 95.3438V95.3086C60.3945 95.3086 60.3398 95.2812 60.3398 95.2266C60.3945 95.2266 60.4219 95.1836 60.4219 95.0977L60.4688 95.0508H60.5977ZM61.6523 95.2266H61.6992L61.8633 95.3906V95.4375L61.6523 95.2266ZM68.7891 95.3906L68.8359 95.4375V95.4727L68.7891 95.5195H68.625L68.7891 95.3906ZM69.0469 96.832H69.1758V96.9258H69.0469V96.832ZM60.7617 97.8984H60.8906C60.9609 97.8984 61.0195 98.0273 61.0664 98.2852C61.0117 98.2852 60.9688 98.2109 60.9375 98.0625C60.7656 98.0625 60.6797 98.0352 60.6797 97.9805L60.7617 97.8984ZM62.168 97.8984H62.332L62.4609 98.0273V98.1094L62.4258 98.1562V98.1914L62.6367 98.3203H62.6719V98.4492L62.5898 98.5312C62.5508 98.3672 62.5078 98.2852 62.4609 98.2852H62.4258L62.2969 98.3672C62.125 98.2344 62.0391 98.1055 62.0391 97.9805L62.168 97.8984ZM61.1016 98.3203H61.1484L61.2773 98.4492H61.1836L61.1016 98.3672V98.3203ZM61.2773 98.4492H61.3594L61.7812 98.7422V98.8359H61.8281L62.0859 98.707C62.0859 98.7539 62.168 98.8086 62.332 98.8711V98.9648C62.2461 99.2695 62.1641 99.4219 62.0859 99.4219H61.9102L61.8633 99.3867H61.8281L61.7812 99.4219V99.7266H61.6523L61.5703 99.6445L61.7461 99.4219L61.6523 99.3047V99.082L61.7461 98.9648V98.8711L61.2773 98.4492ZM74.4023 102.445L74.4844 102.574L74.4375 102.609H74.4023L74.3086 102.527L74.4023 102.445ZM74.1445 102.785H74.1914L74.2734 102.867V102.949C74.2734 103.027 74.0469 103.102 73.5938 103.172L73.3828 103.078C73.3359 103.195 73.2344 103.254 73.0781 103.254C73.0781 103.098 73.293 102.996 73.7227 102.949C73.8086 102.84 73.9492 102.785 74.1445 102.785ZM72.3633 103.207H72.6094C72.7266 103.27 72.7852 103.34 72.7852 103.418L72.9492 103.289H73.043L72.9141 103.512L73.043 103.887L72.7852 104.016C72.5586 104 72.4453 103.957 72.4453 103.887L72.3984 103.934H72.3164L72.1523 103.676V103.629L72.2344 103.465L72.1875 103.336L72.3633 103.207ZM69.3047 103.723H69.3867L69.4219 103.887L69.3047 103.758V103.723ZM60.8086 103.758L60.8438 103.805V103.887L60.7617 103.969L60.7266 103.805L60.7617 103.758H60.8086ZM62.168 105.293L62.332 105.422V105.164L62.168 105.293ZM67.043 105.117H67.0898V105.211H66.9609L67.043 105.117ZM62.25 105.633L62.2031 105.797L62.25 105.844H62.2969V105.633H62.25ZM68.0625 105.762L68.1094 105.797V105.844L68.0273 105.926H67.9805L67.8984 105.844V105.797L68.0625 105.762ZM62.2969 105.973C62.375 106.168 62.4883 106.266 62.6367 106.266V106.137C62.6367 106.059 62.5234 106.004 62.2969 105.973ZM61.0195 106.02V106.055L60.5039 106.734L60.4219 106.652L61.0195 106.02ZM65.3086 106.055H65.4375L65.3438 106.137L65.3086 106.102V106.055ZM66.9258 106.57L67.1719 106.605H67.4297L67.6055 106.699V106.816C67.5039 106.988 67.375 107.074 67.2188 107.074L67.0898 106.945L66.9609 106.992L66.5859 106.652L66.9258 106.57ZM64.9688 106.781L65.0508 106.863L64.9688 106.992L65.4727 107.285L65.3438 107.496V107.543H65.2617L65.1797 107.461L65.2148 107.414V107.379L64.8398 106.992C64.9023 106.992 64.9453 106.922 64.9688 106.781ZM63.9492 107.203H63.9961L64.0781 107.285V107.332H63.9492V107.203ZM62.4258 107.332H62.6367L62.543 107.414H62.4258V107.332ZM63.0586 107.754L63.1055 107.801V107.836L63.0586 107.883H63.0117L62.9766 107.836V107.801L63.0117 107.754H63.0586ZM64.7109 108.457L64.793 108.551L64.7109 108.633L64.6289 108.504L64.6641 108.457H64.7109ZM65.0977 108.457H65.1797L65.2617 108.551L65.2148 108.586H65.1797L65.0977 108.457ZM65.5195 109.102H65.5547C65.7109 109.102 65.8125 109.156 65.8594 109.266L65.7773 109.359H65.6016L65.4375 109.184L65.5195 109.102ZM75.0703 87L75.1875 87.1172V87.1875H75.0703V87ZM75.9258 87L76.043 87.1172C76.043 87.2031 76.1016 87.2461 76.2188 87.2461C76.2188 87.3633 76.2617 87.4219 76.3477 87.4219L76.5938 87.3633C76.5938 87.4414 76.5312 87.4805 76.4062 87.4805L76.5234 87.668V87.7266L76.4062 87.9141L76.4648 88.2188C76.2617 88.2188 76.1602 88.2578 76.1602 88.3359C76.4023 88.3359 76.5234 88.418 76.5234 88.582H76.7109C76.7109 88.3789 76.8711 88.2773 77.1914 88.2773L77.5547 88.0312H77.625L77.4375 88.3359C77.7188 88.3359 77.9414 88.5195 78.1055 88.8867C78.2305 88.8867 78.293 88.9258 78.293 89.0039C78.0508 89.1445 77.9297 89.2852 77.9297 89.4258L78.2227 89.6719H78.6562V89.7891H78.2227C77.9414 89.9297 77.8008 90.0312 77.8008 90.0938L77.8594 90.3398L77.8008 90.3984H77.6836L77.4961 90.2812H77.3789C77.1992 90.4453 77.0586 90.5273 76.957 90.5273L76.7695 90.457V90.5859L76.8867 90.7617V90.832L76.5938 90.6445C76.5469 91.1836 76.4844 91.4883 76.4062 91.5586L76.6523 94.4062L76.5938 96.1758V96.9023L76.8281 98.9648H76.8867C77.0508 98.668 77.1523 98.3633 77.1914 98.0508H77.3203C77.3203 97.9336 77.5234 97.6523 77.9297 97.207C77.9297 97.043 78.332 96.5156 79.1367 95.625L80.1094 93.8086C80.1875 93.7773 80.3906 93.3711 80.7188 92.5898C80.8359 92.5898 81.1172 92.2266 81.5625 91.5C81.625 91.5 81.75 91.2539 81.9375 90.7617L81.8086 90.6445L81.0234 91.0664L80.9648 91.0078H80.8945L80.4727 91.125V91.0078C80.6211 91.0078 80.8047 90.9062 81.0234 90.7031H81.082L81.1406 90.7617L82.0547 90.3984L82.3594 89.8594L82.3008 89.7891C82.6992 89.7891 82.8984 89.6914 82.8984 89.4961L83.1445 88.8164H83.2734L83.2031 88.7578V88.6992L83.2734 88.6406V88.582L83.1445 88.4531H83.332L83.3906 88.5234C83.5547 88.5 83.6953 88.3555 83.8125 88.0898L83.6953 87.9727L83.7539 87.9141H83.8125L84.1758 88.0312L84.3633 87.9141L84.4805 88.0312H84.668C84.707 87.9531 85.1523 87.8711 86.0039 87.7852L86.6133 87.9727L86.9062 87.5508H87.0352V87.6094L86.7891 88.0312L86.9062 88.2188V88.3945L86.8477 88.4531V88.5234C87.1758 88.5234 87.3398 88.4414 87.3398 88.2773H87.457V88.3359L87.3984 88.5234H87.457L87.8203 88.6406C87.8203 88.5391 88.0039 88.3555 88.3711 88.0898H88.5469L88.8516 88.2773L88.793 88.3359V88.3945L88.8516 88.6406L88.7344 88.7578L88.4297 88.6992V88.7578L88.4883 88.8164V88.8867L88.4297 89.0625C88.4766 89.4141 88.5977 89.6797 88.793 89.8594V89.918H88.5469V89.9766L88.6758 90.2227L88.9805 90.1641L89.1562 90.3984L89.0977 90.457L88.6758 90.3398C88.2305 90.4648 88.0078 90.5859 88.0078 90.7031L87.9492 90.6445H87.8203V90.7031L88.1836 91.125V91.1953L87.2812 90.5273L87.1523 90.6445C87.0117 90.6445 86.8516 90.5039 86.6719 90.2227L86.7891 90.0938L86.2383 89.7891C86.2383 89.9141 86.1602 89.9766 86.0039 89.9766V90.0938L86.1211 90.2812C85.8398 90.2812 85.5586 90.4023 85.2773 90.6445L85.3359 90.7031V90.7617L85.2773 90.9492L85.4531 91.125H85.3945L85.0898 90.832C84.7383 90.9258 84.4961 91.0859 84.3633 91.3125C83.5117 91.8359 83.0859 92.3828 83.0859 92.9531L82.4766 93.8672C82.375 93.9062 82.0938 94.3516 81.6328 95.2031L80.6016 96.7734L80.168 97.2656H80.1094C80.3906 97.5391 80.5312 97.7812 80.5312 97.9922C80.6562 97.9922 80.8203 98.1758 81.0234 98.543C81.1172 98.5508 81.4609 98.875 82.0547 99.5156L82.3594 99.2109L82.418 99.2695V99.3281L82.2305 99.5742C82.2305 99.7227 82.375 99.9258 82.6641 100.184L82.6055 100.242C83.1055 100.562 83.5273 100.723 83.8711 100.723V100.664L83.332 99.3867L83.3906 99.3281H83.6367L83.7539 99.457V99.75L83.6953 99.8203C83.9141 100.469 84.0547 100.793 84.1172 100.793C84.2578 100.543 84.4219 100.418 84.6094 100.418V100.664H84.7852C84.9492 100.586 85.0312 100.484 85.0312 100.359H85.1484V100.488H85.207L85.875 99.8789V99.9375L85.3945 100.664L85.8164 100.852H85.9453V100.969H85.8164L85.875 101.027V101.086L85.8164 101.156V101.215L86.0039 101.391V101.461H85.875V101.52L85.9453 101.695L85.875 101.766C86.4844 101.906 86.7891 102.027 86.7891 102.129H86.7305L85.6406 101.824V101.883L85.6992 102.059H85.6406L85.4531 101.941H85.3359L86.1211 102.492V102.551H86.0625C85.5391 102.27 85.2148 102.129 85.0898 102.129V102.188C85.6289 102.875 86.1758 103.219 86.7305 103.219C86.7305 103.281 86.9531 103.34 87.3984 103.395V103.523H87.2109L86.1797 103.219H86.1211V103.277C87.0508 104.051 87.5156 104.535 87.5156 104.73C87.7031 104.98 88.0078 105.246 88.4297 105.527L88.5469 106.008L88.4883 106.078H88.3125C88.3125 105.852 88.0898 105.504 87.6445 105.035C87.4492 105.035 87.2656 104.836 87.0938 104.438C86.6719 103.945 86.3672 103.699 86.1797 103.699L85.5117 103.465C85.5117 103.543 85.4531 103.582 85.3359 103.582V103.641L85.4531 103.828V103.887C85.1328 103.949 84.9727 104.09 84.9727 104.309H85.0312C85.5391 104.551 85.9219 104.672 86.1797 104.672H86.3672V104.801C86.2031 104.801 86.1211 104.84 86.1211 104.918C86.168 105.238 86.25 105.398 86.3672 105.398H86.4844L86.6133 105.281L86.9062 105.34C86.9062 105.426 86.8086 105.469 86.6133 105.469L86.543 105.773L86.7305 105.949V106.008L86.6719 106.078V106.137L86.7891 106.254L86.7305 106.312H86.543C86.3008 105.906 86.0781 105.664 85.875 105.586H85.7578L85.8164 105.891H85.6992V105.949L86.2383 106.617L86.1211 106.746C85.793 106.301 85.5117 106.016 85.2773 105.891C85.2773 106.094 85.2148 106.195 85.0898 106.195L84.9727 106.078V105.949L85.0312 105.891V105.832L84.9023 105.703C85.0273 105.703 85.1523 105.562 85.2773 105.281L85.1484 104.977L85.207 104.801L84.1758 104.496C83.9805 104.395 83.7188 104.152 83.3906 103.77L83.332 103.828H83.2734L83.1445 103.699L83.2734 103.336L82.9688 102.797C82.5703 102.586 82.2461 102.262 81.9961 101.824C81.832 101.824 81.6875 101.762 81.5625 101.637L81.3867 101.695L81.1992 101.52L81.1406 101.578V101.637L80.7188 101.578H80.4141L80.0508 101.637L79.8047 101.461L79.9336 101.332L80.6602 101.391L80.9648 101.273V101.215C80.1367 100.488 79.5078 99.8203 79.0781 99.2109L78.7734 99.082C78.6172 99.3711 78.3125 99.6367 77.8594 99.8789C77.1953 101.113 76.832 101.863 76.7695 102.129C76.8477 103.004 76.9883 103.691 77.1914 104.191V104.309L77.1328 104.613C77.1875 105.168 77.2891 105.531 77.4375 105.703V106.312L77.4961 106.617C77.2539 106.836 77.1328 107.102 77.1328 107.414L77.1914 107.473V107.531L76.8867 108.129L76.957 108.855L76.8867 109.523C77.2148 110.266 77.3789 110.812 77.3789 111.164L77.3203 111.234L77.4375 111.352V111.539H77.3789C77.2305 111.508 77.0469 111.02 76.8281 110.074L76.5938 109.711C76.4219 109.711 76.2578 109.348 76.1016 108.621C76.0078 108.621 75.8477 108.195 75.6211 107.344L75.6797 107.109L75.5508 106.559H75.6211L75.4922 106.254H75.5508L74.7656 102.609C74.6719 102.531 74.5312 102.207 74.3438 101.637C74.2344 101.637 74.0938 101.395 73.9219 100.91C73.5938 100.91 73.4102 100.262 73.3711 98.9648C73.5352 98.7227 73.6172 98.5391 73.6172 98.4141V97.875L73.5469 97.3828L73.6172 96.9023V96.5977C73.6172 96.1211 73.4336 95.3516 73.0664 94.2891C72.8242 94.1953 72.7031 93.9102 72.7031 93.4336C72.4922 92.9102 72.3516 92.6484 72.2812 92.6484L72.2227 92.707C72.2227 92.4258 71.9609 92.2852 71.4375 92.2852C71.3594 92.4727 71.2773 92.5742 71.1914 92.5898L71.0625 92.4609L71.3672 92.168H71.6719V92.0977L71.4375 91.4297H71.4961C71.582 91.4297 71.6836 91.6523 71.8008 92.0977C71.9883 92.0977 72.1484 91.7969 72.2812 91.1953C72.375 91.0156 72.5977 90.793 72.9492 90.5273L72.7617 90.2812V90.0938L73.0664 89.8594H73.3125L73.3711 89.918H73.4297C73.4297 89.7148 73.5117 89.6133 73.6758 89.6133L73.7344 89.4258C73.5469 89.3477 73.4453 89.2695 73.4297 89.1914V89.1211L73.5469 88.8867C73.5156 88.7461 73.3945 88.625 73.1836 88.5234C73.1836 88.6406 73.1445 88.6992 73.0664 88.6992L72.6445 88.3359L72.7031 88.2773L72.6445 88.2188L72.7031 88.1484H73.0078C73.1641 88.2031 73.4062 88.4062 73.7344 88.7578H73.9219C74.2422 88.7578 74.4023 88.6172 74.4023 88.3359V88.2773L74.3438 88.2188V88.1484L74.0391 88.2188C73.875 88.1562 73.793 88.0938 73.793 88.0312L73.8516 87.9727C73.8516 87.7617 73.5078 87.5977 72.8203 87.4805V87.3633L73.1836 87.3047L74.0977 87.5508L74.2852 87.3633H74.6484L75.1875 87.8555L75.1289 87.9141V87.9727L75.1875 88.0312H75.6797V87.9727L75.2578 87.3047V87.2461H75.375L75.5508 87.3633H75.7383L75.6797 87.0586L75.7383 87H75.9258ZM79.3828 87.0586H79.5V87.1875L78.3516 87.6094C78.8359 87.2422 79.1797 87.0586 79.3828 87.0586ZM88.6758 87.0586L88.793 87.1875L88.7344 87.2461H88.4883L88.6758 87.0586ZM77.8594 87.1172L77.9297 87.1875V87.2461L77.6836 87.4805H77.1328V87.4219C77.1328 87.3438 77.3164 87.2852 77.6836 87.2461L77.8594 87.1172ZM76.957 87.7266L77.0156 87.7852V87.8555L76.957 87.9141H76.8867L76.8281 87.8555V87.7852L76.8867 87.7266H76.957ZM78.0469 87.7852V87.9141C78.0469 87.9922 77.9844 88.0312 77.8594 88.0312L77.6836 87.9727C77.7227 87.8477 77.8438 87.7852 78.0469 87.7852ZM82.1133 87.7852C82.4102 87.7852 82.5742 87.8477 82.6055 87.9727L82.4766 88.0898C82.5703 88.1758 82.7109 88.2188 82.8984 88.2188V88.3945L82.6055 88.4531L82.1133 87.9141V87.7852ZM90.1289 87.7852H90.3164L90.4336 87.9141C90.4336 87.9922 90.3711 88.0312 90.2461 88.0312L90.1875 88.0898V88.1484L89.8828 88.0898H89.707C89.5508 88.2148 89.3672 88.2773 89.1562 88.2773H88.9805V88.1484C89.3242 88.1406 89.707 88.0195 90.1289 87.7852ZM80.0508 87.8555L80.1094 87.9141V87.9727L80.0508 88.0312H79.8633L80.0508 87.8555ZM78.4102 88.1484L78.5273 88.2773L78.3516 88.4531L78.2227 88.3359L78.4102 88.1484ZM71.6133 88.3359C72.0898 88.5312 72.4141 88.7539 72.5859 89.0039H72.5273C72.3242 89.0039 72 88.8203 71.5547 88.4531L71.6133 88.3945V88.3359ZM76.8281 88.582L77.0742 88.7578H77.1328V88.6992L76.8867 88.582H76.8281ZM78.832 88.6992L78.9609 88.8164C78.7891 88.9414 78.5859 89.0039 78.3516 89.0039V88.8867C78.5 88.8867 78.6602 88.8242 78.832 88.6992ZM73.6758 88.8867V89.0625L73.793 89.1914H73.9219C73.8438 89.0039 73.7617 88.9023 73.6758 88.8867ZM73.0078 89.1914H73.125L73.2539 89.3086H73.125L73.0078 89.1914ZM89.707 89.1914L89.7656 89.25V89.3086C89.6406 89.3086 89.5781 89.3711 89.5781 89.4961L89.5195 89.5547H89.4609V89.4258L89.707 89.1914ZM89.4023 89.6719L89.4609 89.9766L89.4023 90.0352H89.0391L88.9102 89.918C89.1211 89.8789 89.2852 89.7969 89.4023 89.6719ZM86.1797 90.7617L86.3086 90.8906V91.0078L86.1797 91.125H86.0625C85.9688 91.125 85.9062 91.0273 85.875 90.832L85.9453 90.7617H86.1797ZM71.6133 90.8906L71.6719 90.9492V91.0078L71.6133 91.0664H71.5547L71.4961 91.0078V90.9492L71.5547 90.8906H71.6133ZM76.6523 90.8906L76.7695 91.0078L76.7109 91.0664H76.6523V90.8906ZM76.957 90.8906L77.1328 91.0664L77.0742 91.125H77.0156L76.957 91.0664V90.8906ZM77.8594 94.2891H77.9883L77.8594 94.4062H77.7422L77.8594 94.2891ZM77.1328 94.3477H77.4961L77.625 94.4766L77.5547 94.5352L77.6836 94.8398H77.625L77.1914 95.3203H77.1328C77.0547 95.3203 77.0156 95.1797 77.0156 94.8984L76.8867 94.7695C76.9883 94.4883 77.0703 94.3477 77.1328 94.3477ZM84.4805 99.6914L84.5391 99.75V99.8203C84.4922 100.023 84.4336 100.125 84.3633 100.125L84.3047 100.055V99.9961C84.3516 99.793 84.4102 99.6914 84.4805 99.6914ZM87.2812 100.793L87.3984 100.91L87.3398 100.969H87.2812L87.1523 100.852L87.2109 100.793H87.2812ZM81.4453 101.824H81.5625V101.883L81.5039 102.129L81.5625 102.305L81.5039 102.363H81.4453L81.3281 102.246L81.4453 101.824ZM87.3984 102.305H87.457C87.6758 102.305 87.8164 102.387 87.8789 102.551L87.8203 102.609L87.8789 102.668L87.7031 102.727C87.4922 102.727 87.3281 102.629 87.2109 102.434L87.3984 102.305ZM86.4258 102.727H86.4844L86.6133 102.855V102.914H86.543L86.4258 102.797V102.727ZM74.6484 103.523L74.7656 103.641L74.707 103.699H74.6484L74.5195 103.582L74.5898 103.523H74.6484ZM74.4609 104.004H74.5195L74.6484 104.133C74.5625 104.133 74.3203 104.375 73.9219 104.859H73.8516V104.801L74.4609 104.004ZM73.8516 104.859C73.8516 104.938 73.9141 104.977 74.0391 104.977L74.0977 105.035V105.223L73.9805 105.34L74.0391 105.398V105.469L73.793 105.832H73.3711L73.125 105.469L73.3711 105.281L73.3125 105.105L73.8516 104.859ZM86.9062 106.559H87.0352L87.457 106.863L87.3984 106.922H87.2109C87 106.922 86.8594 106.84 86.7891 106.676L86.9062 106.559ZM90.3281 91.9102H90.4219L90.5273 92.2617H90.668V92.1562H90.7266L90.7734 92.2148H90.8203L90.9258 92.1094L90.9727 92.1562L91.0781 92.0625H91.125L91.0781 92.1094L91.125 92.3086H91.1719L91.3242 92.2148L91.2773 92.4609V92.5078L91.3242 92.4609H91.418C91.418 92.6641 91.5703 92.7656 91.875 92.7656C92.1641 92.2266 92.4297 91.957 92.6719 91.957L92.9766 92.0625L93.2695 92.0156H93.375L93.6211 92.2617V92.3086L93.2227 92.5547L93.1758 92.8125L93.3281 92.9062L93.6797 92.7656C93.6797 92.9297 93.7109 93.0117 93.7734 93.0117L93.5742 93.4102L93.6211 93.457V93.6562L93.4688 93.8555L93.5273 93.9141V93.9609C93.293 93.9609 93.1758 94.0625 93.1758 94.2656L92.5195 94.5586V94.6055H92.4258C92.4258 94.4727 92.375 94.4062 92.2734 94.4062C92.0859 94.5391 91.918 94.6055 91.7695 94.6055L91.1719 94.2656V94.207H90.8789L90.668 94.5117H90.6211V94.4648L90.7266 94.1602C90.4375 94.1602 89.9844 94.0117 89.3672 93.7148L88.7227 93.5625H88.6758L88.1719 93.7148C87.9766 93.6133 87.7773 93.5625 87.5742 93.5625C87.3711 93.8203 87.2695 94.0195 87.2695 94.1602H87.2227L87.1172 94.0547L87.0703 94.1133H86.9766C86.7422 94.1133 86.625 94.0781 86.625 94.0078C86.4688 94.0078 86.2695 94.2578 86.0273 94.7578L86.1211 95.3555V95.7656L86.0273 95.9062V96.0117C86.0898 96.0742 86.1211 96.2227 86.1211 96.457C86.1758 96.457 86.375 96.8906 86.7188 97.7578C86.7734 97.7578 86.875 97.9258 87.0234 98.2617C87.1641 98.2617 87.2969 98.4102 87.4219 98.707V98.9062L87.668 99.9609L87.6211 100.113H87.7266C88.4766 99.5898 88.9258 99.2383 89.0742 99.0586C89.2305 99.0586 89.3633 98.9766 89.4727 98.8125C88.8086 98.5703 88.3594 98.3203 88.125 98.0625H88.1719C88.5 98.2734 88.8672 98.457 89.2734 98.6133L89.5781 98.5664H89.625C89.6875 98.5664 89.7188 98.6133 89.7188 98.707H89.7773C89.8633 98.4727 89.9453 98.3555 90.0234 98.3555H90.1172L90.3281 98.6133L90.5742 98.6602L90.6211 98.6133H90.668L91.0781 98.6602L91.125 98.6133V98.5664L91.4766 98.6133C91.9766 98.4102 92.3242 98.3086 92.5195 98.3086C92.5195 98.1914 92.7031 98.1094 93.0703 98.0625L93.1758 98.1562L91.6289 99.1641L91.7695 99.4102L91.7227 99.5625L91.7695 99.6094V99.6562C91.5898 99.8672 91.4414 100.117 91.3242 100.406L91.3711 100.465H91.418L91.3711 100.816L91.418 101.062C91.418 101.352 91.3047 101.617 91.0781 101.859C91 101.859 90.9492 101.742 90.9258 101.508C90.9805 101.508 91.0469 101.391 91.125 101.156L91.0781 100.957H91.125L91.0781 100.91V100.605C90.9297 100.605 90.793 100.559 90.668 100.465L90.375 100.816C90.2344 100.77 90.1328 100.684 90.0703 100.559L90.2695 100.465L90.1758 100.207H89.9766C89.8594 100.207 89.7422 100.16 89.625 100.066H89.3203L89.168 100.16H88.9688L88.9219 100.113C88.2891 100.316 87.9727 100.465 87.9727 100.559L87.8203 101.062L87.9258 101.508L87.8672 101.965C88.0781 102.293 88.2148 102.457 88.2773 102.457C88.3711 102.457 88.418 102.391 88.418 102.258H88.5703V101.965H88.6758C88.6758 102.129 88.707 102.211 88.7695 102.211L88.8281 102.164L88.9688 102.211L89.0273 102.164H89.0742L89.2266 102.211V102.059H89.3203C89.3203 102.16 89.3555 102.211 89.4258 102.211L89.4727 102.164H89.5195L89.5781 102.211V102.105H89.6719V102.211L89.7188 102.164L90.0703 102.316L90.2227 102.258V102.316L90.1758 102.363V102.41H90.3281V102.316H90.4219L90.375 102.562H90.4219L90.375 102.609V102.656L90.4688 102.961H90.5273L90.9258 102.855L90.9727 102.914L91.2188 102.715H91.5703L91.7695 102.656C92.207 102.766 92.5078 102.949 92.6719 103.207H92.7188L92.918 103.16L93.1289 103.266L93.9258 103.008L94.3242 103.16L94.6289 102.961H95.2266L95.3789 102.855H95.9297C96.4062 102.723 96.8047 102.656 97.125 102.656H97.1719C97.375 102.594 97.4766 102.48 97.4766 102.316L97.5234 102.258H97.5703C97.5703 102.32 97.6719 102.406 97.875 102.516H98.0742L98.2266 102.41H98.625C99.2031 102.27 99.6523 102.121 99.9727 101.965H100.43L100.57 101.859L100.676 101.965V102.012C100.676 102.098 100.211 102.266 99.2812 102.516L98.1797 103.16C96.875 103.27 96.2227 103.418 96.2227 103.605C95.707 103.715 95.0586 104.219 94.2773 105.117C94.2773 105.477 93.9766 105.656 93.375 105.656C93.1484 105.961 92.8633 106.113 92.5195 106.113H91.3711C91.1914 105.98 91.0078 105.914 90.8203 105.914L90.5742 105.961C90.5742 105.805 90.1719 105.656 89.3672 105.516H89.2734L88.7695 105.867V105.914H89.0273L89.3203 105.809C89.7422 105.809 90.125 105.941 90.4688 106.207V106.617L90.1758 107.508L89.5195 107.613V107.859L89.3672 108L88.6758 107.906H88.3242C88.1758 107.766 87.957 107.633 87.668 107.508C87.6289 107.422 87.4805 107.305 87.2227 107.156C87.0977 106.938 86.9297 106.789 86.7188 106.711C86.5469 106.367 86.3828 106.117 86.2266 105.961V105.867C86.3594 105.727 86.4258 105.359 86.4258 104.766L86.7188 104.414H86.918L87.1758 104.613H87.2227V104.566L86.4258 103.863C86.3867 103.176 86.2539 102.293 86.0273 101.215L86.0742 99.2578C85.9414 99.2578 85.8086 99.0078 85.6758 98.5078V97.9102C85.4805 97.4961 85.2812 96.9297 85.0781 96.2109L84.9258 96.0586L85.0312 95.9062C84.9375 95.9062 84.8047 95.7891 84.6328 95.5547C84.5312 95.5547 84.4453 95.4883 84.375 95.3555L84.5273 95.0156L84.4219 94.8047L84.4805 94.6055L84.2227 94.2656L84.375 94.1133C84.5469 94.1133 84.6797 94.3438 84.7734 94.8047L84.9727 94.9102L85.125 94.7109L85.0781 94.6641V94.6055L85.2305 94.3594L85.125 94.2656V94.0078L85.0781 93.2578H85.125C85.1094 92.9141 84.8086 92.5156 84.2227 92.0625L84.2812 92.0156C84.4688 92.0156 84.7656 92.2969 85.1719 92.8594C85.2891 92.8594 85.4219 93.0273 85.5703 93.3633C85.6875 93.3633 85.8203 93.6797 85.9688 94.3125H86.0273C86.1133 93.875 86.2461 93.6562 86.4258 93.6562L86.625 93.7617C86.8125 93.7617 87.043 93.5781 87.3164 93.2109L87.5742 93.1641L87.7734 93.2109C88.2578 93.0547 88.8594 92.9375 89.5781 92.8594C89.6094 92.7578 89.707 92.707 89.8711 92.707C90.0039 92.7461 90.0703 92.8125 90.0703 92.9062H90.1758L90.2695 92.6133H90.1172V92.5547L90.1758 92.5078L90.1172 92.4609V92.3555H90.2227V92.3086C90.0898 92.3086 90.0234 92.2578 90.0234 92.1562H90.0703L90.375 92.2148L90.3281 91.957V91.9102ZM87.5273 92.1562V92.2148L87.4688 92.3555H87.5273L87.6211 92.4609V92.5547H87.5273V92.6602L87.668 92.707L87.8672 92.6602V92.7656H87.5273L87.4688 92.707L87.1758 92.8125V92.7656C87.1758 92.5938 87.1094 92.5078 86.9766 92.5078V92.4141C87.1562 92.4141 87.3398 92.3281 87.5273 92.1562ZM88.5234 92.5547L88.6172 92.6602C88.6016 92.7617 88.4688 92.8125 88.2188 92.8125L88.125 92.707L88.0781 92.7656H87.9727V92.6602H88.3711L88.5234 92.5547ZM84.5742 93.4102H84.6797C84.7578 93.4102 84.8086 93.4922 84.832 93.6562L84.5273 93.8555H84.4219L84.3281 93.7617V93.6562L84.5742 93.4102ZM83.9766 93.7617L84.0234 93.8086V93.8555L83.9766 93.9141H83.9297L83.8711 93.8555V93.8086L83.9297 93.7617H83.9766ZM87.5742 97.8164C87.6367 97.8164 87.668 97.8633 87.668 97.957L87.6211 98.2148H87.5742L87.4688 98.1094V97.9102L87.5742 97.8164ZM94.0781 97.8633H94.1719L94.4297 97.9102V98.0156H94.3711C94.1992 98.0156 94.1016 97.9648 94.0781 97.8633ZM87.5273 98.3086H87.6211V98.5078L87.5273 98.4141V98.3086ZM88.9688 101.156H89.0742V101.309H88.9688V101.156ZM98.5195 101.461L98.5781 101.508V101.566L98.5195 101.613H98.4727L98.4258 101.566V101.508L98.4727 101.461H98.5195ZM97.7227 101.766L97.8281 101.859V101.965L97.6289 102.258H97.5703V102.059C97.5938 101.863 97.6445 101.766 97.7227 101.766ZM95.625 102.105L95.6719 102.164H95.8711L95.9297 102.105H95.9766V102.211L95.7773 102.516H95.6719C95.6094 102.516 95.5781 102.465 95.5781 102.363L95.625 102.105ZM87.9727 102.316V102.363L88.0195 102.562C88.0195 102.664 87.9531 102.715 87.8203 102.715V102.809H87.8672L88.1719 102.609L88.0195 102.316H87.9727ZM91.0195 107.414H91.0781C91.1719 107.445 91.2188 107.543 91.2188 107.707L91.1719 107.766H91.0195L90.8789 107.613V107.566L91.0195 107.414ZM90.6211 107.508C90.6992 107.508 90.75 107.594 90.7734 107.766L90.6211 107.859H90.5273C90.4258 107.828 90.375 107.73 90.375 107.566L90.4219 107.508H90.6211ZM91.3242 107.707L91.3711 107.766V107.812L91.3242 107.859H91.2773L91.2188 107.812V107.766L91.2773 107.707H91.3242ZM91.0195 107.812H91.0781C91.1484 107.812 91.1953 107.895 91.2188 108.059L91.0781 108.152H91.0195L90.8789 108L91.0195 107.812ZM90.5273 108.059L90.5742 108.105V108.152L90.5273 108.211H90.4219V108.152L90.5273 108.059ZM90.2227 108.609H90.2695L90.375 108.703L90.3281 108.762H90.2227V108.609ZM108.035 87.9141L108.223 88.1016C108.059 88.25 107.809 88.375 107.473 88.4766L107.531 88.5352V88.793C107.43 88.793 107.367 88.875 107.344 89.0391H107.215L107.473 89.4727L107.66 89.3555H107.965C107.965 89.1445 108.113 89.0391 108.41 89.0391L108.715 89.0977V89.2266L108.34 89.4727H108.281L108.223 89.4141H108.152L107.66 89.543H107.473V89.6602C107.473 89.7461 107.598 89.7891 107.848 89.7891V89.918C107.473 89.9336 107.242 90.0352 107.156 90.2227L107.719 90.293C107.719 90.3867 107.613 90.4492 107.402 90.4805V90.7266L107.59 90.7852L108.41 90.5391V90.5977C108.379 90.7227 108.105 90.8672 107.59 91.0312L107.531 91.2891L107.59 91.2188H107.719V91.3477H107.59V91.4062H107.66L107.848 91.3477V91.4062L108.223 91.1602H108.34L108.094 91.5352V91.6641L108.656 91.4766H108.785V91.5938C108.559 91.5938 108.391 91.6992 108.281 91.9102H108.34L108.527 91.7812H108.598V91.8516C108.293 92.0703 108.082 92.4023 107.965 92.8477V93.5977C107.715 94.1836 107.527 94.4766 107.402 94.4766V94.9688C107.402 95.1484 107.238 95.5859 106.91 96.2812C106.91 96.5 106.742 96.9375 106.406 97.5938C106.188 98.125 105.938 98.543 105.656 98.8477V98.9062H105.715L106.277 98.4727H106.348L106.465 99.0352C106.777 98.7305 107.152 98.5 107.59 98.3438C107.59 98.2031 107.777 98.0352 108.152 97.8398H108.223C108.301 97.8398 108.34 97.9023 108.34 98.0273H108.785L109.09 97.8398C109.418 97.8398 109.73 98.0508 110.027 98.4727C110.152 98.4727 110.215 98.5117 110.215 98.5898V98.7188L109.898 98.7773C109.82 98.707 109.469 98.6445 108.844 98.5898C108.727 98.3398 108.559 98.2148 108.34 98.2148L107.344 98.8477L107.402 98.9062V99.0352C107.277 99.0352 107.215 99.1172 107.215 99.2812L107.156 99.3398H107.098C107.012 99.3398 106.969 99.2578 106.969 99.0938L106.91 99.0352H106.84L106.594 99.1523V99.2227C106.719 99.2227 106.824 99.3047 106.91 99.4688H106.84L106.465 99.2812V99.4102L106.535 99.4688V99.5273L106.465 99.5977H106.348C106.262 99.5117 105.969 99.4258 105.469 99.3398V99.4102C105.469 99.5898 105.551 99.7148 105.715 99.7852L106.031 99.6562C106.07 99.8672 106.152 100.012 106.277 100.09L106.723 100.031H106.969C107.133 100.195 107.383 100.34 107.719 100.465C107.719 100.605 107.781 100.73 107.906 100.84L107.285 101.215H107.215L107.285 100.91H107.215L106.781 100.535H106.594V100.723L106.723 100.91C106.613 100.91 106.508 101.074 106.406 101.402C106.594 101.488 106.699 101.574 106.723 101.66H106.652L106.277 101.531H106.16L106.031 101.66L106.09 101.719L105.598 102.023L104.906 101.66V101.59C104.906 101.465 105.074 101.402 105.41 101.402L105.281 101.285H105.152L104.59 101.719L104.66 101.906H104.531C104.531 101.695 104.387 101.59 104.098 101.59L103.91 101.848L104.531 101.906L104.473 101.965L104.531 102.023V102.094C104.531 102.195 104.344 102.258 103.969 102.281L103.594 102.152L103.465 102.469L103.535 102.656H103.465C103.262 102.656 103.16 102.695 103.16 102.773C103.285 102.773 103.348 102.816 103.348 102.902V102.961L103.031 102.902C103 103.074 102.812 103.305 102.469 103.594C102.469 103.703 102.344 103.891 102.094 104.156C102.094 104.547 102.031 104.797 101.906 104.906L102.035 105.094L101.977 105.152L102.223 105.211V105.34L101.906 105.469V105.586H102.035V105.715H101.906L101.848 105.656L101.66 105.715L101.789 106.336H101.719C101.555 106.133 101.367 106.031 101.156 106.031L100.16 107.027C99.1211 107.496 98.6016 107.848 98.6016 108.082L98.6602 108.27C98.5508 108.27 98.3008 108.562 97.9102 109.148C97.7383 109.148 97.3438 109.562 96.7266 110.391L96.4805 110.461V110.391C96.6758 110.031 96.9453 109.68 97.2891 109.336C97.3828 108.945 97.5273 108.59 97.7227 108.27C97.6602 107.941 97.4922 107.777 97.2188 107.777C97.0156 107.402 96.832 107.215 96.668 107.215L96.5391 107.344H96.4805L96.4219 107.273L96.3516 107.344H96.1641L95.9766 107.156L96.7266 107.027C96.8281 107.027 97.0156 107.215 97.2891 107.59C97.3984 107.59 97.5859 107.691 97.8516 107.895C97.8516 107.738 98.0781 107.242 98.5312 106.406C98.5312 106.289 98.9297 105.621 99.7266 104.402C99.9297 104.035 100.117 103.43 100.289 102.586C100.648 102.062 100.918 101.441 101.098 100.723C101.637 100.324 101.906 99.9688 101.906 99.6562L101.977 99.5977L100.969 98.5312L100.91 98.4727H100.852L100.723 98.5898L100.664 98.5312L100.535 98.6602H100.477V98.5312H100.406C100.406 98.6953 100.344 98.7773 100.219 98.7773L100.348 99.2812C100.184 99.2266 100.102 99.0391 100.102 98.7188L100.219 98.5898L99.9727 98.5312C99.9102 98.6953 99.8477 98.7773 99.7852 98.7773H99.7266V98.7188L99.7852 98.6602C99.7539 98.4492 99.6484 98.3438 99.4688 98.3438V98.2852L99.5391 97.9688L99.4688 97.9102H99.4102L98.9062 98.5898L98.9766 98.6602V98.7188C98.7656 98.9531 98.6406 99.2227 98.6016 99.5273H98.5312L98.4727 99.4688V99.1523C98.7227 98.6445 99.0352 98.125 99.4102 97.5938V97.4648H99.3516L99.1641 97.5352V97.4648C99.1641 97.3867 99.2266 97.3477 99.3516 97.3477C99.3516 97.1367 98.8906 96.9688 97.9688 96.8438L97.6641 96.9023L97.5938 96.8438V96.7852L97.6641 96.7148H97.9688L99.1641 96.9023L99.2227 96.8438V96.7852C99.0586 96.7852 98.7031 96.4727 98.1562 95.8477H98.2266L99.3516 96.6562H99.4102C99.0586 95.7812 98.6836 95.3438 98.2852 95.3438C98.2852 95.1016 98.1797 94.9141 97.9688 94.7812C97.8203 94.7812 97.6758 94.5547 97.5352 94.1016L97.3477 93.9141L97.4062 93.8438H97.4766L97.5352 93.9141L97.6641 93.6562C97.5625 93.3672 97.4375 93.2227 97.2891 93.2227L97.1602 92.8477C97.1602 92.7617 97.2227 92.7188 97.3477 92.7188V92.6016C97.3477 92.3516 97.1836 91.9766 96.8555 91.4766V91.4062H96.9141C97.2266 91.7578 97.5586 92.0312 97.9102 92.2266L98.0977 92.4727L97.9688 92.6602C98.0938 92.6602 98.1562 92.7422 98.1562 92.9062H98.4141C98.5859 92.8359 98.7305 92.6914 98.8477 92.4727L98.6602 91.7227H98.8477C98.9336 91.7227 99.0156 91.8477 99.0938 92.0977L98.9062 92.2266C98.9609 92.6016 99.0664 92.7891 99.2227 92.7891L99.3516 93.0352L99.2812 93.3516C99.4688 93.5859 100.074 93.8125 101.098 94.0312C101.34 94.7188 101.965 95.4922 102.973 96.3516L103.723 94.7227V94.1602C103.926 93.6367 104.051 93.1992 104.098 92.8477L104.344 92.7188V92.6602L104.156 92.4141V92.0977C104.406 91.7227 104.531 91.4727 104.531 91.3477C104.383 91.3477 104.195 91.0977 103.969 90.5977V90.5391L104.215 90.1641L104.156 89.918C104.242 89.668 104.324 89.543 104.402 89.543H104.473L104.719 89.7891V89.8477L104.66 89.918V89.9766H104.965C104.965 89.8359 105.195 89.5859 105.656 89.2266L106.031 89.3555H106.16L106.09 89.2852V89.168H106.219C106.305 89.168 106.387 89.293 106.465 89.543H106.594L106.781 89.2266L106.594 89.0391L106.781 88.6055L106.723 88.418H106.781L107.215 88.2305C107.215 88.293 107.301 88.3555 107.473 88.418L108.035 87.9141ZM106.406 88.043L106.652 88.2891V88.3477L106.406 88.1016V88.043ZM105.223 88.7227L105.34 88.8516L105.281 88.9102H105.035L104.906 88.793L104.965 88.7227H105.223ZM105.41 88.793H105.469L105.598 88.9102H105.41V88.793ZM105.656 88.9102H105.785C105.949 88.9727 106.031 89.0352 106.031 89.0977H105.902L105.656 88.9102ZM110.344 88.9102C110.344 88.9961 110.57 89.0391 111.023 89.0391V89.0977L111.094 89.0391H111.715L111.844 89.168L111.715 89.3555L111.773 89.4141C111.469 89.6641 111.242 89.7891 111.094 89.7891C110.562 89.375 110.188 89.168 109.969 89.168L108.844 89.2266V89.0977L110.344 88.9102ZM103.84 89.2852L103.91 89.3555V89.4141L103.781 89.543L103.723 89.4727V89.4141L103.84 89.2852ZM110.156 89.6016L110.215 89.6602V89.7305L109.594 89.918L109.523 89.8477V89.7891L110.156 89.6016ZM108.281 89.8477H108.34C108.637 89.9492 108.785 90.0352 108.785 90.1055H108.715L108.281 89.9766V89.8477ZM108.785 90.1055H108.902C109.348 90.1055 109.641 90.293 109.781 90.668C109.984 90.7617 110.172 90.9453 110.344 91.2188V91.2891L110.156 91.4766H110.086L109.277 90.4805C109.012 90.4805 108.848 90.3555 108.785 90.1055ZM100.348 91.5938H100.535V91.7227H100.348V91.5938ZM110.59 91.8516H110.648C111.359 92.1484 111.715 92.3359 111.715 92.4141V92.4727L111.586 92.6016H111.281C111.062 92.6016 110.852 92.4766 110.648 92.2266L110.719 92.1562V92.0977L110.59 91.9688V91.8516ZM95.918 92.2852V92.3438L95.7891 92.4727L95.7305 92.4141V92.3438L95.7891 92.2852H95.918ZM109.594 93.7852H109.711V93.8438C109.633 94.0391 109.551 94.1445 109.465 94.1602L109.406 94.1016H109.336C109.422 93.9062 109.508 93.8008 109.594 93.7852ZM108.527 94.7227L108.598 94.7812V94.9102L108.34 95.0977L108.281 95.0391V94.9688L108.527 94.7227ZM97.1016 94.9102C97.3516 95.0039 97.4766 95.0859 97.4766 95.1562V95.2266H97.4062C97.2188 95.1406 97.1172 95.0547 97.1016 94.9688V94.9102ZM97.043 96.7148V96.8438L96.4805 96.9727H96.4219V96.7852L97.043 96.7148ZM106.781 97.9102V98.0273L106.652 98.1562H106.594L106.781 97.9102ZM110.719 98.8477L111.023 98.9062V99.0352L110.719 98.9648V98.8477ZM107.66 99.1523H107.906V99.3398C107.867 99.4648 107.742 99.5273 107.531 99.5273L107.473 99.4688V99.3398L107.66 99.1523ZM111.023 99.1523C111.758 99.1523 112.238 99.3398 112.465 99.7148L112.277 99.9023H112.219C111.594 99.7617 111.281 99.5742 111.281 99.3398L111.023 99.2812V99.1523ZM100.348 99.5273L100.852 99.9727L100.781 100.031H100.664C100.555 100.031 100.449 99.8633 100.348 99.5273ZM108.527 99.5977C108.777 99.5977 108.902 99.7617 108.902 100.09L108.844 100.16C108.344 100.105 108.094 100 108.094 99.8438C108.164 99.6797 108.309 99.5977 108.527 99.5977ZM98.4727 99.8438H98.5312L98.6602 100.406L98.5312 100.535L98.3438 100.277V99.9727L98.4727 99.8438ZM94.3594 100.031L94.418 100.09V100.16L94.3594 100.219H94.2305V100.16L94.3594 100.031ZM101.227 100.031L101.414 100.09V100.219H101.285L101.156 100.09L101.227 100.031ZM93.2344 100.16L93.293 100.219V100.277L93.2344 100.348H93.1641L93.1055 100.277V100.219L93.1641 100.16H93.2344ZM92.2969 100.465C92.7109 100.496 92.918 100.559 92.918 100.652V100.723L92.6016 100.652L92.4844 100.781H92.3555L92.2266 100.652V100.594L92.2969 100.535V100.465ZM93.5391 100.465C93.9609 100.551 94.1719 100.656 94.1719 100.781C93.625 100.75 93.3516 100.668 93.3516 100.535L93.4219 100.465H93.5391ZM98.0977 100.465V100.535C97.9336 100.715 97.7031 100.84 97.4062 100.91V100.84C97.6172 100.59 97.8477 100.465 98.0977 100.465ZM109.219 100.465H109.277L109.406 100.594L109.336 100.652H109.219V100.465ZM94.6641 101.027H94.793L94.9805 101.215H94.8516L94.6641 101.027ZM97.043 101.098L97.1016 101.156V101.215C97.1016 101.285 96.8516 101.434 96.3516 101.66V102.094L96.4219 102.152C96.4219 102.402 96.2734 102.527 95.9766 102.527L95.543 102.398C95.543 102.609 95.4375 102.777 95.2266 102.902L95.168 102.844L95.4141 102.469V102.281H95.2969V102.211L95.4844 101.66L95.8594 101.531V101.473L96.3516 101.59C96.5469 101.262 96.7773 101.098 97.043 101.098ZM107.777 101.215H107.906C107.984 101.215 108.066 101.34 108.152 101.59L108.094 101.66H107.848L107.66 101.473V101.344L107.777 101.215ZM97.8516 101.473L97.9102 101.531V101.59L97.7227 101.719L97.5938 101.59L97.8516 101.473ZM105.527 102.094V102.152C105.371 102.902 105.246 103.277 105.152 103.277L105.094 103.219C105.25 102.547 105.395 102.172 105.527 102.094ZM104.215 103.277L104.285 103.336V103.465L104.027 103.711L103.91 103.594V103.465C103.91 103.371 104.012 103.309 104.215 103.277ZM104.965 103.84H105.094V104.086H104.965V103.84ZM106.652 104.273H106.723L106.84 104.402H106.652V104.273ZM101.848 106.711H101.977V106.898H101.848V106.711ZM96.7969 108.457L96.9141 108.586L96.7969 108.703L96.668 108.586L96.7969 108.457Z" fill="white"/>
<g clip-path="url(#clip0_14_547)">
<rect x="28" y="117" width="85" height="85" fill="#0F104C" fill-opacity="0.5"/>
<path d="M28.2 185.2H44.8V201.8H28.2V185.2Z" stroke="#5F0D16" stroke-width="0.4"/>
<path d="M28.2 168.2H44.8V184.8H28.2V168.2Z" stroke="#5F0D16" stroke-width="0.4"/>
<path d="M28.2 151.2H44.8V167.8H28.2V151.2Z" stroke="#5F0D16" stroke-width="0.4"/>
<path d="M28.2 134.2H44.8V150.8H28.2V134.2Z" stroke="#5F0D16" stroke-width="0.4"/>
<path d="M28.2 117.2H44.8V133.8H28.2V117.2Z" stroke="#5F0D16" stroke-width="0.4"/>
<path d="M45.2 185.2H61.8V201.8H45.2V185.2Z" stroke="#5F0D16" stroke-width="0.4"/>
<path d="M45.2 168.2H61.8V184.8H45.2V168.2Z" fill="white"/>
<path d="M45.2 168.2H61.8V184.8H45.2V168.2Z" stroke="#5F0D16" stroke-width="0.4"/>
<path d="M45.2 151.2H61.8V167.8H45.2V151.2Z" stroke="#5F0D16" stroke-width="0.4"/>
<path d="M45.2 134.2H61.8V150.8H45.2V134.2Z" fill="white"/>
<path d="M45.2 134.2H61.8V150.8H45.2V134.2Z" stroke="#5F0D16" stroke-width="0.4"/>
<path d="M45.2 117.2H61.8V133.8H45.2V117.2Z" stroke="#5F0D16" stroke-width="0.4"/>
<path d="M62.2 185.2H78.8V201.8H62.2V185.2Z" stroke="#5F0D16" stroke-width="0.4"/>
<path d="M62.2 168.2H78.8V184.8H62.2V168.2Z" stroke="#5F0D16" stroke-width="0.4"/>
<path d="M62.2 151.2H78.8V167.8H62.2V151.2Z" fill="#EB1E1E"/>
<path d="M62.2 151.2H78.8V167.8H62.2V151.2Z" stroke="#5F0D16" stroke-width="0.4"/>
<path d="M62.2 134.2H78.8V150.8H62.2V134.2Z" stroke="#5F0D16" stroke-width="0.4"/>
<path d="M62.2 117.2H78.8V133.8H62.2V117.2Z" stroke="#5F0D16" stroke-width="0.4"/>
<path d="M79.2 185.2H95.8V201.8H79.2V185.2Z" stroke="#5F0D16" stroke-width="0.4"/>
<path d="M79.2 168.2H95.8V184.8H79.2V168.2Z" fill="white"/>
<path d="M79.2 168.2H95.8V184.8H79.2V168.2Z" stroke="#5F0D16" stroke-width="0.4"/>
<path d="M79.2 151.2H95.8V167.8H79.2V151.2Z" stroke="#5F0D16" stroke-width="0.4"/>
<path d="M79.2 134.2H95.8V150.8H79.2V134.2Z" fill="white"/>
<path d="M79.2 134.2H95.8V150.8H79.2V134.2Z" stroke="#5F0D16" stroke-width="0.4"/>
<path d="M79.2 117.2H95.8V133.8H79.2V117.2Z" stroke="#5F0D16" stroke-width="0.4"/>
<path d="M96.2 185.2H112.8V201.8H96.2V185.2Z" stroke="#5F0D16" stroke-width="0.4"/>
<path d="M96.2 168.2H112.8V184.8H96.2V168.2Z" stroke="#5F0D16" stroke-width="0.4"/>
<path d="M96.2 151.2H112.8V167.8H96.2V151.2Z" stroke="#5F0D16" stroke-width="0.4"/>
<path d="M96.2 134.2H112.8V150.8H96.2V134.2Z" stroke="#5F0D16" stroke-width="0.4"/>
<path d="M96.2 117.2H112.8V133.8H96.2V117.2Z" stroke="#5F0D16" stroke-width="0.4"/>
</g>
<rect x="28.5" y="117.5" width="84" height="84" stroke="url(#paint1_linear_14_547)"/>
<defs>
<linearGradient id="paint0_linear_14_547" x1="70.5" y1="17" x2="70.5" y2="83" gradientUnits="userSpaceOnUse">
<stop stop-color="#123BD5"/>
<stop offset="1" stop-color="#CD2237"/>
</linearGradient>
<linearGradient id="paint1_linear_14_547" x1="31.7979" y1="120.436" x2="138.59" y2="226.777" gradientUnits="userSpaceOnUse">
<stop stop-color="#B17BFF"/>
<stop offset="1" stop-color="#FF0751"/>
</linearGradient>
<clipPath id="clip0_14_547">
<rect x="28" y="117" width="85" height="85" fill="white"/>
</clipPath>
</defs>
</svg>
