<svg width="142" height="218" viewBox="0 0 142 218" fill="none" xmlns="http://www.w3.org/2000/svg">
<rect x="0.5" y="0.5" width="141" height="217" rx="4.5" fill="#191515"/>
<rect x="0.5" y="0.5" width="141" height="217" rx="4.5" stroke="#B17BFF"/>
<path d="M73.83 87.31V86.14L74.19 77.5L72.93 54.19H71.85C67.08 55.54 62.49 57.25 58.08 59.05C53.67 60.94 48.9 61.93 43.77 62.2L39.63 59.23L46.65 56.26L47.01 55.09C51.33 53.92 55.65 52.84 59.79 51.67C63.93 50.59 68.16 49.51 72.39 48.34L72.66 41.23L72.12 33.58H71.22L69.15 34.75L67.98 34.48L65.91 35.11L63.21 31.42C63.03 33.04 62.49 34.39 61.59 35.38C60.78 36.55 60.06 37.81 59.43 39.16C58.26 39.52 57.18 40.15 56.1 41.05C54.93 42.04 53.85 42.76 52.95 43.57L52.68 44.2H52.05L51.78 45.1V44.2L52.95 39.43H53.58C53.58 36.73 53.67 34.03 54.12 31.33C54.48 28.63 54.66 25.93 54.66 23.23L54.03 21.43L53.22 21.16V19.45L54.39 11.8H54.93V12.61H55.56L56.46 13.78L57.63 14.68V15.31C58.98 15.49 60.51 15.67 61.95 15.85C63.48 16.12 64.65 16.75 65.55 17.92L66.18 20.53C65.55 21.97 65.1 23.5 64.92 24.94C64.65 26.56 64.47 28.09 64.47 29.71H66.45L71.85 27.64L72.12 26.2C72.12 24.58 71.94 23.05 71.67 21.43C71.4 19.9 71.04 18.28 70.59 16.75L70.95 15.58L70.32 13.51L70.59 12.88L71.49 12.34V10.27L71.22 9.37H71.49L74.46 12.88C75.27 12.88 75.99 12.88 76.62 12.97C77.34 13.06 77.79 13.42 77.97 14.05L78.6 17.29C78.15 18.46 77.97 19.81 77.88 21.07C77.79 22.51 77.61 23.86 77.43 25.03H78.33V24.13H83.82L85.71 24.4V25.3L86.88 25.57L87.96 28.27L87.69 28.81H87.15V29.44L77.7 32.05V38.35L77.97 39.16L77.7 42.13L77.97 47.08H79.23L85.08 46V45.37H86.61L86.88 43.3L88.59 42.49L89.49 41.86C91.83 42.58 94.44 43.03 97.05 43.21C99.66 43.48 102.18 44.02 104.52 44.83V45.37H103.98V46.27L104.52 47.08H104.88L103.98 47.71V48.34C99.48 48.52 95.07 49.06 90.93 49.96C86.61 50.77 82.47 51.67 78.33 52.48V60.4L78.6 66.34C77.97 69.85 77.79 73.54 77.88 77.5C77.97 81.46 76.53 84.7 73.83 87.31Z" fill="url(#paint0_linear_14_639)"/>
<path d="M63.6445 92.543L63.6914 92.5898V92.8594H63.5859L63.5391 92.5898L63.5859 92.543H63.6445ZM62.1797 92.5898L62.3906 92.8594H62.3438L62.0742 92.6484L62.1328 92.5898H62.1797ZM65.625 92.6953V92.7539L65.4141 93.0117H65.2031V92.9648C65.2969 92.7852 65.4375 92.6953 65.625 92.6953ZM63.2227 92.7539H63.3281L63.5391 93.3281L63.75 93.2695L63.9023 93.3281V93.2695L64.2188 92.9062V92.9648C64.1641 93.0977 64.1094 93.1641 64.0547 93.1641L64.2656 93.5391C64.2109 93.7109 64.1094 93.7969 63.9609 93.7969L63.9023 93.7383V93.8438L64.1602 93.9492L64.3711 93.7969V93.9023L64.3242 93.9492V94.0078C64.4883 94.0078 64.6094 94.0391 64.6875 94.1016C64.6875 94.0156 64.7734 93.8945 64.9453 93.7383H65.1562V93.7969L64.793 94.1602H65.0508L65.2031 94.0547H65.3672L65.2617 94.2656L65.2031 94.207H65.1094V94.2656H65.2031V94.3125L65.1562 94.3711V94.418C65.2266 94.418 65.2617 94.4727 65.2617 94.582L66.0469 94.418H66.0938C65.8984 94.6289 65.7266 94.7344 65.5781 94.7344C65.5781 94.8516 65.9414 95.0586 66.668 95.3555L66.7266 95.4141V95.5195H66.668C66.3477 95.3398 66.0352 95.2148 65.7305 95.1445H65.5781L65.7305 95.3555V95.4141L65.6719 95.3555H65.4141V95.4609C65.6484 95.4609 65.8594 95.6172 66.0469 95.9297H66.0938V96.0352L65.7773 96.1406L65.625 96.0352L65.5781 96.0938H65.2617V96.1406L65.3672 96.293V96.3516H65.3086L65.1562 96.293V96.3984C65.1562 96.5312 65.2422 96.6875 65.4141 96.8672L65.3672 96.9258H65.3086L65.1094 96.7148C65 96.7148 64.9297 96.8359 64.8984 97.0781H65.0508V97.1367L64.9453 97.2305H64.8984L64.7344 97.1367L64.582 97.1836L64.4766 97.0781C64.4766 97.25 64.4062 97.3359 64.2656 97.3359C64.2656 97.4062 64.4062 97.5117 64.6875 97.6523V97.6992C64.5469 97.9102 64.4766 98.0664 64.4766 98.168L64.5352 98.4375L64.4766 98.4844H64.4297L64.3711 98.332H64.3242L64.2656 98.6953V98.7422C64.375 98.7422 64.4297 98.7773 64.4297 98.8477V98.9062L64.3242 99.0117C64.3242 98.918 64.1328 98.7617 63.75 98.543H63.6914L63.4922 98.6953L63.3867 98.5898H63.2227L63.0117 98.6484L62.9648 98.5898H62.918C62.832 98.5898 62.6562 98.6953 62.3906 98.9062L62.2383 98.8477V98.9062C62.2383 98.9766 62.0977 99.0117 61.8164 99.0117C61.7852 99.0977 61.543 99.2188 61.0898 99.375C61.0898 99.4531 60.9492 99.5234 60.668 99.5859C60.668 99.7031 60.3906 99.9609 59.8359 100.359C59.6953 100.57 59.5547 100.676 59.4141 100.676L59.625 101.145V101.355C59.5234 101.48 59.4727 101.602 59.4727 101.719V102.035C59.8164 103.16 60.2344 103.836 60.7266 104.062C61.6484 105 62.6211 105.469 63.6445 105.469L63.9609 105.422L64.3711 105.527C64.5898 105.527 64.9922 105.18 65.5781 104.484C65.6719 104.484 65.7578 104.344 65.8359 104.062C66.0859 104.062 66.4688 103.699 66.9844 102.973L66.9258 102.293C66.9258 102.16 66.9805 102.02 67.0898 101.871V101.613L67.2422 99.8438L67.1953 99.5273L67.2422 99.4805V99.4219L67.1953 99.2695L67.2422 99.2109L67.1367 99.1172V98.9062L67.1953 98.8477C67.1328 98.6914 67.0273 98.5703 66.8789 98.4844L66.7266 98.543L66.6211 98.3789L66.668 98.332L66.5625 98.2266L66.6211 98.168V98.1211C67.1523 98.3242 67.4453 98.5312 67.5 98.7422V98.8008L67.4531 98.8477C67.5312 99.0898 67.6016 99.2109 67.6641 99.2109L67.7109 99.0586L67.6055 98.8477L67.7109 98.6484L67.6641 98.3789L67.7109 98.2266L67.1367 97.6992L67.0898 97.7578V97.6992L67.1367 97.5469L66.9844 97.3945H67.0312L67.2891 97.5469C67.3906 97.4219 67.6523 97.2852 68.0742 97.1367V97.2891C67.6211 97.4062 67.3945 97.5273 67.3945 97.6523L68.1328 98.332C68.3984 98.332 68.5898 98.6094 68.707 99.1641V99.4805L68.918 99.7852L68.8125 100.102L68.9648 101.461C68.9023 101.531 68.8516 101.789 68.8125 102.234C68.7266 102.234 68.6562 102.461 68.6016 102.914C68.2891 103.016 68.1328 103.172 68.1328 103.383C68.1328 103.734 68.0117 103.91 67.7695 103.91C67.6602 104.16 67.3125 104.488 66.7266 104.895C66.2578 105.77 65.7852 106.207 65.3086 106.207C65.1523 106.48 64.7188 106.617 64.0078 106.617L63.2227 106.828C62.668 106.828 61.6758 106.48 60.2461 105.785L59.3672 105.316C59.2109 105.113 58.8438 104.836 58.2656 104.484C57.4375 103.609 57.0234 103.051 57.0234 102.809V102.762L56.9648 101.719L57.0703 101.613V101.402L56.9648 100.828V100.723C57.1758 100.457 57.2812 100.285 57.2812 100.207C57.1094 100.207 57.0234 100.172 57.0234 100.102V99.9492L57.5859 98.6953C57.75 97.9766 57.875 97.6133 57.9609 97.6055C58.2344 97.2539 58.5117 97.0781 58.793 97.0781C59.1289 96.7891 59.4062 96.3359 59.625 95.7188L60.0938 95.4609L60.8203 94.9453L61.6055 94.6289C61.957 94.4805 62.1328 94.375 62.1328 94.3125V94.207L61.8164 93.7969H61.8633C62.082 94 62.2422 94.1016 62.3438 94.1016L62.4961 93.9023L62.4375 93.8438L62.4961 93.7969L62.3906 93.6914V93.6328H62.4375C62.5078 93.6328 62.543 93.6875 62.543 93.7969H62.707L62.9648 93.5859L62.8594 93.4336V93.375L63.2227 93.4336C63.2227 93.3242 63.2773 93.2695 63.3867 93.2695L63.2227 92.8008V92.7539ZM64.582 92.8008H64.6289V92.9062L64.5352 93.0117H64.4297V92.9648L64.582 92.8008ZM65.0508 93.1641H65.1094V93.2227C65.1094 93.2773 65.0391 93.3281 64.8984 93.375V93.3281L65.0508 93.1641ZM61.9688 93.2695H62.0273L62.1328 93.375L62.0742 93.4336H62.0273L61.9688 93.375V93.2695ZM61.6055 93.6328H61.6641L61.7695 93.7383H61.7109L61.6055 93.6328ZM66.1992 93.7969L66.2461 93.8438V93.9023L65.9883 94.1016L65.8359 94.0547V94.0078C65.8359 93.9453 65.957 93.875 66.1992 93.7969ZM65.4727 96.3516H65.5195C65.9727 96.5156 66.1992 96.6719 66.1992 96.8203C66.2773 96.8203 66.5039 96.9922 66.8789 97.3359H66.7734C66.2031 97.0391 65.8555 96.7812 65.7305 96.5625C65.5586 96.5625 65.4727 96.5078 65.4727 96.3984V96.3516ZM67.0898 96.8203L67.1953 96.9258L67.0312 97.0312L66.9258 96.9258L67.0898 96.8203ZM69.1172 97.2305L69.1758 97.2891V97.3359C69.1758 97.4062 68.9844 97.4609 68.6016 97.5V97.4414C68.6016 97.3398 68.7734 97.2695 69.1172 97.2305ZM69.2227 97.5H69.2812L69.3867 97.6055H69.2227V97.5ZM65.5195 97.6055H65.6719V97.6523L65.5781 97.7578L65.5195 97.6992V97.6055ZM66.1523 97.8633H66.1992L66.3516 98.0156V98.0742H66.2461L66.1523 97.9688V97.8633ZM69.9609 97.8633L70.0078 97.9102V97.9688L69.8555 98.0742L69.7969 98.0156V97.9688L69.9609 97.8633ZM69.0703 98.2734H69.1758V98.332L69.0703 98.4375H68.9648V98.3789L69.0703 98.2734ZM65.8359 98.9062H65.8828L65.9883 99.0117L65.9414 99.0586H65.8359V98.9062ZM66.3516 99.5273H66.457V99.5859L66.3516 99.6797V99.5273ZM64.6289 99.8906L64.6875 99.9492V99.9961L64.6289 100.055H64.582L64.5352 99.9961V99.9492L64.582 99.8906H64.6289ZM64.1602 100.254L64.2188 100.312V100.359L64.1133 100.465H64.0547L63.9609 100.359L64.1602 100.254ZM63.4336 101.098H63.4922V101.145L63.3867 101.25H63.2812L63.4336 101.098ZM62.918 101.508H62.9648V101.613H63.0117C63.0117 101.676 62.8906 101.797 62.6484 101.977H62.543V101.93L62.918 101.508ZM62.2383 102.293H62.3906V102.34C62.3203 102.48 62.2148 102.551 62.0742 102.551L62.0273 102.504V102.445L62.2383 102.293ZM61.7695 102.914V103.078L61.6641 103.184H61.6055V103.078L61.7695 102.914ZM61.3008 103.441L61.3945 103.547L61.2422 103.652L61.1953 103.594V103.547L61.3008 103.441ZM67.3945 105.059L67.4531 105.105V105.164L67.0312 105.469L66.9844 105.422V105.363C67.125 105.16 67.2617 105.059 67.3945 105.059ZM71.5312 91.3242H71.6367L71.7305 91.4297C71.7305 91.4766 71.6641 91.5273 71.5312 91.582L71.3789 91.5234C71.2305 91.7969 71.0938 91.9336 70.9688 91.9336L70.875 92.1914C70.9453 92.3867 71.1133 92.6055 71.3789 92.8477L71.9414 92.4961L72.0352 92.5898L71.4258 92.9414V93.0469C71.8008 93.1719 71.9883 93.3906 71.9883 93.7031C72.082 93.7031 72.168 93.875 72.2461 94.2188C72.6992 94.4062 72.9844 94.5898 73.1016 94.7695V95.2266C73.8828 95.4766 74.2734 95.8672 74.2734 96.3984C74.2734 96.5156 74.4414 96.6328 74.7773 96.75L74.8242 96.7969V96.9023C74.7695 97.0352 74.6523 97.1016 74.4727 97.1016V97.1602L75.2344 97.6641L75.4336 97.5117H75.5859C75.75 97.7695 76.0898 97.9727 76.6055 98.1211C76.7383 98.3789 76.8711 98.5469 77.0039 98.625H77.0625C77.3281 98.5469 77.5469 98.2422 77.7188 97.7109C77.8984 97.2422 78.1328 97.0078 78.4219 97.0078C78.4219 96.8828 78.625 96.6797 79.0312 96.3984H79.6406V96.0352C79.5391 95.918 79.4883 95.8008 79.4883 95.6836C79.4883 95.4961 79.6914 95.293 80.0977 95.0742L80.707 94.2188C80.707 94.0156 81.2148 93.6602 82.2305 93.1523L83.0977 92.6367C83.5273 92.668 83.7773 92.7188 83.8477 92.7891L84 92.5898L84.0586 92.6367L84.1055 92.5898H84.2109V92.6367C84.2109 92.707 84.1406 92.7422 84 92.7422L83.9531 92.7891V92.8945L84.5156 93L84.6094 92.8945H84.668L84.8203 93H84.9141C84.9922 92.9922 85.1953 92.8047 85.5234 92.4375C85.7812 92.4375 85.9531 92.3867 86.0391 92.2852L86.0859 92.3438V92.3906C86.0859 92.4609 86 92.4961 85.8281 92.4961C85.8281 92.5898 85.6094 92.7227 85.1719 92.8945L83.6484 94.4648L83.2969 95.2266C82.7656 95.2969 82.2422 95.4844 81.7266 95.7891C81.7266 96.1953 81.6914 96.3984 81.6211 96.3984L81.668 96.5977L82.1836 96.4453H82.2305C82.1836 96.5391 81.9297 96.6758 81.4688 96.8555L81.4219 97.0078L81.5742 97.4648H81.6211L81.7266 97.3594L81.668 97.1602C82.1055 96.9961 82.4609 96.7734 82.7344 96.4922L82.793 96.5508V96.5977C82.5664 96.8555 82.2617 97.0938 81.8789 97.3125V97.6172L81.9727 97.7109H82.0312C82.3125 97.7109 82.5156 97.6602 82.6406 97.5586H82.7344C82.875 97.5586 83.0625 97.6602 83.2969 97.8633L83.8008 98.1211L83.8477 98.0625H83.9062L84 98.2148L83.9062 98.3203C83.5781 98.3203 83.3398 98.2188 83.1914 98.0156C82.957 98.0156 82.8398 97.9492 82.8398 97.8164L82.4297 97.8633C82.1406 97.8633 81.8711 97.7969 81.6211 97.6641C81.6211 97.7969 81.5352 97.8633 81.3633 97.8633L81.3164 97.6641H81.0586L81.3164 98.2734C81.2383 98.2734 81.1875 98.1875 81.1641 98.0156L81.1172 98.0625H81.0586C80.957 97.9453 80.9062 97.8125 80.9062 97.6641H80.707V97.8633H80.6602L80.5078 97.7578L80.4609 97.9102L80.1562 97.7109H80.0977C79.9492 97.7578 79.5938 98.0977 79.0312 98.7305L77.7656 99.0352L77.6133 99.082V99.1289C77.8867 99.293 78.0234 99.4648 78.0234 99.6445C78.1562 99.6445 78.2227 99.6758 78.2227 99.7383L78.1758 100.301C78.7461 100.59 79.0312 100.773 79.0312 100.852L79.4883 101.367V101.613C79.6602 101.613 79.7461 101.836 79.7461 102.281C80.2227 102.516 80.4609 103.02 80.4609 103.793L80.6602 104.355C80.6602 104.426 80.6094 104.461 80.5078 104.461C80.6406 104.68 80.8086 104.863 81.0117 105.012C81.0117 105.301 81.2656 105.859 81.7734 106.688L81.8789 106.887V106.945H81.7734C81.875 107.047 81.9258 107.266 81.9258 107.602C82.0195 107.602 82.2734 107.871 82.6875 108.41C82.8359 108.41 83.0547 108.629 83.3438 109.066V109.172H83.25C83.1797 109.172 83.1445 109.102 83.1445 108.961L82.4883 108.656C82.0117 108.148 81.5195 107.711 81.0117 107.344C81.0117 107.078 80.7773 106.824 80.3086 106.582C80.3086 106.488 80.0352 106.285 79.4883 105.973C79.4102 105.902 79.3281 105.668 79.2422 105.27L79.2891 105.117C79.0156 104.906 78.5938 104.719 78.0234 104.555C78.0234 104.5 77.8047 104.383 77.3672 104.203C77.2969 104.047 77.043 103.707 76.6055 103.184C76.4883 102.926 76.3008 102.691 76.043 102.48C75.707 101.848 75.3867 101.406 75.082 101.156C74.5742 101.867 74.0508 102.223 73.5117 102.223C73.5117 102.402 73.2734 102.59 72.7969 102.785C72.7969 103.152 72.543 103.473 72.0352 103.746L72.0938 103.945C72.0234 104.148 71.8867 104.25 71.6836 104.25H71.5312C71.5312 104.359 71.3789 104.445 71.0742 104.508C71.0742 104.68 70.957 104.766 70.7227 104.766C70.3398 105.266 69.9336 105.516 69.5039 105.516C69.4883 105.586 69.2031 105.758 68.6484 106.031L67.4766 106.84H67.4297V106.793C67.7109 106.465 68.25 106.074 69.0469 105.621C69.1875 105.543 69.4258 105.309 69.7617 104.918C70.043 104.918 70.3789 104.68 70.7695 104.203C70.8789 104.203 71.0156 104.035 71.1797 103.699C71.7188 103.207 72.293 102.836 72.9023 102.586C72.9023 102.242 73.0859 101.918 73.4531 101.613L74.2148 100.957C74.2852 100.801 74.3555 100.715 74.4258 100.699C74.4258 100.566 74.0352 100.23 73.2539 99.6914C72.8477 99.3945 72.6445 99.1562 72.6445 98.9766C72.5977 98.9766 72.5312 98.8438 72.4453 98.5781C72.0703 98.5312 71.6992 98.1406 71.332 97.4062C70.9492 97.1016 70.6758 96.9492 70.5117 96.9492H70.4648V97.0078L70.6641 97.3125V97.4648C70.5625 97.4648 70.5117 97.5469 70.5117 97.7109L70.6172 97.8164V97.9688L70.5117 98.0625H70.418C70.3086 98.0625 70.2422 97.8945 70.2188 97.5586C70.3047 97.5508 70.3711 97.4688 70.418 97.3125C70.3398 97.3125 70.2734 97.1406 70.2188 96.7969L70.0664 96.9023C69.9961 96.9023 69.9609 96.8516 69.9609 96.75H69.9141L69.8672 96.7969H69.8086C69.8086 96.8594 69.9102 96.9453 70.1133 97.0547V97.1016L70.0195 97.207C69.6758 97.0352 69.5039 96.8477 69.5039 96.6445L69.5625 96.5977C69.1562 96.5664 68.9531 96.4297 68.9531 96.1875H68.8945L68.7539 96.293H68.6484L68.543 96.1875V96.1406C68.6992 96.1406 68.9023 95.9883 69.1523 95.6836C69.0508 95.582 68.4102 95.2617 67.2305 94.7227V94.6758C67.2305 94.5977 67.3125 94.5469 67.4766 94.5234C68.3359 95.125 68.8438 95.4258 69 95.4258L69.0469 95.3789V95.332H68.9531V95.2266L69 95.1797V95.1328C68.5312 94.9922 68.2969 94.8906 68.2969 94.8281L68.3438 94.7695L69.1992 95.0273V94.9219L68.4492 94.2656H68.543L69.6094 94.9805L69.7148 94.875H69.8672V94.9805C69.7422 94.9805 69.6562 95.0781 69.6094 95.2734H69.5039V95.3789L69.6094 95.4844H69.6562L70.0195 95.2734L69.9609 95.2266V95.1797C70.2031 95.0469 70.3359 94.9297 70.3594 94.8281L70.2188 94.6758V94.4648L70.3125 94.3125V94.2188C70.2812 94.1172 70.1836 94.0664 70.0195 94.0664L69.8086 94.1133L69.6562 93.6562H69.3047C69.3047 93.5547 69.2539 93.5039 69.1523 93.5039L69.1055 93.457V93.3516L69.1992 93.1992C68.9336 92.9102 68.8008 92.7227 68.8008 92.6367L68.8477 92.5898H68.8945L69.1992 92.6953L69.2578 92.3906H69.3047L69.4102 92.4961L69.3516 92.7422L69.6094 93.1992H69.8672C69.9453 93.1992 69.9961 93.1133 70.0195 92.9414C69.918 92.8398 69.7969 92.7891 69.6562 92.7891L69.5625 92.543L69.6562 92.4375H69.8672C69.9688 92.5859 70.1836 92.7734 70.5117 93L70.4648 93.0469V93.0938H70.6641L70.6172 92.7422L70.7695 92.6367L70.7227 92.4375C70.7227 92.1406 70.8555 91.9062 71.1211 91.7344C71.1211 91.4609 71.2578 91.3242 71.5312 91.3242ZM69.7617 91.6758H69.8672L70.0195 91.8281L69.9141 91.9336H69.8672L69.7617 91.8281V91.6758ZM83.8008 91.6758L83.9062 91.7812L83.7539 91.8867L83.6953 91.8281V91.7812L83.8008 91.6758ZM71.6836 91.7812L71.7891 91.8867L71.7305 91.9336H71.6836L71.5781 91.8281L71.6367 91.7812H71.6836ZM87.2461 91.7812L87.3516 91.8867C87.3516 91.9492 87.0312 92.0664 86.3906 92.2383V92.1328L87.2461 91.7812ZM68.1914 92.1914C68.3789 92.1914 68.5312 92.293 68.6484 92.4961L68.6016 92.543C68.2578 92.4648 68.0859 92.3789 68.0859 92.2852L68.1914 92.1914ZM68.1914 92.8477L68.3438 93L68.2969 93.0469V93.0938L68.0859 92.9414L68.1914 92.8477ZM67.5352 93.1523H67.582C68.1602 93.6602 68.4492 93.9453 68.4492 94.0078L68.2969 94.1602V94.0664L68.3438 94.0078V93.9609L67.3828 93.3516L67.5352 93.1523ZM85.7344 93.1523V93.1992L85.6289 93.3047L85.582 93.2461V93.1992L85.6289 93.1523H85.7344ZM73.3008 93.3516L73.3594 93.3984V93.457L73.3008 93.5039H73.207V93.457L73.3008 93.3516ZM69.1055 93.8555H69.1992L69.2578 94.2188L69.1992 94.2656H69.1055L69 94.1602L69.1055 93.8555ZM66.3633 93.9141H66.4688C66.5625 93.9297 66.7656 94.1133 67.0781 94.4648H66.7734C66.7734 94.3633 66.7227 94.3125 66.6211 94.3125L66.2578 94.0078L66.3633 93.9141ZM69.457 94.1133L69.6094 94.2656L69.5625 94.3125H69.457L69.3516 94.2188L69.457 94.1133ZM83.6484 95.3789L83.7539 95.4844L83.6953 95.5312H83.543V95.4844L83.6484 95.3789ZM83.1445 95.7891H83.25L83.3438 95.8828C82.8516 96.2578 82.4805 96.4453 82.2305 96.4453C82.5898 96.2344 82.8945 96.0156 83.1445 95.7891ZM68.2383 96.0938L68.3438 96.1875C68.1328 96.1875 67.8281 96.3594 67.4297 96.7031L67.3242 96.5508C67.3242 96.4805 67.6289 96.3281 68.2383 96.0938ZM66.5625 96.5508L66.7148 96.7031L66.5625 96.8555L66.4102 96.7031L66.5625 96.5508ZM84.1055 97.8164L84.2109 97.9102V97.9688H84.1055L84 97.8633L84.0586 97.8164H84.1055ZM84.3047 98.2148H84.3633C84.5195 98.2148 84.6523 98.3164 84.7617 98.5195C85.1367 98.5742 85.3242 98.6602 85.3242 98.7773V98.8242L85.1719 98.9766H85.125C84.8438 98.8516 84.6055 98.6992 84.4102 98.5195L84.457 98.3203C84.3555 98.3203 84.3047 98.2852 84.3047 98.2148ZM84.9141 99.2344H84.9727L85.0664 99.3398L84.9727 99.4336H84.9141L84.8203 99.3398L84.9141 99.2344ZM73.6641 100.699H73.7109L73.8164 100.805L73.7578 100.852H73.7109L73.6641 100.805V100.699ZM72.4922 100.805L72.7031 100.957L72.5508 101.109H72.3398L72.1406 100.91L72.4922 100.805ZM82.3828 106.84C82.9219 106.84 83.1914 106.977 83.1914 107.25L83.25 107.191H83.2969V107.297L82.9453 107.344C82.8516 107.078 82.6641 106.945 82.3828 106.945V106.84ZM67.3242 106.887C67.3242 106.973 67.1914 107.059 66.9258 107.145C67.0117 106.973 67.1445 106.887 67.3242 106.887ZM82.125 106.887H82.2773V106.992H82.125V106.887ZM66.5625 107.297H66.668L66.5625 107.402H66.4688L66.5625 107.297ZM83.543 107.297C83.9492 107.32 84.1523 107.387 84.1523 107.496V107.648L84.0586 107.754C83.832 107.52 83.6602 107.402 83.543 107.402V107.297Z" fill="white"/>
<g clip-path="url(#clip0_14_639)">
<rect x="28" y="117" width="85" height="85" fill="#0F104C" fill-opacity="0.5"/>
<path d="M28.2 185.2H44.8V201.8H28.2V185.2Z" stroke="#5F0D16" stroke-width="0.4"/>
<path d="M28.2 168.2H44.8V184.8H28.2V168.2Z" stroke="#5F0D16" stroke-width="0.4"/>
<path d="M28.2 151.2H44.8V167.8H28.2V151.2Z" stroke="#5F0D16" stroke-width="0.4"/>
<path d="M28.2 134.2H44.8V150.8H28.2V134.2Z" stroke="#5F0D16" stroke-width="0.4"/>
<path d="M28.2 117.2H44.8V133.8H28.2V117.2Z" stroke="#5F0D16" stroke-width="0.4"/>
<path d="M45.2 185.2H61.8V201.8H45.2V185.2Z" stroke="#5F0D16" stroke-width="0.4"/>
<path d="M45.2 168.2H61.8V184.8H45.2V168.2Z" stroke="#5F0D16" stroke-width="0.4"/>
<path d="M45.2 151.2H61.8V167.8H45.2V151.2Z" stroke="#5F0D16" stroke-width="0.4"/>
<path d="M45.2 134.2H61.8V150.8H45.2V134.2Z" stroke="#5F0D16" stroke-width="0.4"/>
<path d="M45.2 117.2H61.8V133.8H45.2V117.2Z" stroke="#5F0D16" stroke-width="0.4"/>
<path d="M62.2 185.2H78.8V201.8H62.2V185.2Z" stroke="#5F0D16" stroke-width="0.4"/>
<path d="M62.2 168.2H78.8V184.8H62.2V168.2Z" fill="white"/>
<path d="M62.2 168.2H78.8V184.8H62.2V168.2Z" stroke="#5F0D16" stroke-width="0.4"/>
<path d="M62.2 151.2H78.8V167.8H62.2V151.2Z" fill="#EB1E1E"/>
<path d="M62.2 151.2H78.8V167.8H62.2V151.2Z" stroke="#5F0D16" stroke-width="0.4"/>
<path d="M62.2 134.2H78.8V150.8H62.2V134.2Z" fill="white"/>
<path d="M62.2 134.2H78.8V150.8H62.2V134.2Z" stroke="#5F0D16" stroke-width="0.4"/>
<path d="M62.2 117.2H78.8V133.8H62.2V117.2Z" stroke="#5F0D16" stroke-width="0.4"/>
<path d="M79.2 185.2H95.8V201.8H79.2V185.2Z" stroke="#5F0D16" stroke-width="0.4"/>
<path d="M79.2 168.2H95.8V184.8H79.2V168.2Z" stroke="#5F0D16" stroke-width="0.4"/>
<path d="M79.2 151.2H95.8V167.8H79.2V151.2Z" fill="white"/>
<path d="M79.2 151.2H95.8V167.8H79.2V151.2Z" stroke="#5F0D16" stroke-width="0.4"/>
<path d="M79.2 134.2H95.8V150.8H79.2V134.2Z" stroke="#5F0D16" stroke-width="0.4"/>
<path d="M79.2 117.2H95.8V133.8H79.2V117.2Z" stroke="#5F0D16" stroke-width="0.4"/>
<path d="M96.2 185.2H112.8V201.8H96.2V185.2Z" stroke="#5F0D16" stroke-width="0.4"/>
<path d="M96.2 168.2H112.8V184.8H96.2V168.2Z" stroke="#5F0D16" stroke-width="0.4"/>
<path d="M96.2 151.2H112.8V167.8H96.2V151.2Z" stroke="#5F0D16" stroke-width="0.4"/>
<path d="M96.2 134.2H112.8V150.8H96.2V134.2Z" stroke="#5F0D16" stroke-width="0.4"/>
<path d="M96.2 117.2H112.8V133.8H96.2V117.2Z" stroke="#5F0D16" stroke-width="0.4"/>
</g>
<rect x="28.5" y="117.5" width="84" height="84" stroke="url(#paint1_linear_14_639)"/>
<defs>
<linearGradient id="paint0_linear_14_639" x1="70.5" y1="17" x2="70.5" y2="83" gradientUnits="userSpaceOnUse">
<stop stop-color="#123BD5"/>
<stop offset="1" stop-color="#CD2237"/>
</linearGradient>
<linearGradient id="paint1_linear_14_639" x1="31.7979" y1="120.436" x2="138.59" y2="226.777" gradientUnits="userSpaceOnUse">
<stop stop-color="#B17BFF"/>
<stop offset="1" stop-color="#FF0751"/>
</linearGradient>
<clipPath id="clip0_14_639">
<rect x="28" y="117" width="85" height="85" fill="white"/>
</clipPath>
</defs>
</svg>
