<svg width="142" height="218" viewBox="0 0 142 218" fill="none" xmlns="http://www.w3.org/2000/svg">
<rect x="0.5" y="0.5" width="141" height="217" rx="4.5" fill="#191515"/>
<rect x="0.5" y="0.5" width="141" height="217" rx="4.5" stroke="#B17BFF"/>
<path d="M40.98 80.2V79.3C43.68 75.34 46.2 71.2 48.45 66.88C50.61 62.56 51.96 57.97 52.5 53.02L54.48 52.66L57.81 53.47L58.62 55.9C56.64 59.68 54.48 63.46 52.41 67.15C50.25 70.84 48.09 74.53 45.93 78.31L45.12 78.49L44.22 78.31C43.68 78.67 43.14 79.12 42.69 79.57C42.33 80.02 41.7 80.2 40.98 80.2ZM79.14 79.12L75.27 78.49L72.66 78.85C71.31 78.49 69.78 78.13 68.25 77.86C66.63 77.59 65.1 77.14 63.84 76.42C63.12 75.7 62.58 74.89 62.22 74.08C61.86 73.27 61.68 72.46 61.68 71.29L61.95 68.14L61.68 60.85L62.49 49.69H62.76L64.74 51.04L65.82 55.09C65.55 57.61 65.28 60.13 64.92 62.65C64.65 65.17 64.47 67.78 64.47 70.48L65.19 73.27C66.9 74.08 68.7 74.44 70.77 74.35C72.66 74.26 74.64 74.26 76.53 74.26C79.23 73.72 81.84 73.27 84.36 72.82C86.97 72.55 89.49 71.83 91.83 70.75L92.1 68.86L91.02 62.11H91.56L94.35 65.62L95.43 66.25L95.7 67.06C97.05 67.87 98.67 68.32 100.38 68.23C102.09 68.14 103.62 68.68 104.97 69.67V70.21H104.34V71.92L104.61 72.64L103.71 73.45H103.26C103.26 73.99 103.08 74.26 102.63 74.35C102.27 74.44 101.91 74.62 101.55 74.89C98.49 76.78 94.89 77.95 91.11 78.4C87.15 78.85 83.19 79.12 79.14 79.12ZM76.53 58.6C75.9 58.24 75.09 57.97 74.28 57.7C73.47 57.61 72.66 57.25 71.94 56.71C71.13 55.81 70.32 54.82 69.51 53.83C68.7 52.93 68.25 51.76 68.07 50.41H69.69C71.22 50.86 72.57 51.4 74.01 52.12C75.45 52.84 76.71 53.65 77.97 54.55C78.6 54.91 78.87 55.45 78.87 56.17C78.87 56.89 78.96 57.52 79.14 58.06L76.53 58.6ZM52.5 51.04C49.8 49.78 47.73 47.8 46.38 45.19C45.12 42.58 43.32 40.42 41.16 38.62H41.79L45.66 39.34L51.42 34.3V34.57C50.88 35.56 50.43 36.73 50.07 37.9C49.71 39.07 49.62 40.42 49.8 41.86L51.96 46H53.4L59.16 44.2V38.08L58.89 35.56H58.26L57 36.1L55.56 35.92L53.4 32.95V32.05H54.12L55.29 32.32L58.26 31.51V30.79C57.99 30.34 57.63 29.98 57.27 29.53C56.82 29.08 56.64 28.54 56.64 27.73H56.46L56.19 27.28L56.46 26.74L59.43 26.47C60.06 26.65 60.69 26.74 61.23 26.83C61.86 26.92 62.49 27.28 63.03 27.73L63.66 29.71H65.46C66.81 29.44 68.16 29.17 69.24 28.81C70.41 28.45 71.58 28 72.66 27.55V27.01H73.83C75.54 27.64 77.16 28.18 78.87 28.54C80.49 28.9 82.11 29.62 83.64 30.79L84.09 32.95C83.37 33.49 82.56 33.67 81.66 33.58C80.67 33.49 79.95 33.76 79.41 34.3L74.73 40.78H74.1V41.32L71.67 44.02L69.69 44.56L69.33 45.1L60.6 48.07L59.16 49.42V48.07H58.26L53.85 50.05L53.67 50.77L52.5 51.04ZM69.15 41.05C69.69 39.61 70.05 38.17 70.14 36.55C70.23 35.11 70.23 33.49 70.23 31.87H69.15L63.84 33.49L61.68 43.12H62.49L69.15 41.05ZM46.92 30.52C48.63 28.63 50.43 26.83 52.32 24.76C54.12 22.87 55.56 20.8 56.64 18.64L57.81 14.5L60.6 13.96L66.45 16.39L67.8 19.45C64.47 21.61 61.05 23.5 57.36 25.03C53.76 26.74 50.25 28.45 46.92 30.52Z" fill="url(#paint0_linear_14_366)"/>
<path d="M38.9297 91.2773H38.9648L39.0352 91.3477L39 91.3828H38.9648L38.9297 91.3477V91.2773ZM40.3242 91.2773V91.3125L40.0664 91.7578C40.168 91.7578 40.2188 91.793 40.2188 91.8633L40.4414 91.7578V91.793L40.3711 91.8984V91.9805L40.5117 92.0156L40.6992 91.8281V91.8633L40.5938 92.0156H40.6641V92.0508L40.6289 92.1562C40.6836 92.1562 40.8164 92.0586 41.0273 91.8633V91.8984L40.8047 92.2734L40.9922 92.3086C40.9922 92.2539 41.0547 92.2188 41.1797 92.2031L41.0625 92.3438V92.4141H41.1445V92.4609L41.0625 92.5664C41.1641 92.5664 41.2148 92.5898 41.2148 92.6367L41.1797 92.6836L41.3203 92.7539C41.5938 92.7539 41.7695 92.5078 41.8477 92.0156C42.0898 91.8828 42.2109 91.7969 42.2109 91.7578H42.2812L42.2461 91.793V91.8633L42.5391 91.9453L43.3125 91.3477H43.3594L43.4297 91.4297V91.5L43.2422 91.5352V91.5L42.6914 91.9453L42.832 92.2383C42.832 92.3711 42.7109 92.5195 42.4688 92.6836H42.3984V92.7539C42.8203 93.1445 43.1875 93.3398 43.5 93.3398C43.5 93.4023 43.6836 93.5391 44.0508 93.75C44.0508 93.9297 44.3359 94.0391 44.9062 94.0781C45.1016 94.1953 45.2852 94.3789 45.457 94.6289C45.6445 94.6289 45.8398 94.9375 46.043 95.5547C46.043 95.6797 46.1797 95.9023 46.4531 96.2227L46.5234 96.7734H46.5586C46.6133 96.7734 46.6523 96.6602 46.6758 96.4336L46.8984 96.2227L46.9336 96.2578H47.1211L47.2969 96.2227V96.293C47.2266 96.293 47.1914 96.3398 47.1914 96.4336L47.2617 96.5156V96.5508C47.2617 96.5977 47.1992 96.6211 47.0742 96.6211C47.0352 96.6992 46.9492 96.7383 46.8164 96.7383L46.7812 96.9141C46.7812 96.9922 46.8203 97.0312 46.8984 97.0312L46.9336 97.0664V97.1016L46.7461 97.2188V97.2539C46.8086 97.4414 47.0898 97.6602 47.5898 97.9102V97.9922H47.5547C47.3828 97.9922 47.1133 97.8203 46.7461 97.4766C46.5508 97.4766 46.4531 97.6094 46.4531 97.875L46.4883 98.0273H46.3828V98.1328H46.4883V98.168C46.4883 98.2227 46.4531 98.25 46.3828 98.25V98.2852L46.418 98.4258C46.3164 98.5742 46.2656 98.6875 46.2656 98.7656L46.3828 98.8711V98.9414H46.3359L46.1953 98.8711L46.1602 99.0586L46.1953 99.1641L46.1602 99.1289H46.125L46.0781 99.1641V99.1992L46.125 99.3516H46.0781L46.043 99.3164H46.0078L45.7148 99.9023L45.1289 100.5C45.1289 100.578 44.9688 100.809 44.6484 101.191V101.273H44.6133L44.6484 101.309V101.496C44.5078 101.738 44.3828 101.859 44.2734 101.859V101.895C44.8906 101.895 45.2969 102.008 45.4922 102.234C46.1562 102.773 46.5859 103.25 46.7812 103.664C46.9766 103.828 47.1367 104.113 47.2617 104.52L47.7773 105.211L47.7422 105.328C47.8516 105.602 47.9375 105.762 48 105.809L48.4805 106.172L48.9258 106.395L49.1133 106.43L49.2891 106.289H49.3242C49.418 106.289 49.4805 106.422 49.5117 106.688C49.4648 106.703 49.418 106.766 49.3711 106.875L49.1133 106.805L48.9258 106.84L48.7383 106.77C49.0586 107.09 49.5742 107.699 50.2852 108.598L50.6602 108.715L50.6953 108.68V108.75C50.6172 108.75 50.5781 108.773 50.5781 108.82C50.6797 108.992 51.0117 109.277 51.5742 109.676C51.5742 109.746 51.625 109.781 51.7266 109.781V109.852H51.6914C51.2695 109.516 50.9492 109.309 50.7305 109.23C50.7305 109.191 50.6094 109.082 50.3672 108.902C50.0781 108.621 49.8047 108.41 49.5469 108.27C49.0391 107.941 48.6953 107.648 48.5156 107.391C48.125 107.156 47.9297 106.984 47.9297 106.875C47.8281 106.875 47.582 106.738 47.1914 106.465C47.0508 106.465 46.8398 106.281 46.5586 105.914C46.5586 105.812 46.2266 105.492 45.5625 104.953C45.3281 104.727 45.0234 104.543 44.6484 104.402L43.875 103.781C43.8047 103.656 43.5938 103.531 43.2422 103.406L43.1367 103.266V103.219H43.1719L43.3594 103.266L43.3945 103.219C43.3164 103.023 43.1172 102.926 42.7969 102.926L42.6914 102.855L42.5391 102.891C42.1484 102.648 41.9531 102.453 41.9531 102.305C41.9531 102.234 41.8281 102.012 41.5781 101.637V101.566L41.6602 101.496H41.7656L41.8477 101.566V101.602L41.8008 101.637L42.1055 102.27L42.0586 102.375L42.1055 102.41H42.1406C42.6797 102.066 42.9492 101.746 42.9492 101.449C42.9492 101.309 43.0469 101.238 43.2422 101.238L43.5703 100.418C43.6719 100.418 43.8086 100.113 43.9805 99.5039C44.2227 99.2461 44.3594 99.0469 44.3906 98.9062H44.3555L44.4258 98.7656L44.3906 98.7305L44.4609 98.6484L44.2383 98.6133V98.6484L43.6523 98.4727L43.4648 98.6484H43.4297V98.5781L43.5352 98.4258H43.4297V98.3555L43.5703 98.3906L43.6875 98.3555C43.8203 98.4336 44.0039 98.4727 44.2383 98.4727V98.3555H44.2734L44.1328 98.1328L43.9453 98.2148V98.168L43.6875 98.25V98.2148L43.7227 98.168V98.1328L43.6523 98.0625L43.793 97.9922V97.957L43.3945 97.9102V97.8398H43.6523L43.8281 97.8047V97.7695C43.7812 97.7695 43.6953 97.6211 43.5703 97.3242V97.1719C43.6406 97.1719 43.7148 97.2969 43.793 97.5469L44.0977 97.4766V97.4297L44.0508 97.3945V97.3594L44.1328 97.2891L44.0156 97.1719L44.168 97.0664L43.9453 96.6211L43.9805 96.5859H44.0156C44.2031 96.9297 44.3867 97.1016 44.5664 97.1016L44.6133 96.9961C44.4492 96.918 44.2031 96.4883 43.875 95.707C43.4922 95.1602 43.1211 94.8516 42.7617 94.7812C42.5586 94.5781 42.2773 94.3828 41.918 94.1953L41.8828 94.2305C41.8516 94.0586 41.7891 93.9727 41.6953 93.9727L41.7305 93.9375V93.8906L41.5781 93.8203H41.5078C41.5078 93.9375 41.4219 94.0859 41.25 94.2656V94.3359C41.5391 94.4297 41.75 94.5664 41.8828 94.7461H41.8008C41.6602 94.6289 41.5156 94.5664 41.3672 94.5586L41.1797 94.3711H41.1445V94.4883L41.1797 94.5234V94.5586H41.1445L40.9922 94.4883L40.8516 94.5234C40.8516 94.6875 40.9492 94.8086 41.1445 94.8867L41.25 95.1094L41.2148 95.332C41.2148 95.6758 41.2656 95.8477 41.3672 95.8477L41.4375 95.918C41.2891 96.707 41.1406 97.1016 40.9922 97.1016L41.0273 97.1367V97.4766C40.8789 97.8125 40.8047 98.2305 40.8047 98.7305L40.7344 99.0938C40.7812 99.1875 40.8047 99.3242 40.8047 99.5039V99.5742L40.6641 99.8672L40.957 100.898C41.1211 100.898 41.2188 100.949 41.25 101.051V101.086L40.957 101.93L40.9219 101.977V102.82C40.9219 103.367 40.9961 103.871 41.1445 104.332V104.402L41.1797 105.293L41.1445 105.398L41.3672 105.809C41.3672 106.238 41.3281 106.496 41.25 106.582C41.2969 106.621 41.3594 107.137 41.4375 108.129C41.4844 108.129 41.5312 108.238 41.5781 108.457C41.6328 108.465 41.6836 108.527 41.7305 108.645C41.6602 108.887 41.5977 109.008 41.543 109.008L41.4375 108.938H41.4023L41.4375 109.16L41.4023 109.195V109.23L41.4375 109.336L41.4023 109.371H41.3672L41.4023 109.418L41.3203 109.852L41.4023 110.004L41.3672 110.262V110.414L41.4375 111.188L41.4023 111.223V111.258L41.4375 111.293L41.4023 111.48L41.4375 111.621H41.4023L41.3203 111.551V111.41L41.1445 110.262L41.1797 110.156C41.0312 110.094 40.957 109.945 40.957 109.711C40.9102 109.711 40.8867 109.746 40.8867 109.816L40.8516 109.852H40.8047L40.7695 109.816L40.6641 109.934C40.6172 109.738 40.5195 109.641 40.3711 109.641C40.2227 109.523 40.1484 109.336 40.1484 109.078L40.2539 108.902V108.855H40.1836V108.785H40.2539V108.75L39.9961 108.387H39.9609L39.8555 108.457L39.6328 108.199L39.5508 108.457L39.5977 108.492V108.527C39.5273 109.059 39.4531 109.355 39.375 109.418L39.4102 109.453V109.559L39.375 109.781L39.4102 109.898L39.2578 110.191L39.293 110.227H39.3281L39.293 110.672V110.848H39.2227V110.812C39.2227 110.133 39.1602 109.617 39.0352 109.266V108.785L39.0703 108.562C39.0234 108.438 39 108.219 39 107.906V107.684L39.0352 107.648C38.8867 107.273 38.7773 106.793 38.707 106.207V106.137C38.7773 105.629 38.8398 105.359 38.8945 105.328L38.8594 105.176L38.8945 105.141H38.9297L38.8945 105.105V105.035L39 104.848L38.8945 104.625V104.52C38.8945 104.238 38.9297 103.93 39 103.594C38.9766 103.484 38.9141 103.41 38.8125 103.371L38.8945 103.148L38.8125 103.078L38.8945 102.785C38.8164 102.785 38.7773 102.758 38.7773 102.703V102.668L38.8125 102.527L38.707 102.234C38.5586 102.234 38.4844 102.148 38.4844 101.977L38.5195 101.414L38.4492 100.898L38.4844 100.535C38.4219 100.395 38.3242 99.9883 38.1914 99.3164C38.1602 99.3164 38.1211 99.2305 38.0742 99.0586L38.1211 98.8359C38.0352 98.3125 37.9492 98.0039 37.8633 97.9102V97.1016C37.957 97.0391 38.0156 96.5586 38.0391 95.6602L38.0039 95.625H37.9688L37.8984 95.707L37.9336 95.8125C37.8867 95.8125 37.8477 95.875 37.8164 96L37.6055 96.0703H37.5586V95.9648H37.4883L37.2305 96.1055L37.1953 96.0703V96.0352C37.3203 95.8867 37.3828 95.7773 37.3828 95.707L37.2305 95.5547L37.3477 95.4492L37.4883 95.4844C37.5898 95.4453 37.6406 95.4062 37.6406 95.3672V95.2266L37.5586 95.1094C37.5586 95.0625 37.6094 95.0391 37.7109 95.0391V95.0039L37.6406 94.8867V94.8516C37.7578 94.8516 37.8164 94.8164 37.8164 94.7461L37.6758 94.6641L37.7109 94.5586L37.4883 94.3008V94.2305H37.5586L37.7461 94.3711L37.7109 94.4062C37.7734 94.6328 37.8711 94.7461 38.0039 94.7461V94.7109L37.8984 94.4531V94.3359L37.9336 93.7148C37.7539 93.543 37.6172 93.457 37.5234 93.457L37.4883 93.4922L37.5234 93.5273V93.5977C37.4297 93.5977 37.3828 93.6602 37.3828 93.7852C37.2344 93.7852 37.1602 93.8203 37.1602 93.8906C37.2148 93.8906 37.25 93.9531 37.2656 94.0781L37.1602 94.1133L37.1953 94.3008H37.1602C37.1133 94.3008 37.0898 94.2656 37.0898 94.1953L37.0547 94.2305H36.8672C36.7422 94.2305 36.6797 94.168 36.6797 94.043C36.5625 94.043 36.5039 94.0195 36.5039 93.9727L36.7617 93.8555V93.7852C36.6836 93.7852 36.582 93.6016 36.457 93.2344C36.707 93.5 36.832 93.6836 36.832 93.7852L36.8672 93.75H36.9023L37.0898 93.7852V93.7148C36.9414 93.7148 36.8672 93.6016 36.8672 93.375L37.0195 93.3398C36.9805 93.1211 36.9062 93.0117 36.7969 93.0117L36.8672 92.9414L36.832 92.8945V92.6016L36.9844 92.4141V92.3438L36.9023 92.0508V91.9805C36.957 91.9805 37.0078 92.0781 37.0547 92.2734L37.1602 92.3438C37.2305 92.3438 37.2656 92.2812 37.2656 92.1562H37.3828C37.3828 92.2422 37.4297 92.3281 37.5234 92.4141V92.4609L37.6758 92.3438V92.4141L37.6055 92.6016L37.7812 92.7891H37.8164L37.7109 93.0469V93.082L37.8633 93.2344H37.9336C38.0586 93.2344 38.1328 93.1953 38.1562 93.1172L38.1211 93.0117H38.1562L38.2266 92.7891L37.8164 92.4961V92.4141H37.8633L38.3438 92.7539C38.4609 92.7227 38.5195 92.6836 38.5195 92.6367L38.4844 92.6016C38.5547 92.5938 38.6055 92.5312 38.6367 92.4141L38.4492 92.2383H38.4844L38.7422 92.3789V92.3086L38.6719 92.0859H38.707C38.7539 92.0859 38.7773 92.125 38.7773 92.2031H38.8594V92.1562L38.8125 92.1211V92.0859C38.9141 92.0859 38.9648 92.0625 38.9648 92.0156C38.9414 91.9219 38.8555 91.7969 38.707 91.6406V91.6055H38.7773L39.1523 91.9453V91.8633H39.2227V92.0508H39.2578L39.4102 91.8984V91.8633C39.3477 91.8633 39.2617 91.7891 39.1523 91.6406V91.6055H39.1875C39.3594 91.6992 39.4453 91.7852 39.4453 91.8633L39.5156 91.793L39.5508 91.8281H39.6328L39.5977 91.793V91.6875L39.668 91.6055L39.8086 91.6406L39.8555 91.4648H39.9258V91.6406L39.9961 91.7227C40.1602 91.4492 40.2695 91.3008 40.3242 91.2773ZM36.7266 91.6875L36.7969 91.793V91.8281C36.6953 91.7891 36.6445 91.7539 36.6445 91.7227L36.6797 91.6875H36.7266ZM36.832 91.8633L36.9023 91.9453V91.9805L36.832 91.8984V91.8633ZM43.2773 91.8633L43.3125 91.8984V91.9453L43.2773 91.9805H43.207V91.9453L43.2773 91.8633ZM38.3438 92.5312H38.3789L38.4492 92.6016H38.3438V92.5312ZM37.0547 94.6641H37.0898V94.7812H36.9844V94.7461L37.0547 94.6641ZM42.3984 95.332H42.4336L42.5039 95.4023L42.2812 95.5195L42.2461 95.4844V95.4492L42.3984 95.332ZM47.4141 96.5859H47.5195V96.6562H47.4141V96.5859ZM43.0195 96.8086L43.1016 96.8789H42.9492L43.0195 96.8086ZM43.875 97.582V97.6172L43.9453 97.6875H44.0977L44.168 97.6172V97.5469L43.875 97.582ZM42.4688 97.7344H42.6211V97.8398H42.5742L42.4688 97.8047V97.7344ZM44.6133 97.9102L44.7188 97.957V97.8398H44.6836L44.6133 97.9102ZM44.4961 97.957L44.5664 98.0625C44.5664 98.1328 44.4961 98.168 44.3555 98.168V98.3203L44.3086 98.5078L44.4961 98.3555L44.4609 98.25H44.4961C44.5742 98.25 44.6133 98.1641 44.6133 97.9922L44.5664 97.957H44.4961ZM46.9688 98.3906H47.0039C47.1758 98.4766 47.3125 98.5898 47.4141 98.7305H47.3789C47.2227 98.7305 47.0859 98.6172 46.9688 98.3906ZM48.1875 98.6836H48.3281V98.7656H48.1875V98.6836ZM46.418 99.3516H46.4883V99.4688H46.418V99.3516ZM46.2305 99.5039C46.3477 99.5039 46.4727 99.6641 46.6055 99.9844C46.4258 99.9141 46.2891 99.7773 46.1953 99.5742L46.2305 99.5391V99.5039ZM43.2773 105.176V105.211L43.1719 105.363L43.3594 105.434C43.2891 105.676 43.1641 105.836 42.9844 105.914H42.7969L42.6562 105.809L42.4688 105.844L42.5742 105.691L42.5391 105.469L42.7969 105.293L43.1367 105.328L43.2773 105.176ZM44.0977 105.176H44.2031L44.2734 105.258L44.2031 105.328H44.0508L43.9805 105.258L44.0977 105.176ZM43.793 105.258H43.9102V105.328H43.7227L43.793 105.258ZM43.5 105.328H43.7227L43.6523 105.398H43.4297L43.5 105.328ZM42.8789 106.207L42.9141 106.254V106.289L42.8789 106.324H42.832L42.7969 106.289V106.254L42.832 106.207H42.8789ZM40.1484 110.707L40.1836 110.742V110.777C40.1836 110.902 40.1445 110.977 40.0664 111L40.0312 110.965V110.93C40.0547 110.781 40.0938 110.707 40.1484 110.707ZM55.2656 91.6289H55.6758C56.2383 91.6289 56.5977 91.8477 56.7539 92.2852C56.9102 92.4805 57.1016 92.9336 57.3281 93.6445C57.3828 93.6445 57.4492 93.8516 57.5273 94.2656C57.6367 94.3594 57.6914 94.4688 57.6914 94.5938H57.7383L58.1836 94.2188H58.2305L57.8203 94.7578C57.9453 94.7578 58.0391 94.9648 58.1016 95.3789H58.4766V95.4609H58.2656L58.1484 95.5781C58.1484 95.8516 58.2578 96.5117 58.4766 97.5586C58.4766 97.7148 58.5586 97.9336 58.7227 98.2148L58.6406 99.2461C58.6406 99.4102 58.8203 99.4922 59.1797 99.4922C59.1797 99.4453 59.4375 99.3633 59.9531 99.2461H60.1289L60.2461 99.3281H60.375L60.8203 99.3633L61.0664 99.2812L61.0312 99.082L61.1484 99.1641L61.2305 99.082H61.3125V99.1641L61.2773 99.1992V99.2461H61.3594L61.6055 99L61.6875 99.082H61.8164C61.8164 98.9961 61.8438 98.9531 61.8984 98.9531H61.9336C61.7617 99.3672 61.4727 99.5742 61.0664 99.5742C61.0664 99.668 60.9727 99.7344 60.7852 99.7734V99.8203C60.7852 99.8828 60.9766 99.9258 61.3594 99.9492C61.5625 99.8555 61.7422 99.7305 61.8984 99.5742L61.8516 99.5273V99.4922L62.0625 99.2812H62.0977V99.3633L62.0625 99.4102V99.4453H62.3086C62.3086 99.3828 62.418 99.2891 62.6367 99.1641L62.9648 98.8359L63 99.082L63.2109 99.0352H63.293V99.082L63.2461 99.2461L63.293 99.3633H63.2461L63.0469 99.2812L62.9648 99.3633L62.918 99.3281C62.6836 99.3984 62.4922 99.5195 62.3438 99.6914L62.0977 99.7734V99.8672C62.4023 99.9844 62.5664 100.078 62.5898 100.148H62.5547L62.0156 99.9492L61.9805 99.9844H61.9336L61.8516 99.9023C61.6797 100.066 61.5547 100.148 61.4766 100.148L61.0312 100.066C60.9844 100.285 60.9023 100.395 60.7852 100.395L60.5742 100.77H60.5391L60.5742 100.559H60.5391L60.1641 100.723L59.9531 100.688L59.918 100.723H59.8711L59.8359 100.688H59.7891L59.4609 100.77L59.5898 100.969H59.5078L59.3438 100.887C59.3438 100.949 59.2461 101.004 59.0508 101.051C59.1523 101.715 59.3047 102.047 59.5078 102.047L59.4258 102.129C59.4492 102.363 59.4883 102.512 59.543 102.574V102.867L59.4258 103.031V103.113H59.543L59.5898 103.066H59.625L59.6719 103.113V103.16L59.4258 103.195V103.406L59.3789 103.605C59.4648 103.605 59.5352 103.66 59.5898 103.77L59.543 104.262L59.6719 104.391V104.426C59.5859 104.527 59.543 104.625 59.543 104.719V104.754L59.6719 105.34H59.625C59.8594 105.645 60.0391 105.984 60.1641 106.359H60.2109L60.1641 106.617C60.1641 106.789 60.2344 107.035 60.375 107.355L60.3281 107.473C60.3672 107.473 60.4219 107.609 60.4922 107.883C60.5547 107.938 60.625 108.117 60.7031 108.422C60.7891 108.422 60.8828 108.68 60.9844 109.195H60.9023C60.793 108.898 60.5352 108.379 60.1289 107.637V107.555L60.1641 107.52C59.9688 107.145 59.8438 106.828 59.7891 106.57L59.4609 106.031V105.832L59.543 105.375C59.2695 105.141 59.1328 104.895 59.1328 104.637L59.1797 104.59V104.555L59.1328 104.426L59.2148 104.344V104.309L59.1328 104.145L59.1797 103.98C58.9766 103.66 58.8398 103.387 58.7695 103.16L58.8047 103.113L58.7227 103.031L58.2656 103.324H58.2305C58.5898 102.988 58.7695 102.766 58.7695 102.656C58.7148 102.234 58.6328 101.988 58.5234 101.918L58.5586 101.719C58.4961 101.703 58.4258 101.578 58.3477 101.344C58.082 101.398 57.8086 101.496 57.5273 101.637C57.1758 101.66 56.7773 101.77 56.332 101.965V102.047C56.332 102.133 56.375 102.227 56.4609 102.328L56.2969 102.375C56.2109 102.156 56.0859 102.047 55.9219 102.047C55.7266 102.328 55.4531 102.52 55.1016 102.621L55.0195 102.703H54.8555L54.6445 102.656C54.6445 102.797 54.5234 102.895 54.2812 102.949C54.2812 103.09 54.2539 103.16 54.1992 103.16L54.0352 103.195V103.16L53.9062 103.195L53.543 102.984L53.7891 102.703L53.625 102.246L54.1992 101.672C54.1992 101.758 54.2383 101.801 54.3164 101.801C54.8945 101.48 55.1836 101.301 55.1836 101.262L55.9219 100.805C56.0234 100.805 56.1602 100.684 56.332 100.441C56.4336 100.441 56.6406 100.344 56.9531 100.148C57.1172 100.148 57.4062 100.012 57.8203 99.7383L58.1484 99.6562C57.9688 98.4766 57.8164 97.8867 57.6914 97.8867L57.6562 97.8398V97.8047L57.6914 97.7578C57.6289 97.2188 57.5078 96.7656 57.3281 96.3984C57.0547 96.0938 56.9023 95.8633 56.8711 95.707L56.4961 95.625C56.3867 95.625 56.332 95.7617 56.332 96.0352C56.2695 96.0352 56.1875 96.2422 56.0859 96.6562L56.0508 96.6914C56.0508 96.7461 55.9688 96.8008 55.8047 96.8555V97.0195H55.8867V97.1016C55.7461 97.1016 55.6758 97.1992 55.6758 97.3945C55.6055 97.3945 55.4961 97.5312 55.3477 97.8047V98.4609C55.1914 98.6719 55.0664 98.9883 54.9727 99.4102C54.8945 99.4102 54.8555 99.5039 54.8555 99.6914C54.7461 99.6914 54.6914 99.7891 54.6914 99.9844C54.582 99.9844 54.4453 100.121 54.2812 100.395H54.1523V100.605L53.707 101.555C53.707 101.742 53.5938 101.918 53.3672 102.082L53.4492 102.211C53.1523 102.547 53.0039 102.902 53.0039 103.277L52.957 103.324C53.1055 103.566 53.2148 103.688 53.2852 103.688L53.4141 103.652L53.4961 103.734H53.6602L53.625 103.688V103.652L53.6602 103.605H53.7422V103.688H53.9883V103.57H54.0703L54.1172 103.77L54.3984 103.688V103.77C54.1797 103.824 54.0703 103.879 54.0703 103.934L54.1172 103.98C53.9766 103.996 53.9062 104.035 53.9062 104.098C53.9844 104.098 54.2578 104.234 54.7266 104.508H54.7734V104.637H54.7266C54.6562 104.559 54.3555 104.406 53.8242 104.18V104.145H53.707L53.7891 104.262V104.344H53.7422C53.6719 104.344 53.6328 104.277 53.625 104.145L53.4961 104.262L53.2852 104.145L53.25 104.18L53.2031 104.145L53.168 104.18V104.391L53.3672 104.719H53.332L52.957 104.391L52.875 104.473C52.875 104.887 52.9844 105.094 53.2031 105.094C53.3281 104.953 53.4414 104.883 53.543 104.883V104.965C53.4258 104.965 53.3398 105.02 53.2852 105.129C53.2852 105.184 53.3555 105.211 53.4961 105.211V105.293L53.25 105.34L53.2852 105.375V105.457C53.1758 105.457 53.1211 105.484 53.1211 105.539L53.2031 105.621H53.0859L52.957 105.539H52.7109L52.7578 105.586V105.621L52.5938 105.867V105.914H52.6758V105.949L53.0039 105.867L53.0391 105.914V105.996C53.0391 106.051 52.9844 106.078 52.875 106.078L52.9219 106.113V106.195H52.875L52.1836 105.621H52.1367V105.668H52.2188V105.867C52.2188 105.922 52.2617 105.949 52.3477 105.949V106.031L52.1016 106.078C52.1016 106.133 52.1562 106.16 52.2656 106.16V106.242H52.1836V106.277L52.4297 106.324V106.406H52.2188L52.1836 106.359H52.1367L52.1016 106.488L52.4297 106.652L52.5469 106.617V106.699H52.4297V106.734H52.5117L52.957 106.57H53.0039V106.617H52.9219V106.652H52.957L53.2852 106.57H53.332C53.332 106.625 53.0859 106.723 52.5938 106.863C52.5625 107.02 52.4805 107.156 52.3477 107.273C52.3477 107.352 52.4023 107.391 52.5117 107.391L52.5469 107.438V107.52H52.5117C52.3945 107.41 52.2852 107.355 52.1836 107.355H52.1367L52.1836 107.391V107.438L52.1367 107.473H52.1016L52.0547 107.355L52.0195 107.391L51.8086 107.355C51.7305 107.355 51.6484 107.41 51.5625 107.52H51.5156V107.555H51.5625L51.6797 107.52V107.555C51.5859 107.719 51.5039 107.801 51.4336 107.801V107.883C51.4883 107.992 51.5703 108.047 51.6797 108.047V108.129L51.3164 108.047L51.2344 108.258H51.1523V108.129H51.1055L50.9883 108.211H50.9414C50.9414 108.109 50.8867 108.039 50.7773 108H50.7422L50.6953 108.047H50.6602L50.8594 108.34H50.7773V108.422H50.8594V108.457L50.8242 108.504L50.9883 108.832H51.1055V108.914C51.0117 108.914 50.9297 108.996 50.8594 109.16L51.0234 109.406H50.9883C50.8789 109.352 50.8242 109.281 50.8242 109.195H50.6953V109.242L50.7773 109.359H50.7422L50.6953 109.324H50.6602C50.6602 109.402 50.6328 109.441 50.5781 109.441C50.5234 109.441 50.4961 109.402 50.4961 109.324H50.4141V109.488L50.3672 109.699H50.2852V109.324H50.25C50.25 109.434 50.207 109.488 50.1211 109.488H50.0742V109.441L50.1211 109.324L50.0039 109.242L49.957 109.277L49.875 109.195C49.875 109.25 49.7539 109.32 49.5117 109.406V109.359L49.5938 109.277L49.5469 109.242V109.078L49.6289 108.996L49.5938 108.949V108.914L49.6289 108.75C49.5742 108.75 49.5469 108.707 49.5469 108.621L49.3477 108.586C49.3477 108.539 49.4414 108.484 49.6289 108.422C49.6445 108.258 49.7148 108.176 49.8398 108.176L49.7578 108.094H49.7109L49.6758 108.129H49.6289L49.5938 108.094V108.047H49.6758V107.883H49.6289L49.4297 107.965L49.5469 107.801V107.766L49.4297 107.637H49.3477C49.2695 107.723 49.1172 107.766 48.8906 107.766L48.8555 107.801V107.848C48.9102 107.848 48.9492 107.93 48.9727 108.094H48.9375C48.8281 108.094 48.7734 108.16 48.7734 108.293H48.6914L48.8086 108.047L48.5625 108C48.3906 108.07 48.2812 108.184 48.2344 108.34L48.0234 108.293H47.8242V108.375H47.7773L47.6953 108.293L47.7773 108.211H47.9883L48.0234 108.258L48.2344 108.129L48.1875 108.094V108.047L48.2344 107.883C48.0938 107.75 47.9688 107.684 47.8594 107.684C47.8594 107.738 47.8203 107.766 47.7422 107.766L47.6133 107.719C47.6055 107.789 47.5234 107.883 47.3672 108L47.332 107.965V107.93C47.5898 107.656 47.7539 107.52 47.8242 107.52V107.438L47.7422 107.191C47.6719 107.191 47.5195 107.082 47.2852 106.863H47.332C47.4492 106.863 47.6406 106.957 47.9062 107.145L48.1875 107.027L48.1523 106.98V106.898H48.1875L48.2344 106.945H48.2695L48.4336 106.57L48.2344 106.324L48.3516 106.242H48.5156L48.7734 106.406H48.8555L48.9375 106.324L48.5625 105.914L48.6094 105.867H48.6445C48.707 105.977 48.8438 106.102 49.0547 106.242V106.277L49.1836 106.16L49.0547 105.914V105.867L49.2656 106.031L49.3008 105.996C49.2461 105.824 49.1797 105.727 49.1016 105.703H49.0547V105.867C49 105.867 48.9453 105.758 48.8906 105.539C48.7031 105.539 48.6094 105.473 48.6094 105.34H48.5625L48.4336 105.457L48.3984 105.422V105.375L48.4805 105.293L48.3984 105.211H48.3516L48.2344 105.293H48.1523L48.2344 105.176V105.129L48.1875 105.094V105.047L48.3164 104.93C48.2539 104.844 48.1562 104.801 48.0234 104.801L47.9883 104.754L47.7773 104.672L47.5312 104.754L47.4961 104.719V104.59L47.5781 104.508C47.6328 104.508 47.6602 104.551 47.6602 104.637H47.6953C47.9609 104.637 48.1797 104.691 48.3516 104.801C48.3984 104.691 48.4531 104.637 48.5156 104.637V104.59L48.4336 104.473V104.426H48.4805L48.5625 104.508L48.6914 104.473V104.426C48.6914 104.371 48.6211 104.344 48.4805 104.344L48.4336 104.309V104.262H48.5625L48.7734 104.309C48.7734 104.23 48.8281 104.16 48.9375 104.098C48.9375 104.238 49.0195 104.309 49.1836 104.309H49.3828L49.2656 104.145L49.3008 104.016H49.3477C49.3555 104.125 49.3945 104.18 49.4648 104.18H49.5117V104.062L49.4297 103.934V103.852C49.5 103.852 49.5547 103.949 49.5938 104.145H49.6289L49.6758 103.98L49.6289 103.77V103.406C49.6914 103.406 49.7344 103.582 49.7578 103.934H49.8398V103.852H49.9219L49.957 103.898H50.0039V103.77H50.0742L50.0391 103.98H50.1211L50.1562 103.77L50.1211 103.523H50.1562L50.1211 103.488V103.441L50.1562 103.406V103.359L50.0391 103.324L50.1211 103.242L50.2031 103.324C50.3828 102.66 50.5195 102.273 50.6133 102.164L50.5312 102.082C50.625 100.715 50.75 100.031 50.9062 100.031C51.0703 99.7969 51.1523 99.5625 51.1523 99.3281L51.2344 99.082L51.2695 99.0352V98.9531L51.1523 98.707C51.3398 98.668 51.4336 98.6016 51.4336 98.5078L51.6445 98.0039C51.5898 98.0039 51.5625 97.9492 51.5625 97.8398H51.5156L51.4805 97.8867H51.4336L51.3984 97.7227L51.2695 97.8047H51.2344L51.3516 97.5586L51.3164 97.5117H51.2344C51.2266 97.5977 51.1016 97.668 50.8594 97.7227H50.8242L51.1523 97.3945V97.3125L51.1055 97.2656V97.2305L51.2344 97.1836V97.1016C51.125 97.1016 51.0703 97.0742 51.0703 97.0195V96.9844H51.1875V96.9375H51.1523L50.5781 96.9844H50.4492V96.9023H50.4961C51.0117 96.8477 51.2852 96.7773 51.3164 96.6914C51.1992 96.6523 51.1172 96.582 51.0703 96.4805H51.1055L51.4805 96.5742L51.5156 96.5273V96.4805L51.3516 96.2344V96.0352C51.4609 96.1055 51.5156 96.1992 51.5156 96.3164H51.5977L51.5625 96.1172H51.6445C51.6445 96.25 51.6719 96.3164 51.7266 96.3164L51.7617 95.9531H51.8086C51.8945 95.9688 51.9375 96.0781 51.9375 96.2812L51.9727 96.2344H52.0195L52.0547 96.2812C52.0703 96.1719 52.1133 96.1172 52.1836 96.1172H52.2188L52.2656 96.2344L52.1367 96.3633L52.2656 96.3984C52.5625 96.2344 52.7109 96.0977 52.7109 95.9883L53.1211 95.0039C53.1211 94.6992 53.2031 94.4805 53.3672 94.3477L53.4141 94.1367L53.2852 94.0195V93.9727L53.4961 94.0195V93.9727C53.4961 93.8945 53.5664 93.8398 53.707 93.8086C53.707 93.7305 53.7461 93.6914 53.8242 93.6914C53.9883 93.5742 54.0703 93.3516 54.0703 93.0234L54.6445 92.332C54.7852 91.8633 54.9922 91.6289 55.2656 91.6289ZM50.2031 91.7109H50.2852C50.7383 91.8438 51.0117 91.9688 51.1055 92.0859H51.0703L50.2031 91.793V91.7109ZM52.3828 91.9219H52.4648V91.957L52.4297 92.0039V92.0391C52.6484 92.0391 52.8398 92.1367 53.0039 92.332H53.4492V92.4141H53.332C53.2148 92.4141 53.0898 92.4961 52.957 92.6602L53.0391 92.9062L52.4648 93.3164C52.4648 93.4648 52.3164 93.5742 52.0195 93.6445L51.8086 93.9727H51.7617L51.8906 93.6445L51.5156 93.5273H51.4805C51.3477 93.6367 51.2383 93.6914 51.1523 93.6914L51.0234 93.6094L50.9883 93.6445H50.9414L50.8242 93.6094L50.6953 93.6445L50.9062 93.3984C50.8203 93.3984 50.75 93.3438 50.6953 93.2344V93.0703L50.9062 92.6953L51.0234 92.6602V92.5781C50.9609 92.5781 50.8398 92.4961 50.6602 92.332V92.2852H50.6953L51.1875 92.5781L51.4336 92.4961C51.4336 92.4102 51.4766 92.3672 51.5625 92.3672V92.332C51.4375 92.3164 51.3008 92.2344 51.1523 92.0859H51.2344L51.7617 92.25C51.7617 92.1953 51.8867 92.1523 52.1367 92.1211L52.1836 92.168L52.3828 91.9219ZM58.6406 94.6289L58.6875 94.6758V94.7109L58.6406 94.7578H58.5586V94.7109L58.6406 94.6289ZM52.875 94.875V95.0039L52.7578 95.1328H52.7109L52.6289 95.0508V95.0039C52.6289 94.9492 52.7109 94.9062 52.875 94.875ZM51.8086 95.0508L51.9727 95.25L51.9375 95.543H51.7266V95.4609H51.8086L51.5625 95.2969V95.168C51.5859 95.0898 51.668 95.0508 51.8086 95.0508ZM58.4414 95.2148V95.25L58.3477 95.332L58.2656 95.25L58.3125 95.2148H58.4414ZM50.6953 95.6602L50.7773 95.7891L50.6953 95.8711L50.6133 95.707L50.6602 95.6602H50.6953ZM49.9219 95.9531L50.0391 96.0703L50.0039 96.1172H49.957L49.8398 95.9883L49.875 95.9531H49.9219ZM49.957 96.5742H50.0039V96.6914H49.875V96.6562L49.957 96.5742ZM56.625 96.5742H56.7539L56.8359 96.6562L56.707 96.7383H56.625L56.543 96.6562L56.625 96.5742ZM49.7578 97.3945H49.8398V97.4766L49.6758 97.5117V97.4766L49.7578 97.3945ZM51.4336 97.8867V98.0039H51.3516V97.9688L51.4336 97.8867ZM63.0469 98.6719H63.082V98.707L62.9648 98.8359V98.7539L63.0469 98.6719ZM60.9492 99H60.9844V99.0352L60.7383 99.1992V99.1641C60.793 99.0547 60.8633 99 60.9492 99ZM69.293 96.6562L69.3398 96.7031V96.75L69.293 96.7969H69.2461L69.1992 96.75V96.7031L69.2461 96.6562H69.293ZM56.8359 102.457H56.8711L56.9531 102.539L56.918 102.574H56.8711L56.8359 102.539V102.457ZM50.0391 102.738L50.0742 102.785V102.867H49.957V102.82L50.0391 102.738ZM49.1836 102.785L49.2188 102.82V102.867L49.1836 102.902H49.1016V102.867L49.1836 102.785ZM49.5117 103.066L49.6289 103.195V103.324H49.5938L49.4297 103.16L49.5117 103.066ZM48.6094 103.277H48.6445L48.7266 103.359L48.6914 103.406H48.6445L48.6094 103.359V103.277ZM55.8867 103.324H55.9688L56.0508 103.406L55.9219 103.523H55.7578C55.7969 103.391 55.8398 103.324 55.8867 103.324ZM49.1367 103.488H49.1836L49.2656 103.57V103.605L49.1367 103.488ZM58.5234 103.605V103.652L58.1836 103.898L58.1484 103.852V103.816C58.2188 103.676 58.3438 103.605 58.5234 103.605ZM48.3164 103.816L48.3516 103.852V103.98H48.2695L48.2344 103.852L48.2695 103.816H48.3164ZM47.0039 104.18H47.168L47.25 104.262L47.2031 104.309V104.344L47.25 104.391L47.0391 104.426L46.9102 104.309V104.262L47.0039 104.18ZM58.8047 104.262H58.9336L58.8516 104.344L58.8047 104.309V104.262ZM49.0195 104.344V104.426H48.9375L48.8906 104.391H48.8555L48.8086 104.426V104.473C48.8867 104.473 48.9688 104.512 49.0547 104.59C49.1641 104.551 49.2188 104.512 49.2188 104.473C49.1094 104.473 49.0547 104.445 49.0547 104.391L49.1016 104.344H49.0195ZM49.1367 104.637L49.1836 104.848H49.2188L49.2656 104.637H49.1367ZM54.8086 104.59H54.8555L54.9727 104.719V104.754H54.9375L54.8086 104.719V104.59ZM54.0352 104.754H54.3164L54.3984 104.848L54.2344 104.965C54.1094 104.91 54.043 104.855 54.0352 104.801V104.754ZM53.9062 104.801V104.883L53.7422 104.93V104.848L53.9062 104.801ZM49.1367 104.93C49.1367 105.078 49.0703 105.199 48.9375 105.293V105.375L49.3477 105.668H49.3828L49.4297 105.258V105.211C49.3438 105.211 49.3008 105.184 49.3008 105.129L49.3477 105.094C49.2617 105.094 49.2188 105.051 49.2188 104.965L49.1836 104.93H49.1367ZM52.6289 104.93L52.5938 104.965V105.012H52.6289L52.7578 104.965V104.93H52.6289ZM52.2188 105.34C52.2188 105.473 52.3164 105.609 52.5117 105.75V105.785H52.5938L52.6289 105.504C52.543 105.504 52.4883 105.367 52.4648 105.094L52.5469 105.012H52.5117L52.2188 105.34ZM47.6133 105.621H47.7773L47.9414 105.703L48.0703 105.668L48.1055 105.703V105.832L48.0234 105.914L47.9062 105.832C47.9062 105.91 47.8516 105.949 47.7422 105.949C47.6172 105.902 47.5469 105.848 47.5312 105.785V105.703L47.6133 105.621ZM53.707 105.621H53.7422L53.8242 105.703L53.7891 105.75H53.707V105.621ZM47.8594 106.031L47.9062 106.078V106.113L47.8594 106.16H47.8242L47.7773 106.113V106.078L47.8242 106.031H47.8594ZM50.9062 106.816L50.9414 106.863H50.9883L51.1523 106.734H51.3516C51.3516 106.516 51.4062 106.406 51.5156 106.406V106.324H51.4336C51.1289 106.496 50.9531 106.66 50.9062 106.816ZM53.9062 106.406V106.488L53.5781 106.57V106.488L53.9062 106.406ZM51.5977 106.535C51.582 106.699 51.5 106.781 51.3516 106.781L51.4336 106.898V106.945C51.3008 107.047 51.2344 107.168 51.2344 107.309L51.2695 107.355H51.3164L51.3984 107.273H51.4336L51.3516 107.391L51.5625 107.438L51.6797 107.273L51.5977 107.191C51.6367 106.832 51.6914 106.652 51.7617 106.652L51.7266 106.535H51.5977ZM49.6289 107.027C49.6289 107.16 49.5625 107.227 49.4297 107.227V107.355L49.6289 107.391H49.7109V107.355L49.6758 107.027H49.6289ZM49.3008 107.438L49.2656 107.473V107.555H49.4648C49.4648 107.516 49.4102 107.477 49.3008 107.438ZM47.2031 108.129H47.2852V108.176L47.1211 108.293L47.0859 108.258V108.211L47.2031 108.129ZM49.0547 108.129H49.1016V108.258H48.9727V108.211L49.0547 108.129ZM48.3984 108.457L48.4336 108.504V108.586H48.3984L48.3164 108.504L48.3516 108.457H48.3984ZM48.6914 109.488H48.7266V109.523L48.6445 109.605H48.6094V109.57L48.6914 109.488ZM57.9375 91.1602H57.9727L58.0547 91.2422V91.2773H57.9727L57.9375 91.1602ZM60.0938 91.2773H60.1758V91.4414L60.0938 91.5234L60.0469 91.4883V91.4414L60.0938 91.2773ZM64.9336 91.4062H64.9688L65.1328 91.5703V91.6055H65.0859L64.9336 91.4414V91.4062ZM65.9883 91.8164L66.0234 91.8516C65.9844 91.9609 65.9453 92.0156 65.9062 92.0156H65.8594V91.9336L65.9883 91.8164ZM66.2695 92.0508V92.0977C66.2305 92.207 66.1914 92.2617 66.1523 92.2617C66.1523 92.332 66.2578 92.4141 66.4688 92.5078L66.5156 92.3789L66.4688 92.3438V92.2148L66.7617 92.3438L66.7969 92.2969V92.3789H66.8438V92.2969H66.8789C66.8789 92.4062 66.9062 92.4609 66.9609 92.4609L66.9258 92.5078C66.9258 92.5859 66.9648 92.625 67.043 92.625V92.707H66.9258L66.9609 92.7422V92.7891H66.8438L66.9258 92.9062L66.8789 92.9531L66.8438 92.9062H66.7617V93.1523L66.8789 93.5625C66.9414 93.5625 66.9961 93.4688 67.043 93.2812H67.1602V93.3633L67.4062 93.2344V93.2812L67.3711 93.4336L67.5703 93.3984L67.6523 93.4805V93.5625H67.5703L67.6172 93.5977V93.6445L67.5703 93.6797L67.6172 93.7266V93.7617L67.5703 93.8086V93.8438C67.7266 93.8281 67.8477 93.7891 67.9336 93.7266H67.9805V93.8086C67.8945 93.8086 67.8516 93.8359 67.8516 93.8906V94.0078H68.0625V93.9258H68.1445V94.0898L68.1797 94.0547H68.3438V94.125L68.0977 94.207L68.1445 94.2539V94.2891L68.0977 94.3359H68.0156C68.0156 94.2734 67.9609 94.2188 67.8516 94.1719H67.8164V94.207L68.0156 94.5352L68.0625 94.5H68.2266C68.2266 94.5547 68.1836 94.582 68.0977 94.582V94.6172H68.3906V94.6992L68.3438 94.7461V94.7812C68.7266 94.9609 68.918 95.2852 68.918 95.7539C69.0586 95.8242 69.168 95.9336 69.2461 96.082V96.2461C69.1289 96.7617 68.9375 97.1562 68.6719 97.4297C68.6016 97.7422 68.3984 97.9844 68.0625 98.1562C67.9844 98.2812 67.7383 98.5 67.3242 98.8125C67.1992 99.2188 67.0234 99.4219 66.7969 99.4219L66.5156 99.7031H66.5977C68.1523 99.5938 69.3867 99.5391 70.3008 99.5391L70.3359 99.5859C70.3359 99.5156 70.5117 99.4336 70.8633 99.3398L71.0273 99.375L71.6016 99.3398H71.6367C71.8633 99.3398 72.0156 99.4492 72.0938 99.668C72.5625 99.8398 73.0078 100.312 73.4297 101.086L73.5117 101.906C73.3711 102.664 73.2344 103.043 73.1016 103.043C72.9766 103.137 72.7891 103.395 72.5391 103.816L70.6289 105.199C69.6211 105.723 69.1172 106.129 69.1172 106.418C69.1172 106.566 68.8867 106.73 68.4258 106.91C68.4258 107.184 68.1953 107.371 67.7344 107.473C67.5703 107.668 67.4219 107.766 67.2891 107.766C67.6172 107.43 67.9023 107.211 68.1445 107.109C68.1445 106.812 68.4141 106.582 68.9531 106.418C68.9531 106.285 69.1719 105.906 69.6094 105.281C69.7734 104.906 69.9336 104.66 70.0898 104.543C70.1133 104.395 70.2109 104.234 70.3828 104.062C70.5625 103.602 70.7227 103.371 70.8633 103.371L71.2734 102.551V102.305C71.2734 102.242 71.1641 102.176 70.9453 102.105L70.9102 102.07V101.824C70.8242 101.824 70.7812 101.797 70.7812 101.742V101.66L70.8281 101.613V101.578C70.5547 101.516 70.418 101.406 70.418 101.25L70.2188 101.133H70.1367L70.0078 101.215H69C68.9062 101.105 68.8242 101.051 68.7539 101.051L68.3086 101.168H67.8984L67.8516 101.133L67.8164 101.168H67.7812C67.1172 101.059 66.668 100.922 66.4336 100.758C66.3008 100.758 66.043 100.691 65.6602 100.559C65.5352 100.676 65.4414 100.812 65.3789 100.969C65.4883 100.984 65.543 101.023 65.543 101.086H65.4609L65.332 101.051V101.086L65.3789 101.133C65.3477 101.352 65.3047 101.461 65.25 101.461C65.2812 101.664 65.457 101.945 65.7773 102.305C65.9961 102.68 66.2031 102.91 66.3984 102.996V103.078C66.1562 102.977 65.8984 102.691 65.625 102.223L65.2969 101.906C65.1328 101.719 65.0508 101.543 65.0508 101.379L65.0039 101.332H64.9688L64.8867 101.414V101.379L64.9688 101.215C64.7266 101.215 64.5508 101.078 64.4414 100.805C64.5508 100.758 64.6055 100.664 64.6055 100.523L64.5586 100.477C64.7539 100.445 64.8516 100.336 64.8516 100.148H64.9336C64.9336 100.242 64.8906 100.34 64.8047 100.441L65.1328 100.559V100.523C65.1328 100.453 65.418 100.098 65.9883 99.457C66.082 99.1914 66.4062 98.8125 66.9609 98.3203L67.2422 97.8281C67.1406 97.3359 67.0625 96.7812 67.0078 96.1641L66.9609 96.1289V95.918C67.0625 95.7852 67.1445 95.7188 67.207 95.7188C67.207 95.6328 67.0977 95.5781 66.8789 95.5547V95.5898L66.5508 95.8359H66.5156V95.7539L66.8438 95.5195L66.7617 95.3086L66.1875 95.7188V95.6367L66.4688 95.3555C66.5938 94.9258 66.6914 94.6797 66.7617 94.6172V94.582C66.6523 94.582 66.5977 94.5273 66.5977 94.418H66.5156L66.4688 94.4531H66.4336L66.2695 94.3711L66.2344 94.418V94.4531L66.3164 94.6172H66.2695C66.1992 94.6172 66.1602 94.5625 66.1523 94.4531L66.1055 94.5H66.0703L66.0234 94.4531C66.0234 94.5938 65.9688 94.6641 65.8594 94.6641L65.8242 94.6172C65.6445 94.9062 65.4961 95.0703 65.3789 95.1094H65.332L65.8594 94.3711V94.3359L65.8242 94.3711H65.625L65.5781 94.2539L65.1328 94.207C64.6172 94.2617 64.3594 94.3984 64.3594 94.6172H64.2773L64.1953 94.5352V94.5C64.4375 94.25 64.832 94.125 65.3789 94.125C65.4414 93.9922 65.5078 93.9258 65.5781 93.9258V93.8438C65.375 93.6562 64.5625 93.4531 63.1406 93.2344H62.4844V93.1523H63.2227C63.707 93.1523 64.1133 93.1953 64.4414 93.2812C64.4414 93.1719 64.4688 93.1172 64.5234 93.1172L64.6875 93.2812L64.8516 93.1172C64.8516 93.2266 65.0391 93.3203 65.4141 93.3984V93.3633L65.3789 93.2344H65.4141L65.5781 93.1992L65.543 93.0352L65.25 93.0703V92.9883L65.4961 92.9531L65.4609 92.9062V92.8711L65.4961 92.8242V92.7891L65.332 92.625H65.3789L65.625 92.7891L65.7422 92.7422C65.7422 92.8516 65.7969 92.9062 65.9062 92.9062V92.9883L65.8594 93.0352V93.0703H65.9883C65.9961 92.9609 66.0508 92.9062 66.1523 92.9062V92.9531L66.0234 93.1523H66.0703L66.3164 93.1172C66.418 93.2031 66.4961 93.3242 66.5508 93.4805C66.5508 93.5352 66.4727 93.5742 66.3164 93.5977V93.6445C66.5039 93.6445 66.6641 93.7109 66.7969 93.8438H66.8789V93.8086C66.6602 93.543 66.5508 93.3672 66.5508 93.2812C66.5508 93.1172 66.4727 93.0352 66.3164 93.0352C66.3164 92.8945 66.207 92.8242 65.9883 92.8242C65.793 92.5898 65.5625 92.4297 65.2969 92.3438V92.2969H65.3789L65.6602 92.3438V92.2969L65.625 92.2617V92.2148C65.6797 92.2148 65.707 92.1758 65.707 92.0977H65.7422L65.8594 92.1797L65.9062 92.1328L66.1523 92.2148V92.1797L66.2695 92.0508ZM60.9844 92.1328V92.1797L60.9023 92.2617V92.2148L60.9844 92.1328ZM62.3672 92.4258H62.4492V92.4609L62.3672 92.543H62.2852V92.5078L62.3672 92.4258ZM59.3555 92.5078L59.4375 92.5898L59.4023 92.625H59.3203L59.3555 92.5078ZM60.9492 92.6602C61.0352 92.668 61.168 92.793 61.3477 93.0352H61.4648C61.4648 92.8555 61.5195 92.7461 61.6289 92.707L61.5469 92.9883H61.6758L61.793 92.9062L61.8398 92.9531V92.9883L61.793 93.0352V93.0703L62.1211 93.4336V93.4805C62.1211 93.5352 62.082 93.5625 62.0039 93.5625V93.5977C62.0039 93.6445 62.0977 93.6875 62.2852 93.7266C62.2852 93.8594 62.3945 93.9258 62.6133 93.9258V94.0078L62.3203 93.9727H62.2852V94.0078L62.4023 94.2891V94.4531L62.3672 94.5L62.4023 94.5352V94.6992L62.3203 94.8281L62.5664 94.9805C62.5664 95.0352 62.5273 95.0625 62.4492 95.0625L62.6133 95.1914V95.2734L62.5664 95.3906C62.8398 95.5 62.9766 95.7188 62.9766 96.0469V96.1289H63.0117L63.0586 96.082H63.0938L63.1758 96.3281C63.1758 96.4141 63.0938 96.5625 62.9297 96.7734L63.3867 97.1367V97.1836L63.3398 97.3828C63.4492 97.4297 63.5039 97.5273 63.5039 97.6758L63.3867 97.793L63.4219 98.0391C63.2344 98.3828 63.1406 98.8008 63.1406 99.293C63.3594 100.145 63.5625 100.633 63.75 100.758C63.9141 101.148 64.0898 101.406 64.2773 101.531L64.3125 101.695C64.3125 101.836 64.2891 101.906 64.2422 101.906L64.2773 102.023C64.4727 102.023 64.6367 101.859 64.7695 101.531H64.8516C64.8516 101.625 64.7695 101.777 64.6055 101.988V102.023C64.6992 102.023 64.7812 102.215 64.8516 102.598L64.6875 102.879H64.5586C64.3633 102.879 64.2031 102.715 64.0781 102.387H64.0312V102.469L64.2773 103.125C64.3555 103.148 64.4648 103.488 64.6055 104.145C64.8086 104.574 64.9414 104.98 65.0039 105.363V105.609L65.25 105.891L65.2148 106.09V106.137C65.418 106.746 65.5938 107.164 65.7422 107.391H65.8242L65.7773 107.438V107.473L65.9062 107.555L65.9883 107.473H66.0703V107.52L65.9062 107.637L65.8594 107.684V107.719C65.8594 107.773 65.9023 107.801 65.9883 107.801V107.883L65.9414 107.93V107.965H66.2344V108.047H66.0234L65.9414 108.117V108.246C65.9414 108.309 66.0117 108.348 66.1523 108.363L66.3164 108.199H66.3516V108.246L66.2344 108.41V108.445L66.4336 108.527L66.3984 108.574V108.656C66.5 108.664 66.5508 108.703 66.5508 108.773H66.4688L66.2344 108.656C66.1484 108.656 66.1055 108.707 66.1055 108.809H66.0234V108.773L66.0703 108.738V108.691L65.9062 108.574L66.0234 108.41L65.9883 108.363H65.9414L65.9062 108.41H65.8594L65.7422 108.363L65.7773 108.41V108.492H65.6602C65.6602 108.578 65.6992 108.672 65.7773 108.773L65.707 108.938H65.8594V109.02L65.6602 108.973V109.102L65.8242 109.219L65.8594 109.266V109.301H65.7773L65.5781 109.219V109.266L65.543 109.301L65.625 109.547H65.543C65.543 109.438 65.5156 109.383 65.4609 109.383C65.3594 109.383 65.1289 109.641 64.7695 110.156V110.121L64.9688 109.664V109.43L64.8516 109.301C64.8047 109.301 64.75 109.395 64.6875 109.582H64.6406V109.43L64.6875 109.383L64.6406 109.348V109.266H64.7227V109.219L64.6055 109.102L64.3945 109.184V109.102H64.4766L64.3594 108.973L64.3945 108.773L64.3594 108.738H64.3125L64.1602 108.973V109.137L64.2422 109.266L64.1602 109.348L63.9961 109.102L63.8672 109.266C63.7891 109.266 63.7344 109.156 63.7031 108.938L63.5039 108.973V108.891H63.4688C63.4688 108.977 63.3984 109.059 63.2578 109.137V109.055L63.3398 108.773C63.0898 108.844 62.8594 109.047 62.6484 109.383L62.5664 109.301C62.5664 109.16 62.7305 108.996 63.0586 108.809L63.0117 108.773V108.691C63.1289 108.691 63.2383 108.625 63.3398 108.492H63.3867V108.445L63.2578 108.41L63.1406 108.445V108.41L63.1758 108.281H63.0586L63.0938 108.246V108.199H62.9766L62.8594 108.328V108.363L62.8945 108.41V108.445L62.8594 108.492H62.8125C62.7969 108.406 62.7422 108.352 62.6484 108.328V108.246L62.6133 108.281H62.5664L62.4844 108.199L62.8125 108C62.8125 107.953 62.7305 107.887 62.5664 107.801V107.719C62.668 107.805 62.7656 107.848 62.8594 107.848H62.8945L62.9297 107.719C62.8516 107.719 62.7852 107.664 62.7305 107.555H62.7773L63.0938 107.684V107.637C63.0938 107.559 63.1484 107.52 63.2578 107.52V107.473L62.8125 107.32V107.273L62.8594 107.238V107.191C62.5312 107.059 62.3672 106.965 62.3672 106.91H62.4492L63.2578 107.32L63.3047 107.273V107.238L63.2578 106.992C63.3672 107.008 63.4219 107.117 63.4219 107.32C63.5547 107.25 63.6211 107.113 63.6211 106.91L63.5508 106.828V106.746H63.6211C63.6289 106.879 63.6719 106.945 63.75 106.945L63.7852 106.91C63.707 106.668 63.6289 106.547 63.5508 106.547L63.4688 106.617H63.3867L63.668 106.383L63.6211 106.336L63.7031 105.973L63.3398 105.609V105.527C63.3477 105.387 63.375 105.316 63.4219 105.316C63.2344 104.902 63.1406 104.633 63.1406 104.508L63.0938 104.461V104.309L63.1406 104.145C63.0547 104.074 63 103.762 62.9766 103.207C62.7031 102.77 62.5664 102.469 62.5664 102.305V102.152L62.6133 101.777C62.582 101.668 62.5273 101.613 62.4492 101.613V101.531H62.5312L62.2031 101.168V101.133L62.4492 101.332H62.4844C62.4844 101.199 62.5117 101.09 62.5664 101.004C62.4336 100.895 62.3672 100.773 62.3672 100.641V100.605L62.4844 100.277C62.3672 100.059 62.2461 99.582 62.1211 98.8477L61.9219 98.6484L61.957 98.6016V98.5664C61.7695 98.1133 61.6602 97.7461 61.6289 97.4648L61.5938 97.4297L61.7109 96.7383C61.4141 96.3242 61.2656 95.9414 61.2656 95.5898L61.2305 95.6367H61.0664V95.5898C61.1758 95.5898 61.2305 95.5508 61.2305 95.4727L61.1016 95.2734H61.2305V95.2266C61.2305 95.1719 61.1758 95.1445 61.0664 95.1445L61.0312 95.1094V95.0625L61.0664 95.0273L60.9492 94.9805L60.7852 95.0273C60.7227 95.0273 60.6836 94.9609 60.668 94.8281L60.7031 94.7812H60.7383L60.7852 94.8281H60.8203V94.6992C60.6875 94.6992 60.5664 94.5781 60.457 94.3359L60.7031 94.125V94.0898L60.5391 93.8906L60.6211 93.7617L60.5859 93.7266H60.5391L60.293 93.9258L60.3398 94.125C60.2305 94.1719 60.1758 94.2148 60.1758 94.2539L60.4219 94.7812H60.293C60.3789 95.0234 60.4883 95.1445 60.6211 95.1445V95.2266H60.5391L60.6211 95.3086H61.0664C61.0664 95.3555 60.9453 95.3984 60.7031 95.4375C60.7031 95.5078 60.5664 95.6562 60.293 95.8828C60.293 96.0078 60.2109 96.1289 60.0469 96.2461H59.9766V96.2109L60.1758 95.9648C60.0977 95.8711 59.9336 95.8008 59.6836 95.7539V95.8008L59.5664 95.918H59.5195L59.6836 95.6367L59.6484 95.5898L59.6016 95.6367H59.5195V95.5547C59.6055 95.5547 59.6484 95.5273 59.6484 95.4727V95.4375H59.2852V95.3555H59.6484C59.6484 95.3008 59.6055 95.2734 59.5195 95.2734L59.4844 95.2266V95.1914L59.5195 95.1445L59.4844 95.1094H59.5195L59.6484 95.1445V95.1094L59.6836 94.8984L59.5664 94.9805H59.4844V94.8984L59.5664 94.7812V94.6992L59.4375 94.6641L59.1562 95.1094H59.1211V95.0625L59.3203 94.7461C59.1328 94.6133 59.0391 94.5156 59.0391 94.4531L58.793 94.5L58.6641 94.4531V94.3711L58.957 94.3359H59.0742C59.0742 94.25 59.1172 94.207 59.2031 94.207V94.125C59.0938 94.125 59.0391 94.1016 59.0391 94.0547H59.1562L59.2031 94.0898H59.2383C59.2383 94.0352 59.3047 94.0078 59.4375 94.0078V93.9727C59.3594 93.9727 59.3203 93.9297 59.3203 93.8438H59.2383V93.7617H59.2852L59.4844 93.8086V93.7266C59.3906 93.7266 59.2695 93.6172 59.1211 93.3984H59.1562L59.3555 93.5625H59.4023L59.4375 93.5156H59.4844L59.4375 93.4805V93.2812L59.4844 92.9883H59.5664L59.5195 93.2812H59.6016V93.4336L59.5664 93.4805V93.5156H59.6016L59.6484 93.4805H59.6836V93.5625H59.7656L59.8945 93.0352H59.9766L59.9297 93.3984C59.9844 93.3984 60.0508 93.2773 60.1289 93.0352L60.457 92.7891L60.668 92.8242H60.9492L60.8672 92.707L60.9023 92.6602H60.9492ZM67.5703 92.8242H67.6172L67.6992 92.9062L67.5352 92.9531L67.5703 92.8242ZM68.2617 93.5625L68.3086 93.5977V93.6445L68.0977 93.7617H68.0625V93.6797L68.2617 93.5625ZM57.8906 93.8906L58.1016 93.9258V94.0078H57.9727L57.8906 93.9258V93.8906ZM62.9297 94.0078H63.1406V94.0898H63.0117L62.9297 94.0078ZM66.5977 94.4531C66.5977 94.5391 66.625 94.582 66.6797 94.582V94.6172L66.5508 94.7461L66.4688 94.5L66.5156 94.4531H66.5977ZM58.9922 94.582H59.0742V94.6992H58.9922V94.582ZM60.1289 94.6641V94.7461L60.1758 94.8633H60.1289L60.0117 94.7812V94.8633L60.0469 94.9805C60.1562 94.957 60.2109 94.8906 60.2109 94.7812L60.1758 94.6641H60.1289ZM59.8945 94.7812V94.9453L59.9297 94.8984H59.9766L59.9297 94.7812H59.8945ZM58.7109 94.8633L58.7461 94.8984V94.9453L58.7109 94.9805H58.6641L58.6289 94.9453V94.8984L58.6641 94.8633H58.7109ZM63.9492 95.1094L63.9961 95.1445V95.1914C63.9648 95.2695 63.8828 95.3086 63.75 95.3086H63.668L63.5859 95.2266L63.9492 95.1094ZM59.2031 95.3906V95.4375C58.9141 95.625 58.75 95.7852 58.7109 95.918L58.5938 95.9648L58.5469 95.918V95.8828C58.7891 95.5938 59.0078 95.4297 59.2031 95.3906ZM65.25 95.4375L65.0859 95.5898H65.0508V95.5547C65.0508 95.4922 65.1172 95.4531 65.25 95.4375ZM58.1367 95.5547H58.1836V95.5898L58.1016 95.6719H58.0547V95.6367L58.1367 95.5547ZM60.5391 95.7539H60.6211L60.7383 95.8828H60.7031L60.5391 95.7539ZM66.1055 95.8008V95.8359C65.8398 96.1719 65.707 96.3906 65.707 96.4922H65.625L65.5781 96.3633C65.5938 96.2617 65.7695 96.0742 66.1055 95.8008ZM58.4648 96.1289L58.6641 96.1641V96.2461L58.5469 96.3633H58.4648L58.3828 96.293V96.2109L58.4648 96.1289ZM59.3203 96.5273L59.4023 96.6094L59.3555 96.6562H59.3203V96.5273ZM60.5039 96.6094L60.5391 96.6562V96.6914L60.457 96.7734L60.4219 96.7383V96.6914L60.5039 96.6094ZM71.9648 98.7656V98.8125L71.8828 98.8945L71.8008 98.8125L71.8477 98.7656H71.9648ZM71.5195 99.0586H71.6836L71.7656 99.1406V99.1758L71.6836 99.2578H71.6367L71.4375 99.2227V99.1406L71.5195 99.0586ZM61.3945 100.84L61.4648 100.922V100.969H61.3945V100.84ZM61.1016 101.531L61.2305 101.66L61.1836 101.695H61.1484V101.66L61.1016 101.695H61.0664L60.9492 101.578L60.9844 101.531H61.1016ZM68.5078 101.777H68.625V101.859H68.5898L68.5078 101.777ZM69.6094 101.859H69.6445V101.906C69.3789 102.078 69.2461 102.199 69.2461 102.27L69.8555 102.633L69.8906 102.598H70.0547L70.1719 102.715L70.0078 102.797C69.6172 102.578 69.375 102.469 69.2812 102.469C69.2109 102.469 69.1289 102.523 69.0352 102.633H68.9531L68.918 102.598L68.7539 102.68L68.5898 102.598L68.625 102.387V102.352H68.5898L68.0977 102.387V102.305L68.7539 102.223C68.7539 102.176 68.7109 102.152 68.625 102.152L68.5898 102.105V102.07L68.625 102.023H68.6719L68.8711 102.07C68.8711 101.977 68.9531 101.922 69.1172 101.906L69.1992 101.988C69.4023 101.965 69.5391 101.922 69.6094 101.859ZM70.3008 102.762L70.5 102.797V102.926L70.3008 102.879V102.762ZM60.7031 103.324L60.7852 103.406C60.7383 103.516 60.6445 103.57 60.5039 103.57L60.457 103.535V103.488L60.7031 103.324ZM67.5352 103.898H67.6523L67.5703 103.98H67.5352V103.898ZM73.1016 104.016L73.1484 104.062V104.098L72.0938 105.234V105.281C72.25 105.281 72.3281 105.348 72.3281 105.48L72.293 105.609L72.3281 105.562H72.375V105.609L72.3281 105.645V105.691L72.375 105.727L72.2461 105.773L72.293 105.973L72.2461 105.926L72.2109 105.973H72.1641L72.1289 105.926H72.0938V105.973L72.1289 106.09H72.0938L71.9297 105.973H71.8477V106.055L71.8008 106.008C71.6133 106.008 71.5195 106.105 71.5195 106.301H71.4375C71.4375 106.191 71.3984 106.137 71.3203 106.137C71.3203 106.066 71.25 106.023 71.1094 106.008L71.0742 106.055V106.008L71.1094 105.973V105.926L71.0742 105.773V105.727H71.1914L71.1562 105.691V105.645H71.1914L71.1562 105.609V105.527C71.2109 105.527 71.2383 105.484 71.2383 105.398H71.3555L71.3203 105.363V105.281L71.4375 105.363V105.316L71.3906 105.281V105.234H71.4375L71.4727 105.281H71.5195C71.5195 105.172 71.5586 105.117 71.6367 105.117V105.082L71.6836 105.117H71.7656C71.7656 105.039 71.793 105 71.8477 105H71.8828V105.035L71.8477 105.082L71.8828 105.199H71.9297L73.1016 104.016ZM62.7305 106.301L62.8125 106.418L62.7773 106.465H62.6484L62.5664 106.383V106.336L62.7305 106.301ZM67.125 106.617C67.2422 106.617 67.3242 106.688 67.3711 106.828L67.2422 106.91L67.043 106.781L66.7148 106.828C66.7148 106.758 66.8516 106.688 67.125 106.617ZM61.6758 106.699L61.793 106.992C61.6133 107.062 61.4805 107.145 61.3945 107.238C61.2852 107.191 61.2305 107.094 61.2305 106.945C61.3398 106.945 61.3945 106.906 61.3945 106.828C61.3945 106.766 61.4883 106.723 61.6758 106.699ZM66.7148 106.828L66.4336 107.027H66.3516C66.3516 106.949 66.4727 106.883 66.7148 106.828ZM63.7852 107.027L63.75 107.156L63.7852 107.32L63.9141 107.273L63.832 107.027H63.7852ZM61.6289 107.109H61.6758L61.793 107.273L61.7578 107.32H61.6758L61.5469 107.191L61.6289 107.109ZM66.2344 107.109L65.9883 107.32H65.9414C66.0273 107.18 66.125 107.109 66.2344 107.109ZM61.3945 107.273H61.4297C61.4922 107.273 61.5312 107.34 61.5469 107.473L61.4297 107.555H61.3477C61.293 107.555 61.2656 107.516 61.2656 107.438L61.3945 107.273ZM63.8672 107.438L63.9492 107.52L64.0312 107.438L63.9492 107.355L63.8672 107.438ZM61.6289 107.473H61.7109V107.602H61.6289V107.473ZM64.9336 108.082V108.117L65.0039 108.363H65.0508L65.1328 108.164L64.9336 108.082ZM64.8516 108.328C64.8516 108.492 64.7422 108.574 64.5234 108.574L64.6406 108.691C64.7656 108.645 64.875 108.551 64.9688 108.41L64.8516 108.328ZM62.5664 108.691H62.6953V108.773H62.5664V108.691ZM63.9141 108.809L63.8672 109.02L63.9492 109.102L63.9961 108.891L63.9141 108.809ZM66.3516 109.137H66.3984L66.4688 109.219H66.3516V109.137ZM62.3203 109.184H62.3672V109.266L62.2852 109.348L62.2031 109.266L62.3203 109.184ZM65.0859 109.266L65.0508 109.465V109.512C65.1055 109.496 65.1602 109.426 65.2148 109.301L65.168 109.266H65.0859ZM64.1953 109.383L64.3125 109.512V109.582L64.1953 109.465V109.383ZM67.6172 109.383H67.6523L67.7344 109.465V109.512H67.6992L67.6172 109.43V109.383ZM64.3945 109.992L64.4414 110.039V110.074L64.3945 110.121H64.3125V110.074L64.3945 109.992ZM66.1523 109.992L66.2344 110.074L66.1875 110.121H66.1055L66.0234 110.039L66.0703 109.992H66.1523ZM65.168 110.203L65.2148 110.238V110.285H65.0859L65.168 110.203ZM70.5938 91.1602H70.6289L70.7109 91.2422V91.2773H70.6289L70.5938 91.1602ZM72.75 91.2773H72.832V91.4414L72.75 91.5234L72.7031 91.4883V91.4414L72.75 91.2773ZM77.5898 91.4062H77.625L77.7891 91.5703V91.6055H77.7422L77.5898 91.4414V91.4062ZM78.6445 91.8164L78.6797 91.8516C78.6406 91.9609 78.6016 92.0156 78.5625 92.0156H78.5156V91.9336L78.6445 91.8164ZM78.9258 92.0508V92.0977C78.8867 92.207 78.8477 92.2617 78.8086 92.2617C78.8086 92.332 78.9141 92.4141 79.125 92.5078L79.1719 92.3789L79.125 92.3438V92.2148L79.418 92.3438L79.4531 92.2969V92.3789H79.5V92.2969H79.5352C79.5352 92.4062 79.5625 92.4609 79.6172 92.4609L79.582 92.5078C79.582 92.5859 79.6211 92.625 79.6992 92.625V92.707H79.582L79.6172 92.7422V92.7891H79.5L79.582 92.9062L79.5352 92.9531L79.5 92.9062H79.418V93.1523L79.5352 93.5625C79.5977 93.5625 79.6523 93.4688 79.6992 93.2812H79.8164V93.3633L80.0625 93.2344V93.2812L80.0273 93.4336L80.2266 93.3984L80.3086 93.4805V93.5625H80.2266L80.2734 93.5977V93.6445L80.2266 93.6797L80.2734 93.7266V93.7617L80.2266 93.8086V93.8438C80.3828 93.8281 80.5039 93.7891 80.5898 93.7266H80.6367V93.8086C80.5508 93.8086 80.5078 93.8359 80.5078 93.8906V94.0078H80.7188V93.9258H80.8008V94.0898L80.8359 94.0547H81V94.125L80.7539 94.207L80.8008 94.2539V94.2891L80.7539 94.3359H80.6719C80.6719 94.2734 80.6172 94.2188 80.5078 94.1719H80.4727V94.207L80.6719 94.5352L80.7188 94.5H80.8828C80.8828 94.5547 80.8398 94.582 80.7539 94.582V94.6172H81.0469V94.6992L81 94.7461V94.7812C81.3828 94.9609 81.5742 95.2852 81.5742 95.7539C81.7148 95.8242 81.8242 95.9336 81.9023 96.082V96.2461C81.7852 96.7617 81.5938 97.1562 81.3281 97.4297C81.2578 97.7422 81.0547 97.9844 80.7188 98.1562C80.6406 98.2812 80.3945 98.5 79.9805 98.8125C79.8555 99.2188 79.6797 99.4219 79.4531 99.4219L79.1719 99.7031H79.2539C80.8086 99.5938 82.043 99.5391 82.957 99.5391L82.9922 99.5859C82.9922 99.5156 83.168 99.4336 83.5195 99.3398L83.6836 99.375L84.2578 99.3398H84.293C84.5195 99.3398 84.6719 99.4492 84.75 99.668C85.2188 99.8398 85.6641 100.312 86.0859 101.086L86.168 101.906C86.0273 102.664 85.8906 103.043 85.7578 103.043C85.6328 103.137 85.4453 103.395 85.1953 103.816L83.2852 105.199C82.2773 105.723 81.7734 106.129 81.7734 106.418C81.7734 106.566 81.543 106.73 81.082 106.91C81.082 107.184 80.8516 107.371 80.3906 107.473C80.2266 107.668 80.0781 107.766 79.9453 107.766C80.2734 107.43 80.5586 107.211 80.8008 107.109C80.8008 106.812 81.0703 106.582 81.6094 106.418C81.6094 106.285 81.8281 105.906 82.2656 105.281C82.4297 104.906 82.5898 104.66 82.7461 104.543C82.7695 104.395 82.8672 104.234 83.0391 104.062C83.2188 103.602 83.3789 103.371 83.5195 103.371L83.9297 102.551V102.305C83.9297 102.242 83.8203 102.176 83.6016 102.105L83.5664 102.07V101.824C83.4805 101.824 83.4375 101.797 83.4375 101.742V101.66L83.4844 101.613V101.578C83.2109 101.516 83.0742 101.406 83.0742 101.25L82.875 101.133H82.793L82.6641 101.215H81.6562C81.5625 101.105 81.4805 101.051 81.4102 101.051L80.9648 101.168H80.5547L80.5078 101.133L80.4727 101.168H80.4375C79.7734 101.059 79.3242 100.922 79.0898 100.758C78.957 100.758 78.6992 100.691 78.3164 100.559C78.1914 100.676 78.0977 100.812 78.0352 100.969C78.1445 100.984 78.1992 101.023 78.1992 101.086H78.1172L77.9883 101.051V101.086L78.0352 101.133C78.0039 101.352 77.9609 101.461 77.9062 101.461C77.9375 101.664 78.1133 101.945 78.4336 102.305C78.6523 102.68 78.8594 102.91 79.0547 102.996V103.078C78.8125 102.977 78.5547 102.691 78.2812 102.223L77.9531 101.906C77.7891 101.719 77.707 101.543 77.707 101.379L77.6602 101.332H77.625L77.543 101.414V101.379L77.625 101.215C77.3828 101.215 77.207 101.078 77.0977 100.805C77.207 100.758 77.2617 100.664 77.2617 100.523L77.2148 100.477C77.4102 100.445 77.5078 100.336 77.5078 100.148H77.5898C77.5898 100.242 77.5469 100.34 77.4609 100.441L77.7891 100.559V100.523C77.7891 100.453 78.0742 100.098 78.6445 99.457C78.7383 99.1914 79.0625 98.8125 79.6172 98.3203L79.8984 97.8281C79.7969 97.3359 79.7188 96.7812 79.6641 96.1641L79.6172 96.1289V95.918C79.7188 95.7852 79.8008 95.7188 79.8633 95.7188C79.8633 95.6328 79.7539 95.5781 79.5352 95.5547V95.5898L79.207 95.8359H79.1719V95.7539L79.5 95.5195L79.418 95.3086L78.8438 95.7188V95.6367L79.125 95.3555C79.25 94.9258 79.3477 94.6797 79.418 94.6172V94.582C79.3086 94.582 79.2539 94.5273 79.2539 94.418H79.1719L79.125 94.4531H79.0898L78.9258 94.3711L78.8906 94.418V94.4531L78.9727 94.6172H78.9258C78.8555 94.6172 78.8164 94.5625 78.8086 94.4531L78.7617 94.5H78.7266L78.6797 94.4531C78.6797 94.5938 78.625 94.6641 78.5156 94.6641L78.4805 94.6172C78.3008 94.9062 78.1523 95.0703 78.0352 95.1094H77.9883L78.5156 94.3711V94.3359L78.4805 94.3711H78.2812L78.2344 94.2539L77.7891 94.207C77.2734 94.2617 77.0156 94.3984 77.0156 94.6172H76.9336L76.8516 94.5352V94.5C77.0938 94.25 77.4883 94.125 78.0352 94.125C78.0977 93.9922 78.1641 93.9258 78.2344 93.9258V93.8438C78.0312 93.6562 77.2188 93.4531 75.7969 93.2344H75.1406V93.1523H75.8789C76.3633 93.1523 76.7695 93.1953 77.0977 93.2812C77.0977 93.1719 77.125 93.1172 77.1797 93.1172L77.3438 93.2812L77.5078 93.1172C77.5078 93.2266 77.6953 93.3203 78.0703 93.3984V93.3633L78.0352 93.2344H78.0703L78.2344 93.1992L78.1992 93.0352L77.9062 93.0703V92.9883L78.1523 92.9531L78.1172 92.9062V92.8711L78.1523 92.8242V92.7891L77.9883 92.625H78.0352L78.2812 92.7891L78.3984 92.7422C78.3984 92.8516 78.4531 92.9062 78.5625 92.9062V92.9883L78.5156 93.0352V93.0703H78.6445C78.6523 92.9609 78.707 92.9062 78.8086 92.9062V92.9531L78.6797 93.1523H78.7266L78.9727 93.1172C79.0742 93.2031 79.1523 93.3242 79.207 93.4805C79.207 93.5352 79.1289 93.5742 78.9727 93.5977V93.6445C79.1602 93.6445 79.3203 93.7109 79.4531 93.8438H79.5352V93.8086C79.3164 93.543 79.207 93.3672 79.207 93.2812C79.207 93.1172 79.1289 93.0352 78.9727 93.0352C78.9727 92.8945 78.8633 92.8242 78.6445 92.8242C78.4492 92.5898 78.2188 92.4297 77.9531 92.3438V92.2969H78.0352L78.3164 92.3438V92.2969L78.2812 92.2617V92.2148C78.3359 92.2148 78.3633 92.1758 78.3633 92.0977H78.3984L78.5156 92.1797L78.5625 92.1328L78.8086 92.2148V92.1797L78.9258 92.0508ZM73.6406 92.1328V92.1797L73.5586 92.2617V92.2148L73.6406 92.1328ZM75.0234 92.4258H75.1055V92.4609L75.0234 92.543H74.9414V92.5078L75.0234 92.4258ZM72.0117 92.5078L72.0938 92.5898L72.0586 92.625H71.9766L72.0117 92.5078ZM73.6055 92.6602C73.6914 92.668 73.8242 92.793 74.0039 93.0352H74.1211C74.1211 92.8555 74.1758 92.7461 74.2852 92.707L74.2031 92.9883H74.332L74.4492 92.9062L74.4961 92.9531V92.9883L74.4492 93.0352V93.0703L74.7773 93.4336V93.4805C74.7773 93.5352 74.7383 93.5625 74.6602 93.5625V93.5977C74.6602 93.6445 74.7539 93.6875 74.9414 93.7266C74.9414 93.8594 75.0508 93.9258 75.2695 93.9258V94.0078L74.9766 93.9727H74.9414V94.0078L75.0586 94.2891V94.4531L75.0234 94.5L75.0586 94.5352V94.6992L74.9766 94.8281L75.2227 94.9805C75.2227 95.0352 75.1836 95.0625 75.1055 95.0625L75.2695 95.1914V95.2734L75.2227 95.3906C75.4961 95.5 75.6328 95.7188 75.6328 96.0469V96.1289H75.668L75.7148 96.082H75.75L75.832 96.3281C75.832 96.4141 75.75 96.5625 75.5859 96.7734L76.043 97.1367V97.1836L75.9961 97.3828C76.1055 97.4297 76.1602 97.5273 76.1602 97.6758L76.043 97.793L76.0781 98.0391C75.8906 98.3828 75.7969 98.8008 75.7969 99.293C76.0156 100.145 76.2188 100.633 76.4062 100.758C76.5703 101.148 76.7461 101.406 76.9336 101.531L76.9688 101.695C76.9688 101.836 76.9453 101.906 76.8984 101.906L76.9336 102.023C77.1289 102.023 77.293 101.859 77.4258 101.531H77.5078C77.5078 101.625 77.4258 101.777 77.2617 101.988V102.023C77.3555 102.023 77.4375 102.215 77.5078 102.598L77.3438 102.879H77.2148C77.0195 102.879 76.8594 102.715 76.7344 102.387H76.6875V102.469L76.9336 103.125C77.0117 103.148 77.1211 103.488 77.2617 104.145C77.4648 104.574 77.5977 104.98 77.6602 105.363V105.609L77.9062 105.891L77.8711 106.09V106.137C78.0742 106.746 78.25 107.164 78.3984 107.391H78.4805L78.4336 107.438V107.473L78.5625 107.555L78.6445 107.473H78.7266V107.52L78.5625 107.637L78.5156 107.684V107.719C78.5156 107.773 78.5586 107.801 78.6445 107.801V107.883L78.5977 107.93V107.965H78.8906V108.047H78.6797L78.5977 108.117V108.246C78.5977 108.309 78.668 108.348 78.8086 108.363L78.9727 108.199H79.0078V108.246L78.8906 108.41V108.445L79.0898 108.527L79.0547 108.574V108.656C79.1562 108.664 79.207 108.703 79.207 108.773H79.125L78.8906 108.656C78.8047 108.656 78.7617 108.707 78.7617 108.809H78.6797V108.773L78.7266 108.738V108.691L78.5625 108.574L78.6797 108.41L78.6445 108.363H78.5977L78.5625 108.41H78.5156L78.3984 108.363L78.4336 108.41V108.492H78.3164C78.3164 108.578 78.3555 108.672 78.4336 108.773L78.3633 108.938H78.5156V109.02L78.3164 108.973V109.102L78.4805 109.219L78.5156 109.266V109.301H78.4336L78.2344 109.219V109.266L78.1992 109.301L78.2812 109.547H78.1992C78.1992 109.438 78.1719 109.383 78.1172 109.383C78.0156 109.383 77.7852 109.641 77.4258 110.156V110.121L77.625 109.664V109.43L77.5078 109.301C77.4609 109.301 77.4062 109.395 77.3438 109.582H77.2969V109.43L77.3438 109.383L77.2969 109.348V109.266H77.3789V109.219L77.2617 109.102L77.0508 109.184V109.102H77.1328L77.0156 108.973L77.0508 108.773L77.0156 108.738H76.9688L76.8164 108.973V109.137L76.8984 109.266L76.8164 109.348L76.6523 109.102L76.5234 109.266C76.4453 109.266 76.3906 109.156 76.3594 108.938L76.1602 108.973V108.891H76.125C76.125 108.977 76.0547 109.059 75.9141 109.137V109.055L75.9961 108.773C75.7461 108.844 75.5156 109.047 75.3047 109.383L75.2227 109.301C75.2227 109.16 75.3867 108.996 75.7148 108.809L75.668 108.773V108.691C75.7852 108.691 75.8945 108.625 75.9961 108.492H76.043V108.445L75.9141 108.41L75.7969 108.445V108.41L75.832 108.281H75.7148L75.75 108.246V108.199H75.6328L75.5156 108.328V108.363L75.5508 108.41V108.445L75.5156 108.492H75.4688C75.4531 108.406 75.3984 108.352 75.3047 108.328V108.246L75.2695 108.281H75.2227L75.1406 108.199L75.4688 108C75.4688 107.953 75.3867 107.887 75.2227 107.801V107.719C75.3242 107.805 75.4219 107.848 75.5156 107.848H75.5508L75.5859 107.719C75.5078 107.719 75.4414 107.664 75.3867 107.555H75.4336L75.75 107.684V107.637C75.75 107.559 75.8047 107.52 75.9141 107.52V107.473L75.4688 107.32V107.273L75.5156 107.238V107.191C75.1875 107.059 75.0234 106.965 75.0234 106.91H75.1055L75.9141 107.32L75.9609 107.273V107.238L75.9141 106.992C76.0234 107.008 76.0781 107.117 76.0781 107.32C76.2109 107.25 76.2773 107.113 76.2773 106.91L76.207 106.828V106.746H76.2773C76.2852 106.879 76.3281 106.945 76.4062 106.945L76.4414 106.91C76.3633 106.668 76.2852 106.547 76.207 106.547L76.125 106.617H76.043L76.3242 106.383L76.2773 106.336L76.3594 105.973L75.9961 105.609V105.527C76.0039 105.387 76.0312 105.316 76.0781 105.316C75.8906 104.902 75.7969 104.633 75.7969 104.508L75.75 104.461V104.309L75.7969 104.145C75.7109 104.074 75.6562 103.762 75.6328 103.207C75.3594 102.77 75.2227 102.469 75.2227 102.305V102.152L75.2695 101.777C75.2383 101.668 75.1836 101.613 75.1055 101.613V101.531H75.1875L74.8594 101.168V101.133L75.1055 101.332H75.1406C75.1406 101.199 75.168 101.09 75.2227 101.004C75.0898 100.895 75.0234 100.773 75.0234 100.641V100.605L75.1406 100.277C75.0234 100.059 74.9023 99.582 74.7773 98.8477L74.5781 98.6484L74.6133 98.6016V98.5664C74.4258 98.1133 74.3164 97.7461 74.2852 97.4648L74.25 97.4297L74.3672 96.7383C74.0703 96.3242 73.9219 95.9414 73.9219 95.5898L73.8867 95.6367H73.7227V95.5898C73.832 95.5898 73.8867 95.5508 73.8867 95.4727L73.7578 95.2734H73.8867V95.2266C73.8867 95.1719 73.832 95.1445 73.7227 95.1445L73.6875 95.1094V95.0625L73.7227 95.0273L73.6055 94.9805L73.4414 95.0273C73.3789 95.0273 73.3398 94.9609 73.3242 94.8281L73.3594 94.7812H73.3945L73.4414 94.8281H73.4766V94.6992C73.3438 94.6992 73.2227 94.5781 73.1133 94.3359L73.3594 94.125V94.0898L73.1953 93.8906L73.2773 93.7617L73.2422 93.7266H73.1953L72.9492 93.9258L72.9961 94.125C72.8867 94.1719 72.832 94.2148 72.832 94.2539L73.0781 94.7812H72.9492C73.0352 95.0234 73.1445 95.1445 73.2773 95.1445V95.2266H73.1953L73.2773 95.3086H73.7227C73.7227 95.3555 73.6016 95.3984 73.3594 95.4375C73.3594 95.5078 73.2227 95.6562 72.9492 95.8828C72.9492 96.0078 72.8672 96.1289 72.7031 96.2461H72.6328V96.2109L72.832 95.9648C72.7539 95.8711 72.5898 95.8008 72.3398 95.7539V95.8008L72.2227 95.918H72.1758L72.3398 95.6367L72.3047 95.5898L72.2578 95.6367H72.1758V95.5547C72.2617 95.5547 72.3047 95.5273 72.3047 95.4727V95.4375H71.9414V95.3555H72.3047C72.3047 95.3008 72.2617 95.2734 72.1758 95.2734L72.1406 95.2266V95.1914L72.1758 95.1445L72.1406 95.1094H72.1758L72.3047 95.1445V95.1094L72.3398 94.8984L72.2227 94.9805H72.1406V94.8984L72.2227 94.7812V94.6992L72.0938 94.6641L71.8125 95.1094H71.7773V95.0625L71.9766 94.7461C71.7891 94.6133 71.6953 94.5156 71.6953 94.4531L71.4492 94.5L71.3203 94.4531V94.3711L71.6133 94.3359H71.7305C71.7305 94.25 71.7734 94.207 71.8594 94.207V94.125C71.75 94.125 71.6953 94.1016 71.6953 94.0547H71.8125L71.8594 94.0898H71.8945C71.8945 94.0352 71.9609 94.0078 72.0938 94.0078V93.9727C72.0156 93.9727 71.9766 93.9297 71.9766 93.8438H71.8945V93.7617H71.9414L72.1406 93.8086V93.7266C72.0469 93.7266 71.9258 93.6172 71.7773 93.3984H71.8125L72.0117 93.5625H72.0586L72.0938 93.5156H72.1406L72.0938 93.4805V93.2812L72.1406 92.9883H72.2227L72.1758 93.2812H72.2578V93.4336L72.2227 93.4805V93.5156H72.2578L72.3047 93.4805H72.3398V93.5625H72.4219L72.5508 93.0352H72.6328L72.5859 93.3984C72.6406 93.3984 72.707 93.2773 72.7852 93.0352L73.1133 92.7891L73.3242 92.8242H73.6055L73.5234 92.707L73.5586 92.6602H73.6055ZM80.2266 92.8242H80.2734L80.3555 92.9062L80.1914 92.9531L80.2266 92.8242ZM80.918 93.5625L80.9648 93.5977V93.6445L80.7539 93.7617H80.7188V93.6797L80.918 93.5625ZM70.5469 93.8906L70.7578 93.9258V94.0078H70.6289L70.5469 93.9258V93.8906ZM75.5859 94.0078H75.7969V94.0898H75.668L75.5859 94.0078ZM79.2539 94.4531C79.2539 94.5391 79.2812 94.582 79.3359 94.582V94.6172L79.207 94.7461L79.125 94.5L79.1719 94.4531H79.2539ZM71.6484 94.582H71.7305V94.6992H71.6484V94.582ZM72.7852 94.6641V94.7461L72.832 94.8633H72.7852L72.668 94.7812V94.8633L72.7031 94.9805C72.8125 94.957 72.8672 94.8906 72.8672 94.7812L72.832 94.6641H72.7852ZM72.5508 94.7812V94.9453L72.5859 94.8984H72.6328L72.5859 94.7812H72.5508ZM71.3672 94.8633L71.4023 94.8984V94.9453L71.3672 94.9805H71.3203L71.2852 94.9453V94.8984L71.3203 94.8633H71.3672ZM76.6055 95.1094L76.6523 95.1445V95.1914C76.6211 95.2695 76.5391 95.3086 76.4062 95.3086H76.3242L76.2422 95.2266L76.6055 95.1094ZM71.8594 95.3906V95.4375C71.5703 95.625 71.4062 95.7852 71.3672 95.918L71.25 95.9648L71.2031 95.918V95.8828C71.4453 95.5938 71.6641 95.4297 71.8594 95.3906ZM77.9062 95.4375L77.7422 95.5898H77.707V95.5547C77.707 95.4922 77.7734 95.4531 77.9062 95.4375ZM70.793 95.5547H70.8398V95.5898L70.7578 95.6719H70.7109V95.6367L70.793 95.5547ZM73.1953 95.7539H73.2773L73.3945 95.8828H73.3594L73.1953 95.7539ZM78.7617 95.8008V95.8359C78.4961 96.1719 78.3633 96.3906 78.3633 96.4922H78.2812L78.2344 96.3633C78.25 96.2617 78.4258 96.0742 78.7617 95.8008ZM71.1211 96.1289L71.3203 96.1641V96.2461L71.2031 96.3633H71.1211L71.0391 96.293V96.2109L71.1211 96.1289ZM71.9766 96.5273L72.0586 96.6094L72.0117 96.6562H71.9766V96.5273ZM73.1602 96.6094L73.1953 96.6562V96.6914L73.1133 96.7734L73.0781 96.7383V96.6914L73.1602 96.6094ZM84.6211 98.7656V98.8125L84.5391 98.8945L84.457 98.8125L84.5039 98.7656H84.6211ZM84.1758 99.0586H84.3398L84.4219 99.1406V99.1758L84.3398 99.2578H84.293L84.0938 99.2227V99.1406L84.1758 99.0586ZM74.0508 100.84L74.1211 100.922V100.969H74.0508V100.84ZM73.7578 101.531L73.8867 101.66L73.8398 101.695H73.8047V101.66L73.7578 101.695H73.7227L73.6055 101.578L73.6406 101.531H73.7578ZM81.1641 101.777H81.2812V101.859H81.2461L81.1641 101.777ZM82.2656 101.859H82.3008V101.906C82.0352 102.078 81.9023 102.199 81.9023 102.27L82.5117 102.633L82.5469 102.598H82.7109L82.8281 102.715L82.6641 102.797C82.2734 102.578 82.0312 102.469 81.9375 102.469C81.8672 102.469 81.7852 102.523 81.6914 102.633H81.6094L81.5742 102.598L81.4102 102.68L81.2461 102.598L81.2812 102.387V102.352H81.2461L80.7539 102.387V102.305L81.4102 102.223C81.4102 102.176 81.3672 102.152 81.2812 102.152L81.2461 102.105V102.07L81.2812 102.023H81.3281L81.5273 102.07C81.5273 101.977 81.6094 101.922 81.7734 101.906L81.8555 101.988C82.0586 101.965 82.1953 101.922 82.2656 101.859ZM82.957 102.762L83.1562 102.797V102.926L82.957 102.879V102.762ZM73.3594 103.324L73.4414 103.406C73.3945 103.516 73.3008 103.57 73.1602 103.57L73.1133 103.535V103.488L73.3594 103.324ZM80.1914 103.898H80.3086L80.2266 103.98H80.1914V103.898ZM85.7578 104.016L85.8047 104.062V104.098L84.75 105.234V105.281C84.9062 105.281 84.9844 105.348 84.9844 105.48L84.9492 105.609L84.9844 105.562H85.0312V105.609L84.9844 105.645V105.691L85.0312 105.727L84.9023 105.773L84.9492 105.973L84.9023 105.926L84.8672 105.973H84.8203L84.7852 105.926H84.75V105.973L84.7852 106.09H84.75L84.5859 105.973H84.5039V106.055L84.457 106.008C84.2695 106.008 84.1758 106.105 84.1758 106.301H84.0938C84.0938 106.191 84.0547 106.137 83.9766 106.137C83.9766 106.066 83.9062 106.023 83.7656 106.008L83.7305 106.055V106.008L83.7656 105.973V105.926L83.7305 105.773V105.727H83.8477L83.8125 105.691V105.645H83.8477L83.8125 105.609V105.527C83.8672 105.527 83.8945 105.484 83.8945 105.398H84.0117L83.9766 105.363V105.281L84.0938 105.363V105.316L84.0469 105.281V105.234H84.0938L84.1289 105.281H84.1758C84.1758 105.172 84.2148 105.117 84.293 105.117V105.082L84.3398 105.117H84.4219C84.4219 105.039 84.4492 105 84.5039 105H84.5391V105.035L84.5039 105.082L84.5391 105.199H84.5859L85.7578 104.016ZM75.3867 106.301L75.4688 106.418L75.4336 106.465H75.3047L75.2227 106.383V106.336L75.3867 106.301ZM79.7812 106.617C79.8984 106.617 79.9805 106.688 80.0273 106.828L79.8984 106.91L79.6992 106.781L79.3711 106.828C79.3711 106.758 79.5078 106.688 79.7812 106.617ZM74.332 106.699L74.4492 106.992C74.2695 107.062 74.1367 107.145 74.0508 107.238C73.9414 107.191 73.8867 107.094 73.8867 106.945C73.9961 106.945 74.0508 106.906 74.0508 106.828C74.0508 106.766 74.1445 106.723 74.332 106.699ZM79.3711 106.828L79.0898 107.027H79.0078C79.0078 106.949 79.1289 106.883 79.3711 106.828ZM76.4414 107.027L76.4062 107.156L76.4414 107.32L76.5703 107.273L76.4883 107.027H76.4414ZM74.2852 107.109H74.332L74.4492 107.273L74.4141 107.32H74.332L74.2031 107.191L74.2852 107.109ZM78.8906 107.109L78.6445 107.32H78.5977C78.6836 107.18 78.7812 107.109 78.8906 107.109ZM74.0508 107.273H74.0859C74.1484 107.273 74.1875 107.34 74.2031 107.473L74.0859 107.555H74.0039C73.9492 107.555 73.9219 107.516 73.9219 107.438L74.0508 107.273ZM76.5234 107.438L76.6055 107.52L76.6875 107.438L76.6055 107.355L76.5234 107.438ZM74.2852 107.473H74.3672V107.602H74.2852V107.473ZM77.5898 108.082V108.117L77.6602 108.363H77.707L77.7891 108.164L77.5898 108.082ZM77.5078 108.328C77.5078 108.492 77.3984 108.574 77.1797 108.574L77.2969 108.691C77.4219 108.645 77.5312 108.551 77.625 108.41L77.5078 108.328ZM75.2227 108.691H75.3516V108.773H75.2227V108.691ZM76.5703 108.809L76.5234 109.02L76.6055 109.102L76.6523 108.891L76.5703 108.809ZM79.0078 109.137H79.0547L79.125 109.219H79.0078V109.137ZM74.9766 109.184H75.0234V109.266L74.9414 109.348L74.8594 109.266L74.9766 109.184ZM77.7422 109.266L77.707 109.465V109.512C77.7617 109.496 77.8164 109.426 77.8711 109.301L77.8242 109.266H77.7422ZM76.8516 109.383L76.9688 109.512V109.582L76.8516 109.465V109.383ZM80.2734 109.383H80.3086L80.3906 109.465V109.512H80.3555L80.2734 109.43V109.383ZM77.0508 109.992L77.0977 110.039V110.074L77.0508 110.121H76.9688V110.074L77.0508 109.992ZM78.8086 109.992L78.8906 110.074L78.8438 110.121H78.7617L78.6797 110.039L78.7266 109.992H78.8086ZM77.8242 110.203L77.8711 110.238V110.285H77.7422L77.8242 110.203ZM90.6211 89.7422L90.6797 89.7891V89.8945L90.5156 90.0586H90.4102C90.4805 89.8477 90.5508 89.7422 90.6211 89.7422ZM90.8789 90.1641L90.9375 90.2109V90.2578L90.8789 90.3164H90.832L90.7734 90.2578V90.2109L90.832 90.1641H90.8789ZM89.4727 90.2109L89.8945 90.6328V90.7383L89.3672 90.3164L89.4727 90.2109ZM93.0703 90.3164L93.1758 90.4219L93.1289 90.4688H93.0703V90.3164ZM91.9219 90.3633H92.0273V90.4219L91.7227 90.7383C91.7852 90.7383 91.8164 90.7891 91.8164 90.8906L91.6641 91.3008L91.6172 91.2539H91.5586L91.4531 91.3594V91.4062L91.7695 91.6172H91.8164L92.0859 91.5703V91.6758H91.9805V91.7812C91.9805 91.8359 92.1875 91.9727 92.6016 92.1914V92.25L92.4961 92.3438L91.9219 91.9336L91.7695 91.9805V92.0391L91.875 92.1914H91.7695L90.9844 91.7812V91.7227L91.043 91.6758V91.6172C90.957 91.6172 90.8672 91.5664 90.7734 91.4648H90.6797V91.5117C90.6797 91.6289 90.7305 91.75 90.832 91.875L90.7734 92.3438V92.4023L91.0898 92.1914L91.043 92.1445V92.0391H91.1484V92.1914L91.1953 92.1445H91.3008C91.3711 92.1445 91.4219 92.2461 91.4531 92.4492H91.5586V92.5078L91.5117 92.5547V92.6133L91.5586 92.6602L91.0898 92.8242V92.8711C91.4883 92.8711 91.75 93.0273 91.875 93.3398L92.1328 93.4453V93.5508H92.0859L91.7227 93.3867V93.4453C91.9648 93.6641 92.0859 93.8203 92.0859 93.9141H92.0273L91.1484 93.2344C91.1484 93.2969 91.0234 93.3477 90.7734 93.3867V93.4453L90.9375 93.6562L90.5156 93.7031V93.7617C91.2812 94.082 91.6641 94.3398 91.6641 94.5352L91.6172 94.5938V94.6406L91.9805 95.0039L91.9219 95.0625H91.875C91.6562 94.7812 91.4648 94.6406 91.3008 94.6406C91.2305 94.5625 91.1953 94.4414 91.1953 94.2773L90.3633 93.7031L90.3047 93.7617V93.8086L90.3633 93.8672V93.9141L90.3047 93.9609C90.4141 93.9609 90.5195 94.0508 90.6211 94.2305L90.5742 94.2773H90.5156C90.5156 94.1523 90.2734 94.0469 89.7891 93.9609C90.0703 94.2812 90.2109 94.5078 90.2109 94.6406C90.1562 94.8203 90.0859 94.9414 90 95.0039L90.0469 95.0625V95.1094C90.0469 95.5859 89.875 96.2148 89.5312 96.9961L89.8359 98.7656L89.7891 99.1758L89.9414 99.8086V100.066C89.7695 100.488 89.6836 100.887 89.6836 101.262H89.6367L89.7891 101.531V101.73L89.8359 102.516L89.7891 102.879L89.9414 103.453V103.664L89.8945 105.07L89.7891 105.176L89.8359 105.434L89.5312 107.414L89.4727 107.473V107.52L89.6367 107.789L89.4727 108.41H89.3672L89.0625 107.262V106.582L88.6875 105.492L88.2773 104.285V103.09L87.9141 101.73L88.0664 101.367C88.0664 101.094 87.9961 100.695 87.8555 100.172L87.9141 99.9609L87.1289 98.0391L87.1758 97.5117L86.9766 96.5156V96.2578L87.082 96.0469L86.8125 94.8516L86.8711 94.5938L86.5547 94.3359V93.9609C86.5547 93.7109 86.832 93.418 87.3867 93.082C87.793 92.8789 88.0391 92.7227 88.125 92.6133L88.0664 92.5547V92.4492L88.125 92.5078H88.2188C88.4141 92.5078 88.5703 92.4023 88.6875 92.1914L88.957 92.1445L88.3828 91.6172L88.5352 91.5703L88.4883 91.5117V91.4648L88.5938 91.3594L88.6875 91.6172L88.7461 91.5703H88.793L88.8516 91.6172V91.6758L88.6875 91.7227V91.7812L89.0039 91.9805H89.0625L89.2148 91.9336V91.8281C89.1133 91.8281 89.0625 91.793 89.0625 91.7227V91.6758L89.2148 91.4062L88.957 91.3594V91.2539L89.2148 91.3008H89.3672L89.3203 91.2539V91.207L89.4258 91.1016L89.6836 91.1484C89.6836 91.0781 89.7891 91.0273 90 90.9961L90.1055 91.207C90.1836 91.207 90.3555 90.9453 90.6211 90.4219H90.6797L90.7266 90.4688V90.5273C90.6016 90.6289 90.4805 90.8555 90.3633 91.207L90.4102 91.2539H90.4688L90.5156 91.207H90.5742L90.6211 91.2539V91.3008L90.832 91.207V91.2539L90.7734 91.3008V91.3594H90.8789C90.9648 91.3594 91.1055 91.168 91.3008 90.7852C91.4883 90.7852 91.6953 90.6445 91.9219 90.3633ZM89.0039 90.4219L89.1094 90.5742L89.0039 90.6797L88.8984 90.5273L89.0039 90.4219ZM93.2812 90.5742H93.3398L93.4336 90.6797V90.7383H93.2812V90.5742ZM92.1914 91.4062L92.2969 91.5117L92.2383 91.5703H92.1914L92.1328 91.5117L92.0859 91.5703V91.5117L92.1914 91.4062ZM88.0195 91.5703H88.0664L88.1719 91.6758V91.7812H88.125L88.0195 91.6758V91.5703ZM93.3398 91.5703H93.4922L93.5977 91.6758L93.6445 91.6172H93.75L93.8555 91.7227V91.875L93.75 91.9805H93.7031C93.6328 91.9805 93.5977 91.9297 93.5977 91.8281L93.4336 91.9336C93.2617 91.8867 93.1758 91.8359 93.1758 91.7812V91.7227L93.3398 91.5703ZM93.5977 92.0391L93.7031 92.1445L93.6445 92.1914H93.5977V92.0391ZM93.0703 92.1445H93.1758L93.2812 92.25L93.1758 92.3438L93.0703 92.25V92.1445ZM90.6797 92.5547V92.6133L90.8789 92.7188V92.5547H90.6797ZM91.875 92.6602L91.9219 92.7188V92.8242L91.8164 92.918L91.7695 92.8711V92.7656L91.875 92.6602ZM92.3906 94.4883L92.4492 94.5352V94.5938L92.0273 94.7461C92.0508 94.668 92.1719 94.582 92.3906 94.4883ZM91.3008 95.0625H91.3477C91.1758 95.3047 91.0391 95.4258 90.9375 95.4258V95.5312L90.9844 95.5781V95.6367L90.7734 95.7422H90.7266C90.6719 95.7422 90.6016 95.6367 90.5156 95.4258C90.5625 95.2539 90.6172 95.168 90.6797 95.168H90.7266L90.8789 95.2734L91.3008 95.0625ZM91.5586 95.3789V95.5312H91.5117L91.4062 95.4258L91.4531 95.3789H91.5586ZM94.8867 88.8281H95.0273C95.4023 89.0312 95.5898 89.1719 95.5898 89.25L95.543 89.2969V89.3438C95.4023 89.2188 95.2148 89.1562 94.9805 89.1562L94.9336 89.1094C94.8398 89.1094 94.793 89.0781 94.793 89.0156V88.9219L94.8867 88.8281ZM93.4102 87.8203L93.4688 87.8672V87.9258L93.4102 87.9727H93.3633L93.3164 87.9258V87.8672L93.3633 87.8203H93.4102ZM93.7734 87.8672C94.3203 88.1953 94.5938 88.4883 94.5938 88.7461L94.8047 89.0039V89.1094C94.7031 89.1953 94.6523 89.2969 94.6523 89.4141H94.5938L94.6992 89.8242L94.5938 89.9297V89.9766C94.6797 90.125 94.7656 90.2109 94.8516 90.2344L95.2617 89.8242L95.2148 89.5664V89.4609H95.2617C95.5039 89.5469 95.625 89.6172 95.625 89.6719V89.7188L95.5195 89.8711L95.625 90.0352C95.7656 89.9883 95.8672 89.9023 95.9297 89.7773V89.6719C95.8281 89.6719 95.7773 89.6367 95.7773 89.5664V89.5195H95.8828L95.7773 89.3672L96.1406 89.1094H96.2461L96.1406 89.2617L96.1875 89.3086V89.3672C96.5469 89.3672 96.8047 89.2461 96.9609 89.0039C97.0156 89.0039 97.0664 89.125 97.1133 89.3672C97.043 89.3672 96.957 89.4844 96.8555 89.7188V89.7773L97.0078 89.8242C97.0078 89.7227 97.043 89.6719 97.1133 89.6719L97.0664 89.625V89.5664C97.0664 89.5117 97.1523 89.4609 97.3242 89.4141C97.4258 89.5391 97.4766 89.6602 97.4766 89.7773L97.3711 90.0352L97.418 90.082H97.4766L97.6758 89.8711H97.7344V89.9297C97.5938 90.1016 97.4883 90.1875 97.418 90.1875V90.2344H97.582L97.9922 89.9766H98.0391L97.7344 90.3398V90.3867L100.102 89.7188L100.559 89.8242L101.074 89.625L101.438 89.6719C101.438 89.5781 101.641 89.4922 102.047 89.4141L102 89.3672V89.3086L102.047 89.2617H102.105L102.152 89.3086L102.305 89.2617V89.2031L102.047 88.9453L101.895 89.0039L102.047 88.8516C102.297 89.0859 102.539 89.2031 102.773 89.2031V89.3086L102.41 89.3672V89.4141H102.668L103.23 89.2617C103.238 89.1914 103.34 89.1406 103.535 89.1094V89.2031H103.441C103.441 89.4141 103.371 89.5195 103.23 89.5195L102.973 89.4609L102.926 89.625C103.199 89.625 103.336 89.6914 103.336 89.8242L103.23 89.9297H103.125L102.973 89.8242L102.715 89.8711V89.9766C102.715 90.0469 102.766 90.082 102.867 90.082V90.1289L102.773 90.2344L102.82 90.3867C103.125 90.3398 103.332 90.2734 103.441 90.1875V90.2344L103.383 90.4922H103.441L103.898 90.4453H104.109C104.133 90.2734 104.184 90.1875 104.262 90.1875L104.309 90.2344L104.109 90.5977V90.7031L104.367 90.7969L104.93 90.6445V90.75L104.461 90.9023L104.566 91.1602L104.52 91.207H104.461L104.309 91.1133C104.23 91.2852 104.145 91.3711 104.051 91.3711V91.418C104.191 91.4336 104.262 91.4844 104.262 91.5703L103.852 91.7227L103.898 91.7812V91.8281L103.793 91.9336H103.594L103.441 91.7812C103.043 91.9844 102.801 92.1367 102.715 92.2383C102.715 92.3086 102.477 92.3789 102 92.4492L101.848 92.6016L101.227 92.5547C100.586 92.7891 100.039 92.9414 99.5859 93.0117H99.2695C98.4648 93.0117 97.9023 93.082 97.582 93.2227V94.0898L97.5234 94.5586L97.6289 95.0625L97.582 96.6094L97.6758 96.9141V97.3242C97.6758 97.9102 97.625 98.2031 97.5234 98.2031C97.7109 98.6094 97.8477 99.1055 97.9336 99.6914V101.953C97.6602 103.188 97.4883 104.164 97.418 104.883L97.4766 105.551C97.4766 105.754 97.3398 106.082 97.0664 106.535L96.9609 107.098L97.1133 107.66L97.0664 108.176H96.9609V108.07L96.3984 105.656C96.2812 105.141 96.1953 104.883 96.1406 104.883H96.082L96.0352 104.941H95.9883L95.7773 104.625L95.8359 104.578L95.6719 104.273H95.5781L95.4141 104.367L95.2617 104.32L95.1562 104.426L95.1094 104.367V104.32L95.2148 104.215L95.0625 103.957L95.1094 103.805H95.0625L94.8047 103.91L94.8516 104.168L94.4414 104.32L94.3945 104.273V104.215C94.6289 103.77 94.8516 103.547 95.0625 103.547H95.2148C95.2305 103.414 95.2812 103.348 95.3672 103.348L95.5195 103.395V103.137H95.5781L95.625 103.195H95.6719C95.6719 102.883 95.7266 102.555 95.8359 102.211L95.7773 101.906L95.8828 101.391C95.8828 101.117 95.8125 100.895 95.6719 100.723C95.7266 99.7617 95.7969 99.2812 95.8828 99.2812V99.1758C95.7266 99.1758 95.5898 98.7148 95.4727 97.793C95.2617 97.793 95.1562 97.6914 95.1562 97.4883C95.1562 97.3164 95.1914 97.2305 95.2617 97.2305C95.1836 96.2617 95.0312 95.625 94.8047 95.3203C94.5938 95.3203 94.4062 94.9297 94.2422 94.1484V93.8906L93.8203 94.043L93.0586 93.9375C92.8164 94.1328 91.7734 94.2695 89.9297 94.3477L89.8711 94.3945L89.7188 94.4531L89.1562 94.3477L88.9453 94.3945L88.3828 94.3477L88.1719 94.3945V94.3008C88.4766 94.2773 88.7695 94.1055 89.0508 93.7852C89.4961 93.6445 89.8555 93.4883 90.1289 93.3164C90.1914 93.3164 90.4141 93.1133 90.7969 92.707C91.2891 92.707 91.6484 92.5352 91.875 92.1914C91.875 92.1055 92.0781 92.0039 92.4844 91.8867C92.4844 91.7773 92.5898 91.7227 92.8008 91.7227L93.4102 91.3125H93.4688L93.6211 91.418L94.0781 91.3125V90.9609L94.1367 90.9023L93.9258 90.4453L93.9844 90.3867H94.0312L94.2422 90.5391L94.4414 90.293L94.2891 90.082V90.0352L94.4414 89.7773L94.3945 89.4609C94.4492 89.4609 94.5156 89.3242 94.5938 89.0508L94.3945 88.793C94.293 88.793 94.1719 88.6211 94.0312 88.2773C93.7812 88.1523 93.6445 88.0508 93.6211 87.9727C93.6211 87.9023 93.6719 87.8672 93.7734 87.8672ZM95.0625 88.4414H95.1094L95.2148 88.5352L95.1562 88.5938H95.0625V88.4414ZM96.9141 88.5352L96.9609 88.5938V88.6406L96.9141 88.6992H96.8555L96.8086 88.6406V88.5938L96.8555 88.5352H96.9141ZM99.2695 88.793H99.375V88.9453L98.8125 89.4141V89.3672L99.2695 88.793ZM103.957 88.793H104.004V88.8984L103.852 88.9453V88.8984L103.957 88.793ZM95.3203 88.9453H95.3672L95.4727 89.0508L95.4141 89.1094H95.3672L95.3203 89.0508V88.9453ZM96.3984 88.9453H96.4453V89.0039L96.3398 89.1094H96.2461L96.3984 88.9453ZM101.848 89.1562H101.941L102 89.3086H101.941L101.848 89.2031V89.1562ZM98.5547 89.5195L98.6016 89.5664V89.625L98.1445 89.9297H98.0977C98.168 89.7578 98.3203 89.6211 98.5547 89.5195ZM104.871 89.625L104.93 89.6719V89.7188L104.871 89.7773H104.824L104.777 89.7188V89.6719L104.824 89.625H104.871ZM108.012 89.7773V89.8242L107.801 90.0352H107.555V89.9766C107.594 89.8438 107.746 89.7773 108.012 89.7773ZM102.973 89.8711L103.031 89.9297V90.0352H102.867V89.9766L102.973 89.8711ZM103.793 89.9766L103.852 90.0352V90.082L103.793 90.1289H103.746L103.699 90.082V90.0352L103.746 89.9766H103.793ZM107.297 90.082L107.344 90.1289V90.1875C107.258 90.3516 106.828 90.5547 106.055 90.7969C105.547 90.7422 105.293 90.6914 105.293 90.6445L105.234 90.7031H105.035V90.6445L105.129 90.5391H105.902L107.297 90.082ZM103.383 92.0391H103.441C103.52 92.0391 103.586 92.1562 103.641 92.3906H103.594L103.383 92.0859V92.0391ZM89.0977 93.0117L89.2617 93.1641L88.9453 93.2695L88.8984 93.2227V93.1641L89.0977 93.0117ZM92.6953 94.7109V94.8164L92.4844 94.9102L92.3906 94.8164L92.6953 94.7109ZM94.3945 104.531L94.4414 104.578C94.3945 104.812 94.3086 104.984 94.1836 105.094H94.1367L94.0312 104.988V104.941C94.1406 104.691 94.2617 104.555 94.3945 104.531Z" fill="white"/>
<g clip-path="url(#clip0_14_366)">
<rect x="28" y="117" width="85" height="85" fill="#0F104C" fill-opacity="0.5"/>
<path d="M28.2 185.2H44.8V201.8H28.2V185.2Z" stroke="#5F0D16" stroke-width="0.4"/>
<path d="M28.2 168.2H44.8V184.8H28.2V168.2Z" stroke="#5F0D16" stroke-width="0.4"/>
<path d="M28.2 151.2H44.8V167.8H28.2V151.2Z" stroke="#5F0D16" stroke-width="0.4"/>
<path d="M28.2 134.2H44.8V150.8H28.2V134.2Z" stroke="#5F0D16" stroke-width="0.4"/>
<path d="M28.2 117.2H44.8V133.8H28.2V117.2Z" stroke="#5F0D16" stroke-width="0.4"/>
<path d="M45.2 185.2H61.8V201.8H45.2V185.2Z" stroke="#5F0D16" stroke-width="0.4"/>
<path d="M45.2 168.2H61.8V184.8H45.2V168.2Z" fill="white"/>
<path d="M45.2 168.2H61.8V184.8H45.2V168.2Z" stroke="#5F0D16" stroke-width="0.4"/>
<path d="M45.2 151.2H61.8V167.8H45.2V151.2Z" stroke="#5F0D16" stroke-width="0.4"/>
<path d="M45.2 134.2H61.8V150.8H45.2V134.2Z" stroke="#5F0D16" stroke-width="0.4"/>
<path d="M45.2 117.2H61.8V133.8H45.2V117.2Z" stroke="#5F0D16" stroke-width="0.4"/>
<path d="M62.2 185.2H78.8V201.8H62.2V185.2Z" stroke="#5F0D16" stroke-width="0.4"/>
<path d="M62.2 168.2H78.8V184.8H62.2V168.2Z" stroke="#5F0D16" stroke-width="0.4"/>
<path d="M62.2 151.2H78.8V167.8H62.2V151.2Z" fill="#EB1E1E"/>
<path d="M62.2 151.2H78.8V167.8H62.2V151.2Z" stroke="#5F0D16" stroke-width="0.4"/>
<path d="M62.2 134.2H78.8V150.8H62.2V134.2Z" stroke="#5F0D16" stroke-width="0.4"/>
<path d="M62.2 117.2H78.8V133.8H62.2V117.2Z" stroke="#5F0D16" stroke-width="0.4"/>
<path d="M79.2 185.2H95.8V201.8H79.2V185.2Z" stroke="#5F0D16" stroke-width="0.4"/>
<path d="M79.2 168.2H95.8V184.8H79.2V168.2Z" stroke="#5F0D16" stroke-width="0.4"/>
<path d="M79.2 151.2H95.8V167.8H79.2V151.2Z" stroke="#5F0D16" stroke-width="0.4"/>
<path d="M79.2 134.2H95.8V150.8H79.2V134.2Z" fill="white"/>
<path d="M79.2 134.2H95.8V150.8H79.2V134.2Z" stroke="#5F0D16" stroke-width="0.4"/>
<path d="M79.2 117.2H95.8V133.8H79.2V117.2Z" stroke="#5F0D16" stroke-width="0.4"/>
<path d="M96.2 185.2H112.8V201.8H96.2V185.2Z" stroke="#5F0D16" stroke-width="0.4"/>
<path d="M96.2 168.2H112.8V184.8H96.2V168.2Z" stroke="#5F0D16" stroke-width="0.4"/>
<path d="M96.2 151.2H112.8V167.8H96.2V151.2Z" fill="white"/>
<path d="M96.2 151.2H112.8V167.8H96.2V151.2Z" stroke="#5F0D16" stroke-width="0.4"/>
<path d="M96.2 134.2H112.8V150.8H96.2V134.2Z" stroke="#5F0D16" stroke-width="0.4"/>
<path d="M96.2 117.2H112.8V133.8H96.2V117.2Z" stroke="#5F0D16" stroke-width="0.4"/>
</g>
<rect x="28.5" y="117.5" width="84" height="84" stroke="url(#paint1_linear_14_366)"/>
<defs>
<linearGradient id="paint0_linear_14_366" x1="70.5" y1="17" x2="70.5" y2="83" gradientUnits="userSpaceOnUse">
<stop stop-color="#123BD5"/>
<stop offset="1" stop-color="#CD2237"/>
</linearGradient>
<linearGradient id="paint1_linear_14_366" x1="31.7979" y1="120.436" x2="138.59" y2="226.777" gradientUnits="userSpaceOnUse">
<stop stop-color="#B17BFF"/>
<stop offset="1" stop-color="#FF0751"/>
</linearGradient>
<clipPath id="clip0_14_366">
<rect x="28" y="117" width="85" height="85" fill="white"/>
</clipPath>
</defs>
</svg>
