<svg width="142" height="218" viewBox="0 0 142 218" fill="none" xmlns="http://www.w3.org/2000/svg">
<rect x="0.5" y="0.5" width="141" height="217" rx="4.5" fill="#191515"/>
<rect x="0.5" y="0.5" width="141" height="217" rx="4.5" stroke="#B17BFF"/>
<path d="M37.556 73.256V73.064L35.316 69.48H34.868V68.328C36.148 66.344 36.852 64.168 37.044 61.864C37.236 59.56 37.428 57.192 37.556 54.824V44.904L36.148 39.336H35.316L34.036 41.384H33.844V41.128C34.484 39.336 35.124 37.48 35.7 35.56C36.276 33.64 36.66 31.656 37.108 29.736L36.724 28.968C37.172 28.136 37.428 27.24 37.492 26.408C37.556 25.64 37.556 24.68 37.556 23.72L38.644 23.592V22.952H39.412L40.884 23.144L41.524 22.952L43.124 23.592L43.572 24.808C42.996 26.344 42.484 27.816 41.908 29.288C41.396 30.888 40.756 32.36 40.052 33.896H39.604C39.284 34.536 38.964 35.24 38.516 35.88C38.004 36.52 37.492 37.096 36.916 37.8L35.892 39.336C36.532 39.464 37.236 39.72 37.812 40.168C38.388 40.68 38.9 41.128 39.412 41.576C39.988 42.28 40.436 42.92 40.82 43.624C41.14 44.328 41.332 45.096 41.332 45.928L42.1 46.12L48.308 44.264V42.344L47.476 39.336H46.708L43.764 40.104L42.932 39.656L41.716 36.392L41.908 35.752H42.74C43.188 36.328 43.636 36.648 44.212 36.648C44.724 36.648 45.364 36.648 46.068 36.648C47.54 36.2 49.012 35.816 50.42 35.368C51.828 34.92 53.172 34.344 54.58 33.704L54.772 33.064H55.796L56.18 33.32L58.484 33.064L59.124 34.344L58.676 35.112C57.972 35.816 57.268 36.456 56.436 36.904C55.604 37.352 54.708 37.608 53.684 37.608V38.056L53.108 38.248L52.532 40.296L52.66 41.384L52.532 42.792H53.108L54.132 42.344L54.772 42.6L57.012 42.344L57.268 44.264L55.54 46.12L52.084 47.208L51.636 50.664H52.532L55.796 50.28L56.18 50.472V51.112L55.348 52.584L51.636 53.544V56.04L51.892 57.768L51.636 60.008H53.94L59.764 59.56C60.788 59.88 61.876 60.072 62.964 60.2C63.988 60.392 65.14 60.392 66.356 60.2V60.84H66.74V61.416L68.788 62.248H68.02V63.144L66.996 63.336V64.104H67.188V64.552H62.452L54.58 63.144C52.212 62.952 49.908 63.144 47.796 63.656C45.684 64.104 43.572 64.68 41.524 65.384L40.052 64.744V64.36H39.412L39.156 68.52L39.604 72.232L37.748 72.872V73.256H37.556ZM11.892 71.784V71.4C14.516 66.536 16.564 61.48 17.972 56.232C19.444 50.984 20.532 45.672 21.172 40.296L20.98 39.528L21.62 39.08V38.696H20.98L17.076 40.104L13.748 38.056C14.836 37.224 16.052 36.712 17.396 36.392C18.676 36.136 19.956 35.688 21.172 35.112C21.62 34.344 21.812 33.448 21.812 32.488C21.812 31.656 21.94 30.824 22.26 29.992L22.004 29.352C22.452 29.032 22.644 28.648 22.58 28.072C22.516 27.496 22.452 27.048 22.452 26.6L22.26 26.408L23.668 28.776C24.116 28.776 24.564 28.776 25.14 28.776C25.716 28.776 25.972 28.968 26.164 29.352V29.992L25.78 31.784L26.164 32.68H27.828L28.468 32.424L30.324 32.872L30.516 34.344L30.132 35.56H29.684L29.492 36.2L24.948 37.608L24.5 39.912L24.756 41.128C23.924 43.752 23.156 46.44 22.452 49.128C21.748 51.816 20.852 54.504 19.956 57.128H20.404C20.916 56.808 21.364 56.488 21.748 56.04C22.068 55.656 22.388 55.208 22.644 54.632C23.092 52.968 23.412 51.304 23.796 49.64C24.116 47.976 24.372 46.248 24.5 44.456H24.756L26.356 45.48C26.676 45.928 26.868 46.376 26.932 46.952C26.996 47.528 26.996 48.04 26.996 48.616L25.78 53.352H26.356L29.236 51.304V50.28L28.852 48.36H29.684L33.012 50.28C33.46 50.792 33.78 51.432 34.036 52.008C34.292 52.648 34.42 53.288 34.42 53.992L34.228 54.824L32.82 55.848V55.656L31.156 55.272C30.9 54.696 30.58 54.184 30.26 53.672C29.876 53.16 29.684 52.648 29.684 51.944H29.044C28.276 53.608 27.188 55.208 25.844 56.68C24.564 58.216 23.348 59.752 22.452 61.416L20.98 61.672L20.212 59.816L19.764 59.56L19.124 59.176C18.996 60.584 18.676 61.8 18.1 63.016C17.588 64.168 16.756 65.32 15.796 66.408C14.9 67.112 14.196 68.008 13.748 69.032C13.3 70.184 12.66 71.144 11.892 71.784ZM47.668 60.648V59.56L47.476 57.32C47.476 56.744 47.668 56.296 48.116 55.848C48.564 55.464 48.692 55.016 48.564 54.44H47.668L42.1 55.464L40.436 54.632L40.052 60.84C40.308 61.224 40.628 61.544 41.076 61.736C41.524 61.928 41.972 61.992 42.548 61.864L47.668 60.648ZM48.564 51.496V51.112L48.756 47.592H47.668L42.548 48.36L41.332 47.976L40.436 52.968L41.908 53.352L48.564 51.496ZM46.452 34.152C46.9 33.576 47.22 33 47.668 32.36C48.116 31.72 48.244 31.016 48.116 30.184L46.26 27.24L48.308 26.856L52.084 27.88L52.66 29.736L51.892 31.784C50.868 32.104 49.844 32.36 48.948 32.552C47.988 32.744 47.156 33.32 46.452 34.152ZM115.828 74.6C115.124 73.96 114.676 73.256 114.484 72.424C114.292 71.656 114.228 70.824 114.356 69.864L114.74 69.032L113.588 68.456V68.008H113.78L116.276 69.48L117.044 69.224C118.132 65.96 119.092 62.568 119.86 58.984C120.628 55.528 121.204 51.88 121.588 48.168H121.012C119.412 48.744 118.004 49.256 116.532 49.64C115.124 50.088 113.716 50.664 112.308 51.496L112.948 50.664H112.5L109.428 52.136V51.944H108.98L108.788 50.856L107.572 50.472V50.088L108.212 49.64L108.532 47.976L107.956 47.784L107.124 45.928H107.572V44.52L107.38 42.6L107.572 40.552C107.444 39.656 107.06 38.76 106.42 37.992C105.844 37.224 105.268 36.52 104.692 35.816C106.036 36.264 107.316 36.904 108.404 37.736C109.428 38.696 110.644 39.4 111.86 39.912L115.636 38.952L115.828 36.008H115.38L113.14 36.648L112.948 36.456L111.092 36.904H111.22L112.5 36.456V36.008H110.9L109.62 36.456V37.032H109.812L109.172 37.224L108.532 35.816C109.684 35.56 110.836 35.24 111.988 34.792C113.204 34.344 114.356 34.152 115.636 33.96V33.32L115.38 32.104L115.828 31.08L115.636 30.44L113.78 29.8V29.416C114.42 29.416 115.124 29.288 115.828 29.096C116.532 28.968 117.172 28.776 117.876 28.584V28.392H118.324C119.028 28.52 119.668 28.776 120.372 29.032C121.076 29.416 121.78 29.672 122.42 29.8V30.696L121.588 31.848L119.476 32.488L118.708 34.344H118.324L116.788 42.6H117.428C118.836 42.216 120.244 41.832 121.716 41.384C123.124 40.936 124.596 40.68 126.132 40.552H125.94V41L124.276 41.64V42.28H124.66C122.356 43.176 119.924 44.008 117.364 44.712C114.804 45.352 112.372 46.312 110.004 47.4L108.98 47.976V48.616H110.26C112.692 48.168 115.124 47.656 117.556 46.888C119.988 46.12 122.356 45.352 124.66 44.712C125.364 44.84 126.132 45.032 126.836 45.352C127.476 45.736 127.988 46.184 128.372 46.76H128.18L127.988 47.784H127.54V48.424L126.58 48.616L125.94 50.856C125.492 51.176 125.172 51.496 124.98 51.944C124.788 52.392 124.532 52.776 124.276 53.16C123.572 54.568 123.06 55.976 122.612 57.512C122.164 58.984 121.844 60.52 121.396 62.056H121.012C119.86 63.976 119.092 66.024 118.644 68.136C118.132 70.248 117.492 72.36 116.788 74.408L115.828 74.6ZM85.044 68.264L85.428 66.792H84.596L82.74 67.432L84.02 66.216H84.468L84.788 64.936C85.492 64.36 86.132 63.72 86.644 62.952C87.092 62.184 87.476 61.48 87.924 60.84C88.5 59.56 88.948 58.344 89.396 57.064C89.844 55.848 90.036 54.568 90.164 53.16H89.844C89.012 53.736 88.116 54.312 87.284 54.952C86.516 55.592 85.748 56.36 85.044 57.32L84.276 57.512V56.872C83.7 56.424 83.06 56.04 82.484 55.72C81.844 55.464 81.14 55.336 80.308 55.464V55.272H79.22L85.044 51.304L86.068 50.28C86.9 50.408 87.668 50.344 88.372 49.96C89.076 49.64 89.78 49.256 90.42 48.808L90.612 47.976C90.292 47.592 89.972 47.208 89.716 46.76C89.396 46.312 89.268 45.864 89.396 45.288H89.012L87.732 46.376H87.156L86.708 44.904H85.428V44.52H84.468L86.516 43.432L86.708 43.048L87.732 42.6C87.86 42.216 88.116 42.024 88.5 42.024C88.82 42.024 89.204 42.024 89.588 42.024L89.844 38.056H89.972C90.292 38.376 90.548 38.696 90.868 39.016C91.124 39.4 91.188 39.72 91.06 40.104H91.444L92.852 39.592V40.104H93.748L95.796 39.72L96.18 39.912V40.36L95.54 42.28L93.748 43.688L93.492 46.76L95.156 46.952L97.844 46.568V46.952L97.268 47.4C97.268 47.784 97.268 48.104 97.268 48.36C97.268 48.68 97.14 48.936 96.82 49.256L93.748 50.664C93.428 51.624 93.172 52.584 92.916 53.416C92.596 54.376 92.532 55.4 92.532 56.424C93.428 56.744 94.452 56.936 95.348 57.064C96.308 57.256 97.268 57.512 98.036 57.96L98.676 59.56L97.652 60.2L97.46 60.84L97.652 61.416H98.036L98.484 62.248H98.228L95.988 61.16V60.84L94.58 60.008L93.748 58.472L93.94 57.96L92.852 57.512L92.66 56.68H92.084C91.636 58.472 91.06 60.2 90.292 61.8C89.588 63.528 88.564 65 87.284 66.344L86.068 67.176L85.044 68.264ZM105.332 65.128C104.628 64.552 103.988 63.976 103.412 63.4C102.9 62.76 102.452 62.12 102.004 61.416V60.968L101.108 60.584L100.148 58.728H99.7L99.316 57.704H99.508C100.468 58.152 101.428 58.472 102.516 58.792C103.54 59.176 104.5 59.752 105.332 60.584L106.292 63.272L105.332 65.128ZM109.172 62.056L106.1 59.112L105.076 57.064H105.716C106.356 57.384 107.188 57.64 108.02 57.832C108.788 58.024 109.428 58.344 110.004 58.92L110.452 60.392L109.428 62.056H109.172ZM113.332 60.008L112.5 59.368L110.26 57.512C110.26 56.936 110.068 56.488 109.62 56.104C109.172 55.784 108.98 55.4 108.98 54.824H109.62L113.588 56.424L113.908 57.512C113.716 57.96 113.652 58.344 113.78 58.792C113.844 59.304 113.78 59.688 113.332 60.008ZM117.684 58.472V58.152H117.044C116.596 57.192 116.212 56.168 115.636 55.208C115.06 54.248 114.548 53.224 114.164 52.328H114.356L118.516 54.632L118.964 56.68L118.516 58.344L117.684 58.472ZM116.468 43.048V42.6L115.828 40.744L115.188 40.552L111.092 42.408L110.9 43.048H111.092C110.772 43.304 110.644 43.624 110.644 43.944C110.644 44.328 110.644 44.648 110.644 44.904H111.22L116.468 43.048ZM85.684 41.832L82.74 39.72L82.356 38.696L81.588 38.312L81.332 37.48H81.78L85.428 38.952C85.748 39.4 85.876 39.784 85.876 40.232C85.876 40.744 85.876 41.256 85.876 41.832H85.684ZM92.532 38.312C91.828 37.864 91.188 37.416 90.74 36.968C90.228 36.52 89.78 36.008 89.204 35.432V34.792H89.588L90.612 34.984L91.444 34.536L92.532 35.816L92.852 38.312H92.532ZM94.772 37.48V37.032L95.54 33.128L95.348 32.488L94.772 31.848L95.796 31.656C96.5 31.784 97.268 31.912 98.036 32.04C98.868 32.232 99.508 32.552 99.956 33.128L100.148 35.176L100.532 35.432V36.008H99.956L97.652 35.816L97.46 36.456C96.884 36.328 96.436 36.392 96.116 36.584C95.732 36.776 95.348 36.904 94.964 36.904L94.772 37.48ZM86.964 33.768V33.128L90.164 26.92C90.484 26.6 90.868 26.472 91.38 26.472C91.828 26.472 92.276 26.472 92.66 26.472L95.348 27.368L95.54 28.584L94.964 29.416C94.516 29.224 94.26 29.352 94.068 29.672C93.876 30.056 93.556 30.248 93.108 30.248V30.696C92.34 31.72 91.316 32.296 90.1 32.36C88.948 32.424 87.86 32.936 86.964 33.768ZM106.932 31.656V31.08L107.572 29.8H107.124V29.608C107.7 28.968 108.148 28.2 108.532 27.496C108.788 26.792 109.108 26.216 109.428 25.512H109.812V24.872H109.172V24.68L110.9 23.848C111.156 23.08 111.604 22.632 112.436 22.632C113.204 22.632 113.908 22.632 114.74 22.632L118.068 23.656V24.232C117.94 24.68 117.684 25.064 117.364 25.384C116.98 25.768 116.788 26.216 116.788 26.728L113.14 27.752V28.2C112.436 28.648 111.732 28.968 111.092 29.16C110.388 29.48 109.62 29.672 108.788 29.8L108.404 30.44L106.932 31.656Z" fill="url(#paint0_linear_14_517)"/>
<path d="M27.5703 91.2773H27.6055L27.6758 91.3477L27.6406 91.3828H27.6055L27.5703 91.3477V91.2773ZM28.9648 91.2773V91.3125L28.707 91.7578C28.8086 91.7578 28.8594 91.793 28.8594 91.8633L29.082 91.7578V91.793L29.0117 91.8984V91.9805L29.1523 92.0156L29.3398 91.8281V91.8633L29.2344 92.0156H29.3047V92.0508L29.2695 92.1562C29.3242 92.1562 29.457 92.0586 29.668 91.8633V91.8984L29.4453 92.2734L29.6328 92.3086C29.6328 92.2539 29.6953 92.2188 29.8203 92.2031L29.7031 92.3438V92.4141H29.7852V92.4609L29.7031 92.5664C29.8047 92.5664 29.8555 92.5898 29.8555 92.6367L29.8203 92.6836L29.9609 92.7539C30.2344 92.7539 30.4102 92.5078 30.4883 92.0156C30.7305 91.8828 30.8516 91.7969 30.8516 91.7578H30.9219L30.8867 91.793V91.8633L31.1797 91.9453L31.9531 91.3477H32L32.0703 91.4297V91.5L31.8828 91.5352V91.5L31.332 91.9453L31.4727 92.2383C31.4727 92.3711 31.3516 92.5195 31.1094 92.6836H31.0391V92.7539C31.4609 93.1445 31.8281 93.3398 32.1406 93.3398C32.1406 93.4023 32.3242 93.5391 32.6914 93.75C32.6914 93.9297 32.9766 94.0391 33.5469 94.0781C33.7422 94.1953 33.9258 94.3789 34.0977 94.6289C34.2852 94.6289 34.4805 94.9375 34.6836 95.5547C34.6836 95.6797 34.8203 95.9023 35.0938 96.2227L35.1641 96.7734H35.1992C35.2539 96.7734 35.293 96.6602 35.3164 96.4336L35.5391 96.2227L35.5742 96.2578H35.7617L35.9375 96.2227V96.293C35.8672 96.293 35.832 96.3398 35.832 96.4336L35.9023 96.5156V96.5508C35.9023 96.5977 35.8398 96.6211 35.7148 96.6211C35.6758 96.6992 35.5898 96.7383 35.457 96.7383L35.4219 96.9141C35.4219 96.9922 35.4609 97.0312 35.5391 97.0312L35.5742 97.0664V97.1016L35.3867 97.2188V97.2539C35.4492 97.4414 35.7305 97.6602 36.2305 97.9102V97.9922H36.1953C36.0234 97.9922 35.7539 97.8203 35.3867 97.4766C35.1914 97.4766 35.0938 97.6094 35.0938 97.875L35.1289 98.0273H35.0234V98.1328H35.1289V98.168C35.1289 98.2227 35.0938 98.25 35.0234 98.25V98.2852L35.0586 98.4258C34.957 98.5742 34.9062 98.6875 34.9062 98.7656L35.0234 98.8711V98.9414H34.9766L34.8359 98.8711L34.8008 99.0586L34.8359 99.1641L34.8008 99.1289H34.7656L34.7188 99.1641V99.1992L34.7656 99.3516H34.7188L34.6836 99.3164H34.6484L34.3555 99.9023L33.7695 100.5C33.7695 100.578 33.6094 100.809 33.2891 101.191V101.273H33.2539L33.2891 101.309V101.496C33.1484 101.738 33.0234 101.859 32.9141 101.859V101.895C33.5312 101.895 33.9375 102.008 34.1328 102.234C34.7969 102.773 35.2266 103.25 35.4219 103.664C35.6172 103.828 35.7773 104.113 35.9023 104.52L36.418 105.211L36.3828 105.328C36.4922 105.602 36.5781 105.762 36.6406 105.809L37.1211 106.172L37.5664 106.395L37.7539 106.43L37.9297 106.289H37.9648C38.0586 106.289 38.1211 106.422 38.1523 106.688C38.1055 106.703 38.0586 106.766 38.0117 106.875L37.7539 106.805L37.5664 106.84L37.3789 106.77C37.6992 107.09 38.2148 107.699 38.9258 108.598L39.3008 108.715L39.3359 108.68V108.75C39.2578 108.75 39.2188 108.773 39.2188 108.82C39.3203 108.992 39.6523 109.277 40.2148 109.676C40.2148 109.746 40.2656 109.781 40.3672 109.781V109.852H40.332C39.9102 109.516 39.5898 109.309 39.3711 109.23C39.3711 109.191 39.25 109.082 39.0078 108.902C38.7188 108.621 38.4453 108.41 38.1875 108.27C37.6797 107.941 37.3359 107.648 37.1562 107.391C36.7656 107.156 36.5703 106.984 36.5703 106.875C36.4688 106.875 36.2227 106.738 35.832 106.465C35.6914 106.465 35.4805 106.281 35.1992 105.914C35.1992 105.812 34.8672 105.492 34.2031 104.953C33.9688 104.727 33.6641 104.543 33.2891 104.402L32.5156 103.781C32.4453 103.656 32.2344 103.531 31.8828 103.406L31.7773 103.266V103.219H31.8125L32 103.266L32.0352 103.219C31.957 103.023 31.7578 102.926 31.4375 102.926L31.332 102.855L31.1797 102.891C30.7891 102.648 30.5938 102.453 30.5938 102.305C30.5938 102.234 30.4688 102.012 30.2188 101.637V101.566L30.3008 101.496H30.4062L30.4883 101.566V101.602L30.4414 101.637L30.7461 102.27L30.6992 102.375L30.7461 102.41H30.7812C31.3203 102.066 31.5898 101.746 31.5898 101.449C31.5898 101.309 31.6875 101.238 31.8828 101.238L32.2109 100.418C32.3125 100.418 32.4492 100.113 32.6211 99.5039C32.8633 99.2461 33 99.0469 33.0312 98.9062H32.9961L33.0664 98.7656L33.0312 98.7305L33.1016 98.6484L32.8789 98.6133V98.6484L32.293 98.4727L32.1055 98.6484H32.0703V98.5781L32.1758 98.4258H32.0703V98.3555L32.2109 98.3906L32.3281 98.3555C32.4609 98.4336 32.6445 98.4727 32.8789 98.4727V98.3555H32.9141L32.7734 98.1328L32.5859 98.2148V98.168L32.3281 98.25V98.2148L32.3633 98.168V98.1328L32.293 98.0625L32.4336 97.9922V97.957L32.0352 97.9102V97.8398H32.293L32.4688 97.8047V97.7695C32.4219 97.7695 32.3359 97.6211 32.2109 97.3242V97.1719C32.2812 97.1719 32.3555 97.2969 32.4336 97.5469L32.7383 97.4766V97.4297L32.6914 97.3945V97.3594L32.7734 97.2891L32.6562 97.1719L32.8086 97.0664L32.5859 96.6211L32.6211 96.5859H32.6562C32.8438 96.9297 33.0273 97.1016 33.207 97.1016L33.2539 96.9961C33.0898 96.918 32.8438 96.4883 32.5156 95.707C32.1328 95.1602 31.7617 94.8516 31.4023 94.7812C31.1992 94.5781 30.918 94.3828 30.5586 94.1953L30.5234 94.2305C30.4922 94.0586 30.4297 93.9727 30.3359 93.9727L30.3711 93.9375V93.8906L30.2188 93.8203H30.1484C30.1484 93.9375 30.0625 94.0859 29.8906 94.2656V94.3359C30.1797 94.4297 30.3906 94.5664 30.5234 94.7461H30.4414C30.3008 94.6289 30.1562 94.5664 30.0078 94.5586L29.8203 94.3711H29.7852V94.4883L29.8203 94.5234V94.5586H29.7852L29.6328 94.4883L29.4922 94.5234C29.4922 94.6875 29.5898 94.8086 29.7852 94.8867L29.8906 95.1094L29.8555 95.332C29.8555 95.6758 29.9062 95.8477 30.0078 95.8477L30.0781 95.918C29.9297 96.707 29.7812 97.1016 29.6328 97.1016L29.668 97.1367V97.4766C29.5195 97.8125 29.4453 98.2305 29.4453 98.7305L29.375 99.0938C29.4219 99.1875 29.4453 99.3242 29.4453 99.5039V99.5742L29.3047 99.8672L29.5977 100.898C29.7617 100.898 29.8594 100.949 29.8906 101.051V101.086L29.5977 101.93L29.5625 101.977V102.82C29.5625 103.367 29.6367 103.871 29.7852 104.332V104.402L29.8203 105.293L29.7852 105.398L30.0078 105.809C30.0078 106.238 29.9688 106.496 29.8906 106.582C29.9375 106.621 30 107.137 30.0781 108.129C30.125 108.129 30.1719 108.238 30.2188 108.457C30.2734 108.465 30.3242 108.527 30.3711 108.645C30.3008 108.887 30.2383 109.008 30.1836 109.008L30.0781 108.938H30.043L30.0781 109.16L30.043 109.195V109.23L30.0781 109.336L30.043 109.371H30.0078L30.043 109.418L29.9609 109.852L30.043 110.004L30.0078 110.262V110.414L30.0781 111.188L30.043 111.223V111.258L30.0781 111.293L30.043 111.48L30.0781 111.621H30.043L29.9609 111.551V111.41L29.7852 110.262L29.8203 110.156C29.6719 110.094 29.5977 109.945 29.5977 109.711C29.5508 109.711 29.5273 109.746 29.5273 109.816L29.4922 109.852H29.4453L29.4102 109.816L29.3047 109.934C29.2578 109.738 29.1602 109.641 29.0117 109.641C28.8633 109.523 28.7891 109.336 28.7891 109.078L28.8945 108.902V108.855H28.8242V108.785H28.8945V108.75L28.6367 108.387H28.6016L28.4961 108.457L28.2734 108.199L28.1914 108.457L28.2383 108.492V108.527C28.168 109.059 28.0938 109.355 28.0156 109.418L28.0508 109.453V109.559L28.0156 109.781L28.0508 109.898L27.8984 110.191L27.9336 110.227H27.9688L27.9336 110.672V110.848H27.8633V110.812C27.8633 110.133 27.8008 109.617 27.6758 109.266V108.785L27.7109 108.562C27.6641 108.438 27.6406 108.219 27.6406 107.906V107.684L27.6758 107.648C27.5273 107.273 27.418 106.793 27.3477 106.207V106.137C27.418 105.629 27.4805 105.359 27.5352 105.328L27.5 105.176L27.5352 105.141H27.5703L27.5352 105.105V105.035L27.6406 104.848L27.5352 104.625V104.52C27.5352 104.238 27.5703 103.93 27.6406 103.594C27.6172 103.484 27.5547 103.41 27.4531 103.371L27.5352 103.148L27.4531 103.078L27.5352 102.785C27.457 102.785 27.418 102.758 27.418 102.703V102.668L27.4531 102.527L27.3477 102.234C27.1992 102.234 27.125 102.148 27.125 101.977L27.1602 101.414L27.0898 100.898L27.125 100.535C27.0625 100.395 26.9648 99.9883 26.832 99.3164C26.8008 99.3164 26.7617 99.2305 26.7148 99.0586L26.7617 98.8359C26.6758 98.3125 26.5898 98.0039 26.5039 97.9102V97.1016C26.5977 97.0391 26.6562 96.5586 26.6797 95.6602L26.6445 95.625H26.6094L26.5391 95.707L26.5742 95.8125C26.5273 95.8125 26.4883 95.875 26.457 96L26.2461 96.0703H26.1992V95.9648H26.1289L25.8711 96.1055L25.8359 96.0703V96.0352C25.9609 95.8867 26.0234 95.7773 26.0234 95.707L25.8711 95.5547L25.9883 95.4492L26.1289 95.4844C26.2305 95.4453 26.2812 95.4062 26.2812 95.3672V95.2266L26.1992 95.1094C26.1992 95.0625 26.25 95.0391 26.3516 95.0391V95.0039L26.2812 94.8867V94.8516C26.3984 94.8516 26.457 94.8164 26.457 94.7461L26.3164 94.6641L26.3516 94.5586L26.1289 94.3008V94.2305H26.1992L26.3867 94.3711L26.3516 94.4062C26.4141 94.6328 26.5117 94.7461 26.6445 94.7461V94.7109L26.5391 94.4531V94.3359L26.5742 93.7148C26.3945 93.543 26.2578 93.457 26.1641 93.457L26.1289 93.4922L26.1641 93.5273V93.5977C26.0703 93.5977 26.0234 93.6602 26.0234 93.7852C25.875 93.7852 25.8008 93.8203 25.8008 93.8906C25.8555 93.8906 25.8906 93.9531 25.9062 94.0781L25.8008 94.1133L25.8359 94.3008H25.8008C25.7539 94.3008 25.7305 94.2656 25.7305 94.1953L25.6953 94.2305H25.5078C25.3828 94.2305 25.3203 94.168 25.3203 94.043C25.2031 94.043 25.1445 94.0195 25.1445 93.9727L25.4023 93.8555V93.7852C25.3242 93.7852 25.2227 93.6016 25.0977 93.2344C25.3477 93.5 25.4727 93.6836 25.4727 93.7852L25.5078 93.75H25.543L25.7305 93.7852V93.7148C25.582 93.7148 25.5078 93.6016 25.5078 93.375L25.6602 93.3398C25.6211 93.1211 25.5469 93.0117 25.4375 93.0117L25.5078 92.9414L25.4727 92.8945V92.6016L25.625 92.4141V92.3438L25.543 92.0508V91.9805C25.5977 91.9805 25.6484 92.0781 25.6953 92.2734L25.8008 92.3438C25.8711 92.3438 25.9062 92.2812 25.9062 92.1562H26.0234C26.0234 92.2422 26.0703 92.3281 26.1641 92.4141V92.4609L26.3164 92.3438V92.4141L26.2461 92.6016L26.4219 92.7891H26.457L26.3516 93.0469V93.082L26.5039 93.2344H26.5742C26.6992 93.2344 26.7734 93.1953 26.7969 93.1172L26.7617 93.0117H26.7969L26.8672 92.7891L26.457 92.4961V92.4141H26.5039L26.9844 92.7539C27.1016 92.7227 27.1602 92.6836 27.1602 92.6367L27.125 92.6016C27.1953 92.5938 27.2461 92.5312 27.2773 92.4141L27.0898 92.2383H27.125L27.3828 92.3789V92.3086L27.3125 92.0859H27.3477C27.3945 92.0859 27.418 92.125 27.418 92.2031H27.5V92.1562L27.4531 92.1211V92.0859C27.5547 92.0859 27.6055 92.0625 27.6055 92.0156C27.582 91.9219 27.4961 91.7969 27.3477 91.6406V91.6055H27.418L27.793 91.9453V91.8633H27.8633V92.0508H27.8984L28.0508 91.8984V91.8633C27.9883 91.8633 27.9023 91.7891 27.793 91.6406V91.6055H27.8281C28 91.6992 28.0859 91.7852 28.0859 91.8633L28.1562 91.793L28.1914 91.8281H28.2734L28.2383 91.793V91.6875L28.3086 91.6055L28.4492 91.6406L28.4961 91.4648H28.5664V91.6406L28.6367 91.7227C28.8008 91.4492 28.9102 91.3008 28.9648 91.2773ZM25.3672 91.6875L25.4375 91.793V91.8281C25.3359 91.7891 25.2852 91.7539 25.2852 91.7227L25.3203 91.6875H25.3672ZM25.4727 91.8633L25.543 91.9453V91.9805L25.4727 91.8984V91.8633ZM31.918 91.8633L31.9531 91.8984V91.9453L31.918 91.9805H31.8477V91.9453L31.918 91.8633ZM26.9844 92.5312H27.0195L27.0898 92.6016H26.9844V92.5312ZM25.6953 94.6641H25.7305V94.7812H25.625V94.7461L25.6953 94.6641ZM31.0391 95.332H31.0742L31.1445 95.4023L30.9219 95.5195L30.8867 95.4844V95.4492L31.0391 95.332ZM36.0547 96.5859H36.1602V96.6562H36.0547V96.5859ZM31.6602 96.8086L31.7422 96.8789H31.5898L31.6602 96.8086ZM32.5156 97.582V97.6172L32.5859 97.6875H32.7383L32.8086 97.6172V97.5469L32.5156 97.582ZM31.1094 97.7344H31.2617V97.8398H31.2148L31.1094 97.8047V97.7344ZM33.2539 97.9102L33.3594 97.957V97.8398H33.3242L33.2539 97.9102ZM33.1367 97.957L33.207 98.0625C33.207 98.1328 33.1367 98.168 32.9961 98.168V98.3203L32.9492 98.5078L33.1367 98.3555L33.1016 98.25H33.1367C33.2148 98.25 33.2539 98.1641 33.2539 97.9922L33.207 97.957H33.1367ZM35.6094 98.3906H35.6445C35.8164 98.4766 35.9531 98.5898 36.0547 98.7305H36.0195C35.8633 98.7305 35.7266 98.6172 35.6094 98.3906ZM36.8281 98.6836H36.9688V98.7656H36.8281V98.6836ZM35.0586 99.3516H35.1289V99.4688H35.0586V99.3516ZM34.8711 99.5039C34.9883 99.5039 35.1133 99.6641 35.2461 99.9844C35.0664 99.9141 34.9297 99.7773 34.8359 99.5742L34.8711 99.5391V99.5039ZM31.918 105.176V105.211L31.8125 105.363L32 105.434C31.9297 105.676 31.8047 105.836 31.625 105.914H31.4375L31.2969 105.809L31.1094 105.844L31.2148 105.691L31.1797 105.469L31.4375 105.293L31.7773 105.328L31.918 105.176ZM32.7383 105.176H32.8438L32.9141 105.258L32.8438 105.328H32.6914L32.6211 105.258L32.7383 105.176ZM32.4336 105.258H32.5508V105.328H32.3633L32.4336 105.258ZM32.1406 105.328H32.3633L32.293 105.398H32.0703L32.1406 105.328ZM31.5195 106.207L31.5547 106.254V106.289L31.5195 106.324H31.4727L31.4375 106.289V106.254L31.4727 106.207H31.5195ZM28.7891 110.707L28.8242 110.742V110.777C28.8242 110.902 28.7852 110.977 28.707 111L28.6719 110.965V110.93C28.6953 110.781 28.7344 110.707 28.7891 110.707ZM45.1602 92.543L45.207 92.5898V92.8594H45.1016L45.0547 92.5898L45.1016 92.543H45.1602ZM43.6953 92.5898L43.9062 92.8594H43.8594L43.5898 92.6484L43.6484 92.5898H43.6953ZM47.1406 92.6953V92.7539L46.9297 93.0117H46.7188V92.9648C46.8125 92.7852 46.9531 92.6953 47.1406 92.6953ZM44.7383 92.7539H44.8438L45.0547 93.3281L45.2656 93.2695L45.418 93.3281V93.2695L45.7344 92.9062V92.9648C45.6797 93.0977 45.625 93.1641 45.5703 93.1641L45.7812 93.5391C45.7266 93.7109 45.625 93.7969 45.4766 93.7969L45.418 93.7383V93.8438L45.6758 93.9492L45.8867 93.7969V93.9023L45.8398 93.9492V94.0078C46.0039 94.0078 46.125 94.0391 46.2031 94.1016C46.2031 94.0156 46.2891 93.8945 46.4609 93.7383H46.6719V93.7969L46.3086 94.1602H46.5664L46.7188 94.0547H46.8828L46.7773 94.2656L46.7188 94.207H46.625V94.2656H46.7188V94.3125L46.6719 94.3711V94.418C46.7422 94.418 46.7773 94.4727 46.7773 94.582L47.5625 94.418H47.6094C47.4141 94.6289 47.2422 94.7344 47.0938 94.7344C47.0938 94.8516 47.457 95.0586 48.1836 95.3555L48.2422 95.4141V95.5195H48.1836C47.8633 95.3398 47.5508 95.2148 47.2461 95.1445H47.0938L47.2461 95.3555V95.4141L47.1875 95.3555H46.9297V95.4609C47.1641 95.4609 47.375 95.6172 47.5625 95.9297H47.6094V96.0352L47.293 96.1406L47.1406 96.0352L47.0938 96.0938H46.7773V96.1406L46.8828 96.293V96.3516H46.8242L46.6719 96.293V96.3984C46.6719 96.5312 46.7578 96.6875 46.9297 96.8672L46.8828 96.9258H46.8242L46.625 96.7148C46.5156 96.7148 46.4453 96.8359 46.4141 97.0781H46.5664V97.1367L46.4609 97.2305H46.4141L46.25 97.1367L46.0977 97.1836L45.9922 97.0781C45.9922 97.25 45.9219 97.3359 45.7812 97.3359C45.7812 97.4062 45.9219 97.5117 46.2031 97.6523V97.6992C46.0625 97.9102 45.9922 98.0664 45.9922 98.168L46.0508 98.4375L45.9922 98.4844H45.9453L45.8867 98.332H45.8398L45.7812 98.6953V98.7422C45.8906 98.7422 45.9453 98.7773 45.9453 98.8477V98.9062L45.8398 99.0117C45.8398 98.918 45.6484 98.7617 45.2656 98.543H45.207L45.0078 98.6953L44.9023 98.5898H44.7383L44.5273 98.6484L44.4805 98.5898H44.4336C44.3477 98.5898 44.1719 98.6953 43.9062 98.9062L43.7539 98.8477V98.9062C43.7539 98.9766 43.6133 99.0117 43.332 99.0117C43.3008 99.0977 43.0586 99.2188 42.6055 99.375C42.6055 99.4531 42.4648 99.5234 42.1836 99.5859C42.1836 99.7031 41.9062 99.9609 41.3516 100.359C41.2109 100.57 41.0703 100.676 40.9297 100.676L41.1406 101.145V101.355C41.0391 101.48 40.9883 101.602 40.9883 101.719V102.035C41.332 103.16 41.75 103.836 42.2422 104.062C43.1641 105 44.1367 105.469 45.1602 105.469L45.4766 105.422L45.8867 105.527C46.1055 105.527 46.5078 105.18 47.0938 104.484C47.1875 104.484 47.2734 104.344 47.3516 104.062C47.6016 104.062 47.9844 103.699 48.5 102.973L48.4414 102.293C48.4414 102.16 48.4961 102.02 48.6055 101.871V101.613L48.7578 99.8438L48.7109 99.5273L48.7578 99.4805V99.4219L48.7109 99.2695L48.7578 99.2109L48.6523 99.1172V98.9062L48.7109 98.8477C48.6484 98.6914 48.543 98.5703 48.3945 98.4844L48.2422 98.543L48.1367 98.3789L48.1836 98.332L48.0781 98.2266L48.1367 98.168V98.1211C48.668 98.3242 48.9609 98.5312 49.0156 98.7422V98.8008L48.9688 98.8477C49.0469 99.0898 49.1172 99.2109 49.1797 99.2109L49.2266 99.0586L49.1211 98.8477L49.2266 98.6484L49.1797 98.3789L49.2266 98.2266L48.6523 97.6992L48.6055 97.7578V97.6992L48.6523 97.5469L48.5 97.3945H48.5469L48.8047 97.5469C48.9062 97.4219 49.168 97.2852 49.5898 97.1367V97.2891C49.1367 97.4062 48.9102 97.5273 48.9102 97.6523L49.6484 98.332C49.9141 98.332 50.1055 98.6094 50.2227 99.1641V99.4805L50.4336 99.7852L50.3281 100.102L50.4805 101.461C50.418 101.531 50.3672 101.789 50.3281 102.234C50.2422 102.234 50.1719 102.461 50.1172 102.914C49.8047 103.016 49.6484 103.172 49.6484 103.383C49.6484 103.734 49.5273 103.91 49.2852 103.91C49.1758 104.16 48.8281 104.488 48.2422 104.895C47.7734 105.77 47.3008 106.207 46.8242 106.207C46.668 106.48 46.2344 106.617 45.5234 106.617L44.7383 106.828C44.1836 106.828 43.1914 106.48 41.7617 105.785L40.8828 105.316C40.7266 105.113 40.3594 104.836 39.7812 104.484C38.9531 103.609 38.5391 103.051 38.5391 102.809V102.762L38.4805 101.719L38.5859 101.613V101.402L38.4805 100.828V100.723C38.6914 100.457 38.7969 100.285 38.7969 100.207C38.625 100.207 38.5391 100.172 38.5391 100.102V99.9492L39.1016 98.6953C39.2656 97.9766 39.3906 97.6133 39.4766 97.6055C39.75 97.2539 40.0273 97.0781 40.3086 97.0781C40.6445 96.7891 40.9219 96.3359 41.1406 95.7188L41.6094 95.4609L42.3359 94.9453L43.1211 94.6289C43.4727 94.4805 43.6484 94.375 43.6484 94.3125V94.207L43.332 93.7969H43.3789C43.5977 94 43.7578 94.1016 43.8594 94.1016L44.0117 93.9023L43.9531 93.8438L44.0117 93.7969L43.9062 93.6914V93.6328H43.9531C44.0234 93.6328 44.0586 93.6875 44.0586 93.7969H44.2227L44.4805 93.5859L44.375 93.4336V93.375L44.7383 93.4336C44.7383 93.3242 44.793 93.2695 44.9023 93.2695L44.7383 92.8008V92.7539ZM46.0977 92.8008H46.1445V92.9062L46.0508 93.0117H45.9453V92.9648L46.0977 92.8008ZM46.5664 93.1641H46.625V93.2227C46.625 93.2773 46.5547 93.3281 46.4141 93.375V93.3281L46.5664 93.1641ZM43.4844 93.2695H43.543L43.6484 93.375L43.5898 93.4336H43.543L43.4844 93.375V93.2695ZM43.1211 93.6328H43.1797L43.2852 93.7383H43.2266L43.1211 93.6328ZM47.7148 93.7969L47.7617 93.8438V93.9023L47.5039 94.1016L47.3516 94.0547V94.0078C47.3516 93.9453 47.4727 93.875 47.7148 93.7969ZM46.9883 96.3516H47.0352C47.4883 96.5156 47.7148 96.6719 47.7148 96.8203C47.793 96.8203 48.0195 96.9922 48.3945 97.3359H48.2891C47.7188 97.0391 47.3711 96.7812 47.2461 96.5625C47.0742 96.5625 46.9883 96.5078 46.9883 96.3984V96.3516ZM48.6055 96.8203L48.7109 96.9258L48.5469 97.0312L48.4414 96.9258L48.6055 96.8203ZM50.6328 97.2305L50.6914 97.2891V97.3359C50.6914 97.4062 50.5 97.4609 50.1172 97.5V97.4414C50.1172 97.3398 50.2891 97.2695 50.6328 97.2305ZM50.7383 97.5H50.7969L50.9023 97.6055H50.7383V97.5ZM47.0352 97.6055H47.1875V97.6523L47.0938 97.7578L47.0352 97.6992V97.6055ZM47.668 97.8633H47.7148L47.8672 98.0156V98.0742H47.7617L47.668 97.9688V97.8633ZM51.4766 97.8633L51.5234 97.9102V97.9688L51.3711 98.0742L51.3125 98.0156V97.9688L51.4766 97.8633ZM50.5859 98.2734H50.6914V98.332L50.5859 98.4375H50.4805V98.3789L50.5859 98.2734ZM47.3516 98.9062H47.3984L47.5039 99.0117L47.457 99.0586H47.3516V98.9062ZM47.8672 99.5273H47.9727V99.5859L47.8672 99.6797V99.5273ZM46.1445 99.8906L46.2031 99.9492V99.9961L46.1445 100.055H46.0977L46.0508 99.9961V99.9492L46.0977 99.8906H46.1445ZM45.6758 100.254L45.7344 100.312V100.359L45.6289 100.465H45.5703L45.4766 100.359L45.6758 100.254ZM44.9492 101.098H45.0078V101.145L44.9023 101.25H44.7969L44.9492 101.098ZM44.4336 101.508H44.4805V101.613H44.5273C44.5273 101.676 44.4062 101.797 44.1641 101.977H44.0586V101.93L44.4336 101.508ZM43.7539 102.293H43.9062V102.34C43.8359 102.48 43.7305 102.551 43.5898 102.551L43.543 102.504V102.445L43.7539 102.293ZM43.2852 102.914V103.078L43.1797 103.184H43.1211V103.078L43.2852 102.914ZM42.8164 103.441L42.9102 103.547L42.7578 103.652L42.7109 103.594V103.547L42.8164 103.441ZM48.9102 105.059L48.9688 105.105V105.164L48.5469 105.469L48.5 105.422V105.363C48.6406 105.16 48.7773 105.059 48.9102 105.059ZM58.0273 92.543L58.0742 92.5898V92.8594H57.9688L57.9219 92.5898L57.9688 92.543H58.0273ZM56.5625 92.5898L56.7734 92.8594H56.7266L56.457 92.6484L56.5156 92.5898H56.5625ZM60.0078 92.6953V92.7539L59.7969 93.0117H59.5859V92.9648C59.6797 92.7852 59.8203 92.6953 60.0078 92.6953ZM57.6055 92.7539H57.7109L57.9219 93.3281L58.1328 93.2695L58.2852 93.3281V93.2695L58.6016 92.9062V92.9648C58.5469 93.0977 58.4922 93.1641 58.4375 93.1641L58.6484 93.5391C58.5938 93.7109 58.4922 93.7969 58.3438 93.7969L58.2852 93.7383V93.8438L58.543 93.9492L58.7539 93.7969V93.9023L58.707 93.9492V94.0078C58.8711 94.0078 58.9922 94.0391 59.0703 94.1016C59.0703 94.0156 59.1562 93.8945 59.3281 93.7383H59.5391V93.7969L59.1758 94.1602H59.4336L59.5859 94.0547H59.75L59.6445 94.2656L59.5859 94.207H59.4922V94.2656H59.5859V94.3125L59.5391 94.3711V94.418C59.6094 94.418 59.6445 94.4727 59.6445 94.582L60.4297 94.418H60.4766C60.2812 94.6289 60.1094 94.7344 59.9609 94.7344C59.9609 94.8516 60.3242 95.0586 61.0508 95.3555L61.1094 95.4141V95.5195H61.0508C60.7305 95.3398 60.418 95.2148 60.1133 95.1445H59.9609L60.1133 95.3555V95.4141L60.0547 95.3555H59.7969V95.4609C60.0312 95.4609 60.2422 95.6172 60.4297 95.9297H60.4766V96.0352L60.1602 96.1406L60.0078 96.0352L59.9609 96.0938H59.6445V96.1406L59.75 96.293V96.3516H59.6914L59.5391 96.293V96.3984C59.5391 96.5312 59.625 96.6875 59.7969 96.8672L59.75 96.9258H59.6914L59.4922 96.7148C59.3828 96.7148 59.3125 96.8359 59.2812 97.0781H59.4336V97.1367L59.3281 97.2305H59.2812L59.1172 97.1367L58.9648 97.1836L58.8594 97.0781C58.8594 97.25 58.7891 97.3359 58.6484 97.3359C58.6484 97.4062 58.7891 97.5117 59.0703 97.6523V97.6992C58.9297 97.9102 58.8594 98.0664 58.8594 98.168L58.918 98.4375L58.8594 98.4844H58.8125L58.7539 98.332H58.707L58.6484 98.6953V98.7422C58.7578 98.7422 58.8125 98.7773 58.8125 98.8477V98.9062L58.707 99.0117C58.707 98.918 58.5156 98.7617 58.1328 98.543H58.0742L57.875 98.6953L57.7695 98.5898H57.6055L57.3945 98.6484L57.3477 98.5898H57.3008C57.2148 98.5898 57.0391 98.6953 56.7734 98.9062L56.6211 98.8477V98.9062C56.6211 98.9766 56.4805 99.0117 56.1992 99.0117C56.168 99.0977 55.9258 99.2188 55.4727 99.375C55.4727 99.4531 55.332 99.5234 55.0508 99.5859C55.0508 99.7031 54.7734 99.9609 54.2188 100.359C54.0781 100.57 53.9375 100.676 53.7969 100.676L54.0078 101.145V101.355C53.9062 101.48 53.8555 101.602 53.8555 101.719V102.035C54.1992 103.16 54.6172 103.836 55.1094 104.062C56.0312 105 57.0039 105.469 58.0273 105.469L58.3438 105.422L58.7539 105.527C58.9727 105.527 59.375 105.18 59.9609 104.484C60.0547 104.484 60.1406 104.344 60.2188 104.062C60.4688 104.062 60.8516 103.699 61.3672 102.973L61.3086 102.293C61.3086 102.16 61.3633 102.02 61.4727 101.871V101.613L61.625 99.8438L61.5781 99.5273L61.625 99.4805V99.4219L61.5781 99.2695L61.625 99.2109L61.5195 99.1172V98.9062L61.5781 98.8477C61.5156 98.6914 61.4102 98.5703 61.2617 98.4844L61.1094 98.543L61.0039 98.3789L61.0508 98.332L60.9453 98.2266L61.0039 98.168V98.1211C61.5352 98.3242 61.8281 98.5312 61.8828 98.7422V98.8008L61.8359 98.8477C61.9141 99.0898 61.9844 99.2109 62.0469 99.2109L62.0938 99.0586L61.9883 98.8477L62.0938 98.6484L62.0469 98.3789L62.0938 98.2266L61.5195 97.6992L61.4727 97.7578V97.6992L61.5195 97.5469L61.3672 97.3945H61.4141L61.6719 97.5469C61.7734 97.4219 62.0352 97.2852 62.457 97.1367V97.2891C62.0039 97.4062 61.7773 97.5273 61.7773 97.6523L62.5156 98.332C62.7812 98.332 62.9727 98.6094 63.0898 99.1641V99.4805L63.3008 99.7852L63.1953 100.102L63.3477 101.461C63.2852 101.531 63.2344 101.789 63.1953 102.234C63.1094 102.234 63.0391 102.461 62.9844 102.914C62.6719 103.016 62.5156 103.172 62.5156 103.383C62.5156 103.734 62.3945 103.91 62.1523 103.91C62.043 104.16 61.6953 104.488 61.1094 104.895C60.6406 105.77 60.168 106.207 59.6914 106.207C59.5352 106.48 59.1016 106.617 58.3906 106.617L57.6055 106.828C57.0508 106.828 56.0586 106.48 54.6289 105.785L53.75 105.316C53.5938 105.113 53.2266 104.836 52.6484 104.484C51.8203 103.609 51.4062 103.051 51.4062 102.809V102.762L51.3477 101.719L51.4531 101.613V101.402L51.3477 100.828V100.723C51.5586 100.457 51.6641 100.285 51.6641 100.207C51.4922 100.207 51.4062 100.172 51.4062 100.102V99.9492L51.9688 98.6953C52.1328 97.9766 52.2578 97.6133 52.3438 97.6055C52.6172 97.2539 52.8945 97.0781 53.1758 97.0781C53.5117 96.7891 53.7891 96.3359 54.0078 95.7188L54.4766 95.4609L55.2031 94.9453L55.9883 94.6289C56.3398 94.4805 56.5156 94.375 56.5156 94.3125V94.207L56.1992 93.7969H56.2461C56.4648 94 56.625 94.1016 56.7266 94.1016L56.8789 93.9023L56.8203 93.8438L56.8789 93.7969L56.7734 93.6914V93.6328H56.8203C56.8906 93.6328 56.9258 93.6875 56.9258 93.7969H57.0898L57.3477 93.5859L57.2422 93.4336V93.375L57.6055 93.4336C57.6055 93.3242 57.6602 93.2695 57.7695 93.2695L57.6055 92.8008V92.7539ZM58.9648 92.8008H59.0117V92.9062L58.918 93.0117H58.8125V92.9648L58.9648 92.8008ZM59.4336 93.1641H59.4922V93.2227C59.4922 93.2773 59.4219 93.3281 59.2812 93.375V93.3281L59.4336 93.1641ZM56.3516 93.2695H56.4102L56.5156 93.375L56.457 93.4336H56.4102L56.3516 93.375V93.2695ZM55.9883 93.6328H56.0469L56.1523 93.7383H56.0938L55.9883 93.6328ZM60.582 93.7969L60.6289 93.8438V93.9023L60.3711 94.1016L60.2188 94.0547V94.0078C60.2188 93.9453 60.3398 93.875 60.582 93.7969ZM59.8555 96.3516H59.9023C60.3555 96.5156 60.582 96.6719 60.582 96.8203C60.6602 96.8203 60.8867 96.9922 61.2617 97.3359H61.1562C60.5859 97.0391 60.2383 96.7812 60.1133 96.5625C59.9414 96.5625 59.8555 96.5078 59.8555 96.3984V96.3516ZM61.4727 96.8203L61.5781 96.9258L61.4141 97.0312L61.3086 96.9258L61.4727 96.8203ZM63.5 97.2305L63.5586 97.2891V97.3359C63.5586 97.4062 63.3672 97.4609 62.9844 97.5V97.4414C62.9844 97.3398 63.1562 97.2695 63.5 97.2305ZM63.6055 97.5H63.6641L63.7695 97.6055H63.6055V97.5ZM59.9023 97.6055H60.0547V97.6523L59.9609 97.7578L59.9023 97.6992V97.6055ZM60.5352 97.8633H60.582L60.7344 98.0156V98.0742H60.6289L60.5352 97.9688V97.8633ZM64.3438 97.8633L64.3906 97.9102V97.9688L64.2383 98.0742L64.1797 98.0156V97.9688L64.3438 97.8633ZM63.4531 98.2734H63.5586V98.332L63.4531 98.4375H63.3477V98.3789L63.4531 98.2734ZM60.2188 98.9062H60.2656L60.3711 99.0117L60.3242 99.0586H60.2188V98.9062ZM60.7344 99.5273H60.8398V99.5859L60.7344 99.6797V99.5273ZM59.0117 99.8906L59.0703 99.9492V99.9961L59.0117 100.055H58.9648L58.918 99.9961V99.9492L58.9648 99.8906H59.0117ZM58.543 100.254L58.6016 100.312V100.359L58.4961 100.465H58.4375L58.3438 100.359L58.543 100.254ZM57.8164 101.098H57.875V101.145L57.7695 101.25H57.6641L57.8164 101.098ZM57.3008 101.508H57.3477V101.613H57.3945C57.3945 101.676 57.2734 101.797 57.0312 101.977H56.9258V101.93L57.3008 101.508ZM56.6211 102.293H56.7734V102.34C56.7031 102.48 56.5977 102.551 56.457 102.551L56.4102 102.504V102.445L56.6211 102.293ZM56.1523 102.914V103.078L56.0469 103.184H55.9883V103.078L56.1523 102.914ZM55.6836 103.441L55.7773 103.547L55.625 103.652L55.5781 103.594V103.547L55.6836 103.441ZM61.7773 105.059L61.8359 105.105V105.164L61.4141 105.469L61.3672 105.422V105.363C61.5078 105.16 61.6445 105.059 61.7773 105.059ZM66.9102 90.2695H66.957V90.3281L66.8516 90.4336H66.8047V90.375L66.9102 90.2695ZM62.3398 90.9023C62.5117 90.9023 62.7969 90.9922 63.1953 91.1719V91.2305H63.0898C62.5898 91.1758 62.3398 91.1016 62.3398 91.0078V90.9023ZM77.1523 91.3828L77.2578 91.5469C77.2578 91.6094 77.1367 91.7148 76.8945 91.8633H76.8359V91.8047C76.9688 91.5469 77.0742 91.4062 77.1523 91.3828ZM63.5703 91.4414L64.2617 91.8047L65.5742 92.3906L65.6328 92.4492H65.7383L65.9023 92.2852L65.8438 92.1328H65.9023L66.0547 92.1797L66.3242 92.0273H66.3711L66.7461 92.3438L66.957 92.0742L67.2266 92.1328L67.332 92.0273H67.4375V92.0742L67.3789 92.2383L67.9648 92.4961C69.0898 92.1445 70.0117 91.9688 70.7305 91.9688C70.7305 91.8594 70.9258 91.8047 71.3164 91.8047V91.8633L71.7383 91.6992H72.1602L73.707 91.5469C74.5039 91.6875 74.9805 91.8086 75.1367 91.9102L75.9336 91.4883H76.0977C76.0742 91.5664 75.8438 91.7266 75.4062 91.9688V92.0273L75.7695 92.0742H76.1445V92.1797H75.875V92.2852H75.9922V92.3438C75.8594 92.5547 75.6992 92.6602 75.5117 92.6602V92.707L76.0977 92.8242L76.1445 92.7656V92.8711H76.3086L77.4688 92.3906H77.5273C77.668 92.4453 77.7383 92.5 77.7383 92.5547V92.8242L77.6914 92.8711V92.9297H77.8438V93.0352H77.7383L77.5742 92.9297L77.4688 93.0352H77.3164L77 92.9297L76.8359 92.9766L76.7891 92.9297H76.7305C76.2461 93.0312 75.9805 93.1172 75.9336 93.1875V93.1406L75.9922 93.082V93.0352L75.6172 93.082V93.1406L76.3555 93.7734V93.832H76.25L75.8281 93.3984L75.7695 93.457V93.7266C75.7695 94.0781 75.8945 94.2539 76.1445 94.2539C76.1445 94.332 76.0195 94.3828 75.7695 94.4062C75.7695 94.5859 75.7344 94.6758 75.6641 94.6758L75.6172 94.6289H75.5586C75.4961 94.6289 75.3555 94.7852 75.1367 95.0977C75.1914 95.2773 75.2969 95.3672 75.4531 95.3672V95.3086C75.4531 95.207 75.4883 95.1562 75.5586 95.1562H75.6172C75.7891 95.2578 75.875 95.3633 75.875 95.4727L75.7227 95.7891H76.0977V95.8945C75.207 96.043 74.7617 96.1875 74.7617 96.3281V96.4336L75.1953 96.4805L75.2422 96.4336H75.3008C75.5117 96.4336 75.6172 96.5547 75.6172 96.7969V96.9023L75.5586 96.9609V97.0078L75.9922 97.4414H75.9336C75.4336 97.0586 75.1523 96.8086 75.0898 96.6914L74.5039 96.6445H74.3398L74.0234 96.3281H73.9648V96.4805L74.2344 97.2773C73.8438 96.9805 73.3672 96.6797 72.8047 96.375C70.8281 96.5547 69.6055 96.8047 69.1367 97.125C68.9805 97.125 68.7344 97.2461 68.3984 97.4883L68.7617 97.5938L68.8203 97.5469H68.8672L71.8438 98.1797H72.7461C73.6055 98.1797 74.9883 98.5352 76.8945 99.2461C77.5586 99.6211 77.9453 100.008 78.0547 100.406C78.4219 100.836 78.7773 101.051 79.1211 101.051L79.3906 100.945L79.2734 101.098V101.156C79.4922 101.352 79.918 101.527 80.5508 101.684C80.5664 101.824 80.6211 101.895 80.7148 101.895V102H80.6562C80.1875 102 79.8867 101.879 79.7539 101.637C79.6289 101.637 79.4883 101.566 79.332 101.426H79.2266C79.1562 101.426 79.1211 101.477 79.1211 101.578L79.0625 101.637H79.0156C79.0156 101.566 78.9609 101.531 78.8516 101.531L78.6406 101.473L78.5938 101.426V101.367L78.6992 101.262V101.203L78.2188 101.098H78.1133L78.0547 101.473L78.1602 101.637V101.684L78.0547 101.789C78 101.648 77.9492 101.578 77.9023 101.578H77.7969V101.684C77.7969 101.863 78.0273 102.129 78.4883 102.48V102.539L78.4297 102.75C78.5703 102.75 78.6406 102.785 78.6406 102.855V102.902C78.5938 103.105 78.3633 103.391 77.9492 103.758C77.4023 103.953 76.5898 104.344 75.5117 104.93C75.332 104.93 74.5 105.316 73.0156 106.09L70.6719 107.051C70.5156 107.191 70.1289 107.352 69.5117 107.531C69.5117 107.781 69.2812 107.938 68.8203 108L67.8594 108.375C67.5859 108.375 67.2695 108.496 66.9102 108.738C66.293 109.168 65.582 109.488 64.7773 109.699L64.7305 109.758V109.699L65.4219 109.113V109.066L65.1523 109.113V109.066L65.2578 108.797L65.5742 108.902L66.2188 108.527C66.4375 108.527 66.6484 108.301 66.8516 107.848L67.4961 107.203C67.6523 107.203 67.8438 107.062 68.0703 106.781C69.6953 105.828 70.6875 105.086 71.0469 104.555C71.1406 104.555 71.3906 104.359 71.7969 103.969C72.5 103.609 73.0469 102.973 73.4375 102.059C73.4375 101.59 73.2617 101.27 72.9102 101.098L71.7969 100.57L71.6328 100.676H71.5742V100.629L71.6328 100.57V100.523C71.2031 100.523 70.918 100.469 70.7773 100.359H70.5664C70.4492 100.359 70.3281 100.414 70.2031 100.523H70.1445L70.2031 100.465V100.406H70.1445C69.4336 100.492 69.0781 100.602 69.0781 100.734L69.1367 100.781H69.0781L68.6094 100.676H68.293L68.0703 100.84L67.9648 100.734L67.7539 100.887H67.707V100.84L67.8125 100.676C66.0781 100.402 65.2109 100.191 65.2109 100.043C64.2188 99.3789 63.7227 98.7773 63.7227 98.2383L63.5117 97.2773V96.8555C63.6367 95.918 63.7773 95.4023 63.9336 95.3086C64.043 94.9727 64.4688 94.3555 65.2109 93.457V93.3516H65V93.2461L65.2578 93.293V93.2461L65.4219 93.0352V92.9766C65.4219 92.9062 65.3672 92.8711 65.2578 92.8711L65.2109 92.8242V92.7656C65.4531 92.7422 65.5742 92.6875 65.5742 92.6016C65.4648 92.4922 65.1133 92.3164 64.5195 92.0742C63.7852 91.7461 63.4141 91.5508 63.4062 91.4883L63.5703 91.4414ZM65.4219 91.4883L65.4688 91.5469H65.5742L65.6328 91.4883H65.6797L65.7383 91.5469V91.5938L65.5742 91.6523L65.4219 91.5938V91.4883ZM67.543 91.8047V91.9102L67.4375 92.0273V91.9102L67.543 91.8047ZM76.7891 91.8633V91.9102L76.6719 92.0273V91.9688L76.7891 91.8633ZM78.957 91.9102H79.168L79.332 92.0742V92.1797C79.332 92.25 79.2266 92.3203 79.0156 92.3906L78.6406 92.2852C78.4453 92.3945 78.25 92.4492 78.0547 92.4492C78.4219 92.0898 78.7227 91.9102 78.957 91.9102ZM76.5195 92.1797V92.2852L76.25 92.6016V92.5547C76.375 92.3047 76.4648 92.1797 76.5195 92.1797ZM75.2422 92.3906V92.4492L75.3008 92.6016H75.4531L75.5586 92.4961L75.2422 92.3906ZM80.9258 92.3438H81.0312C81.0312 92.4766 80.6758 92.6523 79.9648 92.8711V92.9766H79.8594V92.8711C79.8594 92.7617 80.2148 92.5859 80.9258 92.3438ZM79.168 92.9297H79.2734L79.4375 93.082C78.8047 93.3633 78.1133 93.6133 77.3633 93.832V93.7734L78.8047 93.1875C78.8047 93.1328 78.9258 93.0469 79.168 92.9297ZM74.9258 93.1875V93.2461L75.0898 93.457V93.5039L74.9727 93.668V93.832H75.0312L75.1953 93.668V93.6094L75.1367 93.5625V93.5039L75.1953 93.457L75.1367 93.3984L75.1953 93.3516H75.4062V93.5039L75.7695 93.3984V93.3516C75.668 93.3516 75.5117 93.2812 75.3008 93.1406L74.9258 93.1875ZM76.625 93.832L77.1523 93.8789L77.1055 93.9375V93.9844C77.3867 94.0703 77.5273 94.1602 77.5273 94.2539C77.5273 94.3477 77.3867 94.418 77.1055 94.4648L77.0469 94.4062H77L77.0469 94.3594V94.1953C77.0469 94.1094 76.9062 94.0234 76.625 93.9375V93.832ZM76.5195 94.3008L76.625 94.6289C76.5391 94.7461 76.3984 94.832 76.2031 94.8867L76.0977 94.6758C76.0977 94.4727 76.2383 94.3477 76.5195 94.3008ZM77.5273 94.4648L77.5742 94.5234V94.5703L77.4688 94.6758L77.4219 94.6289V94.5703L77.5273 94.4648ZM77.7969 94.7344C78.0391 94.9141 78.1602 95.125 78.1602 95.3672L77.9023 95.4727L77.5742 94.7812L77.6328 94.7344H77.7969ZM76.2031 95.0508L76.3086 95.1562L76.1445 95.2617H76.0977V95.1562L76.2031 95.0508ZM77.4688 95.7891H77.6914V95.8945H77.4688V95.7891ZM75.9922 97.4414H76.1445V97.5469H76.0977L75.9922 97.4414ZM74.6562 97.6523H74.7148L74.8672 97.8047L74.8203 97.8633H74.7617L74.6562 97.6523ZM79.332 100.148H79.4961V100.195L79.3906 100.301H79.332V100.148ZM69.7695 100.887H69.8281L69.3477 101.578V101.637C69.457 101.637 69.5117 101.707 69.5117 101.848L69.6641 101.895C69.6484 102.215 69.5078 102.375 69.2422 102.375L68.9727 102.328L68.8672 102.434H68.7148L68.6094 102.328V102.27C68.6406 101.809 68.8516 101.578 69.2422 101.578L69.7695 100.887ZM68.4453 101.531L68.5039 101.578V101.637L68.3398 101.789L68.293 101.742V101.684L68.4453 101.531ZM68.3398 103.383L68.3984 103.441V103.488L68.2344 103.652V103.488L68.3398 103.383ZM82.6836 88.8281H82.8242C83.1992 89.0312 83.3867 89.1719 83.3867 89.25L83.3398 89.2969V89.3438C83.1992 89.2188 83.0117 89.1562 82.7773 89.1562L82.7305 89.1094C82.6367 89.1094 82.5898 89.0781 82.5898 89.0156V88.9219L82.6836 88.8281ZM81.207 87.8203L81.2656 87.8672V87.9258L81.207 87.9727H81.1602L81.1133 87.9258V87.8672L81.1602 87.8203H81.207ZM81.5703 87.8672C82.1172 88.1953 82.3906 88.4883 82.3906 88.7461L82.6016 89.0039V89.1094C82.5 89.1953 82.4492 89.2969 82.4492 89.4141H82.3906L82.4961 89.8242L82.3906 89.9297V89.9766C82.4766 90.125 82.5625 90.2109 82.6484 90.2344L83.0586 89.8242L83.0117 89.5664V89.4609H83.0586C83.3008 89.5469 83.4219 89.6172 83.4219 89.6719V89.7188L83.3164 89.8711L83.4219 90.0352C83.5625 89.9883 83.6641 89.9023 83.7266 89.7773V89.6719C83.625 89.6719 83.5742 89.6367 83.5742 89.5664V89.5195H83.6797L83.5742 89.3672L83.9375 89.1094H84.043L83.9375 89.2617L83.9844 89.3086V89.3672C84.3438 89.3672 84.6016 89.2461 84.7578 89.0039C84.8125 89.0039 84.8633 89.125 84.9102 89.3672C84.8398 89.3672 84.7539 89.4844 84.6523 89.7188V89.7773L84.8047 89.8242C84.8047 89.7227 84.8398 89.6719 84.9102 89.6719L84.8633 89.625V89.5664C84.8633 89.5117 84.9492 89.4609 85.1211 89.4141C85.2227 89.5391 85.2734 89.6602 85.2734 89.7773L85.168 90.0352L85.2148 90.082H85.2734L85.4727 89.8711H85.5312V89.9297C85.3906 90.1016 85.2852 90.1875 85.2148 90.1875V90.2344H85.3789L85.7891 89.9766H85.8359L85.5312 90.3398V90.3867L87.8984 89.7188L88.3555 89.8242L88.8711 89.625L89.2344 89.6719C89.2344 89.5781 89.4375 89.4922 89.8438 89.4141L89.7969 89.3672V89.3086L89.8438 89.2617H89.9023L89.9492 89.3086L90.1016 89.2617V89.2031L89.8438 88.9453L89.6914 89.0039L89.8438 88.8516C90.0938 89.0859 90.3359 89.2031 90.5703 89.2031V89.3086L90.207 89.3672V89.4141H90.4648L91.0273 89.2617C91.0352 89.1914 91.1367 89.1406 91.332 89.1094V89.2031H91.2383C91.2383 89.4141 91.168 89.5195 91.0273 89.5195L90.7695 89.4609L90.7227 89.625C90.9961 89.625 91.1328 89.6914 91.1328 89.8242L91.0273 89.9297H90.9219L90.7695 89.8242L90.5117 89.8711V89.9766C90.5117 90.0469 90.5625 90.082 90.6641 90.082V90.1289L90.5703 90.2344L90.6172 90.3867C90.9219 90.3398 91.1289 90.2734 91.2383 90.1875V90.2344L91.1797 90.4922H91.2383L91.6953 90.4453H91.9062C91.9297 90.2734 91.9805 90.1875 92.0586 90.1875L92.1055 90.2344L91.9062 90.5977V90.7031L92.1641 90.7969L92.7266 90.6445V90.75L92.2578 90.9023L92.3633 91.1602L92.3164 91.207H92.2578L92.1055 91.1133C92.0273 91.2852 91.9414 91.3711 91.8477 91.3711V91.418C91.9883 91.4336 92.0586 91.4844 92.0586 91.5703L91.6484 91.7227L91.6953 91.7812V91.8281L91.5898 91.9336H91.3906L91.2383 91.7812C90.8398 91.9844 90.5977 92.1367 90.5117 92.2383C90.5117 92.3086 90.2734 92.3789 89.7969 92.4492L89.6445 92.6016L89.0234 92.5547C88.3828 92.7891 87.8359 92.9414 87.3828 93.0117H87.0664C86.2617 93.0117 85.6992 93.082 85.3789 93.2227V94.0898L85.3203 94.5586L85.4258 95.0625L85.3789 96.6094L85.4727 96.9141V97.3242C85.4727 97.9102 85.4219 98.2031 85.3203 98.2031C85.5078 98.6094 85.6445 99.1055 85.7305 99.6914V101.953C85.457 103.188 85.2852 104.164 85.2148 104.883L85.2734 105.551C85.2734 105.754 85.1367 106.082 84.8633 106.535L84.7578 107.098L84.9102 107.66L84.8633 108.176H84.7578V108.07L84.1953 105.656C84.0781 105.141 83.9922 104.883 83.9375 104.883H83.8789L83.832 104.941H83.7852L83.5742 104.625L83.6328 104.578L83.4688 104.273H83.375L83.2109 104.367L83.0586 104.32L82.9531 104.426L82.9062 104.367V104.32L83.0117 104.215L82.8594 103.957L82.9062 103.805H82.8594L82.6016 103.91L82.6484 104.168L82.2383 104.32L82.1914 104.273V104.215C82.4258 103.77 82.6484 103.547 82.8594 103.547H83.0117C83.0273 103.414 83.0781 103.348 83.1641 103.348L83.3164 103.395V103.137H83.375L83.4219 103.195H83.4688C83.4688 102.883 83.5234 102.555 83.6328 102.211L83.5742 101.906L83.6797 101.391C83.6797 101.117 83.6094 100.895 83.4688 100.723C83.5234 99.7617 83.5938 99.2812 83.6797 99.2812V99.1758C83.5234 99.1758 83.3867 98.7148 83.2695 97.793C83.0586 97.793 82.9531 97.6914 82.9531 97.4883C82.9531 97.3164 82.9883 97.2305 83.0586 97.2305C82.9805 96.2617 82.8281 95.625 82.6016 95.3203C82.3906 95.3203 82.2031 94.9297 82.0391 94.1484V93.8906L81.6172 94.043L80.8555 93.9375C80.6133 94.1328 79.5703 94.2695 77.7266 94.3477L77.668 94.3945L77.5156 94.4531L76.9531 94.3477L76.7422 94.3945L76.1797 94.3477L75.9688 94.3945V94.3008C76.2734 94.2773 76.5664 94.1055 76.8477 93.7852C77.293 93.6445 77.6523 93.4883 77.9258 93.3164C77.9883 93.3164 78.2109 93.1133 78.5938 92.707C79.0859 92.707 79.4453 92.5352 79.6719 92.1914C79.6719 92.1055 79.875 92.0039 80.2812 91.8867C80.2812 91.7773 80.3867 91.7227 80.5977 91.7227L81.207 91.3125H81.2656L81.418 91.418L81.875 91.3125V90.9609L81.9336 90.9023L81.7227 90.4453L81.7812 90.3867H81.8281L82.0391 90.5391L82.2383 90.293L82.0859 90.082V90.0352L82.2383 89.7773L82.1914 89.4609C82.2461 89.4609 82.3125 89.3242 82.3906 89.0508L82.1914 88.793C82.0898 88.793 81.9688 88.6211 81.8281 88.2773C81.5781 88.1523 81.4414 88.0508 81.418 87.9727C81.418 87.9023 81.4688 87.8672 81.5703 87.8672ZM82.8594 88.4414H82.9062L83.0117 88.5352L82.9531 88.5938H82.8594V88.4414ZM84.7109 88.5352L84.7578 88.5938V88.6406L84.7109 88.6992H84.6523L84.6055 88.6406V88.5938L84.6523 88.5352H84.7109ZM87.0664 88.793H87.1719V88.9453L86.6094 89.4141V89.3672L87.0664 88.793ZM91.7539 88.793H91.8008V88.8984L91.6484 88.9453V88.8984L91.7539 88.793ZM83.1172 88.9453H83.1641L83.2695 89.0508L83.2109 89.1094H83.1641L83.1172 89.0508V88.9453ZM84.1953 88.9453H84.2422V89.0039L84.1367 89.1094H84.043L84.1953 88.9453ZM89.6445 89.1562H89.7383L89.7969 89.3086H89.7383L89.6445 89.2031V89.1562ZM86.3516 89.5195L86.3984 89.5664V89.625L85.9414 89.9297H85.8945C85.9648 89.7578 86.1172 89.6211 86.3516 89.5195ZM92.668 89.625L92.7266 89.6719V89.7188L92.668 89.7773H92.6211L92.5742 89.7188V89.6719L92.6211 89.625H92.668ZM95.8086 89.7773V89.8242L95.5977 90.0352H95.3516V89.9766C95.3906 89.8438 95.543 89.7773 95.8086 89.7773ZM90.7695 89.8711L90.8281 89.9297V90.0352H90.6641V89.9766L90.7695 89.8711ZM91.5898 89.9766L91.6484 90.0352V90.082L91.5898 90.1289H91.543L91.4961 90.082V90.0352L91.543 89.9766H91.5898ZM95.0938 90.082L95.1406 90.1289V90.1875C95.0547 90.3516 94.625 90.5547 93.8516 90.7969C93.3438 90.7422 93.0898 90.6914 93.0898 90.6445L93.0312 90.7031H92.832V90.6445L92.9258 90.5391H93.6992L95.0938 90.082ZM91.1797 92.0391H91.2383C91.3164 92.0391 91.3828 92.1562 91.4375 92.3906H91.3906L91.1797 92.0859V92.0391ZM76.8945 93.0117L77.0586 93.1641L76.7422 93.2695L76.6953 93.2227V93.1641L76.8945 93.0117ZM80.4922 94.7109V94.8164L80.2812 94.9102L80.1875 94.8164L80.4922 94.7109ZM82.1914 104.531L82.2383 104.578C82.1914 104.812 82.1055 104.984 81.9805 105.094H81.9336L81.8281 104.988V104.941C81.9375 104.691 82.0586 104.555 82.1914 104.531ZM96.5234 91.9102H96.6172L96.7227 92.2617H96.8633V92.1562H96.9219L96.9688 92.2148H97.0156L97.1211 92.1094L97.168 92.1562L97.2734 92.0625H97.3203L97.2734 92.1094L97.3203 92.3086H97.3672L97.5195 92.2148L97.4727 92.4609V92.5078L97.5195 92.4609H97.6133C97.6133 92.6641 97.7656 92.7656 98.0703 92.7656C98.3594 92.2266 98.625 91.957 98.8672 91.957L99.1719 92.0625L99.4648 92.0156H99.5703L99.8164 92.2617V92.3086L99.418 92.5547L99.3711 92.8125L99.5234 92.9062L99.875 92.7656C99.875 92.9297 99.9062 93.0117 99.9688 93.0117L99.7695 93.4102L99.8164 93.457V93.6562L99.6641 93.8555L99.7227 93.9141V93.9609C99.4883 93.9609 99.3711 94.0625 99.3711 94.2656L98.7148 94.5586V94.6055H98.6211C98.6211 94.4727 98.5703 94.4062 98.4688 94.4062C98.2812 94.5391 98.1133 94.6055 97.9648 94.6055L97.3672 94.2656V94.207H97.0742L96.8633 94.5117H96.8164V94.4648L96.9219 94.1602C96.6328 94.1602 96.1797 94.0117 95.5625 93.7148L94.918 93.5625H94.8711L94.3672 93.7148C94.1719 93.6133 93.9727 93.5625 93.7695 93.5625C93.5664 93.8203 93.4648 94.0195 93.4648 94.1602H93.418L93.3125 94.0547L93.2656 94.1133H93.1719C92.9375 94.1133 92.8203 94.0781 92.8203 94.0078C92.6641 94.0078 92.4648 94.2578 92.2227 94.7578L92.3164 95.3555V95.7656L92.2227 95.9062V96.0117C92.2852 96.0742 92.3164 96.2227 92.3164 96.457C92.3711 96.457 92.5703 96.8906 92.9141 97.7578C92.9688 97.7578 93.0703 97.9258 93.2188 98.2617C93.3594 98.2617 93.4922 98.4102 93.6172 98.707V98.9062L93.8633 99.9609L93.8164 100.113H93.9219C94.6719 99.5898 95.1211 99.2383 95.2695 99.0586C95.4258 99.0586 95.5586 98.9766 95.668 98.8125C95.0039 98.5703 94.5547 98.3203 94.3203 98.0625H94.3672C94.6953 98.2734 95.0625 98.457 95.4688 98.6133L95.7734 98.5664H95.8203C95.8828 98.5664 95.9141 98.6133 95.9141 98.707H95.9727C96.0586 98.4727 96.1406 98.3555 96.2188 98.3555H96.3125L96.5234 98.6133L96.7695 98.6602L96.8164 98.6133H96.8633L97.2734 98.6602L97.3203 98.6133V98.5664L97.6719 98.6133C98.1719 98.4102 98.5195 98.3086 98.7148 98.3086C98.7148 98.1914 98.8984 98.1094 99.2656 98.0625L99.3711 98.1562L97.8242 99.1641L97.9648 99.4102L97.918 99.5625L97.9648 99.6094V99.6562C97.7852 99.8672 97.6367 100.117 97.5195 100.406L97.5664 100.465H97.6133L97.5664 100.816L97.6133 101.062C97.6133 101.352 97.5 101.617 97.2734 101.859C97.1953 101.859 97.1445 101.742 97.1211 101.508C97.1758 101.508 97.2422 101.391 97.3203 101.156L97.2734 100.957H97.3203L97.2734 100.91V100.605C97.125 100.605 96.9883 100.559 96.8633 100.465L96.5703 100.816C96.4297 100.77 96.3281 100.684 96.2656 100.559L96.4648 100.465L96.3711 100.207H96.1719C96.0547 100.207 95.9375 100.16 95.8203 100.066H95.5156L95.3633 100.16H95.1641L95.1172 100.113C94.4844 100.316 94.168 100.465 94.168 100.559L94.0156 101.062L94.1211 101.508L94.0625 101.965C94.2734 102.293 94.4102 102.457 94.4727 102.457C94.5664 102.457 94.6133 102.391 94.6133 102.258H94.7656V101.965H94.8711C94.8711 102.129 94.9023 102.211 94.9648 102.211L95.0234 102.164L95.1641 102.211L95.2227 102.164H95.2695L95.4219 102.211V102.059H95.5156C95.5156 102.16 95.5508 102.211 95.6211 102.211L95.668 102.164H95.7148L95.7734 102.211V102.105H95.8672V102.211L95.9141 102.164L96.2656 102.316L96.418 102.258V102.316L96.3711 102.363V102.41H96.5234V102.316H96.6172L96.5703 102.562H96.6172L96.5703 102.609V102.656L96.6641 102.961H96.7227L97.1211 102.855L97.168 102.914L97.4141 102.715H97.7656L97.9648 102.656C98.4023 102.766 98.7031 102.949 98.8672 103.207H98.9141L99.1133 103.16L99.3242 103.266L100.121 103.008L100.52 103.16L100.824 102.961H101.422L101.574 102.855H102.125C102.602 102.723 103 102.656 103.32 102.656H103.367C103.57 102.594 103.672 102.48 103.672 102.316L103.719 102.258H103.766C103.766 102.32 103.867 102.406 104.07 102.516H104.27L104.422 102.41H104.82C105.398 102.27 105.848 102.121 106.168 101.965H106.625L106.766 101.859L106.871 101.965V102.012C106.871 102.098 106.406 102.266 105.477 102.516L104.375 103.16C103.07 103.27 102.418 103.418 102.418 103.605C101.902 103.715 101.254 104.219 100.473 105.117C100.473 105.477 100.172 105.656 99.5703 105.656C99.3438 105.961 99.0586 106.113 98.7148 106.113H97.5664C97.3867 105.98 97.2031 105.914 97.0156 105.914L96.7695 105.961C96.7695 105.805 96.3672 105.656 95.5625 105.516H95.4688L94.9648 105.867V105.914H95.2227L95.5156 105.809C95.9375 105.809 96.3203 105.941 96.6641 106.207V106.617L96.3711 107.508L95.7148 107.613V107.859L95.5625 108L94.8711 107.906H94.5195C94.3711 107.766 94.1523 107.633 93.8633 107.508C93.8242 107.422 93.6758 107.305 93.418 107.156C93.293 106.938 93.125 106.789 92.9141 106.711C92.7422 106.367 92.5781 106.117 92.4219 105.961V105.867C92.5547 105.727 92.6211 105.359 92.6211 104.766L92.9141 104.414H93.1133L93.3711 104.613H93.418V104.566L92.6211 103.863C92.582 103.176 92.4492 102.293 92.2227 101.215L92.2695 99.2578C92.1367 99.2578 92.0039 99.0078 91.8711 98.5078V97.9102C91.6758 97.4961 91.4766 96.9297 91.2734 96.2109L91.1211 96.0586L91.2266 95.9062C91.1328 95.9062 91 95.7891 90.8281 95.5547C90.7266 95.5547 90.6406 95.4883 90.5703 95.3555L90.7227 95.0156L90.6172 94.8047L90.6758 94.6055L90.418 94.2656L90.5703 94.1133C90.7422 94.1133 90.875 94.3438 90.9688 94.8047L91.168 94.9102L91.3203 94.7109L91.2734 94.6641V94.6055L91.4258 94.3594L91.3203 94.2656V94.0078L91.2734 93.2578H91.3203C91.3047 92.9141 91.0039 92.5156 90.418 92.0625L90.4766 92.0156C90.6641 92.0156 90.9609 92.2969 91.3672 92.8594C91.4844 92.8594 91.6172 93.0273 91.7656 93.3633C91.8828 93.3633 92.0156 93.6797 92.1641 94.3125H92.2227C92.3086 93.875 92.4414 93.6562 92.6211 93.6562L92.8203 93.7617C93.0078 93.7617 93.2383 93.5781 93.5117 93.2109L93.7695 93.1641L93.9688 93.2109C94.4531 93.0547 95.0547 92.9375 95.7734 92.8594C95.8047 92.7578 95.9023 92.707 96.0664 92.707C96.1992 92.7461 96.2656 92.8125 96.2656 92.9062H96.3711L96.4648 92.6133H96.3125V92.5547L96.3711 92.5078L96.3125 92.4609V92.3555H96.418V92.3086C96.2852 92.3086 96.2188 92.2578 96.2188 92.1562H96.2656L96.5703 92.2148L96.5234 91.957V91.9102ZM93.7227 92.1562V92.2148L93.6641 92.3555H93.7227L93.8164 92.4609V92.5547H93.7227V92.6602L93.8633 92.707L94.0625 92.6602V92.7656H93.7227L93.6641 92.707L93.3711 92.8125V92.7656C93.3711 92.5938 93.3047 92.5078 93.1719 92.5078V92.4141C93.3516 92.4141 93.5352 92.3281 93.7227 92.1562ZM94.7188 92.5547L94.8125 92.6602C94.7969 92.7617 94.6641 92.8125 94.4141 92.8125L94.3203 92.707L94.2734 92.7656H94.168V92.6602H94.5664L94.7188 92.5547ZM90.7695 93.4102H90.875C90.9531 93.4102 91.0039 93.4922 91.0273 93.6562L90.7227 93.8555H90.6172L90.5234 93.7617V93.6562L90.7695 93.4102ZM90.1719 93.7617L90.2188 93.8086V93.8555L90.1719 93.9141H90.125L90.0664 93.8555V93.8086L90.125 93.7617H90.1719ZM93.7695 97.8164C93.832 97.8164 93.8633 97.8633 93.8633 97.957L93.8164 98.2148H93.7695L93.6641 98.1094V97.9102L93.7695 97.8164ZM100.273 97.8633H100.367L100.625 97.9102V98.0156H100.566C100.395 98.0156 100.297 97.9648 100.273 97.8633ZM93.7227 98.3086H93.8164V98.5078L93.7227 98.4141V98.3086ZM95.1641 101.156H95.2695V101.309H95.1641V101.156ZM104.715 101.461L104.773 101.508V101.566L104.715 101.613H104.668L104.621 101.566V101.508L104.668 101.461H104.715ZM103.918 101.766L104.023 101.859V101.965L103.824 102.258H103.766V102.059C103.789 101.863 103.84 101.766 103.918 101.766ZM101.82 102.105L101.867 102.164H102.066L102.125 102.105H102.172V102.211L101.973 102.516H101.867C101.805 102.516 101.773 102.465 101.773 102.363L101.82 102.105ZM94.168 102.316V102.363L94.2148 102.562C94.2148 102.664 94.1484 102.715 94.0156 102.715V102.809H94.0625L94.3672 102.609L94.2148 102.316H94.168ZM97.2148 107.414H97.2734C97.3672 107.445 97.4141 107.543 97.4141 107.707L97.3672 107.766H97.2148L97.0742 107.613V107.566L97.2148 107.414ZM96.8164 107.508C96.8945 107.508 96.9453 107.594 96.9688 107.766L96.8164 107.859H96.7227C96.6211 107.828 96.5703 107.73 96.5703 107.566L96.6172 107.508H96.8164ZM97.5195 107.707L97.5664 107.766V107.812L97.5195 107.859H97.4727L97.4141 107.812V107.766L97.4727 107.707H97.5195ZM97.2148 107.812H97.2734C97.3438 107.812 97.3906 107.895 97.4141 108.059L97.2734 108.152H97.2148L97.0742 108L97.2148 107.812ZM96.7227 108.059L96.7695 108.105V108.152L96.7227 108.211H96.6172V108.152L96.7227 108.059ZM96.418 108.609H96.4648L96.5703 108.703L96.5234 108.762H96.418V108.609ZM105.008 91.2773H105.043L105.113 91.3477L105.078 91.3828H105.043L105.008 91.3477V91.2773ZM106.402 91.2773V91.3125L106.145 91.7578C106.246 91.7578 106.297 91.793 106.297 91.8633L106.52 91.7578V91.793L106.449 91.8984V91.9805L106.59 92.0156L106.777 91.8281V91.8633L106.672 92.0156H106.742V92.0508L106.707 92.1562C106.762 92.1562 106.895 92.0586 107.105 91.8633V91.8984L106.883 92.2734L107.07 92.3086C107.07 92.2539 107.133 92.2188 107.258 92.2031L107.141 92.3438V92.4141H107.223V92.4609L107.141 92.5664C107.242 92.5664 107.293 92.5898 107.293 92.6367L107.258 92.6836L107.398 92.7539C107.672 92.7539 107.848 92.5078 107.926 92.0156C108.168 91.8828 108.289 91.7969 108.289 91.7578H108.359L108.324 91.793V91.8633L108.617 91.9453L109.391 91.3477H109.438L109.508 91.4297V91.5L109.32 91.5352V91.5L108.77 91.9453L108.91 92.2383C108.91 92.3711 108.789 92.5195 108.547 92.6836H108.477V92.7539C108.898 93.1445 109.266 93.3398 109.578 93.3398C109.578 93.4023 109.762 93.5391 110.129 93.75C110.129 93.9297 110.414 94.0391 110.984 94.0781C111.18 94.1953 111.363 94.3789 111.535 94.6289C111.723 94.6289 111.918 94.9375 112.121 95.5547C112.121 95.6797 112.258 95.9023 112.531 96.2227L112.602 96.7734H112.637C112.691 96.7734 112.73 96.6602 112.754 96.4336L112.977 96.2227L113.012 96.2578H113.199L113.375 96.2227V96.293C113.305 96.293 113.27 96.3398 113.27 96.4336L113.34 96.5156V96.5508C113.34 96.5977 113.277 96.6211 113.152 96.6211C113.113 96.6992 113.027 96.7383 112.895 96.7383L112.859 96.9141C112.859 96.9922 112.898 97.0312 112.977 97.0312L113.012 97.0664V97.1016L112.824 97.2188V97.2539C112.887 97.4414 113.168 97.6602 113.668 97.9102V97.9922H113.633C113.461 97.9922 113.191 97.8203 112.824 97.4766C112.629 97.4766 112.531 97.6094 112.531 97.875L112.566 98.0273H112.461V98.1328H112.566V98.168C112.566 98.2227 112.531 98.25 112.461 98.25V98.2852L112.496 98.4258C112.395 98.5742 112.344 98.6875 112.344 98.7656L112.461 98.8711V98.9414H112.414L112.273 98.8711L112.238 99.0586L112.273 99.1641L112.238 99.1289H112.203L112.156 99.1641V99.1992L112.203 99.3516H112.156L112.121 99.3164H112.086L111.793 99.9023L111.207 100.5C111.207 100.578 111.047 100.809 110.727 101.191V101.273H110.691L110.727 101.309V101.496C110.586 101.738 110.461 101.859 110.352 101.859V101.895C110.969 101.895 111.375 102.008 111.57 102.234C112.234 102.773 112.664 103.25 112.859 103.664C113.055 103.828 113.215 104.113 113.34 104.52L113.855 105.211L113.82 105.328C113.93 105.602 114.016 105.762 114.078 105.809L114.559 106.172L115.004 106.395L115.191 106.43L115.367 106.289H115.402C115.496 106.289 115.559 106.422 115.59 106.688C115.543 106.703 115.496 106.766 115.449 106.875L115.191 106.805L115.004 106.84L114.816 106.77C115.137 107.09 115.652 107.699 116.363 108.598L116.738 108.715L116.773 108.68V108.75C116.695 108.75 116.656 108.773 116.656 108.82C116.758 108.992 117.09 109.277 117.652 109.676C117.652 109.746 117.703 109.781 117.805 109.781V109.852H117.77C117.348 109.516 117.027 109.309 116.809 109.23C116.809 109.191 116.688 109.082 116.445 108.902C116.156 108.621 115.883 108.41 115.625 108.27C115.117 107.941 114.773 107.648 114.594 107.391C114.203 107.156 114.008 106.984 114.008 106.875C113.906 106.875 113.66 106.738 113.27 106.465C113.129 106.465 112.918 106.281 112.637 105.914C112.637 105.812 112.305 105.492 111.641 104.953C111.406 104.727 111.102 104.543 110.727 104.402L109.953 103.781C109.883 103.656 109.672 103.531 109.32 103.406L109.215 103.266V103.219H109.25L109.438 103.266L109.473 103.219C109.395 103.023 109.195 102.926 108.875 102.926L108.77 102.855L108.617 102.891C108.227 102.648 108.031 102.453 108.031 102.305C108.031 102.234 107.906 102.012 107.656 101.637V101.566L107.738 101.496H107.844L107.926 101.566V101.602L107.879 101.637L108.184 102.27L108.137 102.375L108.184 102.41H108.219C108.758 102.066 109.027 101.746 109.027 101.449C109.027 101.309 109.125 101.238 109.32 101.238L109.648 100.418C109.75 100.418 109.887 100.113 110.059 99.5039C110.301 99.2461 110.438 99.0469 110.469 98.9062H110.434L110.504 98.7656L110.469 98.7305L110.539 98.6484L110.316 98.6133V98.6484L109.73 98.4727L109.543 98.6484H109.508V98.5781L109.613 98.4258H109.508V98.3555L109.648 98.3906L109.766 98.3555C109.898 98.4336 110.082 98.4727 110.316 98.4727V98.3555H110.352L110.211 98.1328L110.023 98.2148V98.168L109.766 98.25V98.2148L109.801 98.168V98.1328L109.73 98.0625L109.871 97.9922V97.957L109.473 97.9102V97.8398H109.73L109.906 97.8047V97.7695C109.859 97.7695 109.773 97.6211 109.648 97.3242V97.1719C109.719 97.1719 109.793 97.2969 109.871 97.5469L110.176 97.4766V97.4297L110.129 97.3945V97.3594L110.211 97.2891L110.094 97.1719L110.246 97.0664L110.023 96.6211L110.059 96.5859H110.094C110.281 96.9297 110.465 97.1016 110.645 97.1016L110.691 96.9961C110.527 96.918 110.281 96.4883 109.953 95.707C109.57 95.1602 109.199 94.8516 108.84 94.7812C108.637 94.5781 108.355 94.3828 107.996 94.1953L107.961 94.2305C107.93 94.0586 107.867 93.9727 107.773 93.9727L107.809 93.9375V93.8906L107.656 93.8203H107.586C107.586 93.9375 107.5 94.0859 107.328 94.2656V94.3359C107.617 94.4297 107.828 94.5664 107.961 94.7461H107.879C107.738 94.6289 107.594 94.5664 107.445 94.5586L107.258 94.3711H107.223V94.4883L107.258 94.5234V94.5586H107.223L107.07 94.4883L106.93 94.5234C106.93 94.6875 107.027 94.8086 107.223 94.8867L107.328 95.1094L107.293 95.332C107.293 95.6758 107.344 95.8477 107.445 95.8477L107.516 95.918C107.367 96.707 107.219 97.1016 107.07 97.1016L107.105 97.1367V97.4766C106.957 97.8125 106.883 98.2305 106.883 98.7305L106.812 99.0938C106.859 99.1875 106.883 99.3242 106.883 99.5039V99.5742L106.742 99.8672L107.035 100.898C107.199 100.898 107.297 100.949 107.328 101.051V101.086L107.035 101.93L107 101.977V102.82C107 103.367 107.074 103.871 107.223 104.332V104.402L107.258 105.293L107.223 105.398L107.445 105.809C107.445 106.238 107.406 106.496 107.328 106.582C107.375 106.621 107.438 107.137 107.516 108.129C107.562 108.129 107.609 108.238 107.656 108.457C107.711 108.465 107.762 108.527 107.809 108.645C107.738 108.887 107.676 109.008 107.621 109.008L107.516 108.938H107.48L107.516 109.16L107.48 109.195V109.23L107.516 109.336L107.48 109.371H107.445L107.48 109.418L107.398 109.852L107.48 110.004L107.445 110.262V110.414L107.516 111.188L107.48 111.223V111.258L107.516 111.293L107.48 111.48L107.516 111.621H107.48L107.398 111.551V111.41L107.223 110.262L107.258 110.156C107.109 110.094 107.035 109.945 107.035 109.711C106.988 109.711 106.965 109.746 106.965 109.816L106.93 109.852H106.883L106.848 109.816L106.742 109.934C106.695 109.738 106.598 109.641 106.449 109.641C106.301 109.523 106.227 109.336 106.227 109.078L106.332 108.902V108.855H106.262V108.785H106.332V108.75L106.074 108.387H106.039L105.934 108.457L105.711 108.199L105.629 108.457L105.676 108.492V108.527C105.605 109.059 105.531 109.355 105.453 109.418L105.488 109.453V109.559L105.453 109.781L105.488 109.898L105.336 110.191L105.371 110.227H105.406L105.371 110.672V110.848H105.301V110.812C105.301 110.133 105.238 109.617 105.113 109.266V108.785L105.148 108.562C105.102 108.438 105.078 108.219 105.078 107.906V107.684L105.113 107.648C104.965 107.273 104.855 106.793 104.785 106.207V106.137C104.855 105.629 104.918 105.359 104.973 105.328L104.938 105.176L104.973 105.141H105.008L104.973 105.105V105.035L105.078 104.848L104.973 104.625V104.52C104.973 104.238 105.008 103.93 105.078 103.594C105.055 103.484 104.992 103.41 104.891 103.371L104.973 103.148L104.891 103.078L104.973 102.785C104.895 102.785 104.855 102.758 104.855 102.703V102.668L104.891 102.527L104.785 102.234C104.637 102.234 104.562 102.148 104.562 101.977L104.598 101.414L104.527 100.898L104.562 100.535C104.5 100.395 104.402 99.9883 104.27 99.3164C104.238 99.3164 104.199 99.2305 104.152 99.0586L104.199 98.8359C104.113 98.3125 104.027 98.0039 103.941 97.9102V97.1016C104.035 97.0391 104.094 96.5586 104.117 95.6602L104.082 95.625H104.047L103.977 95.707L104.012 95.8125C103.965 95.8125 103.926 95.875 103.895 96L103.684 96.0703H103.637V95.9648H103.566L103.309 96.1055L103.273 96.0703V96.0352C103.398 95.8867 103.461 95.7773 103.461 95.707L103.309 95.5547L103.426 95.4492L103.566 95.4844C103.668 95.4453 103.719 95.4062 103.719 95.3672V95.2266L103.637 95.1094C103.637 95.0625 103.688 95.0391 103.789 95.0391V95.0039L103.719 94.8867V94.8516C103.836 94.8516 103.895 94.8164 103.895 94.7461L103.754 94.6641L103.789 94.5586L103.566 94.3008V94.2305H103.637L103.824 94.3711L103.789 94.4062C103.852 94.6328 103.949 94.7461 104.082 94.7461V94.7109L103.977 94.4531V94.3359L104.012 93.7148C103.832 93.543 103.695 93.457 103.602 93.457L103.566 93.4922L103.602 93.5273V93.5977C103.508 93.5977 103.461 93.6602 103.461 93.7852C103.312 93.7852 103.238 93.8203 103.238 93.8906C103.293 93.8906 103.328 93.9531 103.344 94.0781L103.238 94.1133L103.273 94.3008H103.238C103.191 94.3008 103.168 94.2656 103.168 94.1953L103.133 94.2305H102.945C102.82 94.2305 102.758 94.168 102.758 94.043C102.641 94.043 102.582 94.0195 102.582 93.9727L102.84 93.8555V93.7852C102.762 93.7852 102.66 93.6016 102.535 93.2344C102.785 93.5 102.91 93.6836 102.91 93.7852L102.945 93.75H102.98L103.168 93.7852V93.7148C103.02 93.7148 102.945 93.6016 102.945 93.375L103.098 93.3398C103.059 93.1211 102.984 93.0117 102.875 93.0117L102.945 92.9414L102.91 92.8945V92.6016L103.062 92.4141V92.3438L102.98 92.0508V91.9805C103.035 91.9805 103.086 92.0781 103.133 92.2734L103.238 92.3438C103.309 92.3438 103.344 92.2812 103.344 92.1562H103.461C103.461 92.2422 103.508 92.3281 103.602 92.4141V92.4609L103.754 92.3438V92.4141L103.684 92.6016L103.859 92.7891H103.895L103.789 93.0469V93.082L103.941 93.2344H104.012C104.137 93.2344 104.211 93.1953 104.234 93.1172L104.199 93.0117H104.234L104.305 92.7891L103.895 92.4961V92.4141H103.941L104.422 92.7539C104.539 92.7227 104.598 92.6836 104.598 92.6367L104.562 92.6016C104.633 92.5938 104.684 92.5312 104.715 92.4141L104.527 92.2383H104.562L104.82 92.3789V92.3086L104.75 92.0859H104.785C104.832 92.0859 104.855 92.125 104.855 92.2031H104.938V92.1562L104.891 92.1211V92.0859C104.992 92.0859 105.043 92.0625 105.043 92.0156C105.02 91.9219 104.934 91.7969 104.785 91.6406V91.6055H104.855L105.23 91.9453V91.8633H105.301V92.0508H105.336L105.488 91.8984V91.8633C105.426 91.8633 105.34 91.7891 105.23 91.6406V91.6055H105.266C105.438 91.6992 105.523 91.7852 105.523 91.8633L105.594 91.793L105.629 91.8281H105.711L105.676 91.793V91.6875L105.746 91.6055L105.887 91.6406L105.934 91.4648H106.004V91.6406L106.074 91.7227C106.238 91.4492 106.348 91.3008 106.402 91.2773ZM102.805 91.6875L102.875 91.793V91.8281C102.773 91.7891 102.723 91.7539 102.723 91.7227L102.758 91.6875H102.805ZM102.91 91.8633L102.98 91.9453V91.9805L102.91 91.8984V91.8633ZM109.355 91.8633L109.391 91.8984V91.9453L109.355 91.9805H109.285V91.9453L109.355 91.8633ZM104.422 92.5312H104.457L104.527 92.6016H104.422V92.5312ZM103.133 94.6641H103.168V94.7812H103.062V94.7461L103.133 94.6641ZM108.477 95.332H108.512L108.582 95.4023L108.359 95.5195L108.324 95.4844V95.4492L108.477 95.332ZM113.492 96.5859H113.598V96.6562H113.492V96.5859ZM109.098 96.8086L109.18 96.8789H109.027L109.098 96.8086ZM109.953 97.582V97.6172L110.023 97.6875H110.176L110.246 97.6172V97.5469L109.953 97.582ZM108.547 97.7344H108.699V97.8398H108.652L108.547 97.8047V97.7344ZM110.691 97.9102L110.797 97.957V97.8398H110.762L110.691 97.9102ZM110.574 97.957L110.645 98.0625C110.645 98.1328 110.574 98.168 110.434 98.168V98.3203L110.387 98.5078L110.574 98.3555L110.539 98.25H110.574C110.652 98.25 110.691 98.1641 110.691 97.9922L110.645 97.957H110.574ZM113.047 98.3906H113.082C113.254 98.4766 113.391 98.5898 113.492 98.7305H113.457C113.301 98.7305 113.164 98.6172 113.047 98.3906ZM114.266 98.6836H114.406V98.7656H114.266V98.6836ZM112.496 99.3516H112.566V99.4688H112.496V99.3516ZM112.309 99.5039C112.426 99.5039 112.551 99.6641 112.684 99.9844C112.504 99.9141 112.367 99.7773 112.273 99.5742L112.309 99.5391V99.5039ZM109.355 105.176V105.211L109.25 105.363L109.438 105.434C109.367 105.676 109.242 105.836 109.062 105.914H108.875L108.734 105.809L108.547 105.844L108.652 105.691L108.617 105.469L108.875 105.293L109.215 105.328L109.355 105.176ZM110.176 105.176H110.281L110.352 105.258L110.281 105.328H110.129L110.059 105.258L110.176 105.176ZM109.871 105.258H109.988V105.328H109.801L109.871 105.258ZM109.578 105.328H109.801L109.73 105.398H109.508L109.578 105.328ZM108.957 106.207L108.992 106.254V106.289L108.957 106.324H108.91L108.875 106.289V106.254L108.91 106.207H108.957ZM106.227 110.707L106.262 110.742V110.777C106.262 110.902 106.223 110.977 106.145 111L106.109 110.965V110.93C106.133 110.781 106.172 110.707 106.227 110.707Z" fill="white"/>
<g clip-path="url(#clip0_14_517)">
<rect x="28" y="117" width="85" height="85" fill="#0F104C" fill-opacity="0.5"/>
<path d="M28.2 185.2H44.8V201.8H28.2V185.2Z" stroke="#5F0D16" stroke-width="0.4"/>
<path d="M28.2 168.2H44.8V184.8H28.2V168.2Z" stroke="#5F0D16" stroke-width="0.4"/>
<path d="M28.2 151.2H44.8V167.8H28.2V151.2Z" stroke="#5F0D16" stroke-width="0.4"/>
<path d="M28.2 134.2H44.8V150.8H28.2V134.2Z" stroke="#5F0D16" stroke-width="0.4"/>
<path d="M28.2 117.2H44.8V133.8H28.2V117.2Z" stroke="#5F0D16" stroke-width="0.4"/>
<path d="M45.2 185.2H61.8V201.8H45.2V185.2Z" stroke="#5F0D16" stroke-width="0.4"/>
<path d="M45.2 168.2H61.8V184.8H45.2V168.2Z" fill="white"/>
<path d="M45.2 168.2H61.8V184.8H45.2V168.2Z" stroke="#5F0D16" stroke-width="0.4"/>
<path d="M45.2 151.2H61.8V167.8H45.2V151.2Z" fill="white"/>
<path d="M45.2 151.2H61.8V167.8H45.2V151.2Z" stroke="#5F0D16" stroke-width="0.4"/>
<path d="M45.2 134.2H61.8V150.8H45.2V134.2Z" stroke="#5F0D16" stroke-width="0.4"/>
<path d="M45.2 117.2H61.8V133.8H45.2V117.2Z" stroke="#5F0D16" stroke-width="0.4"/>
<path d="M62.2 185.2H78.8V201.8H62.2V185.2Z" stroke="#5F0D16" stroke-width="0.4"/>
<path d="M62.2 168.2H78.8V184.8H62.2V168.2Z" stroke="#5F0D16" stroke-width="0.4"/>
<path d="M62.2 151.2H78.8V167.8H62.2V151.2Z" fill="#EB1E1E"/>
<path d="M62.2 151.2H78.8V167.8H62.2V151.2Z" stroke="#5F0D16" stroke-width="0.4"/>
<path d="M62.2 134.2H78.8V150.8H62.2V134.2Z" stroke="#5F0D16" stroke-width="0.4"/>
<path d="M62.2 117.2H78.8V133.8H62.2V117.2Z" stroke="#5F0D16" stroke-width="0.4"/>
<path d="M79.2 185.2H95.8V201.8H79.2V185.2Z" stroke="#5F0D16" stroke-width="0.4"/>
<path d="M79.2 168.2H95.8V184.8H79.2V168.2Z" stroke="#5F0D16" stroke-width="0.4"/>
<path d="M79.2 151.2H95.8V167.8H79.2V151.2Z" fill="white"/>
<path d="M79.2 151.2H95.8V167.8H79.2V151.2Z" stroke="#5F0D16" stroke-width="0.4"/>
<path d="M79.2 134.2H95.8V150.8H79.2V134.2Z" fill="white"/>
<path d="M79.2 134.2H95.8V150.8H79.2V134.2Z" stroke="#5F0D16" stroke-width="0.4"/>
<path d="M79.2 117.2H95.8V133.8H79.2V117.2Z" stroke="#5F0D16" stroke-width="0.4"/>
<path d="M96.2 185.2H112.8V201.8H96.2V185.2Z" stroke="#5F0D16" stroke-width="0.4"/>
<path d="M96.2 168.2H112.8V184.8H96.2V168.2Z" stroke="#5F0D16" stroke-width="0.4"/>
<path d="M96.2 151.2H112.8V167.8H96.2V151.2Z" stroke="#5F0D16" stroke-width="0.4"/>
<path d="M96.2 134.2H112.8V150.8H96.2V134.2Z" stroke="#5F0D16" stroke-width="0.4"/>
<path d="M96.2 117.2H112.8V133.8H96.2V117.2Z" stroke="#5F0D16" stroke-width="0.4"/>
</g>
<rect x="28.5" y="117.5" width="84" height="84" stroke="url(#paint1_linear_14_517)"/>
<defs>
<linearGradient id="paint0_linear_14_517" x1="72.5" y1="17" x2="72.5" y2="83" gradientUnits="userSpaceOnUse">
<stop stop-color="#123BD5"/>
<stop offset="1" stop-color="#CD2237"/>
</linearGradient>
<linearGradient id="paint1_linear_14_517" x1="31.7979" y1="120.436" x2="138.59" y2="226.777" gradientUnits="userSpaceOnUse">
<stop stop-color="#B17BFF"/>
<stop offset="1" stop-color="#FF0751"/>
</linearGradient>
<clipPath id="clip0_14_517">
<rect x="28" y="117" width="85" height="85" fill="white"/>
</clipPath>
</defs>
</svg>
