<svg width="142" height="218" viewBox="0 0 142 218" fill="none" xmlns="http://www.w3.org/2000/svg">
<rect x="0.5" y="0.5" width="141" height="217" rx="4.5" fill="#191515"/>
<rect x="0.5" y="0.5" width="141" height="217" rx="4.5" stroke="#B17BFF"/>
<path d="M36.84 87.4C40.89 81.28 44.04 74.98 46.2 68.32C48.45 61.57 49.62 54.46 49.62 46.99L48.81 43.39H49.35C49.35 42.85 49.44 42.31 49.53 41.5C49.62 40.78 49.89 40.33 50.43 40.06C50.79 40.51 51.24 40.78 51.69 40.96C52.14 41.14 52.68 41.23 53.31 41.23L55.65 40.96L57.36 41.77L59.88 40.69V39.79L59.34 38.8H59.7L63.21 39.61L70.23 36.01L70.41 35.38L71.67 35.11L71.94 34.66H72.39L77.43 35.02V35.65C76.98 36.46 76.44 37.09 75.81 37.63C75 38.17 74.28 38.62 73.56 38.98L65.19 42.04L64.65 45.1C65.19 45.46 65.82 45.73 66.63 45.91C67.35 46.09 68.07 46.18 68.79 46.18L71.67 45.64L72.21 44.74C73.47 44.02 74.91 43.66 76.35 43.66C77.88 43.66 79.32 43.66 80.76 43.66L82.74 44.56L83.01 46C80.94 47.53 78.69 48.43 76.17 48.61C73.47 48.88 70.86 48.97 68.25 48.97C67.08 48.79 66 48.52 64.92 48.25C63.75 47.98 62.85 47.26 62.04 46.18L61.05 43.66H60.15L55.65 44.29C54.75 49.96 53.49 55.45 51.6 60.85C49.8 66.25 47.55 71.56 45.21 76.69L42.42 79.75L40.71 83.26L38.91 84.25L36.84 87.4ZM57.18 84.07V82.99C57.99 79.21 58.8 75.25 59.43 71.29C60.06 67.33 60.33 63.28 60.15 59.05L59.7 56.62H60.15L65.46 58.78L66.27 62.38C66.09 66.07 65.46 69.49 64.56 72.73C63.48 76.06 62.31 79.12 61.05 82.18C60.42 82.72 59.79 83.08 59.07 83.17C58.26 83.26 57.63 83.53 57.18 84.07ZM87.96 79.93C85.62 79.93 83.28 79.75 80.94 79.39C78.6 79.12 76.44 78.31 74.64 76.96L72.39 74.26C71.31 71.74 70.77 68.86 70.77 65.8C70.77 62.83 70.41 59.95 69.6 57.25L70.23 52.3L71.67 51.67L73.2 51.4L75.18 53.11V57.25L74.64 69.58L76.08 73.99C77.52 75.34 79.32 75.97 81.21 75.97C83.19 75.97 85.17 75.97 87.24 75.97C88.32 75.52 89.49 75.34 90.75 75.34C91.83 75.34 92.91 74.8 93.9 73.63C94.89 72.55 95.52 71.29 95.97 69.94C96.42 68.68 96.69 67.15 96.69 65.62L97.77 68.41L101.64 71.29C102.27 72.01 102.63 72.64 103.08 73.45C103.44 74.26 103.62 75.25 103.62 76.24L100.56 78.67C98.67 79.21 96.69 79.48 94.71 79.57C92.64 79.66 90.66 79.84 88.59 79.93L88.32 79.75L87.96 79.93ZM55.2 35.65C54.21 35.2 53.31 34.75 52.5 34.21C51.69 33.76 50.7 33.49 49.62 33.49C51.24 32.5 53.04 31.78 54.84 31.33C56.73 30.79 58.53 30.34 60.42 29.98C61.05 28.63 61.23 27.28 61.23 25.66C61.23 24.13 61.23 22.6 61.23 21.07L60.15 18.73H59.7V13.69L60.15 9.54999H60.78L66 14.77C66 15.76 66 16.57 66 17.56C66 18.55 66.27 19.36 66.81 20.08H67.71L68.52 19.81L68.79 19H71.94L76.8 20.08V20.8L76.08 22.33C74.73 23.05 73.38 23.59 71.94 23.95C70.41 24.4 68.79 24.76 67.17 25.03L65.73 24.4L62.94 29.35H63.57C66.27 28.27 69.15 27.46 72.3 26.74C75.36 26.11 78.42 25.48 81.57 25.03C83.64 25.21 85.71 25.39 87.6 25.66C89.58 25.93 91.29 26.74 92.82 28L93.09 29.08C91.74 29.89 90.39 30.43 88.86 30.79C87.42 31.24 85.89 31.42 84.36 31.6V32.05C83.28 31.87 82.29 31.96 81.48 32.23C80.67 32.5 79.77 32.86 78.78 33.31C79.41 32.32 80.04 31.33 80.94 30.61C81.75 29.8 82.2 28.72 82.2 27.46L81.03 27.19C76.53 28.45 72.3 29.89 68.16 31.51C64.02 33.22 59.7 34.66 55.2 35.65Z" fill="url(#paint0_linear_14_276)"/>
<path d="M46.9219 88.8281H47.0625C47.4375 89.0312 47.625 89.1719 47.625 89.25L47.5781 89.2969V89.3438C47.4375 89.2188 47.25 89.1562 47.0156 89.1562L46.9688 89.1094C46.875 89.1094 46.8281 89.0781 46.8281 89.0156V88.9219L46.9219 88.8281ZM45.4453 87.8203L45.5039 87.8672V87.9258L45.4453 87.9727H45.3984L45.3516 87.9258V87.8672L45.3984 87.8203H45.4453ZM45.8086 87.8672C46.3555 88.1953 46.6289 88.4883 46.6289 88.7461L46.8398 89.0039V89.1094C46.7383 89.1953 46.6875 89.2969 46.6875 89.4141H46.6289L46.7344 89.8242L46.6289 89.9297V89.9766C46.7148 90.125 46.8008 90.2109 46.8867 90.2344L47.2969 89.8242L47.25 89.5664V89.4609H47.2969C47.5391 89.5469 47.6602 89.6172 47.6602 89.6719V89.7188L47.5547 89.8711L47.6602 90.0352C47.8008 89.9883 47.9023 89.9023 47.9648 89.7773V89.6719C47.8633 89.6719 47.8125 89.6367 47.8125 89.5664V89.5195H47.918L47.8125 89.3672L48.1758 89.1094H48.2812L48.1758 89.2617L48.2227 89.3086V89.3672C48.582 89.3672 48.8398 89.2461 48.9961 89.0039C49.0508 89.0039 49.1016 89.125 49.1484 89.3672C49.0781 89.3672 48.9922 89.4844 48.8906 89.7188V89.7773L49.043 89.8242C49.043 89.7227 49.0781 89.6719 49.1484 89.6719L49.1016 89.625V89.5664C49.1016 89.5117 49.1875 89.4609 49.3594 89.4141C49.4609 89.5391 49.5117 89.6602 49.5117 89.7773L49.4062 90.0352L49.4531 90.082H49.5117L49.7109 89.8711H49.7695V89.9297C49.6289 90.1016 49.5234 90.1875 49.4531 90.1875V90.2344H49.6172L50.0273 89.9766H50.0742L49.7695 90.3398V90.3867L52.1367 89.7188L52.5938 89.8242L53.1094 89.625L53.4727 89.6719C53.4727 89.5781 53.6758 89.4922 54.082 89.4141L54.0352 89.3672V89.3086L54.082 89.2617H54.1406L54.1875 89.3086L54.3398 89.2617V89.2031L54.082 88.9453L53.9297 89.0039L54.082 88.8516C54.332 89.0859 54.5742 89.2031 54.8086 89.2031V89.3086L54.4453 89.3672V89.4141H54.7031L55.2656 89.2617C55.2734 89.1914 55.375 89.1406 55.5703 89.1094V89.2031H55.4766C55.4766 89.4141 55.4062 89.5195 55.2656 89.5195L55.0078 89.4609L54.9609 89.625C55.2344 89.625 55.3711 89.6914 55.3711 89.8242L55.2656 89.9297H55.1602L55.0078 89.8242L54.75 89.8711V89.9766C54.75 90.0469 54.8008 90.082 54.9023 90.082V90.1289L54.8086 90.2344L54.8555 90.3867C55.1602 90.3398 55.3672 90.2734 55.4766 90.1875V90.2344L55.418 90.4922H55.4766L55.9336 90.4453H56.1445C56.168 90.2734 56.2188 90.1875 56.2969 90.1875L56.3438 90.2344L56.1445 90.5977V90.7031L56.4023 90.7969L56.9648 90.6445V90.75L56.4961 90.9023L56.6016 91.1602L56.5547 91.207H56.4961L56.3438 91.1133C56.2656 91.2852 56.1797 91.3711 56.0859 91.3711V91.418C56.2266 91.4336 56.2969 91.4844 56.2969 91.5703L55.8867 91.7227L55.9336 91.7812V91.8281L55.8281 91.9336H55.6289L55.4766 91.7812C55.0781 91.9844 54.8359 92.1367 54.75 92.2383C54.75 92.3086 54.5117 92.3789 54.0352 92.4492L53.8828 92.6016L53.2617 92.5547C52.6211 92.7891 52.0742 92.9414 51.6211 93.0117H51.3047C50.5 93.0117 49.9375 93.082 49.6172 93.2227V94.0898L49.5586 94.5586L49.6641 95.0625L49.6172 96.6094L49.7109 96.9141V97.3242C49.7109 97.9102 49.6602 98.2031 49.5586 98.2031C49.7461 98.6094 49.8828 99.1055 49.9688 99.6914V101.953C49.6953 103.188 49.5234 104.164 49.4531 104.883L49.5117 105.551C49.5117 105.754 49.375 106.082 49.1016 106.535L48.9961 107.098L49.1484 107.66L49.1016 108.176H48.9961V108.07L48.4336 105.656C48.3164 105.141 48.2305 104.883 48.1758 104.883H48.1172L48.0703 104.941H48.0234L47.8125 104.625L47.8711 104.578L47.707 104.273H47.6133L47.4492 104.367L47.2969 104.32L47.1914 104.426L47.1445 104.367V104.32L47.25 104.215L47.0977 103.957L47.1445 103.805H47.0977L46.8398 103.91L46.8867 104.168L46.4766 104.32L46.4297 104.273V104.215C46.6641 103.77 46.8867 103.547 47.0977 103.547H47.25C47.2656 103.414 47.3164 103.348 47.4023 103.348L47.5547 103.395V103.137H47.6133L47.6602 103.195H47.707C47.707 102.883 47.7617 102.555 47.8711 102.211L47.8125 101.906L47.918 101.391C47.918 101.117 47.8477 100.895 47.707 100.723C47.7617 99.7617 47.832 99.2812 47.918 99.2812V99.1758C47.7617 99.1758 47.625 98.7148 47.5078 97.793C47.2969 97.793 47.1914 97.6914 47.1914 97.4883C47.1914 97.3164 47.2266 97.2305 47.2969 97.2305C47.2188 96.2617 47.0664 95.625 46.8398 95.3203C46.6289 95.3203 46.4414 94.9297 46.2773 94.1484V93.8906L45.8555 94.043L45.0938 93.9375C44.8516 94.1328 43.8086 94.2695 41.9648 94.3477L41.9062 94.3945L41.7539 94.4531L41.1914 94.3477L40.9805 94.3945L40.418 94.3477L40.207 94.3945V94.3008C40.5117 94.2773 40.8047 94.1055 41.0859 93.7852C41.5312 93.6445 41.8906 93.4883 42.1641 93.3164C42.2266 93.3164 42.4492 93.1133 42.832 92.707C43.3242 92.707 43.6836 92.5352 43.9102 92.1914C43.9102 92.1055 44.1133 92.0039 44.5195 91.8867C44.5195 91.7773 44.625 91.7227 44.8359 91.7227L45.4453 91.3125H45.5039L45.6562 91.418L46.1133 91.3125V90.9609L46.1719 90.9023L45.9609 90.4453L46.0195 90.3867H46.0664L46.2773 90.5391L46.4766 90.293L46.3242 90.082V90.0352L46.4766 89.7773L46.4297 89.4609C46.4844 89.4609 46.5508 89.3242 46.6289 89.0508L46.4297 88.793C46.3281 88.793 46.207 88.6211 46.0664 88.2773C45.8164 88.1523 45.6797 88.0508 45.6562 87.9727C45.6562 87.9023 45.707 87.8672 45.8086 87.8672ZM47.0977 88.4414H47.1445L47.25 88.5352L47.1914 88.5938H47.0977V88.4414ZM48.9492 88.5352L48.9961 88.5938V88.6406L48.9492 88.6992H48.8906L48.8438 88.6406V88.5938L48.8906 88.5352H48.9492ZM51.3047 88.793H51.4102V88.9453L50.8477 89.4141V89.3672L51.3047 88.793ZM55.9922 88.793H56.0391V88.8984L55.8867 88.9453V88.8984L55.9922 88.793ZM47.3555 88.9453H47.4023L47.5078 89.0508L47.4492 89.1094H47.4023L47.3555 89.0508V88.9453ZM48.4336 88.9453H48.4805V89.0039L48.375 89.1094H48.2812L48.4336 88.9453ZM53.8828 89.1562H53.9766L54.0352 89.3086H53.9766L53.8828 89.2031V89.1562ZM50.5898 89.5195L50.6367 89.5664V89.625L50.1797 89.9297H50.1328C50.2031 89.7578 50.3555 89.6211 50.5898 89.5195ZM56.9062 89.625L56.9648 89.6719V89.7188L56.9062 89.7773H56.8594L56.8125 89.7188V89.6719L56.8594 89.625H56.9062ZM60.0469 89.7773V89.8242L59.8359 90.0352H59.5898V89.9766C59.6289 89.8438 59.7812 89.7773 60.0469 89.7773ZM55.0078 89.8711L55.0664 89.9297V90.0352H54.9023V89.9766L55.0078 89.8711ZM55.8281 89.9766L55.8867 90.0352V90.082L55.8281 90.1289H55.7812L55.7344 90.082V90.0352L55.7812 89.9766H55.8281ZM59.332 90.082L59.3789 90.1289V90.1875C59.293 90.3516 58.8633 90.5547 58.0898 90.7969C57.582 90.7422 57.3281 90.6914 57.3281 90.6445L57.2695 90.7031H57.0703V90.6445L57.1641 90.5391H57.9375L59.332 90.082ZM55.418 92.0391H55.4766C55.5547 92.0391 55.6211 92.1562 55.6758 92.3906H55.6289L55.418 92.0859V92.0391ZM41.1328 93.0117L41.2969 93.1641L40.9805 93.2695L40.9336 93.2227V93.1641L41.1328 93.0117ZM44.7305 94.7109V94.8164L44.5195 94.9102L44.4258 94.8164L44.7305 94.7109ZM46.4297 104.531L46.4766 104.578C46.4297 104.812 46.3438 104.984 46.2188 105.094H46.1719L46.0664 104.988V104.941C46.1758 104.691 46.2969 104.555 46.4297 104.531ZM60.0703 89.7422L60.1289 89.7891V89.8945L59.9648 90.0586H59.8594C59.9297 89.8477 60 89.7422 60.0703 89.7422ZM60.3281 90.1641L60.3867 90.2109V90.2578L60.3281 90.3164H60.2812L60.2227 90.2578V90.2109L60.2812 90.1641H60.3281ZM58.9219 90.2109L59.3438 90.6328V90.7383L58.8164 90.3164L58.9219 90.2109ZM62.5195 90.3164L62.625 90.4219L62.5781 90.4688H62.5195V90.3164ZM61.3711 90.3633H61.4766V90.4219L61.1719 90.7383C61.2344 90.7383 61.2656 90.7891 61.2656 90.8906L61.1133 91.3008L61.0664 91.2539H61.0078L60.9023 91.3594V91.4062L61.2188 91.6172H61.2656L61.5352 91.5703V91.6758H61.4297V91.7812C61.4297 91.8359 61.6367 91.9727 62.0508 92.1914V92.25L61.9453 92.3438L61.3711 91.9336L61.2188 91.9805V92.0391L61.3242 92.1914H61.2188L60.4336 91.7812V91.7227L60.4922 91.6758V91.6172C60.4062 91.6172 60.3164 91.5664 60.2227 91.4648H60.1289V91.5117C60.1289 91.6289 60.1797 91.75 60.2812 91.875L60.2227 92.3438V92.4023L60.5391 92.1914L60.4922 92.1445V92.0391H60.5977V92.1914L60.6445 92.1445H60.75C60.8203 92.1445 60.8711 92.2461 60.9023 92.4492H61.0078V92.5078L60.9609 92.5547V92.6133L61.0078 92.6602L60.5391 92.8242V92.8711C60.9375 92.8711 61.1992 93.0273 61.3242 93.3398L61.582 93.4453V93.5508H61.5352L61.1719 93.3867V93.4453C61.4141 93.6641 61.5352 93.8203 61.5352 93.9141H61.4766L60.5977 93.2344C60.5977 93.2969 60.4727 93.3477 60.2227 93.3867V93.4453L60.3867 93.6562L59.9648 93.7031V93.7617C60.7305 94.082 61.1133 94.3398 61.1133 94.5352L61.0664 94.5938V94.6406L61.4297 95.0039L61.3711 95.0625H61.3242C61.1055 94.7812 60.9141 94.6406 60.75 94.6406C60.6797 94.5625 60.6445 94.4414 60.6445 94.2773L59.8125 93.7031L59.7539 93.7617V93.8086L59.8125 93.8672V93.9141L59.7539 93.9609C59.8633 93.9609 59.9688 94.0508 60.0703 94.2305L60.0234 94.2773H59.9648C59.9648 94.1523 59.7227 94.0469 59.2383 93.9609C59.5195 94.2812 59.6602 94.5078 59.6602 94.6406C59.6055 94.8203 59.5352 94.9414 59.4492 95.0039L59.4961 95.0625V95.1094C59.4961 95.5859 59.3242 96.2148 58.9805 96.9961L59.2852 98.7656L59.2383 99.1758L59.3906 99.8086V100.066C59.2188 100.488 59.1328 100.887 59.1328 101.262H59.0859L59.2383 101.531V101.73L59.2852 102.516L59.2383 102.879L59.3906 103.453V103.664L59.3438 105.07L59.2383 105.176L59.2852 105.434L58.9805 107.414L58.9219 107.473V107.52L59.0859 107.789L58.9219 108.41H58.8164L58.5117 107.262V106.582L58.1367 105.492L57.7266 104.285V103.09L57.3633 101.73L57.5156 101.367C57.5156 101.094 57.4453 100.695 57.3047 100.172L57.3633 99.9609L56.5781 98.0391L56.625 97.5117L56.4258 96.5156V96.2578L56.5312 96.0469L56.2617 94.8516L56.3203 94.5938L56.0039 94.3359V93.9609C56.0039 93.7109 56.2812 93.418 56.8359 93.082C57.2422 92.8789 57.4883 92.7227 57.5742 92.6133L57.5156 92.5547V92.4492L57.5742 92.5078H57.668C57.8633 92.5078 58.0195 92.4023 58.1367 92.1914L58.4062 92.1445L57.832 91.6172L57.9844 91.5703L57.9375 91.5117V91.4648L58.043 91.3594L58.1367 91.6172L58.1953 91.5703H58.2422L58.3008 91.6172V91.6758L58.1367 91.7227V91.7812L58.4531 91.9805H58.5117L58.6641 91.9336V91.8281C58.5625 91.8281 58.5117 91.793 58.5117 91.7227V91.6758L58.6641 91.4062L58.4062 91.3594V91.2539L58.6641 91.3008H58.8164L58.7695 91.2539V91.207L58.875 91.1016L59.1328 91.1484C59.1328 91.0781 59.2383 91.0273 59.4492 90.9961L59.5547 91.207C59.6328 91.207 59.8047 90.9453 60.0703 90.4219H60.1289L60.1758 90.4688V90.5273C60.0508 90.6289 59.9297 90.8555 59.8125 91.207L59.8594 91.2539H59.918L59.9648 91.207H60.0234L60.0703 91.2539V91.3008L60.2812 91.207V91.2539L60.2227 91.3008V91.3594H60.3281C60.4141 91.3594 60.5547 91.168 60.75 90.7852C60.9375 90.7852 61.1445 90.6445 61.3711 90.3633ZM58.4531 90.4219L58.5586 90.5742L58.4531 90.6797L58.3477 90.5273L58.4531 90.4219ZM62.7305 90.5742H62.7891L62.8828 90.6797V90.7383H62.7305V90.5742ZM61.6406 91.4062L61.7461 91.5117L61.6875 91.5703H61.6406L61.582 91.5117L61.5352 91.5703V91.5117L61.6406 91.4062ZM57.4688 91.5703H57.5156L57.6211 91.6758V91.7812H57.5742L57.4688 91.6758V91.5703ZM62.7891 91.5703H62.9414L63.0469 91.6758L63.0938 91.6172H63.1992L63.3047 91.7227V91.875L63.1992 91.9805H63.1523C63.082 91.9805 63.0469 91.9297 63.0469 91.8281L62.8828 91.9336C62.7109 91.8867 62.625 91.8359 62.625 91.7812V91.7227L62.7891 91.5703ZM63.0469 92.0391L63.1523 92.1445L63.0938 92.1914H63.0469V92.0391ZM62.5195 92.1445H62.625L62.7305 92.25L62.625 92.3438L62.5195 92.25V92.1445ZM60.1289 92.5547V92.6133L60.3281 92.7188V92.5547H60.1289ZM61.3242 92.6602L61.3711 92.7188V92.8242L61.2656 92.918L61.2188 92.8711V92.7656L61.3242 92.6602ZM61.8398 94.4883L61.8984 94.5352V94.5938L61.4766 94.7461C61.5 94.668 61.6211 94.582 61.8398 94.4883ZM60.75 95.0625H60.7969C60.625 95.3047 60.4883 95.4258 60.3867 95.4258V95.5312L60.4336 95.5781V95.6367L60.2227 95.7422H60.1758C60.1211 95.7422 60.0508 95.6367 59.9648 95.4258C60.0117 95.2539 60.0664 95.168 60.1289 95.168H60.1758L60.3281 95.2734L60.75 95.0625ZM61.0078 95.3789V95.5312H60.9609L60.8555 95.4258L60.9023 95.3789H61.0078ZM66.9492 91.5117L68.707 92.0977C69.168 92.0977 69.6797 92.2734 70.2422 92.625L70.9336 93C70.9336 93.25 71.0781 93.375 71.3672 93.375C71.5156 93.5547 71.7266 93.9609 72 94.5938L72.2109 94.6523C72.25 94.5039 72.4297 94.3789 72.75 94.2773L72.8555 94.3828V94.4883C72.8555 94.5586 72.7305 94.5938 72.4805 94.5938V94.6523C72.582 94.6523 72.6719 94.7227 72.75 94.8633L72.6914 94.9102H72.6445L72.375 94.8633L72.3164 94.9102V94.9688L72.8555 95.1797L73.0078 95.1211L73.0664 95.1797L73.1719 95.0742L73.2305 95.1211L73.1719 95.3906L73.5469 95.6602H73.6992C73.6992 95.4492 73.8242 95.3438 74.0742 95.3438L74.1328 95.3906V95.6016C74.0625 95.7422 73.9531 95.8125 73.8047 95.8125L73.6992 95.707C73.5586 95.8711 73.4883 95.9961 73.4883 96.082H73.3828C73.1484 96.082 72.9727 95.8867 72.8555 95.4961L72.5859 95.4492L72.3164 95.4961C71.8242 95.3398 71.5781 95.1797 71.5781 95.0156L71.625 94.9688L71.4141 94.8047C71.3203 94.875 71.1602 94.9102 70.9336 94.9102L70.9922 94.9688V95.0156L70.8867 95.1211C70.8867 95.2539 71.0977 95.3438 71.5195 95.3906C71.7148 95.8203 71.9648 96.0352 72.2695 96.0352L72.4219 96.1875V96.2461L72.1641 96.5039H72.1055C72.0039 96.4023 71.8086 96.3164 71.5195 96.2461V96.3516L71.625 96.5039H71.5195L71.3672 96.3984H71.3086C71.3086 96.5078 71.2734 96.5625 71.2031 96.5625C71.2031 96.5078 71.0781 96.4375 70.8281 96.3516L70.6758 96.5625L70.5117 96.457C70.5117 96.6445 70.3711 96.7695 70.0898 96.832V96.7266H69.8203L69.6562 96.5625L69.8789 96.3516L69.8203 96.293L69.8789 96.0352L69.7734 95.918H69.7148L69.3984 96.0352V96.1406L69.5508 96.3516V96.457C69.5508 96.5273 69.4805 96.5625 69.3398 96.5625V96.6094L69.5039 96.9844H69.4453L69.293 96.8789H69.2344L69.3398 97.043V97.0898C69.3398 97.1602 69.2539 97.1953 69.082 97.1953V97.3008C68.7227 97.2773 68.543 97.1914 68.543 97.043C68.543 96.9023 68.6484 96.832 68.8594 96.832V96.7734L68.918 96.1406L68.6484 95.9766C68.5078 96.1328 68.4375 96.2578 68.4375 96.3516L68.6484 96.5039V96.6094L68.6016 96.668V96.7266L68.543 96.668H68.4375C68.3359 97.0586 68.2461 97.2891 68.168 97.3594C68.0273 97.3594 67.9414 97.2188 67.9102 96.9375L67.8516 96.8789H67.8047L67.3242 97.1484H67.1133C67.1133 97.0625 67.2539 96.9727 67.5352 96.8789C67.5352 96.668 67.6055 96.5625 67.7461 96.5625V96.457C67.5352 96.457 67.3945 96.3867 67.3242 96.2461L66.4219 96.0352H65.9883C65.8086 96.0352 65.5977 96.1562 65.3555 96.3984H65.2969V96.668L64.5 97.418L64.5586 97.4648L63.9727 97.6758V97.8398L64.1836 97.8867C64.1133 98.1055 64.043 98.2148 63.9727 98.2148L64.0195 98.2617V98.3672L63.8672 98.2617H63.4922C63.4922 98.3398 63.3164 98.5547 62.9648 98.9062L63.1172 99.0586L62.8008 99.2227L62.9648 99.5391C62.7852 99.4375 62.6953 99.332 62.6953 99.2227C62.6406 99.2227 62.5508 99.3828 62.4258 99.7031C62.3008 99.7891 62.1406 100 61.9453 100.336V100.5L62.0625 100.652V100.922C61.9453 101.219 61.6758 101.66 61.2539 102.246V102.363C61.4727 102.363 61.582 102.484 61.582 102.727L62.8594 103.266L64.7109 104.004C65.1094 104.004 65.3789 104.148 65.5195 104.438L65.9414 104.648H66.2109C66.3281 104.648 66.4492 104.594 66.5742 104.484H66.9492L67.1133 104.59H67.3242L67.3711 104.543H67.4297L67.3711 104.484V104.438C67.8008 104.211 68.0156 104.066 68.0156 104.004L68.2266 103.477L67.8516 103.16C67.4922 103.16 67.0859 103.355 66.6328 103.746L65.8359 104.109L65.7773 104.062V104.004L66.2578 103.477C66.0781 103.477 65.9883 103.422 65.9883 103.312L66.1523 103.266L66.5742 103.312C66.5742 103.203 66.9492 102.848 67.6992 102.246V102.199H67.4766L67.582 102.094L67.7461 102.141C68.0977 101.898 68.2734 101.617 68.2734 101.297L68.332 101.238H68.3906L68.4375 101.449C68.6094 101.309 68.9453 101.203 69.4453 101.133C70.0312 100.766 70.3711 100.5 70.4648 100.336C70.582 100.312 70.6875 100.207 70.7812 100.02V99.9609L70.7227 99.9141V99.8555C70.9727 99.5742 71.1328 99.4336 71.2031 99.4336C71.4141 99.4336 71.6289 99.5039 71.8477 99.6445C71.8477 99.582 72.2188 99.4219 72.9609 99.1641L73.0078 99.1172L73.1133 99.2227V99.3281L72.75 99.4922V99.4336L72.5391 99.5977L72.6445 99.7031L72.6914 99.6445H72.75C72.75 99.8242 72.8711 99.9492 73.1133 100.02V100.066C73.043 100.285 72.9727 100.395 72.9023 100.395H72.7969C72.7422 100.395 72.6914 100.27 72.6445 100.02H72.5859C72.5234 100.02 72.4688 100.109 72.4219 100.289L72.6445 100.5L72.5859 100.547C72.6953 100.547 72.75 100.617 72.75 100.758L72.6914 100.922L72.7969 101.027V101.449C72.7969 101.52 72.6914 101.574 72.4805 101.613C72.4102 101.402 72.3398 101.297 72.2695 101.297L72.1055 101.613C72.1758 101.613 72.2109 101.719 72.2109 101.93L72.375 101.988V102.363L72 102.832H71.9531C71.8203 102.59 71.6602 102.469 71.4727 102.469L71.0977 102.832L71.1562 102.996H71.0977C70.918 102.996 70.8281 103.086 70.8281 103.266C70.8281 103.406 71.043 103.492 71.4727 103.523L71.7305 103.418V103.523C71.6211 103.523 71.5 103.598 71.3672 103.746H71.2031L71.0391 103.629L71.0977 103.898V103.957H71.0391L70.8867 103.898V104.062C71.1133 104.062 71.2383 104.113 71.2617 104.215V104.32H71.1562V104.379L71.4727 104.754H71.4141L71.0391 104.438C70.9688 104.438 70.9336 104.383 70.9336 104.273H70.8867L70.8281 104.438L70.8867 104.484V104.543C70.8867 104.613 70.7617 104.664 70.5117 104.695L70.3477 105.012L70.5117 105.176C70.5117 105.246 70.4219 105.281 70.2422 105.281L70.3008 105.34V105.492C70.082 105.492 69.9219 105.812 69.8203 106.453L69.9844 106.512V106.617L69.8789 106.828L69.9258 107.25L69.8789 107.309H69.8203L69.7148 107.145L69.7734 107.086V107.039L69.6562 106.723C69.5938 106.723 69.3633 106.953 68.9648 107.414C68.8867 107.484 68.7656 107.52 68.6016 107.52V107.625H68.543L68.6016 107.672V107.73L68.2734 108.152C68.3359 108.527 68.4102 108.758 68.4961 108.844V108.996L68.3906 109.102C68.3125 109.055 68.2578 108.754 68.2266 108.199L68.168 108L68.1211 107.941H67.8047V108.152H67.6992C67.6992 107.926 67.4688 107.766 67.0078 107.672C66.5078 107.672 65.4766 107.195 63.9141 106.242C63.7969 106.242 63.2305 105.887 62.2148 105.176C61.8008 105.035 61.4102 104.824 61.043 104.543C60.6602 104.543 60.168 103.957 59.5664 102.785L59.4609 102.246V101.449L59.2383 100.758V100.5L59.6719 99.2227L59.7188 99.1641V98.5781L60.7266 97.1953L61.1484 96.0352L61.3711 95.8711H61.5234L61.6875 95.9766H61.7344C61.8359 95.625 61.9609 95.4492 62.1094 95.4492L62.168 95.4961H62.2148C62.5117 95.3555 62.707 95.1953 62.8008 95.0156C62.6133 94.8203 62.5078 94.5742 62.4844 94.2773L62.5312 94.2188H62.5898L62.8008 94.2773L62.8594 94.2188H62.9062L63.2227 94.3242L63.4922 94.1133L63.3867 94.0078L63.4453 93.9609V93.9023L63.2812 93.7383V93.6914C63.6484 93.3711 63.9844 93.2109 64.2891 93.2109C64.2891 93.1016 64.5742 92.9062 65.1445 92.625C65.1445 92.5156 65.3047 92.375 65.625 92.2031C65.625 92.0078 65.9609 91.8281 66.6328 91.6641C66.6641 91.5625 66.7695 91.5117 66.9492 91.5117ZM62.8594 92.9414H62.9648L63.0703 93.0469L62.9062 93.1523L62.8594 93.1055V92.9414ZM62.2734 93.7969H62.3203L62.4258 93.9023L62.168 94.0078L62.1094 93.9609V93.9023L62.2734 93.7969ZM73.1133 94.2188L73.1719 94.2773V94.3828H73.0078V94.3242L73.1133 94.2188ZM62.1094 94.2773C62.2188 94.2773 62.2734 94.3477 62.2734 94.4883C62.2344 94.6992 62.1797 94.8047 62.1094 94.8047H62.0039C61.9336 94.8047 61.8984 94.7148 61.8984 94.5352H61.793V94.4297C61.8242 94.3281 61.9297 94.2773 62.1094 94.2773ZM74.1328 94.5938H74.2852L74.3906 94.6992L74.2383 94.8633L74.0273 94.6992L74.1328 94.5938ZM61.1484 95.0156H61.207L61.3125 95.1211L61.2539 95.1797H61.1484V95.0156ZM74.1797 95.8711V95.918L74.2383 95.8711H74.2852L74.4492 96.0352L74.2852 96.1875H74.0273L73.9219 96.082V96.0352C73.9219 95.9492 74.0078 95.8945 74.1797 95.8711ZM71.2031 96.6094H71.3086L71.3672 96.8789C71.2812 96.8789 71.2266 96.7891 71.2031 96.6094ZM70.0898 96.8789V97.043H69.9844V96.9844L70.0898 96.8789ZM72.1055 96.9375H72.2109L72.3164 97.043L72.2109 97.1484L72.1055 96.9844V96.9375ZM68.332 97.3594L68.707 97.7344L68.7539 97.6758H68.9648C68.9648 97.7461 68.8945 97.7812 68.7539 97.7812V97.8398C68.9727 97.8711 69.082 97.9219 69.082 97.9922L68.918 98.0508L69.082 98.2617V98.3203L68.9648 98.4258C68.543 97.9102 68.332 97.5742 68.332 97.418V97.3594ZM64.7109 97.4648H64.8281L65.0859 97.5234V97.6289H65.0391C64.8516 97.6289 64.7422 97.5742 64.7109 97.4648ZM69.9844 97.4648L70.1367 97.6289V97.7812L70.0312 97.8867H69.8789L69.6562 97.6758V97.6289C69.6953 97.5195 69.8047 97.4648 69.9844 97.4648ZM74.1328 97.5234H74.1797L74.3438 97.5703V97.6758H74.2383L74.1328 97.5703V97.5234ZM64.9805 98.2617H65.0391L65.1445 98.3672L64.9805 98.4727H64.875V98.3672L64.9805 98.2617ZM66.0938 98.3203L66.2109 98.4258L65.1445 98.8008V98.6836L66.0938 98.3203ZM64.0195 98.3672C64.168 98.4375 64.2422 98.543 64.2422 98.6836L64.0195 98.4727V98.3672ZM71.6836 98.3672L71.7891 98.4727V98.7422L72.0586 98.6836L72.1641 98.8008C72.1641 98.6914 72.1992 98.6367 72.2695 98.6367L72.3164 98.6836H72.375L72.5859 98.4727V98.5312C72.4844 98.7422 72.3594 98.8477 72.2109 98.8477V98.9062C72.3203 98.9062 72.375 98.9414 72.375 99.0117V99.0586C72.2422 99.3086 72.1016 99.4336 71.9531 99.4336C71.5625 99.3398 71.3672 99.2344 71.3672 99.1172C71.4297 99.1172 71.4805 99.0273 71.5195 98.8477C71.6289 98.8477 71.6836 98.8125 71.6836 98.7422L71.5195 98.4727L71.6836 98.3672ZM73.5938 98.4727H73.6992L73.8047 98.5781V98.6367L73.6523 98.8008C73.5117 98.7461 73.4414 98.6914 73.4414 98.6367L73.5938 98.4727ZM69.1289 98.5312C69.2617 98.5312 69.3867 98.6367 69.5039 98.8477V98.9531L69.3984 99.0586C69.1484 99.0586 69.0234 98.8984 69.0234 98.5781L69.082 98.5312H69.1289ZM64.5586 98.6367L64.6641 98.7422L64.5 98.8008V98.9062L64.6055 99.0117L64.875 98.9531V99.0117L64.6641 99.375L64.7109 99.4336V99.5391C64.6406 99.5391 64.6055 99.5938 64.6055 99.7031L64.2891 99.9609L63.8086 99.75L63.7031 99.8555H63.6562V99.8086L63.7031 99.75V99.7031C63.5703 99.5625 63.4648 99.4922 63.3867 99.4922L63.4453 99.4336V99.3281H63.2812C63.3906 99.1172 63.5508 99.0117 63.7617 99.0117L63.8672 99.1172H64.0195L64.1367 99.0117C64.0273 99.0117 63.9727 98.9766 63.9727 98.9062V98.8008H64.1367L64.1836 98.8477H64.2422V98.6836L64.3945 98.8008L64.5586 98.6367ZM70.7812 99.3281H70.9336L70.6172 99.5977L70.4648 99.4336L70.7812 99.3281ZM63.0117 99.5977L63.1172 99.7031V99.75L63.0117 99.6445V99.5977ZM73.3359 99.7031L73.3828 99.75V99.8086L73.2773 99.9141L73.1719 99.8086L73.3359 99.7031ZM66.7383 99.8555H67.0078L67.1133 99.9609V100.02L67.0078 100.125H66.9023L66.7383 99.9609V99.8555ZM73.0664 100.652H73.1719L73.2773 100.758L73.1719 100.875H73.0664L72.9609 100.758L73.0664 100.652ZM73.2773 102.094H73.3359L73.1719 102.246L73.2305 102.305V102.41L73.1719 102.469L73.2305 102.516V102.574C73.1914 102.676 73.082 102.727 72.9023 102.727H72.8555L72.6914 102.574V102.41L72.75 102.363L72.6914 102.305V102.199L73.0078 102.141L73.1719 102.199L73.2773 102.094ZM74.1797 102.832H74.2383C74.3086 102.832 74.3438 102.887 74.3438 102.996L74.3906 103.055H74.4492L74.5547 102.938V102.996L74.4492 103.16V103.207L74.4961 103.266V103.312L74.4492 103.371H74.3906L74.0742 103.266C74.1211 103.086 74.1758 102.996 74.2383 102.996L74.1797 102.938V102.832ZM71.7891 103.055H71.8477L71.9531 103.16L71.7891 103.266L71.6836 103.16L71.7891 103.055ZM73.3828 103.055H73.5469L73.6523 103.16L73.5938 103.207H73.4883L73.3828 103.102V103.055ZM71.2617 103.102L71.3672 103.207L71.3086 103.266H71.2617L71.1562 103.16L71.2031 103.102H71.2617ZM72.6914 103.312L72.7969 103.477V103.582L72.6914 103.688H72.4219C72.3438 103.578 72.168 103.523 71.8945 103.523L71.8477 103.477V103.418L71.8945 103.371H71.9531L72.4219 103.418L72.6914 103.312ZM73.0664 104.004H73.1719V104.168L73.0664 104.062V104.004ZM71.625 104.859H71.6836L72.6914 105.703L72.6445 105.762H72.5391L71.625 104.859ZM72.9023 105.867H72.9609C73.1016 105.922 73.1719 105.977 73.1719 106.031V106.078H73.1133L72.9023 105.867ZM70.6758 106.512L70.7227 106.559H70.7812L70.9922 106.512L71.0391 106.664L71.2031 106.559H71.2617L71.3672 106.664L70.7812 106.934C70.7812 106.863 70.7266 106.828 70.6172 106.828L70.5703 106.77V106.617L70.6758 106.512ZM72.75 106.512L72.7969 106.559V106.617L72.75 106.664H72.6914L72.6445 106.617V106.559L72.6914 106.512H72.75ZM72.1055 106.559L72.2109 106.664L72.1055 106.77L72 106.617L72.0586 106.559H72.1055ZM71.5781 107.039H71.7891L72 107.461L71.7891 107.625H71.6836L71.4141 107.52V107.203L71.5781 107.039ZM71.3086 107.625H71.3672L71.4727 107.73V107.777L71.3672 107.895L71.2031 107.73L71.3086 107.625ZM70.3008 108C70.4414 108.047 70.5117 108.098 70.5117 108.152L70.4062 108.258H70.3477L70.1367 108.047L70.3008 108ZM68.6016 109.371L68.7539 109.535V109.688H68.707L68.4961 109.477L68.6016 109.371ZM78.5273 91.9102H78.6211L78.7266 92.2617H78.8672V92.1562H78.9258L78.9727 92.2148H79.0195L79.125 92.1094L79.1719 92.1562L79.2773 92.0625H79.3242L79.2773 92.1094L79.3242 92.3086H79.3711L79.5234 92.2148L79.4766 92.4609V92.5078L79.5234 92.4609H79.6172C79.6172 92.6641 79.7695 92.7656 80.0742 92.7656C80.3633 92.2266 80.6289 91.957 80.8711 91.957L81.1758 92.0625L81.4688 92.0156H81.5742L81.8203 92.2617V92.3086L81.4219 92.5547L81.375 92.8125L81.5273 92.9062L81.8789 92.7656C81.8789 92.9297 81.9102 93.0117 81.9727 93.0117L81.7734 93.4102L81.8203 93.457V93.6562L81.668 93.8555L81.7266 93.9141V93.9609C81.4922 93.9609 81.375 94.0625 81.375 94.2656L80.7188 94.5586V94.6055H80.625C80.625 94.4727 80.5742 94.4062 80.4727 94.4062C80.2852 94.5391 80.1172 94.6055 79.9688 94.6055L79.3711 94.2656V94.207H79.0781L78.8672 94.5117H78.8203V94.4648L78.9258 94.1602C78.6367 94.1602 78.1836 94.0117 77.5664 93.7148L76.9219 93.5625H76.875L76.3711 93.7148C76.1758 93.6133 75.9766 93.5625 75.7734 93.5625C75.5703 93.8203 75.4688 94.0195 75.4688 94.1602H75.4219L75.3164 94.0547L75.2695 94.1133H75.1758C74.9414 94.1133 74.8242 94.0781 74.8242 94.0078C74.668 94.0078 74.4688 94.2578 74.2266 94.7578L74.3203 95.3555V95.7656L74.2266 95.9062V96.0117C74.2891 96.0742 74.3203 96.2227 74.3203 96.457C74.375 96.457 74.5742 96.8906 74.918 97.7578C74.9727 97.7578 75.0742 97.9258 75.2227 98.2617C75.3633 98.2617 75.4961 98.4102 75.6211 98.707V98.9062L75.8672 99.9609L75.8203 100.113H75.9258C76.6758 99.5898 77.125 99.2383 77.2734 99.0586C77.4297 99.0586 77.5625 98.9766 77.6719 98.8125C77.0078 98.5703 76.5586 98.3203 76.3242 98.0625H76.3711C76.6992 98.2734 77.0664 98.457 77.4727 98.6133L77.7773 98.5664H77.8242C77.8867 98.5664 77.918 98.6133 77.918 98.707H77.9766C78.0625 98.4727 78.1445 98.3555 78.2227 98.3555H78.3164L78.5273 98.6133L78.7734 98.6602L78.8203 98.6133H78.8672L79.2773 98.6602L79.3242 98.6133V98.5664L79.6758 98.6133C80.1758 98.4102 80.5234 98.3086 80.7188 98.3086C80.7188 98.1914 80.9023 98.1094 81.2695 98.0625L81.375 98.1562L79.8281 99.1641L79.9688 99.4102L79.9219 99.5625L79.9688 99.6094V99.6562C79.7891 99.8672 79.6406 100.117 79.5234 100.406L79.5703 100.465H79.6172L79.5703 100.816L79.6172 101.062C79.6172 101.352 79.5039 101.617 79.2773 101.859C79.1992 101.859 79.1484 101.742 79.125 101.508C79.1797 101.508 79.2461 101.391 79.3242 101.156L79.2773 100.957H79.3242L79.2773 100.91V100.605C79.1289 100.605 78.9922 100.559 78.8672 100.465L78.5742 100.816C78.4336 100.77 78.332 100.684 78.2695 100.559L78.4688 100.465L78.375 100.207H78.1758C78.0586 100.207 77.9414 100.16 77.8242 100.066H77.5195L77.3672 100.16H77.168L77.1211 100.113C76.4883 100.316 76.1719 100.465 76.1719 100.559L76.0195 101.062L76.125 101.508L76.0664 101.965C76.2773 102.293 76.4141 102.457 76.4766 102.457C76.5703 102.457 76.6172 102.391 76.6172 102.258H76.7695V101.965H76.875C76.875 102.129 76.9062 102.211 76.9688 102.211L77.0273 102.164L77.168 102.211L77.2266 102.164H77.2734L77.4258 102.211V102.059H77.5195C77.5195 102.16 77.5547 102.211 77.625 102.211L77.6719 102.164H77.7188L77.7773 102.211V102.105H77.8711V102.211L77.918 102.164L78.2695 102.316L78.4219 102.258V102.316L78.375 102.363V102.41H78.5273V102.316H78.6211L78.5742 102.562H78.6211L78.5742 102.609V102.656L78.668 102.961H78.7266L79.125 102.855L79.1719 102.914L79.418 102.715H79.7695L79.9688 102.656C80.4062 102.766 80.707 102.949 80.8711 103.207H80.918L81.1172 103.16L81.3281 103.266L82.125 103.008L82.5234 103.16L82.8281 102.961H83.4258L83.5781 102.855H84.1289C84.6055 102.723 85.0039 102.656 85.3242 102.656H85.3711C85.5742 102.594 85.6758 102.48 85.6758 102.316L85.7227 102.258H85.7695C85.7695 102.32 85.8711 102.406 86.0742 102.516H86.2734L86.4258 102.41H86.8242C87.4023 102.27 87.8516 102.121 88.1719 101.965H88.6289L88.7695 101.859L88.875 101.965V102.012C88.875 102.098 88.4102 102.266 87.4805 102.516L86.3789 103.16C85.0742 103.27 84.4219 103.418 84.4219 103.605C83.9062 103.715 83.2578 104.219 82.4766 105.117C82.4766 105.477 82.1758 105.656 81.5742 105.656C81.3477 105.961 81.0625 106.113 80.7188 106.113H79.5703C79.3906 105.98 79.207 105.914 79.0195 105.914L78.7734 105.961C78.7734 105.805 78.3711 105.656 77.5664 105.516H77.4727L76.9688 105.867V105.914H77.2266L77.5195 105.809C77.9414 105.809 78.3242 105.941 78.668 106.207V106.617L78.375 107.508L77.7188 107.613V107.859L77.5664 108L76.875 107.906H76.5234C76.375 107.766 76.1562 107.633 75.8672 107.508C75.8281 107.422 75.6797 107.305 75.4219 107.156C75.2969 106.938 75.1289 106.789 74.918 106.711C74.7461 106.367 74.582 106.117 74.4258 105.961V105.867C74.5586 105.727 74.625 105.359 74.625 104.766L74.918 104.414H75.1172L75.375 104.613H75.4219V104.566L74.625 103.863C74.5859 103.176 74.4531 102.293 74.2266 101.215L74.2734 99.2578C74.1406 99.2578 74.0078 99.0078 73.875 98.5078V97.9102C73.6797 97.4961 73.4805 96.9297 73.2773 96.2109L73.125 96.0586L73.2305 95.9062C73.1367 95.9062 73.0039 95.7891 72.832 95.5547C72.7305 95.5547 72.6445 95.4883 72.5742 95.3555L72.7266 95.0156L72.6211 94.8047L72.6797 94.6055L72.4219 94.2656L72.5742 94.1133C72.7461 94.1133 72.8789 94.3438 72.9727 94.8047L73.1719 94.9102L73.3242 94.7109L73.2773 94.6641V94.6055L73.4297 94.3594L73.3242 94.2656V94.0078L73.2773 93.2578H73.3242C73.3086 92.9141 73.0078 92.5156 72.4219 92.0625L72.4805 92.0156C72.668 92.0156 72.9648 92.2969 73.3711 92.8594C73.4883 92.8594 73.6211 93.0273 73.7695 93.3633C73.8867 93.3633 74.0195 93.6797 74.168 94.3125H74.2266C74.3125 93.875 74.4453 93.6562 74.625 93.6562L74.8242 93.7617C75.0117 93.7617 75.2422 93.5781 75.5156 93.2109L75.7734 93.1641L75.9727 93.2109C76.457 93.0547 77.0586 92.9375 77.7773 92.8594C77.8086 92.7578 77.9062 92.707 78.0703 92.707C78.2031 92.7461 78.2695 92.8125 78.2695 92.9062H78.375L78.4688 92.6133H78.3164V92.5547L78.375 92.5078L78.3164 92.4609V92.3555H78.4219V92.3086C78.2891 92.3086 78.2227 92.2578 78.2227 92.1562H78.2695L78.5742 92.2148L78.5273 91.957V91.9102ZM75.7266 92.1562V92.2148L75.668 92.3555H75.7266L75.8203 92.4609V92.5547H75.7266V92.6602L75.8672 92.707L76.0664 92.6602V92.7656H75.7266L75.668 92.707L75.375 92.8125V92.7656C75.375 92.5938 75.3086 92.5078 75.1758 92.5078V92.4141C75.3555 92.4141 75.5391 92.3281 75.7266 92.1562ZM76.7227 92.5547L76.8164 92.6602C76.8008 92.7617 76.668 92.8125 76.418 92.8125L76.3242 92.707L76.2773 92.7656H76.1719V92.6602H76.5703L76.7227 92.5547ZM72.7734 93.4102H72.8789C72.957 93.4102 73.0078 93.4922 73.0312 93.6562L72.7266 93.8555H72.6211L72.5273 93.7617V93.6562L72.7734 93.4102ZM72.1758 93.7617L72.2227 93.8086V93.8555L72.1758 93.9141H72.1289L72.0703 93.8555V93.8086L72.1289 93.7617H72.1758ZM75.7734 97.8164C75.8359 97.8164 75.8672 97.8633 75.8672 97.957L75.8203 98.2148H75.7734L75.668 98.1094V97.9102L75.7734 97.8164ZM82.2773 97.8633H82.3711L82.6289 97.9102V98.0156H82.5703C82.3984 98.0156 82.3008 97.9648 82.2773 97.8633ZM75.7266 98.3086H75.8203V98.5078L75.7266 98.4141V98.3086ZM77.168 101.156H77.2734V101.309H77.168V101.156ZM86.7188 101.461L86.7773 101.508V101.566L86.7188 101.613H86.6719L86.625 101.566V101.508L86.6719 101.461H86.7188ZM85.9219 101.766L86.0273 101.859V101.965L85.8281 102.258H85.7695V102.059C85.793 101.863 85.8438 101.766 85.9219 101.766ZM83.8242 102.105L83.8711 102.164H84.0703L84.1289 102.105H84.1758V102.211L83.9766 102.516H83.8711C83.8086 102.516 83.7773 102.465 83.7773 102.363L83.8242 102.105ZM76.1719 102.316V102.363L76.2188 102.562C76.2188 102.664 76.1523 102.715 76.0195 102.715V102.809H76.0664L76.3711 102.609L76.2188 102.316H76.1719ZM79.2188 107.414H79.2773C79.3711 107.445 79.418 107.543 79.418 107.707L79.3711 107.766H79.2188L79.0781 107.613V107.566L79.2188 107.414ZM78.8203 107.508C78.8984 107.508 78.9492 107.594 78.9727 107.766L78.8203 107.859H78.7266C78.625 107.828 78.5742 107.73 78.5742 107.566L78.6211 107.508H78.8203ZM79.5234 107.707L79.5703 107.766V107.812L79.5234 107.859H79.4766L79.418 107.812V107.766L79.4766 107.707H79.5234ZM79.2188 107.812H79.2773C79.3477 107.812 79.3945 107.895 79.418 108.059L79.2773 108.152H79.2188L79.0781 108L79.2188 107.812ZM78.7266 108.059L78.7734 108.105V108.152L78.7266 108.211H78.6211V108.152L78.7266 108.059ZM78.4219 108.609H78.4688L78.5742 108.703L78.5273 108.762H78.4219V108.609ZM87.0117 91.2773H87.0469L87.1172 91.3477L87.082 91.3828H87.0469L87.0117 91.3477V91.2773ZM88.4062 91.2773V91.3125L88.1484 91.7578C88.25 91.7578 88.3008 91.793 88.3008 91.8633L88.5234 91.7578V91.793L88.4531 91.8984V91.9805L88.5938 92.0156L88.7812 91.8281V91.8633L88.6758 92.0156H88.7461V92.0508L88.7109 92.1562C88.7656 92.1562 88.8984 92.0586 89.1094 91.8633V91.8984L88.8867 92.2734L89.0742 92.3086C89.0742 92.2539 89.1367 92.2188 89.2617 92.2031L89.1445 92.3438V92.4141H89.2266V92.4609L89.1445 92.5664C89.2461 92.5664 89.2969 92.5898 89.2969 92.6367L89.2617 92.6836L89.4023 92.7539C89.6758 92.7539 89.8516 92.5078 89.9297 92.0156C90.1719 91.8828 90.293 91.7969 90.293 91.7578H90.3633L90.3281 91.793V91.8633L90.6211 91.9453L91.3945 91.3477H91.4414L91.5117 91.4297V91.5L91.3242 91.5352V91.5L90.7734 91.9453L90.9141 92.2383C90.9141 92.3711 90.793 92.5195 90.5508 92.6836H90.4805V92.7539C90.9023 93.1445 91.2695 93.3398 91.582 93.3398C91.582 93.4023 91.7656 93.5391 92.1328 93.75C92.1328 93.9297 92.418 94.0391 92.9883 94.0781C93.1836 94.1953 93.3672 94.3789 93.5391 94.6289C93.7266 94.6289 93.9219 94.9375 94.125 95.5547C94.125 95.6797 94.2617 95.9023 94.5352 96.2227L94.6055 96.7734H94.6406C94.6953 96.7734 94.7344 96.6602 94.7578 96.4336L94.9805 96.2227L95.0156 96.2578H95.2031L95.3789 96.2227V96.293C95.3086 96.293 95.2734 96.3398 95.2734 96.4336L95.3438 96.5156V96.5508C95.3438 96.5977 95.2812 96.6211 95.1562 96.6211C95.1172 96.6992 95.0312 96.7383 94.8984 96.7383L94.8633 96.9141C94.8633 96.9922 94.9023 97.0312 94.9805 97.0312L95.0156 97.0664V97.1016L94.8281 97.2188V97.2539C94.8906 97.4414 95.1719 97.6602 95.6719 97.9102V97.9922H95.6367C95.4648 97.9922 95.1953 97.8203 94.8281 97.4766C94.6328 97.4766 94.5352 97.6094 94.5352 97.875L94.5703 98.0273H94.4648V98.1328H94.5703V98.168C94.5703 98.2227 94.5352 98.25 94.4648 98.25V98.2852L94.5 98.4258C94.3984 98.5742 94.3477 98.6875 94.3477 98.7656L94.4648 98.8711V98.9414H94.418L94.2773 98.8711L94.2422 99.0586L94.2773 99.1641L94.2422 99.1289H94.207L94.1602 99.1641V99.1992L94.207 99.3516H94.1602L94.125 99.3164H94.0898L93.7969 99.9023L93.2109 100.5C93.2109 100.578 93.0508 100.809 92.7305 101.191V101.273H92.6953L92.7305 101.309V101.496C92.5898 101.738 92.4648 101.859 92.3555 101.859V101.895C92.9727 101.895 93.3789 102.008 93.5742 102.234C94.2383 102.773 94.668 103.25 94.8633 103.664C95.0586 103.828 95.2188 104.113 95.3438 104.52L95.8594 105.211L95.8242 105.328C95.9336 105.602 96.0195 105.762 96.082 105.809L96.5625 106.172L97.0078 106.395L97.1953 106.43L97.3711 106.289H97.4062C97.5 106.289 97.5625 106.422 97.5938 106.688C97.5469 106.703 97.5 106.766 97.4531 106.875L97.1953 106.805L97.0078 106.84L96.8203 106.77C97.1406 107.09 97.6562 107.699 98.3672 108.598L98.7422 108.715L98.7773 108.68V108.75C98.6992 108.75 98.6602 108.773 98.6602 108.82C98.7617 108.992 99.0938 109.277 99.6562 109.676C99.6562 109.746 99.707 109.781 99.8086 109.781V109.852H99.7734C99.3516 109.516 99.0312 109.309 98.8125 109.23C98.8125 109.191 98.6914 109.082 98.4492 108.902C98.1602 108.621 97.8867 108.41 97.6289 108.27C97.1211 107.941 96.7773 107.648 96.5977 107.391C96.207 107.156 96.0117 106.984 96.0117 106.875C95.9102 106.875 95.6641 106.738 95.2734 106.465C95.1328 106.465 94.9219 106.281 94.6406 105.914C94.6406 105.812 94.3086 105.492 93.6445 104.953C93.4102 104.727 93.1055 104.543 92.7305 104.402L91.957 103.781C91.8867 103.656 91.6758 103.531 91.3242 103.406L91.2188 103.266V103.219H91.2539L91.4414 103.266L91.4766 103.219C91.3984 103.023 91.1992 102.926 90.8789 102.926L90.7734 102.855L90.6211 102.891C90.2305 102.648 90.0352 102.453 90.0352 102.305C90.0352 102.234 89.9102 102.012 89.6602 101.637V101.566L89.7422 101.496H89.8477L89.9297 101.566V101.602L89.8828 101.637L90.1875 102.27L90.1406 102.375L90.1875 102.41H90.2227C90.7617 102.066 91.0312 101.746 91.0312 101.449C91.0312 101.309 91.1289 101.238 91.3242 101.238L91.6523 100.418C91.7539 100.418 91.8906 100.113 92.0625 99.5039C92.3047 99.2461 92.4414 99.0469 92.4727 98.9062H92.4375L92.5078 98.7656L92.4727 98.7305L92.543 98.6484L92.3203 98.6133V98.6484L91.7344 98.4727L91.5469 98.6484H91.5117V98.5781L91.6172 98.4258H91.5117V98.3555L91.6523 98.3906L91.7695 98.3555C91.9023 98.4336 92.0859 98.4727 92.3203 98.4727V98.3555H92.3555L92.2148 98.1328L92.0273 98.2148V98.168L91.7695 98.25V98.2148L91.8047 98.168V98.1328L91.7344 98.0625L91.875 97.9922V97.957L91.4766 97.9102V97.8398H91.7344L91.9102 97.8047V97.7695C91.8633 97.7695 91.7773 97.6211 91.6523 97.3242V97.1719C91.7227 97.1719 91.7969 97.2969 91.875 97.5469L92.1797 97.4766V97.4297L92.1328 97.3945V97.3594L92.2148 97.2891L92.0977 97.1719L92.25 97.0664L92.0273 96.6211L92.0625 96.5859H92.0977C92.2852 96.9297 92.4688 97.1016 92.6484 97.1016L92.6953 96.9961C92.5312 96.918 92.2852 96.4883 91.957 95.707C91.5742 95.1602 91.2031 94.8516 90.8438 94.7812C90.6406 94.5781 90.3594 94.3828 90 94.1953L89.9648 94.2305C89.9336 94.0586 89.8711 93.9727 89.7773 93.9727L89.8125 93.9375V93.8906L89.6602 93.8203H89.5898C89.5898 93.9375 89.5039 94.0859 89.332 94.2656V94.3359C89.6211 94.4297 89.832 94.5664 89.9648 94.7461H89.8828C89.7422 94.6289 89.5977 94.5664 89.4492 94.5586L89.2617 94.3711H89.2266V94.4883L89.2617 94.5234V94.5586H89.2266L89.0742 94.4883L88.9336 94.5234C88.9336 94.6875 89.0312 94.8086 89.2266 94.8867L89.332 95.1094L89.2969 95.332C89.2969 95.6758 89.3477 95.8477 89.4492 95.8477L89.5195 95.918C89.3711 96.707 89.2227 97.1016 89.0742 97.1016L89.1094 97.1367V97.4766C88.9609 97.8125 88.8867 98.2305 88.8867 98.7305L88.8164 99.0938C88.8633 99.1875 88.8867 99.3242 88.8867 99.5039V99.5742L88.7461 99.8672L89.0391 100.898C89.2031 100.898 89.3008 100.949 89.332 101.051V101.086L89.0391 101.93L89.0039 101.977V102.82C89.0039 103.367 89.0781 103.871 89.2266 104.332V104.402L89.2617 105.293L89.2266 105.398L89.4492 105.809C89.4492 106.238 89.4102 106.496 89.332 106.582C89.3789 106.621 89.4414 107.137 89.5195 108.129C89.5664 108.129 89.6133 108.238 89.6602 108.457C89.7148 108.465 89.7656 108.527 89.8125 108.645C89.7422 108.887 89.6797 109.008 89.625 109.008L89.5195 108.938H89.4844L89.5195 109.16L89.4844 109.195V109.23L89.5195 109.336L89.4844 109.371H89.4492L89.4844 109.418L89.4023 109.852L89.4844 110.004L89.4492 110.262V110.414L89.5195 111.188L89.4844 111.223V111.258L89.5195 111.293L89.4844 111.48L89.5195 111.621H89.4844L89.4023 111.551V111.41L89.2266 110.262L89.2617 110.156C89.1133 110.094 89.0391 109.945 89.0391 109.711C88.9922 109.711 88.9688 109.746 88.9688 109.816L88.9336 109.852H88.8867L88.8516 109.816L88.7461 109.934C88.6992 109.738 88.6016 109.641 88.4531 109.641C88.3047 109.523 88.2305 109.336 88.2305 109.078L88.3359 108.902V108.855H88.2656V108.785H88.3359V108.75L88.0781 108.387H88.043L87.9375 108.457L87.7148 108.199L87.6328 108.457L87.6797 108.492V108.527C87.6094 109.059 87.5352 109.355 87.457 109.418L87.4922 109.453V109.559L87.457 109.781L87.4922 109.898L87.3398 110.191L87.375 110.227H87.4102L87.375 110.672V110.848H87.3047V110.812C87.3047 110.133 87.2422 109.617 87.1172 109.266V108.785L87.1523 108.562C87.1055 108.438 87.082 108.219 87.082 107.906V107.684L87.1172 107.648C86.9688 107.273 86.8594 106.793 86.7891 106.207V106.137C86.8594 105.629 86.9219 105.359 86.9766 105.328L86.9414 105.176L86.9766 105.141H87.0117L86.9766 105.105V105.035L87.082 104.848L86.9766 104.625V104.52C86.9766 104.238 87.0117 103.93 87.082 103.594C87.0586 103.484 86.9961 103.41 86.8945 103.371L86.9766 103.148L86.8945 103.078L86.9766 102.785C86.8984 102.785 86.8594 102.758 86.8594 102.703V102.668L86.8945 102.527L86.7891 102.234C86.6406 102.234 86.5664 102.148 86.5664 101.977L86.6016 101.414L86.5312 100.898L86.5664 100.535C86.5039 100.395 86.4062 99.9883 86.2734 99.3164C86.2422 99.3164 86.2031 99.2305 86.1562 99.0586L86.2031 98.8359C86.1172 98.3125 86.0312 98.0039 85.9453 97.9102V97.1016C86.0391 97.0391 86.0977 96.5586 86.1211 95.6602L86.0859 95.625H86.0508L85.9805 95.707L86.0156 95.8125C85.9688 95.8125 85.9297 95.875 85.8984 96L85.6875 96.0703H85.6406V95.9648H85.5703L85.3125 96.1055L85.2773 96.0703V96.0352C85.4023 95.8867 85.4648 95.7773 85.4648 95.707L85.3125 95.5547L85.4297 95.4492L85.5703 95.4844C85.6719 95.4453 85.7227 95.4062 85.7227 95.3672V95.2266L85.6406 95.1094C85.6406 95.0625 85.6914 95.0391 85.793 95.0391V95.0039L85.7227 94.8867V94.8516C85.8398 94.8516 85.8984 94.8164 85.8984 94.7461L85.7578 94.6641L85.793 94.5586L85.5703 94.3008V94.2305H85.6406L85.8281 94.3711L85.793 94.4062C85.8555 94.6328 85.9531 94.7461 86.0859 94.7461V94.7109L85.9805 94.4531V94.3359L86.0156 93.7148C85.8359 93.543 85.6992 93.457 85.6055 93.457L85.5703 93.4922L85.6055 93.5273V93.5977C85.5117 93.5977 85.4648 93.6602 85.4648 93.7852C85.3164 93.7852 85.2422 93.8203 85.2422 93.8906C85.2969 93.8906 85.332 93.9531 85.3477 94.0781L85.2422 94.1133L85.2773 94.3008H85.2422C85.1953 94.3008 85.1719 94.2656 85.1719 94.1953L85.1367 94.2305H84.9492C84.8242 94.2305 84.7617 94.168 84.7617 94.043C84.6445 94.043 84.5859 94.0195 84.5859 93.9727L84.8438 93.8555V93.7852C84.7656 93.7852 84.6641 93.6016 84.5391 93.2344C84.7891 93.5 84.9141 93.6836 84.9141 93.7852L84.9492 93.75H84.9844L85.1719 93.7852V93.7148C85.0234 93.7148 84.9492 93.6016 84.9492 93.375L85.1016 93.3398C85.0625 93.1211 84.9883 93.0117 84.8789 93.0117L84.9492 92.9414L84.9141 92.8945V92.6016L85.0664 92.4141V92.3438L84.9844 92.0508V91.9805C85.0391 91.9805 85.0898 92.0781 85.1367 92.2734L85.2422 92.3438C85.3125 92.3438 85.3477 92.2812 85.3477 92.1562H85.4648C85.4648 92.2422 85.5117 92.3281 85.6055 92.4141V92.4609L85.7578 92.3438V92.4141L85.6875 92.6016L85.8633 92.7891H85.8984L85.793 93.0469V93.082L85.9453 93.2344H86.0156C86.1406 93.2344 86.2148 93.1953 86.2383 93.1172L86.2031 93.0117H86.2383L86.3086 92.7891L85.8984 92.4961V92.4141H85.9453L86.4258 92.7539C86.543 92.7227 86.6016 92.6836 86.6016 92.6367L86.5664 92.6016C86.6367 92.5938 86.6875 92.5312 86.7188 92.4141L86.5312 92.2383H86.5664L86.8242 92.3789V92.3086L86.7539 92.0859H86.7891C86.8359 92.0859 86.8594 92.125 86.8594 92.2031H86.9414V92.1562L86.8945 92.1211V92.0859C86.9961 92.0859 87.0469 92.0625 87.0469 92.0156C87.0234 91.9219 86.9375 91.7969 86.7891 91.6406V91.6055H86.8594L87.2344 91.9453V91.8633H87.3047V92.0508H87.3398L87.4922 91.8984V91.8633C87.4297 91.8633 87.3438 91.7891 87.2344 91.6406V91.6055H87.2695C87.4414 91.6992 87.5273 91.7852 87.5273 91.8633L87.5977 91.793L87.6328 91.8281H87.7148L87.6797 91.793V91.6875L87.75 91.6055L87.8906 91.6406L87.9375 91.4648H88.0078V91.6406L88.0781 91.7227C88.2422 91.4492 88.3516 91.3008 88.4062 91.2773ZM84.8086 91.6875L84.8789 91.793V91.8281C84.7773 91.7891 84.7266 91.7539 84.7266 91.7227L84.7617 91.6875H84.8086ZM84.9141 91.8633L84.9844 91.9453V91.9805L84.9141 91.8984V91.8633ZM91.3594 91.8633L91.3945 91.8984V91.9453L91.3594 91.9805H91.2891V91.9453L91.3594 91.8633ZM86.4258 92.5312H86.4609L86.5312 92.6016H86.4258V92.5312ZM85.1367 94.6641H85.1719V94.7812H85.0664V94.7461L85.1367 94.6641ZM90.4805 95.332H90.5156L90.5859 95.4023L90.3633 95.5195L90.3281 95.4844V95.4492L90.4805 95.332ZM95.4961 96.5859H95.6016V96.6562H95.4961V96.5859ZM91.1016 96.8086L91.1836 96.8789H91.0312L91.1016 96.8086ZM91.957 97.582V97.6172L92.0273 97.6875H92.1797L92.25 97.6172V97.5469L91.957 97.582ZM90.5508 97.7344H90.7031V97.8398H90.6562L90.5508 97.8047V97.7344ZM92.6953 97.9102L92.8008 97.957V97.8398H92.7656L92.6953 97.9102ZM92.5781 97.957L92.6484 98.0625C92.6484 98.1328 92.5781 98.168 92.4375 98.168V98.3203L92.3906 98.5078L92.5781 98.3555L92.543 98.25H92.5781C92.6562 98.25 92.6953 98.1641 92.6953 97.9922L92.6484 97.957H92.5781ZM95.0508 98.3906H95.0859C95.2578 98.4766 95.3945 98.5898 95.4961 98.7305H95.4609C95.3047 98.7305 95.168 98.6172 95.0508 98.3906ZM96.2695 98.6836H96.4102V98.7656H96.2695V98.6836ZM94.5 99.3516H94.5703V99.4688H94.5V99.3516ZM94.3125 99.5039C94.4297 99.5039 94.5547 99.6641 94.6875 99.9844C94.5078 99.9141 94.3711 99.7773 94.2773 99.5742L94.3125 99.5391V99.5039ZM91.3594 105.176V105.211L91.2539 105.363L91.4414 105.434C91.3711 105.676 91.2461 105.836 91.0664 105.914H90.8789L90.7383 105.809L90.5508 105.844L90.6562 105.691L90.6211 105.469L90.8789 105.293L91.2188 105.328L91.3594 105.176ZM92.1797 105.176H92.2852L92.3555 105.258L92.2852 105.328H92.1328L92.0625 105.258L92.1797 105.176ZM91.875 105.258H91.9922V105.328H91.8047L91.875 105.258ZM91.582 105.328H91.8047L91.7344 105.398H91.5117L91.582 105.328ZM90.9609 106.207L90.9961 106.254V106.289L90.9609 106.324H90.9141L90.8789 106.289V106.254L90.9141 106.207H90.9609ZM88.2305 110.707L88.2656 110.742V110.777C88.2656 110.902 88.2266 110.977 88.1484 111L88.1133 110.965V110.93C88.1367 110.781 88.1758 110.707 88.2305 110.707Z" fill="white"/>
<g clip-path="url(#clip0_14_276)">
<rect x="28" y="117" width="85" height="85" fill="#0F104C" fill-opacity="0.5"/>
<path d="M28.2 185.2H44.8V201.8H28.2V185.2Z" stroke="#5F0D16" stroke-width="0.4"/>
<path d="M28.2 168.2H44.8V184.8H28.2V168.2Z" stroke="#5F0D16" stroke-width="0.4"/>
<path d="M28.2 151.2H44.8V167.8H28.2V151.2Z" stroke="#5F0D16" stroke-width="0.4"/>
<path d="M28.2 134.2H44.8V150.8H28.2V134.2Z" stroke="#5F0D16" stroke-width="0.4"/>
<path d="M28.2 117.2H44.8V133.8H28.2V117.2Z" stroke="#5F0D16" stroke-width="0.4"/>
<path d="M45.2 185.2H61.8V201.8H45.2V185.2Z" stroke="#5F0D16" stroke-width="0.4"/>
<path d="M45.2 168.2H61.8V184.8H45.2V168.2Z" stroke="#5F0D16" stroke-width="0.4"/>
<path d="M45.2 151.2H61.8V167.8H45.2V151.2Z" stroke="#5F0D16" stroke-width="0.4"/>
<path d="M45.2 134.2H61.8V150.8H45.2V134.2Z" stroke="#5F0D16" stroke-width="0.4"/>
<path d="M45.2 117.2H61.8V133.8H45.2V117.2Z" stroke="#5F0D16" stroke-width="0.4"/>
<path d="M62.2 185.2H78.8V201.8H62.2V185.2Z" stroke="#5F0D16" stroke-width="0.4"/>
<path d="M62.2 168.2H78.8V184.8H62.2V168.2Z" fill="white"/>
<path d="M62.2 168.2H78.8V184.8H62.2V168.2Z" stroke="#5F0D16" stroke-width="0.4"/>
<path d="M62.2 151.2H78.8V167.8H62.2V151.2Z" fill="#EB1E1E"/>
<path d="M62.2 151.2H78.8V167.8H62.2V151.2Z" stroke="#5F0D16" stroke-width="0.4"/>
<path d="M62.2 134.2H78.8V150.8H62.2V134.2Z" stroke="#5F0D16" stroke-width="0.4"/>
<path d="M62.2 117.2H78.8V133.8H62.2V117.2Z" fill="white"/>
<path d="M62.2 117.2H78.8V133.8H62.2V117.2Z" stroke="#5F0D16" stroke-width="0.4"/>
<path d="M79.2 185.2H95.8V201.8H79.2V185.2Z" stroke="#5F0D16" stroke-width="0.4"/>
<path d="M79.2 168.2H95.8V184.8H79.2V168.2Z" stroke="#5F0D16" stroke-width="0.4"/>
<path d="M79.2 151.2H95.8V167.8H79.2V151.2Z" stroke="#5F0D16" stroke-width="0.4"/>
<path d="M79.2 134.2H95.8V150.8H79.2V134.2Z" stroke="#5F0D16" stroke-width="0.4"/>
<path d="M79.2 117.2H95.8V133.8H79.2V117.2Z" stroke="#5F0D16" stroke-width="0.4"/>
<path d="M96.2 185.2H112.8V201.8H96.2V185.2Z" stroke="#5F0D16" stroke-width="0.4"/>
<path d="M96.2 168.2H112.8V184.8H96.2V168.2Z" stroke="#5F0D16" stroke-width="0.4"/>
<path d="M96.2 151.2H112.8V167.8H96.2V151.2Z" stroke="#5F0D16" stroke-width="0.4"/>
<path d="M96.2 134.2H112.8V150.8H96.2V134.2Z" stroke="#5F0D16" stroke-width="0.4"/>
<path d="M96.2 117.2H112.8V133.8H96.2V117.2Z" stroke="#5F0D16" stroke-width="0.4"/>
</g>
<rect x="28.5" y="117.5" width="84" height="84" stroke="url(#paint1_linear_14_276)"/>
<defs>
<linearGradient id="paint0_linear_14_276" x1="70.5" y1="17" x2="70.5" y2="83" gradientUnits="userSpaceOnUse">
<stop stop-color="#123BD5"/>
<stop offset="1" stop-color="#CD2237"/>
</linearGradient>
<linearGradient id="paint1_linear_14_276" x1="31.7979" y1="120.436" x2="138.59" y2="226.777" gradientUnits="userSpaceOnUse">
<stop stop-color="#B17BFF"/>
<stop offset="1" stop-color="#FF0751"/>
</linearGradient>
<clipPath id="clip0_14_276">
<rect x="28" y="117" width="85" height="85" fill="white"/>
</clipPath>
</defs>
</svg>
