<svg width="474" height="124" viewBox="0 0 474 124" fill="none" xmlns="http://www.w3.org/2000/svg">
<path d="M36.375 25.5625L36.625 25.8125V27.25H36.0625L35.8125 25.8125L36.0625 25.5625H36.375ZM28.5625 25.8125L29.6875 27.25H29.4375L28 26.125L28.3125 25.8125H28.5625ZM46.9375 26.375V26.6875L45.8125 28.0625H44.6875V27.8125C45.1875 26.8542 45.9375 26.375 46.9375 26.375ZM34.125 26.6875H34.6875L35.8125 29.75L36.9375 29.4375L37.75 29.75V29.4375L39.4375 27.5V27.8125C39.1458 28.5208 38.8542 28.875 38.5625 28.875L39.6875 30.875C39.3958 31.7917 38.8542 32.25 38.0625 32.25L37.75 31.9375V32.5L39.125 33.0625L40.25 32.25V32.8125L40 33.0625V33.375C40.875 33.375 41.5208 33.5417 41.9375 33.875C41.9375 33.4167 42.3958 32.7708 43.3125 31.9375H44.4375V32.25L42.5 34.1875H43.875L44.6875 33.625H45.5625L45 34.75L44.6875 34.4375H44.1875V34.75H44.6875V35L44.4375 35.3125V35.5625C44.8125 35.5625 45 35.8542 45 36.4375L49.1875 35.5625H49.4375C48.3958 36.6875 47.4792 37.25 46.6875 37.25C46.6875 37.875 48.625 38.9792 52.5 40.5625L52.8125 40.875V41.4375H52.5C50.7917 40.4792 49.125 39.8125 47.5 39.4375H46.6875L47.5 40.5625V40.875L47.1875 40.5625H45.8125V41.125C47.0625 41.125 48.1875 41.9583 49.1875 43.625H49.4375V44.1875L47.75 44.75L46.9375 44.1875L46.6875 44.5H45V44.75L45.5625 45.5625V45.875H45.25L44.4375 45.5625V46.125C44.4375 46.8333 44.8958 47.6667 45.8125 48.625L45.5625 48.9375H45.25L44.1875 47.8125C43.6042 47.8125 43.2292 48.4583 43.0625 49.75H43.875V50.0625L43.3125 50.5625H43.0625L42.1875 50.0625L41.375 50.3125L40.8125 49.75C40.8125 50.6667 40.4375 51.125 39.6875 51.125C39.6875 51.5 40.4375 52.0625 41.9375 52.8125V53.0625C41.1875 54.1875 40.8125 55.0208 40.8125 55.5625L41.125 57L40.8125 57.25H40.5625L40.25 56.4375H40L39.6875 58.375V58.625C40.2708 58.625 40.5625 58.8125 40.5625 59.1875V59.5L40 60.0625C40 59.5625 38.9792 58.7292 36.9375 57.5625H36.625L35.5625 58.375L35 57.8125H34.125L33 58.125L32.75 57.8125H32.5C32.0417 57.8125 31.1042 58.375 29.6875 59.5L28.875 59.1875V59.5C28.875 59.875 28.125 60.0625 26.625 60.0625C26.4583 60.5208 25.1667 61.1667 22.75 62C22.75 62.4167 22 62.7917 20.5 63.125C20.5 63.75 19.0208 65.125 16.0625 67.25C15.3125 68.375 14.5625 68.9375 13.8125 68.9375L14.9375 71.4375V72.5625C14.3958 73.2292 14.125 73.875 14.125 74.5V76.1875C15.9583 82.1875 18.1875 85.7917 20.8125 87C25.7292 92 30.9167 94.5 36.375 94.5L38.0625 94.25L40.25 94.8125C41.4167 94.8125 43.5625 92.9583 46.6875 89.25C47.1875 89.25 47.6458 88.5 48.0625 87C49.3958 87 51.4375 85.0625 54.1875 81.1875L53.875 77.5625C53.875 76.8542 54.1667 76.1042 54.75 75.3125V73.9375L55.5625 64.5L55.3125 62.8125L55.5625 62.5625V62.25L55.3125 61.4375L55.5625 61.125L55 60.625V59.5L55.3125 59.1875C54.9792 58.3542 54.4167 57.7083 53.625 57.25L52.8125 57.5625L52.25 56.6875L52.5 56.4375L51.9375 55.875L52.25 55.5625V55.3125C55.0833 56.3958 56.6458 57.5 56.9375 58.625V58.9375L56.6875 59.1875C57.1042 60.4792 57.4792 61.125 57.8125 61.125L58.0625 60.3125L57.5 59.1875L58.0625 58.125L57.8125 56.6875L58.0625 55.875L55 53.0625L54.75 53.375V53.0625L55 52.25L54.1875 51.4375H54.4375L55.8125 52.25C56.3542 51.5833 57.75 50.8542 60 50.0625V50.875C57.5833 51.5 56.375 52.1458 56.375 52.8125L60.3125 56.4375C61.7292 56.4375 62.75 57.9167 63.375 60.875V62.5625L64.5 64.1875L63.9375 65.875L64.75 73.125C64.4167 73.5 64.1458 74.875 63.9375 77.25C63.4792 77.25 63.1042 78.4583 62.8125 80.875C61.1458 81.4167 60.3125 82.25 60.3125 83.375C60.3125 85.25 59.6667 86.1875 58.375 86.1875C57.7917 87.5208 55.9375 89.2708 52.8125 91.4375C50.3125 96.1042 47.7917 98.4375 45.25 98.4375C44.4167 99.8958 42.1042 100.625 38.3125 100.625L34.125 101.75C31.1667 101.75 25.875 99.8958 18.25 96.1875L13.5625 93.6875C12.7292 92.6042 10.7708 91.125 7.6875 89.25C3.27083 84.5833 1.0625 81.6042 1.0625 80.3125V80.0625L0.75 74.5L1.3125 73.9375V72.8125L0.75 69.75V69.1875C1.875 67.7708 2.4375 66.8542 2.4375 66.4375C1.52083 66.4375 1.0625 66.25 1.0625 65.875V65.0625L4.0625 58.375C4.9375 54.5417 5.60417 52.6042 6.0625 52.5625C7.52083 50.6875 9 49.75 10.5 49.75C12.2917 48.2083 13.7708 45.7917 14.9375 42.5L17.4375 41.125L21.3125 38.375L25.5 36.6875C27.375 35.8958 28.3125 35.3333 28.3125 35V34.4375L26.625 32.25H26.875C28.0417 33.3333 28.8958 33.875 29.4375 33.875L30.25 32.8125L29.9375 32.5L30.25 32.25L29.6875 31.6875V31.375H29.9375C30.3125 31.375 30.5 31.6667 30.5 32.25H31.375L32.75 31.125L32.1875 30.3125V30L34.125 30.3125C34.125 29.7292 34.4167 29.4375 35 29.4375L34.125 26.9375V26.6875ZM41.375 26.9375H41.625V27.5L41.125 28.0625H40.5625V27.8125L41.375 26.9375ZM43.875 28.875H44.1875V29.1875C44.1875 29.4792 43.8125 29.75 43.0625 30V29.75L43.875 28.875ZM27.4375 29.4375H27.75L28.3125 30L28 30.3125H27.75L27.4375 30V29.4375ZM25.5 31.375H25.8125L26.375 31.9375H26.0625L25.5 31.375ZM50 32.25L50.25 32.5V32.8125L48.875 33.875L48.0625 33.625V33.375C48.0625 33.0417 48.7083 32.6667 50 32.25ZM46.125 45.875H46.375C48.7917 46.75 50 47.5833 50 48.375C50.4167 48.375 51.625 49.2917 53.625 51.125H53.0625C50.0208 49.5417 48.1667 48.1667 47.5 47C46.5833 47 46.125 46.7083 46.125 46.125V45.875ZM54.75 48.375L55.3125 48.9375L54.4375 49.5L53.875 48.9375L54.75 48.375ZM65.5625 50.5625L65.875 50.875V51.125C65.875 51.5 64.8542 51.7917 62.8125 52V51.6875C62.8125 51.1458 63.7292 50.7708 65.5625 50.5625ZM66.125 52H66.4375L67 52.5625H66.125V52ZM46.375 52.5625H47.1875V52.8125L46.6875 53.375L46.375 53.0625V52.5625ZM49.75 53.9375H50L50.8125 54.75V55.0625H50.25L49.75 54.5V53.9375ZM70.0625 53.9375L70.3125 54.1875V54.5L69.5 55.0625L69.1875 54.75V54.5L70.0625 53.9375ZM65.3125 56.125H65.875V56.4375L65.3125 57H64.75V56.6875L65.3125 56.125ZM48.0625 59.5H48.3125L48.875 60.0625L48.625 60.3125H48.0625V59.5ZM50.8125 62.8125H51.375V63.125L50.8125 63.625V62.8125ZM41.625 64.75L41.9375 65.0625V65.3125L41.625 65.625H41.375L41.125 65.3125V65.0625L41.375 64.75H41.625ZM39.125 66.6875L39.4375 67V67.25L38.875 67.8125H38.5625L38.0625 67.25L39.125 66.6875ZM35.25 71.1875H35.5625V71.4375L35 72H34.4375L35.25 71.1875ZM32.5 73.375H32.75V73.9375H33C33 74.2708 32.3542 74.9167 31.0625 75.875H30.5V75.625L32.5 73.375ZM28.875 77.5625H29.6875V77.8125C29.3125 78.5625 28.75 78.9375 28 78.9375L27.75 78.6875V78.375L28.875 77.5625ZM26.375 80.875V81.75L25.8125 82.3125H25.5V81.75L26.375 80.875ZM23.875 83.6875L24.375 84.25L23.5625 84.8125L23.3125 84.5V84.25L23.875 83.6875ZM56.375 92.3125L56.6875 92.5625V92.875L54.4375 94.5L54.1875 94.25V93.9375C54.9375 92.8542 55.6667 92.3125 56.375 92.3125ZM58 11.25C58.6667 11.9167 59.7083 12.5417 61.125 13.125L65.5 12.875H65.75L66.6875 12.6875C67.3958 12.9792 67.7917 13.2708 67.875 13.5625V14.125H66.4375L64.8125 13.5625L63.625 13.875L62.4375 13.5625C62.0625 13.9375 61.2917 14.125 60.125 14.125L59.875 14.3125V14.75L61.125 15.25C60.8333 15.9583 60.3542 16.5 59.6875 16.875H59L58 16.1875L58.5 14.75L58.25 15H57.375L55.5 13.5625L53.625 14.5625V14.3125C53.625 14.0208 53.8333 13.875 54.25 13.875L55.6875 12.875C55.6875 11.7917 56.4583 11.25 58 11.25ZM103.938 12.25L108.188 13.125V12.875L108.375 13.125H108.812V12.6875H109.312V13.125L110.25 12.875L111.625 13.875C112.583 13.2083 113.354 12.875 113.938 12.875C113.521 13.7083 113.062 14.125 112.562 14.125L113.062 14.75V15.25L112.812 15.4375V15.6875L113.5 16.4375V16.625C113.5 16.875 113.188 17.1042 112.562 17.3125L111.188 15.9375H110.688L109.812 17.3125C109.812 18.2708 110.417 18.75 111.625 18.75L111.875 18.5H112.125L113.75 18.75L114.5 18.5L114.688 18.75V19L114.5 19.1875V19.4375L114.688 19.6875H114.938L117.25 19V19.4375L113.062 20.625C112.896 20.125 112.417 19.875 111.625 19.875H111.375V20.125C111.375 21 112.625 22.0208 115.125 23.1875L115.625 23.625L116.812 23.4375C116.812 23.7708 117.188 23.9792 117.938 24.0625L118.688 23.4375L119.125 23.875L120.062 23.1875V22.5L118.875 22.1875L118.688 22.5L117.688 21.0625H117C117 21.6875 116.792 22 116.375 22H116.062L115.625 21.5625C115.625 21.2292 116.312 20.9167 117.688 20.625H118.188L119.562 21.3125L119.812 21.0625C119.646 19.8125 119.417 19.1875 119.125 19.1875H118.875L117.688 19.4375L117.5 19.1875V19L118.688 18.5V18.3125L116.812 17.3125H115.812L115.125 17.8125H114.688C114.396 17.8125 114.25 17.5833 114.25 17.125C114.542 16.1667 114.917 15.6875 115.375 15.6875C116.042 15.8542 116.375 16.1667 116.375 16.625H116.812L117.688 15.4375L116.562 14.125L116.812 13.875H117L118.188 15.25H118.375V14.5625H118.688L119.562 15.25H119.812L121.438 13.5625H121.688L120.5 15.4375V15.6875H121V15.9375L121.25 15.6875H121.938L121.438 16.4375C121.771 16.4375 121.938 16.6667 121.938 17.125H122.375L125 15.6875L128.188 14.5625C128.188 14.8542 128.896 15.1458 130.312 15.4375V15.9375H129.125L128.438 15.4375C128.021 15.8958 126.396 16.4583 123.562 17.125L123.812 18.3125H123.125L124.438 20.625L125.188 21.3125V22L124.25 22.75C124.25 24.0417 123.625 26.3542 122.375 29.6875C121.75 31.1458 121.042 33.5625 120.25 36.9375V44C120.25 45.0417 119.958 46.4167 119.375 48.125L120.062 49.3125V51.4375L118.875 52.8125V54.4375C118.875 55.0208 118.562 55.8125 117.938 56.8125V57.25C118.438 57.25 118.688 57.4792 118.688 57.9375C118.688 60.1458 118.292 62.4792 117.5 64.9375L117.688 70.125L117.25 74.5625L118.188 84.8125L117 90.8125L117.25 93.6875L116.062 98.5625L115.812 99.75L115.625 100H115.375L115.125 99.75V98.375H114.688C114.688 97.9167 114.292 97.6875 113.5 97.6875L113.25 96.6875H112.562L112.812 97.6875L112.562 101.875H112.125V99.75L111.875 98.8125L112.125 98.5625V98.375C112.042 96.7917 111.875 96 111.625 96C111 96 110.292 95.2292 109.5 93.6875C108.708 92.5625 107.938 90.6875 107.188 88.0625L103.5 82.4375C103.5 81.4792 102.25 80 99.75 78L97.875 74.75C97.25 74.5 96.625 73.3333 96 71.25L96.25 70.125C95.7917 70.125 95.5625 69.5 95.5625 68.25C95.2708 68.25 94.9583 67.625 94.625 66.375C93.6667 66.0833 92.3542 64.5208 90.6875 61.6875C89.8542 61.1875 89.2292 60.5625 88.8125 59.8125C87.3958 58.7708 86.6875 57.8542 86.6875 57.0625L83.625 53.3125C83.625 52.5208 82.8542 51.1875 81.3125 49.3125V49.0625H81.0625V49.3125L81.3125 50.5L81.0625 54.9375V57.75L81.5 58.375V58.625L81.3125 62.125C81.9375 63.5833 82.3958 67.1042 82.6875 72.6875L83.1875 73.125V76.1875L84.5625 81.0625C85.0208 81.0625 85.6458 83.25 86.4375 87.625C86.2708 89 85.9583 89.9167 85.5 90.375V90.8125C86.375 91.7708 87 92.25 87.375 92.25L88.5625 92.0625V92.5H87.8125L88.125 92.75V92.9375L87.375 93.6875C88 93.6875 88.3125 94.0625 88.3125 94.8125L88.5625 94.625H88.8125L89 95.5625H88.8125C89.0208 96.1875 89.2292 96.5 89.4375 96.5L89.25 96.6875V97.125C89.4167 97.5417 90.4167 98.1042 92.25 98.8125C93.2917 99.2708 94.625 99.5833 96.25 99.75V100.25L93.4375 100L91.5625 100.875L90.6875 100.438C90.6875 100.896 89.9792 101.271 88.5625 101.562C88.8542 100.979 89.3125 100.688 89.9375 100.688V100.438L89.4375 99.75L89.6875 98.8125C88.8125 98.8125 87.5833 97.1042 86 93.6875H85.25L84.8125 95.0625L84.5625 94.8125H84.125C84.125 95.3125 83.875 95.5625 83.375 95.5625L83.1875 95.8125V96C83.4792 96 83.625 96.3125 83.625 96.9375C85 97.4792 85.6875 97.875 85.6875 98.125H85.5L83.1875 97.125L82.9375 97.375H82.6875C82.0208 97.2917 81.3958 96.4375 80.8125 94.8125L80.625 94.625H79.6875C79.3125 94.625 79.0625 95.3958 78.9375 96.9375C78.9375 97.4375 79.3333 97.6875 80.125 97.6875C80.6667 99.3958 81.0625 100.25 81.3125 100.25C81.7708 99.2917 82.4583 98.8125 83.375 98.8125C82.4583 99.6875 82 100.375 82 100.875V101.125H82.9375L85.6875 101.562L86.9375 100.875L87.125 101.125V101.375L86.9375 101.562C87.5208 101.562 87.8125 101.958 87.8125 102.75L90.4375 103.438H90.875V104C90.125 104 89.5833 104.208 89.25 104.625H89L88.125 104V104.188C88.125 105.104 88.7292 105.812 89.9375 106.312C90.7292 106.312 91.125 106.458 91.125 106.75V107L90.6875 107.438H90.4375C88.3958 106.104 87.375 104.854 87.375 103.688L85.25 102.562V102.75L86.4375 104.438L86.25 105.125C86.7083 105.25 86.9375 105.708 86.9375 106.5C85.5208 105.25 84.7292 104.167 84.5625 103.25L85.0625 102.75L82.6875 102.562L82.25 104.188H82L81.8125 104H81.5L82 102.75L81.3125 102.312L79.9375 102.75V102.562L80.375 101.875C79.7917 101.042 79.1042 100.5 78.3125 100.25L77.625 100.438L77.875 101.562H77.625L77.875 101.875V102.312C76.7917 102.312 76 101.833 75.5 100.875C75.1667 100.875 75 100.5 75 99.75C74.125 99.75 73.3542 100.208 72.6875 101.125L73 102.125L72.6875 102.312C73.3542 102.312 74.0625 102.938 74.8125 104.188L76 104.438V104.875H75.75L75 104.625V104.875L74.125 105.562L73.875 105.812V106C76.4583 109.208 79 111.146 81.5 111.812L82 112.25L81.5 112.688H81.3125C79.1042 111.521 76.4792 109.625 73.4375 107L72.4375 107.188L70.875 107L69.75 107.438L70.4375 106C69.6458 106 69.0833 105.708 68.75 105.125C68.1667 105.125 67.7917 104.75 67.625 104L69 102.125L68.75 101.875V101.562L68.5625 101.875H67.625C67.2083 101.875 66.8125 101.25 66.4375 100H66.1875V100.25L66.4375 101.125C65.9792 101.125 65.75 101.896 65.75 103.438L64.8125 104L64.125 103.688L63.625 104.625L62.4375 104.438L61.3125 105.562L61.125 105.312V105.125L62.25 104L62 103.688C63.2083 103.271 63.9167 102.812 64.125 102.312L63.875 101.375L64.5625 100.688L64.125 98.8125V98.125H63.1875C63.1875 98.7083 62.7083 99 61.75 99C61.75 99.6667 61.5417 100 61.125 100V99.75L61.5625 98.375L61.3125 98.125L61.5625 97.875H61.75L61.5625 97.125C61.5625 96.25 61.8542 95.8125 62.4375 95.8125V95.25L57.8125 92.5L58 92.25H58.25L61.75 94.125L62.9375 94.8125V94.625L62.6875 93.9375L63.875 93.4375L63.625 93.1875V92.5H64.3125L63.625 89.9375V89.6875L64.3125 89H64.5625L65 89.5C65 89.7917 64.7708 89.9375 64.3125 89.9375L64.8125 92.5L64.3125 92.9375L65.5 93.1875V92.9375C65.5 92.4792 65.7292 92.25 66.1875 92.25L66.4375 92.0625V91.8125L66.1875 91.5625L66.875 90.8125L64.5625 87.125C65.6042 86.2917 66.1458 85.6042 66.1875 85.0625H66.6875C67.7708 85.2708 68.3125 85.5625 68.3125 85.9375L68.0625 86.625L68.5625 87.125C68.5625 87.4583 68.3333 87.625 67.875 87.625V88.3125H68.0625C69.6458 87.5625 70.4375 87 70.4375 86.625L70.1875 83.625H70.4375L70.1875 83.375V83.1875L70.4375 82.1875C70.0625 82.1875 69.8333 81.5 69.75 80.125C69.75 75.4583 70.2708 71.5625 71.3125 68.4375L71.125 68.25C71.5417 68.125 71.75 67.5 71.75 66.375C72.0833 66.375 72.5 65.8125 73 64.6875H73.1875V64.25L69.75 67.25L69.4375 67.0625V66.8125C70.6458 65.9792 71.5833 65.0417 72.25 64L73.1875 63.5625V63.375L70.875 60.75C71.875 60.75 72.5833 60.4375 73 59.8125L71.75 58.9375H71.5625L70.875 59.375H70.625V59.125L71.125 58.375L70.875 57.25V56.8125C71.9167 55.1875 72.4375 53 72.4375 50.25V49.3125L72 48.625L72.25 47.875C71.9583 47.875 71.5 47.3542 70.875 46.3125V44C70.875 43.0833 70.0208 42.125 68.3125 41.125V41.5625H67.875L67.625 41.375H67.3125C66.8125 43.125 65.1875 44 62.4375 44C62.4375 44.2083 61.6667 44.5 60.125 44.875L60.375 45.125V45.3125L59.4375 46.75L59.25 46.5625H59L57.8125 46.75V46.5625L58 46.3125V46.0625H57.8125L54.5625 47.875C53.8125 47.5833 53.4167 47.2917 53.375 47V46.0625L53.8125 45.5625H54.0625L55.25 45.8125C55.25 45.4375 56.3333 45.125 58.5 44.875C58.875 43.9167 59.5625 43.4375 60.5625 43.4375H62.25L63.1875 43L64.8125 43.25L66.875 42.125V41.125C66.125 40.4583 65.75 39.6875 65.75 38.8125L67.3125 37.375V37.125H66.6875L66 37.6875H65V37.125L65.25 36L64.5625 35.25V35.0625L64.8125 34.8125V34.625C64.4375 34.625 64.2083 34.2292 64.125 33.4375H63.4375L62.9375 33.9375C63.5625 34.0208 63.875 34.25 63.875 34.625H63.4375L63.875 35.25C63.875 35.75 63.4792 36 62.6875 36L64.125 37.375L63.875 38.5625L65 39.5L64.5625 40C64.3125 40 64 40.625 63.625 41.875H62.9375L62.4375 41.375H62.6875L62.4375 41.125V40.6875C62.4375 40.3958 62.7708 40.25 63.4375 40.25C62.6458 39.625 62.25 39.1458 62.25 38.8125H61.75L60.8125 39.5H60.5625V39.25L61.3125 38.375L60.5625 37.6875V37.375L61.125 36.6875L60.8125 36.5H60.5625L60.375 36.6875H60.125L59.875 36L58.5 36.5V36H58.25C57.7917 36.125 57.5 36.4375 57.375 36.9375H56.875L56.125 36.6875L55.6875 37.125H54.8125L55 36.9375V36.5L54.25 36.25C53.7917 36.25 52.6458 37.5 50.8125 40L50.375 39.5C52.3333 37.1667 53.5625 36 54.0625 36L53.8125 35.8125V35.25L54.25 34.625L52.6875 32.9375V32.75L54.5625 33.4375H54.8125L57.5625 32.0625C57.5625 31.6458 57.1667 31.4167 56.375 31.375L57.125 30.1875L56.6875 29.6875V29.5L57.8125 29.6875V29.25C54.8958 25.9583 53.1875 24.3125 52.6875 24.3125L50.8125 23.4375L51.0625 23.1875V22.9375L49.375 21.5625H49.875L51.0625 22.1875V21.75H51.25L51.9375 22V21.75L52.4375 21.3125H52.6875L52.4375 22.5V22.75C52.7708 22.75 53.3125 23.1875 54.0625 24.0625L56.875 26.625C56.875 27.25 57.6667 28.0625 59.25 29.0625H59.6875L60.8125 28.3125L59.6875 27.1875L60.8125 26.9375L59.25 24.8125H59.4375C60.6458 25.8542 61.6458 26.4583 62.4375 26.625L62.6875 25.75H63.1875L62.6875 27.1875C63.1458 27.1875 63.625 27.3958 64.125 27.8125H64.5625V27.625L64.125 26.1875H64.3125L64.125 25.9375V25.3125H64.8125C64.8125 24.8958 64.5 24.6667 63.875 24.625V24.0625H64.125L64.5625 24.625L65.25 24.0625C65.25 23.8125 64.3958 22.8958 62.6875 21.3125L62.9375 21.0625C63.7708 21.0625 64.5417 21.625 65.25 22.75H65.75L66.1875 22.1875H66.4375L65.75 23.1875V23.4375C65.75 23.7292 66.0625 23.875 66.6875 23.875L66.4375 24.0625V25.0625L66.875 25.5C67.25 25.5 68.2083 24.5833 69.75 22.75L69.9375 22.9375H70.1875C70.1875 23.5208 69.6458 24.0833 68.5625 24.625V25.0625L69.4375 25.9375L71.125 25.3125L70.875 24.625L71.3125 23.4375L70.4375 22.1875V22L71.3125 22.75V22.1875L70.625 21.3125H70.875C71.75 22.1042 72.6667 22.5 73.625 22.5L72 21.5625V21.3125C72.9583 21.3125 74.0625 19.9167 75.3125 17.125L75 15.9375L75.75 16.4375L76 16.1875H76.1875V16.625L76 16.875V17.125H76.1875L78.0625 16.625C78.0625 16.9583 77.2083 17.4167 75.5 18L74.5625 20.625V21.3125C76.7292 23.1458 77.9792 24.0625 78.3125 24.0625L78.9375 24.8125L78.75 25.0625H78.5L77.375 24.3125L76.875 24.8125L77.125 25.5L75.5 26.4375V26.625C76.75 27.0417 77.375 27.375 77.375 27.625L76.875 28.3125V28.75C77.9167 30.7083 79.4583 32.2083 81.5 33.25C81.5 33.5 82.0625 33.7917 83.1875 34.125C85.0625 38.5 87.7917 42.5625 91.375 46.3125H91.5625L91.8125 45.5625C91.3542 45.5625 91.125 45.4167 91.125 45.125V44.6875L91.5625 44.1875C92.2292 44.4375 92.5625 44.6667 92.5625 44.875L92.25 45.125C92.6667 46.125 93.0625 46.6667 93.4375 46.75L95.3125 45.5625C95.0208 44.3125 94.7083 43.6875 94.375 43.6875H94.125C94.125 44.4792 93.9792 44.875 93.6875 44.875L93.25 44.1875V43.6875L93.875 43C94.8333 43 95.5417 43.7083 96 45.125H96.25L97.1875 43.25C96.8542 43.25 96.6875 42.9375 96.6875 42.3125H96.25V41.875H97L98.5625 43.6875C98.5625 43.0625 99.2708 42.2917 100.688 41.375V41.5625C99.4375 42.8542 98.8125 43.8125 98.8125 44.4375H99.5V44.6875L99.0625 45.125L98.3125 44.6875C98.3125 44.9792 98.0208 45.125 97.4375 45.125V46.5625L97 47.1875L97.1875 47.4375C98.6042 47.2708 100.458 46.7292 102.75 45.8125H103.188L103.75 46.3125C99.6667 47.3958 97.625 48.1667 97.625 48.625L97 48.875V49.5625L97.1875 49.3125H97.4375C97.9792 49.5625 98.5208 50.1875 99.0625 51.1875C99.6875 51.1875 100.458 51.8125 101.375 53.0625C102.458 53.3542 103 53.9792 103 54.9375V55.1875L102.062 56.3125H101.875C101.625 56.3125 101.396 56 101.188 55.375L102.062 54.4375L100 52.3125L100.188 52.125C99.7708 52.125 99.0833 51.6667 98.125 50.75H97.875L98.125 50.9375V51.625L97.625 52.125C97.2083 52.125 97 51.8958 97 51.4375H96.4375L96 51.875V52.125C96.4583 52.125 97.0833 52.5833 97.875 53.5L97.4375 54.1875L97.625 54.9375L96.6875 55.375L99.3125 59.625C100.021 59.6667 101.5 62.3125 103.75 67.5625C104.125 67.7292 104.5 68.5833 104.875 70.125C105.417 70.3333 106.188 71.7292 107.188 74.3125L107.938 74.75C108.229 74.75 108.458 73.7292 108.625 71.6875C109.417 70.6875 109.812 69.8333 109.812 69.125V67.8125C109.312 67.1042 109.062 66.4792 109.062 65.9375H109.312L109.062 65.6875L109.312 61.6875V58.9375L109.062 56.8125L109.312 55.875L108.625 52.625V49.75C106.75 46.9583 105.812 43.9375 105.812 40.6875C105.812 38.8958 105.042 36.5625 103.5 33.6875C103 33.4792 102.292 32.0833 101.375 29.5C100 27.4167 99.3125 25.9375 99.3125 25.0625V24.8125C100.646 23.4375 101.729 22.75 102.562 22.75V22.5L101.375 21.75H98.8125C98.5208 21.75 97.9167 22.4583 97 23.875H96C95.5417 23.7083 95.3125 23.25 95.3125 22.5L97.625 21.3125H98.5625C100.646 21.3125 102.042 20.6042 102.75 19.1875V18.75L102.312 18.3125H101.375L99.3125 19.6875H99.0625V19.4375L100.875 17.5625L100.688 17.3125H100.438L101.188 15.6875L98.3125 15.25V14.75H98.5625L101.188 15.25C101.188 13.8333 101.792 13.125 103 13.125C103.333 13.125 103.5 12.8958 103.5 12.4375L103.75 12.25H103.938ZM80.125 12.4375L80.625 12.875L80.375 13.125H79.6875L79.1875 12.6875L79.5 12.4375H80.125ZM70.1875 12.875H70.875V13.375H70.1875V12.875ZM68.5625 14.5625C70.6875 14.8542 71.75 15.2292 71.75 15.6875L71.3125 16.1875C70.8542 15.6875 70 15.2917 68.75 15L68.5625 14.75V14.5625ZM74.5625 14.75H74.8125L75 15.9375C74.4167 15.6875 74.125 15.4583 74.125 15.25L74.5625 14.75ZM81.3125 15.4375L81.5 15.6875C81.5 16.0208 81.8958 16.1875 82.6875 16.1875L82.9375 16.4375V16.625L81.3125 17.125L80.8125 16.1875L78.5 16.625V16.1875L81.3125 15.4375ZM130.562 15.6875H130.75L131.25 16.1875H130.562V15.6875ZM56.6875 15.9375H57.125L57.5625 16.4375V16.625L57.125 17.125H56.875L56.125 16.4375L56.6875 15.9375ZM61.75 17.125L62.4375 17.8125L62 18.3125H61.75L61.3125 17.8125V17.5625L61.75 17.125ZM59 17.3125L59.4375 17.8125L59 18.3125L58.5 17.5625L58.6875 17.3125H59ZM64.5625 18H64.8125C64.5625 18.6667 64.3333 19 64.125 19L63.875 18.75V18.5L64.5625 18ZM67.625 18.3125C68.375 18.5208 68.75 19.0417 68.75 19.875H68.3125V19.4375C67.8542 19.4375 67.625 19.2917 67.625 19V18.3125ZM94.125 18.3125H94.375L94.875 18.75V19L94.375 19.4375H94.125L93.6875 19V18.75L94.125 18.3125ZM56.375 19.4375H56.875L56.6875 20.625V21.0625L58 21.5625V22L56.125 22.5H55.9375L55.5 22L55.9375 21.5625L55 21.3125V20.875C55 20.5417 55.375 20.375 56.125 20.375L56.375 19.4375ZM72.25 19.4375H72.6875V19.875L72.25 20.375H71.75V19.875L72.25 19.4375ZM90.125 19.4375C90.125 19.6875 90.6875 20 91.8125 20.375V21.0625C91.8125 21.3125 91.1875 21.7917 89.9375 22.5C88.3542 21.25 87.5625 20.4583 87.5625 20.125C88.2292 19.6667 89.0833 19.4375 90.125 19.4375ZM76.4375 20.125L76.875 20.625L76.6875 20.875H76.1875L75.75 20.375L76 20.125H76.4375ZM84.5625 21.5625C84.6875 21.9792 85.3125 22.1875 86.4375 22.1875L86.9375 23.4375L85.5 23.875C84.9167 22.75 84.2917 22.1875 83.625 22.1875L82.25 22.5L80.8125 22.1875C79.2292 22.3958 78.25 22.7292 77.875 23.1875H77.375V22.75C77.375 22.125 79.7708 21.7292 84.5625 21.5625ZM59.25 22.75H59.875V22.9375L59.4375 23.4375L59.25 23.1875V22.75ZM91.375 23.625L91.8125 24.0625L91.5625 24.3125H91.375L90.875 23.875L91.125 23.625H91.375ZM81.5 23.875C82.75 24.125 83.375 24.4375 83.375 24.8125V25.0625L82.6875 25.75H81.8125L80.8125 25.3125C80.9792 24.3542 81.2083 23.875 81.5 23.875ZM48.6875 24.0625L49.875 24.3125L50.0625 24.0625L50.8125 25.5L50.375 25.9375L50.5625 26.625L49.1875 27.1875C48.8542 27.1875 48.6875 26.9375 48.6875 26.4375L48.9375 25.75L47.9375 24.8125L48.6875 24.0625ZM57.375 24.625H57.8125L58.25 25.0625V25.5L57.8125 25.9375L57.375 25.5V24.625ZM69.9375 26.4375L70.625 26.9375H71.125L71.5625 26.4375L71.3125 25.75C70.3958 25.8333 69.9375 26.0625 69.9375 26.4375ZM77.875 25.5H78.5L79.1875 26.1875L78.5 26.625C78.1667 26.625 77.9583 26.25 77.875 25.5ZM51.9375 26.9375L52.1875 27.1875V27.625L51.5 27.375L51.9375 26.9375ZM89.6875 27.8125C89.6875 28.1875 90.3125 28.4167 91.5625 28.5L92.25 28.3125L93.6875 29.9375L93 30.625C92.4583 30.625 91.8333 30.3125 91.125 29.6875C91.125 30.1458 90.7917 30.375 90.125 30.375C88.7917 30.2917 88.125 30.0625 88.125 29.6875C88.4167 29.6875 88.5625 29.2292 88.5625 28.3125L89.6875 27.8125ZM78.3125 28.3125C79.1042 28.4792 79.5 28.7292 79.5 29.0625V29.25H78.9375L78.3125 28.5V28.3125ZM54.8125 28.75L56.125 29.25V29.6875C55.0833 29.5625 54.5625 29.3542 54.5625 29.0625L54.8125 28.75ZM55 30.1875C55.3333 30.1875 55.5 30.5 55.5 31.125C56.0833 31.125 56.375 31.2708 56.375 31.5625L55.9375 32.0625C55.9375 31.7292 55.375 31.4167 54.25 31.125V30.875L55 30.1875ZM57.5625 30.375L57.375 31.125H57.8125L58.5 30.875L58 30.375H57.5625ZM90.6875 30.875H90.875L91.5625 31.5625L90.875 32.5H90.6875C90.2708 32.5 90.0208 32.125 89.9375 31.375L90.6875 30.875ZM50.5625 31.125L51.0625 31.5625L50.375 32.0625L49.875 31.5625L50.5625 31.125ZM56.6875 33.4375L57.125 33.9375L56.6875 35.8125L56.875 36H57.125L59 35.25L58.25 34.375L58.5 32.9375L58 32.25C57.375 32.4583 56.9375 32.8542 56.6875 33.4375ZM92.5625 32.75H93L94.125 33.9375L93.875 34.125H92.75L92 33.4375V33.25L92.5625 32.75ZM50.375 33.6875H50.5625L51.0625 34.125V34.375L50.5625 34.8125H50.375L49.875 34.375V34.125L50.375 33.6875ZM91.125 35.25H91.375L91.8125 35.8125L91.5625 36H91.375L91.125 35.8125V35.25ZM53.8125 37.125H54.5625L54.0625 37.6875H53.375L53.8125 37.125ZM63.1875 38.5625L63.875 39.25V39.0625L63.4375 38.5625H63.1875ZM59.6875 38.5625L60.125 39.0625L59.875 39.25H59.4375L59 38.8125L59.25 38.5625H59.6875ZM56.125 38.8125L56.6875 39.25L56.375 39.5H55.9375L55.5 39.0625L55.6875 38.8125H56.125ZM58.5 40L59.25 40.9375C60 40.9792 60.375 41.1875 60.375 41.5625L59.25 42.5625H57.5625L57.125 42.125L58 41.5625V41.375C57.4167 41.375 57.125 41.2292 57.125 40.9375C57.4167 40.9375 57.5625 40.7083 57.5625 40.25L57.8125 40H58.5ZM64.3125 40.9375H64.5625L65.5 41.875V42.125L64.3125 40.9375ZM103.5 41.875L103.75 42.125V42.3125L103.5 42.5625H102.562L103.5 41.875ZM104.875 49.75H105.625V50.25H104.875V49.75ZM59.4375 55.625H60.125C60.5 55.625 60.8333 56.3333 61.125 57.75C60.7917 57.75 60.5417 57.3333 60.375 56.5C59.4583 56.5 59 56.3542 59 56.0625L59.4375 55.625ZM67.125 55.625H68.0625L68.75 56.3125V56.8125L68.5625 57.0625V57.25L69.75 57.9375H69.9375V58.625L69.4375 59.125C69.2292 58.2083 69 57.75 68.75 57.75H68.5625L67.875 58.1875C66.9167 57.4792 66.4375 56.7708 66.4375 56.0625L67.125 55.625ZM61.3125 57.9375H61.5625L62.25 58.625H61.75L61.3125 58.1875V57.9375ZM62.25 58.625H62.6875L65 60.25V60.75H65.25L66.6875 60.0625C66.6875 60.3125 67.1458 60.6042 68.0625 60.9375V61.5C67.5625 63.1667 67.1042 64 66.6875 64H65.75L65.5 63.8125H65.25L65 64V65.6875H64.3125L63.875 65.1875L64.8125 64L64.3125 63.375V62.125L64.8125 61.5V60.9375L62.25 58.625ZM134.312 80.625L134.75 81.3125L134.5 81.5H134.312L133.812 81.0625L134.312 80.625ZM132.875 82.4375H133.125L133.562 82.9375V83.375C133.562 83.7917 132.333 84.1875 129.875 84.5625L128.688 84.0625C128.438 84.7292 127.875 85.0625 127 85.0625C127 84.1875 128.188 83.625 130.562 83.375C131.021 82.75 131.792 82.4375 132.875 82.4375ZM123.125 84.8125H124.438C125.104 85.1458 125.438 85.5208 125.438 85.9375L126.312 85.25H126.812L126.125 86.4375L126.812 88.5L125.438 89.25C124.188 89.1667 123.562 88.9167 123.562 88.5L123.312 88.75H122.875L121.938 87.375V87.125L122.375 86.1875L122.125 85.5L123.125 84.8125ZM106.312 87.625H106.75L106.938 88.5L106.312 87.8125V87.625ZM59.6875 87.8125L59.875 88.0625V88.5L59.4375 89L59.25 88.0625L59.4375 87.8125H59.6875ZM67.125 96.25L68.0625 96.9375V95.5625L67.125 96.25ZM93.875 95.25H94.125V95.8125H93.4375L93.875 95.25ZM67.625 98.125L67.3125 99L67.625 99.25H67.875V98.125H67.625ZM99.5 98.8125L99.75 99V99.25L99.3125 99.75H99.0625L98.5625 99.25V99L99.5 98.8125ZM67.875 100C68.2917 101.042 68.9167 101.562 69.75 101.562V100.875C69.75 100.458 69.125 100.167 67.875 100ZM60.8125 100.25V100.438L58 104.188L57.5625 103.688L60.8125 100.25ZM84.375 100.438H85.0625L84.5625 100.875L84.375 100.688V100.438ZM93.25 103.25L94.625 103.438H96L97 104V104.625C96.4167 105.542 95.7083 106 94.875 106L94.125 105.312L93.4375 105.562L91.375 103.688L93.25 103.25ZM82.5 104.438L82.9375 104.875L82.5 105.562L85.25 107.188L84.5625 108.312V108.562H84.125L83.625 108.125L83.875 107.875V107.688L81.8125 105.562C82.1458 105.562 82.375 105.188 82.5 104.438ZM76.875 106.75H77.125L77.625 107.188V107.438H76.875V106.75ZM68.5625 107.438H69.75L69.1875 107.875H68.5625V107.438ZM72 109.75L72.25 110V110.188L72 110.438H71.75L71.5625 110.188V110L71.75 109.75H72ZM81.0625 113.625L81.5 114.125L81.0625 114.562L80.625 113.875L80.8125 113.625H81.0625ZM83.1875 113.625H83.625L84.125 114.125L83.875 114.312H83.625L83.1875 113.625ZM85.5 117.125H85.6875C86.5625 117.125 87.125 117.438 87.375 118.062L86.9375 118.562H86L85.0625 117.562L85.5 117.125ZM145.375 10.625L145.688 10.875V11.4375L144.812 12.3125H144.25C144.625 11.1875 145 10.625 145.375 10.625ZM146.75 12.875L147.062 13.125V13.375L146.75 13.6875H146.5L146.188 13.375V13.125L146.5 12.875H146.75ZM139.25 13.125L141.5 15.375V15.9375L138.688 13.6875L139.25 13.125ZM158.438 13.6875L159 14.25L158.75 14.5H158.438V13.6875ZM152.312 13.9375H152.875V14.25L151.25 15.9375C151.583 15.9375 151.75 16.2083 151.75 16.75L150.938 18.9375L150.688 18.6875H150.375L149.812 19.25V19.5L151.5 20.625H151.75L153.188 20.375V20.9375H152.625V21.5C152.625 21.7917 153.729 22.5208 155.938 23.6875V24L155.375 24.5L152.312 22.3125L151.5 22.5625V22.875L152.062 23.6875H151.5L147.312 21.5V21.1875L147.625 20.9375V20.625C147.167 20.625 146.688 20.3542 146.188 19.8125H145.688V20.0625C145.688 20.6875 145.958 21.3333 146.5 22L146.188 24.5V24.8125L147.875 23.6875L147.625 23.4375V22.875H148.188V23.6875L148.438 23.4375H149C149.375 23.4375 149.646 23.9792 149.812 25.0625H150.375V25.375L150.125 25.625V25.9375L150.375 26.1875L147.875 27.0625V27.3125C150 27.3125 151.396 28.1458 152.062 29.8125L153.438 30.375V30.9375H153.188L151.25 30.0625V30.375C152.542 31.5417 153.188 32.375 153.188 32.875H152.875L148.188 29.25C148.188 29.5833 147.521 29.8542 146.188 30.0625V30.375L147.062 31.5L144.812 31.75V32.0625C148.896 33.7708 150.938 35.1458 150.938 36.1875L150.688 36.5V36.75L152.625 38.6875L152.312 39H152.062C150.896 37.5 149.875 36.75 149 36.75C148.625 36.3333 148.438 35.6875 148.438 34.8125L144 31.75L143.688 32.0625V32.3125L144 32.625V32.875L143.688 33.125C144.271 33.125 144.833 33.6042 145.375 34.5625L145.125 34.8125H144.812C144.812 34.1458 143.521 33.5833 140.938 33.125C142.438 34.8333 143.188 36.0417 143.188 36.75C142.896 37.7083 142.521 38.3542 142.062 38.6875L142.312 39V39.25C142.312 41.7917 141.396 45.1458 139.562 49.3125L141.188 58.75L140.938 60.9375L141.75 64.3125V65.6875C140.833 67.9375 140.375 70.0625 140.375 72.0625H140.125L140.938 73.5V74.5625L141.188 78.75L140.938 80.6875L141.75 83.75V84.875L141.5 92.375L140.938 92.9375L141.188 94.3125L139.562 104.875L139.25 105.188V105.438L140.125 106.875L139.25 110.188H138.688L137.062 104.062V100.438L135.062 94.625L132.875 88.1875V81.8125L130.938 74.5625L131.75 72.625C131.75 71.1667 131.375 69.0417 130.625 66.25L130.938 65.125L126.75 54.875L127 52.0625L125.938 46.75V45.375L126.5 44.25L125.062 37.875L125.375 36.5L123.688 35.125V33.125C123.688 31.7917 125.167 30.2292 128.125 28.4375C130.292 27.3542 131.604 26.5208 132.062 25.9375L131.75 25.625V25.0625L132.062 25.375H132.562C133.604 25.375 134.438 24.8125 135.062 23.6875L136.5 23.4375L133.438 20.625L134.25 20.375L134 20.0625V19.8125L134.562 19.25L135.062 20.625L135.375 20.375H135.625L135.938 20.625V20.9375L135.062 21.1875V21.5L136.75 22.5625H137.062L137.875 22.3125V21.75C137.333 21.75 137.062 21.5625 137.062 21.1875V20.9375L137.875 19.5L136.5 19.25V18.6875L137.875 18.9375H138.688L138.438 18.6875V18.4375L139 17.875L140.375 18.125C140.375 17.75 140.938 17.4792 142.062 17.3125L142.625 18.4375C143.042 18.4375 143.958 17.0417 145.375 14.25H145.688L145.938 14.5V14.8125C145.271 15.3542 144.625 16.5625 144 18.4375L144.25 18.6875H144.562L144.812 18.4375H145.125L145.375 18.6875V18.9375L146.5 18.4375V18.6875L146.188 18.9375V19.25H146.75C147.208 19.25 147.958 18.2292 149 16.1875C150 16.1875 151.104 15.4375 152.312 13.9375ZM136.75 14.25L137.312 15.0625L136.75 15.625L136.188 14.8125L136.75 14.25ZM159.562 15.0625H159.875L160.375 15.625V15.9375H159.562V15.0625ZM153.75 19.5L154.312 20.0625L154 20.375H153.75L153.438 20.0625L153.188 20.375V20.0625L153.75 19.5ZM131.5 20.375H131.75L132.312 20.9375V21.5H132.062L131.5 20.9375V20.375ZM159.875 20.375H160.688L161.25 20.9375L161.5 20.625H162.062L162.625 21.1875V22L162.062 22.5625H161.812C161.438 22.5625 161.25 22.2917 161.25 21.75L160.375 22.3125C159.458 22.0625 159 21.7917 159 21.5V21.1875L159.875 20.375ZM161.25 22.875L161.812 23.4375L161.5 23.6875H161.25V22.875ZM158.438 23.4375H159L159.562 24L159 24.5L158.438 24V23.4375ZM145.688 25.625V25.9375L146.75 26.5V25.625H145.688ZM152.062 26.1875L152.312 26.5V27.0625L151.75 27.5625L151.5 27.3125V26.75L152.062 26.1875ZM154.812 35.9375L155.125 36.1875V36.5L152.875 37.3125C153 36.8958 153.646 36.4375 154.812 35.9375ZM149 39H149.25C148.333 40.2917 147.604 40.9375 147.062 40.9375V41.5L147.312 41.75V42.0625L146.188 42.625H145.938C145.646 42.625 145.271 42.0625 144.812 40.9375C145.062 40.0208 145.354 39.5625 145.688 39.5625H145.938L146.75 40.125L149 39ZM150.375 40.6875V41.5H150.125L149.562 40.9375L149.812 40.6875H150.375ZM168.125 5.75H168.875C170.875 6.83333 171.875 7.58333 171.875 8L171.625 8.25V8.5C170.875 7.83333 169.875 7.5 168.625 7.5L168.375 7.25C167.875 7.25 167.625 7.08333 167.625 6.75V6.25L168.125 5.75ZM160.25 0.375L160.562 0.625V0.9375L160.25 1.1875H160L159.75 0.9375V0.625L160 0.375H160.25ZM162.188 0.625C165.104 2.375 166.562 3.9375 166.562 5.3125L167.688 6.6875V7.25C167.146 7.70833 166.875 8.25 166.875 8.875H166.562L167.125 11.0625L166.562 11.625V11.875C167.021 12.6667 167.479 13.125 167.938 13.25L170.125 11.0625L169.875 9.6875V9.125H170.125C171.417 9.58333 172.062 9.95833 172.062 10.25V10.5L171.5 11.3125L172.062 12.1875C172.812 11.9375 173.354 11.4792 173.688 10.8125V10.25C173.146 10.25 172.875 10.0625 172.875 9.6875V9.4375H173.438L172.875 8.625L174.812 7.25H175.375L174.812 8.0625L175.062 8.3125V8.625C176.979 8.625 178.354 7.97917 179.188 6.6875C179.479 6.6875 179.75 7.33333 180 8.625C179.625 8.625 179.167 9.25 178.625 10.5V10.8125L179.438 11.0625C179.438 10.5208 179.625 10.25 180 10.25L179.75 10V9.6875C179.75 9.39583 180.208 9.125 181.125 8.875C181.667 9.54167 181.938 10.1875 181.938 10.8125L181.375 12.1875L181.625 12.4375H181.938L183 11.3125H183.312V11.625C182.562 12.5417 182 13 181.625 13V13.25H182.5L184.688 11.875H184.938L183.312 13.8125V14.0625L195.938 10.5L198.375 11.0625L201.125 10L203.062 10.25C203.062 9.75 204.146 9.29167 206.312 8.875L206.062 8.625V8.3125L206.312 8.0625H206.625L206.875 8.3125L207.688 8.0625V7.75L206.312 6.375L205.5 6.6875L206.312 5.875C207.646 7.125 208.938 7.75 210.188 7.75V8.3125L208.25 8.625V8.875H209.625L212.625 8.0625C212.667 7.6875 213.208 7.41667 214.25 7.25V7.75H213.75C213.75 8.875 213.375 9.4375 212.625 9.4375L211.25 9.125L211 10C212.458 10 213.188 10.3542 213.188 11.0625L212.625 11.625H212.062L211.25 11.0625L209.875 11.3125V11.875C209.875 12.25 210.146 12.4375 210.688 12.4375V12.6875L210.188 13.25L210.438 14.0625C212.062 13.8125 213.167 13.4583 213.75 13V13.25L213.438 14.625H213.75L216.188 14.375H217.312C217.438 13.4583 217.708 13 218.125 13L218.375 13.25L217.312 15.1875V15.75L218.688 16.25L221.688 15.4375V16L219.188 16.8125L219.75 18.1875L219.5 18.4375H219.188L218.375 17.9375C217.958 18.8542 217.5 19.3125 217 19.3125V19.5625C217.75 19.6458 218.125 19.9167 218.125 20.375L215.938 21.1875L216.188 21.5V21.75L215.625 22.3125H214.562L213.75 21.5C211.625 22.5833 210.333 23.3958 209.875 23.9375C209.875 24.3125 208.604 24.6875 206.062 25.0625L205.25 25.875L201.938 25.625C198.521 26.875 195.604 27.6875 193.188 28.0625H191.5C187.208 28.0625 184.208 28.4375 182.5 29.1875V33.8125L182.188 36.3125L182.75 39L182.5 47.25L183 48.875V51.0625C183 54.1875 182.729 55.75 182.188 55.75C183.188 57.9167 183.917 60.5625 184.375 63.6875V75.75C182.917 82.3333 182 87.5417 181.625 91.375L181.938 94.9375C181.938 96.0208 181.208 97.7708 179.75 100.188L179.188 103.188L180 106.188L179.75 108.938H179.188V108.375L176.188 95.5C175.562 92.75 175.104 91.375 174.812 91.375H174.5L174.25 91.6875H174L172.875 90L173.188 89.75L172.312 88.125H171.812L170.938 88.625L170.125 88.375L169.562 88.9375L169.312 88.625V88.375L169.875 87.8125L169.062 86.4375L169.312 85.625H169.062L167.688 86.1875L167.938 87.5625L165.75 88.375L165.5 88.125V87.8125C166.75 85.4375 167.938 84.25 169.062 84.25H169.875C169.958 83.5417 170.229 83.1875 170.688 83.1875L171.5 83.4375V82.0625H171.812L172.062 82.375H172.312C172.312 80.7083 172.604 78.9583 173.188 77.125L172.875 75.5L173.438 72.75C173.438 71.2917 173.062 70.1042 172.312 69.1875C172.604 64.0625 172.979 61.5 173.438 61.5V60.9375C172.604 60.9375 171.875 58.4792 171.25 53.5625C170.125 53.5625 169.562 53.0208 169.562 51.9375C169.562 51.0208 169.75 50.5625 170.125 50.5625C169.708 45.3958 168.896 42 167.688 40.375C166.562 40.375 165.562 38.2917 164.688 34.125V32.75L162.438 33.5625L158.375 33C157.083 34.0417 151.521 34.7708 141.688 35.1875L141.375 35.4375L140.562 35.75L137.562 35.1875L136.438 35.4375L133.438 35.1875L132.312 35.4375V34.9375C133.938 34.8125 135.5 33.8958 137 32.1875C139.375 31.4375 141.292 30.6042 142.75 29.6875C143.083 29.6875 144.271 28.6042 146.312 26.4375C148.938 26.4375 150.854 25.5208 152.062 23.6875C152.062 23.2292 153.146 22.6875 155.312 22.0625C155.312 21.4792 155.875 21.1875 157 21.1875L160.25 19H160.562L161.375 19.5625L163.812 19V17.125L164.125 16.8125L163 14.375L163.312 14.0625H163.562L164.688 14.875L165.75 13.5625L164.938 12.4375V12.1875L165.75 10.8125L165.5 9.125C165.792 9.125 166.146 8.39583 166.562 6.9375L165.5 5.5625C164.958 5.5625 164.312 4.64583 163.562 2.8125C162.229 2.14583 161.5 1.60417 161.375 1.1875C161.375 0.8125 161.646 0.625 162.188 0.625ZM169.062 3.6875H169.312L169.875 4.1875L169.562 4.5H169.062V3.6875ZM178.938 4.1875L179.188 4.5V4.75L178.938 5.0625H178.625L178.375 4.75V4.5L178.625 4.1875H178.938ZM191.5 5.5625H192.062V6.375L189.062 8.875V8.625L191.5 5.5625ZM216.5 5.5625H216.75V6.125L215.938 6.375V6.125L216.5 5.5625ZM170.438 6.375H170.688L171.25 6.9375L170.938 7.25H170.688L170.438 6.9375V6.375ZM176.188 6.375H176.438V6.6875L175.875 7.25H175.375L176.188 6.375ZM205.25 7.5H205.75L206.062 8.3125H205.75L205.25 7.75V7.5ZM187.688 9.4375L187.938 9.6875V10L185.5 11.625H185.25C185.625 10.7083 186.438 9.97917 187.688 9.4375ZM221.375 10L221.688 10.25V10.5L221.375 10.8125H221.125L220.875 10.5V10.25L221.125 10H221.375ZM238.125 10.8125V11.0625L237 12.1875H235.688V11.875C235.896 11.1667 236.708 10.8125 238.125 10.8125ZM211.25 11.3125L211.562 11.625V12.1875H210.688V11.875L211.25 11.3125ZM215.625 11.875L215.938 12.1875V12.4375L215.625 12.6875H215.375L215.125 12.4375V12.1875L215.375 11.875H215.625ZM234.312 12.4375L234.562 12.6875V13C234.104 13.875 231.812 14.9583 227.688 16.25C224.979 15.9583 223.625 15.6875 223.625 15.4375L223.312 15.75H222.25V15.4375L222.75 14.875H226.875L234.312 12.4375ZM213.438 22.875H213.75C214.167 22.875 214.521 23.5 214.812 24.75H214.562L213.438 23.125V22.875ZM137.25 28.0625L138.125 28.875L136.438 29.4375L136.188 29.1875V28.875L137.25 28.0625ZM156.438 37.125V37.6875L155.312 38.1875L154.812 37.6875L156.438 37.125ZM165.5 89.5L165.75 89.75C165.5 91 165.042 91.9167 164.375 92.5H164.125L163.562 91.9375V91.6875C164.146 90.3542 164.792 89.625 165.5 89.5ZM247.75 17.5H250.188C253.479 17.5 255.583 18.7708 256.5 21.3125C257.417 22.4792 258.542 25.1458 259.875 29.3125C260.208 29.3125 260.604 30.5208 261.062 32.9375C261.688 33.4792 262 34.125 262 34.875H262.312L264.875 32.6875H265.188L262.75 35.8125C263.5 35.8125 264.062 37.0417 264.438 39.5H266.625V39.9375H265.375L264.688 40.625C264.688 42.25 265.333 46.125 266.625 52.25C266.625 53.1667 267.104 54.4583 268.062 56.125L267.562 62.1875C267.562 63.1458 268.625 63.625 270.75 63.625C270.75 63.3333 272.25 62.8542 275.25 62.1875H276.312L277 62.625H277.75L280.375 62.875L281.812 62.375L281.625 61.1875L282.312 61.6875L282.75 61.1875H283.25V61.6875L283.062 61.875V62.1875H283.5L285 60.75L285.438 61.1875H286.188C286.188 60.6875 286.354 60.4375 286.688 60.4375H286.875C285.875 62.8542 284.188 64.0625 281.812 64.0625C281.812 64.6458 281.271 65.0417 280.188 65.25V65.5625C280.188 65.8958 281.292 66.1458 283.5 66.3125C284.708 65.7292 285.771 64.9792 286.688 64.0625L286.438 63.8125V63.625L287.625 62.375H287.875V62.875L287.625 63.125V63.3125H289.125C289.125 62.9792 289.75 62.4375 291 61.6875L292.938 59.75L293.125 61.1875L294.375 60.9375H294.875V61.1875L294.625 62.1875L294.875 62.875H294.625L293.438 62.375L292.938 62.875L292.688 62.625C291.312 63.0417 290.188 63.75 289.312 64.75L287.875 65.25V65.8125C289.667 66.4792 290.625 67.0208 290.75 67.4375H290.562L287.375 66.3125L287.188 66.5H286.875L286.438 66C285.396 66.9583 284.646 67.4375 284.188 67.4375L281.625 67C281.333 68.25 280.854 68.875 280.188 68.875L278.938 71.125H278.688L278.938 69.875H278.688L276.5 70.8125L275.25 70.625L275.062 70.8125H274.812L274.562 70.625H274.312L272.375 71.125L273.125 72.25H272.688L271.688 71.8125C271.688 72.1458 271.125 72.4583 270 72.75C270.583 76.6667 271.479 78.625 272.688 78.625L272.188 79.0625C272.312 80.4375 272.542 81.3125 272.875 81.6875V83.4375L272.188 84.375V84.875H272.875L273.125 84.5625H273.375L273.625 84.875V85.125L272.188 85.3125V86.5625L271.938 87.75C272.438 87.75 272.833 88.0625 273.125 88.6875L272.875 91.5625L273.625 92.375V92.5625C273.125 93.1458 272.875 93.7083 272.875 94.25V94.5L273.625 97.9375H273.375C274.75 99.7292 275.792 101.708 276.5 103.875H276.812L276.5 105.438C276.5 106.438 276.917 107.854 277.75 109.688L277.5 110.375C277.708 110.375 278.021 111.188 278.438 112.812C278.812 113.104 279.229 114.146 279.688 115.938C280.188 115.938 280.729 117.458 281.312 120.5H280.875C280.208 118.75 278.688 115.708 276.312 111.375V110.875L276.5 110.688C275.375 108.479 274.646 106.625 274.312 105.125L272.375 102V100.812L272.875 98.125C271.25 96.75 270.438 95.3125 270.438 93.8125L270.75 93.5V93.3125L270.438 92.5625L270.938 92.0625V91.875L270.438 90.875L270.75 89.9375C269.542 88.0625 268.729 86.4583 268.312 85.125L268.562 84.875L268.062 84.375L265.375 86.0625H265.188C267.271 84.1042 268.312 82.8125 268.312 82.1875C268.021 79.6875 267.542 78.2292 266.875 77.8125L267.125 76.6875C266.75 76.6042 266.333 75.875 265.875 74.5C264.292 74.7917 262.688 75.3542 261.062 76.1875C258.979 76.3125 256.646 76.9583 254.062 78.125V78.625C254.062 79.125 254.312 79.6667 254.812 80.25L253.812 80.5C253.312 79.25 252.583 78.625 251.625 78.625C250.5 80.25 248.896 81.3542 246.812 81.9375L246.312 82.4375H245.375L244.125 82.1875C244.125 83.0208 243.417 83.5833 242 83.875C242 84.7083 241.833 85.125 241.5 85.125L240.562 85.3125V85.125L239.812 85.3125L237.688 84.125L239.125 82.4375L238.125 79.75L241.5 76.375C241.5 76.875 241.729 77.125 242.188 77.125C245.604 75.25 247.312 74.2083 247.312 74L251.625 71.3125C252.208 71.3125 253.021 70.6042 254.062 69.1875C254.646 69.1875 255.854 68.6042 257.688 67.4375C258.646 67.4375 260.333 66.6458 262.75 65.0625L264.688 64.5625C263.646 57.6458 262.75 54.1875 262 54.1875L261.812 53.9375V53.6875L262 53.4375C261.625 50.2708 260.917 47.6042 259.875 45.4375C258.292 43.6458 257.396 42.2917 257.188 41.375L255 40.9375C254.375 40.9375 254.062 41.7292 254.062 43.3125C253.688 43.3125 253.188 44.5417 252.562 47L252.375 47.1875C252.375 47.5208 251.896 47.8333 250.938 48.125V49.125H251.438V49.5625C250.604 49.5625 250.188 50.1458 250.188 51.3125C249.771 51.3125 249.125 52.1042 248.25 53.6875V57.5625C247.333 58.8125 246.604 60.6667 246.062 63.125C245.604 63.125 245.375 63.6667 245.375 64.75C244.708 64.75 244.375 65.3333 244.375 66.5C243.75 66.5 242.958 67.2917 242 68.875H241.25V70.125L238.625 75.6875C238.625 76.8125 237.958 77.8542 236.625 78.8125L237.125 79.5625C235.375 81.5208 234.5 83.6042 234.5 85.8125L234.25 86.0625C235.125 87.5208 235.75 88.25 236.125 88.25L236.938 88L237.375 88.5H238.375L238.125 88.25V88L238.375 87.75H238.812V88.25H240.25V87.5625H240.75L241.062 88.6875L242.688 88.25V88.6875C241.396 89.0208 240.75 89.3542 240.75 89.6875L241.062 89.9375C240.229 90.0208 239.812 90.25 239.812 90.625C240.271 90.625 241.875 91.4375 244.625 93.0625H244.875V93.8125H244.625C244.208 93.3542 242.438 92.4583 239.312 91.125V90.875H238.625L239.125 91.5625V92.0625H238.812C238.396 92.0625 238.167 91.6667 238.125 90.875L237.375 91.5625L236.125 90.875L235.938 91.125L235.688 90.875L235.438 91.125V92.375L236.625 94.25H236.438L234.25 92.375L233.75 92.8125C233.75 95.2708 234.396 96.5 235.688 96.5C236.396 95.6667 237.062 95.25 237.688 95.25V95.6875C236.979 95.6875 236.458 96.0208 236.125 96.6875C236.125 97.0208 236.542 97.1875 237.375 97.1875V97.625L235.938 97.9375L236.125 98.125V98.625C235.5 98.625 235.188 98.7708 235.188 99.0625L235.688 99.5625H235L234.25 99.0625H232.812L233.062 99.375V99.5625L232.125 101V101.312H232.562V101.5L234.5 101L234.688 101.312V101.75C234.688 102.083 234.375 102.25 233.75 102.25L234 102.438V102.938H233.75L229.688 99.5625H229.438V99.8125H229.875V101C229.875 101.333 230.125 101.5 230.625 101.5V102L229.188 102.25C229.188 102.583 229.521 102.75 230.188 102.75V103.188H229.688V103.438L231.125 103.688V104.188H229.875L229.688 103.875H229.438L229.188 104.625L231.125 105.625L231.812 105.438V105.875H231.125V106.125H231.625L234.25 105.125H234.5V105.438H234V105.625H234.25L236.125 105.125H236.438C236.438 105.458 235 106.042 232.125 106.875C231.917 107.75 231.417 108.542 230.625 109.25C230.625 109.708 230.958 109.938 231.625 109.938L231.812 110.188V110.688H231.625C230.917 110.021 230.271 109.688 229.688 109.688H229.438L229.688 109.938V110.188L229.438 110.375H229.188L228.938 109.688L228.75 109.938L227.5 109.688C227.042 109.688 226.562 110.021 226.062 110.688H225.75V110.875H226.062L226.75 110.688V110.875C226.208 111.833 225.729 112.312 225.312 112.312V112.812C225.604 113.438 226.083 113.75 226.75 113.75V114.25L224.625 113.75L224.125 115H223.625V114.25H223.375L222.688 114.75H222.375C222.375 114.125 222.062 113.708 221.438 113.5H221.25L220.938 113.75H220.75L221.938 115.5H221.438V115.938H221.938V116.188L221.688 116.438L222.688 118.375H223.375V118.875C222.833 118.875 222.354 119.354 221.938 120.312L222.875 121.75H222.688C222.021 121.417 221.688 121 221.688 120.5H220.938V120.75L221.438 121.438H221.25L220.938 121.25H220.75C220.75 121.708 220.583 121.938 220.25 121.938C219.958 121.938 219.812 121.708 219.812 121.25H219.312V122.188L219.062 123.438H218.562V121.25H218.375C218.375 121.875 218.104 122.188 217.562 122.188H217.312V121.938L217.562 121.25L216.875 120.75L216.625 121L216.125 120.5C216.125 120.833 215.438 121.25 214.062 121.75V121.438L214.5 121L214.25 120.75V119.812L214.75 119.312L214.5 119.062V118.875L214.75 117.875C214.417 117.875 214.25 117.625 214.25 117.125L213.062 116.938C213.062 116.646 213.625 116.312 214.75 115.938C214.833 114.979 215.229 114.5 215.938 114.5L215.5 114.062H215.188L215 114.25H214.75L214.5 114.062V113.75H215V112.812H214.75L213.562 113.25L214.25 112.312V112.125L213.562 111.375H213.062C212.604 111.875 211.708 112.125 210.375 112.125L210.188 112.312V112.562C210.521 112.562 210.75 113.062 210.875 114.062H210.688C210.021 114.062 209.688 114.438 209.688 115.188H209.25L209.938 113.75L208.5 113.5C207.458 113.917 206.812 114.583 206.562 115.5L205.312 115.188H204.125V115.688H203.875L203.375 115.188L203.875 114.75H205.125L205.312 115L206.562 114.25L206.25 114.062V113.75L206.562 112.812C205.729 112.021 205 111.625 204.375 111.625C204.375 111.958 204.146 112.125 203.688 112.125L202.938 111.812C202.854 112.229 202.354 112.792 201.438 113.5L201.25 113.25V113.062C202.75 111.479 203.708 110.688 204.125 110.688V110.188L203.688 108.75C203.271 108.75 202.375 108.125 201 106.875H201.25C201.958 106.875 203.083 107.417 204.625 108.5L206.25 107.812L206.062 107.562V107.062H206.25L206.562 107.312H206.75L207.75 105.125L206.562 103.688L207.25 103.188H208.188L209.688 104.188H210.188L210.688 103.688L208.5 101.312L208.75 101H208.938C209.312 101.667 210.125 102.396 211.375 103.188V103.438L212.125 102.75L211.375 101.312V101L212.625 102L212.812 101.75C212.479 100.75 212.083 100.188 211.625 100.062H211.375V101C211.042 101 210.708 100.354 210.375 99.0625C209.292 99.0625 208.75 98.6875 208.75 97.9375H208.5L207.75 98.625L207.5 98.375V98.125L208 97.625L207.5 97.1875H207.25L206.562 97.625H206.062L206.562 96.9375V96.6875L206.25 96.5V96.1875L207.062 95.5C206.688 95 206.104 94.75 205.312 94.75L205.125 94.5L203.875 94L202.438 94.5L202.25 94.25V93.5L202.688 93.0625C203.021 93.0625 203.188 93.3125 203.188 93.8125H203.375C204.958 93.8125 206.25 94.125 207.25 94.75C207.5 94.125 207.812 93.8125 208.188 93.8125V93.5L207.75 92.8125V92.5625H208L208.5 93.0625L209.25 92.8125V92.5625C209.25 92.2292 208.833 92.0625 208 92.0625L207.75 91.875V91.5625H208.5L209.688 91.875C209.688 91.4167 210.021 91 210.688 90.625C210.688 91.4583 211.167 91.875 212.125 91.875H213.312L212.625 90.875L212.812 90.125H213.062C213.104 90.7917 213.333 91.125 213.75 91.125H214.062V90.4375L213.562 89.6875V89.1875C213.979 89.1875 214.292 89.75 214.5 90.875H214.75L215 89.9375L214.75 88.6875V86.5625C215.125 86.5625 215.375 87.6042 215.5 89.6875H215.938V89.1875H216.438L216.625 89.4375H216.875V88.6875H217.312L217.125 89.9375H217.562L217.812 88.6875L217.562 87.25H217.812L217.562 87.0625V86.75L217.812 86.5625V86.3125L217.125 86.0625L217.562 85.625L218.062 86.0625C219.104 82.1875 219.917 79.9375 220.5 79.3125L220 78.8125C220.542 70.7708 221.271 66.75 222.188 66.75C223.146 65.375 223.625 64 223.625 62.625L224.125 61.1875L224.312 60.9375V60.4375L223.625 59C224.75 58.7917 225.312 58.3958 225.312 57.8125L226.5 54.875C226.208 54.875 226.062 54.5625 226.062 53.9375H225.75L225.562 54.1875H225.312L225.062 53.25L224.312 53.6875H224.125L224.812 52.25L224.625 52H224.125C224.083 52.5 223.354 52.9167 221.938 53.25H221.688L223.625 51.3125V50.8125L223.375 50.5625V50.3125L224.125 50.0625V49.5625C223.5 49.5625 223.188 49.4167 223.188 49.125V48.875H223.875V48.625H223.625L220.25 48.875H219.5V48.4375H219.812C222.812 48.1042 224.417 47.6875 224.625 47.1875C223.917 46.9375 223.438 46.5208 223.188 45.9375H223.375L225.562 46.5L225.75 46.1875V45.9375L224.812 44.5V43.3125C225.438 43.7292 225.75 44.2917 225.75 45H226.25L226.062 43.8125H226.5C226.5 44.6042 226.667 45 227 45L227.188 42.875H227.5C228 42.9583 228.25 43.5833 228.25 44.75L228.438 44.5H228.75L228.938 44.75C229.021 44.125 229.271 43.8125 229.688 43.8125H229.875L230.188 44.5L229.438 45.25L230.188 45.4375C231.938 44.4792 232.812 43.6875 232.812 43.0625L235.188 37.25C235.188 35.5 235.667 34.2292 236.625 33.4375L236.938 32.1875L236.125 31.5V31.25L237.375 31.5V31.25C237.375 30.7917 237.792 30.4583 238.625 30.25C238.625 29.7917 238.854 29.5625 239.312 29.5625C240.271 28.8958 240.75 27.6042 240.75 25.6875L244.125 21.625C244.958 18.875 246.167 17.5 247.75 17.5ZM218.062 17.9375H218.562C221.229 18.7292 222.833 19.4792 223.375 20.1875H223.188L218.062 18.4375V17.9375ZM230.875 19.1875H231.312V19.375L231.125 19.6875V19.875C232.417 19.875 233.542 20.4583 234.5 21.625H237.125V22.0625H236.438C235.729 22.0625 235 22.5417 234.25 23.5L234.688 25L231.312 27.375C231.312 28.25 230.458 28.8958 228.75 29.3125L227.5 31.25H227.188L228 29.3125L225.75 28.625H225.562C224.771 29.25 224.125 29.5625 223.625 29.5625L222.875 29.125L222.688 29.3125H222.375L221.688 29.125L220.938 29.3125L222.188 27.875C221.688 27.875 221.271 27.5417 220.938 26.875V25.9375L222.188 23.75L222.875 23.5V23.0625C222.5 23.0625 221.792 22.5833 220.75 21.625V21.3125H220.938L223.875 23.0625L225.312 22.5625C225.312 22.0625 225.562 21.8125 226.062 21.8125V21.625C225.312 21.5 224.5 21.0208 223.625 20.1875H224.125L227.188 21.125C227.188 20.7917 227.938 20.5417 229.438 20.375L229.688 20.625L230.875 19.1875ZM267.562 35.0625L267.875 35.375V35.5625L267.562 35.8125H267.125V35.5625L267.562 35.0625ZM233.75 36.5V37.25L233.062 38.0625H232.812L232.312 37.5625V37.25C232.312 36.9583 232.792 36.7083 233.75 36.5ZM227.5 37.5625L228.438 38.75L228.25 40.4375H227V39.9375H227.5L226.062 39V38.25C226.188 37.7917 226.667 37.5625 227.5 37.5625ZM266.438 38.5V38.75L265.875 39.1875L265.375 38.75L265.625 38.5H266.438ZM220.938 41.125L221.438 41.875L220.938 42.375L220.5 41.375L220.75 41.125H220.938ZM216.438 42.875L217.125 43.5625L216.875 43.8125H216.625L215.938 43.0625L216.125 42.875H216.438ZM216.625 46.5H216.875V47.1875H216.125V47L216.625 46.5ZM255.75 46.5H256.5L257 47L256.25 47.4375H255.75L255.25 47L255.75 46.5ZM215.5 51.3125H215.938V51.8125L215 52V51.8125L215.5 51.3125ZM225.312 54.1875V54.875H224.812V54.6875L225.312 54.1875ZM293.438 58.8125H293.625V59L292.938 59.75V59.25L293.438 58.8125ZM281.125 60.75H281.312V60.9375L279.875 61.875V61.6875C280.208 61.0625 280.625 60.75 281.125 60.75ZM318.125 47.5L318.375 47.75V48L318.125 48.25H317.875L317.625 48V47.75L317.875 47.5H318.125ZM257 81H257.188L257.688 81.5L257.5 81.6875H257.188L257 81.5V81ZM217.125 82.625L217.312 82.9375V83.4375H216.625V83.125L217.125 82.625ZM212.125 82.9375L212.312 83.125V83.4375L212.125 83.625H211.625V83.4375L212.125 82.9375ZM214.062 84.5625L214.75 85.3125V86.0625H214.5L213.562 85.125L214.062 84.5625ZM208.75 85.8125H208.938L209.438 86.3125L209.25 86.5625H208.938L208.75 86.3125V85.8125ZM251.438 86.0625H251.875L252.375 86.5625L251.625 87.25H250.688C250.896 86.4583 251.146 86.0625 251.438 86.0625ZM211.875 87.0625H212.125L212.625 87.5625V87.75L211.875 87.0625ZM266.875 87.75V88L264.875 89.4375L264.688 89.1875V89C265.104 88.1667 265.833 87.75 266.875 87.75ZM207.062 89L207.25 89.1875V89.9375H206.75L206.562 89.1875L206.75 89H207.062ZM199.312 91.125H200.312L200.75 91.5625L200.5 91.875V92.0625L200.75 92.375L199.562 92.5625L198.75 91.875V91.5625L199.312 91.125ZM268.562 91.5625H269.312L268.812 92.0625L268.562 91.875V91.5625ZM211.188 92.0625V92.5625H210.688L210.375 92.375H210.188L209.938 92.5625V92.8125C210.396 92.8125 210.875 93.0417 211.375 93.5C212 93.2917 212.312 93.0625 212.312 92.8125C211.688 92.8125 211.375 92.6667 211.375 92.375L211.625 92.0625H211.188ZM211.875 93.8125L212.125 95H212.312L212.625 93.8125H211.875ZM245.062 93.5H245.375L246.062 94.25V94.5H245.875L245.062 94.25V93.5ZM240.562 94.5H242.188L242.688 95L241.75 95.6875C241 95.3958 240.604 95.0833 240.562 94.75V94.5ZM239.812 94.75V95.25L238.812 95.5V95L239.812 94.75ZM211.875 95.5C211.875 96.375 211.479 97.0833 210.688 97.625V98.125L213.062 99.8125H213.312L213.562 97.4375V97.1875C213.062 97.1875 212.812 97.0208 212.812 96.6875L213.062 96.5C212.562 96.5 212.312 96.2292 212.312 95.6875L212.125 95.5H211.875ZM232.312 95.5L232.125 95.6875V96H232.312L233.062 95.6875V95.5H232.312ZM229.875 97.9375C229.875 98.6875 230.458 99.4792 231.625 100.312V100.5H232.125L232.312 98.875C231.812 98.875 231.479 98.0833 231.312 96.5L231.812 96H231.625L229.875 97.9375ZM202.938 99.5625H203.875L204.812 100.062L205.562 99.8125L205.812 100.062V100.812L205.312 101.312L204.625 100.812C204.625 101.271 204.312 101.5 203.688 101.5C202.938 101.208 202.521 100.875 202.438 100.5V100.062L202.938 99.5625ZM238.625 99.5625H238.812L239.312 100.062L239.125 100.312H238.625V99.5625ZM204.375 102L204.625 102.25V102.438L204.375 102.75H204.125L203.875 102.438V102.25L204.125 102H204.375ZM222.188 106.562L222.375 106.875H222.688L223.625 106.125H224.812C224.812 104.833 225.125 104.188 225.75 104.188V103.688H225.312C223.521 104.688 222.479 105.646 222.188 106.562ZM239.812 104.188V104.625L237.875 105.125V104.625L239.812 104.188ZM226.25 104.938C226.167 105.896 225.688 106.375 224.812 106.375L225.312 107.062V107.312C224.521 107.896 224.125 108.604 224.125 109.438L224.312 109.688H224.625L225.062 109.25H225.312L224.812 109.938L226.062 110.188L226.75 109.25L226.25 108.75C226.5 106.667 226.812 105.625 227.188 105.625L227 104.938H226.25ZM214.75 107.812C214.75 108.562 214.354 108.938 213.562 108.938V109.688L214.75 109.938H215.188V109.688L215 107.812H214.75ZM212.812 110.188L212.625 110.375V110.875H213.75C213.75 110.667 213.438 110.438 212.812 110.188ZM200.5 114.25H201V114.5L200 115.188L199.812 115V114.75L200.5 114.25ZM211.375 114.25H211.625V115H210.875V114.75L211.375 114.25ZM207.5 116.188L207.75 116.438V116.938H207.5L207.062 116.438L207.25 116.188H207.5ZM209.25 122.188H209.438V122.438L208.938 122.875H208.75V122.688L209.25 122.188ZM292.5 1.125V1.4375L291.938 2V1.6875L292.5 1.125ZM270.375 2.3125H270.938L271.812 3.1875L271.562 3.4375H271.25L270.375 2.3125ZM298.375 2.5625L298.938 3.1875L298.062 3.75H297.812V3.1875L298.375 2.5625ZM299.812 5.8125L300.438 6.375L300.125 6.6875H299.812L299.25 6.0625L299.562 5.8125H299.812ZM302.438 5.8125C303.229 6.10417 303.625 6.39583 303.625 6.6875V7.25L302.438 6.6875L302.188 6.9375L301.562 6.0625L302.438 5.8125ZM290.75 6.0625L291.062 6.375V6.6875L290.75 6.9375H290.188V6.6875L290.75 6.0625ZM296.938 6.375H297.188V6.9375L295.125 9.875C295.75 9.875 296.062 10.0833 296.062 10.5L295.75 11.625C296.125 11.625 296.312 11.9167 296.312 12.5H296.625C296.625 11.5833 297.208 10.8125 298.375 10.1875L299.25 9.3125H299.562L300.688 9.5625C301.479 9.39583 301.875 9.02083 301.875 8.4375H302.438V9C303.229 8.625 303.625 8.14583 303.625 7.5625L305.375 8.125C305.75 8.125 305.938 7.83333 305.938 7.25H306.562V7.5625L306.25 8.4375H306.812C308.104 7.64583 309.083 7.25 309.75 7.25H310.625L311.5 7.8125L313.25 7.5625H313.562L313.25 7.8125C312.167 8.22917 311.396 8.91667 310.938 9.875L311.5 10.75C309.958 11.4167 309.188 11.9167 309.188 12.25V12.5C310.729 11.5417 311.896 11.0625 312.688 11.0625H312.938V11.375L307.125 14L307.688 13.125L306.25 12.8125L306.562 11.9375H306.25C305.333 11.1458 304.458 10.75 303.625 10.75C300.125 10.75 298.375 11.5417 298.375 13.125L300.688 14.25L302.438 13.125H302.75V13.6875L302.438 14V14.25H302.75L303.062 14L304.5 14.25L305.688 14L305.938 14.25H306.25L307.125 14L304.5 16.3125C306.833 16.3125 308 17.7708 308 20.6875L308.562 21.875V22.4375L307.125 23.3125C305.958 22.4375 305.375 21.75 305.375 21.25H304.188L303.938 22.4375L304.188 22.75L303.938 23H303.625L302.75 21.875V21.5625L303.062 20.125L302.188 19.5L301.562 22.125V22.4375C301.562 22.8542 302.354 23.25 303.938 23.625L303.625 25.0625V25.625C303.625 26.0833 304.104 26.375 305.062 26.5C306.688 25.3333 307.854 24.75 308.562 24.75H309.188L309.75 25.375C309.708 25.75 308.354 26.7083 305.688 28.25C304.771 27.875 304.271 27.5 304.188 27.125L301.875 27.6875V28.875C301.875 30.4167 302.938 33.0417 305.062 36.75L305.688 39.6875L305.375 39.9375C305.958 39.9375 306.25 40.3333 306.25 41.125H306.562L306.812 40.8125H307.125C307.125 42.3958 307.417 43.1875 308 43.1875V45.8125C309.542 49.3125 310.896 51.5417 312.062 52.5C313.229 56.125 313.812 59.0417 313.812 61.25H314.125C314.125 60.7917 315.688 57.9792 318.812 52.8125C319.396 52.0208 320.083 50.0625 320.875 46.9375C321.958 45.9792 323.125 43.0625 324.375 38.1875C324.75 38.1875 325.521 36.6458 326.688 33.5625L326.375 30.9375C326.958 29.9375 327.75 29.4375 328.75 29.4375L330.5 23.3125L331.938 23V22.75C331.938 22.3333 331.062 22.125 329.312 22.125C329.312 20.9583 328.146 20.375 325.812 20.375L326.125 20.6875V21.25C325.25 20.6667 323.875 20.2917 322 20.125L321.125 20.375C321.125 20 320.75 19.8125 320 19.8125V19.5L320.875 18.625H322.312L329 20.125C331.333 20.125 332.5 18.75 332.5 16H333.125L332.5 18.9375C333.875 19.6875 334.562 20.4583 334.562 21.25H334.875L336.312 16L335.75 15.125V14.875L336.312 14.25H336.938L337.188 14.5625H337.5L338.375 13.375L343.062 17.75C343.062 19.375 344.312 20.4583 346.812 21V21.875C346.812 22.1667 346.042 22.6458 344.5 23.3125L343.938 26.8125C346.271 27.3958 347.438 28.5625 347.438 30.3125L348 32.0625L347.688 32.9375C350.021 34.3125 351.479 35 352.062 35L354.438 34.4375H355L355.875 35.3125L355.625 35.5625H351.812C355.896 38.1875 357.938 40.2292 357.938 41.6875L357.625 42H357.062L353.562 37.625L350.625 36.1875C350.083 36.1875 349.208 35.6042 348 34.4375L347.688 34.125H347.438V34.4375L348 35.3125V35.5625L347.125 36.4375H346.812L346.25 35.875L346.562 35.5625V35.3125L345.688 34.6875L345.375 35V35.5625L345.938 36.4375V36.75L344.5 38.5L344.812 41.125L344.188 42.3125C344.521 48.3542 345.396 51.375 346.812 51.375H347.125V52.25C346.167 52.25 345.479 53.3125 345.062 55.4375V56.3125L347.438 63.3125C347.729 63.3125 348.104 64.0833 348.562 65.625C349.354 65.625 349.854 66.4167 350.062 68L352.688 66.25H353C351.417 68.2083 350.625 69.5625 350.625 70.3125H351.188L352.375 69.4375H353L351.188 71.8125V72.0625L351.5 71.8125H352.062L352.375 72.0625H352.688C352.896 71.4792 353.479 71.1875 354.438 71.1875H354.75L355.312 71.8125C354.354 71.8125 353.583 72 353 72.375L354.125 74.6875L355.875 74.125L355.625 73.8125V73.5625L356.188 72.9375L356.75 73.5625V74.125C356.75 74.7083 355.979 75 354.438 75V75.3125C354.979 76.2708 355.854 76.75 357.062 76.75L357.375 77.0625C358.125 77.4375 358.5 78.2083 358.5 79.375L358.812 79.6875H359.375C360.583 78.6875 361.458 78.1875 362 78.1875L362.312 78.5V79.0625L362 79.375V79.6875L361.125 79.375L358.812 80.5625L357.938 79.6875H357.625C358.25 81.1042 360.292 83.5417 363.75 87L364.375 86.375L364.938 87L364.625 87.875H364.938L366.125 88.4375H366.375L367.25 87.875C368.25 87.875 368.75 88.4583 368.75 89.625H369C369.458 89.625 369.75 88.9375 369.875 87.5625L371.688 87.25V86.6875C371.688 86.3125 371.375 86.125 370.75 86.125L370.5 85.8125V84.9375H370.75C371.833 84.9375 372.521 85.3333 372.812 86.125L372.562 86.375C373.104 86.375 373.583 86.7708 374 87.5625C372.042 88.6042 371.062 89.7708 371.062 91.0625L372.562 92.25V92.5L370.5 94.5625V96C371.208 96 372.188 96.7917 373.438 98.375H373.125L373.438 98.625V100.375H374V101C373.542 101 373.146 101.375 372.812 102.125V102.438H374L376.062 102.75V103.312H371.938V103.625L372.25 103.938V104.188C370.667 104.188 369.875 105.458 369.875 108H369.312L369.625 105.938L369.312 106.25H368.438V105.688C368.438 105.104 369.021 104.812 370.188 104.812L369.875 104.5L371.062 102.75H368.125C367.75 102.75 367.562 102.458 367.562 101.875H366.688L364.625 103.938V104.5C365.208 104.5 365.5 104.688 365.5 105.062V105.688L363.75 105.938V105.688L362 104.188L360.25 105.062H359.688C359.688 104.771 360.083 104.479 360.875 104.188L361.125 103.938V103.312C360.333 103.312 359.75 102.833 359.375 101.875L358.25 101.562L357.375 101.875L357.938 103.625L356.5 104.188V103.938L356.75 103L355.625 102.125H355C355 102.708 354.812 103 354.438 103C354.062 103 353.875 102.521 353.875 101.562C352.667 101.562 352.062 100.875 352.062 99.5H352.688L353.562 100.125V99.8125C353.562 96.6875 352.979 94.8333 351.812 94.25C350.646 94.25 348.792 90.9375 346.25 84.3125C345.417 84.3125 344.833 82.9583 344.5 80.25C344.167 80.25 343.688 79.375 343.062 77.625H342.438L341.562 77.9375V77.625L341.312 76.75L341.875 76.1875L340.125 75.875C340.208 75.4583 340.688 75.0625 341.562 74.6875L341.312 74.4375V73.5625L341.562 72.6875H341.312L341 72.375H340.688L341 72.0625V71.1875H340.125C340.125 71.7292 339.438 72.3125 338.062 72.9375L337.188 72.6875V72.9375L336.938 73.8125L337.188 74.125L334.875 76.75L335.188 78.1875L334.875 78.5H334.562L334.312 77.3125L332.812 77.625H332.5V77.3125C333.083 76.8125 333.375 76.3333 333.375 75.875L334.312 76.4375L336.312 73.25H336.062L334.312 72.9375C334.312 73.5208 333.917 73.8125 333.125 73.8125L333.688 75L332.812 75.5625H332.5L330.188 74.125C330.396 73.2917 330.875 72.6042 331.625 72.0625V71.5L331.938 71.1875L331.625 70.9375L330.188 70.0625H329.875L329.625 70.3125V70.625L330.188 71.1875C329.896 71.9792 329.604 72.375 329.312 72.375H329C328.5 72.375 328.208 71.8958 328.125 70.9375H327.875V71.8125L328.125 72.6875L327 74.4375L327.25 75.875C326.75 75.875 326.167 77.0417 325.5 79.375C326.75 80.875 328.5 82.0417 330.75 82.875L331.375 84.0625C331.042 85.4375 330.646 86.125 330.188 86.125C329.396 86.125 329 85.1458 329 83.1875C326.5 82.4375 325.25 81.3542 325.25 79.9375C324.417 79.9375 323.917 79.2708 323.75 77.9375L324.938 77.3125C324.938 77.0208 324.542 76.7292 323.75 76.4375L322.625 76.75H322.312V76.4375L322.875 75.875H323.5L325.25 76.4375V76.1875L324.938 74.6875L327 72.9375V72.375L326.688 72.0625V71.8125C325.729 71.8958 325.25 72.1875 325.25 72.6875H324.625L324.375 71.1875H323.75L323.5 71.5H323.188L323.5 71.8125V72.0625L323.188 73.25H322.625L322.312 71.8125L321.125 72.0625V72.375L321.75 73.5625C321.75 74.1458 321.458 74.4375 320.875 74.4375V74.6875H322.875V75.3125H321.125L320.875 76.75L321.438 79.6875L320.562 79.0625L320.25 79.375V78.5C319.667 79.0417 319 80.8958 318.25 84.0625C317.917 84.0625 317.229 84.9375 316.188 86.6875V87H316.5C317.417 86.8333 319.833 85.5625 323.75 83.1875H324.625V83.75C324.625 84.2917 323.271 84.875 320.562 85.5C320.562 85.9583 318.917 86.8333 315.625 88.125C315.625 88.8333 315.333 89.625 314.75 90.5L315.625 90.75V91.625H315.312L314.438 91.0625C313.271 92.2292 312.292 93.9792 311.5 96.3125L310.312 97.1875H310.062C309.729 97.1875 309.042 96.3125 308 94.5625L308.312 93.125L305.938 92.5C305.688 93.4583 304.438 94.5417 302.188 95.75H301.562V95.4375C301.562 95.0208 302.833 94.1458 305.375 92.8125C305.458 92.0208 305.75 91.625 306.25 91.625L303.062 83.75C303.062 80.5833 302.854 78.0625 302.438 76.1875L302.75 75.3125L302.438 75L303.062 71.8125L301 58.375C300.292 58.375 299.417 55.1667 298.375 48.75C297.833 47.9167 297.25 45.8542 296.625 42.5625H296.312C296.312 46.8125 295.833 50.125 294.875 52.5L295.125 56V58.625L292.25 70.625L291.938 70.9375H292.25L294.25 69.4375H296.062L297.5 69.75V70.3125L296.062 70.625L295.438 70.0625L290.5 71.8125L291.062 72.6875L289.625 72.9375V73.25L290.75 73.5625L290.5 73.8125V74.125L289.875 88.75V89.625L291.938 88.4375H292.5C290 90.1458 288.75 91.7083 288.75 93.125C288.25 94.6667 287.854 95.4375 287.562 95.4375L287.25 95.125V94.5625L287.562 94.25V94C287.188 94 287 93.5 287 92.5C286.625 92.5417 285.833 93.3333 284.625 94.875C284.958 94.875 285.458 95.9375 286.125 98.0625L286.375 97.75H286.688L287.562 98.375L288.75 97.1875H289L290.5 98.375L290.188 98.625L289 98.375L286.688 98.9375L286.375 98.625V98.9375L286.688 99.8125L286.375 100.125H286.125L284.938 98.9375L285.25 98.625C284.833 98.625 284.625 98.25 284.625 97.5L284.375 97.1875H283.5C283.5 97.7292 282.917 98.5 281.75 99.5L282.875 101L282.312 101.875L279.688 101.562V101.875L282.875 105.375H282.312C278.812 102.125 276.479 100.375 275.312 100.125L274.188 100.688L273.562 99.5H272.125L269.812 102.125H269.5L268.938 101.562V101.25L268.625 101.562H267.125V101C269.083 100.833 270.062 100.542 270.062 100.125L269.812 99.8125L272.438 97.75L272.125 97.5V96.875C272.75 96.2083 273.333 95.1458 273.875 93.6875L272.688 92.8125V92.25C273.688 92.25 274.188 91.6667 274.188 90.5L275.938 88.125V84.9375L277.375 81.4375L277.062 79.6875C278.354 74.2292 279.521 71.5 280.562 71.5L281.75 68.3125L281.438 66.25C281.438 63.0833 282.125 59.1875 283.5 54.5625C283.875 54.5625 284.062 53.2083 284.062 50.5C284.729 50.5 285.208 47.375 285.5 41.125C286.5 39.9167 287 38.6458 287 37.3125V36.1875L286.375 33.8125V30.9375L286.688 29.4375H286.375L284.938 30.9375L284.062 30.3125L281.75 30.9375C281.75 30.3542 282.917 30.0625 285.25 30.0625L287 26.8125L286.688 25.625C287.854 24.2917 288.438 22.9375 288.438 21.5625H288.125C287.833 21.5625 287.542 21.9583 287.25 22.75L287 23H286.688L286.375 22.75H286.125L285.812 23.875L285.5 23.625H284.375L284.625 23.875V24.1875L283.75 25.0625C283.375 23.7708 282.708 22.7083 281.75 21.875V21.5625L282.312 21C282.979 21 283.958 21.375 285.25 22.125C287 21.3333 287.875 20.375 287.875 19.25H289.312L288.438 18.375L287.562 18.9375C286.188 18.4792 285.5 18.0833 285.5 17.75L285.812 16.3125L284.938 15.4375C285.812 15.0625 286.292 14.6667 286.375 14.25L285.5 11.9375L283.75 10.75C283.75 13.0833 283.458 14.25 282.875 14.25H282.312C281.938 14.25 281.75 13.9583 281.75 13.375L281.438 13.6875H280.875V13.375C281.667 12.4167 282.438 11.9375 283.188 11.9375L282.875 11.625V11.375L283.5 10.5L277.062 7.8125L271.562 9.5625V8.6875C271.562 8.0625 273.104 7.58333 276.188 7.25L279.125 7.8125L280 6.9375H280.25V7.5625H279.688C279.688 7.97917 281.146 8.64583 284.062 9.5625V9.875L283.75 10.1875L284.625 10.75H285.812L285.5 9.3125L286.688 8.4375H287L287.875 9.3125L286.688 10.75H287.25C291 10.75 293.042 9.6875 293.375 7.5625H294V9.5625L296.938 6.375ZM315.625 6.6875H316.5L317.062 7.25L316.5 7.8125H316.188L315 7.25L315.625 6.6875ZM319.375 7.8125C319 8.60417 318.417 9 317.625 9V8.6875C317.833 8.10417 318.417 7.8125 319.375 7.8125ZM305.375 8.4375L305.062 8.6875V9L306.25 9.3125L306.562 9V8.6875L305.375 8.4375ZM315.625 9.5625H315.875L316.75 9.875V10.5H316.5L315.625 9.5625ZM337.5 10.5V11.0625L337.188 11.375L337.5 11.625V12.25L336.625 13.125C335.583 13.125 334.896 12.7292 334.562 11.9375C335.896 10.9792 336.875 10.5 337.5 10.5ZM289 11.375L290.5 12.5H290.75L291.062 11.375H289ZM286.688 11.9375C286.688 12.2292 287.083 12.5208 287.875 12.8125V11.9375H286.688ZM278.25 11.9375H280L280.875 12.8125V13.125L279.375 12.25C279.375 12.6667 278.604 13.0417 277.062 13.375V13.125L278.25 11.9375ZM324.625 13.6875L324.938 14V14.25L324.375 14.875L324.062 14.5625V14.25L324.625 13.6875ZM290.5 14.875V15.4375L291.062 14.875V14.25L290.5 14.875ZM308.312 14H309.188L310.625 15.75L309.75 16.3125H308.875L307.438 14.875L308.312 14ZM303.625 15.4375H304.188L304.812 14.875H304.188L303.625 15.4375ZM282 16.875H283.5C283.875 16.875 284.25 17.4583 284.625 18.625L284.375 20.125H282L281.438 19.5L281.75 18.0625H281.125V17.75L282 16.875ZM310.938 18.375H312.062V18.9375H310.938V18.375ZM275.938 18.9375L276.5 19.5L276.188 19.8125H275.938L275.312 19.25L275.625 18.9375H275.938ZM279.375 21L279.688 21.25V21.5625L279.125 22.125L278.812 21.875V21.5625L279.375 21ZM312.938 21.5625H313.812L314.438 22.125V22.4375L313.812 23H313.562L312.938 22.4375V21.5625ZM273 22.125L274.75 22.4375V23L270.938 24.1875V23.875C271.438 23.0417 272.125 22.4583 273 22.125ZM323.75 23L324.062 23.3125V23.625L323.188 24.1875L322.875 23.875V23.625L323.75 23ZM301.562 25.625L302.438 26.5H302.75V25.625H301.562ZM280.875 26.25H282.312L282.875 26.8125V27.125L282 28H281.125L280.25 27.125V26.8125L280.875 26.25ZM327.562 28.25H328.125V28.5625L327 29.75H326.375V29.4375L327.562 28.25ZM324.375 29.75L324.938 30.3125V30.625H324.375L323.75 30.0625L324.062 29.75H324.375ZM281.438 30.9375H281.75L280.25 32.9375L279.688 32.375L281.438 30.9375ZM307.688 31.5L308.312 32.375L308 32.6875H307.688L307.125 32.0625L307.688 31.5ZM323.188 31.5H324.625L325.5 32.375V32.6875L324.938 33.25L322.875 32.9375C322.583 33.7292 321.917 34.125 320.875 34.125V33.8125L323.188 31.5ZM320.562 34.125H320.875L320.25 34.6875H320L320.562 34.125ZM319.375 35H319.688V35.3125L318.25 36.4375H317.938L319.375 35ZM358.812 35L359.375 35.5625L359.125 35.875H358.812L358.25 35.3125L358.5 35H358.812ZM317.375 36.75C318.542 36.75 319.125 37.4375 319.125 38.8125C318.708 38.8125 318.417 39.3958 318.25 40.5625L318.812 41.6875H317.938V40.8125H317.625C316.792 41.9792 315.521 42.5625 313.812 42.5625C312.854 42.3958 312.375 42.0208 312.375 41.4375H310.625C310.25 41.4375 310.062 41.7292 310.062 42.3125H309.75L309.188 41.6875C309.562 41.1042 310.625 40.8125 312.375 40.8125L312.062 40.5625V40.25L313.562 39.0625L313.25 38.8125C314.292 37.6042 315.667 36.9167 317.375 36.75ZM295.75 39.9375L296.062 41.125H296.312V39.9375H295.75ZM319.125 41.4375H319.375C320.167 41.7292 320.562 42.0208 320.562 42.3125V42.875L320 43.4375L319.688 43.1875L320 42.875V42.5625C320 42.1875 319.708 42 319.125 42V41.4375ZM359.375 42.875L359.688 43.1875V43.4375L359.375 43.75H359.125L358.812 43.4375V43.1875L359.125 42.875H359.375ZM357.375 43.75H357.938C359.688 45.4167 360.562 46.6875 360.562 47.5625H360.25L357.375 43.75ZM348.312 45.1875H348.562V45.5C348.271 46.2917 347.979 46.6875 347.688 46.6875H346.812V46.375L348.312 45.1875ZM357.938 46.9375C358.438 46.9375 358.917 48.4167 359.375 51.375L359.125 51.625H358.812C358.438 51.375 358.146 49.8125 357.938 46.9375ZM348.562 54.875H349.438V55.125C349.438 55.4583 348.771 55.9583 347.438 56.625H347.125L348.562 54.875ZM297.188 57.1875L297.5 57.5V57.75L296.625 58.375L296.312 58.0625V57.75L297.188 57.1875ZM331.938 58.625L331.375 59.25L331.625 59.5V60.125L331.375 59.8125H331.062L330.188 61.25V61.5625L330.5 61.875V62.125L330.188 62.4375H329.875L329.312 61.875L329 62.125V63L329.625 63.875L329.312 64.1875H329L328.125 63.3125H327.875L326.688 65.375V65.625L327 65.375H327.562L328.438 65.9375C328.438 65.3542 328.833 65.0625 329.625 65.0625L331.062 63H331.938L331.625 61.5625C332.792 61.2708 333.375 60.5 333.375 59.25L331.938 58.625ZM353 61.5625L353.25 61.875V62.125L353 62.4375H352.375V62.125L353 61.5625ZM361.75 62.4375H362.312L362.875 63L361.438 64.5H360.562L360 63.875V63.3125C360.167 62.7292 360.75 62.4375 361.75 62.4375ZM329 65.625L329.312 65.9375V66.25L329 67.125L330.75 67.6875L331.062 67.4375V67.125L332.5 68.3125C333.292 68.1042 333.688 67.7083 333.688 67.125L333.375 66.8125V66.5625L333.688 65.625C333.104 65.625 332.812 64.75 332.812 63C331.438 63.2917 330.75 63.9792 330.75 65.0625L329 65.625ZM279.125 63.3125L279.688 63.875L278.812 64.75L278.25 64.1875L279.125 63.3125ZM297.812 64.5L298.375 65.0625L296.938 66.5625H296.625V65.625L297.812 64.5ZM356.5 68.5625H357.625V69.1875H357.062L356.5 68.5625ZM361.75 69.4375L362 69.75V70.0625L360 71.8125V72.0625C360.583 72.0625 360.875 72.2708 360.875 72.6875L360.562 72.9375H359.688C356.979 72.5208 355.625 72.1458 355.625 71.8125H358.25C359.125 71.8125 360.292 71.0208 361.75 69.4375ZM331.625 72.9375V73.5625H332.25L333.688 73.25V72.9375L332.5 72.6875L331.625 72.9375ZM329 73.5625L329.312 73.8125V74.125L329 74.4375H328.75L328.438 74.125V73.8125L328.75 73.5625H329ZM339.562 76.1875H340.688C340.688 76.6042 340.208 76.8958 339.25 77.0625L339.562 76.1875ZM376.625 76.75L376.938 77.0625V77.3125L376.062 78.1875L375.438 77.625L376.625 76.75ZM327.562 77.3125L329.312 78.5L328.125 79.375H327.875L327.25 78.8125L327.875 78.1875L327.562 77.9375V77.3125ZM330.5 77.625H331.062V77.9375L330.5 78.5H329.875V78.1875L330.5 77.625ZM369.625 79.0625L370.188 79.6875V79.9375H369.625L369 79.375L369.312 79.0625H369.625ZM373.438 80.8125H374L374.562 81.4375L374.312 81.6875H374L373.438 81.125V80.8125ZM338.062 81.125H338.688L340.125 82.5625V83.4375L339.562 84.3125L339.812 84.625H339.562C337.229 84.25 336.062 83.375 336.062 82C336.771 81.4167 337.438 81.125 338.062 81.125ZM367.875 82.5625V83.1875C367.125 83.1875 366.333 83.7708 365.5 84.9375H364.938C365.729 83.3542 366.708 82.5625 367.875 82.5625ZM372.25 83.4375L372.562 83.75V84.0625L372.25 84.3125H371.688V84.0625L372.25 83.4375ZM376.312 84.0625H376.625L378.938 85.25C378.688 86.2083 378.396 86.6875 378.062 86.6875H377.5C377.5 86.1042 377.104 85.8125 376.312 85.8125L375.75 85.25V84.625L376.312 84.0625ZM331.938 84.625L333.688 85.8125L332.25 86.375V86.125L331.938 84.625ZM340.125 84.9375H340.688L341.562 85.25V85.8125H341L340.125 84.9375ZM342.188 85.25H343.062L343.938 86.125L343.312 86.6875C342.562 86.3958 342.188 86.1042 342.188 85.8125V85.25ZM322 85.8125L322.312 86.125V86.375L322 86.6875H321.75L321.438 86.375V86.125L321.75 85.8125H322ZM326.125 85.8125C327 86.1875 327.479 86.5833 327.562 87V87.25L327 87.875H326.125C325.708 87.7917 325.312 87.2917 324.938 86.375L326.125 85.8125ZM296.062 86.6875L296.625 87.25V87.5625H294.25C294.458 86.9792 295.062 86.6875 296.062 86.6875ZM279.125 97.75L277.062 97.5L276.812 97.75V98.0625L277.375 98.625V98.9375C277.375 99.3125 277.083 99.5 276.5 99.5C276.5 99.9583 276.979 100.25 277.938 100.375L278.25 100.125H278.5L278.812 100.375H279.125C280 100.083 280.771 99.4167 281.438 98.375L280.875 97.1875L279.125 97.75ZM364.938 100.125C365.229 100.875 365.521 101.25 365.812 101.25L367.25 100.688C368.417 101.062 369 101.542 369 102.125H371.062C371.562 102.125 371.958 101.25 372.25 99.5C370.292 99.125 369.312 98.75 369.312 98.375L369 98.625H368.438C368.062 98.625 367.875 98.25 367.875 97.5H366.125C365.75 97.5 365.354 98.375 364.938 100.125ZM378.938 104.188H379.25C380.417 104.312 381 104.604 381 105.062L380.438 105.688L378.938 104.188ZM270.375 104.812H271.25V105.375L270.062 105.938L269.812 105.688V105.375L270.375 104.812ZM372.812 104.812L373.438 105.375V105.688L372.812 105.062V104.812ZM358.812 105.375H359.125L358.5 106.25L358.812 106.562L358.5 106.812H358.25L357.938 106.562V106.25L358.812 105.375ZM368.125 111.438V111.75L367.562 112.375H367.25V111.75L368.125 111.438ZM403.125 17.5H405.562C408.854 17.5 410.958 18.7708 411.875 21.3125C412.792 22.4792 413.917 25.1458 415.25 29.3125C415.583 29.3125 415.979 30.5208 416.438 32.9375C417.062 33.4792 417.375 34.125 417.375 34.875H417.688L420.25 32.6875H420.562L418.125 35.8125C418.875 35.8125 419.438 37.0417 419.812 39.5H422V39.9375H420.75L420.062 40.625C420.062 42.25 420.708 46.125 422 52.25C422 53.1667 422.479 54.4583 423.438 56.125L422.938 62.1875C422.938 63.1458 424 63.625 426.125 63.625C426.125 63.3333 427.625 62.8542 430.625 62.1875H431.688L432.375 62.625H433.125L435.75 62.875L437.188 62.375L437 61.1875L437.688 61.6875L438.125 61.1875H438.625V61.6875L438.438 61.875V62.1875H438.875L440.375 60.75L440.812 61.1875H441.562C441.562 60.6875 441.729 60.4375 442.062 60.4375H442.25C441.25 62.8542 439.562 64.0625 437.188 64.0625C437.188 64.6458 436.646 65.0417 435.562 65.25V65.5625C435.562 65.8958 436.667 66.1458 438.875 66.3125C440.083 65.7292 441.146 64.9792 442.062 64.0625L441.812 63.8125V63.625L443 62.375H443.25V62.875L443 63.125V63.3125H444.5C444.5 62.9792 445.125 62.4375 446.375 61.6875L448.312 59.75L448.5 61.1875L449.75 60.9375H450.25V61.1875L450 62.1875L450.25 62.875H450L448.812 62.375L448.312 62.875L448.062 62.625C446.688 63.0417 445.562 63.75 444.688 64.75L443.25 65.25V65.8125C445.042 66.4792 446 67.0208 446.125 67.4375H445.938L442.75 66.3125L442.562 66.5H442.25L441.812 66C440.771 66.9583 440.021 67.4375 439.562 67.4375L437 67C436.708 68.25 436.229 68.875 435.562 68.875L434.312 71.125H434.062L434.312 69.875H434.062L431.875 70.8125L430.625 70.625L430.438 70.8125H430.188L429.938 70.625H429.688L427.75 71.125L428.5 72.25H428.062L427.062 71.8125C427.062 72.1458 426.5 72.4583 425.375 72.75C425.958 76.6667 426.854 78.625 428.062 78.625L427.562 79.0625C427.688 80.4375 427.917 81.3125 428.25 81.6875V83.4375L427.562 84.375V84.875H428.25L428.5 84.5625H428.75L429 84.875V85.125L427.562 85.3125V86.5625L427.312 87.75C427.812 87.75 428.208 88.0625 428.5 88.6875L428.25 91.5625L429 92.375V92.5625C428.5 93.1458 428.25 93.7083 428.25 94.25V94.5L429 97.9375H428.75C430.125 99.7292 431.167 101.708 431.875 103.875H432.188L431.875 105.438C431.875 106.438 432.292 107.854 433.125 109.688L432.875 110.375C433.083 110.375 433.396 111.188 433.812 112.812C434.188 113.104 434.604 114.146 435.062 115.938C435.562 115.938 436.104 117.458 436.688 120.5H436.25C435.583 118.75 434.062 115.708 431.688 111.375V110.875L431.875 110.688C430.75 108.479 430.021 106.625 429.688 105.125L427.75 102V100.812L428.25 98.125C426.625 96.75 425.812 95.3125 425.812 93.8125L426.125 93.5V93.3125L425.812 92.5625L426.312 92.0625V91.875L425.812 90.875L426.125 89.9375C424.917 88.0625 424.104 86.4583 423.688 85.125L423.938 84.875L423.438 84.375L420.75 86.0625H420.562C422.646 84.1042 423.688 82.8125 423.688 82.1875C423.396 79.6875 422.917 78.2292 422.25 77.8125L422.5 76.6875C422.125 76.6042 421.708 75.875 421.25 74.5C419.667 74.7917 418.062 75.3542 416.438 76.1875C414.354 76.3125 412.021 76.9583 409.438 78.125V78.625C409.438 79.125 409.688 79.6667 410.188 80.25L409.188 80.5C408.688 79.25 407.958 78.625 407 78.625C405.875 80.25 404.271 81.3542 402.188 81.9375L401.688 82.4375H400.75L399.5 82.1875C399.5 83.0208 398.792 83.5833 397.375 83.875C397.375 84.7083 397.208 85.125 396.875 85.125L395.938 85.3125V85.125L395.188 85.3125L393.062 84.125L394.5 82.4375L393.5 79.75L396.875 76.375C396.875 76.875 397.104 77.125 397.562 77.125C400.979 75.25 402.688 74.2083 402.688 74L407 71.3125C407.583 71.3125 408.396 70.6042 409.438 69.1875C410.021 69.1875 411.229 68.6042 413.062 67.4375C414.021 67.4375 415.708 66.6458 418.125 65.0625L420.062 64.5625C419.021 57.6458 418.125 54.1875 417.375 54.1875L417.188 53.9375V53.6875L417.375 53.4375C417 50.2708 416.292 47.6042 415.25 45.4375C413.667 43.6458 412.771 42.2917 412.562 41.375L410.375 40.9375C409.75 40.9375 409.438 41.7292 409.438 43.3125C409.062 43.3125 408.562 44.5417 407.938 47L407.75 47.1875C407.75 47.5208 407.271 47.8333 406.312 48.125V49.125H406.812V49.5625C405.979 49.5625 405.562 50.1458 405.562 51.3125C405.146 51.3125 404.5 52.1042 403.625 53.6875V57.5625C402.708 58.8125 401.979 60.6667 401.438 63.125C400.979 63.125 400.75 63.6667 400.75 64.75C400.083 64.75 399.75 65.3333 399.75 66.5C399.125 66.5 398.333 67.2917 397.375 68.875H396.625V70.125L394 75.6875C394 76.8125 393.333 77.8542 392 78.8125L392.5 79.5625C390.75 81.5208 389.875 83.6042 389.875 85.8125L389.625 86.0625C390.5 87.5208 391.125 88.25 391.5 88.25L392.312 88L392.75 88.5H393.75L393.5 88.25V88L393.75 87.75H394.188V88.25H395.625V87.5625H396.125L396.438 88.6875L398.062 88.25V88.6875C396.771 89.0208 396.125 89.3542 396.125 89.6875L396.438 89.9375C395.604 90.0208 395.188 90.25 395.188 90.625C395.646 90.625 397.25 91.4375 400 93.0625H400.25V93.8125H400C399.583 93.3542 397.812 92.4583 394.688 91.125V90.875H394L394.5 91.5625V92.0625H394.188C393.771 92.0625 393.542 91.6667 393.5 90.875L392.75 91.5625L391.5 90.875L391.312 91.125L391.062 90.875L390.812 91.125V92.375L392 94.25H391.812L389.625 92.375L389.125 92.8125C389.125 95.2708 389.771 96.5 391.062 96.5C391.771 95.6667 392.438 95.25 393.062 95.25V95.6875C392.354 95.6875 391.833 96.0208 391.5 96.6875C391.5 97.0208 391.917 97.1875 392.75 97.1875V97.625L391.312 97.9375L391.5 98.125V98.625C390.875 98.625 390.562 98.7708 390.562 99.0625L391.062 99.5625H390.375L389.625 99.0625H388.188L388.438 99.375V99.5625L387.5 101V101.312H387.938V101.5L389.875 101L390.062 101.312V101.75C390.062 102.083 389.75 102.25 389.125 102.25L389.375 102.438V102.938H389.125L385.062 99.5625H384.812V99.8125H385.25V101C385.25 101.333 385.5 101.5 386 101.5V102L384.562 102.25C384.562 102.583 384.896 102.75 385.562 102.75V103.188H385.062V103.438L386.5 103.688V104.188H385.25L385.062 103.875H384.812L384.562 104.625L386.5 105.625L387.188 105.438V105.875H386.5V106.125H387L389.625 105.125H389.875V105.438H389.375V105.625H389.625L391.5 105.125H391.812C391.812 105.458 390.375 106.042 387.5 106.875C387.292 107.75 386.792 108.542 386 109.25C386 109.708 386.333 109.938 387 109.938L387.188 110.188V110.688H387C386.292 110.021 385.646 109.688 385.062 109.688H384.812L385.062 109.938V110.188L384.812 110.375H384.562L384.312 109.688L384.125 109.938L382.875 109.688C382.417 109.688 381.938 110.021 381.438 110.688H381.125V110.875H381.438L382.125 110.688V110.875C381.583 111.833 381.104 112.312 380.688 112.312V112.812C380.979 113.438 381.458 113.75 382.125 113.75V114.25L380 113.75L379.5 115H379V114.25H378.75L378.062 114.75H377.75C377.75 114.125 377.438 113.708 376.812 113.5H376.625L376.312 113.75H376.125L377.312 115.5H376.812V115.938H377.312V116.188L377.062 116.438L378.062 118.375H378.75V118.875C378.208 118.875 377.729 119.354 377.312 120.312L378.25 121.75H378.062C377.396 121.417 377.062 121 377.062 120.5H376.312V120.75L376.812 121.438H376.625L376.312 121.25H376.125C376.125 121.708 375.958 121.938 375.625 121.938C375.333 121.938 375.188 121.708 375.188 121.25H374.688V122.188L374.438 123.438H373.938V121.25H373.75C373.75 121.875 373.479 122.188 372.938 122.188H372.688V121.938L372.938 121.25L372.25 120.75L372 121L371.5 120.5C371.5 120.833 370.812 121.25 369.438 121.75V121.438L369.875 121L369.625 120.75V119.812L370.125 119.312L369.875 119.062V118.875L370.125 117.875C369.792 117.875 369.625 117.625 369.625 117.125L368.438 116.938C368.438 116.646 369 116.312 370.125 115.938C370.208 114.979 370.604 114.5 371.312 114.5L370.875 114.062H370.562L370.375 114.25H370.125L369.875 114.062V113.75H370.375V112.812H370.125L368.938 113.25L369.625 112.312V112.125L368.938 111.375H368.438C367.979 111.875 367.083 112.125 365.75 112.125L365.562 112.312V112.562C365.896 112.562 366.125 113.062 366.25 114.062H366.062C365.396 114.062 365.062 114.438 365.062 115.188H364.625L365.312 113.75L363.875 113.5C362.833 113.917 362.188 114.583 361.938 115.5L360.688 115.188H359.5V115.688H359.25L358.75 115.188L359.25 114.75H360.5L360.688 115L361.938 114.25L361.625 114.062V113.75L361.938 112.812C361.104 112.021 360.375 111.625 359.75 111.625C359.75 111.958 359.521 112.125 359.062 112.125L358.312 111.812C358.229 112.229 357.729 112.792 356.812 113.5L356.625 113.25V113.062C358.125 111.479 359.083 110.688 359.5 110.688V110.188L359.062 108.75C358.646 108.75 357.75 108.125 356.375 106.875H356.625C357.333 106.875 358.458 107.417 360 108.5L361.625 107.812L361.438 107.562V107.062H361.625L361.938 107.312H362.125L363.125 105.125L361.938 103.688L362.625 103.188H363.562L365.062 104.188H365.562L366.062 103.688L363.875 101.312L364.125 101H364.312C364.688 101.667 365.5 102.396 366.75 103.188V103.438L367.5 102.75L366.75 101.312V101L368 102L368.188 101.75C367.854 100.75 367.458 100.188 367 100.062H366.75V101C366.417 101 366.083 100.354 365.75 99.0625C364.667 99.0625 364.125 98.6875 364.125 97.9375H363.875L363.125 98.625L362.875 98.375V98.125L363.375 97.625L362.875 97.1875H362.625L361.938 97.625H361.438L361.938 96.9375V96.6875L361.625 96.5V96.1875L362.438 95.5C362.062 95 361.479 94.75 360.688 94.75L360.5 94.5L359.25 94L357.812 94.5L357.625 94.25V93.5L358.062 93.0625C358.396 93.0625 358.562 93.3125 358.562 93.8125H358.75C360.333 93.8125 361.625 94.125 362.625 94.75C362.875 94.125 363.188 93.8125 363.562 93.8125V93.5L363.125 92.8125V92.5625H363.375L363.875 93.0625L364.625 92.8125V92.5625C364.625 92.2292 364.208 92.0625 363.375 92.0625L363.125 91.875V91.5625H363.875L365.062 91.875C365.062 91.4167 365.396 91 366.062 90.625C366.062 91.4583 366.542 91.875 367.5 91.875H368.688L368 90.875L368.188 90.125H368.438C368.479 90.7917 368.708 91.125 369.125 91.125H369.438V90.4375L368.938 89.6875V89.1875C369.354 89.1875 369.667 89.75 369.875 90.875H370.125L370.375 89.9375L370.125 88.6875V86.5625C370.5 86.5625 370.75 87.6042 370.875 89.6875H371.312V89.1875H371.812L372 89.4375H372.25V88.6875H372.688L372.5 89.9375H372.938L373.188 88.6875L372.938 87.25H373.188L372.938 87.0625V86.75L373.188 86.5625V86.3125L372.5 86.0625L372.938 85.625L373.438 86.0625C374.479 82.1875 375.292 79.9375 375.875 79.3125L375.375 78.8125C375.917 70.7708 376.646 66.75 377.562 66.75C378.521 65.375 379 64 379 62.625L379.5 61.1875L379.688 60.9375V60.4375L379 59C380.125 58.7917 380.688 58.3958 380.688 57.8125L381.875 54.875C381.583 54.875 381.438 54.5625 381.438 53.9375H381.125L380.938 54.1875H380.688L380.438 53.25L379.688 53.6875H379.5L380.188 52.25L380 52H379.5C379.458 52.5 378.729 52.9167 377.312 53.25H377.062L379 51.3125V50.8125L378.75 50.5625V50.3125L379.5 50.0625V49.5625C378.875 49.5625 378.562 49.4167 378.562 49.125V48.875H379.25V48.625H379L375.625 48.875H374.875V48.4375H375.188C378.188 48.1042 379.792 47.6875 380 47.1875C379.292 46.9375 378.812 46.5208 378.562 45.9375H378.75L380.938 46.5L381.125 46.1875V45.9375L380.188 44.5V43.3125C380.812 43.7292 381.125 44.2917 381.125 45H381.625L381.438 43.8125H381.875C381.875 44.6042 382.042 45 382.375 45L382.562 42.875H382.875C383.375 42.9583 383.625 43.5833 383.625 44.75L383.812 44.5H384.125L384.312 44.75C384.396 44.125 384.646 43.8125 385.062 43.8125H385.25L385.562 44.5L384.812 45.25L385.562 45.4375C387.312 44.4792 388.188 43.6875 388.188 43.0625L390.562 37.25C390.562 35.5 391.042 34.2292 392 33.4375L392.312 32.1875L391.5 31.5V31.25L392.75 31.5V31.25C392.75 30.7917 393.167 30.4583 394 30.25C394 29.7917 394.229 29.5625 394.688 29.5625C395.646 28.8958 396.125 27.6042 396.125 25.6875L399.5 21.625C400.333 18.875 401.542 17.5 403.125 17.5ZM373.438 17.9375H373.938C376.604 18.7292 378.208 19.4792 378.75 20.1875H378.562L373.438 18.4375V17.9375ZM386.25 19.1875H386.688V19.375L386.5 19.6875V19.875C387.792 19.875 388.917 20.4583 389.875 21.625H392.5V22.0625H391.812C391.104 22.0625 390.375 22.5417 389.625 23.5L390.062 25L386.688 27.375C386.688 28.25 385.833 28.8958 384.125 29.3125L382.875 31.25H382.562L383.375 29.3125L381.125 28.625H380.938C380.146 29.25 379.5 29.5625 379 29.5625L378.25 29.125L378.062 29.3125H377.75L377.062 29.125L376.312 29.3125L377.562 27.875C377.062 27.875 376.646 27.5417 376.312 26.875V25.9375L377.562 23.75L378.25 23.5V23.0625C377.875 23.0625 377.167 22.5833 376.125 21.625V21.3125H376.312L379.25 23.0625L380.688 22.5625C380.688 22.0625 380.938 21.8125 381.438 21.8125V21.625C380.688 21.5 379.875 21.0208 379 20.1875H379.5L382.562 21.125C382.562 20.7917 383.312 20.5417 384.812 20.375L385.062 20.625L386.25 19.1875ZM422.938 35.0625L423.25 35.375V35.5625L422.938 35.8125H422.5V35.5625L422.938 35.0625ZM389.125 36.5V37.25L388.438 38.0625H388.188L387.688 37.5625V37.25C387.688 36.9583 388.167 36.7083 389.125 36.5ZM382.875 37.5625L383.812 38.75L383.625 40.4375H382.375V39.9375H382.875L381.438 39V38.25C381.562 37.7917 382.042 37.5625 382.875 37.5625ZM421.812 38.5V38.75L421.25 39.1875L420.75 38.75L421 38.5H421.812ZM376.312 41.125L376.812 41.875L376.312 42.375L375.875 41.375L376.125 41.125H376.312ZM371.812 42.875L372.5 43.5625L372.25 43.8125H372L371.312 43.0625L371.5 42.875H371.812ZM372 46.5H372.25V47.1875H371.5V47L372 46.5ZM411.125 46.5H411.875L412.375 47L411.625 47.4375H411.125L410.625 47L411.125 46.5ZM370.875 51.3125H371.312V51.8125L370.375 52V51.8125L370.875 51.3125ZM380.688 54.1875V54.875H380.188V54.6875L380.688 54.1875ZM448.812 58.8125H449V59L448.312 59.75V59.25L448.812 58.8125ZM436.5 60.75H436.688V60.9375L435.25 61.875V61.6875C435.583 61.0625 436 60.75 436.5 60.75ZM473.5 47.5L473.75 47.75V48L473.5 48.25H473.25L473 48V47.75L473.25 47.5H473.5ZM412.375 81H412.562L413.062 81.5L412.875 81.6875H412.562L412.375 81.5V81ZM372.5 82.625L372.688 82.9375V83.4375H372V83.125L372.5 82.625ZM367.5 82.9375L367.688 83.125V83.4375L367.5 83.625H367V83.4375L367.5 82.9375ZM369.438 84.5625L370.125 85.3125V86.0625H369.875L368.938 85.125L369.438 84.5625ZM364.125 85.8125H364.312L364.812 86.3125L364.625 86.5625H364.312L364.125 86.3125V85.8125ZM406.812 86.0625H407.25L407.75 86.5625L407 87.25H406.062C406.271 86.4583 406.521 86.0625 406.812 86.0625ZM367.25 87.0625H367.5L368 87.5625V87.75L367.25 87.0625ZM422.25 87.75V88L420.25 89.4375L420.062 89.1875V89C420.479 88.1667 421.208 87.75 422.25 87.75ZM362.438 89L362.625 89.1875V89.9375H362.125L361.938 89.1875L362.125 89H362.438ZM354.688 91.125H355.688L356.125 91.5625L355.875 91.875V92.0625L356.125 92.375L354.938 92.5625L354.125 91.875V91.5625L354.688 91.125ZM423.938 91.5625H424.688L424.188 92.0625L423.938 91.875V91.5625ZM366.562 92.0625V92.5625H366.062L365.75 92.375H365.562L365.312 92.5625V92.8125C365.771 92.8125 366.25 93.0417 366.75 93.5C367.375 93.2917 367.688 93.0625 367.688 92.8125C367.062 92.8125 366.75 92.6667 366.75 92.375L367 92.0625H366.562ZM367.25 93.8125L367.5 95H367.688L368 93.8125H367.25ZM400.438 93.5H400.75L401.438 94.25V94.5H401.25L400.438 94.25V93.5ZM395.938 94.5H397.562L398.062 95L397.125 95.6875C396.375 95.3958 395.979 95.0833 395.938 94.75V94.5ZM395.188 94.75V95.25L394.188 95.5V95L395.188 94.75ZM367.25 95.5C367.25 96.375 366.854 97.0833 366.062 97.625V98.125L368.438 99.8125H368.688L368.938 97.4375V97.1875C368.438 97.1875 368.188 97.0208 368.188 96.6875L368.438 96.5C367.938 96.5 367.688 96.2292 367.688 95.6875L367.5 95.5H367.25ZM387.688 95.5L387.5 95.6875V96H387.688L388.438 95.6875V95.5H387.688ZM385.25 97.9375C385.25 98.6875 385.833 99.4792 387 100.312V100.5H387.5L387.688 98.875C387.188 98.875 386.854 98.0833 386.688 96.5L387.188 96H387L385.25 97.9375ZM358.312 99.5625H359.25L360.188 100.062L360.938 99.8125L361.188 100.062V100.812L360.688 101.312L360 100.812C360 101.271 359.688 101.5 359.062 101.5C358.312 101.208 357.896 100.875 357.812 100.5V100.062L358.312 99.5625ZM394 99.5625H394.188L394.688 100.062L394.5 100.312H394V99.5625ZM359.75 102L360 102.25V102.438L359.75 102.75H359.5L359.25 102.438V102.25L359.5 102H359.75ZM377.562 106.562L377.75 106.875H378.062L379 106.125H380.188C380.188 104.833 380.5 104.188 381.125 104.188V103.688H380.688C378.896 104.688 377.854 105.646 377.562 106.562ZM395.188 104.188V104.625L393.25 105.125V104.625L395.188 104.188ZM381.625 104.938C381.542 105.896 381.062 106.375 380.188 106.375L380.688 107.062V107.312C379.896 107.896 379.5 108.604 379.5 109.438L379.688 109.688H380L380.438 109.25H380.688L380.188 109.938L381.438 110.188L382.125 109.25L381.625 108.75C381.875 106.667 382.188 105.625 382.562 105.625L382.375 104.938H381.625ZM370.125 107.812C370.125 108.562 369.729 108.938 368.938 108.938V109.688L370.125 109.938H370.562V109.688L370.375 107.812H370.125ZM368.188 110.188L368 110.375V110.875H369.125C369.125 110.667 368.812 110.438 368.188 110.188ZM355.875 114.25H356.375V114.5L355.375 115.188L355.188 115V114.75L355.875 114.25ZM366.75 114.25H367V115H366.25V114.75L366.75 114.25ZM362.875 116.188L363.125 116.438V116.938H362.875L362.438 116.438L362.625 116.188H362.875ZM364.625 122.188H364.812V122.438L364.312 122.875H364.125V122.688L364.625 122.188Z" fill="url(#paint0_linear_73_2)"/>
<defs>
<linearGradient id="paint0_linear_73_2" x1="2" y1="63.5" x2="410.659" y2="63.5" gradientUnits="userSpaceOnUse">
<stop stop-color="#B17BFF"/>
<stop offset="0.685" stop-color="#99005D"/>
<stop offset="1" stop-color="#FF0751"/>
</linearGradient>
</defs>
</svg>
