<svg width="100" height="90" viewBox="0 0 100 90" fill="none" xmlns="http://www.w3.org/2000/svg">
<g clip-path="url(#clip0_105_186)">
<path d="M50 9C40.1047 9 31.0094 12.2503 24.0234 17.625C23.6733 17.8759 23.3828 18.1877 23.1694 18.5417C22.956 18.8958 22.824 19.2849 22.7813 19.6859C22.7386 20.0869 22.786 20.4915 22.9208 20.8756C23.0555 21.2598 23.2748 21.6155 23.5656 21.9217C23.8564 22.2279 24.2128 22.4783 24.6134 22.6579C25.014 22.8375 25.4508 22.9426 25.8975 22.9671C26.3443 22.9915 26.7919 22.9347 27.2137 22.8001C27.6356 22.6655 28.023 22.4558 28.3529 22.1836C34.1802 17.7003 41.722 15 50 15C67.3219 15 81.5033 26.8138 83.1706 42H73.3333L86.6667 60L100 42H89.8307C88.1264 23.555 70.9261 9 50 9ZM13.3333 30L0 48H10.1693C11.8736 66.445 29.0739 81 50 81C59.8953 81 68.9906 77.7497 75.9766 72.375C76.3267 72.1241 76.6172 71.8123 76.8306 71.4583C77.044 71.1042 77.176 70.7151 77.2187 70.3141C77.2614 69.9131 77.214 69.5085 77.0793 69.1244C76.9445 68.7402 76.7252 68.3845 76.4344 68.0783C76.1436 67.772 75.7872 67.5217 75.3866 67.3421C74.986 67.1625 74.5493 67.0573 74.1025 67.0329C73.6558 67.0085 73.2081 67.0653 72.7863 67.1999C72.3644 67.3345 71.977 67.5442 71.6471 67.8164C65.8198 72.2997 58.278 75 50 75C32.6781 75 18.4967 63.1862 16.8294 48H26.6667L13.3333 30Z" fill="white"/>
</g>
<defs>
<clipPath id="clip0_105_186">
<rect width="100" height="90" fill="white"/>
</clipPath>
</defs>
</svg>
